M48
;GenerationSoftware,Autodesk,EAGLE,9.6.2*%
;CreationDate,2022-10-12T21:17:17Z*%
FMAT,2
ICI,OFF
METRIC,TZ,000.000
T6C0.350
T5C0.381
T4C1.000
T3C1.016
T2C1.200
T1C3.302
%
G90
M71
T1
X22860Y22860
X2540Y2540
X22860Y2540
X2540Y22860
T2
X3683Y17780
X3683Y14280
X3683Y10780
X3683Y7280
T3
X24130Y7620
X24130Y17780
X24130Y15240
X24130Y12700
X24130Y10160
T4
X13716Y23876
X9017Y20828
X13716Y17907
T5
X2667Y12573
X3556Y12573
X4445Y12573
X5334Y10795
X5334Y11684
X6223Y11684
X7112Y12573
X6223Y12573
X5334Y12573
X5334Y13462
X5334Y14351
X5334Y15240
X6223Y15240
X6223Y14351
X6223Y13462
X7112Y13462
X7112Y14351
X7112Y15240
X8001Y15240
X16256Y24384
X16256Y23114
X18034Y22225
X15367Y22225
X16256Y22225
X17145Y22225
X12700Y22225
X13589Y22225
X14478Y22225
X19431Y22225
X9271Y24384
X10160Y24384
X11049Y24384
X11049Y23495
X6604Y24384
X7493Y24384
X8382Y24384
X22606Y20447
X23495Y20447
X19939Y12319
X24384Y19558
X23495Y19558
X22098Y18923
X21209Y18923
X20320Y18923
X19431Y18923
X11049Y21590
X7112Y21844
X7112Y20955
X6223Y20955
X5715Y22606
X5715Y23495
X5715Y24384
X6604Y23495
X889Y5080
X1778Y5080
X2667Y5080
X16510Y3302
X24511Y4445
X23495Y11430
X20828Y10414
X20828Y11303
X20828Y12319
X21717Y10414
X21717Y11303
X21717Y12319
X19812Y3302
X1448Y14732
X1143Y10033
X1143Y9017
X20828Y9525
X940Y15621
X1956Y15621
X2032Y9525
X14275Y1905
X15164Y1905
X12700Y12446
X13589Y12446
X24384Y20447
X13716Y11557
X14605Y11303
X15494Y11303
X16383Y11303
X17272Y11303
X18161Y11303
X18161Y12319
X19050Y12319
X19050Y11303
X19939Y11303
X24765Y11430
X10414Y14605
X21717Y9525
T6
X4318Y762
M30