G04 EAGLE Gerber RS-274X export*
G75*
%MOMM*%
%FSLAX34Y34*%
%LPD*%
%INSilkscreen Top*%
%IPPOS*%
%AMOC8*
5,1,8,0,0,1.08239X$1,22.5*%
G01*
%ADD10C,0.203200*%
%ADD11C,0.200000*%
%ADD12C,0.508000*%
%ADD13C,0.250000*%
%ADD14C,0.400000*%

G36*
X225493Y131045D02*
X225493Y131045D01*
X225490Y131049D01*
X223990Y131049D01*
X223984Y131045D01*
X223980Y131048D01*
X223480Y130948D01*
X223476Y130943D01*
X223472Y130946D01*
X222972Y130746D01*
X222970Y130743D01*
X222968Y130744D01*
X222570Y130545D01*
X222072Y130346D01*
X222067Y130338D01*
X222060Y130339D01*
X221260Y129739D01*
X221258Y129730D01*
X221251Y129730D01*
X220351Y128530D01*
X220351Y128520D01*
X220344Y128518D01*
X219744Y127018D01*
X219745Y127017D01*
X219744Y127016D01*
X219746Y127012D01*
X219748Y127005D01*
X219741Y127000D01*
X219741Y126505D01*
X219642Y126010D01*
X219645Y126003D01*
X219641Y126000D01*
X219641Y102700D01*
X219647Y102691D01*
X219645Y102681D01*
X219658Y102677D01*
X219677Y102653D01*
X219659Y102638D01*
X219652Y102608D01*
X219641Y102600D01*
X219641Y102400D01*
X219645Y102394D01*
X219642Y102390D01*
X219942Y100890D01*
X219949Y100884D01*
X219946Y100878D01*
X220146Y100478D01*
X220149Y100477D01*
X220148Y100475D01*
X220447Y99977D01*
X220646Y99578D01*
X220656Y99573D01*
X220655Y99565D01*
X221053Y99168D01*
X221351Y98770D01*
X221360Y98768D01*
X221360Y98761D01*
X221760Y98461D01*
X221764Y98461D01*
X221765Y98458D01*
X222265Y98158D01*
X222268Y98158D01*
X222268Y98156D01*
X222668Y97956D01*
X222671Y97957D01*
X222672Y97954D01*
X223172Y97754D01*
X223178Y97756D01*
X223180Y97752D01*
X224180Y97552D01*
X224187Y97555D01*
X224190Y97551D01*
X225690Y97551D01*
X225701Y97559D01*
X225708Y97554D01*
X225792Y97588D01*
X227007Y97588D01*
X234078Y90517D01*
X234156Y90456D01*
X234228Y90389D01*
X234281Y90359D01*
X234329Y90322D01*
X234420Y90283D01*
X234507Y90235D01*
X234565Y90220D01*
X234621Y90196D01*
X234719Y90180D01*
X234815Y90156D01*
X234915Y90149D01*
X234935Y90146D01*
X234947Y90147D01*
X234975Y90145D01*
X245085Y90145D01*
X245183Y90158D01*
X245282Y90161D01*
X245340Y90178D01*
X245400Y90185D01*
X245492Y90222D01*
X245587Y90249D01*
X245640Y90280D01*
X245696Y90302D01*
X245776Y90360D01*
X245861Y90411D01*
X245937Y90477D01*
X245953Y90489D01*
X245961Y90499D01*
X245982Y90517D01*
X252358Y96893D01*
X252418Y96971D01*
X252486Y97043D01*
X252515Y97096D01*
X252552Y97144D01*
X252592Y97235D01*
X252640Y97321D01*
X252655Y97380D01*
X252679Y97436D01*
X252694Y97534D01*
X252719Y97629D01*
X252725Y97729D01*
X252729Y97750D01*
X252727Y97762D01*
X252729Y97790D01*
X252729Y130810D01*
X252717Y130908D01*
X252714Y131007D01*
X252697Y131065D01*
X252689Y131126D01*
X252653Y131218D01*
X252625Y131313D01*
X252595Y131365D01*
X252572Y131421D01*
X252514Y131501D01*
X252464Y131587D01*
X252398Y131662D01*
X252386Y131679D01*
X252376Y131686D01*
X252358Y131708D01*
X246008Y138058D01*
X245929Y138118D01*
X245857Y138186D01*
X245804Y138215D01*
X245756Y138252D01*
X245665Y138292D01*
X245579Y138340D01*
X245520Y138355D01*
X245464Y138379D01*
X245366Y138394D01*
X245271Y138419D01*
X245171Y138425D01*
X245150Y138429D01*
X245138Y138427D01*
X245110Y138429D01*
X234950Y138429D01*
X234852Y138417D01*
X234753Y138414D01*
X234695Y138397D01*
X234634Y138389D01*
X234542Y138353D01*
X234447Y138325D01*
X234395Y138295D01*
X234339Y138272D01*
X234259Y138214D01*
X234173Y138164D01*
X234098Y138098D01*
X234081Y138086D01*
X234074Y138076D01*
X234053Y138058D01*
X227033Y131038D01*
X225552Y131038D01*
X225500Y131048D01*
X225493Y131045D01*
G37*
G36*
X246478Y63513D02*
X246478Y63513D01*
X246577Y63516D01*
X246635Y63533D01*
X246696Y63541D01*
X246788Y63577D01*
X246883Y63605D01*
X246935Y63635D01*
X246991Y63658D01*
X247071Y63716D01*
X247157Y63766D01*
X247232Y63832D01*
X247249Y63844D01*
X247256Y63854D01*
X247278Y63873D01*
X252358Y68953D01*
X252418Y69031D01*
X252486Y69103D01*
X252507Y69140D01*
X252528Y69166D01*
X252536Y69183D01*
X252552Y69204D01*
X252592Y69295D01*
X252640Y69381D01*
X252652Y69428D01*
X252664Y69454D01*
X252666Y69467D01*
X252679Y69496D01*
X252694Y69594D01*
X252719Y69689D01*
X252725Y69789D01*
X252729Y69810D01*
X252727Y69822D01*
X252729Y69850D01*
X252729Y82550D01*
X252717Y82648D01*
X252714Y82747D01*
X252707Y82770D01*
X252707Y82776D01*
X252697Y82808D01*
X252689Y82866D01*
X252653Y82958D01*
X252625Y83053D01*
X252595Y83105D01*
X252572Y83161D01*
X252514Y83241D01*
X252464Y83327D01*
X252398Y83402D01*
X252386Y83419D01*
X252376Y83426D01*
X252358Y83448D01*
X247278Y88528D01*
X247199Y88588D01*
X247127Y88656D01*
X247074Y88685D01*
X247026Y88722D01*
X246935Y88762D01*
X246849Y88810D01*
X246790Y88825D01*
X246734Y88849D01*
X246636Y88864D01*
X246541Y88889D01*
X246441Y88895D01*
X246420Y88899D01*
X246408Y88897D01*
X246380Y88899D01*
X224790Y88899D01*
X224692Y88887D01*
X224593Y88884D01*
X224535Y88867D01*
X224474Y88859D01*
X224449Y88849D01*
X223990Y88849D01*
X223984Y88845D01*
X223980Y88848D01*
X223480Y88748D01*
X223476Y88743D01*
X223472Y88746D01*
X222472Y88346D01*
X222470Y88343D01*
X222468Y88344D01*
X222068Y88144D01*
X222065Y88138D01*
X222060Y88139D01*
X221260Y87539D01*
X221258Y87530D01*
X221251Y87530D01*
X220953Y87132D01*
X220555Y86735D01*
X220554Y86723D01*
X220546Y86722D01*
X220347Y86323D01*
X220048Y85825D01*
X220049Y85813D01*
X220042Y85810D01*
X219943Y85314D01*
X219744Y84818D01*
X219748Y84805D01*
X219741Y84800D01*
X219741Y84305D01*
X219642Y83810D01*
X219643Y83806D01*
X219645Y83803D01*
X219641Y83800D01*
X219641Y68300D01*
X219645Y68294D01*
X219642Y68290D01*
X219842Y67290D01*
X219847Y67286D01*
X219844Y67282D01*
X220244Y66282D01*
X220247Y66280D01*
X220246Y66278D01*
X220446Y65878D01*
X220452Y65875D01*
X220451Y65870D01*
X221051Y65070D01*
X221060Y65068D01*
X221060Y65061D01*
X222260Y64161D01*
X222270Y64161D01*
X222272Y64154D01*
X223272Y63754D01*
X223278Y63756D01*
X223280Y63752D01*
X224280Y63552D01*
X224287Y63555D01*
X224290Y63551D01*
X224439Y63551D01*
X224534Y63536D01*
X224629Y63511D01*
X224729Y63505D01*
X224750Y63501D01*
X224762Y63503D01*
X224790Y63501D01*
X246380Y63501D01*
X246478Y63513D01*
G37*
G36*
X225396Y137355D02*
X225396Y137355D01*
X225400Y137352D01*
X225461Y137364D01*
X228803Y137364D01*
X228901Y137376D01*
X229000Y137379D01*
X229059Y137396D01*
X229119Y137404D01*
X229211Y137440D01*
X229306Y137468D01*
X229358Y137499D01*
X229414Y137521D01*
X229494Y137579D01*
X229580Y137629D01*
X229655Y137696D01*
X229672Y137708D01*
X229680Y137717D01*
X229701Y137736D01*
X232936Y140971D01*
X245364Y140971D01*
X245462Y140983D01*
X245561Y140986D01*
X245619Y141003D01*
X245680Y141011D01*
X245772Y141047D01*
X245867Y141075D01*
X245919Y141105D01*
X245975Y141128D01*
X246055Y141186D01*
X246141Y141236D01*
X246216Y141302D01*
X246233Y141314D01*
X246240Y141324D01*
X246262Y141343D01*
X252358Y147439D01*
X252418Y147517D01*
X252486Y147589D01*
X252515Y147642D01*
X252552Y147690D01*
X252592Y147781D01*
X252640Y147867D01*
X252655Y147926D01*
X252679Y147982D01*
X252694Y148080D01*
X252719Y148175D01*
X252725Y148275D01*
X252729Y148296D01*
X252727Y148308D01*
X252729Y148336D01*
X252729Y156439D01*
X252717Y156537D01*
X252714Y156636D01*
X252697Y156694D01*
X252689Y156754D01*
X252653Y156846D01*
X252625Y156941D01*
X252595Y156994D01*
X252572Y157050D01*
X252514Y157130D01*
X252464Y157215D01*
X252398Y157291D01*
X252386Y157307D01*
X252376Y157315D01*
X252358Y157336D01*
X246236Y163458D01*
X246158Y163518D01*
X246086Y163586D01*
X246033Y163615D01*
X245985Y163652D01*
X245894Y163692D01*
X245807Y163740D01*
X245749Y163755D01*
X245693Y163779D01*
X245595Y163794D01*
X245499Y163819D01*
X245399Y163825D01*
X245379Y163829D01*
X245367Y163827D01*
X245339Y163829D01*
X233206Y163829D01*
X229766Y167109D01*
X229701Y167157D01*
X229643Y167212D01*
X229573Y167251D01*
X229510Y167298D01*
X229435Y167328D01*
X229365Y167367D01*
X229288Y167388D01*
X229215Y167417D01*
X229135Y167428D01*
X229058Y167449D01*
X228903Y167459D01*
X228900Y167460D01*
X228899Y167460D01*
X228897Y167460D01*
X224188Y167487D01*
X224066Y167472D01*
X223944Y167465D01*
X223908Y167453D01*
X223872Y167449D01*
X223758Y167404D01*
X223641Y167367D01*
X223610Y167347D01*
X223576Y167333D01*
X223486Y167270D01*
X222880Y167148D01*
X222870Y167137D01*
X222860Y167139D01*
X222466Y166843D01*
X221972Y166646D01*
X221967Y166638D01*
X221960Y166639D01*
X221160Y166039D01*
X221158Y166030D01*
X221151Y166030D01*
X220551Y165230D01*
X220551Y165226D01*
X220548Y165225D01*
X220248Y164725D01*
X220248Y164722D01*
X220246Y164722D01*
X220046Y164322D01*
X220047Y164319D01*
X220044Y164318D01*
X219844Y163818D01*
X219846Y163814D01*
X219842Y163811D01*
X219843Y163810D01*
X219842Y163810D01*
X219642Y162810D01*
X219645Y162803D01*
X219641Y162800D01*
X219641Y142000D01*
X219645Y141994D01*
X219642Y141990D01*
X219842Y140990D01*
X219847Y140986D01*
X219844Y140982D01*
X220044Y140482D01*
X220047Y140480D01*
X220046Y140478D01*
X220246Y140078D01*
X220249Y140077D01*
X220248Y140075D01*
X220548Y139575D01*
X220551Y139573D01*
X220551Y139570D01*
X220851Y139170D01*
X220856Y139169D01*
X220855Y139165D01*
X221555Y138465D01*
X221560Y138464D01*
X221560Y138461D01*
X221960Y138161D01*
X221970Y138161D01*
X221972Y138154D01*
X222466Y137957D01*
X222860Y137661D01*
X222876Y137661D01*
X222880Y137652D01*
X224380Y137352D01*
X224387Y137355D01*
X224390Y137351D01*
X225390Y137351D01*
X225396Y137355D01*
G37*
G36*
X84317Y154837D02*
X84317Y154837D01*
X84312Y154844D01*
X84319Y154850D01*
X84319Y188050D01*
X84283Y188097D01*
X84276Y188092D01*
X84270Y188099D01*
X70670Y188099D01*
X70623Y188063D01*
X70625Y188060D01*
X70623Y188058D01*
X70626Y188054D01*
X70621Y188050D01*
X70621Y154850D01*
X70657Y154803D01*
X70664Y154808D01*
X70670Y154801D01*
X84270Y154801D01*
X84317Y154837D01*
G37*
G36*
X236868Y170964D02*
X236868Y170964D01*
X236880Y170961D01*
X237280Y171261D01*
X237284Y171277D01*
X237291Y171282D01*
X237287Y171288D01*
X237289Y171292D01*
X237299Y171300D01*
X237299Y184100D01*
X237291Y184111D01*
X237296Y184118D01*
X237096Y184618D01*
X237055Y184643D01*
X237050Y184649D01*
X207850Y184649D01*
X207845Y184646D01*
X207842Y184649D01*
X207242Y184549D01*
X207220Y184525D01*
X207206Y184523D01*
X203806Y177923D01*
X203808Y177911D01*
X203805Y177908D01*
X203810Y177902D01*
X203812Y177890D01*
X203806Y177878D01*
X204106Y177278D01*
X207106Y171178D01*
X207130Y171166D01*
X207134Y171153D01*
X207734Y170953D01*
X207745Y170957D01*
X207750Y170951D01*
X236850Y170951D01*
X236868Y170964D01*
G37*
G36*
X84108Y58870D02*
X84108Y58870D01*
X84116Y58872D01*
X84316Y59372D01*
X84312Y59385D01*
X84319Y59390D01*
X84319Y85790D01*
X84283Y85837D01*
X84280Y85835D01*
X84278Y85839D01*
X83678Y85939D01*
X83673Y85936D01*
X83670Y85939D01*
X70770Y85939D01*
X70723Y85903D01*
X70725Y85900D01*
X70721Y85898D01*
X70621Y85298D01*
X70624Y85293D01*
X70621Y85290D01*
X70621Y59090D01*
X70650Y59052D01*
X70652Y59044D01*
X71152Y58844D01*
X71165Y58848D01*
X71170Y58841D01*
X84070Y58841D01*
X84108Y58870D01*
G37*
G36*
X186684Y152267D02*
X186684Y152267D01*
X186754Y152273D01*
X186769Y152282D01*
X186786Y152285D01*
X186892Y152357D01*
X186902Y152363D01*
X186903Y152365D01*
X186904Y152366D01*
X189204Y154666D01*
X189212Y154679D01*
X189213Y154680D01*
X189215Y154682D01*
X189217Y154686D01*
X189236Y154702D01*
X189262Y154759D01*
X189295Y154813D01*
X189298Y154837D01*
X189308Y154860D01*
X189306Y154922D01*
X189312Y154985D01*
X189303Y155008D01*
X189302Y155033D01*
X189262Y155115D01*
X189250Y155146D01*
X189244Y155152D01*
X189239Y155161D01*
X187294Y157755D01*
X187304Y157766D01*
X187323Y157796D01*
X187375Y157864D01*
X187475Y158064D01*
X187479Y158080D01*
X187488Y158093D01*
X187514Y158227D01*
X187515Y158232D01*
X187515Y158233D01*
X187515Y158234D01*
X187515Y158244D01*
X187548Y158309D01*
X187604Y158366D01*
X187623Y158396D01*
X187675Y158464D01*
X187775Y158664D01*
X187779Y158680D01*
X187788Y158693D01*
X187814Y158827D01*
X187815Y158832D01*
X187815Y158833D01*
X187815Y158834D01*
X187815Y158844D01*
X187975Y159164D01*
X187979Y159180D01*
X187988Y159193D01*
X188014Y159327D01*
X188015Y159332D01*
X188015Y159333D01*
X188015Y159334D01*
X188015Y159344D01*
X188075Y159464D01*
X188079Y159480D01*
X188088Y159493D01*
X188114Y159627D01*
X188115Y159632D01*
X188115Y159633D01*
X188115Y159634D01*
X188115Y159644D01*
X188175Y159764D01*
X188179Y159780D01*
X188188Y159793D01*
X188208Y159896D01*
X191500Y160460D01*
X191518Y160467D01*
X191537Y160468D01*
X191597Y160501D01*
X191659Y160527D01*
X191672Y160542D01*
X191689Y160551D01*
X191728Y160607D01*
X191772Y160658D01*
X191777Y160677D01*
X191788Y160693D01*
X191810Y160804D01*
X191815Y160826D01*
X191814Y160830D01*
X191815Y160834D01*
X191815Y164034D01*
X191811Y164053D01*
X191813Y164074D01*
X191802Y164106D01*
X191801Y164113D01*
X191796Y164122D01*
X191791Y164137D01*
X191776Y164202D01*
X191763Y164218D01*
X191756Y164237D01*
X191708Y164284D01*
X191666Y164336D01*
X191647Y164344D01*
X191633Y164358D01*
X191531Y164396D01*
X191508Y164406D01*
X191503Y164406D01*
X191498Y164408D01*
X188215Y164955D01*
X188215Y165034D01*
X188198Y165108D01*
X188184Y165183D01*
X188178Y165193D01*
X188176Y165202D01*
X188153Y165230D01*
X188115Y165285D01*
X188115Y165334D01*
X188098Y165408D01*
X188084Y165483D01*
X188078Y165493D01*
X188076Y165502D01*
X188053Y165530D01*
X188004Y165602D01*
X187948Y165658D01*
X187915Y165723D01*
X187915Y165834D01*
X187898Y165908D01*
X187884Y165983D01*
X187878Y165993D01*
X187876Y166002D01*
X187853Y166030D01*
X187815Y166085D01*
X187815Y166134D01*
X187798Y166208D01*
X187784Y166283D01*
X187778Y166293D01*
X187776Y166302D01*
X187753Y166330D01*
X187704Y166402D01*
X187648Y166458D01*
X187575Y166603D01*
X187552Y166631D01*
X187515Y166685D01*
X187515Y166734D01*
X187498Y166808D01*
X187484Y166883D01*
X187478Y166893D01*
X187476Y166902D01*
X187453Y166930D01*
X187404Y167002D01*
X187348Y167058D01*
X187308Y167138D01*
X189243Y169811D01*
X189253Y169835D01*
X189270Y169854D01*
X189286Y169914D01*
X189310Y169971D01*
X189308Y169996D01*
X189315Y170021D01*
X189303Y170082D01*
X189299Y170144D01*
X189286Y170166D01*
X189281Y170191D01*
X189230Y170263D01*
X189212Y170293D01*
X189205Y170298D01*
X189198Y170308D01*
X186898Y172508D01*
X186887Y172514D01*
X186879Y172525D01*
X186813Y172558D01*
X186749Y172596D01*
X186736Y172597D01*
X186725Y172602D01*
X186651Y172603D01*
X186577Y172608D01*
X186565Y172603D01*
X186552Y172603D01*
X186421Y172546D01*
X183747Y170702D01*
X183606Y170773D01*
X183590Y170777D01*
X183577Y170786D01*
X183443Y170812D01*
X183437Y170813D01*
X183436Y170813D01*
X183426Y170813D01*
X183361Y170845D01*
X183304Y170902D01*
X183274Y170921D01*
X183206Y170973D01*
X183006Y171073D01*
X182990Y171077D01*
X182977Y171086D01*
X182843Y171112D01*
X182837Y171113D01*
X182836Y171113D01*
X182826Y171113D01*
X182761Y171145D01*
X182704Y171202D01*
X182639Y171242D01*
X182577Y171286D01*
X182565Y171288D01*
X182557Y171293D01*
X182522Y171296D01*
X182436Y171313D01*
X182326Y171313D01*
X182206Y171373D01*
X182190Y171377D01*
X182177Y171386D01*
X182043Y171412D01*
X182037Y171413D01*
X182036Y171413D01*
X182026Y171413D01*
X181906Y171473D01*
X181890Y171477D01*
X181877Y171486D01*
X181743Y171512D01*
X181737Y171513D01*
X181736Y171513D01*
X181726Y171513D01*
X181606Y171573D01*
X181590Y171577D01*
X181577Y171586D01*
X181560Y171589D01*
X181010Y174798D01*
X181002Y174816D01*
X181001Y174835D01*
X180969Y174894D01*
X180942Y174957D01*
X180928Y174970D01*
X180918Y174987D01*
X180863Y175026D01*
X180811Y175070D01*
X180792Y175075D01*
X180777Y175086D01*
X180666Y175107D01*
X180644Y175113D01*
X180640Y175112D01*
X180636Y175113D01*
X177436Y175113D01*
X177417Y175109D01*
X177398Y175111D01*
X177334Y175089D01*
X177268Y175073D01*
X177253Y175061D01*
X177234Y175055D01*
X177187Y175007D01*
X177134Y174963D01*
X177126Y174946D01*
X177113Y174932D01*
X177073Y174826D01*
X177064Y174805D01*
X177064Y174802D01*
X177062Y174798D01*
X176504Y171542D01*
X176446Y171513D01*
X176336Y171513D01*
X176262Y171496D01*
X176186Y171482D01*
X176177Y171476D01*
X176168Y171473D01*
X176140Y171451D01*
X176084Y171413D01*
X176036Y171413D01*
X176020Y171409D01*
X176004Y171412D01*
X175873Y171375D01*
X175868Y171373D01*
X175867Y171373D01*
X175866Y171373D01*
X175746Y171313D01*
X175736Y171313D01*
X175720Y171309D01*
X175704Y171312D01*
X175573Y171275D01*
X175568Y171273D01*
X175567Y171273D01*
X175566Y171273D01*
X175366Y171173D01*
X175339Y171150D01*
X175284Y171113D01*
X175236Y171113D01*
X175162Y171096D01*
X175086Y171082D01*
X175077Y171076D01*
X175068Y171073D01*
X175040Y171051D01*
X174968Y171002D01*
X174911Y170945D01*
X174766Y170873D01*
X174739Y170850D01*
X174684Y170813D01*
X174636Y170813D01*
X174562Y170796D01*
X174486Y170782D01*
X174477Y170776D01*
X174468Y170773D01*
X174440Y170751D01*
X174368Y170702D01*
X174350Y170684D01*
X171651Y172546D01*
X171635Y172552D01*
X171623Y172564D01*
X171556Y172583D01*
X171490Y172609D01*
X171473Y172608D01*
X171457Y172612D01*
X171388Y172600D01*
X171318Y172594D01*
X171303Y172585D01*
X171286Y172582D01*
X171180Y172510D01*
X171170Y172504D01*
X171169Y172503D01*
X171168Y172502D01*
X168968Y170302D01*
X168959Y170287D01*
X168945Y170277D01*
X168914Y170214D01*
X168877Y170155D01*
X168875Y170138D01*
X168867Y170123D01*
X168867Y170052D01*
X168860Y169983D01*
X168866Y169967D01*
X168866Y169949D01*
X168918Y169832D01*
X168922Y169821D01*
X168923Y169820D01*
X168924Y169818D01*
X170775Y167135D01*
X170773Y167120D01*
X170757Y167034D01*
X170757Y166984D01*
X170749Y166971D01*
X170697Y166903D01*
X170624Y166758D01*
X170568Y166702D01*
X170528Y166637D01*
X170484Y166574D01*
X170482Y166563D01*
X170477Y166555D01*
X170473Y166520D01*
X170457Y166434D01*
X170457Y166384D01*
X170449Y166371D01*
X170397Y166303D01*
X170297Y166103D01*
X170293Y166088D01*
X170284Y166074D01*
X170267Y165987D01*
X170264Y165979D01*
X170264Y165971D01*
X170258Y165940D01*
X170257Y165935D01*
X170257Y165934D01*
X170257Y165923D01*
X170097Y165603D01*
X170093Y165588D01*
X170084Y165574D01*
X170058Y165440D01*
X170057Y165435D01*
X170057Y165434D01*
X170057Y165423D01*
X169997Y165303D01*
X169993Y165288D01*
X169984Y165274D01*
X169975Y165229D01*
X169971Y165221D01*
X169972Y165211D01*
X169958Y165140D01*
X169957Y165135D01*
X169957Y165134D01*
X169957Y165123D01*
X169897Y165003D01*
X169893Y164988D01*
X169884Y164974D01*
X169881Y164958D01*
X166672Y164408D01*
X166654Y164400D01*
X166635Y164399D01*
X166575Y164367D01*
X166513Y164340D01*
X166500Y164325D01*
X166483Y164316D01*
X166444Y164261D01*
X166400Y164209D01*
X166395Y164190D01*
X166384Y164174D01*
X166368Y164093D01*
X166364Y164083D01*
X166364Y164072D01*
X166362Y164063D01*
X166357Y164041D01*
X166358Y164038D01*
X166357Y164034D01*
X166357Y160834D01*
X166361Y160815D01*
X166359Y160796D01*
X166381Y160731D01*
X166396Y160665D01*
X166409Y160650D01*
X166415Y160632D01*
X166463Y160584D01*
X166506Y160532D01*
X166524Y160524D01*
X166538Y160510D01*
X166644Y160470D01*
X166664Y160461D01*
X166668Y160461D01*
X166672Y160460D01*
X169928Y159902D01*
X169957Y159844D01*
X169957Y159734D01*
X169974Y159659D01*
X169988Y159584D01*
X169994Y159574D01*
X169996Y159565D01*
X170019Y159538D01*
X170057Y159482D01*
X170057Y159434D01*
X170070Y159378D01*
X170071Y159359D01*
X170076Y159349D01*
X170088Y159284D01*
X170094Y159274D01*
X170096Y159265D01*
X170119Y159238D01*
X170168Y159166D01*
X170224Y159109D01*
X170257Y159044D01*
X170257Y158934D01*
X170274Y158859D01*
X170288Y158784D01*
X170294Y158774D01*
X170296Y158765D01*
X170319Y158738D01*
X170357Y158682D01*
X170357Y158634D01*
X170374Y158559D01*
X170388Y158484D01*
X170394Y158474D01*
X170396Y158465D01*
X170419Y158438D01*
X170468Y158366D01*
X170524Y158309D01*
X170597Y158164D01*
X170620Y158136D01*
X170663Y158073D01*
X170665Y158069D01*
X170666Y158069D01*
X170668Y158066D01*
X170724Y158009D01*
X170757Y157944D01*
X170757Y157934D01*
X170760Y157918D01*
X170758Y157902D01*
X170770Y157860D01*
X170771Y157842D01*
X170780Y157825D01*
X170795Y157771D01*
X170795Y157769D01*
X168927Y155154D01*
X168921Y155139D01*
X168910Y155128D01*
X168889Y155060D01*
X168862Y154994D01*
X168863Y154978D01*
X168858Y154963D01*
X168869Y154893D01*
X168874Y154821D01*
X168882Y154808D01*
X168884Y154792D01*
X168959Y154676D01*
X168961Y154672D01*
X168962Y154672D01*
X171162Y152372D01*
X171180Y152360D01*
X171193Y152343D01*
X171252Y152313D01*
X171307Y152277D01*
X171328Y152275D01*
X171347Y152265D01*
X171413Y152265D01*
X171479Y152257D01*
X171499Y152264D01*
X171520Y152264D01*
X171615Y152306D01*
X171642Y152315D01*
X171645Y152319D01*
X171651Y152321D01*
X174372Y154198D01*
X174395Y154181D01*
X174407Y154179D01*
X174415Y154174D01*
X174450Y154171D01*
X174465Y154168D01*
X174468Y154166D01*
X174533Y154125D01*
X174595Y154081D01*
X174607Y154079D01*
X174615Y154074D01*
X174650Y154071D01*
X174665Y154068D01*
X174668Y154066D01*
X174733Y154025D01*
X174795Y153981D01*
X174807Y153979D01*
X174815Y153974D01*
X174850Y153971D01*
X174865Y153968D01*
X174868Y153966D01*
X174933Y153925D01*
X174995Y153881D01*
X175007Y153879D01*
X175015Y153874D01*
X175050Y153871D01*
X175065Y153868D01*
X175068Y153866D01*
X175133Y153825D01*
X175195Y153781D01*
X175207Y153779D01*
X175215Y153774D01*
X175250Y153771D01*
X175265Y153768D01*
X175268Y153766D01*
X175333Y153725D01*
X175395Y153681D01*
X175407Y153679D01*
X175415Y153674D01*
X175450Y153671D01*
X175536Y153654D01*
X175586Y153654D01*
X175607Y153641D01*
X175640Y153609D01*
X175679Y153596D01*
X175715Y153574D01*
X175760Y153570D01*
X175804Y153556D01*
X175846Y153562D01*
X175887Y153558D01*
X175930Y153574D01*
X175975Y153581D01*
X176010Y153605D01*
X176049Y153620D01*
X176080Y153653D01*
X176117Y153680D01*
X176143Y153722D01*
X176166Y153747D01*
X176173Y153772D01*
X176192Y153802D01*
X178192Y159202D01*
X178199Y159259D01*
X178215Y159314D01*
X178209Y159344D01*
X178213Y159374D01*
X178194Y159428D01*
X178184Y159485D01*
X178166Y159509D01*
X178156Y159537D01*
X178115Y159577D01*
X178081Y159623D01*
X178051Y159640D01*
X178032Y159658D01*
X178000Y159668D01*
X177956Y159693D01*
X177682Y159785D01*
X177361Y159945D01*
X177204Y160102D01*
X177174Y160121D01*
X177106Y160173D01*
X176961Y160245D01*
X176848Y160358D01*
X176775Y160503D01*
X176752Y160531D01*
X176704Y160602D01*
X176548Y160758D01*
X176387Y161079D01*
X176296Y161354D01*
X176284Y161373D01*
X176275Y161403D01*
X176115Y161723D01*
X176115Y161934D01*
X176107Y161969D01*
X176096Y162054D01*
X176015Y162295D01*
X176015Y162772D01*
X176380Y163866D01*
X176731Y164392D01*
X176878Y164539D01*
X177146Y164718D01*
X177168Y164741D01*
X177204Y164766D01*
X177378Y164939D01*
X177604Y165090D01*
X177856Y165174D01*
X177874Y165185D01*
X177888Y165188D01*
X177901Y165199D01*
X177946Y165218D01*
X178151Y165354D01*
X178336Y165354D01*
X178371Y165363D01*
X178428Y165366D01*
X178783Y165454D01*
X179374Y165454D01*
X179616Y165374D01*
X179652Y165371D01*
X179736Y165354D01*
X179921Y165354D01*
X180126Y165218D01*
X180161Y165205D01*
X180210Y165177D01*
X180212Y165176D01*
X180213Y165176D01*
X180216Y165174D01*
X180468Y165090D01*
X180995Y164739D01*
X181341Y164392D01*
X181692Y163866D01*
X181776Y163614D01*
X181796Y163582D01*
X181820Y163523D01*
X181957Y163319D01*
X181957Y163134D01*
X181965Y163099D01*
X181976Y163014D01*
X182057Y162772D01*
X182057Y161995D01*
X181976Y161754D01*
X181973Y161718D01*
X181957Y161634D01*
X181957Y161523D01*
X181897Y161403D01*
X181891Y161381D01*
X181876Y161354D01*
X181785Y161079D01*
X181724Y160958D01*
X181568Y160802D01*
X181549Y160771D01*
X181497Y160703D01*
X181424Y160558D01*
X181111Y160245D01*
X180966Y160173D01*
X180939Y160150D01*
X180868Y160102D01*
X180711Y159945D01*
X180166Y159673D01*
X180143Y159653D01*
X180114Y159641D01*
X180077Y159598D01*
X180033Y159562D01*
X180021Y159534D01*
X180001Y159511D01*
X179986Y159456D01*
X179963Y159404D01*
X179965Y159373D01*
X179957Y159343D01*
X179969Y159269D01*
X179971Y159231D01*
X179978Y159219D01*
X179980Y159202D01*
X181980Y153802D01*
X181992Y153785D01*
X181996Y153765D01*
X182039Y153714D01*
X182076Y153658D01*
X182094Y153647D01*
X182106Y153632D01*
X182168Y153605D01*
X182226Y153571D01*
X182246Y153570D01*
X182264Y153561D01*
X182331Y153564D01*
X182398Y153560D01*
X182417Y153567D01*
X182437Y153568D01*
X182496Y153600D01*
X182558Y153626D01*
X182571Y153642D01*
X182589Y153651D01*
X182602Y153670D01*
X182610Y153672D01*
X182686Y153685D01*
X182695Y153692D01*
X182704Y153694D01*
X182732Y153717D01*
X182804Y153766D01*
X182811Y153772D01*
X182886Y153785D01*
X182895Y153792D01*
X182904Y153794D01*
X182932Y153817D01*
X183004Y153866D01*
X183011Y153872D01*
X183086Y153885D01*
X183095Y153892D01*
X183104Y153894D01*
X183132Y153917D01*
X183188Y153954D01*
X183236Y153954D01*
X183310Y153972D01*
X183386Y153985D01*
X183395Y153992D01*
X183404Y153994D01*
X183432Y154017D01*
X183504Y154066D01*
X183511Y154072D01*
X183586Y154085D01*
X183595Y154092D01*
X183604Y154094D01*
X183632Y154117D01*
X183704Y154166D01*
X183722Y154183D01*
X186421Y152321D01*
X186437Y152315D01*
X186449Y152304D01*
X186517Y152284D01*
X186582Y152258D01*
X186599Y152260D01*
X186615Y152255D01*
X186684Y152267D01*
G37*
G36*
X105383Y106177D02*
X105383Y106177D01*
X105377Y106184D01*
X105384Y106190D01*
X105384Y116390D01*
X105349Y116438D01*
X105341Y116432D01*
X105335Y116439D01*
X79535Y116439D01*
X79528Y116434D01*
X79519Y116437D01*
X79515Y116424D01*
X79488Y116403D01*
X79492Y116398D01*
X79491Y116398D01*
X79502Y116384D01*
X79501Y116381D01*
X79476Y116418D01*
X79443Y116429D01*
X79435Y116439D01*
X76935Y116439D01*
X76888Y116403D01*
X76890Y116400D01*
X76888Y116398D01*
X76891Y116394D01*
X76886Y116390D01*
X76886Y106290D01*
X76922Y106243D01*
X76924Y106244D01*
X76926Y106242D01*
X77426Y106142D01*
X77432Y106145D01*
X77435Y106141D01*
X105335Y106141D01*
X105383Y106177D01*
G37*
%LPC*%
G36*
X79994Y62734D02*
X79994Y62734D01*
X79412Y63219D01*
X79222Y63788D01*
X79414Y64267D01*
X79811Y64863D01*
X79810Y64878D01*
X79819Y64883D01*
X79919Y65583D01*
X79911Y65597D01*
X79917Y65606D01*
X79717Y66206D01*
X79700Y66217D01*
X79701Y66228D01*
X79201Y66628D01*
X79173Y66629D01*
X79163Y66639D01*
X78463Y66539D01*
X78445Y66520D01*
X78432Y66521D01*
X78032Y66021D01*
X78031Y66002D01*
X78023Y65995D01*
X78024Y65993D01*
X78021Y65990D01*
X78021Y65190D01*
X78032Y65175D01*
X78028Y65165D01*
X78325Y64669D01*
X78517Y64094D01*
X78226Y63512D01*
X78226Y63510D01*
X78225Y63509D01*
X77933Y62828D01*
X77465Y62641D01*
X76379Y62838D01*
X76377Y62838D01*
X76377Y62839D01*
X73388Y63237D01*
X72808Y63624D01*
X72519Y64202D01*
X72519Y67981D01*
X72707Y68451D01*
X73286Y68643D01*
X73300Y68664D01*
X73317Y68677D01*
X73314Y68682D01*
X73319Y68686D01*
X73519Y70886D01*
X73500Y70915D01*
X73501Y70928D01*
X73011Y71320D01*
X72719Y72099D01*
X72719Y72666D01*
X73197Y73048D01*
X73591Y73246D01*
X78890Y75645D01*
X78904Y75670D01*
X78905Y75671D01*
X78904Y75671D01*
X78919Y75697D01*
X78909Y75703D01*
X78914Y75712D01*
X78814Y75912D01*
X78794Y75922D01*
X78791Y75935D01*
X73891Y78235D01*
X73890Y78234D01*
X73889Y78235D01*
X73192Y78534D01*
X72719Y78818D01*
X72719Y79484D01*
X72815Y79867D01*
X73300Y80449D01*
X73769Y80637D01*
X74450Y80345D01*
X81148Y77046D01*
X81738Y76751D01*
X82121Y76273D01*
X82121Y75598D01*
X81929Y75022D01*
X81345Y74633D01*
X74054Y71037D01*
X73560Y70938D01*
X73522Y70895D01*
X73521Y70894D01*
X73321Y68694D01*
X73352Y68644D01*
X73360Y68648D01*
X73364Y68641D01*
X74154Y68542D01*
X74625Y68260D01*
X74721Y67587D01*
X74721Y65590D01*
X74733Y65574D01*
X74729Y65563D01*
X74929Y65263D01*
X74962Y65251D01*
X74970Y65241D01*
X75670Y65241D01*
X75717Y65277D01*
X75716Y65278D01*
X75718Y65279D01*
X75716Y65282D01*
X75719Y65283D01*
X75819Y65983D01*
X75918Y66675D01*
X76212Y67263D01*
X76607Y67757D01*
X77099Y68249D01*
X77689Y68544D01*
X78281Y68742D01*
X78970Y68840D01*
X79659Y68742D01*
X80248Y68545D01*
X80841Y68150D01*
X81333Y67756D01*
X81727Y67165D01*
X82023Y66575D01*
X82121Y65986D01*
X82121Y65293D01*
X82022Y64601D01*
X81824Y64009D01*
X81529Y63417D01*
X81037Y62828D01*
X80564Y62544D01*
X79994Y62734D01*
G37*
%LPD*%
G36*
X181357Y4241D02*
X181357Y4241D01*
X181377Y4262D01*
X181391Y4263D01*
X181791Y4863D01*
X181790Y4872D01*
X181797Y4874D01*
X182596Y7173D01*
X183347Y9144D01*
X184603Y5374D01*
X184803Y4774D01*
X184817Y4765D01*
X184815Y4755D01*
X185315Y4255D01*
X185336Y4252D01*
X185342Y4241D01*
X185942Y4141D01*
X185959Y4151D01*
X185969Y4145D01*
X186669Y4445D01*
X186680Y4463D01*
X186692Y4465D01*
X186992Y4965D01*
X186991Y4972D01*
X186996Y4974D01*
X189496Y12074D01*
X189496Y12076D01*
X189497Y12076D01*
X189697Y12776D01*
X189688Y12800D01*
X189694Y12812D01*
X189494Y13212D01*
X189476Y13221D01*
X189474Y13233D01*
X188774Y13633D01*
X188766Y13632D01*
X188764Y13637D01*
X188064Y13837D01*
X188036Y13827D01*
X188023Y13831D01*
X187423Y13431D01*
X187415Y13410D01*
X187403Y13406D01*
X185907Y9017D01*
X185772Y8881D01*
X184497Y12706D01*
X184492Y12709D01*
X184494Y12712D01*
X184194Y13312D01*
X184181Y13319D01*
X184181Y13328D01*
X183681Y13728D01*
X183653Y13729D01*
X183643Y13739D01*
X182943Y13639D01*
X182935Y13631D01*
X182928Y13634D01*
X182328Y13334D01*
X182317Y13313D01*
X182305Y13309D01*
X182005Y12609D01*
X182005Y12607D01*
X182003Y12606D01*
X180729Y8881D01*
X180593Y9016D01*
X179397Y12904D01*
X179392Y12908D01*
X179394Y12912D01*
X179094Y13512D01*
X179074Y13522D01*
X179072Y13534D01*
X178472Y13834D01*
X178447Y13829D01*
X178436Y13837D01*
X177736Y13637D01*
X177730Y13629D01*
X177723Y13631D01*
X177123Y13231D01*
X177114Y13206D01*
X177102Y13200D01*
X177002Y12700D01*
X177007Y12689D01*
X177001Y12683D01*
X177101Y11983D01*
X177106Y11978D01*
X177104Y11974D01*
X179604Y4874D01*
X179614Y4867D01*
X179612Y4859D01*
X180012Y4359D01*
X180031Y4354D01*
X180034Y4343D01*
X180634Y4143D01*
X180650Y4148D01*
X180657Y4141D01*
X181357Y4241D01*
G37*
G36*
X193756Y4241D02*
X193756Y4241D01*
X193772Y4257D01*
X193785Y4255D01*
X194185Y4655D01*
X194186Y4667D01*
X194190Y4669D01*
X194187Y4673D01*
X194188Y4676D01*
X194199Y4682D01*
X194299Y5282D01*
X194296Y5287D01*
X194299Y5290D01*
X194299Y6657D01*
X194759Y6841D01*
X196123Y6841D01*
X196606Y6067D01*
X197305Y4470D01*
X197323Y4460D01*
X197325Y4448D01*
X197825Y4148D01*
X197849Y4150D01*
X197858Y4141D01*
X198458Y4241D01*
X198467Y4251D01*
X198474Y4247D01*
X199174Y4647D01*
X199181Y4663D01*
X199192Y4665D01*
X199492Y5165D01*
X199489Y5193D01*
X199497Y5204D01*
X199297Y5904D01*
X199289Y5910D01*
X199291Y5917D01*
X199094Y6213D01*
X198597Y7504D01*
X198503Y7977D01*
X198888Y8459D01*
X198889Y8467D01*
X198894Y8468D01*
X199194Y9068D01*
X199193Y9075D01*
X199197Y9076D01*
X199397Y9776D01*
X199394Y9786D01*
X199399Y9790D01*
X199399Y10490D01*
X199396Y10494D01*
X199399Y10497D01*
X199299Y11197D01*
X199294Y11202D01*
X199297Y11206D01*
X199097Y11806D01*
X199089Y11811D01*
X199091Y11817D01*
X198691Y12417D01*
X198684Y12420D01*
X198685Y12425D01*
X198285Y12825D01*
X198226Y12833D01*
X198225Y12824D01*
X198215Y12825D01*
X197731Y12340D01*
X198187Y12857D01*
X198191Y12917D01*
X198181Y12918D01*
X198181Y12928D01*
X197681Y13328D01*
X197671Y13329D01*
X197669Y13335D01*
X196969Y13635D01*
X196961Y13633D01*
X196958Y13639D01*
X195758Y13839D01*
X195753Y13836D01*
X195750Y13839D01*
X192950Y13839D01*
X192942Y13833D01*
X192936Y13837D01*
X192236Y13637D01*
X192221Y13617D01*
X192208Y13615D01*
X191908Y13115D01*
X191910Y13097D01*
X191901Y13090D01*
X191901Y5590D01*
X191904Y5586D01*
X191901Y5583D01*
X192001Y4883D01*
X192007Y4877D01*
X192004Y4872D01*
X192204Y4372D01*
X192232Y4355D01*
X192236Y4343D01*
X192936Y4143D01*
X192950Y4148D01*
X192956Y4141D01*
X193756Y4241D01*
G37*
%LPC*%
G36*
X81019Y174852D02*
X81019Y174852D01*
X80981Y174898D01*
X80975Y174893D01*
X80970Y174899D01*
X73479Y174899D01*
X73006Y175089D01*
X72719Y175662D01*
X72719Y176436D01*
X73008Y176917D01*
X73601Y177411D01*
X76299Y179410D01*
X78099Y180710D01*
X78108Y180739D01*
X78112Y180742D01*
X78110Y180745D01*
X78116Y180767D01*
X78103Y180771D01*
X78105Y180785D01*
X78005Y180885D01*
X77978Y180889D01*
X77970Y180899D01*
X73873Y180899D01*
X73188Y180997D01*
X72911Y181182D01*
X72719Y181758D01*
X72719Y182438D01*
X73003Y183006D01*
X73578Y183101D01*
X74273Y183201D01*
X81063Y183201D01*
X81744Y183006D01*
X82121Y182630D01*
X82121Y181854D01*
X82024Y181274D01*
X81438Y180687D01*
X77341Y177590D01*
X77043Y177391D01*
X77040Y177384D01*
X77035Y177385D01*
X76835Y177185D01*
X76834Y177174D01*
X76833Y177174D01*
X76834Y177173D01*
X76833Y177171D01*
X76823Y177163D01*
X76831Y177153D01*
X76827Y177126D01*
X76854Y177122D01*
X76870Y177101D01*
X81556Y177101D01*
X82024Y176820D01*
X82120Y176050D01*
X82024Y175277D01*
X81650Y174997D01*
X81062Y174899D01*
X81029Y174863D01*
X81023Y174859D01*
X81023Y174858D01*
X81021Y174855D01*
X81024Y174853D01*
X81021Y174850D01*
X81021Y174821D01*
X81019Y174852D01*
G37*
%LPD*%
%LPC*%
G36*
X221075Y173149D02*
X221075Y173149D01*
X220797Y173520D01*
X220699Y174203D01*
X220699Y181692D01*
X220891Y182267D01*
X221364Y182551D01*
X222136Y182551D01*
X222621Y182260D01*
X223213Y181767D01*
X225109Y178972D01*
X225113Y178971D01*
X225112Y178969D01*
X226512Y177269D01*
X226516Y177268D01*
X226515Y177265D01*
X226615Y177165D01*
X226629Y177163D01*
X226637Y177153D01*
X226643Y177158D01*
X226645Y177156D01*
X226650Y177156D01*
X226655Y177160D01*
X226674Y177157D01*
X226677Y177177D01*
X226697Y177192D01*
X226694Y177196D01*
X226699Y177200D01*
X226699Y181297D01*
X226798Y181990D01*
X226891Y182360D01*
X227557Y182551D01*
X228236Y182551D01*
X228709Y182267D01*
X228901Y181692D01*
X228901Y174204D01*
X228803Y173620D01*
X228523Y173247D01*
X227647Y173149D01*
X227070Y173149D01*
X226487Y173732D01*
X222889Y178530D01*
X222873Y178534D01*
X222863Y178547D01*
X222853Y178540D01*
X222832Y178546D01*
X222824Y178518D01*
X222801Y178500D01*
X222801Y173709D01*
X222615Y173245D01*
X221947Y173149D01*
X221075Y173149D01*
G37*
%LPD*%
G36*
X169771Y4157D02*
X169771Y4157D01*
X169785Y4155D01*
X170185Y4555D01*
X170186Y4567D01*
X170191Y4571D01*
X170188Y4576D01*
X170199Y4582D01*
X170299Y5182D01*
X170296Y5187D01*
X170299Y5190D01*
X170299Y6560D01*
X170662Y6741D01*
X172050Y6741D01*
X172055Y6744D01*
X172058Y6741D01*
X172658Y6841D01*
X172662Y6846D01*
X172666Y6843D01*
X173266Y7043D01*
X173271Y7051D01*
X173277Y7049D01*
X174477Y7849D01*
X174481Y7859D01*
X174488Y7859D01*
X174888Y8359D01*
X174889Y8369D01*
X174895Y8371D01*
X175195Y9071D01*
X175193Y9079D01*
X175199Y9082D01*
X175299Y9682D01*
X175298Y9683D01*
X175299Y9683D01*
X175399Y10383D01*
X175396Y10388D01*
X175399Y10390D01*
X175399Y11090D01*
X175390Y11103D01*
X175394Y11112D01*
X174994Y11912D01*
X174987Y11915D01*
X174988Y11921D01*
X174588Y12421D01*
X174584Y12422D01*
X174585Y12425D01*
X174085Y12925D01*
X174078Y12926D01*
X174077Y12931D01*
X173477Y13331D01*
X173473Y13331D01*
X173472Y13334D01*
X172872Y13634D01*
X172861Y13632D01*
X172857Y13639D01*
X172157Y13739D01*
X172152Y13736D01*
X172150Y13739D01*
X168750Y13739D01*
X168741Y13732D01*
X168734Y13737D01*
X168134Y13537D01*
X168117Y13512D01*
X168104Y13508D01*
X167904Y13008D01*
X167908Y12995D01*
X167901Y12990D01*
X167901Y4790D01*
X167910Y4777D01*
X167906Y4768D01*
X168106Y4368D01*
X168132Y4355D01*
X168136Y4343D01*
X168836Y4143D01*
X168846Y4146D01*
X168850Y4141D01*
X169750Y4141D01*
X169771Y4157D01*
G37*
%LPC*%
G36*
X212353Y173149D02*
X212353Y173149D01*
X211577Y173246D01*
X211297Y173620D01*
X211199Y174303D01*
X211199Y181791D01*
X211396Y182282D01*
X211390Y182304D01*
X211397Y182314D01*
X211235Y182848D01*
X211404Y182383D01*
X211454Y182351D01*
X211459Y182360D01*
X211468Y182354D01*
X211959Y182551D01*
X217446Y182551D01*
X218033Y182453D01*
X218504Y182170D01*
X218600Y181404D01*
X218407Y180730D01*
X218031Y180447D01*
X217347Y180349D01*
X213950Y180349D01*
X213939Y180341D01*
X213932Y180346D01*
X213432Y180146D01*
X213407Y180105D01*
X213401Y180100D01*
X213401Y179500D01*
X213409Y179489D01*
X213404Y179482D01*
X213604Y178982D01*
X213645Y178957D01*
X213650Y178951D01*
X216338Y178951D01*
X216911Y178664D01*
X217101Y178191D01*
X217101Y177314D01*
X216820Y176845D01*
X216245Y176749D01*
X213448Y176649D01*
X213402Y176612D01*
X213407Y176605D01*
X213401Y176600D01*
X213401Y176000D01*
X213408Y175991D01*
X213403Y175984D01*
X213603Y175384D01*
X213647Y175354D01*
X213650Y175351D01*
X217742Y175351D01*
X218313Y175161D01*
X218501Y174691D01*
X218501Y173808D01*
X218313Y173244D01*
X217746Y173149D01*
X212353Y173149D01*
G37*
%LPD*%
G36*
X200103Y89540D02*
X200103Y89540D01*
X200112Y89536D01*
X200510Y89735D01*
X201008Y89934D01*
X201010Y89937D01*
X201012Y89936D01*
X201412Y90136D01*
X201417Y90146D01*
X201425Y90145D01*
X201822Y90543D01*
X202220Y90841D01*
X202223Y90854D01*
X202232Y90855D01*
X202532Y91355D01*
X202532Y91358D01*
X202534Y91358D01*
X202734Y91758D01*
X202733Y91761D01*
X202736Y91762D01*
X202936Y92262D01*
X202933Y92272D01*
X202937Y92275D01*
X202936Y92277D01*
X202939Y92280D01*
X202939Y92775D01*
X203038Y93270D01*
X203032Y93283D01*
X203038Y93290D01*
X202838Y94290D01*
X202831Y94296D01*
X202834Y94302D01*
X202634Y94702D01*
X202631Y94703D01*
X202632Y94705D01*
X202332Y95205D01*
X202324Y95209D01*
X202325Y95215D01*
X201625Y95915D01*
X201616Y95916D01*
X201615Y95922D01*
X201115Y96222D01*
X201112Y96222D01*
X201112Y96224D01*
X200712Y96424D01*
X200703Y96422D01*
X200700Y96428D01*
X199700Y96628D01*
X199693Y96625D01*
X199690Y96629D01*
X198690Y96629D01*
X198684Y96625D01*
X198680Y96628D01*
X198180Y96528D01*
X198176Y96523D01*
X198172Y96526D01*
X197672Y96326D01*
X197670Y96323D01*
X197668Y96324D01*
X197268Y96124D01*
X197265Y96118D01*
X197260Y96119D01*
X196860Y95819D01*
X196859Y95814D01*
X196855Y95815D01*
X196455Y95415D01*
X196454Y95410D01*
X196451Y95410D01*
X196151Y95010D01*
X196151Y95000D01*
X196144Y94998D01*
X195945Y94500D01*
X195746Y94102D01*
X195748Y94093D01*
X195742Y94090D01*
X195542Y93090D01*
X195550Y93074D01*
X195543Y93064D01*
X195641Y92772D01*
X195641Y92280D01*
X195649Y92269D01*
X195644Y92262D01*
X196044Y91262D01*
X196052Y91257D01*
X196051Y91250D01*
X196651Y90450D01*
X196660Y90448D01*
X196660Y90441D01*
X197060Y90141D01*
X197070Y90141D01*
X197072Y90134D01*
X197570Y89935D01*
X197968Y89736D01*
X197977Y89738D01*
X197980Y89732D01*
X198980Y89532D01*
X198987Y89535D01*
X198990Y89531D01*
X200090Y89531D01*
X200103Y89540D01*
G37*
G36*
X209756Y73865D02*
X209756Y73865D01*
X209760Y73862D01*
X210260Y73962D01*
X210261Y73963D01*
X210262Y73962D01*
X210662Y74062D01*
X210665Y74066D01*
X210668Y74064D01*
X211168Y74264D01*
X211173Y74272D01*
X211180Y74271D01*
X211980Y74871D01*
X211981Y74876D01*
X211985Y74875D01*
X212385Y75275D01*
X212386Y75280D01*
X212389Y75280D01*
X212689Y75680D01*
X212689Y75687D01*
X212694Y75688D01*
X212894Y76088D01*
X212893Y76091D01*
X212896Y76092D01*
X213096Y76592D01*
X213093Y76602D01*
X213097Y76605D01*
X213096Y76607D01*
X213099Y76610D01*
X213099Y77105D01*
X213198Y77600D01*
X213192Y77613D01*
X213198Y77620D01*
X212998Y78620D01*
X212993Y78624D01*
X212996Y78628D01*
X212796Y79128D01*
X212788Y79133D01*
X212789Y79140D01*
X212189Y79940D01*
X212180Y79942D01*
X212180Y79949D01*
X211780Y80249D01*
X211776Y80249D01*
X211775Y80252D01*
X211275Y80552D01*
X211272Y80552D01*
X211272Y80554D01*
X210872Y80754D01*
X210869Y80753D01*
X210868Y80756D01*
X210368Y80956D01*
X210357Y80953D01*
X210355Y80953D01*
X210350Y80959D01*
X209855Y80959D01*
X209360Y81058D01*
X209347Y81052D01*
X209340Y81058D01*
X208340Y80858D01*
X208336Y80853D01*
X208332Y80856D01*
X207832Y80656D01*
X207830Y80653D01*
X207828Y80654D01*
X207428Y80454D01*
X207425Y80448D01*
X207420Y80449D01*
X207020Y80149D01*
X207019Y80144D01*
X207015Y80145D01*
X206615Y79745D01*
X206614Y79740D01*
X206611Y79740D01*
X206311Y79340D01*
X206311Y79333D01*
X206306Y79332D01*
X206106Y78932D01*
X206107Y78929D01*
X206104Y78928D01*
X205904Y78428D01*
X205906Y78422D01*
X205902Y78420D01*
X205702Y77420D01*
X205710Y77404D01*
X205703Y77394D01*
X205801Y77102D01*
X205801Y76610D01*
X205809Y76599D01*
X205804Y76592D01*
X206004Y76092D01*
X206007Y76090D01*
X206006Y76088D01*
X206206Y75688D01*
X206209Y75687D01*
X206208Y75685D01*
X206508Y75185D01*
X206516Y75181D01*
X206515Y75175D01*
X206815Y74875D01*
X206820Y74874D01*
X206820Y74871D01*
X207220Y74571D01*
X207224Y74571D01*
X207225Y74568D01*
X207725Y74268D01*
X207728Y74268D01*
X207728Y74266D01*
X208128Y74066D01*
X208137Y74068D01*
X208140Y74062D01*
X209140Y73862D01*
X209147Y73865D01*
X209150Y73861D01*
X209750Y73861D01*
X209756Y73865D01*
G37*
G36*
X114031Y15501D02*
X114031Y15501D01*
X114530Y15501D01*
X114541Y15509D01*
X114548Y15504D01*
X115048Y15704D01*
X115050Y15707D01*
X115052Y15706D01*
X115452Y15906D01*
X115455Y15912D01*
X115460Y15911D01*
X116260Y16511D01*
X116261Y16516D01*
X116265Y16515D01*
X116665Y16915D01*
X116667Y16929D01*
X116676Y16932D01*
X116875Y17430D01*
X117074Y17828D01*
X117073Y17831D01*
X117076Y17832D01*
X117276Y18332D01*
X117274Y18340D01*
X117277Y18342D01*
X117274Y18346D01*
X117279Y18350D01*
X117279Y19850D01*
X117271Y19861D01*
X117276Y19868D01*
X116876Y20868D01*
X116868Y20873D01*
X116869Y20880D01*
X116269Y21680D01*
X116260Y21682D01*
X116260Y21689D01*
X115460Y22289D01*
X115450Y22289D01*
X115448Y22296D01*
X114948Y22496D01*
X114942Y22494D01*
X114940Y22498D01*
X113940Y22698D01*
X113933Y22695D01*
X113930Y22699D01*
X111530Y22699D01*
X111517Y22690D01*
X111516Y22690D01*
X111513Y22687D01*
X111503Y22691D01*
X111203Y22491D01*
X111197Y22474D01*
X111186Y22472D01*
X110986Y22072D01*
X110987Y22066D01*
X110983Y22063D01*
X110988Y22056D01*
X110981Y22050D01*
X110981Y16350D01*
X110985Y16344D01*
X110982Y16340D01*
X111082Y15840D01*
X111097Y15827D01*
X111095Y15815D01*
X111395Y15515D01*
X111416Y15512D01*
X111422Y15501D01*
X112022Y15401D01*
X112029Y15405D01*
X112032Y15401D01*
X114031Y15501D01*
G37*
G36*
X70936Y3975D02*
X70936Y3975D01*
X70940Y3972D01*
X71440Y4072D01*
X71444Y4077D01*
X71448Y4074D01*
X71948Y4274D01*
X71953Y4282D01*
X71960Y4281D01*
X72360Y4581D01*
X72362Y4590D01*
X72369Y4590D01*
X72969Y5390D01*
X72969Y5406D01*
X72978Y5410D01*
X73078Y5910D01*
X73075Y5917D01*
X73079Y5920D01*
X73079Y6520D01*
X73075Y6526D01*
X73078Y6530D01*
X72978Y7030D01*
X72977Y7031D01*
X72978Y7032D01*
X72878Y7432D01*
X72867Y7441D01*
X72869Y7450D01*
X72569Y7850D01*
X72538Y7859D01*
X72537Y7860D01*
X72563Y7884D01*
X72564Y7885D01*
X72565Y7885D01*
X72665Y7985D01*
X72666Y7996D01*
X72667Y7996D01*
X72666Y7996D01*
X72667Y7999D01*
X72676Y8002D01*
X72876Y8502D01*
X72872Y8515D01*
X72879Y8520D01*
X72879Y9520D01*
X72871Y9531D01*
X72876Y9538D01*
X72676Y10038D01*
X72668Y10043D01*
X72669Y10050D01*
X72069Y10850D01*
X72051Y10855D01*
X72048Y10866D01*
X71048Y11266D01*
X71035Y11262D01*
X71030Y11269D01*
X67930Y11269D01*
X67917Y11260D01*
X67908Y11264D01*
X67508Y11064D01*
X67495Y11037D01*
X67482Y11032D01*
X67382Y10632D01*
X67386Y10624D01*
X67381Y10620D01*
X67381Y4420D01*
X67397Y4399D01*
X67395Y4385D01*
X67695Y4085D01*
X67716Y4082D01*
X67722Y4071D01*
X68322Y3971D01*
X68327Y3974D01*
X68330Y3971D01*
X70930Y3971D01*
X70936Y3975D01*
G37*
%LPC*%
G36*
X227439Y118607D02*
X227439Y118607D01*
X227397Y118649D01*
X227393Y118645D01*
X227390Y118649D01*
X221802Y118649D01*
X221424Y118838D01*
X221239Y119115D01*
X221239Y121495D01*
X221338Y121990D01*
X221437Y122486D01*
X221633Y122976D01*
X221929Y123370D01*
X222227Y123768D01*
X222619Y124159D01*
X223010Y124355D01*
X223508Y124554D01*
X223999Y124751D01*
X225481Y124751D01*
X225972Y124554D01*
X226470Y124355D01*
X226861Y124159D01*
X227253Y123768D01*
X227551Y123370D01*
X227848Y122974D01*
X228045Y122580D01*
X228241Y122091D01*
X228241Y121600D01*
X228245Y121594D01*
X228242Y121590D01*
X228341Y121095D01*
X228341Y119505D01*
X228245Y119024D01*
X227966Y118745D01*
X227480Y118648D01*
X227441Y118604D01*
X227445Y118600D01*
X227441Y118597D01*
X227442Y118586D01*
X227439Y118607D01*
G37*
%LPD*%
%LPC*%
G36*
X95859Y107836D02*
X95859Y107836D01*
X95581Y108114D01*
X95484Y108595D01*
X95484Y114185D01*
X95579Y114657D01*
X95947Y114841D01*
X98330Y114841D01*
X98826Y114742D01*
X99321Y114643D01*
X99811Y114447D01*
X100206Y114151D01*
X100600Y113855D01*
X100896Y113461D01*
X101192Y113066D01*
X101389Y112572D01*
X101586Y112081D01*
X101586Y110600D01*
X101390Y110111D01*
X101191Y109712D01*
X101192Y109709D01*
X101189Y109708D01*
X100993Y109218D01*
X100603Y108828D01*
X100206Y108530D01*
X99809Y108232D01*
X99415Y108035D01*
X98926Y107839D01*
X98435Y107839D01*
X98434Y107838D01*
X98433Y107839D01*
X96438Y107740D01*
X95859Y107836D01*
G37*
%LPD*%
%LPC*%
G36*
X73203Y158690D02*
X73203Y158690D01*
X72811Y159277D01*
X72767Y159293D01*
X72793Y159306D01*
X72818Y159360D01*
X72814Y159362D01*
X72817Y159366D01*
X72625Y159940D01*
X73005Y160414D01*
X73395Y160707D01*
X78690Y163105D01*
X78693Y163110D01*
X78697Y163109D01*
X78997Y163309D01*
X79000Y163317D01*
X79008Y163318D01*
X79005Y163331D01*
X79017Y163365D01*
X78995Y163373D01*
X78990Y163395D01*
X72810Y166186D01*
X72623Y166747D01*
X73109Y167816D01*
X73580Y168098D01*
X74155Y168003D01*
X74748Y167706D01*
X81443Y164408D01*
X81928Y164021D01*
X82120Y163445D01*
X82023Y162770D01*
X81638Y162289D01*
X74352Y158696D01*
X73673Y158502D01*
X73203Y158690D01*
G37*
%LPD*%
G36*
X100940Y4072D02*
X100940Y4072D01*
X100951Y4084D01*
X100961Y4082D01*
X101461Y4482D01*
X101463Y4492D01*
X101471Y4493D01*
X101671Y4793D01*
X101669Y4827D01*
X101676Y4838D01*
X101476Y5337D01*
X101377Y5636D01*
X101375Y5637D01*
X101376Y5638D01*
X100976Y6637D01*
X100886Y6907D01*
X101265Y7285D01*
X101267Y7298D01*
X101268Y7300D01*
X101276Y7302D01*
X101476Y7802D01*
X101474Y7807D01*
X101478Y7808D01*
X101578Y8208D01*
X101574Y8216D01*
X101579Y8220D01*
X101579Y8820D01*
X101575Y8826D01*
X101578Y8830D01*
X101378Y9830D01*
X101367Y9840D01*
X101369Y9850D01*
X100769Y10650D01*
X100738Y10659D01*
X100730Y10669D01*
X100722Y10663D01*
X100712Y10666D01*
X100708Y10653D01*
X100708Y10652D01*
X100694Y10653D01*
X100670Y10627D01*
X100671Y10648D01*
X100660Y10648D01*
X100660Y10659D01*
X100260Y10959D01*
X100250Y10959D01*
X100248Y10966D01*
X99748Y11166D01*
X99743Y11164D01*
X99742Y11168D01*
X99342Y11268D01*
X99340Y11267D01*
X99340Y11268D01*
X98840Y11368D01*
X98833Y11365D01*
X98830Y11369D01*
X96730Y11369D01*
X96719Y11361D01*
X96712Y11366D01*
X96212Y11166D01*
X96199Y11144D01*
X96186Y11142D01*
X95986Y10742D01*
X95987Y10735D01*
X95983Y10731D01*
X95987Y10725D01*
X95981Y10720D01*
X95981Y4620D01*
X95990Y4607D01*
X95986Y4598D01*
X96186Y4198D01*
X96214Y4184D01*
X96220Y4172D01*
X96720Y4072D01*
X96732Y4077D01*
X96738Y4071D01*
X97338Y4171D01*
X97348Y4182D01*
X97357Y4179D01*
X97657Y4379D01*
X97664Y4397D01*
X97668Y4401D01*
X97666Y4404D01*
X97678Y4410D01*
X97778Y4910D01*
X97775Y4917D01*
X97779Y4920D01*
X97779Y5890D01*
X98142Y6071D01*
X99104Y6071D01*
X99486Y5497D01*
X99985Y4301D01*
X100000Y4292D01*
X100000Y4281D01*
X100400Y3981D01*
X100429Y3981D01*
X100440Y3972D01*
X100940Y4072D01*
G37*
G36*
X202196Y98235D02*
X202196Y98235D01*
X202200Y98232D01*
X202700Y98332D01*
X202718Y98352D01*
X202731Y98353D01*
X202931Y98653D01*
X202931Y98659D01*
X202933Y98661D01*
X202930Y98665D01*
X202930Y98673D01*
X202939Y98680D01*
X202939Y99380D01*
X202934Y99387D01*
X202938Y99392D01*
X202838Y99792D01*
X202815Y99811D01*
X202812Y99824D01*
X202412Y100024D01*
X202396Y100021D01*
X202390Y100029D01*
X199038Y100029D01*
X202520Y102641D01*
X202521Y102646D01*
X202525Y102645D01*
X202925Y103045D01*
X202928Y103065D01*
X202938Y103070D01*
X203038Y103570D01*
X203033Y103582D01*
X203039Y103588D01*
X202939Y104188D01*
X202923Y104203D01*
X202925Y104215D01*
X202625Y104515D01*
X202605Y104518D01*
X202600Y104528D01*
X202100Y104628D01*
X202093Y104625D01*
X202090Y104629D01*
X196490Y104629D01*
X196479Y104621D01*
X196472Y104626D01*
X195972Y104426D01*
X195959Y104404D01*
X195946Y104402D01*
X195746Y104002D01*
X195749Y103986D01*
X195741Y103980D01*
X195741Y103480D01*
X195745Y103474D01*
X195742Y103470D01*
X195842Y102970D01*
X195877Y102939D01*
X195880Y102932D01*
X196380Y102832D01*
X196386Y102834D01*
X196389Y102831D01*
X199838Y102735D01*
X198362Y101721D01*
X198362Y101719D01*
X198360Y101719D01*
X196260Y100119D01*
X196259Y100114D01*
X196255Y100115D01*
X195955Y99815D01*
X195953Y99801D01*
X195944Y99798D01*
X195744Y99298D01*
X195748Y99285D01*
X195741Y99280D01*
X195741Y98780D01*
X195754Y98762D01*
X195751Y98750D01*
X196051Y98350D01*
X196075Y98344D01*
X196080Y98332D01*
X196580Y98232D01*
X196587Y98235D01*
X196590Y98231D01*
X202190Y98231D01*
X202196Y98235D01*
G37*
G36*
X25718Y198381D02*
X25718Y198381D01*
X25733Y198397D01*
X25745Y198395D01*
X26045Y198695D01*
X26046Y198707D01*
X26051Y198711D01*
X26048Y198715D01*
X26058Y198720D01*
X26158Y199220D01*
X26155Y199227D01*
X26159Y199230D01*
X26159Y204330D01*
X26155Y204336D01*
X26158Y204340D01*
X25958Y205340D01*
X25935Y205361D01*
X25932Y205374D01*
X25532Y205574D01*
X25516Y205571D01*
X25510Y205579D01*
X24910Y205579D01*
X24903Y205574D01*
X24898Y205578D01*
X24498Y205478D01*
X24477Y205452D01*
X24464Y205448D01*
X24264Y204948D01*
X24265Y204945D01*
X24263Y204943D01*
X24268Y204936D01*
X24268Y204935D01*
X24261Y204930D01*
X24261Y201478D01*
X23149Y202960D01*
X21650Y205059D01*
X21644Y205060D01*
X21645Y205065D01*
X21345Y205365D01*
X21331Y205367D01*
X21328Y205376D01*
X20828Y205576D01*
X20815Y205572D01*
X20810Y205579D01*
X20310Y205579D01*
X20297Y205570D01*
X20292Y205566D01*
X20280Y205569D01*
X19880Y205269D01*
X19874Y205248D01*
X19866Y205242D01*
X19862Y205240D01*
X19762Y204740D01*
X19765Y204733D01*
X19761Y204730D01*
X19761Y199130D01*
X19765Y199124D01*
X19762Y199120D01*
X19862Y198620D01*
X19882Y198603D01*
X19883Y198589D01*
X20183Y198389D01*
X20203Y198390D01*
X20210Y198381D01*
X20910Y198381D01*
X20917Y198386D01*
X20922Y198382D01*
X21322Y198482D01*
X21341Y198505D01*
X21354Y198508D01*
X21554Y198908D01*
X21551Y198924D01*
X21559Y198930D01*
X21559Y202282D01*
X24171Y198800D01*
X24176Y198799D01*
X24175Y198795D01*
X24575Y198395D01*
X24595Y198392D01*
X24600Y198382D01*
X25100Y198282D01*
X25112Y198287D01*
X25118Y198281D01*
X25718Y198381D01*
G37*
%LPC*%
G36*
X221622Y142839D02*
X221622Y142839D01*
X221329Y143230D01*
X221285Y143242D01*
X221312Y143256D01*
X221332Y143296D01*
X221332Y143297D01*
X221338Y143309D01*
X221330Y143314D01*
X221334Y143322D01*
X221148Y143695D01*
X221424Y144064D01*
X221714Y144257D01*
X225710Y146055D01*
X225713Y146060D01*
X225717Y146059D01*
X226017Y146259D01*
X226020Y146267D01*
X226028Y146268D01*
X226025Y146281D01*
X226037Y146315D01*
X226015Y146323D01*
X226010Y146345D01*
X221810Y148245D01*
X221809Y148245D01*
X221808Y148246D01*
X221326Y148439D01*
X221144Y148802D01*
X221334Y149277D01*
X221528Y149569D01*
X221825Y149865D01*
X221828Y149889D01*
X221837Y149896D01*
X221836Y149898D01*
X221839Y149900D01*
X221839Y151700D01*
X221803Y151747D01*
X221802Y151747D01*
X221802Y151748D01*
X221424Y151842D01*
X221239Y152212D01*
X221239Y152888D01*
X221424Y153258D01*
X221796Y153351D01*
X227390Y153351D01*
X227437Y153387D01*
X227435Y153390D01*
X227438Y153393D01*
X227436Y153395D01*
X227439Y153397D01*
X227441Y153422D01*
X227441Y153400D01*
X227477Y153353D01*
X227484Y153358D01*
X227490Y153351D01*
X227874Y153351D01*
X228245Y153072D01*
X228339Y152505D01*
X228148Y152028D01*
X227870Y151749D01*
X221890Y151749D01*
X221843Y151713D01*
X221848Y151706D01*
X221841Y151700D01*
X221841Y149900D01*
X221877Y149853D01*
X221884Y149858D01*
X221890Y149851D01*
X222281Y149851D01*
X222770Y149655D01*
X227764Y147158D01*
X228149Y146869D01*
X228339Y146395D01*
X228244Y145921D01*
X227958Y145539D01*
X222470Y142845D01*
X221992Y142654D01*
X221622Y142839D01*
G37*
%LPD*%
G36*
X112436Y1875D02*
X112436Y1875D01*
X112440Y1872D01*
X112940Y1972D01*
X112946Y1979D01*
X112952Y1976D01*
X113352Y2176D01*
X113355Y2182D01*
X113360Y2181D01*
X114160Y2781D01*
X114162Y2790D01*
X114169Y2790D01*
X114469Y3190D01*
X114469Y3206D01*
X114478Y3210D01*
X114678Y4210D01*
X114675Y4217D01*
X114679Y4220D01*
X114679Y8820D01*
X114666Y8838D01*
X114669Y8850D01*
X114369Y9250D01*
X114345Y9256D01*
X114340Y9268D01*
X113840Y9368D01*
X113827Y9362D01*
X113820Y9368D01*
X113320Y9268D01*
X113304Y9250D01*
X113291Y9250D01*
X113012Y8878D01*
X112751Y8965D01*
X112255Y9262D01*
X112237Y9260D01*
X112230Y9269D01*
X111730Y9269D01*
X111724Y9265D01*
X111720Y9268D01*
X111220Y9168D01*
X111214Y9161D01*
X111208Y9164D01*
X110808Y8964D01*
X110805Y8958D01*
X110800Y8959D01*
X110400Y8659D01*
X110399Y8654D01*
X110395Y8655D01*
X109995Y8255D01*
X109994Y8243D01*
X109986Y8242D01*
X109786Y7842D01*
X109787Y7839D01*
X109784Y7838D01*
X109584Y7338D01*
X109586Y7332D01*
X109582Y7330D01*
X109482Y6830D01*
X109488Y6817D01*
X109482Y6810D01*
X109682Y5810D01*
X109693Y5800D01*
X109691Y5790D01*
X110291Y4990D01*
X110296Y4989D01*
X110295Y4985D01*
X110695Y4585D01*
X110707Y4584D01*
X110708Y4576D01*
X111108Y4376D01*
X111117Y4378D01*
X111120Y4372D01*
X111620Y4272D01*
X111627Y4275D01*
X111630Y4271D01*
X112130Y4271D01*
X112136Y4275D01*
X112140Y4272D01*
X112640Y4372D01*
X112653Y4387D01*
X112665Y4385D01*
X112881Y4601D01*
X112881Y4036D01*
X112599Y3661D01*
X112125Y3471D01*
X111644Y3567D01*
X111150Y3765D01*
X110752Y3964D01*
X110711Y3956D01*
X110700Y3959D01*
X110300Y3659D01*
X110298Y3650D01*
X110291Y3650D01*
X109991Y3250D01*
X109991Y3228D01*
X109981Y3220D01*
X109981Y2820D01*
X109997Y2799D01*
X109995Y2785D01*
X110395Y2385D01*
X110404Y2384D01*
X110405Y2378D01*
X110905Y2078D01*
X110911Y2078D01*
X110912Y2074D01*
X111412Y1874D01*
X111425Y1878D01*
X111430Y1871D01*
X112430Y1871D01*
X112436Y1875D01*
G37*
G36*
X71938Y15501D02*
X71938Y15501D01*
X71953Y15517D01*
X71965Y15515D01*
X72265Y15815D01*
X72266Y15827D01*
X72271Y15831D01*
X72269Y15834D01*
X72278Y15838D01*
X72378Y16238D01*
X72374Y16246D01*
X72379Y16250D01*
X72379Y17315D01*
X72638Y17401D01*
X73630Y17401D01*
X73636Y17405D01*
X73640Y17402D01*
X74140Y17502D01*
X74144Y17507D01*
X74148Y17504D01*
X74648Y17704D01*
X74650Y17707D01*
X74652Y17706D01*
X75052Y17906D01*
X75057Y17916D01*
X75065Y17915D01*
X75465Y18315D01*
X75466Y18320D01*
X75469Y18320D01*
X76069Y19120D01*
X76069Y19128D01*
X76073Y19130D01*
X76069Y19135D01*
X76069Y19136D01*
X76078Y19140D01*
X76178Y19640D01*
X76175Y19647D01*
X76179Y19650D01*
X76179Y20650D01*
X76170Y20663D01*
X76174Y20672D01*
X75874Y21272D01*
X75868Y21275D01*
X75869Y21280D01*
X75569Y21680D01*
X75564Y21681D01*
X75565Y21685D01*
X75165Y22085D01*
X75160Y22086D01*
X75160Y22089D01*
X74760Y22389D01*
X74750Y22389D01*
X74748Y22396D01*
X74248Y22596D01*
X74243Y22594D01*
X74242Y22598D01*
X73842Y22698D01*
X73834Y22694D01*
X73830Y22699D01*
X71230Y22699D01*
X71219Y22691D01*
X71212Y22696D01*
X70712Y22496D01*
X70695Y22467D01*
X70682Y22462D01*
X70582Y22062D01*
X70586Y22054D01*
X70581Y22050D01*
X70581Y15950D01*
X70593Y15934D01*
X70589Y15923D01*
X70789Y15623D01*
X70809Y15616D01*
X70812Y15604D01*
X71312Y15404D01*
X71330Y15409D01*
X71338Y15401D01*
X71938Y15501D01*
G37*
%LPC*%
G36*
X221796Y110949D02*
X221796Y110949D01*
X221426Y111042D01*
X221239Y111509D01*
X221239Y111988D01*
X221431Y112371D01*
X221922Y112862D01*
X225219Y115260D01*
X225229Y115292D01*
X225239Y115300D01*
X225239Y115400D01*
X225203Y115447D01*
X225196Y115442D01*
X225190Y115449D01*
X221605Y115449D01*
X221333Y115630D01*
X221239Y116006D01*
X221239Y116584D01*
X221519Y116956D01*
X221896Y117051D01*
X227584Y117051D01*
X227965Y116956D01*
X228244Y116676D01*
X228340Y116101D01*
X228245Y115627D01*
X227759Y115238D01*
X224460Y112739D01*
X224456Y112724D01*
X224446Y112722D01*
X224346Y112522D01*
X224347Y112517D01*
X224343Y112513D01*
X224349Y112505D01*
X224357Y112464D01*
X224377Y112467D01*
X224390Y112451D01*
X227875Y112451D01*
X228149Y112268D01*
X228339Y111696D01*
X228246Y111133D01*
X227878Y110949D01*
X221796Y110949D01*
G37*
%LPD*%
%LPC*%
G36*
X221796Y155049D02*
X221796Y155049D01*
X221426Y155142D01*
X221239Y155609D01*
X221239Y156088D01*
X221429Y156468D01*
X221921Y156862D01*
X225220Y159361D01*
X225229Y159392D01*
X225239Y159400D01*
X225239Y159500D01*
X225203Y159547D01*
X225196Y159542D01*
X225190Y159549D01*
X221598Y159549D01*
X221333Y159638D01*
X221239Y160105D01*
X221239Y160688D01*
X221423Y161056D01*
X221895Y161151D01*
X227485Y161151D01*
X227966Y161055D01*
X228244Y160776D01*
X228340Y160201D01*
X228245Y159727D01*
X227759Y159338D01*
X224760Y157039D01*
X224760Y157038D01*
X224759Y157038D01*
X224259Y156638D01*
X224255Y156623D01*
X224252Y156621D01*
X224243Y156613D01*
X224250Y156603D01*
X224245Y156581D01*
X224273Y156574D01*
X224290Y156551D01*
X227875Y156551D01*
X228150Y156368D01*
X228339Y155895D01*
X228244Y155324D01*
X227970Y155049D01*
X221796Y155049D01*
G37*
%LPD*%
G36*
X65416Y198285D02*
X65416Y198285D01*
X65420Y198282D01*
X65920Y198382D01*
X65926Y198389D01*
X65932Y198386D01*
X66332Y198586D01*
X66343Y198608D01*
X66348Y198612D01*
X66347Y198615D01*
X66358Y198620D01*
X66458Y199120D01*
X66453Y199132D01*
X66459Y199138D01*
X66359Y199738D01*
X66343Y199753D01*
X66345Y199765D01*
X66045Y200065D01*
X66025Y200068D01*
X66020Y200078D01*
X65520Y200178D01*
X65513Y200175D01*
X65510Y200179D01*
X64030Y200179D01*
X63993Y200217D01*
X64332Y200386D01*
X64732Y200586D01*
X64735Y200593D01*
X64741Y200592D01*
X65241Y200992D01*
X65243Y201000D01*
X65249Y201000D01*
X65849Y201800D01*
X65849Y201809D01*
X65851Y201810D01*
X65856Y201812D01*
X66056Y202312D01*
X66054Y202318D01*
X66058Y202320D01*
X66158Y202820D01*
X66155Y202827D01*
X66159Y202830D01*
X66159Y203330D01*
X66155Y203336D01*
X66158Y203340D01*
X66058Y203840D01*
X66051Y203846D01*
X66054Y203852D01*
X65854Y204252D01*
X65848Y204255D01*
X65849Y204260D01*
X65249Y205060D01*
X65240Y205062D01*
X65240Y205069D01*
X64840Y205369D01*
X64830Y205369D01*
X64828Y205376D01*
X64328Y205576D01*
X64322Y205574D01*
X64320Y205578D01*
X63820Y205678D01*
X63813Y205675D01*
X63810Y205679D01*
X63310Y205679D01*
X63305Y205676D01*
X63302Y205679D01*
X62702Y205579D01*
X62700Y205576D01*
X62698Y205578D01*
X62298Y205478D01*
X62289Y205467D01*
X62280Y205469D01*
X61880Y205169D01*
X61879Y205164D01*
X61875Y205165D01*
X61475Y204765D01*
X61474Y204760D01*
X61471Y204760D01*
X61171Y204360D01*
X61171Y204353D01*
X61170Y204353D01*
X61166Y204352D01*
X60966Y203952D01*
X60968Y203943D01*
X60962Y203940D01*
X60762Y202940D01*
X60768Y202927D01*
X60762Y202920D01*
X60862Y202420D01*
X60882Y202403D01*
X60883Y202389D01*
X61183Y202189D01*
X61198Y202190D01*
X61203Y202181D01*
X61903Y202081D01*
X61914Y202087D01*
X61920Y202082D01*
X62420Y202182D01*
X62441Y202205D01*
X62454Y202208D01*
X62654Y202608D01*
X62651Y202624D01*
X62659Y202630D01*
X62659Y203121D01*
X62851Y203599D01*
X63222Y203877D01*
X63694Y203783D01*
X64075Y203592D01*
X64357Y203122D01*
X64264Y202749D01*
X63973Y202264D01*
X63580Y201969D01*
X63182Y201671D01*
X61884Y200872D01*
X61883Y200869D01*
X61880Y200869D01*
X61480Y200569D01*
X61478Y200560D01*
X61471Y200560D01*
X60871Y199760D01*
X60871Y199744D01*
X60862Y199740D01*
X60762Y199240D01*
X60770Y199222D01*
X60764Y199212D01*
X60964Y198712D01*
X60980Y198702D01*
X60980Y198691D01*
X61380Y198391D01*
X61396Y198391D01*
X61400Y198382D01*
X61900Y198282D01*
X61907Y198285D01*
X61910Y198281D01*
X65410Y198281D01*
X65416Y198285D01*
G37*
G36*
X212357Y66466D02*
X212357Y66466D01*
X212362Y66462D01*
X212762Y66562D01*
X212774Y66577D01*
X212785Y66575D01*
X213085Y66875D01*
X213086Y66887D01*
X213091Y66891D01*
X213088Y66896D01*
X213089Y66902D01*
X213099Y66910D01*
X213099Y67510D01*
X213095Y67516D01*
X213098Y67520D01*
X212998Y68020D01*
X212975Y68041D01*
X212972Y68054D01*
X212572Y68254D01*
X212556Y68251D01*
X212550Y68259D01*
X210476Y68259D01*
X210299Y68525D01*
X210299Y70495D01*
X210476Y70761D01*
X212550Y70761D01*
X212563Y70770D01*
X212572Y70766D01*
X212972Y70966D01*
X212983Y70988D01*
X212996Y70992D01*
X213196Y71492D01*
X213191Y71510D01*
X213199Y71518D01*
X213099Y72118D01*
X213083Y72133D01*
X213085Y72145D01*
X212785Y72445D01*
X212765Y72448D01*
X212760Y72458D01*
X212260Y72558D01*
X212253Y72555D01*
X212250Y72559D01*
X206650Y72559D01*
X206644Y72555D01*
X206640Y72558D01*
X206140Y72458D01*
X206119Y72435D01*
X206106Y72432D01*
X205906Y72032D01*
X205909Y72016D01*
X205901Y72010D01*
X205901Y71410D01*
X205906Y71403D01*
X205902Y71398D01*
X206002Y70998D01*
X206028Y70977D01*
X206032Y70964D01*
X206532Y70764D01*
X206545Y70768D01*
X206550Y70761D01*
X208624Y70761D01*
X208801Y70495D01*
X208801Y68530D01*
X208530Y68259D01*
X206550Y68259D01*
X206537Y68250D01*
X206528Y68254D01*
X206128Y68054D01*
X206118Y68034D01*
X206106Y68032D01*
X205906Y67632D01*
X205909Y67616D01*
X205901Y67610D01*
X205901Y66910D01*
X205917Y66889D01*
X205915Y66875D01*
X206215Y66575D01*
X206234Y66573D01*
X206238Y66562D01*
X206638Y66462D01*
X206646Y66466D01*
X206650Y66461D01*
X212350Y66461D01*
X212357Y66466D01*
G37*
%LPC*%
G36*
X92559Y107835D02*
X92559Y107835D01*
X92173Y108222D01*
X89475Y111820D01*
X89463Y111823D01*
X89458Y111834D01*
X89445Y111828D01*
X89417Y111836D01*
X89410Y111811D01*
X89387Y111800D01*
X89287Y111300D01*
X89290Y111293D01*
X89286Y111290D01*
X89286Y108296D01*
X89195Y107932D01*
X88730Y107839D01*
X88056Y107839D01*
X87784Y108110D01*
X87784Y114184D01*
X87879Y114561D01*
X88252Y114841D01*
X88726Y114841D01*
X89204Y114650D01*
X91595Y111461D01*
X91994Y110863D01*
X92011Y110857D01*
X92013Y110846D01*
X92213Y110746D01*
X92219Y110747D01*
X92222Y110743D01*
X92231Y110749D01*
X92272Y110757D01*
X92268Y110778D01*
X92284Y110790D01*
X92284Y114367D01*
X92853Y114841D01*
X93324Y114841D01*
X93698Y114653D01*
X93886Y114278D01*
X93886Y108690D01*
X93922Y108643D01*
X93928Y108647D01*
X93932Y108641D01*
X93956Y108639D01*
X93935Y108639D01*
X93888Y108603D01*
X93894Y108596D01*
X93886Y108590D01*
X93886Y108207D01*
X93608Y107835D01*
X93036Y107740D01*
X92559Y107835D01*
G37*
%LPD*%
G36*
X202094Y61338D02*
X202094Y61338D01*
X202102Y61332D01*
X202502Y61432D01*
X202521Y61455D01*
X202534Y61458D01*
X203034Y62458D01*
X203027Y62493D01*
X203032Y62505D01*
X202732Y63005D01*
X202712Y63013D01*
X202709Y63025D01*
X201339Y63613D01*
X201339Y66155D01*
X201715Y66437D01*
X202610Y66835D01*
X202619Y66850D01*
X202629Y66850D01*
X202929Y67250D01*
X202929Y67271D01*
X202937Y67277D01*
X202936Y67278D01*
X202939Y67280D01*
X202939Y67780D01*
X202928Y67795D01*
X202932Y67805D01*
X202632Y68305D01*
X202614Y68313D01*
X202612Y68324D01*
X202212Y68524D01*
X202197Y68521D01*
X202186Y68521D01*
X202178Y68528D01*
X201778Y68428D01*
X201774Y68422D01*
X201769Y68425D01*
X196169Y65825D01*
X196167Y65820D01*
X196163Y65821D01*
X195863Y65621D01*
X195856Y65601D01*
X195844Y65598D01*
X195644Y65098D01*
X195647Y65089D01*
X195644Y65087D01*
X195649Y65080D01*
X195650Y65079D01*
X195642Y65070D01*
X195742Y64570D01*
X195753Y64560D01*
X195751Y64550D01*
X196051Y64150D01*
X196066Y64146D01*
X196068Y64136D01*
X196468Y63936D01*
X201568Y61436D01*
X201578Y61438D01*
X201580Y61432D01*
X202080Y61332D01*
X202094Y61338D01*
G37*
G36*
X62847Y15414D02*
X62847Y15414D01*
X62860Y15411D01*
X63260Y15711D01*
X63264Y15726D01*
X63274Y15728D01*
X63960Y17101D01*
X66405Y17101D01*
X66689Y16723D01*
X67187Y15826D01*
X67196Y15822D01*
X67195Y15815D01*
X67495Y15515D01*
X67522Y15512D01*
X67530Y15501D01*
X68030Y15501D01*
X68045Y15512D01*
X68055Y15508D01*
X68555Y15808D01*
X68560Y15820D01*
X68569Y15820D01*
X68869Y16220D01*
X68869Y16251D01*
X68878Y16262D01*
X68778Y16662D01*
X68772Y16667D01*
X68774Y16671D01*
X66074Y22271D01*
X66070Y22274D01*
X66071Y22277D01*
X65871Y22577D01*
X65854Y22583D01*
X65852Y22594D01*
X65452Y22794D01*
X65430Y22790D01*
X65420Y22798D01*
X64920Y22698D01*
X64910Y22687D01*
X64900Y22689D01*
X64500Y22389D01*
X64498Y22380D01*
X64491Y22380D01*
X64191Y21980D01*
X64191Y21972D01*
X64185Y21971D01*
X61785Y16871D01*
X61786Y16869D01*
X61784Y16868D01*
X61584Y16368D01*
X61592Y16340D01*
X61586Y16328D01*
X61786Y15928D01*
X61803Y15919D01*
X61805Y15908D01*
X62305Y15608D01*
X62311Y15608D01*
X62312Y15604D01*
X62812Y15404D01*
X62847Y15414D01*
G37*
G36*
X199696Y70235D02*
X199696Y70235D01*
X199700Y70232D01*
X200700Y70432D01*
X200704Y70437D01*
X200708Y70434D01*
X201208Y70634D01*
X201210Y70637D01*
X201212Y70636D01*
X201612Y70836D01*
X201617Y70846D01*
X201625Y70845D01*
X202022Y71243D01*
X202420Y71541D01*
X202425Y71559D01*
X202436Y71562D01*
X202635Y72060D01*
X202834Y72458D01*
X202832Y72467D01*
X202838Y72470D01*
X203038Y73470D01*
X203033Y73482D01*
X203039Y73488D01*
X202939Y74088D01*
X202936Y74090D01*
X202938Y74092D01*
X202838Y74492D01*
X202830Y74499D01*
X202832Y74505D01*
X202532Y75005D01*
X202529Y75007D01*
X202529Y75010D01*
X201929Y75810D01*
X201920Y75812D01*
X201920Y75819D01*
X201520Y76119D01*
X201510Y76119D01*
X201508Y76126D01*
X201010Y76325D01*
X200612Y76524D01*
X200603Y76522D01*
X200600Y76528D01*
X200100Y76628D01*
X200093Y76625D01*
X200090Y76629D01*
X196490Y76629D01*
X196484Y76625D01*
X196480Y76628D01*
X195980Y76528D01*
X195964Y76510D01*
X195951Y76510D01*
X195651Y76110D01*
X195651Y76088D01*
X195641Y76080D01*
X195641Y75580D01*
X195645Y75574D01*
X195642Y75570D01*
X195742Y75070D01*
X195765Y75049D01*
X195768Y75036D01*
X196168Y74836D01*
X196184Y74839D01*
X196190Y74831D01*
X199781Y74831D01*
X200272Y74634D01*
X200759Y74439D01*
X201044Y74059D01*
X201141Y73575D01*
X201141Y73089D01*
X200949Y72611D01*
X200566Y72323D01*
X200081Y72129D01*
X196590Y72129D01*
X196584Y72125D01*
X196580Y72128D01*
X196080Y72028D01*
X196070Y72017D01*
X196060Y72019D01*
X195660Y71719D01*
X195652Y71688D01*
X195641Y71680D01*
X195641Y71080D01*
X195645Y71074D01*
X195642Y71070D01*
X195742Y70570D01*
X195757Y70557D01*
X195755Y70545D01*
X196055Y70245D01*
X196082Y70242D01*
X196090Y70231D01*
X199690Y70231D01*
X199696Y70235D01*
G37*
%LPC*%
G36*
X82547Y107839D02*
X82547Y107839D01*
X82157Y108034D01*
X82154Y108034D01*
X82153Y108036D01*
X81656Y108235D01*
X81264Y108431D01*
X80873Y108822D01*
X80575Y109220D01*
X80277Y109616D01*
X80080Y110011D01*
X79883Y110504D01*
X79784Y110995D01*
X79784Y112085D01*
X79882Y112574D01*
X80079Y112967D01*
X80376Y113462D01*
X80673Y113858D01*
X80970Y114155D01*
X80975Y114191D01*
X80995Y114162D01*
X81051Y114143D01*
X81054Y114154D01*
X81065Y114151D01*
X81465Y114451D01*
X81860Y114747D01*
X82349Y114943D01*
X82840Y115041D01*
X83829Y115041D01*
X84220Y114943D01*
X84717Y114744D01*
X85211Y114547D01*
X85596Y114258D01*
X85781Y113888D01*
X85593Y113418D01*
X85210Y113035D01*
X84840Y112942D01*
X83955Y113335D01*
X83946Y113333D01*
X83943Y113339D01*
X83343Y113439D01*
X83332Y113433D01*
X83326Y113438D01*
X82826Y113338D01*
X82819Y113331D01*
X82813Y113334D01*
X82413Y113134D01*
X82410Y113128D01*
X82406Y113130D01*
X82006Y112830D01*
X82004Y112824D01*
X82000Y112825D01*
X81700Y112525D01*
X81699Y112513D01*
X81695Y112510D01*
X81689Y112508D01*
X81489Y112008D01*
X81491Y112002D01*
X81487Y112000D01*
X81387Y111500D01*
X81393Y111487D01*
X81387Y111480D01*
X81487Y110980D01*
X81492Y110976D01*
X81489Y110972D01*
X81689Y110472D01*
X81698Y110467D01*
X81696Y110461D01*
X81996Y110061D01*
X82001Y110059D01*
X82000Y110055D01*
X82400Y109655D01*
X82412Y109654D01*
X82413Y109646D01*
X82813Y109446D01*
X82829Y109449D01*
X82835Y109441D01*
X83835Y109441D01*
X83846Y109449D01*
X83853Y109444D01*
X84353Y109644D01*
X84368Y109669D01*
X84374Y109674D01*
X84373Y109676D01*
X84378Y109685D01*
X84384Y109690D01*
X84384Y110690D01*
X84349Y110738D01*
X84343Y110733D01*
X84340Y110739D01*
X83257Y110838D01*
X82984Y111110D01*
X82984Y111578D01*
X83172Y111953D01*
X83547Y112141D01*
X85131Y112141D01*
X85702Y112046D01*
X85888Y111674D01*
X85986Y111185D01*
X85986Y109200D01*
X85793Y108718D01*
X85503Y108428D01*
X85109Y108132D01*
X84719Y107937D01*
X84230Y107839D01*
X82547Y107839D01*
G37*
%LPD*%
%LPC*%
G36*
X224295Y102949D02*
X224295Y102949D01*
X223801Y103048D01*
X223405Y103147D01*
X222914Y103343D01*
X222520Y103639D01*
X222125Y103935D01*
X221829Y104330D01*
X221798Y104339D01*
X221792Y104347D01*
X221788Y104347D01*
X221782Y104343D01*
X221772Y104346D01*
X221769Y104336D01*
X221759Y104338D01*
X221735Y104319D01*
X221733Y104320D01*
X221734Y104322D01*
X221534Y104722D01*
X221531Y104723D01*
X221532Y104725D01*
X221237Y105218D01*
X221138Y105710D01*
X221039Y106205D01*
X221039Y107188D01*
X221234Y107578D01*
X221233Y107581D01*
X221236Y107582D01*
X221436Y108082D01*
X221631Y108569D01*
X222006Y108851D01*
X222376Y108851D01*
X222856Y108563D01*
X223141Y108184D01*
X223141Y107814D01*
X222848Y107325D01*
X222848Y107319D01*
X222844Y107318D01*
X222644Y106818D01*
X222648Y106805D01*
X222641Y106800D01*
X222641Y106300D01*
X222645Y106294D01*
X222642Y106290D01*
X222742Y105790D01*
X222753Y105780D01*
X222751Y105770D01*
X223351Y104970D01*
X223366Y104966D01*
X223368Y104956D01*
X223768Y104756D01*
X223771Y104757D01*
X223772Y104754D01*
X224272Y104554D01*
X224285Y104558D01*
X224290Y104551D01*
X224890Y104551D01*
X224901Y104559D01*
X224908Y104554D01*
X225408Y104754D01*
X225410Y104757D01*
X225412Y104756D01*
X225812Y104956D01*
X225817Y104966D01*
X225825Y104965D01*
X226225Y105365D01*
X226226Y105370D01*
X226229Y105370D01*
X226529Y105770D01*
X226529Y105786D01*
X226538Y105790D01*
X226638Y106290D01*
X226635Y106297D01*
X226639Y106300D01*
X226639Y106800D01*
X226635Y106806D01*
X226638Y106810D01*
X226538Y107310D01*
X226518Y107328D01*
X226517Y107341D01*
X226217Y107541D01*
X226198Y107540D01*
X226191Y107549D01*
X226190Y107549D01*
X225590Y107549D01*
X225562Y107528D01*
X225549Y107527D01*
X225349Y107227D01*
X225349Y107220D01*
X225345Y107217D01*
X225350Y107211D01*
X225350Y107207D01*
X225341Y107200D01*
X225341Y106705D01*
X225248Y106242D01*
X224785Y106149D01*
X224315Y106149D01*
X224036Y106521D01*
X223939Y107005D01*
X223939Y108491D01*
X224129Y108964D01*
X224502Y109151D01*
X227074Y109151D01*
X227458Y108863D01*
X227749Y108571D01*
X227945Y108180D01*
X228143Y107686D01*
X228241Y107192D01*
X228340Y106601D01*
X228142Y105610D01*
X228044Y105121D01*
X227751Y104730D01*
X227153Y103932D01*
X226762Y103542D01*
X226272Y103346D01*
X226270Y103343D01*
X226268Y103344D01*
X225874Y103147D01*
X224885Y102949D01*
X224295Y102949D01*
G37*
%LPD*%
G36*
X93733Y15407D02*
X93733Y15407D01*
X93740Y15402D01*
X94740Y15602D01*
X94744Y15607D01*
X94748Y15604D01*
X95248Y15804D01*
X95253Y15812D01*
X95260Y15811D01*
X95660Y16111D01*
X95662Y16120D01*
X95669Y16120D01*
X96269Y16920D01*
X96269Y16934D01*
X96278Y16938D01*
X96378Y17338D01*
X96377Y17341D01*
X96379Y17342D01*
X96479Y17942D01*
X96473Y17953D01*
X96478Y17960D01*
X96378Y18460D01*
X96367Y18470D01*
X96369Y18480D01*
X96069Y18880D01*
X96064Y18881D01*
X96065Y18885D01*
X95679Y19270D01*
X95679Y19525D01*
X96060Y19811D01*
X96064Y19826D01*
X96074Y19828D01*
X96274Y20228D01*
X96271Y20244D01*
X96279Y20250D01*
X96279Y20850D01*
X96274Y20857D01*
X96278Y20862D01*
X96178Y21262D01*
X96174Y21265D01*
X96176Y21268D01*
X95976Y21768D01*
X95968Y21773D01*
X95969Y21780D01*
X95669Y22180D01*
X95662Y22182D01*
X95662Y22187D01*
X94862Y22887D01*
X94838Y22889D01*
X94830Y22899D01*
X93330Y22899D01*
X93324Y22895D01*
X93320Y22898D01*
X92820Y22798D01*
X92816Y22793D01*
X92812Y22796D01*
X92312Y22596D01*
X92307Y22588D01*
X92300Y22589D01*
X91900Y22289D01*
X91898Y22280D01*
X91891Y22280D01*
X91291Y21480D01*
X91291Y21473D01*
X91289Y21472D01*
X91291Y21470D01*
X91291Y21466D01*
X91282Y21462D01*
X91182Y21062D01*
X91193Y21037D01*
X91188Y21025D01*
X91488Y20525D01*
X91500Y20520D01*
X91500Y20511D01*
X91900Y20211D01*
X91922Y20211D01*
X91930Y20201D01*
X92430Y20201D01*
X92448Y20214D01*
X92460Y20211D01*
X92860Y20511D01*
X92864Y20526D01*
X92874Y20528D01*
X93066Y20911D01*
X93539Y21101D01*
X94014Y21101D01*
X94381Y20825D01*
X94381Y20480D01*
X94015Y20297D01*
X93422Y20199D01*
X93420Y20196D01*
X93418Y20198D01*
X93018Y20098D01*
X92991Y20064D01*
X92982Y20060D01*
X92882Y19560D01*
X92885Y19553D01*
X92881Y19550D01*
X92881Y18850D01*
X92897Y18829D01*
X92895Y18815D01*
X93195Y18515D01*
X93214Y18513D01*
X93218Y18502D01*
X93618Y18402D01*
X93625Y18405D01*
X93627Y18405D01*
X93630Y18401D01*
X94214Y18401D01*
X94581Y18125D01*
X94581Y17666D01*
X94302Y17295D01*
X93829Y17200D01*
X93245Y17297D01*
X92869Y17486D01*
X92676Y17968D01*
X92664Y17976D01*
X92665Y17985D01*
X92365Y18285D01*
X92338Y18289D01*
X92330Y18299D01*
X91730Y18299D01*
X91724Y18295D01*
X91720Y18298D01*
X91220Y18198D01*
X91207Y18183D01*
X91195Y18185D01*
X90895Y17885D01*
X90890Y17850D01*
X90882Y17840D01*
X91082Y16840D01*
X91093Y16830D01*
X91091Y16820D01*
X91391Y16420D01*
X91396Y16419D01*
X91395Y16415D01*
X91795Y16015D01*
X91807Y16014D01*
X91808Y16006D01*
X92608Y15606D01*
X92617Y15608D01*
X92620Y15602D01*
X93120Y15502D01*
X93121Y15502D01*
X93122Y15501D01*
X93722Y15401D01*
X93733Y15407D01*
G37*
G36*
X36618Y198381D02*
X36618Y198381D01*
X36625Y198389D01*
X36632Y198386D01*
X37032Y198586D01*
X37035Y198592D01*
X37040Y198591D01*
X37840Y199191D01*
X37843Y199204D01*
X37852Y199205D01*
X38152Y199705D01*
X38151Y199715D01*
X38158Y199718D01*
X38258Y200118D01*
X38257Y200120D01*
X38258Y200120D01*
X38358Y200620D01*
X38355Y200627D01*
X38359Y200630D01*
X38359Y200830D01*
X38354Y200837D01*
X38358Y200842D01*
X38258Y201242D01*
X38254Y201245D01*
X38256Y201248D01*
X38056Y201748D01*
X38044Y201756D01*
X38045Y201765D01*
X37645Y202165D01*
X37640Y202166D01*
X37640Y202169D01*
X37240Y202469D01*
X37233Y202469D01*
X37232Y202474D01*
X36832Y202674D01*
X36823Y202672D01*
X36820Y202678D01*
X36320Y202778D01*
X36313Y202775D01*
X36310Y202779D01*
X35810Y202779D01*
X35804Y202775D01*
X35800Y202778D01*
X35384Y202695D01*
X35454Y202907D01*
X35745Y203295D01*
X36134Y203587D01*
X36624Y203783D01*
X37115Y203881D01*
X37710Y203881D01*
X37731Y203897D01*
X37745Y203895D01*
X38045Y204195D01*
X38048Y204215D01*
X38058Y204220D01*
X38158Y204720D01*
X38152Y204733D01*
X38158Y204740D01*
X38058Y205240D01*
X38043Y205253D01*
X38045Y205265D01*
X37745Y205565D01*
X37725Y205568D01*
X37720Y205578D01*
X37220Y205678D01*
X37213Y205675D01*
X37210Y205679D01*
X36710Y205679D01*
X36705Y205676D01*
X36702Y205679D01*
X36102Y205579D01*
X36095Y205571D01*
X36088Y205574D01*
X35690Y205375D01*
X35192Y205176D01*
X35187Y205168D01*
X35180Y205169D01*
X34780Y204869D01*
X34779Y204864D01*
X34775Y204865D01*
X34475Y204565D01*
X34474Y204560D01*
X34471Y204560D01*
X33871Y203760D01*
X33871Y203753D01*
X33866Y203752D01*
X33666Y203352D01*
X33667Y203349D01*
X33664Y203348D01*
X33464Y202848D01*
X33466Y202842D01*
X33462Y202840D01*
X33262Y201840D01*
X33265Y201833D01*
X33261Y201830D01*
X33261Y200730D01*
X33265Y200724D01*
X33262Y200720D01*
X33362Y200220D01*
X33367Y200216D01*
X33364Y200212D01*
X33564Y199712D01*
X33567Y199710D01*
X33566Y199708D01*
X33766Y199308D01*
X33772Y199305D01*
X33771Y199300D01*
X34071Y198900D01*
X34086Y198896D01*
X34088Y198886D01*
X34488Y198686D01*
X34491Y198687D01*
X34492Y198684D01*
X34992Y198484D01*
X34998Y198486D01*
X35000Y198482D01*
X36000Y198282D01*
X36012Y198287D01*
X36018Y198281D01*
X36618Y198381D01*
G37*
G36*
X57218Y198381D02*
X57218Y198381D01*
X57219Y198382D01*
X57220Y198382D01*
X57720Y198482D01*
X57726Y198489D01*
X57732Y198486D01*
X58132Y198686D01*
X58135Y198692D01*
X58140Y198691D01*
X58540Y198991D01*
X58541Y198996D01*
X58545Y198995D01*
X58945Y199395D01*
X58946Y199407D01*
X58954Y199408D01*
X59354Y200208D01*
X59351Y200224D01*
X59359Y200230D01*
X59359Y200830D01*
X59355Y200836D01*
X59358Y200840D01*
X59258Y201340D01*
X59251Y201346D01*
X59254Y201352D01*
X59054Y201752D01*
X59044Y201757D01*
X59045Y201765D01*
X58659Y202150D01*
X58659Y202410D01*
X58945Y202695D01*
X58946Y202707D01*
X58954Y202708D01*
X59154Y203108D01*
X59152Y203119D01*
X59159Y203122D01*
X59259Y203722D01*
X59252Y203734D01*
X59253Y203734D01*
X59252Y203735D01*
X59258Y203742D01*
X59158Y204142D01*
X59150Y204149D01*
X59152Y204155D01*
X58852Y204655D01*
X58849Y204657D01*
X58849Y204660D01*
X58549Y205060D01*
X58544Y205061D01*
X58545Y205065D01*
X57845Y205765D01*
X57818Y205769D01*
X57810Y205779D01*
X56310Y205779D01*
X56304Y205775D01*
X56300Y205778D01*
X55800Y205678D01*
X55796Y205673D01*
X55792Y205676D01*
X55292Y205476D01*
X55287Y205468D01*
X55280Y205469D01*
X54880Y205169D01*
X54879Y205164D01*
X54875Y205165D01*
X54475Y204765D01*
X54474Y204753D01*
X54466Y204752D01*
X54266Y204352D01*
X54267Y204344D01*
X54262Y204342D01*
X54162Y203942D01*
X54171Y203922D01*
X54164Y203912D01*
X54364Y203412D01*
X54383Y203400D01*
X54385Y203388D01*
X54885Y203088D01*
X54903Y203090D01*
X54910Y203081D01*
X55310Y203081D01*
X55328Y203094D01*
X55340Y203091D01*
X55740Y203391D01*
X55742Y203400D01*
X55749Y203400D01*
X56041Y203789D01*
X56519Y203981D01*
X56994Y203981D01*
X57361Y203705D01*
X57361Y203360D01*
X56995Y203178D01*
X56303Y203079D01*
X56298Y203074D01*
X56294Y203077D01*
X55994Y202977D01*
X55977Y202952D01*
X55964Y202948D01*
X55764Y202448D01*
X55768Y202434D01*
X55764Y202431D01*
X55766Y202428D01*
X55761Y202423D01*
X55861Y201723D01*
X55877Y201708D01*
X55875Y201695D01*
X56175Y201395D01*
X56194Y201393D01*
X56198Y201382D01*
X56598Y201282D01*
X56605Y201285D01*
X56607Y201285D01*
X56610Y201281D01*
X57094Y201281D01*
X57465Y201002D01*
X57557Y200546D01*
X57186Y200175D01*
X56710Y200080D01*
X56226Y200177D01*
X55845Y200368D01*
X55552Y200855D01*
X55544Y200859D01*
X55545Y200865D01*
X55245Y201165D01*
X55218Y201169D01*
X55210Y201179D01*
X54610Y201179D01*
X54604Y201175D01*
X54600Y201178D01*
X54100Y201078D01*
X54083Y201058D01*
X54069Y201057D01*
X53869Y200757D01*
X53870Y200737D01*
X53861Y200730D01*
X53861Y200230D01*
X53869Y200219D01*
X53864Y200212D01*
X54064Y199712D01*
X54072Y199707D01*
X54071Y199700D01*
X54671Y198900D01*
X54686Y198896D01*
X54688Y198886D01*
X55088Y198686D01*
X55091Y198687D01*
X55092Y198684D01*
X55592Y198484D01*
X55598Y198486D01*
X55600Y198482D01*
X56600Y198282D01*
X56612Y198287D01*
X56618Y198281D01*
X57218Y198381D01*
G37*
G36*
X87338Y15501D02*
X87338Y15501D01*
X87340Y15504D01*
X87342Y15502D01*
X87742Y15602D01*
X87745Y15606D01*
X87748Y15604D01*
X88248Y15804D01*
X88253Y15812D01*
X88260Y15811D01*
X88660Y16111D01*
X88661Y16116D01*
X88665Y16115D01*
X89065Y16515D01*
X89066Y16527D01*
X89074Y16528D01*
X89474Y17328D01*
X89471Y17344D01*
X89479Y17350D01*
X89479Y17950D01*
X89475Y17956D01*
X89478Y17960D01*
X89378Y18460D01*
X89371Y18466D01*
X89374Y18472D01*
X89174Y18872D01*
X89164Y18877D01*
X89165Y18885D01*
X88779Y19270D01*
X88779Y19530D01*
X89065Y19815D01*
X89066Y19827D01*
X89074Y19828D01*
X89274Y20228D01*
X89271Y20244D01*
X89279Y20250D01*
X89279Y20850D01*
X89274Y20857D01*
X89278Y20862D01*
X89178Y21262D01*
X89174Y21265D01*
X89176Y21268D01*
X88976Y21768D01*
X88968Y21773D01*
X88969Y21780D01*
X88669Y22180D01*
X88664Y22181D01*
X88665Y22185D01*
X87965Y22885D01*
X87938Y22889D01*
X87930Y22899D01*
X86330Y22899D01*
X86323Y22894D01*
X86318Y22898D01*
X85918Y22798D01*
X85915Y22794D01*
X85912Y22796D01*
X85412Y22596D01*
X85407Y22588D01*
X85400Y22589D01*
X85000Y22289D01*
X84999Y22284D01*
X84995Y22285D01*
X84595Y21885D01*
X84594Y21880D01*
X84591Y21880D01*
X84291Y21480D01*
X84291Y21473D01*
X84289Y21472D01*
X84291Y21470D01*
X84291Y21458D01*
X84281Y21450D01*
X84281Y21050D01*
X84289Y21039D01*
X84284Y21032D01*
X84484Y20532D01*
X84503Y20520D01*
X84505Y20508D01*
X85005Y20208D01*
X85023Y20210D01*
X85030Y20201D01*
X85430Y20201D01*
X85448Y20214D01*
X85460Y20211D01*
X85860Y20511D01*
X85862Y20520D01*
X85869Y20520D01*
X86162Y20911D01*
X86542Y21101D01*
X87114Y21101D01*
X87481Y20825D01*
X87481Y20483D01*
X87017Y20298D01*
X86422Y20199D01*
X86418Y20194D01*
X86414Y20197D01*
X86114Y20097D01*
X86097Y20072D01*
X86084Y20068D01*
X85884Y19568D01*
X85888Y19554D01*
X85884Y19551D01*
X85886Y19548D01*
X85881Y19543D01*
X85981Y18843D01*
X85992Y18832D01*
X85989Y18823D01*
X86189Y18523D01*
X86214Y18514D01*
X86220Y18502D01*
X86720Y18402D01*
X86727Y18405D01*
X86730Y18401D01*
X87214Y18401D01*
X87581Y18125D01*
X87581Y17666D01*
X87302Y17295D01*
X86830Y17200D01*
X86344Y17297D01*
X85868Y17488D01*
X85676Y17968D01*
X85664Y17976D01*
X85665Y17985D01*
X85365Y18285D01*
X85338Y18289D01*
X85330Y18299D01*
X84730Y18299D01*
X84724Y18295D01*
X84720Y18298D01*
X84220Y18198D01*
X84203Y18178D01*
X84189Y18177D01*
X83989Y17877D01*
X83990Y17857D01*
X83981Y17850D01*
X83981Y17350D01*
X83989Y17339D01*
X83984Y17332D01*
X84184Y16832D01*
X84192Y16827D01*
X84191Y16820D01*
X84791Y16020D01*
X84806Y16016D01*
X84808Y16006D01*
X85208Y15806D01*
X85211Y15807D01*
X85212Y15804D01*
X85712Y15604D01*
X85718Y15606D01*
X85720Y15602D01*
X86720Y15402D01*
X86732Y15407D01*
X86738Y15401D01*
X87338Y15501D01*
G37*
G36*
X80233Y15407D02*
X80233Y15407D01*
X80240Y15402D01*
X80740Y15502D01*
X80744Y15507D01*
X80748Y15504D01*
X81248Y15704D01*
X81253Y15712D01*
X81260Y15711D01*
X82060Y16311D01*
X82065Y16329D01*
X82076Y16332D01*
X82275Y16830D01*
X82474Y17228D01*
X82471Y17244D01*
X82479Y17250D01*
X82479Y17950D01*
X82474Y17957D01*
X82478Y17962D01*
X82378Y18362D01*
X82374Y18365D01*
X82376Y18368D01*
X82176Y18868D01*
X82168Y18873D01*
X82169Y18880D01*
X81869Y19280D01*
X81860Y19282D01*
X81860Y19289D01*
X81460Y19589D01*
X81450Y19589D01*
X81448Y19596D01*
X80948Y19796D01*
X80942Y19794D01*
X80940Y19798D01*
X80440Y19898D01*
X80433Y19895D01*
X80430Y19899D01*
X79930Y19899D01*
X79924Y19895D01*
X79920Y19898D01*
X79504Y19815D01*
X79574Y20027D01*
X79865Y20415D01*
X80253Y20706D01*
X80843Y20902D01*
X81335Y21001D01*
X81830Y21001D01*
X81851Y21017D01*
X81865Y21015D01*
X82165Y21315D01*
X82168Y21335D01*
X82178Y21340D01*
X82278Y21840D01*
X82275Y21847D01*
X82279Y21850D01*
X82279Y22350D01*
X82263Y22371D01*
X82265Y22385D01*
X81965Y22685D01*
X81945Y22688D01*
X81940Y22698D01*
X81440Y22798D01*
X81433Y22795D01*
X81430Y22799D01*
X80830Y22799D01*
X80824Y22795D01*
X80820Y22798D01*
X80320Y22698D01*
X80316Y22693D01*
X80312Y22696D01*
X79812Y22496D01*
X79810Y22493D01*
X79808Y22494D01*
X79408Y22294D01*
X79405Y22288D01*
X79400Y22289D01*
X78600Y21689D01*
X78598Y21680D01*
X78591Y21680D01*
X78291Y21280D01*
X78291Y21273D01*
X78286Y21272D01*
X78088Y20876D01*
X77791Y20480D01*
X77791Y20464D01*
X77782Y20460D01*
X77482Y18960D01*
X77485Y18953D01*
X77481Y18950D01*
X77481Y17850D01*
X77485Y17844D01*
X77482Y17840D01*
X77582Y17340D01*
X77587Y17336D01*
X77584Y17332D01*
X77784Y16832D01*
X77787Y16830D01*
X77786Y16828D01*
X77986Y16428D01*
X77992Y16425D01*
X77991Y16420D01*
X78291Y16020D01*
X78306Y16016D01*
X78308Y16006D01*
X79108Y15606D01*
X79117Y15608D01*
X79120Y15602D01*
X79620Y15502D01*
X79621Y15502D01*
X79622Y15501D01*
X80222Y15401D01*
X80233Y15407D01*
G37*
G36*
X100436Y15505D02*
X100436Y15505D01*
X100440Y15502D01*
X100940Y15602D01*
X100946Y15609D01*
X100952Y15606D01*
X101352Y15806D01*
X101353Y15809D01*
X101355Y15808D01*
X101855Y16108D01*
X101860Y16120D01*
X101869Y16120D01*
X102469Y16920D01*
X102469Y16936D01*
X102478Y16940D01*
X102678Y17940D01*
X102674Y17949D01*
X102675Y17950D01*
X102672Y17953D01*
X102678Y17960D01*
X102478Y18960D01*
X102467Y18970D01*
X102469Y18980D01*
X102169Y19380D01*
X102164Y19381D01*
X102165Y19385D01*
X101765Y19785D01*
X101760Y19786D01*
X101760Y19789D01*
X101360Y20089D01*
X101350Y20089D01*
X101348Y20096D01*
X100848Y20296D01*
X100843Y20294D01*
X100842Y20298D01*
X100442Y20398D01*
X100434Y20394D01*
X100430Y20399D01*
X99888Y20399D01*
X99974Y20913D01*
X100238Y21001D01*
X101830Y21001D01*
X101843Y21010D01*
X101852Y21006D01*
X102252Y21206D01*
X102262Y21226D01*
X102274Y21228D01*
X102474Y21628D01*
X102472Y21640D01*
X102477Y21644D01*
X102475Y21647D01*
X102479Y21650D01*
X102479Y22250D01*
X102470Y22263D01*
X102474Y22272D01*
X102274Y22672D01*
X102254Y22682D01*
X102252Y22694D01*
X101852Y22894D01*
X101836Y22891D01*
X101830Y22899D01*
X99230Y22899D01*
X99219Y22891D01*
X99212Y22896D01*
X98712Y22696D01*
X98702Y22680D01*
X98691Y22680D01*
X98391Y22280D01*
X98391Y22268D01*
X98383Y22266D01*
X98283Y21966D01*
X98285Y21959D01*
X98281Y21957D01*
X97881Y19057D01*
X97889Y19043D01*
X97883Y19034D01*
X97983Y18734D01*
X98000Y18723D01*
X98000Y18711D01*
X98400Y18411D01*
X98410Y18411D01*
X98412Y18404D01*
X98912Y18204D01*
X98931Y18209D01*
X98940Y18202D01*
X99440Y18302D01*
X99446Y18309D01*
X99452Y18306D01*
X99846Y18503D01*
X100318Y18597D01*
X100685Y18322D01*
X100778Y17857D01*
X100593Y17487D01*
X100218Y17299D01*
X99650Y17299D01*
X99265Y17685D01*
X99245Y17688D01*
X99240Y17698D01*
X98740Y17798D01*
X98726Y17792D01*
X98718Y17798D01*
X98318Y17698D01*
X98304Y17680D01*
X98292Y17681D01*
X97892Y17181D01*
X97891Y17166D01*
X97882Y17162D01*
X97782Y16762D01*
X97792Y16740D01*
X97786Y16728D01*
X97986Y16328D01*
X97996Y16323D01*
X97995Y16315D01*
X98395Y15915D01*
X98409Y15913D01*
X98412Y15904D01*
X99412Y15504D01*
X99425Y15508D01*
X99430Y15501D01*
X100430Y15501D01*
X100436Y15505D01*
G37*
G36*
X52136Y4075D02*
X52136Y4075D01*
X52140Y4072D01*
X52640Y4172D01*
X52646Y4179D01*
X52652Y4176D01*
X53052Y4376D01*
X53055Y4382D01*
X53060Y4381D01*
X53460Y4681D01*
X53461Y4686D01*
X53465Y4685D01*
X53865Y5085D01*
X53866Y5097D01*
X53874Y5098D01*
X54074Y5498D01*
X54073Y5501D01*
X54076Y5502D01*
X54276Y6002D01*
X54272Y6015D01*
X54279Y6020D01*
X54279Y7020D01*
X54271Y7031D01*
X54276Y7038D01*
X54076Y7538D01*
X54073Y7540D01*
X54074Y7542D01*
X53874Y7942D01*
X53864Y7947D01*
X53865Y7955D01*
X53465Y8355D01*
X53460Y8356D01*
X53460Y8359D01*
X53060Y8659D01*
X53050Y8659D01*
X53048Y8666D01*
X52548Y8866D01*
X52542Y8864D01*
X52540Y8868D01*
X52040Y8968D01*
X52033Y8965D01*
X52030Y8969D01*
X51579Y8969D01*
X51579Y9482D01*
X51936Y9571D01*
X53430Y9571D01*
X53441Y9579D01*
X53448Y9574D01*
X53948Y9774D01*
X53961Y9796D01*
X53974Y9798D01*
X54174Y10198D01*
X54172Y10210D01*
X54176Y10214D01*
X54171Y10220D01*
X54179Y10228D01*
X54079Y10828D01*
X54076Y10830D01*
X54078Y10832D01*
X53978Y11232D01*
X53952Y11253D01*
X53948Y11266D01*
X53448Y11466D01*
X53435Y11462D01*
X53430Y11469D01*
X50830Y11469D01*
X50819Y11461D01*
X50812Y11466D01*
X50312Y11266D01*
X50302Y11250D01*
X50291Y11250D01*
X49991Y10850D01*
X49991Y10838D01*
X49983Y10836D01*
X49883Y10536D01*
X49886Y10528D01*
X49881Y10525D01*
X49581Y7625D01*
X49589Y7612D01*
X49583Y7604D01*
X49683Y7304D01*
X49700Y7293D01*
X49700Y7281D01*
X50100Y6981D01*
X50110Y6981D01*
X50112Y6974D01*
X50612Y6774D01*
X50631Y6780D01*
X50633Y6780D01*
X50642Y6772D01*
X51042Y6872D01*
X51047Y6878D01*
X51052Y6876D01*
X51445Y7073D01*
X52017Y7168D01*
X52385Y6892D01*
X52478Y6427D01*
X52294Y6059D01*
X51821Y5869D01*
X51250Y5869D01*
X50865Y6255D01*
X50846Y6257D01*
X50842Y6268D01*
X50442Y6368D01*
X50426Y6361D01*
X50418Y6368D01*
X50018Y6268D01*
X50004Y6250D01*
X49992Y6251D01*
X49592Y5751D01*
X49591Y5736D01*
X49582Y5732D01*
X49482Y5332D01*
X49492Y5310D01*
X49486Y5298D01*
X49686Y4898D01*
X49696Y4893D01*
X49695Y4885D01*
X50095Y4485D01*
X50107Y4484D01*
X50108Y4476D01*
X50508Y4276D01*
X50511Y4277D01*
X50512Y4274D01*
X51012Y4074D01*
X51025Y4078D01*
X51030Y4071D01*
X52130Y4071D01*
X52136Y4075D01*
G37*
G36*
X199496Y53735D02*
X199496Y53735D01*
X199500Y53732D01*
X200500Y53932D01*
X200506Y53939D01*
X200512Y53936D01*
X200912Y54136D01*
X200913Y54139D01*
X200915Y54138D01*
X201415Y54438D01*
X201417Y54441D01*
X201420Y54441D01*
X201820Y54741D01*
X201822Y54750D01*
X201829Y54750D01*
X202429Y55550D01*
X202429Y55557D01*
X202434Y55558D01*
X202634Y55958D01*
X202633Y55961D01*
X202636Y55962D01*
X202836Y56462D01*
X202834Y56468D01*
X202838Y56470D01*
X203038Y57470D01*
X203032Y57483D01*
X203038Y57490D01*
X202838Y58490D01*
X202833Y58494D01*
X202836Y58498D01*
X202636Y58998D01*
X202633Y59000D01*
X202634Y59002D01*
X202434Y59402D01*
X202428Y59405D01*
X202429Y59410D01*
X202129Y59810D01*
X202105Y59816D01*
X202100Y59828D01*
X201600Y59928D01*
X201582Y59920D01*
X201572Y59926D01*
X201072Y59726D01*
X201064Y59714D01*
X201055Y59715D01*
X200655Y59315D01*
X200652Y59288D01*
X200641Y59280D01*
X200641Y58880D01*
X200652Y58865D01*
X200648Y58855D01*
X200947Y58357D01*
X201141Y57968D01*
X201141Y56989D01*
X200947Y56504D01*
X200655Y56115D01*
X200266Y55823D01*
X199776Y55627D01*
X199290Y55530D01*
X198804Y55627D01*
X198314Y55823D01*
X197925Y56115D01*
X197633Y56504D01*
X197439Y56989D01*
X197439Y57968D01*
X197633Y58357D01*
X197932Y58855D01*
X197930Y58873D01*
X197939Y58880D01*
X197939Y59180D01*
X197923Y59201D01*
X197925Y59215D01*
X197525Y59615D01*
X197516Y59616D01*
X197515Y59622D01*
X197015Y59922D01*
X196997Y59920D01*
X196990Y59929D01*
X196590Y59929D01*
X196564Y59910D01*
X196551Y59910D01*
X195951Y59110D01*
X195951Y59100D01*
X195944Y59098D01*
X195744Y58598D01*
X195746Y58592D01*
X195742Y58590D01*
X195542Y57590D01*
X195548Y57577D01*
X195542Y57570D01*
X195641Y57075D01*
X195641Y56580D01*
X195649Y56569D01*
X195644Y56562D01*
X195844Y56062D01*
X195847Y56060D01*
X195846Y56058D01*
X196046Y55658D01*
X196049Y55657D01*
X196048Y55655D01*
X196348Y55155D01*
X196351Y55153D01*
X196351Y55150D01*
X196651Y54750D01*
X196660Y54748D01*
X196660Y54741D01*
X197060Y54441D01*
X197067Y54441D01*
X197068Y54436D01*
X197467Y54237D01*
X197965Y53938D01*
X197975Y53939D01*
X197978Y53932D01*
X198378Y53832D01*
X198380Y53833D01*
X198380Y53832D01*
X198880Y53732D01*
X198887Y53735D01*
X198890Y53731D01*
X199490Y53731D01*
X199496Y53735D01*
G37*
G36*
X71920Y198382D02*
X71920Y198382D01*
X71930Y198393D01*
X71940Y198391D01*
X72340Y198691D01*
X72344Y198707D01*
X72348Y198710D01*
X72356Y198712D01*
X72555Y199210D01*
X75054Y204208D01*
X75052Y204217D01*
X75058Y204220D01*
X75158Y204720D01*
X75152Y204734D01*
X75158Y204742D01*
X75058Y205142D01*
X75040Y205157D01*
X75040Y205169D01*
X74640Y205469D01*
X74630Y205469D01*
X74628Y205476D01*
X74128Y205676D01*
X74103Y205669D01*
X74092Y205676D01*
X73592Y205476D01*
X73578Y205453D01*
X73565Y205450D01*
X71495Y200915D01*
X71451Y200958D01*
X69655Y204950D01*
X69650Y204953D01*
X69651Y204957D01*
X69451Y205257D01*
X69440Y205261D01*
X69440Y205269D01*
X69040Y205569D01*
X69023Y205569D01*
X69023Y205570D01*
X69017Y205570D01*
X69010Y205579D01*
X68610Y205579D01*
X68597Y205570D01*
X68588Y205574D01*
X67988Y205274D01*
X67978Y205254D01*
X67966Y205252D01*
X67766Y204852D01*
X67767Y204847D01*
X67763Y204844D01*
X67769Y204837D01*
X67770Y204828D01*
X67762Y204818D01*
X67862Y204418D01*
X67868Y204413D01*
X67866Y204408D01*
X70566Y198908D01*
X70572Y198905D01*
X70571Y198900D01*
X70871Y198500D01*
X70889Y198495D01*
X70892Y198484D01*
X71392Y198284D01*
X71411Y198290D01*
X71420Y198282D01*
X71920Y198382D01*
G37*
G36*
X43820Y198382D02*
X43820Y198382D01*
X43830Y198393D01*
X43840Y198391D01*
X44240Y198691D01*
X44244Y198707D01*
X44248Y198710D01*
X44256Y198712D01*
X44455Y199210D01*
X46954Y204208D01*
X46952Y204217D01*
X46958Y204220D01*
X47058Y204720D01*
X47052Y204734D01*
X47058Y204742D01*
X46958Y205142D01*
X46940Y205157D01*
X46940Y205169D01*
X46540Y205469D01*
X46530Y205469D01*
X46528Y205476D01*
X46028Y205676D01*
X46003Y205669D01*
X45992Y205676D01*
X45492Y205476D01*
X45478Y205453D01*
X45465Y205450D01*
X43395Y200915D01*
X43351Y200958D01*
X41555Y204950D01*
X41550Y204953D01*
X41551Y204957D01*
X41351Y205257D01*
X41340Y205261D01*
X41340Y205269D01*
X40940Y205569D01*
X40923Y205569D01*
X40923Y205570D01*
X40917Y205570D01*
X40910Y205579D01*
X40510Y205579D01*
X40497Y205570D01*
X40488Y205574D01*
X39888Y205274D01*
X39878Y205254D01*
X39866Y205252D01*
X39666Y204852D01*
X39667Y204847D01*
X39663Y204844D01*
X39669Y204837D01*
X39670Y204828D01*
X39662Y204818D01*
X39762Y204418D01*
X39768Y204413D01*
X39766Y204408D01*
X42466Y198908D01*
X42472Y198905D01*
X42471Y198900D01*
X42771Y198500D01*
X42789Y198495D01*
X42792Y198484D01*
X43292Y198284D01*
X43311Y198290D01*
X43320Y198282D01*
X43820Y198382D01*
G37*
G36*
X122640Y15502D02*
X122640Y15502D01*
X122650Y15513D01*
X122660Y15511D01*
X123060Y15811D01*
X123064Y15827D01*
X123068Y15830D01*
X123076Y15832D01*
X123275Y16330D01*
X125774Y21328D01*
X125772Y21337D01*
X125778Y21340D01*
X125878Y21840D01*
X125872Y21854D01*
X125878Y21862D01*
X125778Y22262D01*
X125760Y22277D01*
X125760Y22289D01*
X125360Y22589D01*
X125350Y22589D01*
X125348Y22596D01*
X124848Y22796D01*
X124823Y22789D01*
X124812Y22796D01*
X124312Y22596D01*
X124298Y22573D01*
X124285Y22570D01*
X122215Y18035D01*
X122171Y18078D01*
X120375Y22070D01*
X120370Y22073D01*
X120371Y22077D01*
X120171Y22377D01*
X120160Y22381D01*
X120160Y22389D01*
X119760Y22689D01*
X119743Y22689D01*
X119743Y22690D01*
X119737Y22690D01*
X119730Y22699D01*
X119330Y22699D01*
X119317Y22690D01*
X119308Y22694D01*
X118708Y22394D01*
X118698Y22374D01*
X118686Y22372D01*
X118486Y21972D01*
X118487Y21967D01*
X118483Y21964D01*
X118489Y21957D01*
X118490Y21948D01*
X118482Y21938D01*
X118582Y21538D01*
X118588Y21533D01*
X118586Y21528D01*
X121286Y16028D01*
X121292Y16025D01*
X121291Y16020D01*
X121591Y15620D01*
X121609Y15615D01*
X121612Y15604D01*
X122112Y15404D01*
X122131Y15410D01*
X122140Y15402D01*
X122640Y15502D01*
G37*
G36*
X129640Y4072D02*
X129640Y4072D01*
X129644Y4077D01*
X129648Y4074D01*
X130148Y4274D01*
X130153Y4282D01*
X130160Y4281D01*
X130512Y4545D01*
X130686Y4198D01*
X130713Y4185D01*
X130718Y4172D01*
X131118Y4072D01*
X131126Y4076D01*
X131130Y4071D01*
X131730Y4071D01*
X131743Y4080D01*
X131752Y4076D01*
X132152Y4276D01*
X132163Y4298D01*
X132168Y4302D01*
X132166Y4305D01*
X132171Y4313D01*
X132179Y4320D01*
X132179Y4819D01*
X132279Y7918D01*
X132279Y7919D01*
X132279Y7920D01*
X132279Y8420D01*
X132275Y8426D01*
X132278Y8430D01*
X132178Y8930D01*
X132155Y8951D01*
X132152Y8964D01*
X131752Y9164D01*
X131742Y9162D01*
X131738Y9169D01*
X131138Y9269D01*
X131121Y9260D01*
X131112Y9266D01*
X130612Y9066D01*
X130599Y9044D01*
X130586Y9042D01*
X130449Y8768D01*
X130060Y9059D01*
X130050Y9059D01*
X130048Y9066D01*
X129548Y9266D01*
X129535Y9262D01*
X129530Y9269D01*
X129030Y9269D01*
X129019Y9261D01*
X129012Y9266D01*
X128512Y9066D01*
X128510Y9063D01*
X128508Y9064D01*
X128108Y8864D01*
X128103Y8854D01*
X128095Y8855D01*
X127695Y8455D01*
X127694Y8450D01*
X127691Y8450D01*
X127391Y8050D01*
X127391Y8046D01*
X127388Y8045D01*
X127088Y7545D01*
X127089Y7535D01*
X127087Y7534D01*
X127082Y7532D01*
X126982Y7132D01*
X126986Y7124D01*
X126981Y7120D01*
X126981Y6120D01*
X126989Y6109D01*
X126984Y6102D01*
X127384Y5102D01*
X127396Y5094D01*
X127395Y5085D01*
X127795Y4685D01*
X127800Y4684D01*
X127800Y4681D01*
X128600Y4081D01*
X128616Y4081D01*
X128620Y4072D01*
X129120Y3972D01*
X129133Y3978D01*
X129140Y3972D01*
X129640Y4072D01*
G37*
G36*
X142236Y4075D02*
X142236Y4075D01*
X142240Y4072D01*
X142740Y4172D01*
X142744Y4177D01*
X142748Y4174D01*
X143248Y4374D01*
X143250Y4377D01*
X143252Y4376D01*
X143652Y4576D01*
X143657Y4586D01*
X143665Y4585D01*
X144065Y4985D01*
X144066Y4990D01*
X144069Y4990D01*
X144369Y5390D01*
X144369Y5400D01*
X144376Y5402D01*
X144576Y5902D01*
X144574Y5908D01*
X144578Y5910D01*
X144678Y6410D01*
X144675Y6417D01*
X144679Y6420D01*
X144679Y6920D01*
X144676Y6925D01*
X144679Y6928D01*
X144579Y7528D01*
X144571Y7535D01*
X144574Y7542D01*
X144174Y8342D01*
X144164Y8347D01*
X144165Y8355D01*
X143765Y8755D01*
X143760Y8756D01*
X143760Y8759D01*
X143360Y9059D01*
X143353Y9059D01*
X143352Y9064D01*
X142952Y9264D01*
X142943Y9262D01*
X142940Y9268D01*
X141940Y9468D01*
X141928Y9463D01*
X141922Y9469D01*
X141322Y9369D01*
X141320Y9366D01*
X141318Y9368D01*
X140918Y9268D01*
X140911Y9260D01*
X140905Y9262D01*
X140405Y8962D01*
X140403Y8959D01*
X140400Y8959D01*
X140000Y8659D01*
X139999Y8654D01*
X139995Y8655D01*
X139295Y7955D01*
X139292Y7933D01*
X139283Y7926D01*
X139285Y7923D01*
X139281Y7920D01*
X139281Y6320D01*
X139285Y6314D01*
X139282Y6310D01*
X139382Y5810D01*
X139387Y5806D01*
X139384Y5802D01*
X139584Y5302D01*
X139596Y5294D01*
X139595Y5285D01*
X140295Y4585D01*
X140304Y4584D01*
X140305Y4578D01*
X140805Y4278D01*
X140811Y4278D01*
X140812Y4274D01*
X141312Y4074D01*
X141325Y4078D01*
X141330Y4071D01*
X142230Y4071D01*
X142236Y4075D01*
G37*
G36*
X59840Y4072D02*
X59840Y4072D01*
X59850Y4083D01*
X59860Y4081D01*
X60260Y4381D01*
X60264Y4397D01*
X60268Y4400D01*
X60276Y4402D01*
X60475Y4900D01*
X62974Y9898D01*
X62973Y9901D01*
X62976Y9902D01*
X63176Y10402D01*
X63174Y10407D01*
X63177Y10409D01*
X63172Y10416D01*
X63170Y10422D01*
X63178Y10432D01*
X63078Y10832D01*
X63057Y10849D01*
X63055Y10862D01*
X62555Y11162D01*
X62549Y11162D01*
X62548Y11166D01*
X62048Y11366D01*
X62021Y11358D01*
X62020Y11358D01*
X62008Y11364D01*
X61608Y11164D01*
X61598Y11144D01*
X61586Y11141D01*
X59416Y6604D01*
X59371Y6648D01*
X57575Y10640D01*
X57570Y10643D01*
X57571Y10647D01*
X57371Y10947D01*
X57364Y10950D01*
X57365Y10955D01*
X57065Y11255D01*
X57041Y11258D01*
X57040Y11260D01*
X57037Y11260D01*
X57030Y11269D01*
X56530Y11269D01*
X56517Y11260D01*
X56514Y11260D01*
X56513Y11259D01*
X56505Y11262D01*
X56005Y10962D01*
X55997Y10944D01*
X55986Y10942D01*
X55786Y10542D01*
X55787Y10537D01*
X55783Y10534D01*
X55789Y10527D01*
X55790Y10518D01*
X55782Y10508D01*
X55882Y10108D01*
X55888Y10103D01*
X55886Y10098D01*
X58586Y4598D01*
X58592Y4595D01*
X58591Y4590D01*
X58891Y4190D01*
X58906Y4186D01*
X58908Y4176D01*
X59308Y3976D01*
X59330Y3980D01*
X59340Y3972D01*
X59840Y4072D01*
G37*
%LPC*%
G36*
X226715Y68944D02*
X226715Y68944D01*
X226331Y69329D01*
X226142Y69706D01*
X226235Y70078D01*
X226529Y70470D01*
X226529Y70478D01*
X226534Y70482D01*
X226530Y70487D01*
X226539Y70492D01*
X226639Y71092D01*
X226633Y71103D01*
X226638Y71110D01*
X226538Y71610D01*
X226515Y71631D01*
X226512Y71644D01*
X226112Y71844D01*
X226096Y71841D01*
X226090Y71849D01*
X225590Y71849D01*
X225564Y71830D01*
X225551Y71830D01*
X225251Y71430D01*
X225251Y71414D01*
X225242Y71410D01*
X225142Y70910D01*
X225154Y70884D01*
X225151Y70870D01*
X225444Y70479D01*
X225540Y70000D01*
X225443Y69518D01*
X225158Y69043D01*
X224787Y68950D01*
X221803Y69348D01*
X221308Y69546D01*
X221286Y69540D01*
X221316Y69558D01*
X221329Y69592D01*
X221333Y69595D01*
X221331Y69598D01*
X221337Y69614D01*
X221331Y69616D01*
X221334Y69622D01*
X221136Y70019D01*
X221039Y70308D01*
X221039Y72295D01*
X221138Y72789D01*
X221232Y73164D01*
X221699Y73351D01*
X222274Y73351D01*
X222646Y73071D01*
X222741Y72694D01*
X222741Y71100D01*
X222750Y71087D01*
X222746Y71078D01*
X222846Y70878D01*
X222883Y70860D01*
X222890Y70851D01*
X223490Y70851D01*
X223537Y70887D01*
X223532Y70894D01*
X223539Y70900D01*
X223539Y71395D01*
X223637Y71884D01*
X223833Y72277D01*
X224127Y72766D01*
X224520Y73061D01*
X224911Y73354D01*
X225400Y73452D01*
X225890Y73550D01*
X226376Y73453D01*
X226870Y73255D01*
X227264Y73058D01*
X227653Y72766D01*
X227947Y72277D01*
X228143Y71884D01*
X228241Y71395D01*
X228241Y70409D01*
X228045Y69920D01*
X227848Y69526D01*
X227556Y69137D01*
X227082Y68853D01*
X226715Y68944D01*
G37*
%LPD*%
G36*
X11520Y198382D02*
X11520Y198382D01*
X11530Y198393D01*
X11540Y198391D01*
X11940Y198691D01*
X11944Y198707D01*
X11948Y198710D01*
X11956Y198712D01*
X12155Y199210D01*
X14654Y204208D01*
X14653Y204211D01*
X14656Y204212D01*
X14856Y204712D01*
X14854Y204717D01*
X14857Y204719D01*
X14852Y204726D01*
X14850Y204732D01*
X14858Y204742D01*
X14758Y205142D01*
X14737Y205159D01*
X14735Y205172D01*
X14235Y205472D01*
X14229Y205472D01*
X14228Y205476D01*
X13728Y205676D01*
X13701Y205668D01*
X13700Y205668D01*
X13688Y205674D01*
X13288Y205474D01*
X13278Y205453D01*
X13265Y205450D01*
X11186Y200897D01*
X11048Y200966D01*
X9255Y204950D01*
X9250Y204953D01*
X9251Y204957D01*
X9051Y205257D01*
X9044Y205260D01*
X9045Y205265D01*
X8745Y205565D01*
X8721Y205568D01*
X8720Y205570D01*
X8717Y205570D01*
X8710Y205579D01*
X8210Y205579D01*
X8197Y205570D01*
X8194Y205570D01*
X8193Y205569D01*
X8185Y205572D01*
X7685Y205272D01*
X7677Y205254D01*
X7666Y205252D01*
X7466Y204852D01*
X7467Y204847D01*
X7463Y204844D01*
X7469Y204837D01*
X7470Y204828D01*
X7462Y204818D01*
X7562Y204418D01*
X7568Y204413D01*
X7566Y204408D01*
X10266Y198908D01*
X10272Y198905D01*
X10271Y198900D01*
X10571Y198500D01*
X10586Y198496D01*
X10588Y198486D01*
X10988Y198286D01*
X11010Y198290D01*
X11020Y198282D01*
X11520Y198382D01*
G37*
G36*
X91251Y4087D02*
X91251Y4087D01*
X91265Y4085D01*
X91665Y4485D01*
X91666Y4494D01*
X91672Y4495D01*
X91972Y4995D01*
X91969Y5021D01*
X91978Y5032D01*
X91878Y5432D01*
X91860Y5447D01*
X91860Y5459D01*
X91461Y5759D01*
X90309Y6718D01*
X91060Y7281D01*
X91061Y7286D01*
X91065Y7285D01*
X91465Y7685D01*
X91466Y7697D01*
X91474Y7698D01*
X91674Y8098D01*
X91667Y8133D01*
X91672Y8145D01*
X91372Y8645D01*
X91364Y8649D01*
X91365Y8655D01*
X90965Y9055D01*
X90938Y9059D01*
X90930Y9069D01*
X90530Y9069D01*
X90515Y9058D01*
X90505Y9062D01*
X90005Y8762D01*
X90001Y8754D01*
X89995Y8755D01*
X89697Y8457D01*
X89201Y8060D01*
X88979Y7912D01*
X88979Y11320D01*
X88963Y11341D01*
X88965Y11355D01*
X88665Y11655D01*
X88644Y11658D01*
X88638Y11669D01*
X88038Y11769D01*
X88023Y11761D01*
X88014Y11767D01*
X87414Y11567D01*
X87399Y11545D01*
X87386Y11542D01*
X87186Y11142D01*
X87188Y11131D01*
X87183Y11127D01*
X87185Y11123D01*
X87181Y11120D01*
X87181Y5020D01*
X87185Y5014D01*
X87182Y5010D01*
X87282Y4510D01*
X87292Y4501D01*
X87289Y4493D01*
X87489Y4193D01*
X87516Y4183D01*
X87522Y4171D01*
X88122Y4071D01*
X88132Y4077D01*
X88138Y4071D01*
X88738Y4171D01*
X88757Y4192D01*
X88771Y4193D01*
X88971Y4493D01*
X88971Y4499D01*
X88973Y4501D01*
X88970Y4505D01*
X88970Y4513D01*
X88979Y4520D01*
X88979Y5552D01*
X89203Y5477D01*
X89995Y4685D01*
X90000Y4684D01*
X90000Y4681D01*
X90800Y4081D01*
X90822Y4081D01*
X90830Y4071D01*
X91230Y4071D01*
X91251Y4087D01*
G37*
G36*
X106636Y4071D02*
X106636Y4071D01*
X106638Y4073D01*
X106640Y4072D01*
X107140Y4172D01*
X107146Y4179D01*
X107152Y4176D01*
X107552Y4376D01*
X107560Y4392D01*
X107571Y4393D01*
X107771Y4693D01*
X107770Y4705D01*
X107778Y4708D01*
X107878Y5108D01*
X107867Y5133D01*
X107872Y5145D01*
X107572Y5645D01*
X107554Y5653D01*
X107552Y5664D01*
X107152Y5864D01*
X107123Y5859D01*
X107112Y5866D01*
X106615Y5667D01*
X106224Y5569D01*
X105639Y5569D01*
X105161Y5761D01*
X104910Y6095D01*
X105146Y6173D01*
X105179Y6222D01*
X105182Y6208D01*
X105229Y6171D01*
X105229Y6172D01*
X105230Y6171D01*
X107230Y6171D01*
X107241Y6179D01*
X107248Y6174D01*
X107748Y6374D01*
X107756Y6386D01*
X107765Y6385D01*
X108065Y6685D01*
X108068Y6708D01*
X108077Y6715D01*
X108076Y6717D01*
X108079Y6720D01*
X108079Y7820D01*
X108071Y7831D01*
X108076Y7838D01*
X107876Y8338D01*
X107868Y8343D01*
X107869Y8350D01*
X107569Y8750D01*
X107560Y8752D01*
X107560Y8759D01*
X107160Y9059D01*
X107153Y9059D01*
X107152Y9064D01*
X106752Y9264D01*
X106743Y9262D01*
X106740Y9268D01*
X106240Y9368D01*
X106239Y9368D01*
X106238Y9369D01*
X105638Y9469D01*
X105627Y9463D01*
X105620Y9468D01*
X104620Y9268D01*
X104614Y9261D01*
X104608Y9264D01*
X104208Y9064D01*
X104205Y9058D01*
X104200Y9059D01*
X103800Y8759D01*
X103799Y8754D01*
X103795Y8755D01*
X103395Y8355D01*
X103394Y8343D01*
X103386Y8342D01*
X103186Y7942D01*
X103187Y7939D01*
X103184Y7938D01*
X102984Y7438D01*
X102985Y7434D01*
X102982Y7432D01*
X102983Y7430D01*
X102982Y7430D01*
X102882Y6930D01*
X102888Y6917D01*
X102882Y6910D01*
X103182Y5410D01*
X103193Y5400D01*
X103191Y5390D01*
X103791Y4590D01*
X103804Y4587D01*
X103805Y4578D01*
X104305Y4278D01*
X104317Y4279D01*
X104320Y4272D01*
X104819Y4172D01*
X105218Y4072D01*
X105221Y4073D01*
X105222Y4071D01*
X105822Y3971D01*
X105831Y3976D01*
X105836Y3971D01*
X106636Y4071D01*
G37*
%LPC*%
G36*
X221839Y75097D02*
X221839Y75097D01*
X221823Y75121D01*
X221825Y75135D01*
X221529Y75431D01*
X221239Y75914D01*
X221239Y76380D01*
X221519Y76659D01*
X221912Y76856D01*
X225811Y78655D01*
X225831Y78694D01*
X225839Y78700D01*
X225839Y78800D01*
X225813Y78835D01*
X225811Y78845D01*
X222111Y80545D01*
X222109Y80544D01*
X222108Y80546D01*
X221614Y80743D01*
X221239Y81025D01*
X221239Y81492D01*
X221334Y81776D01*
X221719Y82258D01*
X221988Y82348D01*
X222470Y82155D01*
X227467Y79757D01*
X227956Y79463D01*
X228244Y79079D01*
X228338Y78607D01*
X228152Y78235D01*
X227667Y77943D01*
X222273Y75246D01*
X221878Y75148D01*
X221847Y75109D01*
X221841Y75106D01*
X221838Y75081D01*
X221839Y75097D01*
G37*
%LPD*%
G36*
X196911Y77847D02*
X196911Y77847D01*
X196925Y77845D01*
X197225Y78145D01*
X197227Y78157D01*
X197233Y78162D01*
X197228Y78169D01*
X197229Y78172D01*
X197239Y78180D01*
X197239Y80254D01*
X197505Y80431D01*
X202590Y80431D01*
X202616Y80450D01*
X202629Y80450D01*
X202929Y80850D01*
X202929Y80864D01*
X202938Y80871D01*
X202939Y80872D01*
X203039Y81472D01*
X203029Y81491D01*
X203034Y81502D01*
X202834Y81902D01*
X202814Y81912D01*
X202812Y81924D01*
X202412Y82124D01*
X202403Y82122D01*
X202400Y82128D01*
X201900Y82228D01*
X201893Y82225D01*
X201890Y82229D01*
X197328Y82229D01*
X197239Y82586D01*
X197239Y84180D01*
X197230Y84193D01*
X197234Y84202D01*
X197034Y84602D01*
X197006Y84616D01*
X197000Y84628D01*
X196500Y84728D01*
X196494Y84726D01*
X196493Y84726D01*
X196490Y84729D01*
X195990Y84729D01*
X195957Y84704D01*
X195946Y84702D01*
X195746Y84302D01*
X195747Y84298D01*
X195744Y84296D01*
X195748Y84290D01*
X195749Y84286D01*
X195741Y84280D01*
X195741Y78580D01*
X195745Y78574D01*
X195742Y78570D01*
X195842Y78070D01*
X195865Y78049D01*
X195868Y78036D01*
X196268Y77836D01*
X196284Y77839D01*
X196290Y77831D01*
X196890Y77831D01*
X196911Y77847D01*
G37*
G36*
X207071Y82377D02*
X207071Y82377D01*
X207085Y82375D01*
X207385Y82675D01*
X207387Y82687D01*
X207393Y82692D01*
X207388Y82699D01*
X207389Y82702D01*
X207399Y82710D01*
X207399Y84784D01*
X207665Y84961D01*
X212750Y84961D01*
X212776Y84980D01*
X212789Y84980D01*
X213089Y85380D01*
X213089Y85394D01*
X213098Y85401D01*
X213099Y85402D01*
X213199Y86002D01*
X213189Y86021D01*
X213194Y86032D01*
X212994Y86432D01*
X212974Y86442D01*
X212972Y86454D01*
X212572Y86654D01*
X212563Y86652D01*
X212560Y86658D01*
X212060Y86758D01*
X212053Y86755D01*
X212050Y86759D01*
X207488Y86759D01*
X207399Y87116D01*
X207399Y88710D01*
X207390Y88723D01*
X207394Y88732D01*
X207194Y89132D01*
X207166Y89146D01*
X207160Y89158D01*
X206660Y89258D01*
X206654Y89256D01*
X206653Y89256D01*
X206650Y89259D01*
X206150Y89259D01*
X206117Y89234D01*
X206106Y89232D01*
X205906Y88832D01*
X205907Y88828D01*
X205904Y88826D01*
X205908Y88820D01*
X205909Y88816D01*
X205901Y88810D01*
X205901Y83110D01*
X205905Y83104D01*
X205902Y83100D01*
X206002Y82600D01*
X206025Y82579D01*
X206028Y82566D01*
X206428Y82366D01*
X206444Y82369D01*
X206450Y82361D01*
X207050Y82361D01*
X207071Y82377D01*
G37*
%LPC*%
G36*
X73479Y170599D02*
X73479Y170599D01*
X73004Y170790D01*
X72719Y171264D01*
X72719Y172136D01*
X73003Y172609D01*
X73578Y172801D01*
X81066Y172801D01*
X81646Y172704D01*
X82023Y172327D01*
X82120Y171550D01*
X82024Y170877D01*
X81654Y170599D01*
X73479Y170599D01*
G37*
%LPD*%
G36*
X79338Y4071D02*
X79338Y4071D01*
X79353Y4087D01*
X79365Y4085D01*
X79665Y4385D01*
X79666Y4397D01*
X79671Y4401D01*
X79668Y4405D01*
X79678Y4410D01*
X79778Y4910D01*
X79775Y4917D01*
X79779Y4920D01*
X79779Y8520D01*
X79774Y8527D01*
X79778Y8532D01*
X79678Y8932D01*
X79655Y8951D01*
X79652Y8964D01*
X79252Y9164D01*
X79241Y9162D01*
X79237Y9169D01*
X78537Y9269D01*
X78519Y9259D01*
X78508Y9264D01*
X78108Y9064D01*
X78094Y9036D01*
X78082Y9030D01*
X77982Y8530D01*
X77984Y8525D01*
X77981Y8522D01*
X77881Y6531D01*
X77691Y6056D01*
X77318Y5869D01*
X76846Y5869D01*
X76469Y6152D01*
X76279Y6532D01*
X76279Y8620D01*
X76274Y8627D01*
X76278Y8632D01*
X76178Y9032D01*
X76152Y9053D01*
X76148Y9066D01*
X75648Y9266D01*
X75631Y9261D01*
X75623Y9269D01*
X74923Y9169D01*
X74912Y9158D01*
X74903Y9161D01*
X74603Y8961D01*
X74594Y8936D01*
X74582Y8930D01*
X74482Y8430D01*
X74486Y8422D01*
X74481Y8418D01*
X74581Y6319D01*
X74581Y5820D01*
X74590Y5807D01*
X74586Y5798D01*
X74786Y5398D01*
X74789Y5397D01*
X74788Y5395D01*
X75088Y4895D01*
X75091Y4893D01*
X75091Y4890D01*
X75391Y4490D01*
X75406Y4486D01*
X75408Y4476D01*
X75808Y4276D01*
X75811Y4277D01*
X75812Y4274D01*
X76312Y4074D01*
X76318Y4076D01*
X76320Y4072D01*
X76820Y3972D01*
X76838Y3980D01*
X76848Y3974D01*
X77348Y4174D01*
X77350Y4177D01*
X77352Y4176D01*
X77749Y4374D01*
X78010Y4461D01*
X78189Y4193D01*
X78209Y4186D01*
X78212Y4174D01*
X78712Y3974D01*
X78730Y3979D01*
X78738Y3971D01*
X79338Y4071D01*
G37*
G36*
X106438Y15501D02*
X106438Y15501D01*
X106445Y15509D01*
X106452Y15506D01*
X106852Y15706D01*
X106863Y15728D01*
X106868Y15732D01*
X106866Y15735D01*
X106868Y15738D01*
X106879Y15745D01*
X106979Y16641D01*
X107077Y17035D01*
X107274Y17528D01*
X107572Y18024D01*
X108672Y19824D01*
X108672Y19828D01*
X108674Y19828D01*
X108874Y20228D01*
X108873Y20231D01*
X108876Y20232D01*
X109276Y21232D01*
X109274Y21238D01*
X109278Y21240D01*
X109378Y21740D01*
X109372Y21753D01*
X109378Y21760D01*
X109278Y22260D01*
X109268Y22269D01*
X109271Y22277D01*
X109071Y22577D01*
X109044Y22587D01*
X109038Y22599D01*
X108438Y22699D01*
X108433Y22696D01*
X108430Y22699D01*
X104930Y22699D01*
X104924Y22695D01*
X104920Y22698D01*
X104420Y22598D01*
X104404Y22580D01*
X104391Y22580D01*
X104091Y22180D01*
X104091Y22167D01*
X104083Y22161D01*
X104087Y22155D01*
X104081Y22150D01*
X104081Y21650D01*
X104085Y21644D01*
X104082Y21640D01*
X104182Y21140D01*
X104205Y21119D01*
X104208Y21106D01*
X104608Y20906D01*
X104624Y20909D01*
X104630Y20901D01*
X107067Y20901D01*
X106985Y20572D01*
X106391Y19780D01*
X106391Y19770D01*
X106384Y19768D01*
X106186Y19272D01*
X105688Y18476D01*
X105689Y18470D01*
X105687Y18469D01*
X105684Y18468D01*
X105284Y17468D01*
X105286Y17462D01*
X105282Y17460D01*
X105082Y16460D01*
X105085Y16453D01*
X105081Y16450D01*
X105081Y15950D01*
X105090Y15937D01*
X105086Y15928D01*
X105286Y15528D01*
X105314Y15514D01*
X105320Y15502D01*
X105820Y15402D01*
X105832Y15407D01*
X105838Y15401D01*
X106438Y15501D01*
G37*
G36*
X134938Y15501D02*
X134938Y15501D01*
X134948Y15512D01*
X134957Y15509D01*
X135257Y15709D01*
X135263Y15727D01*
X135271Y15732D01*
X135269Y15735D01*
X135278Y15739D01*
X135478Y16638D01*
X135577Y17035D01*
X135774Y17528D01*
X136072Y18024D01*
X137172Y19824D01*
X137172Y19828D01*
X137174Y19828D01*
X137374Y20228D01*
X137373Y20231D01*
X137376Y20232D01*
X137776Y21232D01*
X137774Y21238D01*
X137778Y21240D01*
X137878Y21740D01*
X137872Y21753D01*
X137878Y21760D01*
X137778Y22260D01*
X137763Y22273D01*
X137765Y22285D01*
X137465Y22585D01*
X137445Y22588D01*
X137440Y22598D01*
X136940Y22698D01*
X136933Y22695D01*
X136930Y22699D01*
X133430Y22699D01*
X133424Y22695D01*
X133420Y22698D01*
X132920Y22598D01*
X132904Y22580D01*
X132891Y22580D01*
X132591Y22180D01*
X132591Y22167D01*
X132583Y22161D01*
X132587Y22155D01*
X132581Y22150D01*
X132581Y21650D01*
X132585Y21644D01*
X132582Y21640D01*
X132682Y21140D01*
X132705Y21119D01*
X132708Y21106D01*
X133108Y20906D01*
X133124Y20909D01*
X133130Y20901D01*
X135567Y20901D01*
X135485Y20572D01*
X134891Y19780D01*
X134891Y19770D01*
X134884Y19768D01*
X134686Y19272D01*
X134188Y18476D01*
X134189Y18470D01*
X134187Y18469D01*
X134184Y18468D01*
X133784Y17468D01*
X133786Y17462D01*
X133782Y17460D01*
X133582Y16460D01*
X133585Y16453D01*
X133581Y16450D01*
X133581Y15950D01*
X133590Y15937D01*
X133586Y15928D01*
X133786Y15528D01*
X133814Y15514D01*
X133820Y15502D01*
X134320Y15402D01*
X134332Y15407D01*
X134338Y15401D01*
X134938Y15501D01*
G37*
G36*
X121138Y4071D02*
X121138Y4071D01*
X121153Y4087D01*
X121165Y4085D01*
X121465Y4385D01*
X121466Y4397D01*
X121471Y4401D01*
X121468Y4406D01*
X121469Y4412D01*
X121479Y4420D01*
X121479Y8520D01*
X121474Y8527D01*
X121478Y8532D01*
X121378Y8932D01*
X121355Y8951D01*
X121352Y8964D01*
X120952Y9164D01*
X120942Y9162D01*
X120938Y9169D01*
X120338Y9269D01*
X120319Y9259D01*
X120308Y9264D01*
X119908Y9064D01*
X119897Y9042D01*
X119884Y9038D01*
X119684Y8538D01*
X119688Y8525D01*
X119681Y8520D01*
X119681Y6529D01*
X119491Y6056D01*
X119118Y5869D01*
X118546Y5869D01*
X118174Y6149D01*
X118079Y6526D01*
X118079Y8620D01*
X118070Y8633D01*
X118074Y8642D01*
X117874Y9042D01*
X117852Y9053D01*
X117848Y9066D01*
X117348Y9266D01*
X117330Y9261D01*
X117322Y9269D01*
X116722Y9169D01*
X116712Y9158D01*
X116703Y9161D01*
X116403Y8961D01*
X116394Y8936D01*
X116382Y8930D01*
X116282Y8430D01*
X116285Y8423D01*
X116281Y8420D01*
X116281Y6320D01*
X116285Y6314D01*
X116282Y6310D01*
X116382Y5810D01*
X116389Y5804D01*
X116386Y5798D01*
X116585Y5400D01*
X116784Y4902D01*
X116796Y4894D01*
X116795Y4885D01*
X117195Y4485D01*
X117207Y4484D01*
X117208Y4476D01*
X117608Y4276D01*
X117611Y4277D01*
X117612Y4274D01*
X118112Y4074D01*
X118118Y4076D01*
X118120Y4072D01*
X118620Y3972D01*
X118638Y3980D01*
X118648Y3974D01*
X119148Y4174D01*
X119150Y4177D01*
X119152Y4176D01*
X119713Y4457D01*
X119889Y4193D01*
X119910Y4185D01*
X119914Y4173D01*
X120514Y3973D01*
X120530Y3979D01*
X120538Y3971D01*
X121138Y4071D01*
G37*
G36*
X136533Y3977D02*
X136533Y3977D01*
X136540Y3972D01*
X137040Y4072D01*
X137049Y4082D01*
X137057Y4079D01*
X137357Y4279D01*
X137363Y4297D01*
X137371Y4302D01*
X137368Y4306D01*
X137379Y4312D01*
X137479Y4912D01*
X137473Y4922D01*
X137479Y4928D01*
X137379Y5528D01*
X137346Y5559D01*
X137342Y5568D01*
X136942Y5668D01*
X136940Y5667D01*
X136940Y5668D01*
X136463Y5764D01*
X136279Y6132D01*
X136279Y7114D01*
X136366Y7463D01*
X136820Y7372D01*
X136833Y7378D01*
X136840Y7372D01*
X137340Y7472D01*
X137353Y7487D01*
X137365Y7485D01*
X137665Y7785D01*
X137666Y7796D01*
X137670Y7799D01*
X137667Y7802D01*
X137669Y7812D01*
X137679Y7820D01*
X137679Y8420D01*
X137675Y8426D01*
X137678Y8430D01*
X137578Y8930D01*
X137558Y8948D01*
X137557Y8961D01*
X137257Y9161D01*
X137244Y9160D01*
X137240Y9168D01*
X136740Y9268D01*
X136727Y9262D01*
X136720Y9268D01*
X136279Y9180D01*
X136279Y10120D01*
X136275Y10126D01*
X136278Y10130D01*
X136178Y10630D01*
X136163Y10643D01*
X136165Y10655D01*
X135865Y10955D01*
X135840Y10958D01*
X135835Y10964D01*
X135834Y10964D01*
X135830Y10969D01*
X135230Y10969D01*
X135224Y10965D01*
X135220Y10968D01*
X134720Y10868D01*
X134699Y10845D01*
X134686Y10842D01*
X134486Y10442D01*
X134487Y10438D01*
X134484Y10436D01*
X134488Y10430D01*
X134489Y10426D01*
X134481Y10420D01*
X134481Y9440D01*
X134302Y9262D01*
X133812Y9066D01*
X133799Y9044D01*
X133786Y9042D01*
X133586Y8642D01*
X133589Y8626D01*
X133581Y8620D01*
X133581Y8120D01*
X133585Y8114D01*
X133582Y8110D01*
X133682Y7610D01*
X133709Y7586D01*
X133713Y7574D01*
X134481Y7286D01*
X134481Y5720D01*
X134485Y5714D01*
X134482Y5710D01*
X134582Y5210D01*
X134589Y5204D01*
X134586Y5198D01*
X134786Y4798D01*
X134790Y4796D01*
X134789Y4793D01*
X134989Y4493D01*
X135000Y4489D01*
X135000Y4481D01*
X135400Y4181D01*
X135416Y4181D01*
X135420Y4172D01*
X135920Y4072D01*
X135921Y4072D01*
X135922Y4071D01*
X136522Y3971D01*
X136533Y3977D01*
G37*
G36*
X84036Y4075D02*
X84036Y4075D01*
X84040Y4072D01*
X84540Y4172D01*
X84544Y4177D01*
X84548Y4174D01*
X85048Y4374D01*
X85053Y4382D01*
X85060Y4381D01*
X85460Y4681D01*
X85464Y4696D01*
X85474Y4698D01*
X85674Y5098D01*
X85669Y5127D01*
X85676Y5138D01*
X85476Y5638D01*
X85467Y5644D01*
X85468Y5651D01*
X85068Y6151D01*
X85047Y6156D01*
X85042Y6168D01*
X84642Y6268D01*
X84617Y6257D01*
X84605Y6262D01*
X84111Y5966D01*
X83729Y5870D01*
X83251Y5966D01*
X82879Y6245D01*
X82879Y6808D01*
X83069Y7188D01*
X83446Y7471D01*
X83921Y7471D01*
X84410Y7275D01*
X84808Y7076D01*
X84819Y7078D01*
X84822Y7075D01*
X84836Y7075D01*
X84846Y7083D01*
X84849Y7084D01*
X84860Y7081D01*
X85260Y7381D01*
X85263Y7394D01*
X85272Y7395D01*
X85572Y7895D01*
X85572Y7898D01*
X85573Y7899D01*
X85572Y7900D01*
X85571Y7907D01*
X85578Y7910D01*
X85678Y8410D01*
X85666Y8436D01*
X85669Y8450D01*
X85369Y8850D01*
X85351Y8855D01*
X85348Y8866D01*
X84348Y9266D01*
X84342Y9264D01*
X84340Y9268D01*
X83840Y9368D01*
X83833Y9365D01*
X83830Y9369D01*
X83330Y9369D01*
X83319Y9361D01*
X83312Y9366D01*
X82812Y9166D01*
X82810Y9163D01*
X82808Y9164D01*
X82408Y8964D01*
X82407Y8961D01*
X82405Y8962D01*
X81905Y8662D01*
X81901Y8654D01*
X81895Y8655D01*
X81595Y8355D01*
X81594Y8346D01*
X81588Y8345D01*
X81288Y7845D01*
X81288Y7842D01*
X81286Y7842D01*
X81086Y7442D01*
X81087Y7436D01*
X81083Y7433D01*
X81088Y7426D01*
X81081Y7420D01*
X81081Y6320D01*
X81085Y6314D01*
X81082Y6310D01*
X81182Y5810D01*
X81189Y5804D01*
X81186Y5798D01*
X81386Y5398D01*
X81389Y5397D01*
X81388Y5395D01*
X81688Y4895D01*
X81700Y4890D01*
X81700Y4881D01*
X82500Y4281D01*
X82510Y4281D01*
X82512Y4274D01*
X83012Y4074D01*
X83025Y4078D01*
X83030Y4071D01*
X84030Y4071D01*
X84036Y4075D01*
G37*
G36*
X125139Y4078D02*
X125139Y4078D01*
X125146Y4073D01*
X125446Y4173D01*
X125461Y4195D01*
X125474Y4198D01*
X125674Y4598D01*
X125671Y4614D01*
X125679Y4620D01*
X125679Y5220D01*
X125670Y5233D01*
X125674Y5242D01*
X125474Y5642D01*
X125446Y5656D01*
X125440Y5668D01*
X124954Y5765D01*
X124679Y6040D01*
X124679Y11120D01*
X124670Y11133D01*
X124674Y11142D01*
X124474Y11542D01*
X124446Y11556D01*
X124440Y11568D01*
X123940Y11668D01*
X123933Y11665D01*
X123930Y11669D01*
X123330Y11669D01*
X123309Y11653D01*
X123295Y11655D01*
X122995Y11355D01*
X122992Y11331D01*
X122983Y11324D01*
X122984Y11322D01*
X122981Y11320D01*
X122981Y5620D01*
X122985Y5614D01*
X122982Y5610D01*
X123082Y5110D01*
X123083Y5109D01*
X123082Y5108D01*
X123182Y4708D01*
X123192Y4700D01*
X123189Y4693D01*
X123389Y4393D01*
X123409Y4386D01*
X123412Y4374D01*
X123912Y4174D01*
X123920Y4177D01*
X123923Y4171D01*
X124623Y4071D01*
X124628Y4074D01*
X124630Y4071D01*
X125130Y4071D01*
X125139Y4078D01*
G37*
G36*
X202297Y86436D02*
X202297Y86436D01*
X202302Y86432D01*
X202702Y86532D01*
X202718Y86552D01*
X202731Y86553D01*
X202931Y86853D01*
X202931Y86859D01*
X202933Y86861D01*
X202930Y86865D01*
X202930Y86873D01*
X202939Y86880D01*
X202939Y87580D01*
X202934Y87587D01*
X202938Y87592D01*
X202838Y87992D01*
X202815Y88011D01*
X202812Y88024D01*
X202412Y88224D01*
X202396Y88221D01*
X202390Y88229D01*
X196190Y88229D01*
X196169Y88213D01*
X196155Y88215D01*
X195855Y87915D01*
X195852Y87895D01*
X195842Y87890D01*
X195742Y87390D01*
X195746Y87381D01*
X195745Y87380D01*
X195747Y87377D01*
X195741Y87372D01*
X195841Y86772D01*
X195857Y86757D01*
X195855Y86745D01*
X196155Y86445D01*
X196182Y86442D01*
X196190Y86431D01*
X202290Y86431D01*
X202297Y86436D01*
G37*
G36*
X17717Y198386D02*
X17717Y198386D01*
X17722Y198382D01*
X18122Y198482D01*
X18141Y198505D01*
X18154Y198508D01*
X18354Y198908D01*
X18351Y198924D01*
X18359Y198930D01*
X18359Y204530D01*
X18356Y204535D01*
X18359Y204538D01*
X18259Y205138D01*
X18248Y205148D01*
X18251Y205157D01*
X18051Y205457D01*
X18026Y205466D01*
X18020Y205478D01*
X17520Y205578D01*
X17508Y205573D01*
X17502Y205579D01*
X16902Y205479D01*
X16887Y205463D01*
X16875Y205465D01*
X16575Y205165D01*
X16573Y205149D01*
X16563Y205141D01*
X16567Y205135D01*
X16561Y205130D01*
X16561Y198630D01*
X16586Y198597D01*
X16588Y198586D01*
X16988Y198386D01*
X17004Y198389D01*
X17010Y198381D01*
X17710Y198381D01*
X17717Y198386D01*
G37*
G36*
X147638Y4071D02*
X147638Y4071D01*
X147653Y4087D01*
X147665Y4085D01*
X147965Y4385D01*
X147966Y4397D01*
X147971Y4401D01*
X147968Y4405D01*
X147978Y4410D01*
X148078Y4910D01*
X148075Y4917D01*
X148079Y4920D01*
X148079Y6915D01*
X148173Y7384D01*
X148635Y7569D01*
X149119Y7472D01*
X149518Y7372D01*
X149546Y7384D01*
X149560Y7381D01*
X149960Y7681D01*
X149964Y7697D01*
X149968Y7700D01*
X149976Y7702D01*
X150176Y8202D01*
X150174Y8208D01*
X150178Y8210D01*
X150278Y8710D01*
X150266Y8736D01*
X150269Y8750D01*
X149969Y9150D01*
X149945Y9156D01*
X149940Y9168D01*
X149440Y9268D01*
X149433Y9265D01*
X149430Y9269D01*
X149030Y9269D01*
X149021Y9262D01*
X149014Y9267D01*
X148414Y9067D01*
X148411Y9062D01*
X148408Y9064D01*
X148040Y8880D01*
X147965Y8955D01*
X147953Y8956D01*
X147952Y8964D01*
X147552Y9164D01*
X147542Y9162D01*
X147538Y9169D01*
X146938Y9269D01*
X146921Y9260D01*
X146912Y9266D01*
X146412Y9066D01*
X146395Y9037D01*
X146382Y9032D01*
X146282Y8632D01*
X146286Y8624D01*
X146281Y8620D01*
X146281Y4520D01*
X146290Y4507D01*
X146286Y4498D01*
X146486Y4098D01*
X146514Y4084D01*
X146520Y4072D01*
X147020Y3972D01*
X147032Y3977D01*
X147038Y3971D01*
X147638Y4071D01*
G37*
%LPC*%
G36*
X210291Y75638D02*
X210291Y75638D01*
X210258Y75649D01*
X210250Y75659D01*
X209255Y75659D01*
X208766Y75757D01*
X208379Y75951D01*
X207987Y76342D01*
X207696Y76731D01*
X207599Y77215D01*
X207599Y77704D01*
X207696Y78091D01*
X207987Y78576D01*
X208376Y78868D01*
X208766Y79063D01*
X209255Y79161D01*
X209845Y79161D01*
X210329Y79064D01*
X210715Y78775D01*
X211008Y78384D01*
X211203Y77994D01*
X211301Y77505D01*
X211301Y77019D01*
X211108Y76538D01*
X210415Y75845D01*
X210414Y75833D01*
X210406Y75832D01*
X210306Y75632D01*
X210310Y75610D01*
X210291Y75638D01*
G37*
%LPD*%
%LPC*%
G36*
X200131Y91308D02*
X200131Y91308D01*
X200098Y91319D01*
X200090Y91329D01*
X199095Y91329D01*
X198606Y91427D01*
X198219Y91621D01*
X197827Y92012D01*
X197536Y92401D01*
X197439Y92885D01*
X197439Y93374D01*
X197536Y93761D01*
X197827Y94246D01*
X198216Y94538D01*
X198606Y94733D01*
X199095Y94831D01*
X199681Y94831D01*
X200170Y94635D01*
X200558Y94441D01*
X200848Y94054D01*
X201043Y93664D01*
X201141Y93175D01*
X201141Y92689D01*
X200948Y92208D01*
X200555Y91815D01*
X200554Y91810D01*
X200551Y91810D01*
X200253Y91412D01*
X200155Y91315D01*
X200150Y91279D01*
X200131Y91308D01*
G37*
%LPD*%
G36*
X98748Y109451D02*
X98748Y109451D01*
X98757Y109446D01*
X98957Y109546D01*
X98962Y109556D01*
X98970Y109555D01*
X99670Y110255D01*
X99672Y110269D01*
X99681Y110272D01*
X99881Y110772D01*
X99879Y110778D01*
X99883Y110780D01*
X99983Y111280D01*
X99980Y111287D01*
X99984Y111290D01*
X99984Y111790D01*
X99976Y111801D01*
X99981Y111808D01*
X99781Y112308D01*
X99773Y112313D01*
X99775Y112320D01*
X99475Y112720D01*
X99465Y112722D01*
X99465Y112730D01*
X99065Y113030D01*
X99049Y113029D01*
X99045Y113038D01*
X98045Y113238D01*
X98038Y113235D01*
X98035Y113239D01*
X97535Y113239D01*
X97527Y113233D01*
X97526Y113233D01*
X97518Y113227D01*
X97508Y113231D01*
X97208Y113031D01*
X97200Y113010D01*
X97188Y113000D01*
X97192Y112995D01*
X97186Y112990D01*
X97186Y109490D01*
X97222Y109443D01*
X97229Y109448D01*
X97235Y109441D01*
X98735Y109441D01*
X98748Y109451D01*
G37*
G36*
X226197Y120356D02*
X226197Y120356D01*
X226202Y120352D01*
X226602Y120452D01*
X226624Y120479D01*
X226631Y120485D01*
X226630Y120487D01*
X226639Y120499D01*
X226638Y120499D01*
X226639Y120500D01*
X226639Y121500D01*
X226636Y121504D01*
X226639Y121507D01*
X226539Y122207D01*
X226520Y122226D01*
X226520Y122239D01*
X226122Y122537D01*
X225725Y122935D01*
X225713Y122936D01*
X225712Y122944D01*
X225312Y123144D01*
X225296Y123141D01*
X225290Y123149D01*
X224690Y123149D01*
X224684Y123145D01*
X224680Y123148D01*
X224180Y123048D01*
X224174Y123041D01*
X224168Y123044D01*
X223768Y122844D01*
X223765Y122838D01*
X223760Y122839D01*
X223360Y122539D01*
X223358Y122530D01*
X223351Y122530D01*
X223051Y122130D01*
X223051Y122120D01*
X223044Y122118D01*
X222844Y121618D01*
X222848Y121605D01*
X222841Y121600D01*
X222841Y120600D01*
X222862Y120572D01*
X222863Y120559D01*
X223163Y120359D01*
X223183Y120360D01*
X223190Y120351D01*
X226190Y120351D01*
X226197Y120356D01*
G37*
G36*
X209961Y90969D02*
X209961Y90969D01*
X209968Y90964D01*
X210468Y91164D01*
X210483Y91188D01*
X210490Y91194D01*
X210488Y91196D01*
X210498Y91200D01*
X210598Y91700D01*
X210595Y91707D01*
X210599Y91710D01*
X210599Y92210D01*
X210586Y92228D01*
X210589Y92240D01*
X210289Y92640D01*
X210274Y92644D01*
X210272Y92654D01*
X209872Y92854D01*
X209856Y92851D01*
X209850Y92859D01*
X206750Y92859D01*
X206744Y92855D01*
X206740Y92858D01*
X206240Y92758D01*
X206224Y92740D01*
X206211Y92740D01*
X205911Y92340D01*
X205911Y92324D01*
X205902Y92320D01*
X205802Y91820D01*
X205810Y91802D01*
X205804Y91792D01*
X206004Y91292D01*
X206020Y91282D01*
X206020Y91271D01*
X206420Y90971D01*
X206442Y90971D01*
X206450Y90961D01*
X209950Y90961D01*
X209961Y90969D01*
G37*
%LPC*%
G36*
X112968Y17299D02*
X112968Y17299D01*
X112879Y17656D01*
X112879Y20635D01*
X113056Y20901D01*
X113526Y20901D01*
X114120Y20802D01*
X114508Y20705D01*
X114898Y20413D01*
X115285Y20026D01*
X115382Y19540D01*
X115480Y19050D01*
X115382Y18561D01*
X115286Y18175D01*
X114895Y17785D01*
X114894Y17780D01*
X114891Y17780D01*
X114598Y17389D01*
X114418Y17299D01*
X112968Y17299D01*
G37*
%LPD*%
G36*
X51716Y201085D02*
X51716Y201085D01*
X51720Y201082D01*
X52220Y201182D01*
X52248Y201214D01*
X52258Y201218D01*
X52358Y201618D01*
X52357Y201621D01*
X52359Y201622D01*
X52459Y202222D01*
X52447Y202245D01*
X52451Y202257D01*
X52251Y202557D01*
X52231Y202564D01*
X52228Y202576D01*
X51728Y202776D01*
X51715Y202772D01*
X51710Y202779D01*
X49610Y202779D01*
X49604Y202775D01*
X49600Y202778D01*
X49100Y202678D01*
X49094Y202671D01*
X49088Y202674D01*
X48688Y202474D01*
X48670Y202437D01*
X48661Y202430D01*
X48661Y201430D01*
X48686Y201397D01*
X48688Y201386D01*
X49088Y201186D01*
X49097Y201188D01*
X49100Y201182D01*
X49600Y201082D01*
X49607Y201085D01*
X49610Y201081D01*
X51710Y201081D01*
X51716Y201085D01*
G37*
G36*
X130435Y18204D02*
X130435Y18204D01*
X130438Y18201D01*
X131038Y18301D01*
X131069Y18334D01*
X131078Y18338D01*
X131178Y18738D01*
X131174Y18746D01*
X131179Y18750D01*
X131179Y19350D01*
X131172Y19359D01*
X131177Y19366D01*
X131077Y19666D01*
X131052Y19683D01*
X131048Y19696D01*
X130548Y19896D01*
X130535Y19892D01*
X130530Y19899D01*
X128430Y19899D01*
X128424Y19895D01*
X128420Y19898D01*
X127920Y19798D01*
X127914Y19791D01*
X127908Y19794D01*
X127508Y19594D01*
X127490Y19557D01*
X127481Y19550D01*
X127481Y18550D01*
X127506Y18517D01*
X127508Y18506D01*
X127908Y18306D01*
X127917Y18308D01*
X127920Y18302D01*
X128420Y18202D01*
X128427Y18205D01*
X128430Y18201D01*
X130430Y18201D01*
X130435Y18204D01*
G37*
%LPC*%
G36*
X194299Y9239D02*
X194299Y9239D01*
X194299Y11165D01*
X194666Y11441D01*
X196038Y11441D01*
X196616Y11152D01*
X197001Y10575D01*
X197001Y9907D01*
X196621Y9433D01*
X195943Y9239D01*
X194299Y9239D01*
G37*
%LPD*%
%LPC*%
G36*
X170299Y9139D02*
X170299Y9139D01*
X170299Y11065D01*
X170666Y11341D01*
X171942Y11341D01*
X172518Y11149D01*
X172901Y10575D01*
X172901Y9904D01*
X172613Y9424D01*
X172234Y9139D01*
X170299Y9139D01*
G37*
%LPD*%
%LPC*%
G36*
X69268Y5869D02*
X69268Y5869D01*
X69179Y6226D01*
X69179Y9294D01*
X69445Y9471D01*
X70525Y9471D01*
X70988Y9378D01*
X71078Y8927D01*
X70897Y8564D01*
X70322Y8469D01*
X70320Y8466D01*
X70318Y8468D01*
X69918Y8368D01*
X69890Y8332D01*
X69881Y8328D01*
X69781Y7728D01*
X69791Y7709D01*
X69786Y7698D01*
X69986Y7298D01*
X70006Y7288D01*
X70008Y7276D01*
X70408Y7076D01*
X70419Y7078D01*
X70422Y7071D01*
X71012Y6973D01*
X71303Y6779D01*
X71318Y6780D01*
X71319Y6778D01*
X71320Y6778D01*
X71297Y6756D01*
X71294Y6744D01*
X71292Y6742D01*
X71294Y6740D01*
X71292Y6728D01*
X71281Y6720D01*
X71281Y6429D01*
X71094Y5962D01*
X70724Y5869D01*
X69268Y5869D01*
G37*
%LPD*%
G36*
X202093Y105837D02*
X202093Y105837D01*
X202100Y105832D01*
X202600Y105932D01*
X202613Y105947D01*
X202625Y105945D01*
X202925Y106245D01*
X202926Y106257D01*
X202931Y106261D01*
X202928Y106266D01*
X202939Y106272D01*
X203039Y106872D01*
X203033Y106882D01*
X203039Y106888D01*
X202939Y107488D01*
X202915Y107511D01*
X202912Y107524D01*
X202512Y107724D01*
X202503Y107722D01*
X202500Y107728D01*
X202000Y107828D01*
X201987Y107822D01*
X201980Y107828D01*
X201480Y107728D01*
X201470Y107717D01*
X201460Y107719D01*
X201060Y107419D01*
X201052Y107388D01*
X201041Y107380D01*
X201041Y106780D01*
X201045Y106774D01*
X201042Y106770D01*
X201142Y106270D01*
X201157Y106257D01*
X201155Y106245D01*
X201455Y105945D01*
X201476Y105942D01*
X201482Y105931D01*
X202082Y105831D01*
X202093Y105837D01*
G37*
G36*
X199498Y105931D02*
X199498Y105931D01*
X199513Y105947D01*
X199525Y105945D01*
X199825Y106245D01*
X199826Y106257D01*
X199831Y106261D01*
X199828Y106265D01*
X199838Y106270D01*
X199938Y106770D01*
X199933Y106782D01*
X199939Y106788D01*
X199839Y107388D01*
X199820Y107406D01*
X199820Y107419D01*
X199420Y107719D01*
X199404Y107719D01*
X199400Y107728D01*
X198900Y107828D01*
X198887Y107822D01*
X198880Y107828D01*
X198380Y107728D01*
X198370Y107717D01*
X198360Y107719D01*
X197960Y107419D01*
X197952Y107388D01*
X197941Y107380D01*
X197941Y106780D01*
X197945Y106774D01*
X197942Y106770D01*
X198042Y106270D01*
X198057Y106257D01*
X198055Y106245D01*
X198355Y105945D01*
X198375Y105942D01*
X198380Y105932D01*
X198880Y105832D01*
X198892Y105837D01*
X198898Y105831D01*
X199498Y105931D01*
G37*
G36*
X28918Y201481D02*
X28918Y201481D01*
X28936Y201500D01*
X28949Y201500D01*
X29249Y201900D01*
X29249Y201907D01*
X29252Y201909D01*
X29249Y201912D01*
X29249Y201916D01*
X29258Y201920D01*
X29358Y202420D01*
X29352Y202433D01*
X29358Y202440D01*
X29258Y202940D01*
X29243Y202953D01*
X29245Y202965D01*
X28845Y203365D01*
X28818Y203369D01*
X28810Y203379D01*
X28310Y203379D01*
X28304Y203375D01*
X28300Y203378D01*
X27800Y203278D01*
X27787Y203263D01*
X27775Y203265D01*
X27475Y202965D01*
X27472Y202945D01*
X27462Y202940D01*
X27362Y202440D01*
X27367Y202430D01*
X27365Y202428D01*
X27366Y202427D01*
X27361Y202422D01*
X27461Y201822D01*
X27477Y201807D01*
X27475Y201795D01*
X27775Y201495D01*
X27795Y201492D01*
X27800Y201482D01*
X28300Y201382D01*
X28312Y201387D01*
X28318Y201381D01*
X28918Y201481D01*
G37*
G36*
X28918Y198381D02*
X28918Y198381D01*
X28936Y198400D01*
X28949Y198400D01*
X29249Y198800D01*
X29249Y198807D01*
X29252Y198809D01*
X29249Y198812D01*
X29249Y198822D01*
X29259Y198830D01*
X29259Y199330D01*
X29255Y199336D01*
X29258Y199340D01*
X29158Y199840D01*
X29147Y199850D01*
X29149Y199860D01*
X28849Y200260D01*
X28818Y200269D01*
X28810Y200279D01*
X28310Y200279D01*
X28304Y200275D01*
X28300Y200278D01*
X27800Y200178D01*
X27787Y200163D01*
X27775Y200165D01*
X27475Y199865D01*
X27472Y199844D01*
X27461Y199838D01*
X27361Y199238D01*
X27366Y199230D01*
X27365Y199230D01*
X27367Y199228D01*
X27367Y199227D01*
X27362Y199220D01*
X27462Y198720D01*
X27477Y198707D01*
X27475Y198695D01*
X27775Y198395D01*
X27795Y198392D01*
X27800Y198382D01*
X28300Y198282D01*
X28312Y198287D01*
X28318Y198281D01*
X28918Y198381D01*
G37*
G36*
X212557Y90966D02*
X212557Y90966D01*
X212562Y90962D01*
X212962Y91062D01*
X212984Y91089D01*
X212991Y91095D01*
X212998Y91098D01*
X213098Y91498D01*
X213094Y91506D01*
X213099Y91510D01*
X213099Y92210D01*
X213094Y92217D01*
X213098Y92222D01*
X212998Y92622D01*
X212972Y92643D01*
X212968Y92656D01*
X212468Y92856D01*
X212455Y92852D01*
X212450Y92859D01*
X211950Y92859D01*
X211937Y92850D01*
X211928Y92854D01*
X211528Y92654D01*
X211521Y92640D01*
X211511Y92640D01*
X211211Y92240D01*
X211211Y92218D01*
X211201Y92210D01*
X211201Y91610D01*
X211210Y91597D01*
X211206Y91588D01*
X211406Y91188D01*
X211426Y91178D01*
X211428Y91166D01*
X211828Y90966D01*
X211844Y90969D01*
X211850Y90961D01*
X212550Y90961D01*
X212557Y90966D01*
G37*
%LPC*%
G36*
X97779Y7869D02*
X97779Y7869D01*
X97779Y9294D01*
X98045Y9471D01*
X99021Y9471D01*
X99499Y9279D01*
X99781Y8904D01*
X99781Y8436D01*
X99499Y8061D01*
X99021Y7869D01*
X97779Y7869D01*
G37*
%LPD*%
%LPC*%
G36*
X72379Y19299D02*
X72379Y19299D01*
X72379Y20724D01*
X72645Y20901D01*
X73618Y20901D01*
X73998Y20711D01*
X74281Y20334D01*
X74281Y19862D01*
X74092Y19484D01*
X73815Y19299D01*
X72379Y19299D01*
G37*
%LPD*%
%LPC*%
G36*
X141646Y5869D02*
X141646Y5869D01*
X141269Y6152D01*
X141079Y6532D01*
X141079Y7104D01*
X141361Y7479D01*
X141835Y7669D01*
X142314Y7573D01*
X142691Y7384D01*
X142879Y6915D01*
X142784Y6441D01*
X142499Y6061D01*
X142021Y5869D01*
X141646Y5869D01*
G37*
%LPD*%
%LPC*%
G36*
X129439Y5869D02*
X129439Y5869D01*
X128958Y6062D01*
X128683Y6336D01*
X128777Y6804D01*
X128969Y7188D01*
X129342Y7467D01*
X129820Y7372D01*
X129874Y7398D01*
X129888Y7426D01*
X129896Y7393D01*
X129895Y7385D01*
X130188Y7092D01*
X130376Y6622D01*
X130188Y6246D01*
X129905Y5869D01*
X129439Y5869D01*
G37*
%LPD*%
%LPC*%
G36*
X111846Y6069D02*
X111846Y6069D01*
X111460Y6359D01*
X111453Y6359D01*
X111452Y6364D01*
X111279Y6450D01*
X111279Y6906D01*
X111565Y7382D01*
X111937Y7568D01*
X112406Y7475D01*
X112786Y7095D01*
X112878Y6724D01*
X112691Y6256D01*
X112318Y6069D01*
X111846Y6069D01*
G37*
%LPD*%
%LPC*%
G36*
X79470Y17193D02*
X79470Y17193D01*
X79380Y17551D01*
X79475Y18022D01*
X79842Y18297D01*
X80309Y18204D01*
X80681Y17925D01*
X80681Y17470D01*
X80405Y17194D01*
X80028Y17100D01*
X79470Y17193D01*
G37*
%LPD*%
%LPC*%
G36*
X35343Y200074D02*
X35343Y200074D01*
X35162Y200437D01*
X35255Y200902D01*
X35623Y201178D01*
X36186Y201084D01*
X36461Y200810D01*
X36461Y200350D01*
X36185Y200074D01*
X35809Y199980D01*
X35343Y200074D01*
G37*
%LPD*%
%LPC*%
G36*
X105085Y7069D02*
X105085Y7069D01*
X105079Y7125D01*
X105063Y7142D01*
X105065Y7155D01*
X104900Y7320D01*
X105258Y7678D01*
X105730Y7867D01*
X106188Y7684D01*
X106275Y7335D01*
X106010Y7069D01*
X105085Y7069D01*
G37*
%LPD*%
%LPC*%
G36*
X64860Y18599D02*
X64860Y18599D01*
X64784Y18752D01*
X65175Y19730D01*
X65227Y19833D01*
X65755Y18599D01*
X64860Y18599D01*
G37*
%LPD*%
%LPC*%
G36*
X198712Y64924D02*
X198712Y64924D01*
X198700Y64922D01*
X198697Y64926D01*
X198693Y64926D01*
X198692Y64926D01*
X199841Y65500D01*
X199841Y64600D01*
X199680Y64440D01*
X198712Y64924D01*
G37*
%LPD*%
%LPC*%
G36*
X105177Y6224D02*
X105177Y6224D01*
X105178Y6225D01*
X105179Y6223D01*
X105177Y6224D01*
G37*
%LPD*%
D10*
X74930Y146533D02*
X71120Y142723D01*
X77851Y142723D01*
X77851Y107163D01*
X71120Y107163D01*
X74930Y138913D02*
X71120Y142723D01*
X74930Y110973D02*
X71120Y107163D01*
X74930Y103353D01*
X82550Y135890D02*
X90881Y135890D01*
X100330Y135890D01*
X90881Y135890D02*
X90881Y118110D01*
X109931Y151028D02*
X109931Y158648D01*
X160680Y147117D02*
X160680Y117907D01*
X174650Y105308D02*
X174650Y77368D01*
X70830Y55300D02*
X70830Y195300D01*
X70830Y55300D02*
X8830Y55300D01*
X830Y55300D01*
X830Y195300D01*
X8830Y195300D01*
X70830Y195300D01*
X8830Y195300D02*
X8830Y55300D01*
X92160Y181760D02*
X110160Y181760D01*
X92160Y181760D02*
X92160Y182760D01*
X165160Y181760D02*
X182160Y181760D01*
D11*
X140190Y119080D02*
X132190Y119080D01*
X140190Y119080D02*
X140190Y124080D01*
X106190Y140080D02*
X106190Y145080D01*
X114190Y145080D01*
D12*
X134620Y147320D03*
D11*
X154380Y103770D02*
X154380Y25770D01*
X139380Y25770D01*
X139380Y103770D02*
X154380Y103770D01*
X84380Y103770D02*
X84380Y25770D01*
X84380Y103770D02*
X99380Y103770D01*
X99380Y25770D02*
X84380Y25770D01*
D10*
X197485Y25083D02*
X197485Y15558D01*
D13*
X191610Y35450D02*
X171610Y35450D01*
X175610Y39450D02*
X175702Y39535D01*
X175791Y39623D01*
X175877Y39714D01*
X175961Y39807D01*
X176041Y39903D01*
X176119Y40002D01*
X176193Y40103D01*
X176264Y40206D01*
X176332Y40311D01*
X176397Y40418D01*
X176459Y40527D01*
X176516Y40638D01*
X176571Y40751D01*
X176622Y40865D01*
X176669Y40981D01*
X176713Y41099D01*
X176753Y41217D01*
X176790Y41337D01*
X176822Y41458D01*
X176851Y41580D01*
X176876Y41703D01*
X176898Y41826D01*
X176915Y41950D01*
X176929Y42075D01*
X176938Y42200D01*
X176944Y42325D01*
X176946Y42450D01*
X176944Y42575D01*
X176938Y42700D01*
X176929Y42825D01*
X176915Y42950D01*
X176898Y43074D01*
X176876Y43197D01*
X176851Y43320D01*
X176822Y43442D01*
X176790Y43563D01*
X176753Y43683D01*
X176713Y43801D01*
X176669Y43919D01*
X176622Y44035D01*
X176571Y44149D01*
X176516Y44262D01*
X176459Y44373D01*
X176397Y44482D01*
X176332Y44589D01*
X176264Y44694D01*
X176193Y44797D01*
X176119Y44898D01*
X176041Y44997D01*
X175961Y45093D01*
X175877Y45186D01*
X175791Y45277D01*
X175702Y45365D01*
X175610Y45450D01*
X175516Y45529D01*
X175424Y45610D01*
X175335Y45695D01*
X175249Y45782D01*
X175165Y45872D01*
X175085Y45965D01*
X175007Y46060D01*
X174933Y46157D01*
X174861Y46257D01*
X174793Y46359D01*
X174728Y46464D01*
X174667Y46570D01*
X174609Y46678D01*
X174554Y46788D01*
X174503Y46899D01*
X174456Y47013D01*
X174412Y47127D01*
X174372Y47243D01*
X174335Y47360D01*
X174302Y47479D01*
X174273Y47598D01*
X174248Y47718D01*
X174227Y47839D01*
X174209Y47960D01*
X174196Y48082D01*
X174186Y48205D01*
X174180Y48327D01*
X174178Y48450D01*
X174180Y48573D01*
X174186Y48695D01*
X174196Y48818D01*
X174209Y48940D01*
X174227Y49061D01*
X174248Y49182D01*
X174273Y49302D01*
X174302Y49421D01*
X174335Y49540D01*
X174372Y49657D01*
X174412Y49773D01*
X174456Y49887D01*
X174503Y50001D01*
X174554Y50112D01*
X174609Y50222D01*
X174667Y50330D01*
X174728Y50436D01*
X174793Y50541D01*
X174861Y50643D01*
X174933Y50743D01*
X175007Y50840D01*
X175085Y50935D01*
X175165Y51028D01*
X175249Y51118D01*
X175335Y51205D01*
X175424Y51290D01*
X175516Y51371D01*
X175610Y51450D01*
D14*
X156610Y28450D02*
X206610Y28450D01*
D13*
X181610Y39450D02*
X181702Y39535D01*
X181791Y39623D01*
X181877Y39714D01*
X181961Y39807D01*
X182041Y39903D01*
X182119Y40002D01*
X182193Y40103D01*
X182264Y40206D01*
X182332Y40311D01*
X182397Y40418D01*
X182459Y40527D01*
X182516Y40638D01*
X182571Y40751D01*
X182622Y40865D01*
X182669Y40981D01*
X182713Y41099D01*
X182753Y41217D01*
X182790Y41337D01*
X182822Y41458D01*
X182851Y41580D01*
X182876Y41703D01*
X182898Y41826D01*
X182915Y41950D01*
X182929Y42075D01*
X182938Y42200D01*
X182944Y42325D01*
X182946Y42450D01*
X182944Y42575D01*
X182938Y42700D01*
X182929Y42825D01*
X182915Y42950D01*
X182898Y43074D01*
X182876Y43197D01*
X182851Y43320D01*
X182822Y43442D01*
X182790Y43563D01*
X182753Y43683D01*
X182713Y43801D01*
X182669Y43919D01*
X182622Y44035D01*
X182571Y44149D01*
X182516Y44262D01*
X182459Y44373D01*
X182397Y44482D01*
X182332Y44589D01*
X182264Y44694D01*
X182193Y44797D01*
X182119Y44898D01*
X182041Y44997D01*
X181961Y45093D01*
X181877Y45186D01*
X181791Y45277D01*
X181702Y45365D01*
X181610Y45450D01*
X181516Y45529D01*
X181424Y45610D01*
X181335Y45695D01*
X181249Y45782D01*
X181165Y45872D01*
X181085Y45965D01*
X181007Y46060D01*
X180933Y46157D01*
X180861Y46257D01*
X180793Y46359D01*
X180728Y46464D01*
X180667Y46570D01*
X180609Y46678D01*
X180554Y46788D01*
X180503Y46899D01*
X180456Y47013D01*
X180412Y47127D01*
X180372Y47243D01*
X180335Y47360D01*
X180302Y47479D01*
X180273Y47598D01*
X180248Y47718D01*
X180227Y47839D01*
X180209Y47960D01*
X180196Y48082D01*
X180186Y48205D01*
X180180Y48327D01*
X180178Y48450D01*
X180180Y48573D01*
X180186Y48695D01*
X180196Y48818D01*
X180209Y48940D01*
X180227Y49061D01*
X180248Y49182D01*
X180273Y49302D01*
X180302Y49421D01*
X180335Y49540D01*
X180372Y49657D01*
X180412Y49773D01*
X180456Y49887D01*
X180503Y50001D01*
X180554Y50112D01*
X180609Y50222D01*
X180667Y50330D01*
X180728Y50436D01*
X180793Y50541D01*
X180861Y50643D01*
X180933Y50743D01*
X181007Y50840D01*
X181085Y50935D01*
X181165Y51028D01*
X181249Y51118D01*
X181335Y51205D01*
X181424Y51290D01*
X181516Y51371D01*
X181610Y51450D01*
X187610Y45450D02*
X187702Y45365D01*
X187791Y45277D01*
X187877Y45186D01*
X187961Y45093D01*
X188041Y44997D01*
X188119Y44898D01*
X188193Y44797D01*
X188264Y44694D01*
X188332Y44589D01*
X188397Y44482D01*
X188459Y44373D01*
X188516Y44262D01*
X188571Y44149D01*
X188622Y44035D01*
X188669Y43919D01*
X188713Y43801D01*
X188753Y43683D01*
X188790Y43563D01*
X188822Y43442D01*
X188851Y43320D01*
X188876Y43197D01*
X188898Y43074D01*
X188915Y42950D01*
X188929Y42825D01*
X188938Y42700D01*
X188944Y42575D01*
X188946Y42450D01*
X188944Y42325D01*
X188938Y42200D01*
X188929Y42075D01*
X188915Y41950D01*
X188898Y41826D01*
X188876Y41703D01*
X188851Y41580D01*
X188822Y41458D01*
X188790Y41337D01*
X188753Y41217D01*
X188713Y41099D01*
X188669Y40981D01*
X188622Y40865D01*
X188571Y40751D01*
X188516Y40638D01*
X188459Y40527D01*
X188397Y40418D01*
X188332Y40311D01*
X188264Y40206D01*
X188193Y40103D01*
X188119Y40002D01*
X188041Y39903D01*
X187961Y39807D01*
X187877Y39714D01*
X187791Y39623D01*
X187702Y39535D01*
X187610Y39450D01*
X187610Y45450D02*
X187516Y45529D01*
X187424Y45610D01*
X187335Y45695D01*
X187249Y45782D01*
X187165Y45872D01*
X187085Y45965D01*
X187007Y46060D01*
X186933Y46157D01*
X186861Y46257D01*
X186793Y46359D01*
X186728Y46464D01*
X186667Y46570D01*
X186609Y46678D01*
X186554Y46788D01*
X186503Y46899D01*
X186456Y47013D01*
X186412Y47127D01*
X186372Y47243D01*
X186335Y47360D01*
X186302Y47479D01*
X186273Y47598D01*
X186248Y47718D01*
X186227Y47839D01*
X186209Y47960D01*
X186196Y48082D01*
X186186Y48205D01*
X186180Y48327D01*
X186178Y48450D01*
X186180Y48573D01*
X186186Y48695D01*
X186196Y48818D01*
X186209Y48940D01*
X186227Y49061D01*
X186248Y49182D01*
X186273Y49302D01*
X186302Y49421D01*
X186335Y49540D01*
X186372Y49657D01*
X186412Y49773D01*
X186456Y49887D01*
X186503Y50001D01*
X186554Y50112D01*
X186609Y50222D01*
X186667Y50330D01*
X186728Y50436D01*
X186793Y50541D01*
X186861Y50643D01*
X186933Y50743D01*
X187007Y50840D01*
X187085Y50935D01*
X187165Y51028D01*
X187249Y51118D01*
X187335Y51205D01*
X187424Y51290D01*
X187516Y51371D01*
X187610Y51450D01*
D14*
X181610Y73450D02*
X206610Y28450D01*
X156610Y28450D02*
X181610Y73450D01*
M02*
