G04 EAGLE Gerber RS-274X export*
G75*
%MOMM*%
%FSLAX34Y34*%
%LPD*%
%IN*%
%IPPOS*%
%AMOC8*
5,1,8,0,0,1.08239X$1,22.5*%
G01*
%ADD10C,0.203200*%
%ADD11C,0.381000*%
%ADD12C,0.279400*%
%ADD13C,0.254000*%


D10*
X0Y0D02*
X158750Y0D01*
X158750Y132080D01*
X0Y132080D01*
X0Y0D01*
X163830Y0D02*
X322580Y0D01*
X322580Y132080D01*
X163830Y132080D01*
X163830Y0D01*
X327660Y0D02*
X486410Y0D01*
X486410Y132080D01*
X327660Y132080D01*
X327660Y0D01*
X491490Y0D02*
X650240Y0D01*
X650240Y132080D01*
X491490Y132080D01*
X491490Y0D01*
X655320Y0D02*
X814070Y0D01*
X814070Y132080D01*
X655320Y132080D01*
X655320Y0D01*
X819150Y0D02*
X977900Y0D01*
X977900Y132080D01*
X819150Y132080D01*
X819150Y0D01*
X982980Y0D02*
X1141730Y0D01*
X1141730Y132080D01*
X982980Y132080D01*
X982980Y0D01*
X1146810Y0D02*
X1305560Y0D01*
X1305560Y132080D01*
X1146810Y132080D01*
X1146810Y0D01*
X158750Y137160D02*
X0Y137160D01*
X158750Y137160D02*
X158750Y269240D01*
X0Y269240D01*
X0Y137160D01*
X163830Y137160D02*
X322580Y137160D01*
X322580Y269240D01*
X163830Y269240D01*
X163830Y137160D01*
X327660Y137160D02*
X486410Y137160D01*
X486410Y269240D01*
X327660Y269240D01*
X327660Y137160D01*
X491490Y137160D02*
X650240Y137160D01*
X650240Y269240D01*
X491490Y269240D01*
X491490Y137160D01*
X655320Y137160D02*
X814070Y137160D01*
X814070Y269240D01*
X655320Y269240D01*
X655320Y137160D01*
X819150Y137160D02*
X977900Y137160D01*
X977900Y269240D01*
X819150Y269240D01*
X819150Y137160D01*
X982980Y137160D02*
X1141730Y137160D01*
X1141730Y269240D01*
X982980Y269240D01*
X982980Y137160D01*
X1146810Y137160D02*
X1305560Y137160D01*
X1305560Y269240D01*
X1146810Y269240D01*
X1146810Y137160D01*
X158750Y274320D02*
X0Y274320D01*
X158750Y274320D02*
X158750Y406400D01*
X0Y406400D01*
X0Y274320D01*
X163830Y274320D02*
X322580Y274320D01*
X322580Y406400D01*
X163830Y406400D01*
X163830Y274320D01*
X327660Y274320D02*
X486410Y274320D01*
X486410Y406400D01*
X327660Y406400D01*
X327660Y274320D01*
X491490Y274320D02*
X650240Y274320D01*
X650240Y406400D01*
X491490Y406400D01*
X491490Y274320D01*
X655320Y274320D02*
X814070Y274320D01*
X814070Y406400D01*
X655320Y406400D01*
X655320Y274320D01*
X819150Y274320D02*
X977900Y274320D01*
X977900Y406400D01*
X819150Y406400D01*
X819150Y274320D01*
X982980Y274320D02*
X1141730Y274320D01*
X1141730Y406400D01*
X982980Y406400D01*
X982980Y274320D01*
X1146810Y274320D02*
X1305560Y274320D01*
X1305560Y406400D01*
X1146810Y406400D01*
X1146810Y274320D01*
X158750Y411480D02*
X0Y411480D01*
X158750Y411480D02*
X158750Y543560D01*
X0Y543560D01*
X0Y411480D01*
X163830Y411480D02*
X322580Y411480D01*
X322580Y543560D01*
X163830Y543560D01*
X163830Y411480D01*
X327660Y411480D02*
X486410Y411480D01*
X486410Y543560D01*
X327660Y543560D01*
X327660Y411480D01*
X491490Y411480D02*
X650240Y411480D01*
X650240Y543560D01*
X491490Y543560D01*
X491490Y411480D01*
X655320Y411480D02*
X814070Y411480D01*
X814070Y543560D01*
X655320Y543560D01*
X655320Y411480D01*
X819150Y411480D02*
X977900Y411480D01*
X977900Y543560D01*
X819150Y543560D01*
X819150Y411480D01*
X982980Y411480D02*
X1141730Y411480D01*
X1141730Y543560D01*
X982980Y543560D01*
X982980Y411480D01*
X1146810Y411480D02*
X1305560Y411480D01*
X1305560Y543560D01*
X1146810Y543560D01*
X1146810Y411480D01*
X158750Y548640D02*
X0Y548640D01*
X158750Y548640D02*
X158750Y680720D01*
X0Y680720D01*
X0Y548640D01*
X163830Y548640D02*
X322580Y548640D01*
X322580Y680720D01*
X163830Y680720D01*
X163830Y548640D01*
X327660Y548640D02*
X486410Y548640D01*
X486410Y680720D01*
X327660Y680720D01*
X327660Y548640D01*
X491490Y548640D02*
X650240Y548640D01*
X650240Y680720D01*
X491490Y680720D01*
X491490Y548640D01*
X655320Y548640D02*
X814070Y548640D01*
X814070Y680720D01*
X655320Y680720D01*
X655320Y548640D01*
X819150Y548640D02*
X977900Y548640D01*
X977900Y680720D01*
X819150Y680720D01*
X819150Y548640D01*
X982980Y548640D02*
X1141730Y548640D01*
X1141730Y680720D01*
X982980Y680720D01*
X982980Y548640D01*
X1146810Y548640D02*
X1305560Y548640D01*
X1305560Y680720D01*
X1146810Y680720D01*
X1146810Y548640D01*
X158750Y685800D02*
X0Y685800D01*
X158750Y685800D02*
X158750Y817880D01*
X0Y817880D01*
X0Y685800D01*
X163830Y685800D02*
X322580Y685800D01*
X322580Y817880D01*
X163830Y817880D01*
X163830Y685800D01*
X327660Y685800D02*
X486410Y685800D01*
X486410Y817880D01*
X327660Y817880D01*
X327660Y685800D01*
X491490Y685800D02*
X650240Y685800D01*
X650240Y817880D01*
X491490Y817880D01*
X491490Y685800D01*
X655320Y685800D02*
X814070Y685800D01*
X814070Y817880D01*
X655320Y817880D01*
X655320Y685800D01*
X819150Y685800D02*
X977900Y685800D01*
X977900Y817880D01*
X819150Y817880D01*
X819150Y685800D01*
X982980Y685800D02*
X1141730Y685800D01*
X1141730Y817880D01*
X982980Y817880D01*
X982980Y685800D01*
X1146810Y685800D02*
X1305560Y685800D01*
X1305560Y817880D01*
X1146810Y817880D01*
X1146810Y685800D01*
D11*
X-2540Y891540D02*
X-2540Y-68580D01*
D12*
X-42921Y906907D02*
X-46251Y916898D01*
X-39590Y916898D02*
X-42921Y906907D01*
X-32806Y912735D02*
X-22815Y912735D01*
X-14261Y912735D02*
X-10098Y911070D01*
X-14261Y912734D02*
X-14346Y912770D01*
X-14429Y912810D01*
X-14510Y912853D01*
X-14590Y912900D01*
X-14667Y912950D01*
X-14743Y913003D01*
X-14816Y913059D01*
X-14886Y913119D01*
X-14954Y913181D01*
X-15019Y913246D01*
X-15081Y913314D01*
X-15141Y913385D01*
X-15197Y913458D01*
X-15250Y913533D01*
X-15300Y913611D01*
X-15346Y913690D01*
X-15389Y913772D01*
X-15429Y913855D01*
X-15465Y913940D01*
X-15497Y914026D01*
X-15526Y914114D01*
X-15550Y914203D01*
X-15571Y914293D01*
X-15588Y914383D01*
X-15602Y914474D01*
X-15611Y914566D01*
X-15616Y914658D01*
X-15618Y914750D01*
X-15616Y914842D01*
X-15609Y914934D01*
X-15599Y915026D01*
X-15585Y915117D01*
X-15567Y915208D01*
X-15545Y915297D01*
X-15519Y915386D01*
X-15489Y915473D01*
X-15456Y915559D01*
X-15419Y915643D01*
X-15379Y915726D01*
X-15335Y915807D01*
X-15288Y915886D01*
X-15237Y915963D01*
X-15183Y916038D01*
X-15126Y916111D01*
X-15066Y916181D01*
X-15003Y916248D01*
X-14937Y916312D01*
X-14869Y916374D01*
X-14798Y916433D01*
X-14724Y916488D01*
X-14648Y916541D01*
X-14570Y916590D01*
X-14490Y916636D01*
X-14409Y916678D01*
X-14325Y916717D01*
X-14240Y916752D01*
X-14153Y916783D01*
X-14065Y916811D01*
X-13976Y916835D01*
X-13886Y916855D01*
X-13796Y916872D01*
X-13704Y916884D01*
X-13612Y916893D01*
X-13520Y916897D01*
X-13428Y916898D01*
X-13201Y916892D01*
X-12974Y916881D01*
X-12747Y916864D01*
X-12521Y916841D01*
X-12295Y916814D01*
X-12070Y916780D01*
X-11846Y916742D01*
X-11623Y916698D01*
X-11401Y916649D01*
X-11180Y916594D01*
X-10961Y916534D01*
X-10743Y916469D01*
X-10527Y916398D01*
X-10313Y916323D01*
X-10100Y916242D01*
X-9890Y916156D01*
X-9681Y916065D01*
X-10098Y911070D02*
X-10013Y911034D01*
X-9930Y910994D01*
X-9849Y910951D01*
X-9769Y910904D01*
X-9692Y910854D01*
X-9616Y910801D01*
X-9543Y910745D01*
X-9473Y910685D01*
X-9405Y910623D01*
X-9340Y910558D01*
X-9278Y910490D01*
X-9218Y910419D01*
X-9162Y910346D01*
X-9109Y910271D01*
X-9059Y910193D01*
X-9013Y910114D01*
X-8970Y910032D01*
X-8930Y909949D01*
X-8894Y909864D01*
X-8862Y909778D01*
X-8833Y909690D01*
X-8809Y909601D01*
X-8788Y909511D01*
X-8771Y909421D01*
X-8757Y909330D01*
X-8748Y909238D01*
X-8743Y909146D01*
X-8741Y909054D01*
X-8743Y908962D01*
X-8750Y908870D01*
X-8760Y908778D01*
X-8774Y908687D01*
X-8792Y908596D01*
X-8814Y908507D01*
X-8840Y908418D01*
X-8870Y908331D01*
X-8903Y908245D01*
X-8940Y908161D01*
X-8980Y908078D01*
X-9024Y907997D01*
X-9071Y907918D01*
X-9122Y907841D01*
X-9176Y907766D01*
X-9233Y907693D01*
X-9293Y907623D01*
X-9356Y907556D01*
X-9422Y907492D01*
X-9490Y907430D01*
X-9561Y907371D01*
X-9635Y907316D01*
X-9711Y907263D01*
X-9789Y907214D01*
X-9869Y907168D01*
X-9950Y907126D01*
X-10034Y907087D01*
X-10119Y907052D01*
X-10206Y907021D01*
X-10294Y906993D01*
X-10383Y906969D01*
X-10473Y906949D01*
X-10563Y906932D01*
X-10655Y906920D01*
X-10747Y906911D01*
X-10839Y906907D01*
X-10931Y906906D01*
X-10931Y906907D02*
X-11265Y906916D01*
X-11598Y906933D01*
X-11931Y906957D01*
X-12264Y906990D01*
X-12595Y907030D01*
X-12926Y907078D01*
X-13255Y907134D01*
X-13583Y907197D01*
X-13909Y907269D01*
X-14233Y907348D01*
X-14556Y907434D01*
X-14876Y907529D01*
X-15194Y907631D01*
X-15510Y907740D01*
X562Y906907D02*
X3892Y906907D01*
X562Y906907D02*
X464Y906909D01*
X366Y906915D01*
X268Y906924D01*
X171Y906938D01*
X75Y906955D01*
X-21Y906976D01*
X-116Y907001D01*
X-210Y907029D01*
X-303Y907061D01*
X-394Y907097D01*
X-484Y907136D01*
X-572Y907179D01*
X-659Y907226D01*
X-743Y907275D01*
X-826Y907328D01*
X-906Y907384D01*
X-985Y907443D01*
X-1060Y907506D01*
X-1134Y907571D01*
X-1204Y907639D01*
X-1272Y907709D01*
X-1338Y907783D01*
X-1400Y907859D01*
X-1459Y907937D01*
X-1515Y908017D01*
X-1568Y908100D01*
X-1618Y908184D01*
X-1664Y908271D01*
X-1707Y908359D01*
X-1746Y908449D01*
X-1782Y908540D01*
X-1814Y908633D01*
X-1842Y908727D01*
X-1867Y908822D01*
X-1888Y908918D01*
X-1905Y909014D01*
X-1919Y909111D01*
X-1928Y909209D01*
X-1934Y909307D01*
X-1936Y909405D01*
X-1936Y914400D01*
X-1934Y914498D01*
X-1928Y914596D01*
X-1919Y914694D01*
X-1905Y914791D01*
X-1888Y914887D01*
X-1867Y914983D01*
X-1842Y915078D01*
X-1814Y915172D01*
X-1782Y915265D01*
X-1746Y915356D01*
X-1707Y915446D01*
X-1664Y915534D01*
X-1617Y915621D01*
X-1568Y915705D01*
X-1515Y915788D01*
X-1459Y915868D01*
X-1400Y915946D01*
X-1337Y916022D01*
X-1272Y916096D01*
X-1204Y916166D01*
X-1134Y916234D01*
X-1060Y916299D01*
X-984Y916362D01*
X-906Y916421D01*
X-826Y916477D01*
X-743Y916530D01*
X-659Y916579D01*
X-572Y916626D01*
X-484Y916669D01*
X-394Y916708D01*
X-303Y916744D01*
X-210Y916776D01*
X-116Y916804D01*
X-21Y916829D01*
X75Y916850D01*
X171Y916867D01*
X268Y916881D01*
X366Y916890D01*
X464Y916896D01*
X562Y916898D01*
X3892Y916898D01*
X10022Y913567D02*
X10022Y910237D01*
X10022Y913567D02*
X10024Y913681D01*
X10030Y913794D01*
X10039Y913908D01*
X10053Y914020D01*
X10070Y914133D01*
X10092Y914245D01*
X10117Y914355D01*
X10145Y914465D01*
X10178Y914574D01*
X10214Y914682D01*
X10254Y914789D01*
X10298Y914894D01*
X10345Y914997D01*
X10395Y915099D01*
X10449Y915199D01*
X10507Y915297D01*
X10568Y915393D01*
X10631Y915487D01*
X10699Y915579D01*
X10769Y915669D01*
X10842Y915755D01*
X10918Y915840D01*
X10997Y915922D01*
X11079Y916001D01*
X11164Y916077D01*
X11250Y916150D01*
X11340Y916220D01*
X11432Y916288D01*
X11526Y916351D01*
X11622Y916412D01*
X11720Y916470D01*
X11820Y916524D01*
X11922Y916574D01*
X12025Y916621D01*
X12130Y916665D01*
X12237Y916705D01*
X12345Y916741D01*
X12454Y916774D01*
X12564Y916802D01*
X12674Y916827D01*
X12786Y916849D01*
X12899Y916866D01*
X13011Y916880D01*
X13125Y916889D01*
X13238Y916895D01*
X13352Y916897D01*
X13466Y916895D01*
X13579Y916889D01*
X13693Y916880D01*
X13805Y916866D01*
X13918Y916849D01*
X14030Y916827D01*
X14140Y916802D01*
X14250Y916774D01*
X14359Y916741D01*
X14467Y916705D01*
X14574Y916665D01*
X14679Y916621D01*
X14782Y916574D01*
X14884Y916524D01*
X14984Y916470D01*
X15082Y916412D01*
X15178Y916351D01*
X15272Y916288D01*
X15364Y916220D01*
X15454Y916150D01*
X15540Y916077D01*
X15625Y916001D01*
X15707Y915922D01*
X15786Y915840D01*
X15862Y915755D01*
X15935Y915669D01*
X16005Y915579D01*
X16073Y915487D01*
X16136Y915393D01*
X16197Y915297D01*
X16255Y915199D01*
X16309Y915099D01*
X16359Y914997D01*
X16406Y914894D01*
X16450Y914789D01*
X16490Y914682D01*
X16526Y914574D01*
X16559Y914465D01*
X16587Y914355D01*
X16612Y914245D01*
X16634Y914133D01*
X16651Y914020D01*
X16665Y913908D01*
X16674Y913794D01*
X16680Y913681D01*
X16682Y913567D01*
X16682Y910237D01*
X16680Y910123D01*
X16674Y910010D01*
X16665Y909896D01*
X16651Y909784D01*
X16634Y909671D01*
X16612Y909559D01*
X16587Y909449D01*
X16559Y909339D01*
X16526Y909230D01*
X16490Y909122D01*
X16450Y909015D01*
X16406Y908910D01*
X16359Y908807D01*
X16309Y908705D01*
X16255Y908605D01*
X16197Y908507D01*
X16136Y908411D01*
X16073Y908317D01*
X16005Y908225D01*
X15935Y908135D01*
X15862Y908049D01*
X15786Y907964D01*
X15707Y907882D01*
X15625Y907803D01*
X15540Y907727D01*
X15454Y907654D01*
X15364Y907584D01*
X15272Y907516D01*
X15178Y907453D01*
X15082Y907392D01*
X14984Y907334D01*
X14884Y907280D01*
X14782Y907230D01*
X14679Y907183D01*
X14574Y907139D01*
X14467Y907099D01*
X14359Y907063D01*
X14250Y907030D01*
X14140Y907002D01*
X14030Y906977D01*
X13918Y906955D01*
X13805Y906938D01*
X13693Y906924D01*
X13579Y906915D01*
X13466Y906909D01*
X13352Y906907D01*
X13238Y906909D01*
X13125Y906915D01*
X13011Y906924D01*
X12899Y906938D01*
X12786Y906955D01*
X12674Y906977D01*
X12564Y907002D01*
X12454Y907030D01*
X12345Y907063D01*
X12237Y907099D01*
X12130Y907139D01*
X12025Y907183D01*
X11922Y907230D01*
X11820Y907280D01*
X11720Y907334D01*
X11622Y907392D01*
X11526Y907453D01*
X11432Y907516D01*
X11340Y907584D01*
X11250Y907654D01*
X11164Y907727D01*
X11079Y907803D01*
X10997Y907882D01*
X10918Y907964D01*
X10842Y908049D01*
X10769Y908135D01*
X10699Y908225D01*
X10631Y908317D01*
X10568Y908411D01*
X10507Y908507D01*
X10449Y908605D01*
X10395Y908705D01*
X10345Y908807D01*
X10298Y908910D01*
X10254Y909015D01*
X10214Y909122D01*
X10178Y909230D01*
X10145Y909339D01*
X10117Y909449D01*
X10092Y909559D01*
X10070Y909671D01*
X10053Y909784D01*
X10039Y909896D01*
X10030Y910010D01*
X10024Y910123D01*
X10022Y910237D01*
X24218Y906907D02*
X24218Y916898D01*
X29213Y916898D01*
X29213Y915233D01*
X37008Y906907D02*
X41171Y906907D01*
X37008Y906907D02*
X36910Y906909D01*
X36812Y906915D01*
X36714Y906924D01*
X36617Y906938D01*
X36521Y906955D01*
X36425Y906976D01*
X36330Y907001D01*
X36236Y907029D01*
X36143Y907061D01*
X36052Y907097D01*
X35962Y907136D01*
X35874Y907179D01*
X35787Y907226D01*
X35703Y907275D01*
X35620Y907328D01*
X35540Y907384D01*
X35462Y907443D01*
X35386Y907506D01*
X35312Y907571D01*
X35242Y907639D01*
X35174Y907709D01*
X35109Y907783D01*
X35046Y907859D01*
X34987Y907937D01*
X34931Y908017D01*
X34878Y908100D01*
X34829Y908184D01*
X34782Y908271D01*
X34739Y908359D01*
X34700Y908449D01*
X34664Y908540D01*
X34632Y908633D01*
X34604Y908727D01*
X34579Y908822D01*
X34558Y908918D01*
X34541Y909014D01*
X34527Y909111D01*
X34518Y909209D01*
X34512Y909307D01*
X34510Y909405D01*
X34510Y913567D01*
X34511Y913567D02*
X34513Y913681D01*
X34519Y913794D01*
X34528Y913908D01*
X34542Y914020D01*
X34559Y914133D01*
X34581Y914245D01*
X34606Y914355D01*
X34634Y914465D01*
X34667Y914574D01*
X34703Y914682D01*
X34743Y914789D01*
X34787Y914894D01*
X34834Y914997D01*
X34884Y915099D01*
X34938Y915199D01*
X34996Y915297D01*
X35057Y915393D01*
X35120Y915487D01*
X35188Y915579D01*
X35258Y915669D01*
X35331Y915755D01*
X35407Y915840D01*
X35486Y915922D01*
X35568Y916001D01*
X35653Y916077D01*
X35739Y916150D01*
X35829Y916220D01*
X35921Y916288D01*
X36015Y916351D01*
X36111Y916412D01*
X36209Y916470D01*
X36309Y916524D01*
X36411Y916574D01*
X36514Y916621D01*
X36619Y916665D01*
X36726Y916705D01*
X36834Y916741D01*
X36943Y916774D01*
X37053Y916802D01*
X37163Y916827D01*
X37275Y916849D01*
X37388Y916866D01*
X37500Y916880D01*
X37614Y916889D01*
X37727Y916895D01*
X37841Y916897D01*
X37955Y916895D01*
X38068Y916889D01*
X38182Y916880D01*
X38294Y916866D01*
X38407Y916849D01*
X38519Y916827D01*
X38629Y916802D01*
X38739Y916774D01*
X38848Y916741D01*
X38956Y916705D01*
X39063Y916665D01*
X39168Y916621D01*
X39271Y916574D01*
X39373Y916524D01*
X39473Y916470D01*
X39571Y916412D01*
X39667Y916351D01*
X39761Y916288D01*
X39853Y916220D01*
X39943Y916150D01*
X40029Y916077D01*
X40114Y916001D01*
X40196Y915922D01*
X40275Y915840D01*
X40351Y915755D01*
X40424Y915669D01*
X40494Y915579D01*
X40562Y915487D01*
X40625Y915393D01*
X40686Y915297D01*
X40744Y915199D01*
X40798Y915099D01*
X40848Y914997D01*
X40895Y914894D01*
X40939Y914789D01*
X40979Y914682D01*
X41015Y914574D01*
X41048Y914465D01*
X41076Y914355D01*
X41101Y914245D01*
X41123Y914133D01*
X41140Y914020D01*
X41154Y913908D01*
X41163Y913794D01*
X41169Y913681D01*
X41171Y913567D01*
X41171Y911902D01*
X34510Y911902D01*
D11*
X161290Y891540D02*
X161290Y-68580D01*
D12*
X120909Y906907D02*
X117579Y916898D01*
X124240Y916898D02*
X120909Y906907D01*
X131024Y912735D02*
X141015Y912735D01*
X149569Y912735D02*
X153732Y911070D01*
X149569Y912734D02*
X149484Y912770D01*
X149401Y912810D01*
X149320Y912853D01*
X149240Y912900D01*
X149163Y912950D01*
X149087Y913003D01*
X149014Y913059D01*
X148944Y913119D01*
X148876Y913181D01*
X148811Y913246D01*
X148749Y913314D01*
X148689Y913385D01*
X148633Y913458D01*
X148580Y913533D01*
X148530Y913611D01*
X148484Y913690D01*
X148441Y913772D01*
X148401Y913855D01*
X148365Y913940D01*
X148333Y914026D01*
X148304Y914114D01*
X148280Y914203D01*
X148259Y914293D01*
X148242Y914383D01*
X148228Y914474D01*
X148219Y914566D01*
X148214Y914658D01*
X148212Y914750D01*
X148214Y914842D01*
X148221Y914934D01*
X148231Y915026D01*
X148245Y915117D01*
X148263Y915208D01*
X148285Y915297D01*
X148311Y915386D01*
X148341Y915473D01*
X148374Y915559D01*
X148411Y915643D01*
X148451Y915726D01*
X148495Y915807D01*
X148542Y915886D01*
X148593Y915963D01*
X148647Y916038D01*
X148704Y916111D01*
X148764Y916181D01*
X148827Y916248D01*
X148893Y916312D01*
X148961Y916374D01*
X149032Y916433D01*
X149106Y916488D01*
X149182Y916541D01*
X149260Y916590D01*
X149340Y916636D01*
X149421Y916678D01*
X149505Y916717D01*
X149590Y916752D01*
X149677Y916783D01*
X149765Y916811D01*
X149854Y916835D01*
X149944Y916855D01*
X150034Y916872D01*
X150126Y916884D01*
X150218Y916893D01*
X150310Y916897D01*
X150402Y916898D01*
X150629Y916892D01*
X150856Y916881D01*
X151083Y916864D01*
X151309Y916841D01*
X151535Y916814D01*
X151760Y916780D01*
X151984Y916742D01*
X152207Y916698D01*
X152429Y916649D01*
X152650Y916594D01*
X152869Y916534D01*
X153087Y916469D01*
X153303Y916398D01*
X153517Y916323D01*
X153730Y916242D01*
X153940Y916156D01*
X154149Y916065D01*
X153732Y911070D02*
X153817Y911034D01*
X153900Y910994D01*
X153981Y910951D01*
X154061Y910904D01*
X154138Y910854D01*
X154214Y910801D01*
X154287Y910745D01*
X154357Y910685D01*
X154425Y910623D01*
X154490Y910558D01*
X154552Y910490D01*
X154612Y910419D01*
X154668Y910346D01*
X154721Y910271D01*
X154771Y910193D01*
X154817Y910114D01*
X154860Y910032D01*
X154900Y909949D01*
X154936Y909864D01*
X154968Y909778D01*
X154997Y909690D01*
X155021Y909601D01*
X155042Y909511D01*
X155059Y909421D01*
X155073Y909330D01*
X155082Y909238D01*
X155087Y909146D01*
X155089Y909054D01*
X155087Y908962D01*
X155080Y908870D01*
X155070Y908778D01*
X155056Y908687D01*
X155038Y908596D01*
X155016Y908507D01*
X154990Y908418D01*
X154960Y908331D01*
X154927Y908245D01*
X154890Y908161D01*
X154850Y908078D01*
X154806Y907997D01*
X154759Y907918D01*
X154708Y907841D01*
X154654Y907766D01*
X154597Y907693D01*
X154537Y907623D01*
X154474Y907556D01*
X154408Y907492D01*
X154340Y907430D01*
X154269Y907371D01*
X154195Y907316D01*
X154119Y907263D01*
X154041Y907214D01*
X153961Y907168D01*
X153880Y907126D01*
X153796Y907087D01*
X153711Y907052D01*
X153624Y907021D01*
X153536Y906993D01*
X153447Y906969D01*
X153357Y906949D01*
X153267Y906932D01*
X153175Y906920D01*
X153083Y906911D01*
X152991Y906907D01*
X152899Y906906D01*
X152899Y906907D02*
X152565Y906916D01*
X152232Y906933D01*
X151899Y906957D01*
X151566Y906990D01*
X151235Y907030D01*
X150904Y907078D01*
X150575Y907134D01*
X150247Y907197D01*
X149921Y907269D01*
X149597Y907348D01*
X149274Y907434D01*
X148954Y907529D01*
X148636Y907631D01*
X148320Y907740D01*
X164392Y906907D02*
X167722Y906907D01*
X164392Y906907D02*
X164294Y906909D01*
X164196Y906915D01*
X164098Y906924D01*
X164001Y906938D01*
X163905Y906955D01*
X163809Y906976D01*
X163714Y907001D01*
X163620Y907029D01*
X163527Y907061D01*
X163436Y907097D01*
X163346Y907136D01*
X163258Y907179D01*
X163171Y907226D01*
X163087Y907275D01*
X163004Y907328D01*
X162924Y907384D01*
X162846Y907443D01*
X162770Y907506D01*
X162696Y907571D01*
X162626Y907639D01*
X162558Y907709D01*
X162493Y907783D01*
X162430Y907859D01*
X162371Y907937D01*
X162315Y908017D01*
X162262Y908100D01*
X162213Y908184D01*
X162166Y908271D01*
X162123Y908359D01*
X162084Y908449D01*
X162048Y908540D01*
X162016Y908633D01*
X161988Y908727D01*
X161963Y908822D01*
X161942Y908918D01*
X161925Y909014D01*
X161911Y909111D01*
X161902Y909209D01*
X161896Y909307D01*
X161894Y909405D01*
X161894Y914400D01*
X161896Y914498D01*
X161902Y914596D01*
X161911Y914694D01*
X161925Y914791D01*
X161942Y914887D01*
X161963Y914983D01*
X161988Y915078D01*
X162016Y915172D01*
X162048Y915265D01*
X162084Y915356D01*
X162123Y915446D01*
X162166Y915534D01*
X162213Y915621D01*
X162262Y915705D01*
X162315Y915788D01*
X162371Y915868D01*
X162430Y915947D01*
X162493Y916022D01*
X162558Y916096D01*
X162626Y916166D01*
X162696Y916234D01*
X162770Y916300D01*
X162846Y916362D01*
X162924Y916421D01*
X163004Y916477D01*
X163087Y916530D01*
X163171Y916580D01*
X163258Y916626D01*
X163346Y916669D01*
X163436Y916708D01*
X163527Y916744D01*
X163620Y916776D01*
X163714Y916804D01*
X163809Y916829D01*
X163905Y916850D01*
X164001Y916867D01*
X164098Y916881D01*
X164196Y916890D01*
X164294Y916896D01*
X164392Y916898D01*
X167722Y916898D01*
X173852Y913567D02*
X173852Y910237D01*
X173852Y913567D02*
X173854Y913681D01*
X173860Y913794D01*
X173869Y913908D01*
X173883Y914020D01*
X173900Y914133D01*
X173922Y914245D01*
X173947Y914355D01*
X173975Y914465D01*
X174008Y914574D01*
X174044Y914682D01*
X174084Y914789D01*
X174128Y914894D01*
X174175Y914997D01*
X174225Y915099D01*
X174279Y915199D01*
X174337Y915297D01*
X174398Y915393D01*
X174461Y915487D01*
X174529Y915579D01*
X174599Y915669D01*
X174672Y915755D01*
X174748Y915840D01*
X174827Y915922D01*
X174909Y916001D01*
X174994Y916077D01*
X175080Y916150D01*
X175170Y916220D01*
X175262Y916288D01*
X175356Y916351D01*
X175452Y916412D01*
X175550Y916470D01*
X175650Y916524D01*
X175752Y916574D01*
X175855Y916621D01*
X175960Y916665D01*
X176067Y916705D01*
X176175Y916741D01*
X176284Y916774D01*
X176394Y916802D01*
X176504Y916827D01*
X176616Y916849D01*
X176729Y916866D01*
X176841Y916880D01*
X176955Y916889D01*
X177068Y916895D01*
X177182Y916897D01*
X177296Y916895D01*
X177409Y916889D01*
X177523Y916880D01*
X177635Y916866D01*
X177748Y916849D01*
X177860Y916827D01*
X177970Y916802D01*
X178080Y916774D01*
X178189Y916741D01*
X178297Y916705D01*
X178404Y916665D01*
X178509Y916621D01*
X178612Y916574D01*
X178714Y916524D01*
X178814Y916470D01*
X178912Y916412D01*
X179008Y916351D01*
X179102Y916288D01*
X179194Y916220D01*
X179284Y916150D01*
X179370Y916077D01*
X179455Y916001D01*
X179537Y915922D01*
X179616Y915840D01*
X179692Y915755D01*
X179765Y915669D01*
X179835Y915579D01*
X179903Y915487D01*
X179966Y915393D01*
X180027Y915297D01*
X180085Y915199D01*
X180139Y915099D01*
X180189Y914997D01*
X180236Y914894D01*
X180280Y914789D01*
X180320Y914682D01*
X180356Y914574D01*
X180389Y914465D01*
X180417Y914355D01*
X180442Y914245D01*
X180464Y914133D01*
X180481Y914020D01*
X180495Y913908D01*
X180504Y913794D01*
X180510Y913681D01*
X180512Y913567D01*
X180512Y910237D01*
X180510Y910123D01*
X180504Y910010D01*
X180495Y909896D01*
X180481Y909784D01*
X180464Y909671D01*
X180442Y909559D01*
X180417Y909449D01*
X180389Y909339D01*
X180356Y909230D01*
X180320Y909122D01*
X180280Y909015D01*
X180236Y908910D01*
X180189Y908807D01*
X180139Y908705D01*
X180085Y908605D01*
X180027Y908507D01*
X179966Y908411D01*
X179903Y908317D01*
X179835Y908225D01*
X179765Y908135D01*
X179692Y908049D01*
X179616Y907964D01*
X179537Y907882D01*
X179455Y907803D01*
X179370Y907727D01*
X179284Y907654D01*
X179194Y907584D01*
X179102Y907516D01*
X179008Y907453D01*
X178912Y907392D01*
X178814Y907334D01*
X178714Y907280D01*
X178612Y907230D01*
X178509Y907183D01*
X178404Y907139D01*
X178297Y907099D01*
X178189Y907063D01*
X178080Y907030D01*
X177970Y907002D01*
X177860Y906977D01*
X177748Y906955D01*
X177635Y906938D01*
X177523Y906924D01*
X177409Y906915D01*
X177296Y906909D01*
X177182Y906907D01*
X177068Y906909D01*
X176955Y906915D01*
X176841Y906924D01*
X176729Y906938D01*
X176616Y906955D01*
X176504Y906977D01*
X176394Y907002D01*
X176284Y907030D01*
X176175Y907063D01*
X176067Y907099D01*
X175960Y907139D01*
X175855Y907183D01*
X175752Y907230D01*
X175650Y907280D01*
X175550Y907334D01*
X175452Y907392D01*
X175356Y907453D01*
X175262Y907516D01*
X175170Y907584D01*
X175080Y907654D01*
X174994Y907727D01*
X174909Y907803D01*
X174827Y907882D01*
X174748Y907964D01*
X174672Y908049D01*
X174599Y908135D01*
X174529Y908225D01*
X174461Y908317D01*
X174398Y908411D01*
X174337Y908507D01*
X174279Y908605D01*
X174225Y908705D01*
X174175Y908807D01*
X174128Y908910D01*
X174084Y909015D01*
X174044Y909122D01*
X174008Y909230D01*
X173975Y909339D01*
X173947Y909449D01*
X173922Y909559D01*
X173900Y909671D01*
X173883Y909784D01*
X173869Y909896D01*
X173860Y910010D01*
X173854Y910123D01*
X173852Y910237D01*
X188048Y906907D02*
X188048Y916898D01*
X193043Y916898D01*
X193043Y915233D01*
X200838Y906907D02*
X205001Y906907D01*
X200838Y906907D02*
X200740Y906909D01*
X200642Y906915D01*
X200544Y906924D01*
X200447Y906938D01*
X200351Y906955D01*
X200255Y906976D01*
X200160Y907001D01*
X200066Y907029D01*
X199973Y907061D01*
X199882Y907097D01*
X199792Y907136D01*
X199704Y907179D01*
X199617Y907226D01*
X199533Y907275D01*
X199450Y907328D01*
X199370Y907384D01*
X199292Y907443D01*
X199216Y907506D01*
X199142Y907571D01*
X199072Y907639D01*
X199004Y907709D01*
X198939Y907783D01*
X198876Y907859D01*
X198817Y907937D01*
X198761Y908017D01*
X198708Y908100D01*
X198659Y908184D01*
X198612Y908271D01*
X198569Y908359D01*
X198530Y908449D01*
X198494Y908540D01*
X198462Y908633D01*
X198434Y908727D01*
X198409Y908822D01*
X198388Y908918D01*
X198371Y909014D01*
X198357Y909111D01*
X198348Y909209D01*
X198342Y909307D01*
X198340Y909405D01*
X198340Y913567D01*
X198341Y913567D02*
X198343Y913681D01*
X198349Y913794D01*
X198358Y913908D01*
X198372Y914020D01*
X198389Y914133D01*
X198411Y914245D01*
X198436Y914355D01*
X198464Y914465D01*
X198497Y914574D01*
X198533Y914682D01*
X198573Y914789D01*
X198617Y914894D01*
X198664Y914997D01*
X198714Y915099D01*
X198768Y915199D01*
X198826Y915297D01*
X198887Y915393D01*
X198950Y915487D01*
X199018Y915579D01*
X199088Y915669D01*
X199161Y915755D01*
X199237Y915840D01*
X199316Y915922D01*
X199398Y916001D01*
X199483Y916077D01*
X199569Y916150D01*
X199659Y916220D01*
X199751Y916288D01*
X199845Y916351D01*
X199941Y916412D01*
X200039Y916470D01*
X200139Y916524D01*
X200241Y916574D01*
X200344Y916621D01*
X200449Y916665D01*
X200556Y916705D01*
X200664Y916741D01*
X200773Y916774D01*
X200883Y916802D01*
X200993Y916827D01*
X201105Y916849D01*
X201218Y916866D01*
X201330Y916880D01*
X201444Y916889D01*
X201557Y916895D01*
X201671Y916897D01*
X201785Y916895D01*
X201898Y916889D01*
X202012Y916880D01*
X202124Y916866D01*
X202237Y916849D01*
X202349Y916827D01*
X202459Y916802D01*
X202569Y916774D01*
X202678Y916741D01*
X202786Y916705D01*
X202893Y916665D01*
X202998Y916621D01*
X203101Y916574D01*
X203203Y916524D01*
X203303Y916470D01*
X203401Y916412D01*
X203497Y916351D01*
X203591Y916288D01*
X203683Y916220D01*
X203773Y916150D01*
X203859Y916077D01*
X203944Y916001D01*
X204026Y915922D01*
X204105Y915840D01*
X204181Y915755D01*
X204254Y915669D01*
X204324Y915579D01*
X204392Y915487D01*
X204455Y915393D01*
X204516Y915297D01*
X204574Y915199D01*
X204628Y915099D01*
X204678Y914997D01*
X204725Y914894D01*
X204769Y914789D01*
X204809Y914682D01*
X204845Y914574D01*
X204878Y914465D01*
X204906Y914355D01*
X204931Y914245D01*
X204953Y914133D01*
X204970Y914020D01*
X204984Y913908D01*
X204993Y913794D01*
X204999Y913681D01*
X205001Y913567D01*
X205001Y911902D01*
X198340Y911902D01*
D11*
X325120Y891540D02*
X325120Y-68580D01*
D12*
X284739Y906907D02*
X281409Y916898D01*
X288070Y916898D02*
X284739Y906907D01*
X294854Y912735D02*
X304845Y912735D01*
X313399Y912735D02*
X317562Y911070D01*
X313399Y912734D02*
X313314Y912770D01*
X313231Y912810D01*
X313150Y912853D01*
X313070Y912900D01*
X312993Y912950D01*
X312917Y913003D01*
X312844Y913059D01*
X312774Y913119D01*
X312706Y913181D01*
X312641Y913246D01*
X312579Y913314D01*
X312519Y913385D01*
X312463Y913458D01*
X312410Y913533D01*
X312360Y913611D01*
X312314Y913690D01*
X312271Y913772D01*
X312231Y913855D01*
X312195Y913940D01*
X312163Y914026D01*
X312134Y914114D01*
X312110Y914203D01*
X312089Y914293D01*
X312072Y914383D01*
X312058Y914474D01*
X312049Y914566D01*
X312044Y914658D01*
X312042Y914750D01*
X312044Y914842D01*
X312051Y914934D01*
X312061Y915026D01*
X312075Y915117D01*
X312093Y915208D01*
X312115Y915297D01*
X312141Y915386D01*
X312171Y915473D01*
X312204Y915559D01*
X312241Y915643D01*
X312281Y915726D01*
X312325Y915807D01*
X312372Y915886D01*
X312423Y915963D01*
X312477Y916038D01*
X312534Y916111D01*
X312594Y916181D01*
X312657Y916248D01*
X312723Y916312D01*
X312791Y916374D01*
X312862Y916433D01*
X312936Y916488D01*
X313012Y916541D01*
X313090Y916590D01*
X313170Y916636D01*
X313251Y916678D01*
X313335Y916717D01*
X313420Y916752D01*
X313507Y916783D01*
X313595Y916811D01*
X313684Y916835D01*
X313774Y916855D01*
X313864Y916872D01*
X313956Y916884D01*
X314048Y916893D01*
X314140Y916897D01*
X314232Y916898D01*
X314459Y916892D01*
X314686Y916881D01*
X314913Y916864D01*
X315139Y916841D01*
X315365Y916814D01*
X315590Y916780D01*
X315814Y916742D01*
X316037Y916698D01*
X316259Y916649D01*
X316480Y916594D01*
X316699Y916534D01*
X316917Y916469D01*
X317133Y916398D01*
X317347Y916323D01*
X317560Y916242D01*
X317770Y916156D01*
X317979Y916065D01*
X317562Y911070D02*
X317647Y911034D01*
X317730Y910994D01*
X317811Y910951D01*
X317891Y910904D01*
X317968Y910854D01*
X318044Y910801D01*
X318117Y910745D01*
X318187Y910685D01*
X318255Y910623D01*
X318320Y910558D01*
X318382Y910490D01*
X318442Y910419D01*
X318498Y910346D01*
X318551Y910271D01*
X318601Y910193D01*
X318647Y910114D01*
X318690Y910032D01*
X318730Y909949D01*
X318766Y909864D01*
X318798Y909778D01*
X318827Y909690D01*
X318851Y909601D01*
X318872Y909511D01*
X318889Y909421D01*
X318903Y909330D01*
X318912Y909238D01*
X318917Y909146D01*
X318919Y909054D01*
X318917Y908962D01*
X318910Y908870D01*
X318900Y908778D01*
X318886Y908687D01*
X318868Y908596D01*
X318846Y908507D01*
X318820Y908418D01*
X318790Y908331D01*
X318757Y908245D01*
X318720Y908161D01*
X318680Y908078D01*
X318636Y907997D01*
X318589Y907918D01*
X318538Y907841D01*
X318484Y907766D01*
X318427Y907693D01*
X318367Y907623D01*
X318304Y907556D01*
X318238Y907492D01*
X318170Y907430D01*
X318099Y907371D01*
X318025Y907316D01*
X317949Y907263D01*
X317871Y907214D01*
X317791Y907168D01*
X317710Y907126D01*
X317626Y907087D01*
X317541Y907052D01*
X317454Y907021D01*
X317366Y906993D01*
X317277Y906969D01*
X317187Y906949D01*
X317097Y906932D01*
X317005Y906920D01*
X316913Y906911D01*
X316821Y906907D01*
X316729Y906906D01*
X316729Y906907D02*
X316395Y906916D01*
X316062Y906933D01*
X315729Y906957D01*
X315396Y906990D01*
X315065Y907030D01*
X314734Y907078D01*
X314405Y907134D01*
X314077Y907197D01*
X313751Y907269D01*
X313427Y907348D01*
X313104Y907434D01*
X312784Y907529D01*
X312466Y907631D01*
X312150Y907740D01*
X328222Y906907D02*
X331552Y906907D01*
X328222Y906907D02*
X328124Y906909D01*
X328026Y906915D01*
X327928Y906924D01*
X327831Y906938D01*
X327735Y906955D01*
X327639Y906976D01*
X327544Y907001D01*
X327450Y907029D01*
X327357Y907061D01*
X327266Y907097D01*
X327176Y907136D01*
X327088Y907179D01*
X327001Y907226D01*
X326917Y907275D01*
X326834Y907328D01*
X326754Y907384D01*
X326676Y907443D01*
X326600Y907506D01*
X326526Y907571D01*
X326456Y907639D01*
X326388Y907709D01*
X326323Y907783D01*
X326260Y907859D01*
X326201Y907937D01*
X326145Y908017D01*
X326092Y908100D01*
X326043Y908184D01*
X325996Y908271D01*
X325953Y908359D01*
X325914Y908449D01*
X325878Y908540D01*
X325846Y908633D01*
X325818Y908727D01*
X325793Y908822D01*
X325772Y908918D01*
X325755Y909014D01*
X325741Y909111D01*
X325732Y909209D01*
X325726Y909307D01*
X325724Y909405D01*
X325724Y914400D01*
X325726Y914498D01*
X325732Y914596D01*
X325741Y914694D01*
X325755Y914791D01*
X325772Y914887D01*
X325793Y914983D01*
X325818Y915078D01*
X325846Y915172D01*
X325878Y915265D01*
X325914Y915356D01*
X325953Y915446D01*
X325996Y915534D01*
X326043Y915621D01*
X326092Y915705D01*
X326145Y915788D01*
X326201Y915868D01*
X326260Y915947D01*
X326323Y916022D01*
X326388Y916096D01*
X326456Y916166D01*
X326526Y916234D01*
X326600Y916300D01*
X326676Y916362D01*
X326754Y916421D01*
X326834Y916477D01*
X326917Y916530D01*
X327001Y916580D01*
X327088Y916626D01*
X327176Y916669D01*
X327266Y916708D01*
X327357Y916744D01*
X327450Y916776D01*
X327544Y916804D01*
X327639Y916829D01*
X327735Y916850D01*
X327831Y916867D01*
X327928Y916881D01*
X328026Y916890D01*
X328124Y916896D01*
X328222Y916898D01*
X331552Y916898D01*
X337682Y913567D02*
X337682Y910237D01*
X337682Y913567D02*
X337684Y913681D01*
X337690Y913794D01*
X337699Y913908D01*
X337713Y914020D01*
X337730Y914133D01*
X337752Y914245D01*
X337777Y914355D01*
X337805Y914465D01*
X337838Y914574D01*
X337874Y914682D01*
X337914Y914789D01*
X337958Y914894D01*
X338005Y914997D01*
X338055Y915099D01*
X338109Y915199D01*
X338167Y915297D01*
X338228Y915393D01*
X338291Y915487D01*
X338359Y915579D01*
X338429Y915669D01*
X338502Y915755D01*
X338578Y915840D01*
X338657Y915922D01*
X338739Y916001D01*
X338824Y916077D01*
X338910Y916150D01*
X339000Y916220D01*
X339092Y916288D01*
X339186Y916351D01*
X339282Y916412D01*
X339380Y916470D01*
X339480Y916524D01*
X339582Y916574D01*
X339685Y916621D01*
X339790Y916665D01*
X339897Y916705D01*
X340005Y916741D01*
X340114Y916774D01*
X340224Y916802D01*
X340334Y916827D01*
X340446Y916849D01*
X340559Y916866D01*
X340671Y916880D01*
X340785Y916889D01*
X340898Y916895D01*
X341012Y916897D01*
X341126Y916895D01*
X341239Y916889D01*
X341353Y916880D01*
X341465Y916866D01*
X341578Y916849D01*
X341690Y916827D01*
X341800Y916802D01*
X341910Y916774D01*
X342019Y916741D01*
X342127Y916705D01*
X342234Y916665D01*
X342339Y916621D01*
X342442Y916574D01*
X342544Y916524D01*
X342644Y916470D01*
X342742Y916412D01*
X342838Y916351D01*
X342932Y916288D01*
X343024Y916220D01*
X343114Y916150D01*
X343200Y916077D01*
X343285Y916001D01*
X343367Y915922D01*
X343446Y915840D01*
X343522Y915755D01*
X343595Y915669D01*
X343665Y915579D01*
X343733Y915487D01*
X343796Y915393D01*
X343857Y915297D01*
X343915Y915199D01*
X343969Y915099D01*
X344019Y914997D01*
X344066Y914894D01*
X344110Y914789D01*
X344150Y914682D01*
X344186Y914574D01*
X344219Y914465D01*
X344247Y914355D01*
X344272Y914245D01*
X344294Y914133D01*
X344311Y914020D01*
X344325Y913908D01*
X344334Y913794D01*
X344340Y913681D01*
X344342Y913567D01*
X344342Y910237D01*
X344340Y910123D01*
X344334Y910010D01*
X344325Y909896D01*
X344311Y909784D01*
X344294Y909671D01*
X344272Y909559D01*
X344247Y909449D01*
X344219Y909339D01*
X344186Y909230D01*
X344150Y909122D01*
X344110Y909015D01*
X344066Y908910D01*
X344019Y908807D01*
X343969Y908705D01*
X343915Y908605D01*
X343857Y908507D01*
X343796Y908411D01*
X343733Y908317D01*
X343665Y908225D01*
X343595Y908135D01*
X343522Y908049D01*
X343446Y907964D01*
X343367Y907882D01*
X343285Y907803D01*
X343200Y907727D01*
X343114Y907654D01*
X343024Y907584D01*
X342932Y907516D01*
X342838Y907453D01*
X342742Y907392D01*
X342644Y907334D01*
X342544Y907280D01*
X342442Y907230D01*
X342339Y907183D01*
X342234Y907139D01*
X342127Y907099D01*
X342019Y907063D01*
X341910Y907030D01*
X341800Y907002D01*
X341690Y906977D01*
X341578Y906955D01*
X341465Y906938D01*
X341353Y906924D01*
X341239Y906915D01*
X341126Y906909D01*
X341012Y906907D01*
X340898Y906909D01*
X340785Y906915D01*
X340671Y906924D01*
X340559Y906938D01*
X340446Y906955D01*
X340334Y906977D01*
X340224Y907002D01*
X340114Y907030D01*
X340005Y907063D01*
X339897Y907099D01*
X339790Y907139D01*
X339685Y907183D01*
X339582Y907230D01*
X339480Y907280D01*
X339380Y907334D01*
X339282Y907392D01*
X339186Y907453D01*
X339092Y907516D01*
X339000Y907584D01*
X338910Y907654D01*
X338824Y907727D01*
X338739Y907803D01*
X338657Y907882D01*
X338578Y907964D01*
X338502Y908049D01*
X338429Y908135D01*
X338359Y908225D01*
X338291Y908317D01*
X338228Y908411D01*
X338167Y908507D01*
X338109Y908605D01*
X338055Y908705D01*
X338005Y908807D01*
X337958Y908910D01*
X337914Y909015D01*
X337874Y909122D01*
X337838Y909230D01*
X337805Y909339D01*
X337777Y909449D01*
X337752Y909559D01*
X337730Y909671D01*
X337713Y909784D01*
X337699Y909896D01*
X337690Y910010D01*
X337684Y910123D01*
X337682Y910237D01*
X351878Y906907D02*
X351878Y916898D01*
X356873Y916898D01*
X356873Y915233D01*
X364668Y906907D02*
X368831Y906907D01*
X364668Y906907D02*
X364570Y906909D01*
X364472Y906915D01*
X364374Y906924D01*
X364277Y906938D01*
X364181Y906955D01*
X364085Y906976D01*
X363990Y907001D01*
X363896Y907029D01*
X363803Y907061D01*
X363712Y907097D01*
X363622Y907136D01*
X363534Y907179D01*
X363447Y907226D01*
X363363Y907275D01*
X363280Y907328D01*
X363200Y907384D01*
X363122Y907443D01*
X363046Y907506D01*
X362972Y907571D01*
X362902Y907639D01*
X362834Y907709D01*
X362769Y907783D01*
X362706Y907859D01*
X362647Y907937D01*
X362591Y908017D01*
X362538Y908100D01*
X362489Y908184D01*
X362442Y908271D01*
X362399Y908359D01*
X362360Y908449D01*
X362324Y908540D01*
X362292Y908633D01*
X362264Y908727D01*
X362239Y908822D01*
X362218Y908918D01*
X362201Y909014D01*
X362187Y909111D01*
X362178Y909209D01*
X362172Y909307D01*
X362170Y909405D01*
X362170Y913567D01*
X362171Y913567D02*
X362173Y913681D01*
X362179Y913794D01*
X362188Y913908D01*
X362202Y914020D01*
X362219Y914133D01*
X362241Y914245D01*
X362266Y914355D01*
X362294Y914465D01*
X362327Y914574D01*
X362363Y914682D01*
X362403Y914789D01*
X362447Y914894D01*
X362494Y914997D01*
X362544Y915099D01*
X362598Y915199D01*
X362656Y915297D01*
X362717Y915393D01*
X362780Y915487D01*
X362848Y915579D01*
X362918Y915669D01*
X362991Y915755D01*
X363067Y915840D01*
X363146Y915922D01*
X363228Y916001D01*
X363313Y916077D01*
X363399Y916150D01*
X363489Y916220D01*
X363581Y916288D01*
X363675Y916351D01*
X363771Y916412D01*
X363869Y916470D01*
X363969Y916524D01*
X364071Y916574D01*
X364174Y916621D01*
X364279Y916665D01*
X364386Y916705D01*
X364494Y916741D01*
X364603Y916774D01*
X364713Y916802D01*
X364823Y916827D01*
X364935Y916849D01*
X365048Y916866D01*
X365160Y916880D01*
X365274Y916889D01*
X365387Y916895D01*
X365501Y916897D01*
X365615Y916895D01*
X365728Y916889D01*
X365842Y916880D01*
X365954Y916866D01*
X366067Y916849D01*
X366179Y916827D01*
X366289Y916802D01*
X366399Y916774D01*
X366508Y916741D01*
X366616Y916705D01*
X366723Y916665D01*
X366828Y916621D01*
X366931Y916574D01*
X367033Y916524D01*
X367133Y916470D01*
X367231Y916412D01*
X367327Y916351D01*
X367421Y916288D01*
X367513Y916220D01*
X367603Y916150D01*
X367689Y916077D01*
X367774Y916001D01*
X367856Y915922D01*
X367935Y915840D01*
X368011Y915755D01*
X368084Y915669D01*
X368154Y915579D01*
X368222Y915487D01*
X368285Y915393D01*
X368346Y915297D01*
X368404Y915199D01*
X368458Y915099D01*
X368508Y914997D01*
X368555Y914894D01*
X368599Y914789D01*
X368639Y914682D01*
X368675Y914574D01*
X368708Y914465D01*
X368736Y914355D01*
X368761Y914245D01*
X368783Y914133D01*
X368800Y914020D01*
X368814Y913908D01*
X368823Y913794D01*
X368829Y913681D01*
X368831Y913567D01*
X368831Y911902D01*
X362170Y911902D01*
D11*
X488950Y891540D02*
X488950Y-68580D01*
D12*
X448569Y906907D02*
X445239Y916898D01*
X451900Y916898D02*
X448569Y906907D01*
X458684Y912735D02*
X468675Y912735D01*
X477229Y912735D02*
X481392Y911070D01*
X477229Y912734D02*
X477144Y912770D01*
X477061Y912810D01*
X476980Y912853D01*
X476900Y912900D01*
X476823Y912950D01*
X476747Y913003D01*
X476674Y913059D01*
X476604Y913119D01*
X476536Y913181D01*
X476471Y913246D01*
X476409Y913314D01*
X476349Y913385D01*
X476293Y913458D01*
X476240Y913533D01*
X476190Y913611D01*
X476144Y913690D01*
X476101Y913772D01*
X476061Y913855D01*
X476025Y913940D01*
X475993Y914026D01*
X475964Y914114D01*
X475940Y914203D01*
X475919Y914293D01*
X475902Y914383D01*
X475888Y914474D01*
X475879Y914566D01*
X475874Y914658D01*
X475872Y914750D01*
X475874Y914842D01*
X475881Y914934D01*
X475891Y915026D01*
X475905Y915117D01*
X475923Y915208D01*
X475945Y915297D01*
X475971Y915386D01*
X476001Y915473D01*
X476034Y915559D01*
X476071Y915643D01*
X476111Y915726D01*
X476155Y915807D01*
X476202Y915886D01*
X476253Y915963D01*
X476307Y916038D01*
X476364Y916111D01*
X476424Y916181D01*
X476487Y916248D01*
X476553Y916312D01*
X476621Y916374D01*
X476692Y916433D01*
X476766Y916488D01*
X476842Y916541D01*
X476920Y916590D01*
X477000Y916636D01*
X477081Y916678D01*
X477165Y916717D01*
X477250Y916752D01*
X477337Y916783D01*
X477425Y916811D01*
X477514Y916835D01*
X477604Y916855D01*
X477694Y916872D01*
X477786Y916884D01*
X477878Y916893D01*
X477970Y916897D01*
X478062Y916898D01*
X478289Y916892D01*
X478516Y916881D01*
X478743Y916864D01*
X478969Y916841D01*
X479195Y916814D01*
X479420Y916780D01*
X479644Y916742D01*
X479867Y916698D01*
X480089Y916649D01*
X480310Y916594D01*
X480529Y916534D01*
X480747Y916469D01*
X480963Y916398D01*
X481177Y916323D01*
X481390Y916242D01*
X481600Y916156D01*
X481809Y916065D01*
X481392Y911070D02*
X481477Y911034D01*
X481560Y910994D01*
X481641Y910951D01*
X481721Y910904D01*
X481798Y910854D01*
X481874Y910801D01*
X481947Y910745D01*
X482017Y910685D01*
X482085Y910623D01*
X482150Y910558D01*
X482212Y910490D01*
X482272Y910419D01*
X482328Y910346D01*
X482381Y910271D01*
X482431Y910193D01*
X482477Y910114D01*
X482520Y910032D01*
X482560Y909949D01*
X482596Y909864D01*
X482628Y909778D01*
X482657Y909690D01*
X482681Y909601D01*
X482702Y909511D01*
X482719Y909421D01*
X482733Y909330D01*
X482742Y909238D01*
X482747Y909146D01*
X482749Y909054D01*
X482747Y908962D01*
X482740Y908870D01*
X482730Y908778D01*
X482716Y908687D01*
X482698Y908596D01*
X482676Y908507D01*
X482650Y908418D01*
X482620Y908331D01*
X482587Y908245D01*
X482550Y908161D01*
X482510Y908078D01*
X482466Y907997D01*
X482419Y907918D01*
X482368Y907841D01*
X482314Y907766D01*
X482257Y907693D01*
X482197Y907623D01*
X482134Y907556D01*
X482068Y907492D01*
X482000Y907430D01*
X481929Y907371D01*
X481855Y907316D01*
X481779Y907263D01*
X481701Y907214D01*
X481621Y907168D01*
X481540Y907126D01*
X481456Y907087D01*
X481371Y907052D01*
X481284Y907021D01*
X481196Y906993D01*
X481107Y906969D01*
X481017Y906949D01*
X480927Y906932D01*
X480835Y906920D01*
X480743Y906911D01*
X480651Y906907D01*
X480559Y906906D01*
X480559Y906907D02*
X480225Y906916D01*
X479892Y906933D01*
X479559Y906957D01*
X479226Y906990D01*
X478895Y907030D01*
X478564Y907078D01*
X478235Y907134D01*
X477907Y907197D01*
X477581Y907269D01*
X477257Y907348D01*
X476934Y907434D01*
X476614Y907529D01*
X476296Y907631D01*
X475980Y907740D01*
X492052Y906907D02*
X495382Y906907D01*
X492052Y906907D02*
X491954Y906909D01*
X491856Y906915D01*
X491758Y906924D01*
X491661Y906938D01*
X491565Y906955D01*
X491469Y906976D01*
X491374Y907001D01*
X491280Y907029D01*
X491187Y907061D01*
X491096Y907097D01*
X491006Y907136D01*
X490918Y907179D01*
X490831Y907226D01*
X490747Y907275D01*
X490664Y907328D01*
X490584Y907384D01*
X490506Y907443D01*
X490430Y907506D01*
X490356Y907571D01*
X490286Y907639D01*
X490218Y907709D01*
X490153Y907783D01*
X490090Y907859D01*
X490031Y907937D01*
X489975Y908017D01*
X489922Y908100D01*
X489873Y908184D01*
X489826Y908271D01*
X489783Y908359D01*
X489744Y908449D01*
X489708Y908540D01*
X489676Y908633D01*
X489648Y908727D01*
X489623Y908822D01*
X489602Y908918D01*
X489585Y909014D01*
X489571Y909111D01*
X489562Y909209D01*
X489556Y909307D01*
X489554Y909405D01*
X489554Y914400D01*
X489556Y914498D01*
X489562Y914596D01*
X489571Y914694D01*
X489585Y914791D01*
X489602Y914887D01*
X489623Y914983D01*
X489648Y915078D01*
X489676Y915172D01*
X489708Y915265D01*
X489744Y915356D01*
X489783Y915446D01*
X489826Y915534D01*
X489873Y915621D01*
X489922Y915705D01*
X489975Y915788D01*
X490031Y915868D01*
X490090Y915947D01*
X490153Y916022D01*
X490218Y916096D01*
X490286Y916166D01*
X490356Y916234D01*
X490430Y916300D01*
X490506Y916362D01*
X490584Y916421D01*
X490664Y916477D01*
X490747Y916530D01*
X490831Y916580D01*
X490918Y916626D01*
X491006Y916669D01*
X491096Y916708D01*
X491187Y916744D01*
X491280Y916776D01*
X491374Y916804D01*
X491469Y916829D01*
X491565Y916850D01*
X491661Y916867D01*
X491758Y916881D01*
X491856Y916890D01*
X491954Y916896D01*
X492052Y916898D01*
X495382Y916898D01*
X501512Y913567D02*
X501512Y910237D01*
X501512Y913567D02*
X501514Y913681D01*
X501520Y913794D01*
X501529Y913908D01*
X501543Y914020D01*
X501560Y914133D01*
X501582Y914245D01*
X501607Y914355D01*
X501635Y914465D01*
X501668Y914574D01*
X501704Y914682D01*
X501744Y914789D01*
X501788Y914894D01*
X501835Y914997D01*
X501885Y915099D01*
X501939Y915199D01*
X501997Y915297D01*
X502058Y915393D01*
X502121Y915487D01*
X502189Y915579D01*
X502259Y915669D01*
X502332Y915755D01*
X502408Y915840D01*
X502487Y915922D01*
X502569Y916001D01*
X502654Y916077D01*
X502740Y916150D01*
X502830Y916220D01*
X502922Y916288D01*
X503016Y916351D01*
X503112Y916412D01*
X503210Y916470D01*
X503310Y916524D01*
X503412Y916574D01*
X503515Y916621D01*
X503620Y916665D01*
X503727Y916705D01*
X503835Y916741D01*
X503944Y916774D01*
X504054Y916802D01*
X504164Y916827D01*
X504276Y916849D01*
X504389Y916866D01*
X504501Y916880D01*
X504615Y916889D01*
X504728Y916895D01*
X504842Y916897D01*
X504956Y916895D01*
X505069Y916889D01*
X505183Y916880D01*
X505295Y916866D01*
X505408Y916849D01*
X505520Y916827D01*
X505630Y916802D01*
X505740Y916774D01*
X505849Y916741D01*
X505957Y916705D01*
X506064Y916665D01*
X506169Y916621D01*
X506272Y916574D01*
X506374Y916524D01*
X506474Y916470D01*
X506572Y916412D01*
X506668Y916351D01*
X506762Y916288D01*
X506854Y916220D01*
X506944Y916150D01*
X507030Y916077D01*
X507115Y916001D01*
X507197Y915922D01*
X507276Y915840D01*
X507352Y915755D01*
X507425Y915669D01*
X507495Y915579D01*
X507563Y915487D01*
X507626Y915393D01*
X507687Y915297D01*
X507745Y915199D01*
X507799Y915099D01*
X507849Y914997D01*
X507896Y914894D01*
X507940Y914789D01*
X507980Y914682D01*
X508016Y914574D01*
X508049Y914465D01*
X508077Y914355D01*
X508102Y914245D01*
X508124Y914133D01*
X508141Y914020D01*
X508155Y913908D01*
X508164Y913794D01*
X508170Y913681D01*
X508172Y913567D01*
X508172Y910237D01*
X508170Y910123D01*
X508164Y910010D01*
X508155Y909896D01*
X508141Y909784D01*
X508124Y909671D01*
X508102Y909559D01*
X508077Y909449D01*
X508049Y909339D01*
X508016Y909230D01*
X507980Y909122D01*
X507940Y909015D01*
X507896Y908910D01*
X507849Y908807D01*
X507799Y908705D01*
X507745Y908605D01*
X507687Y908507D01*
X507626Y908411D01*
X507563Y908317D01*
X507495Y908225D01*
X507425Y908135D01*
X507352Y908049D01*
X507276Y907964D01*
X507197Y907882D01*
X507115Y907803D01*
X507030Y907727D01*
X506944Y907654D01*
X506854Y907584D01*
X506762Y907516D01*
X506668Y907453D01*
X506572Y907392D01*
X506474Y907334D01*
X506374Y907280D01*
X506272Y907230D01*
X506169Y907183D01*
X506064Y907139D01*
X505957Y907099D01*
X505849Y907063D01*
X505740Y907030D01*
X505630Y907002D01*
X505520Y906977D01*
X505408Y906955D01*
X505295Y906938D01*
X505183Y906924D01*
X505069Y906915D01*
X504956Y906909D01*
X504842Y906907D01*
X504728Y906909D01*
X504615Y906915D01*
X504501Y906924D01*
X504389Y906938D01*
X504276Y906955D01*
X504164Y906977D01*
X504054Y907002D01*
X503944Y907030D01*
X503835Y907063D01*
X503727Y907099D01*
X503620Y907139D01*
X503515Y907183D01*
X503412Y907230D01*
X503310Y907280D01*
X503210Y907334D01*
X503112Y907392D01*
X503016Y907453D01*
X502922Y907516D01*
X502830Y907584D01*
X502740Y907654D01*
X502654Y907727D01*
X502569Y907803D01*
X502487Y907882D01*
X502408Y907964D01*
X502332Y908049D01*
X502259Y908135D01*
X502189Y908225D01*
X502121Y908317D01*
X502058Y908411D01*
X501997Y908507D01*
X501939Y908605D01*
X501885Y908705D01*
X501835Y908807D01*
X501788Y908910D01*
X501744Y909015D01*
X501704Y909122D01*
X501668Y909230D01*
X501635Y909339D01*
X501607Y909449D01*
X501582Y909559D01*
X501560Y909671D01*
X501543Y909784D01*
X501529Y909896D01*
X501520Y910010D01*
X501514Y910123D01*
X501512Y910237D01*
X515708Y906907D02*
X515708Y916898D01*
X520703Y916898D01*
X520703Y915233D01*
X528498Y906907D02*
X532661Y906907D01*
X528498Y906907D02*
X528400Y906909D01*
X528302Y906915D01*
X528204Y906924D01*
X528107Y906938D01*
X528011Y906955D01*
X527915Y906976D01*
X527820Y907001D01*
X527726Y907029D01*
X527633Y907061D01*
X527542Y907097D01*
X527452Y907136D01*
X527364Y907179D01*
X527277Y907226D01*
X527193Y907275D01*
X527110Y907328D01*
X527030Y907384D01*
X526952Y907443D01*
X526876Y907506D01*
X526802Y907571D01*
X526732Y907639D01*
X526664Y907709D01*
X526599Y907783D01*
X526536Y907859D01*
X526477Y907937D01*
X526421Y908017D01*
X526368Y908100D01*
X526319Y908184D01*
X526272Y908271D01*
X526229Y908359D01*
X526190Y908449D01*
X526154Y908540D01*
X526122Y908633D01*
X526094Y908727D01*
X526069Y908822D01*
X526048Y908918D01*
X526031Y909014D01*
X526017Y909111D01*
X526008Y909209D01*
X526002Y909307D01*
X526000Y909405D01*
X526000Y913567D01*
X526001Y913567D02*
X526003Y913681D01*
X526009Y913794D01*
X526018Y913908D01*
X526032Y914020D01*
X526049Y914133D01*
X526071Y914245D01*
X526096Y914355D01*
X526124Y914465D01*
X526157Y914574D01*
X526193Y914682D01*
X526233Y914789D01*
X526277Y914894D01*
X526324Y914997D01*
X526374Y915099D01*
X526428Y915199D01*
X526486Y915297D01*
X526547Y915393D01*
X526610Y915487D01*
X526678Y915579D01*
X526748Y915669D01*
X526821Y915755D01*
X526897Y915840D01*
X526976Y915922D01*
X527058Y916001D01*
X527143Y916077D01*
X527229Y916150D01*
X527319Y916220D01*
X527411Y916288D01*
X527505Y916351D01*
X527601Y916412D01*
X527699Y916470D01*
X527799Y916524D01*
X527901Y916574D01*
X528004Y916621D01*
X528109Y916665D01*
X528216Y916705D01*
X528324Y916741D01*
X528433Y916774D01*
X528543Y916802D01*
X528653Y916827D01*
X528765Y916849D01*
X528878Y916866D01*
X528990Y916880D01*
X529104Y916889D01*
X529217Y916895D01*
X529331Y916897D01*
X529445Y916895D01*
X529558Y916889D01*
X529672Y916880D01*
X529784Y916866D01*
X529897Y916849D01*
X530009Y916827D01*
X530119Y916802D01*
X530229Y916774D01*
X530338Y916741D01*
X530446Y916705D01*
X530553Y916665D01*
X530658Y916621D01*
X530761Y916574D01*
X530863Y916524D01*
X530963Y916470D01*
X531061Y916412D01*
X531157Y916351D01*
X531251Y916288D01*
X531343Y916220D01*
X531433Y916150D01*
X531519Y916077D01*
X531604Y916001D01*
X531686Y915922D01*
X531765Y915840D01*
X531841Y915755D01*
X531914Y915669D01*
X531984Y915579D01*
X532052Y915487D01*
X532115Y915393D01*
X532176Y915297D01*
X532234Y915199D01*
X532288Y915099D01*
X532338Y914997D01*
X532385Y914894D01*
X532429Y914789D01*
X532469Y914682D01*
X532505Y914574D01*
X532538Y914465D01*
X532566Y914355D01*
X532591Y914245D01*
X532613Y914133D01*
X532630Y914020D01*
X532644Y913908D01*
X532653Y913794D01*
X532659Y913681D01*
X532661Y913567D01*
X532661Y911902D01*
X526000Y911902D01*
D11*
X652780Y891540D02*
X652780Y-68580D01*
D12*
X612399Y906907D02*
X609069Y916898D01*
X615730Y916898D02*
X612399Y906907D01*
X622514Y912735D02*
X632505Y912735D01*
X641059Y912735D02*
X645222Y911070D01*
X641059Y912734D02*
X640974Y912770D01*
X640891Y912810D01*
X640810Y912853D01*
X640730Y912900D01*
X640653Y912950D01*
X640577Y913003D01*
X640504Y913059D01*
X640434Y913119D01*
X640366Y913181D01*
X640301Y913246D01*
X640239Y913314D01*
X640179Y913385D01*
X640123Y913458D01*
X640070Y913533D01*
X640020Y913611D01*
X639974Y913690D01*
X639931Y913772D01*
X639891Y913855D01*
X639855Y913940D01*
X639823Y914026D01*
X639794Y914114D01*
X639770Y914203D01*
X639749Y914293D01*
X639732Y914383D01*
X639718Y914474D01*
X639709Y914566D01*
X639704Y914658D01*
X639702Y914750D01*
X639704Y914842D01*
X639711Y914934D01*
X639721Y915026D01*
X639735Y915117D01*
X639753Y915208D01*
X639775Y915297D01*
X639801Y915386D01*
X639831Y915473D01*
X639864Y915559D01*
X639901Y915643D01*
X639941Y915726D01*
X639985Y915807D01*
X640032Y915886D01*
X640083Y915963D01*
X640137Y916038D01*
X640194Y916111D01*
X640254Y916181D01*
X640317Y916248D01*
X640383Y916312D01*
X640451Y916374D01*
X640522Y916433D01*
X640596Y916488D01*
X640672Y916541D01*
X640750Y916590D01*
X640830Y916636D01*
X640911Y916678D01*
X640995Y916717D01*
X641080Y916752D01*
X641167Y916783D01*
X641255Y916811D01*
X641344Y916835D01*
X641434Y916855D01*
X641524Y916872D01*
X641616Y916884D01*
X641708Y916893D01*
X641800Y916897D01*
X641892Y916898D01*
X642119Y916892D01*
X642346Y916881D01*
X642573Y916864D01*
X642799Y916841D01*
X643025Y916814D01*
X643250Y916780D01*
X643474Y916742D01*
X643697Y916698D01*
X643919Y916649D01*
X644140Y916594D01*
X644359Y916534D01*
X644577Y916469D01*
X644793Y916398D01*
X645007Y916323D01*
X645220Y916242D01*
X645430Y916156D01*
X645639Y916065D01*
X645222Y911070D02*
X645307Y911034D01*
X645390Y910994D01*
X645471Y910951D01*
X645551Y910904D01*
X645628Y910854D01*
X645704Y910801D01*
X645777Y910745D01*
X645847Y910685D01*
X645915Y910623D01*
X645980Y910558D01*
X646042Y910490D01*
X646102Y910419D01*
X646158Y910346D01*
X646211Y910271D01*
X646261Y910193D01*
X646307Y910114D01*
X646350Y910032D01*
X646390Y909949D01*
X646426Y909864D01*
X646458Y909778D01*
X646487Y909690D01*
X646511Y909601D01*
X646532Y909511D01*
X646549Y909421D01*
X646563Y909330D01*
X646572Y909238D01*
X646577Y909146D01*
X646579Y909054D01*
X646577Y908962D01*
X646570Y908870D01*
X646560Y908778D01*
X646546Y908687D01*
X646528Y908596D01*
X646506Y908507D01*
X646480Y908418D01*
X646450Y908331D01*
X646417Y908245D01*
X646380Y908161D01*
X646340Y908078D01*
X646296Y907997D01*
X646249Y907918D01*
X646198Y907841D01*
X646144Y907766D01*
X646087Y907693D01*
X646027Y907623D01*
X645964Y907556D01*
X645898Y907492D01*
X645830Y907430D01*
X645759Y907371D01*
X645685Y907316D01*
X645609Y907263D01*
X645531Y907214D01*
X645451Y907168D01*
X645370Y907126D01*
X645286Y907087D01*
X645201Y907052D01*
X645114Y907021D01*
X645026Y906993D01*
X644937Y906969D01*
X644847Y906949D01*
X644757Y906932D01*
X644665Y906920D01*
X644573Y906911D01*
X644481Y906907D01*
X644389Y906906D01*
X644389Y906907D02*
X644055Y906916D01*
X643722Y906933D01*
X643389Y906957D01*
X643056Y906990D01*
X642725Y907030D01*
X642394Y907078D01*
X642065Y907134D01*
X641737Y907197D01*
X641411Y907269D01*
X641087Y907348D01*
X640764Y907434D01*
X640444Y907529D01*
X640126Y907631D01*
X639810Y907740D01*
X655882Y906907D02*
X659212Y906907D01*
X655882Y906907D02*
X655784Y906909D01*
X655686Y906915D01*
X655588Y906924D01*
X655491Y906938D01*
X655395Y906955D01*
X655299Y906976D01*
X655204Y907001D01*
X655110Y907029D01*
X655017Y907061D01*
X654926Y907097D01*
X654836Y907136D01*
X654748Y907179D01*
X654661Y907226D01*
X654577Y907275D01*
X654494Y907328D01*
X654414Y907384D01*
X654336Y907443D01*
X654260Y907506D01*
X654186Y907571D01*
X654116Y907639D01*
X654048Y907709D01*
X653983Y907783D01*
X653920Y907859D01*
X653861Y907937D01*
X653805Y908017D01*
X653752Y908100D01*
X653703Y908184D01*
X653656Y908271D01*
X653613Y908359D01*
X653574Y908449D01*
X653538Y908540D01*
X653506Y908633D01*
X653478Y908727D01*
X653453Y908822D01*
X653432Y908918D01*
X653415Y909014D01*
X653401Y909111D01*
X653392Y909209D01*
X653386Y909307D01*
X653384Y909405D01*
X653384Y914400D01*
X653386Y914498D01*
X653392Y914596D01*
X653401Y914694D01*
X653415Y914791D01*
X653432Y914887D01*
X653453Y914983D01*
X653478Y915078D01*
X653506Y915172D01*
X653538Y915265D01*
X653574Y915356D01*
X653613Y915446D01*
X653656Y915534D01*
X653703Y915621D01*
X653752Y915705D01*
X653805Y915788D01*
X653861Y915868D01*
X653920Y915947D01*
X653983Y916022D01*
X654048Y916096D01*
X654116Y916166D01*
X654186Y916234D01*
X654260Y916300D01*
X654336Y916362D01*
X654414Y916421D01*
X654494Y916477D01*
X654577Y916530D01*
X654661Y916580D01*
X654748Y916626D01*
X654836Y916669D01*
X654926Y916708D01*
X655017Y916744D01*
X655110Y916776D01*
X655204Y916804D01*
X655299Y916829D01*
X655395Y916850D01*
X655491Y916867D01*
X655588Y916881D01*
X655686Y916890D01*
X655784Y916896D01*
X655882Y916898D01*
X659212Y916898D01*
X665342Y913567D02*
X665342Y910237D01*
X665342Y913567D02*
X665344Y913681D01*
X665350Y913794D01*
X665359Y913908D01*
X665373Y914020D01*
X665390Y914133D01*
X665412Y914245D01*
X665437Y914355D01*
X665465Y914465D01*
X665498Y914574D01*
X665534Y914682D01*
X665574Y914789D01*
X665618Y914894D01*
X665665Y914997D01*
X665715Y915099D01*
X665769Y915199D01*
X665827Y915297D01*
X665888Y915393D01*
X665951Y915487D01*
X666019Y915579D01*
X666089Y915669D01*
X666162Y915755D01*
X666238Y915840D01*
X666317Y915922D01*
X666399Y916001D01*
X666484Y916077D01*
X666570Y916150D01*
X666660Y916220D01*
X666752Y916288D01*
X666846Y916351D01*
X666942Y916412D01*
X667040Y916470D01*
X667140Y916524D01*
X667242Y916574D01*
X667345Y916621D01*
X667450Y916665D01*
X667557Y916705D01*
X667665Y916741D01*
X667774Y916774D01*
X667884Y916802D01*
X667994Y916827D01*
X668106Y916849D01*
X668219Y916866D01*
X668331Y916880D01*
X668445Y916889D01*
X668558Y916895D01*
X668672Y916897D01*
X668786Y916895D01*
X668899Y916889D01*
X669013Y916880D01*
X669125Y916866D01*
X669238Y916849D01*
X669350Y916827D01*
X669460Y916802D01*
X669570Y916774D01*
X669679Y916741D01*
X669787Y916705D01*
X669894Y916665D01*
X669999Y916621D01*
X670102Y916574D01*
X670204Y916524D01*
X670304Y916470D01*
X670402Y916412D01*
X670498Y916351D01*
X670592Y916288D01*
X670684Y916220D01*
X670774Y916150D01*
X670860Y916077D01*
X670945Y916001D01*
X671027Y915922D01*
X671106Y915840D01*
X671182Y915755D01*
X671255Y915669D01*
X671325Y915579D01*
X671393Y915487D01*
X671456Y915393D01*
X671517Y915297D01*
X671575Y915199D01*
X671629Y915099D01*
X671679Y914997D01*
X671726Y914894D01*
X671770Y914789D01*
X671810Y914682D01*
X671846Y914574D01*
X671879Y914465D01*
X671907Y914355D01*
X671932Y914245D01*
X671954Y914133D01*
X671971Y914020D01*
X671985Y913908D01*
X671994Y913794D01*
X672000Y913681D01*
X672002Y913567D01*
X672002Y910237D01*
X672000Y910123D01*
X671994Y910010D01*
X671985Y909896D01*
X671971Y909784D01*
X671954Y909671D01*
X671932Y909559D01*
X671907Y909449D01*
X671879Y909339D01*
X671846Y909230D01*
X671810Y909122D01*
X671770Y909015D01*
X671726Y908910D01*
X671679Y908807D01*
X671629Y908705D01*
X671575Y908605D01*
X671517Y908507D01*
X671456Y908411D01*
X671393Y908317D01*
X671325Y908225D01*
X671255Y908135D01*
X671182Y908049D01*
X671106Y907964D01*
X671027Y907882D01*
X670945Y907803D01*
X670860Y907727D01*
X670774Y907654D01*
X670684Y907584D01*
X670592Y907516D01*
X670498Y907453D01*
X670402Y907392D01*
X670304Y907334D01*
X670204Y907280D01*
X670102Y907230D01*
X669999Y907183D01*
X669894Y907139D01*
X669787Y907099D01*
X669679Y907063D01*
X669570Y907030D01*
X669460Y907002D01*
X669350Y906977D01*
X669238Y906955D01*
X669125Y906938D01*
X669013Y906924D01*
X668899Y906915D01*
X668786Y906909D01*
X668672Y906907D01*
X668558Y906909D01*
X668445Y906915D01*
X668331Y906924D01*
X668219Y906938D01*
X668106Y906955D01*
X667994Y906977D01*
X667884Y907002D01*
X667774Y907030D01*
X667665Y907063D01*
X667557Y907099D01*
X667450Y907139D01*
X667345Y907183D01*
X667242Y907230D01*
X667140Y907280D01*
X667040Y907334D01*
X666942Y907392D01*
X666846Y907453D01*
X666752Y907516D01*
X666660Y907584D01*
X666570Y907654D01*
X666484Y907727D01*
X666399Y907803D01*
X666317Y907882D01*
X666238Y907964D01*
X666162Y908049D01*
X666089Y908135D01*
X666019Y908225D01*
X665951Y908317D01*
X665888Y908411D01*
X665827Y908507D01*
X665769Y908605D01*
X665715Y908705D01*
X665665Y908807D01*
X665618Y908910D01*
X665574Y909015D01*
X665534Y909122D01*
X665498Y909230D01*
X665465Y909339D01*
X665437Y909449D01*
X665412Y909559D01*
X665390Y909671D01*
X665373Y909784D01*
X665359Y909896D01*
X665350Y910010D01*
X665344Y910123D01*
X665342Y910237D01*
X679538Y906907D02*
X679538Y916898D01*
X684533Y916898D01*
X684533Y915233D01*
X692328Y906907D02*
X696491Y906907D01*
X692328Y906907D02*
X692230Y906909D01*
X692132Y906915D01*
X692034Y906924D01*
X691937Y906938D01*
X691841Y906955D01*
X691745Y906976D01*
X691650Y907001D01*
X691556Y907029D01*
X691463Y907061D01*
X691372Y907097D01*
X691282Y907136D01*
X691194Y907179D01*
X691107Y907226D01*
X691023Y907275D01*
X690940Y907328D01*
X690860Y907384D01*
X690782Y907443D01*
X690706Y907506D01*
X690632Y907571D01*
X690562Y907639D01*
X690494Y907709D01*
X690429Y907783D01*
X690366Y907859D01*
X690307Y907937D01*
X690251Y908017D01*
X690198Y908100D01*
X690149Y908184D01*
X690102Y908271D01*
X690059Y908359D01*
X690020Y908449D01*
X689984Y908540D01*
X689952Y908633D01*
X689924Y908727D01*
X689899Y908822D01*
X689878Y908918D01*
X689861Y909014D01*
X689847Y909111D01*
X689838Y909209D01*
X689832Y909307D01*
X689830Y909405D01*
X689830Y913567D01*
X689831Y913567D02*
X689833Y913681D01*
X689839Y913794D01*
X689848Y913908D01*
X689862Y914020D01*
X689879Y914133D01*
X689901Y914245D01*
X689926Y914355D01*
X689954Y914465D01*
X689987Y914574D01*
X690023Y914682D01*
X690063Y914789D01*
X690107Y914894D01*
X690154Y914997D01*
X690204Y915099D01*
X690258Y915199D01*
X690316Y915297D01*
X690377Y915393D01*
X690440Y915487D01*
X690508Y915579D01*
X690578Y915669D01*
X690651Y915755D01*
X690727Y915840D01*
X690806Y915922D01*
X690888Y916001D01*
X690973Y916077D01*
X691059Y916150D01*
X691149Y916220D01*
X691241Y916288D01*
X691335Y916351D01*
X691431Y916412D01*
X691529Y916470D01*
X691629Y916524D01*
X691731Y916574D01*
X691834Y916621D01*
X691939Y916665D01*
X692046Y916705D01*
X692154Y916741D01*
X692263Y916774D01*
X692373Y916802D01*
X692483Y916827D01*
X692595Y916849D01*
X692708Y916866D01*
X692820Y916880D01*
X692934Y916889D01*
X693047Y916895D01*
X693161Y916897D01*
X693275Y916895D01*
X693388Y916889D01*
X693502Y916880D01*
X693614Y916866D01*
X693727Y916849D01*
X693839Y916827D01*
X693949Y916802D01*
X694059Y916774D01*
X694168Y916741D01*
X694276Y916705D01*
X694383Y916665D01*
X694488Y916621D01*
X694591Y916574D01*
X694693Y916524D01*
X694793Y916470D01*
X694891Y916412D01*
X694987Y916351D01*
X695081Y916288D01*
X695173Y916220D01*
X695263Y916150D01*
X695349Y916077D01*
X695434Y916001D01*
X695516Y915922D01*
X695595Y915840D01*
X695671Y915755D01*
X695744Y915669D01*
X695814Y915579D01*
X695882Y915487D01*
X695945Y915393D01*
X696006Y915297D01*
X696064Y915199D01*
X696118Y915099D01*
X696168Y914997D01*
X696215Y914894D01*
X696259Y914789D01*
X696299Y914682D01*
X696335Y914574D01*
X696368Y914465D01*
X696396Y914355D01*
X696421Y914245D01*
X696443Y914133D01*
X696460Y914020D01*
X696474Y913908D01*
X696483Y913794D01*
X696489Y913681D01*
X696491Y913567D01*
X696491Y911902D01*
X689830Y911902D01*
D11*
X816610Y891540D02*
X816610Y-68580D01*
D12*
X776229Y906907D02*
X772899Y916898D01*
X779560Y916898D02*
X776229Y906907D01*
X786344Y912735D02*
X796335Y912735D01*
X804889Y912735D02*
X809052Y911070D01*
X804889Y912734D02*
X804804Y912770D01*
X804721Y912810D01*
X804640Y912853D01*
X804560Y912900D01*
X804483Y912950D01*
X804407Y913003D01*
X804334Y913059D01*
X804264Y913119D01*
X804196Y913181D01*
X804131Y913246D01*
X804069Y913314D01*
X804009Y913385D01*
X803953Y913458D01*
X803900Y913533D01*
X803850Y913611D01*
X803804Y913690D01*
X803761Y913772D01*
X803721Y913855D01*
X803685Y913940D01*
X803653Y914026D01*
X803624Y914114D01*
X803600Y914203D01*
X803579Y914293D01*
X803562Y914383D01*
X803548Y914474D01*
X803539Y914566D01*
X803534Y914658D01*
X803532Y914750D01*
X803534Y914842D01*
X803541Y914934D01*
X803551Y915026D01*
X803565Y915117D01*
X803583Y915208D01*
X803605Y915297D01*
X803631Y915386D01*
X803661Y915473D01*
X803694Y915559D01*
X803731Y915643D01*
X803771Y915726D01*
X803815Y915807D01*
X803862Y915886D01*
X803913Y915963D01*
X803967Y916038D01*
X804024Y916111D01*
X804084Y916181D01*
X804147Y916248D01*
X804213Y916312D01*
X804281Y916374D01*
X804352Y916433D01*
X804426Y916488D01*
X804502Y916541D01*
X804580Y916590D01*
X804660Y916636D01*
X804741Y916678D01*
X804825Y916717D01*
X804910Y916752D01*
X804997Y916783D01*
X805085Y916811D01*
X805174Y916835D01*
X805264Y916855D01*
X805354Y916872D01*
X805446Y916884D01*
X805538Y916893D01*
X805630Y916897D01*
X805722Y916898D01*
X805949Y916892D01*
X806176Y916881D01*
X806403Y916864D01*
X806629Y916841D01*
X806855Y916814D01*
X807080Y916780D01*
X807304Y916742D01*
X807527Y916698D01*
X807749Y916649D01*
X807970Y916594D01*
X808189Y916534D01*
X808407Y916469D01*
X808623Y916398D01*
X808837Y916323D01*
X809050Y916242D01*
X809260Y916156D01*
X809469Y916065D01*
X809052Y911070D02*
X809137Y911034D01*
X809220Y910994D01*
X809301Y910951D01*
X809381Y910904D01*
X809458Y910854D01*
X809534Y910801D01*
X809607Y910745D01*
X809677Y910685D01*
X809745Y910623D01*
X809810Y910558D01*
X809872Y910490D01*
X809932Y910419D01*
X809988Y910346D01*
X810041Y910271D01*
X810091Y910193D01*
X810137Y910114D01*
X810180Y910032D01*
X810220Y909949D01*
X810256Y909864D01*
X810288Y909778D01*
X810317Y909690D01*
X810341Y909601D01*
X810362Y909511D01*
X810379Y909421D01*
X810393Y909330D01*
X810402Y909238D01*
X810407Y909146D01*
X810409Y909054D01*
X810407Y908962D01*
X810400Y908870D01*
X810390Y908778D01*
X810376Y908687D01*
X810358Y908596D01*
X810336Y908507D01*
X810310Y908418D01*
X810280Y908331D01*
X810247Y908245D01*
X810210Y908161D01*
X810170Y908078D01*
X810126Y907997D01*
X810079Y907918D01*
X810028Y907841D01*
X809974Y907766D01*
X809917Y907693D01*
X809857Y907623D01*
X809794Y907556D01*
X809728Y907492D01*
X809660Y907430D01*
X809589Y907371D01*
X809515Y907316D01*
X809439Y907263D01*
X809361Y907214D01*
X809281Y907168D01*
X809200Y907126D01*
X809116Y907087D01*
X809031Y907052D01*
X808944Y907021D01*
X808856Y906993D01*
X808767Y906969D01*
X808677Y906949D01*
X808587Y906932D01*
X808495Y906920D01*
X808403Y906911D01*
X808311Y906907D01*
X808219Y906906D01*
X808219Y906907D02*
X807885Y906916D01*
X807552Y906933D01*
X807219Y906957D01*
X806886Y906990D01*
X806555Y907030D01*
X806224Y907078D01*
X805895Y907134D01*
X805567Y907197D01*
X805241Y907269D01*
X804917Y907348D01*
X804594Y907434D01*
X804274Y907529D01*
X803956Y907631D01*
X803640Y907740D01*
X819712Y906907D02*
X823042Y906907D01*
X819712Y906907D02*
X819614Y906909D01*
X819516Y906915D01*
X819418Y906924D01*
X819321Y906938D01*
X819225Y906955D01*
X819129Y906976D01*
X819034Y907001D01*
X818940Y907029D01*
X818847Y907061D01*
X818756Y907097D01*
X818666Y907136D01*
X818578Y907179D01*
X818491Y907226D01*
X818407Y907275D01*
X818324Y907328D01*
X818244Y907384D01*
X818166Y907443D01*
X818090Y907506D01*
X818016Y907571D01*
X817946Y907639D01*
X817878Y907709D01*
X817813Y907783D01*
X817750Y907859D01*
X817691Y907937D01*
X817635Y908017D01*
X817582Y908100D01*
X817533Y908184D01*
X817486Y908271D01*
X817443Y908359D01*
X817404Y908449D01*
X817368Y908540D01*
X817336Y908633D01*
X817308Y908727D01*
X817283Y908822D01*
X817262Y908918D01*
X817245Y909014D01*
X817231Y909111D01*
X817222Y909209D01*
X817216Y909307D01*
X817214Y909405D01*
X817214Y914400D01*
X817216Y914498D01*
X817222Y914596D01*
X817231Y914694D01*
X817245Y914791D01*
X817262Y914887D01*
X817283Y914983D01*
X817308Y915078D01*
X817336Y915172D01*
X817368Y915265D01*
X817404Y915356D01*
X817443Y915446D01*
X817486Y915534D01*
X817533Y915621D01*
X817582Y915705D01*
X817635Y915788D01*
X817691Y915868D01*
X817750Y915947D01*
X817813Y916022D01*
X817878Y916096D01*
X817946Y916166D01*
X818016Y916234D01*
X818090Y916300D01*
X818166Y916362D01*
X818244Y916421D01*
X818324Y916477D01*
X818407Y916530D01*
X818491Y916580D01*
X818578Y916626D01*
X818666Y916669D01*
X818756Y916708D01*
X818847Y916744D01*
X818940Y916776D01*
X819034Y916804D01*
X819129Y916829D01*
X819225Y916850D01*
X819321Y916867D01*
X819418Y916881D01*
X819516Y916890D01*
X819614Y916896D01*
X819712Y916898D01*
X823042Y916898D01*
X829172Y913567D02*
X829172Y910237D01*
X829172Y913567D02*
X829174Y913681D01*
X829180Y913794D01*
X829189Y913908D01*
X829203Y914020D01*
X829220Y914133D01*
X829242Y914245D01*
X829267Y914355D01*
X829295Y914465D01*
X829328Y914574D01*
X829364Y914682D01*
X829404Y914789D01*
X829448Y914894D01*
X829495Y914997D01*
X829545Y915099D01*
X829599Y915199D01*
X829657Y915297D01*
X829718Y915393D01*
X829781Y915487D01*
X829849Y915579D01*
X829919Y915669D01*
X829992Y915755D01*
X830068Y915840D01*
X830147Y915922D01*
X830229Y916001D01*
X830314Y916077D01*
X830400Y916150D01*
X830490Y916220D01*
X830582Y916288D01*
X830676Y916351D01*
X830772Y916412D01*
X830870Y916470D01*
X830970Y916524D01*
X831072Y916574D01*
X831175Y916621D01*
X831280Y916665D01*
X831387Y916705D01*
X831495Y916741D01*
X831604Y916774D01*
X831714Y916802D01*
X831824Y916827D01*
X831936Y916849D01*
X832049Y916866D01*
X832161Y916880D01*
X832275Y916889D01*
X832388Y916895D01*
X832502Y916897D01*
X832616Y916895D01*
X832729Y916889D01*
X832843Y916880D01*
X832955Y916866D01*
X833068Y916849D01*
X833180Y916827D01*
X833290Y916802D01*
X833400Y916774D01*
X833509Y916741D01*
X833617Y916705D01*
X833724Y916665D01*
X833829Y916621D01*
X833932Y916574D01*
X834034Y916524D01*
X834134Y916470D01*
X834232Y916412D01*
X834328Y916351D01*
X834422Y916288D01*
X834514Y916220D01*
X834604Y916150D01*
X834690Y916077D01*
X834775Y916001D01*
X834857Y915922D01*
X834936Y915840D01*
X835012Y915755D01*
X835085Y915669D01*
X835155Y915579D01*
X835223Y915487D01*
X835286Y915393D01*
X835347Y915297D01*
X835405Y915199D01*
X835459Y915099D01*
X835509Y914997D01*
X835556Y914894D01*
X835600Y914789D01*
X835640Y914682D01*
X835676Y914574D01*
X835709Y914465D01*
X835737Y914355D01*
X835762Y914245D01*
X835784Y914133D01*
X835801Y914020D01*
X835815Y913908D01*
X835824Y913794D01*
X835830Y913681D01*
X835832Y913567D01*
X835832Y910237D01*
X835830Y910123D01*
X835824Y910010D01*
X835815Y909896D01*
X835801Y909784D01*
X835784Y909671D01*
X835762Y909559D01*
X835737Y909449D01*
X835709Y909339D01*
X835676Y909230D01*
X835640Y909122D01*
X835600Y909015D01*
X835556Y908910D01*
X835509Y908807D01*
X835459Y908705D01*
X835405Y908605D01*
X835347Y908507D01*
X835286Y908411D01*
X835223Y908317D01*
X835155Y908225D01*
X835085Y908135D01*
X835012Y908049D01*
X834936Y907964D01*
X834857Y907882D01*
X834775Y907803D01*
X834690Y907727D01*
X834604Y907654D01*
X834514Y907584D01*
X834422Y907516D01*
X834328Y907453D01*
X834232Y907392D01*
X834134Y907334D01*
X834034Y907280D01*
X833932Y907230D01*
X833829Y907183D01*
X833724Y907139D01*
X833617Y907099D01*
X833509Y907063D01*
X833400Y907030D01*
X833290Y907002D01*
X833180Y906977D01*
X833068Y906955D01*
X832955Y906938D01*
X832843Y906924D01*
X832729Y906915D01*
X832616Y906909D01*
X832502Y906907D01*
X832388Y906909D01*
X832275Y906915D01*
X832161Y906924D01*
X832049Y906938D01*
X831936Y906955D01*
X831824Y906977D01*
X831714Y907002D01*
X831604Y907030D01*
X831495Y907063D01*
X831387Y907099D01*
X831280Y907139D01*
X831175Y907183D01*
X831072Y907230D01*
X830970Y907280D01*
X830870Y907334D01*
X830772Y907392D01*
X830676Y907453D01*
X830582Y907516D01*
X830490Y907584D01*
X830400Y907654D01*
X830314Y907727D01*
X830229Y907803D01*
X830147Y907882D01*
X830068Y907964D01*
X829992Y908049D01*
X829919Y908135D01*
X829849Y908225D01*
X829781Y908317D01*
X829718Y908411D01*
X829657Y908507D01*
X829599Y908605D01*
X829545Y908705D01*
X829495Y908807D01*
X829448Y908910D01*
X829404Y909015D01*
X829364Y909122D01*
X829328Y909230D01*
X829295Y909339D01*
X829267Y909449D01*
X829242Y909559D01*
X829220Y909671D01*
X829203Y909784D01*
X829189Y909896D01*
X829180Y910010D01*
X829174Y910123D01*
X829172Y910237D01*
X843368Y906907D02*
X843368Y916898D01*
X848363Y916898D01*
X848363Y915233D01*
X856158Y906907D02*
X860321Y906907D01*
X856158Y906907D02*
X856060Y906909D01*
X855962Y906915D01*
X855864Y906924D01*
X855767Y906938D01*
X855671Y906955D01*
X855575Y906976D01*
X855480Y907001D01*
X855386Y907029D01*
X855293Y907061D01*
X855202Y907097D01*
X855112Y907136D01*
X855024Y907179D01*
X854937Y907226D01*
X854853Y907275D01*
X854770Y907328D01*
X854690Y907384D01*
X854612Y907443D01*
X854536Y907506D01*
X854462Y907571D01*
X854392Y907639D01*
X854324Y907709D01*
X854259Y907783D01*
X854196Y907859D01*
X854137Y907937D01*
X854081Y908017D01*
X854028Y908100D01*
X853979Y908184D01*
X853932Y908271D01*
X853889Y908359D01*
X853850Y908449D01*
X853814Y908540D01*
X853782Y908633D01*
X853754Y908727D01*
X853729Y908822D01*
X853708Y908918D01*
X853691Y909014D01*
X853677Y909111D01*
X853668Y909209D01*
X853662Y909307D01*
X853660Y909405D01*
X853660Y913567D01*
X853661Y913567D02*
X853663Y913681D01*
X853669Y913794D01*
X853678Y913908D01*
X853692Y914020D01*
X853709Y914133D01*
X853731Y914245D01*
X853756Y914355D01*
X853784Y914465D01*
X853817Y914574D01*
X853853Y914682D01*
X853893Y914789D01*
X853937Y914894D01*
X853984Y914997D01*
X854034Y915099D01*
X854088Y915199D01*
X854146Y915297D01*
X854207Y915393D01*
X854270Y915487D01*
X854338Y915579D01*
X854408Y915669D01*
X854481Y915755D01*
X854557Y915840D01*
X854636Y915922D01*
X854718Y916001D01*
X854803Y916077D01*
X854889Y916150D01*
X854979Y916220D01*
X855071Y916288D01*
X855165Y916351D01*
X855261Y916412D01*
X855359Y916470D01*
X855459Y916524D01*
X855561Y916574D01*
X855664Y916621D01*
X855769Y916665D01*
X855876Y916705D01*
X855984Y916741D01*
X856093Y916774D01*
X856203Y916802D01*
X856313Y916827D01*
X856425Y916849D01*
X856538Y916866D01*
X856650Y916880D01*
X856764Y916889D01*
X856877Y916895D01*
X856991Y916897D01*
X857105Y916895D01*
X857218Y916889D01*
X857332Y916880D01*
X857444Y916866D01*
X857557Y916849D01*
X857669Y916827D01*
X857779Y916802D01*
X857889Y916774D01*
X857998Y916741D01*
X858106Y916705D01*
X858213Y916665D01*
X858318Y916621D01*
X858421Y916574D01*
X858523Y916524D01*
X858623Y916470D01*
X858721Y916412D01*
X858817Y916351D01*
X858911Y916288D01*
X859003Y916220D01*
X859093Y916150D01*
X859179Y916077D01*
X859264Y916001D01*
X859346Y915922D01*
X859425Y915840D01*
X859501Y915755D01*
X859574Y915669D01*
X859644Y915579D01*
X859712Y915487D01*
X859775Y915393D01*
X859836Y915297D01*
X859894Y915199D01*
X859948Y915099D01*
X859998Y914997D01*
X860045Y914894D01*
X860089Y914789D01*
X860129Y914682D01*
X860165Y914574D01*
X860198Y914465D01*
X860226Y914355D01*
X860251Y914245D01*
X860273Y914133D01*
X860290Y914020D01*
X860304Y913908D01*
X860313Y913794D01*
X860319Y913681D01*
X860321Y913567D01*
X860321Y911902D01*
X853660Y911902D01*
D11*
X980440Y891540D02*
X980440Y-68580D01*
D12*
X940059Y906907D02*
X936729Y916898D01*
X943390Y916898D02*
X940059Y906907D01*
X950174Y912735D02*
X960165Y912735D01*
X968719Y912735D02*
X972882Y911070D01*
X968719Y912734D02*
X968634Y912770D01*
X968551Y912810D01*
X968470Y912853D01*
X968390Y912900D01*
X968313Y912950D01*
X968237Y913003D01*
X968164Y913059D01*
X968094Y913119D01*
X968026Y913181D01*
X967961Y913246D01*
X967899Y913314D01*
X967839Y913385D01*
X967783Y913458D01*
X967730Y913533D01*
X967680Y913611D01*
X967634Y913690D01*
X967591Y913772D01*
X967551Y913855D01*
X967515Y913940D01*
X967483Y914026D01*
X967454Y914114D01*
X967430Y914203D01*
X967409Y914293D01*
X967392Y914383D01*
X967378Y914474D01*
X967369Y914566D01*
X967364Y914658D01*
X967362Y914750D01*
X967364Y914842D01*
X967371Y914934D01*
X967381Y915026D01*
X967395Y915117D01*
X967413Y915208D01*
X967435Y915297D01*
X967461Y915386D01*
X967491Y915473D01*
X967524Y915559D01*
X967561Y915643D01*
X967601Y915726D01*
X967645Y915807D01*
X967692Y915886D01*
X967743Y915963D01*
X967797Y916038D01*
X967854Y916111D01*
X967914Y916181D01*
X967977Y916248D01*
X968043Y916312D01*
X968111Y916374D01*
X968182Y916433D01*
X968256Y916488D01*
X968332Y916541D01*
X968410Y916590D01*
X968490Y916636D01*
X968571Y916678D01*
X968655Y916717D01*
X968740Y916752D01*
X968827Y916783D01*
X968915Y916811D01*
X969004Y916835D01*
X969094Y916855D01*
X969184Y916872D01*
X969276Y916884D01*
X969368Y916893D01*
X969460Y916897D01*
X969552Y916898D01*
X969779Y916892D01*
X970006Y916881D01*
X970233Y916864D01*
X970459Y916841D01*
X970685Y916814D01*
X970910Y916780D01*
X971134Y916742D01*
X971357Y916698D01*
X971579Y916649D01*
X971800Y916594D01*
X972019Y916534D01*
X972237Y916469D01*
X972453Y916398D01*
X972667Y916323D01*
X972880Y916242D01*
X973090Y916156D01*
X973299Y916065D01*
X972882Y911070D02*
X972967Y911034D01*
X973050Y910994D01*
X973131Y910951D01*
X973211Y910904D01*
X973288Y910854D01*
X973364Y910801D01*
X973437Y910745D01*
X973507Y910685D01*
X973575Y910623D01*
X973640Y910558D01*
X973702Y910490D01*
X973762Y910419D01*
X973818Y910346D01*
X973871Y910271D01*
X973921Y910193D01*
X973967Y910114D01*
X974010Y910032D01*
X974050Y909949D01*
X974086Y909864D01*
X974118Y909778D01*
X974147Y909690D01*
X974171Y909601D01*
X974192Y909511D01*
X974209Y909421D01*
X974223Y909330D01*
X974232Y909238D01*
X974237Y909146D01*
X974239Y909054D01*
X974237Y908962D01*
X974230Y908870D01*
X974220Y908778D01*
X974206Y908687D01*
X974188Y908596D01*
X974166Y908507D01*
X974140Y908418D01*
X974110Y908331D01*
X974077Y908245D01*
X974040Y908161D01*
X974000Y908078D01*
X973956Y907997D01*
X973909Y907918D01*
X973858Y907841D01*
X973804Y907766D01*
X973747Y907693D01*
X973687Y907623D01*
X973624Y907556D01*
X973558Y907492D01*
X973490Y907430D01*
X973419Y907371D01*
X973345Y907316D01*
X973269Y907263D01*
X973191Y907214D01*
X973111Y907168D01*
X973030Y907126D01*
X972946Y907087D01*
X972861Y907052D01*
X972774Y907021D01*
X972686Y906993D01*
X972597Y906969D01*
X972507Y906949D01*
X972417Y906932D01*
X972325Y906920D01*
X972233Y906911D01*
X972141Y906907D01*
X972049Y906906D01*
X972049Y906907D02*
X971715Y906916D01*
X971382Y906933D01*
X971049Y906957D01*
X970716Y906990D01*
X970385Y907030D01*
X970054Y907078D01*
X969725Y907134D01*
X969397Y907197D01*
X969071Y907269D01*
X968747Y907348D01*
X968424Y907434D01*
X968104Y907529D01*
X967786Y907631D01*
X967470Y907740D01*
X983542Y906907D02*
X986872Y906907D01*
X983542Y906907D02*
X983444Y906909D01*
X983346Y906915D01*
X983248Y906924D01*
X983151Y906938D01*
X983055Y906955D01*
X982959Y906976D01*
X982864Y907001D01*
X982770Y907029D01*
X982677Y907061D01*
X982586Y907097D01*
X982496Y907136D01*
X982408Y907179D01*
X982321Y907226D01*
X982237Y907275D01*
X982154Y907328D01*
X982074Y907384D01*
X981996Y907443D01*
X981920Y907506D01*
X981846Y907571D01*
X981776Y907639D01*
X981708Y907709D01*
X981643Y907783D01*
X981580Y907859D01*
X981521Y907937D01*
X981465Y908017D01*
X981412Y908100D01*
X981363Y908184D01*
X981316Y908271D01*
X981273Y908359D01*
X981234Y908449D01*
X981198Y908540D01*
X981166Y908633D01*
X981138Y908727D01*
X981113Y908822D01*
X981092Y908918D01*
X981075Y909014D01*
X981061Y909111D01*
X981052Y909209D01*
X981046Y909307D01*
X981044Y909405D01*
X981044Y914400D01*
X981046Y914498D01*
X981052Y914596D01*
X981061Y914694D01*
X981075Y914791D01*
X981092Y914887D01*
X981113Y914983D01*
X981138Y915078D01*
X981166Y915172D01*
X981198Y915265D01*
X981234Y915356D01*
X981273Y915446D01*
X981316Y915534D01*
X981363Y915621D01*
X981412Y915705D01*
X981465Y915788D01*
X981521Y915868D01*
X981580Y915947D01*
X981643Y916022D01*
X981708Y916096D01*
X981776Y916166D01*
X981846Y916234D01*
X981920Y916300D01*
X981996Y916362D01*
X982074Y916421D01*
X982154Y916477D01*
X982237Y916530D01*
X982321Y916580D01*
X982408Y916626D01*
X982496Y916669D01*
X982586Y916708D01*
X982677Y916744D01*
X982770Y916776D01*
X982864Y916804D01*
X982959Y916829D01*
X983055Y916850D01*
X983151Y916867D01*
X983248Y916881D01*
X983346Y916890D01*
X983444Y916896D01*
X983542Y916898D01*
X986872Y916898D01*
X993002Y913567D02*
X993002Y910237D01*
X993002Y913567D02*
X993004Y913681D01*
X993010Y913794D01*
X993019Y913908D01*
X993033Y914020D01*
X993050Y914133D01*
X993072Y914245D01*
X993097Y914355D01*
X993125Y914465D01*
X993158Y914574D01*
X993194Y914682D01*
X993234Y914789D01*
X993278Y914894D01*
X993325Y914997D01*
X993375Y915099D01*
X993429Y915199D01*
X993487Y915297D01*
X993548Y915393D01*
X993611Y915487D01*
X993679Y915579D01*
X993749Y915669D01*
X993822Y915755D01*
X993898Y915840D01*
X993977Y915922D01*
X994059Y916001D01*
X994144Y916077D01*
X994230Y916150D01*
X994320Y916220D01*
X994412Y916288D01*
X994506Y916351D01*
X994602Y916412D01*
X994700Y916470D01*
X994800Y916524D01*
X994902Y916574D01*
X995005Y916621D01*
X995110Y916665D01*
X995217Y916705D01*
X995325Y916741D01*
X995434Y916774D01*
X995544Y916802D01*
X995654Y916827D01*
X995766Y916849D01*
X995879Y916866D01*
X995991Y916880D01*
X996105Y916889D01*
X996218Y916895D01*
X996332Y916897D01*
X996446Y916895D01*
X996559Y916889D01*
X996673Y916880D01*
X996785Y916866D01*
X996898Y916849D01*
X997010Y916827D01*
X997120Y916802D01*
X997230Y916774D01*
X997339Y916741D01*
X997447Y916705D01*
X997554Y916665D01*
X997659Y916621D01*
X997762Y916574D01*
X997864Y916524D01*
X997964Y916470D01*
X998062Y916412D01*
X998158Y916351D01*
X998252Y916288D01*
X998344Y916220D01*
X998434Y916150D01*
X998520Y916077D01*
X998605Y916001D01*
X998687Y915922D01*
X998766Y915840D01*
X998842Y915755D01*
X998915Y915669D01*
X998985Y915579D01*
X999053Y915487D01*
X999116Y915393D01*
X999177Y915297D01*
X999235Y915199D01*
X999289Y915099D01*
X999339Y914997D01*
X999386Y914894D01*
X999430Y914789D01*
X999470Y914682D01*
X999506Y914574D01*
X999539Y914465D01*
X999567Y914355D01*
X999592Y914245D01*
X999614Y914133D01*
X999631Y914020D01*
X999645Y913908D01*
X999654Y913794D01*
X999660Y913681D01*
X999662Y913567D01*
X999662Y910237D01*
X999660Y910123D01*
X999654Y910010D01*
X999645Y909896D01*
X999631Y909784D01*
X999614Y909671D01*
X999592Y909559D01*
X999567Y909449D01*
X999539Y909339D01*
X999506Y909230D01*
X999470Y909122D01*
X999430Y909015D01*
X999386Y908910D01*
X999339Y908807D01*
X999289Y908705D01*
X999235Y908605D01*
X999177Y908507D01*
X999116Y908411D01*
X999053Y908317D01*
X998985Y908225D01*
X998915Y908135D01*
X998842Y908049D01*
X998766Y907964D01*
X998687Y907882D01*
X998605Y907803D01*
X998520Y907727D01*
X998434Y907654D01*
X998344Y907584D01*
X998252Y907516D01*
X998158Y907453D01*
X998062Y907392D01*
X997964Y907334D01*
X997864Y907280D01*
X997762Y907230D01*
X997659Y907183D01*
X997554Y907139D01*
X997447Y907099D01*
X997339Y907063D01*
X997230Y907030D01*
X997120Y907002D01*
X997010Y906977D01*
X996898Y906955D01*
X996785Y906938D01*
X996673Y906924D01*
X996559Y906915D01*
X996446Y906909D01*
X996332Y906907D01*
X996218Y906909D01*
X996105Y906915D01*
X995991Y906924D01*
X995879Y906938D01*
X995766Y906955D01*
X995654Y906977D01*
X995544Y907002D01*
X995434Y907030D01*
X995325Y907063D01*
X995217Y907099D01*
X995110Y907139D01*
X995005Y907183D01*
X994902Y907230D01*
X994800Y907280D01*
X994700Y907334D01*
X994602Y907392D01*
X994506Y907453D01*
X994412Y907516D01*
X994320Y907584D01*
X994230Y907654D01*
X994144Y907727D01*
X994059Y907803D01*
X993977Y907882D01*
X993898Y907964D01*
X993822Y908049D01*
X993749Y908135D01*
X993679Y908225D01*
X993611Y908317D01*
X993548Y908411D01*
X993487Y908507D01*
X993429Y908605D01*
X993375Y908705D01*
X993325Y908807D01*
X993278Y908910D01*
X993234Y909015D01*
X993194Y909122D01*
X993158Y909230D01*
X993125Y909339D01*
X993097Y909449D01*
X993072Y909559D01*
X993050Y909671D01*
X993033Y909784D01*
X993019Y909896D01*
X993010Y910010D01*
X993004Y910123D01*
X993002Y910237D01*
X1007198Y906907D02*
X1007198Y916898D01*
X1012193Y916898D01*
X1012193Y915233D01*
X1019988Y906907D02*
X1024151Y906907D01*
X1019988Y906907D02*
X1019890Y906909D01*
X1019792Y906915D01*
X1019694Y906924D01*
X1019597Y906938D01*
X1019501Y906955D01*
X1019405Y906976D01*
X1019310Y907001D01*
X1019216Y907029D01*
X1019123Y907061D01*
X1019032Y907097D01*
X1018942Y907136D01*
X1018854Y907179D01*
X1018767Y907226D01*
X1018683Y907275D01*
X1018600Y907328D01*
X1018520Y907384D01*
X1018442Y907443D01*
X1018366Y907506D01*
X1018292Y907571D01*
X1018222Y907639D01*
X1018154Y907709D01*
X1018089Y907783D01*
X1018026Y907859D01*
X1017967Y907937D01*
X1017911Y908017D01*
X1017858Y908100D01*
X1017809Y908184D01*
X1017762Y908271D01*
X1017719Y908359D01*
X1017680Y908449D01*
X1017644Y908540D01*
X1017612Y908633D01*
X1017584Y908727D01*
X1017559Y908822D01*
X1017538Y908918D01*
X1017521Y909014D01*
X1017507Y909111D01*
X1017498Y909209D01*
X1017492Y909307D01*
X1017490Y909405D01*
X1017490Y913567D01*
X1017491Y913567D02*
X1017493Y913681D01*
X1017499Y913794D01*
X1017508Y913908D01*
X1017522Y914020D01*
X1017539Y914133D01*
X1017561Y914245D01*
X1017586Y914355D01*
X1017614Y914465D01*
X1017647Y914574D01*
X1017683Y914682D01*
X1017723Y914789D01*
X1017767Y914894D01*
X1017814Y914997D01*
X1017864Y915099D01*
X1017918Y915199D01*
X1017976Y915297D01*
X1018037Y915393D01*
X1018100Y915487D01*
X1018168Y915579D01*
X1018238Y915669D01*
X1018311Y915755D01*
X1018387Y915840D01*
X1018466Y915922D01*
X1018548Y916001D01*
X1018633Y916077D01*
X1018719Y916150D01*
X1018809Y916220D01*
X1018901Y916288D01*
X1018995Y916351D01*
X1019091Y916412D01*
X1019189Y916470D01*
X1019289Y916524D01*
X1019391Y916574D01*
X1019494Y916621D01*
X1019599Y916665D01*
X1019706Y916705D01*
X1019814Y916741D01*
X1019923Y916774D01*
X1020033Y916802D01*
X1020143Y916827D01*
X1020255Y916849D01*
X1020368Y916866D01*
X1020480Y916880D01*
X1020594Y916889D01*
X1020707Y916895D01*
X1020821Y916897D01*
X1020935Y916895D01*
X1021048Y916889D01*
X1021162Y916880D01*
X1021274Y916866D01*
X1021387Y916849D01*
X1021499Y916827D01*
X1021609Y916802D01*
X1021719Y916774D01*
X1021828Y916741D01*
X1021936Y916705D01*
X1022043Y916665D01*
X1022148Y916621D01*
X1022251Y916574D01*
X1022353Y916524D01*
X1022453Y916470D01*
X1022551Y916412D01*
X1022647Y916351D01*
X1022741Y916288D01*
X1022833Y916220D01*
X1022923Y916150D01*
X1023009Y916077D01*
X1023094Y916001D01*
X1023176Y915922D01*
X1023255Y915840D01*
X1023331Y915755D01*
X1023404Y915669D01*
X1023474Y915579D01*
X1023542Y915487D01*
X1023605Y915393D01*
X1023666Y915297D01*
X1023724Y915199D01*
X1023778Y915099D01*
X1023828Y914997D01*
X1023875Y914894D01*
X1023919Y914789D01*
X1023959Y914682D01*
X1023995Y914574D01*
X1024028Y914465D01*
X1024056Y914355D01*
X1024081Y914245D01*
X1024103Y914133D01*
X1024120Y914020D01*
X1024134Y913908D01*
X1024143Y913794D01*
X1024149Y913681D01*
X1024151Y913567D01*
X1024151Y911902D01*
X1017490Y911902D01*
D11*
X1144270Y891540D02*
X1144270Y-68580D01*
D12*
X1103889Y906907D02*
X1100559Y916898D01*
X1107220Y916898D02*
X1103889Y906907D01*
X1114004Y912735D02*
X1123995Y912735D01*
X1132549Y912735D02*
X1136712Y911070D01*
X1132549Y912734D02*
X1132464Y912770D01*
X1132381Y912810D01*
X1132300Y912853D01*
X1132220Y912900D01*
X1132143Y912950D01*
X1132067Y913003D01*
X1131994Y913059D01*
X1131924Y913119D01*
X1131856Y913181D01*
X1131791Y913246D01*
X1131729Y913314D01*
X1131669Y913385D01*
X1131613Y913458D01*
X1131560Y913533D01*
X1131510Y913611D01*
X1131464Y913690D01*
X1131421Y913772D01*
X1131381Y913855D01*
X1131345Y913940D01*
X1131313Y914026D01*
X1131284Y914114D01*
X1131260Y914203D01*
X1131239Y914293D01*
X1131222Y914383D01*
X1131208Y914474D01*
X1131199Y914566D01*
X1131194Y914658D01*
X1131192Y914750D01*
X1131194Y914842D01*
X1131201Y914934D01*
X1131211Y915026D01*
X1131225Y915117D01*
X1131243Y915208D01*
X1131265Y915297D01*
X1131291Y915386D01*
X1131321Y915473D01*
X1131354Y915559D01*
X1131391Y915643D01*
X1131431Y915726D01*
X1131475Y915807D01*
X1131522Y915886D01*
X1131573Y915963D01*
X1131627Y916038D01*
X1131684Y916111D01*
X1131744Y916181D01*
X1131807Y916248D01*
X1131873Y916312D01*
X1131941Y916374D01*
X1132012Y916433D01*
X1132086Y916488D01*
X1132162Y916541D01*
X1132240Y916590D01*
X1132320Y916636D01*
X1132401Y916678D01*
X1132485Y916717D01*
X1132570Y916752D01*
X1132657Y916783D01*
X1132745Y916811D01*
X1132834Y916835D01*
X1132924Y916855D01*
X1133014Y916872D01*
X1133106Y916884D01*
X1133198Y916893D01*
X1133290Y916897D01*
X1133382Y916898D01*
X1133609Y916892D01*
X1133836Y916881D01*
X1134063Y916864D01*
X1134289Y916841D01*
X1134515Y916814D01*
X1134740Y916780D01*
X1134964Y916742D01*
X1135187Y916698D01*
X1135409Y916649D01*
X1135630Y916594D01*
X1135849Y916534D01*
X1136067Y916469D01*
X1136283Y916398D01*
X1136497Y916323D01*
X1136710Y916242D01*
X1136920Y916156D01*
X1137129Y916065D01*
X1136712Y911070D02*
X1136797Y911034D01*
X1136880Y910994D01*
X1136961Y910951D01*
X1137041Y910904D01*
X1137118Y910854D01*
X1137194Y910801D01*
X1137267Y910745D01*
X1137337Y910685D01*
X1137405Y910623D01*
X1137470Y910558D01*
X1137532Y910490D01*
X1137592Y910419D01*
X1137648Y910346D01*
X1137701Y910271D01*
X1137751Y910193D01*
X1137797Y910114D01*
X1137840Y910032D01*
X1137880Y909949D01*
X1137916Y909864D01*
X1137948Y909778D01*
X1137977Y909690D01*
X1138001Y909601D01*
X1138022Y909511D01*
X1138039Y909421D01*
X1138053Y909330D01*
X1138062Y909238D01*
X1138067Y909146D01*
X1138069Y909054D01*
X1138067Y908962D01*
X1138060Y908870D01*
X1138050Y908778D01*
X1138036Y908687D01*
X1138018Y908596D01*
X1137996Y908507D01*
X1137970Y908418D01*
X1137940Y908331D01*
X1137907Y908245D01*
X1137870Y908161D01*
X1137830Y908078D01*
X1137786Y907997D01*
X1137739Y907918D01*
X1137688Y907841D01*
X1137634Y907766D01*
X1137577Y907693D01*
X1137517Y907623D01*
X1137454Y907556D01*
X1137388Y907492D01*
X1137320Y907430D01*
X1137249Y907371D01*
X1137175Y907316D01*
X1137099Y907263D01*
X1137021Y907214D01*
X1136941Y907168D01*
X1136860Y907126D01*
X1136776Y907087D01*
X1136691Y907052D01*
X1136604Y907021D01*
X1136516Y906993D01*
X1136427Y906969D01*
X1136337Y906949D01*
X1136247Y906932D01*
X1136155Y906920D01*
X1136063Y906911D01*
X1135971Y906907D01*
X1135879Y906906D01*
X1135879Y906907D02*
X1135545Y906916D01*
X1135212Y906933D01*
X1134879Y906957D01*
X1134546Y906990D01*
X1134215Y907030D01*
X1133884Y907078D01*
X1133555Y907134D01*
X1133227Y907197D01*
X1132901Y907269D01*
X1132577Y907348D01*
X1132254Y907434D01*
X1131934Y907529D01*
X1131616Y907631D01*
X1131300Y907740D01*
X1147372Y906907D02*
X1150702Y906907D01*
X1147372Y906907D02*
X1147274Y906909D01*
X1147176Y906915D01*
X1147078Y906924D01*
X1146981Y906938D01*
X1146885Y906955D01*
X1146789Y906976D01*
X1146694Y907001D01*
X1146600Y907029D01*
X1146507Y907061D01*
X1146416Y907097D01*
X1146326Y907136D01*
X1146238Y907179D01*
X1146151Y907226D01*
X1146067Y907275D01*
X1145984Y907328D01*
X1145904Y907384D01*
X1145826Y907443D01*
X1145750Y907506D01*
X1145676Y907571D01*
X1145606Y907639D01*
X1145538Y907709D01*
X1145473Y907783D01*
X1145410Y907859D01*
X1145351Y907937D01*
X1145295Y908017D01*
X1145242Y908100D01*
X1145193Y908184D01*
X1145146Y908271D01*
X1145103Y908359D01*
X1145064Y908449D01*
X1145028Y908540D01*
X1144996Y908633D01*
X1144968Y908727D01*
X1144943Y908822D01*
X1144922Y908918D01*
X1144905Y909014D01*
X1144891Y909111D01*
X1144882Y909209D01*
X1144876Y909307D01*
X1144874Y909405D01*
X1144874Y914400D01*
X1144876Y914498D01*
X1144882Y914596D01*
X1144891Y914694D01*
X1144905Y914791D01*
X1144922Y914887D01*
X1144943Y914983D01*
X1144968Y915078D01*
X1144996Y915172D01*
X1145028Y915265D01*
X1145064Y915356D01*
X1145103Y915446D01*
X1145146Y915534D01*
X1145193Y915621D01*
X1145242Y915705D01*
X1145295Y915788D01*
X1145351Y915868D01*
X1145410Y915947D01*
X1145473Y916022D01*
X1145538Y916096D01*
X1145606Y916166D01*
X1145676Y916234D01*
X1145750Y916300D01*
X1145826Y916362D01*
X1145904Y916421D01*
X1145984Y916477D01*
X1146067Y916530D01*
X1146151Y916580D01*
X1146238Y916626D01*
X1146326Y916669D01*
X1146416Y916708D01*
X1146507Y916744D01*
X1146600Y916776D01*
X1146694Y916804D01*
X1146789Y916829D01*
X1146885Y916850D01*
X1146981Y916867D01*
X1147078Y916881D01*
X1147176Y916890D01*
X1147274Y916896D01*
X1147372Y916898D01*
X1150702Y916898D01*
X1156832Y913567D02*
X1156832Y910237D01*
X1156832Y913567D02*
X1156834Y913681D01*
X1156840Y913794D01*
X1156849Y913908D01*
X1156863Y914020D01*
X1156880Y914133D01*
X1156902Y914245D01*
X1156927Y914355D01*
X1156955Y914465D01*
X1156988Y914574D01*
X1157024Y914682D01*
X1157064Y914789D01*
X1157108Y914894D01*
X1157155Y914997D01*
X1157205Y915099D01*
X1157259Y915199D01*
X1157317Y915297D01*
X1157378Y915393D01*
X1157441Y915487D01*
X1157509Y915579D01*
X1157579Y915669D01*
X1157652Y915755D01*
X1157728Y915840D01*
X1157807Y915922D01*
X1157889Y916001D01*
X1157974Y916077D01*
X1158060Y916150D01*
X1158150Y916220D01*
X1158242Y916288D01*
X1158336Y916351D01*
X1158432Y916412D01*
X1158530Y916470D01*
X1158630Y916524D01*
X1158732Y916574D01*
X1158835Y916621D01*
X1158940Y916665D01*
X1159047Y916705D01*
X1159155Y916741D01*
X1159264Y916774D01*
X1159374Y916802D01*
X1159484Y916827D01*
X1159596Y916849D01*
X1159709Y916866D01*
X1159821Y916880D01*
X1159935Y916889D01*
X1160048Y916895D01*
X1160162Y916897D01*
X1160276Y916895D01*
X1160389Y916889D01*
X1160503Y916880D01*
X1160615Y916866D01*
X1160728Y916849D01*
X1160840Y916827D01*
X1160950Y916802D01*
X1161060Y916774D01*
X1161169Y916741D01*
X1161277Y916705D01*
X1161384Y916665D01*
X1161489Y916621D01*
X1161592Y916574D01*
X1161694Y916524D01*
X1161794Y916470D01*
X1161892Y916412D01*
X1161988Y916351D01*
X1162082Y916288D01*
X1162174Y916220D01*
X1162264Y916150D01*
X1162350Y916077D01*
X1162435Y916001D01*
X1162517Y915922D01*
X1162596Y915840D01*
X1162672Y915755D01*
X1162745Y915669D01*
X1162815Y915579D01*
X1162883Y915487D01*
X1162946Y915393D01*
X1163007Y915297D01*
X1163065Y915199D01*
X1163119Y915099D01*
X1163169Y914997D01*
X1163216Y914894D01*
X1163260Y914789D01*
X1163300Y914682D01*
X1163336Y914574D01*
X1163369Y914465D01*
X1163397Y914355D01*
X1163422Y914245D01*
X1163444Y914133D01*
X1163461Y914020D01*
X1163475Y913908D01*
X1163484Y913794D01*
X1163490Y913681D01*
X1163492Y913567D01*
X1163492Y910237D01*
X1163490Y910123D01*
X1163484Y910010D01*
X1163475Y909896D01*
X1163461Y909784D01*
X1163444Y909671D01*
X1163422Y909559D01*
X1163397Y909449D01*
X1163369Y909339D01*
X1163336Y909230D01*
X1163300Y909122D01*
X1163260Y909015D01*
X1163216Y908910D01*
X1163169Y908807D01*
X1163119Y908705D01*
X1163065Y908605D01*
X1163007Y908507D01*
X1162946Y908411D01*
X1162883Y908317D01*
X1162815Y908225D01*
X1162745Y908135D01*
X1162672Y908049D01*
X1162596Y907964D01*
X1162517Y907882D01*
X1162435Y907803D01*
X1162350Y907727D01*
X1162264Y907654D01*
X1162174Y907584D01*
X1162082Y907516D01*
X1161988Y907453D01*
X1161892Y907392D01*
X1161794Y907334D01*
X1161694Y907280D01*
X1161592Y907230D01*
X1161489Y907183D01*
X1161384Y907139D01*
X1161277Y907099D01*
X1161169Y907063D01*
X1161060Y907030D01*
X1160950Y907002D01*
X1160840Y906977D01*
X1160728Y906955D01*
X1160615Y906938D01*
X1160503Y906924D01*
X1160389Y906915D01*
X1160276Y906909D01*
X1160162Y906907D01*
X1160048Y906909D01*
X1159935Y906915D01*
X1159821Y906924D01*
X1159709Y906938D01*
X1159596Y906955D01*
X1159484Y906977D01*
X1159374Y907002D01*
X1159264Y907030D01*
X1159155Y907063D01*
X1159047Y907099D01*
X1158940Y907139D01*
X1158835Y907183D01*
X1158732Y907230D01*
X1158630Y907280D01*
X1158530Y907334D01*
X1158432Y907392D01*
X1158336Y907453D01*
X1158242Y907516D01*
X1158150Y907584D01*
X1158060Y907654D01*
X1157974Y907727D01*
X1157889Y907803D01*
X1157807Y907882D01*
X1157728Y907964D01*
X1157652Y908049D01*
X1157579Y908135D01*
X1157509Y908225D01*
X1157441Y908317D01*
X1157378Y908411D01*
X1157317Y908507D01*
X1157259Y908605D01*
X1157205Y908705D01*
X1157155Y908807D01*
X1157108Y908910D01*
X1157064Y909015D01*
X1157024Y909122D01*
X1156988Y909230D01*
X1156955Y909339D01*
X1156927Y909449D01*
X1156902Y909559D01*
X1156880Y909671D01*
X1156863Y909784D01*
X1156849Y909896D01*
X1156840Y910010D01*
X1156834Y910123D01*
X1156832Y910237D01*
X1171028Y906907D02*
X1171028Y916898D01*
X1176023Y916898D01*
X1176023Y915233D01*
X1183818Y906907D02*
X1187981Y906907D01*
X1183818Y906907D02*
X1183720Y906909D01*
X1183622Y906915D01*
X1183524Y906924D01*
X1183427Y906938D01*
X1183331Y906955D01*
X1183235Y906976D01*
X1183140Y907001D01*
X1183046Y907029D01*
X1182953Y907061D01*
X1182862Y907097D01*
X1182772Y907136D01*
X1182684Y907179D01*
X1182597Y907226D01*
X1182513Y907275D01*
X1182430Y907328D01*
X1182350Y907384D01*
X1182272Y907443D01*
X1182196Y907506D01*
X1182122Y907571D01*
X1182052Y907639D01*
X1181984Y907709D01*
X1181919Y907783D01*
X1181856Y907859D01*
X1181797Y907937D01*
X1181741Y908017D01*
X1181688Y908100D01*
X1181639Y908184D01*
X1181592Y908271D01*
X1181549Y908359D01*
X1181510Y908449D01*
X1181474Y908540D01*
X1181442Y908633D01*
X1181414Y908727D01*
X1181389Y908822D01*
X1181368Y908918D01*
X1181351Y909014D01*
X1181337Y909111D01*
X1181328Y909209D01*
X1181322Y909307D01*
X1181320Y909405D01*
X1181320Y913567D01*
X1181321Y913567D02*
X1181323Y913681D01*
X1181329Y913794D01*
X1181338Y913908D01*
X1181352Y914020D01*
X1181369Y914133D01*
X1181391Y914245D01*
X1181416Y914355D01*
X1181444Y914465D01*
X1181477Y914574D01*
X1181513Y914682D01*
X1181553Y914789D01*
X1181597Y914894D01*
X1181644Y914997D01*
X1181694Y915099D01*
X1181748Y915199D01*
X1181806Y915297D01*
X1181867Y915393D01*
X1181930Y915487D01*
X1181998Y915579D01*
X1182068Y915669D01*
X1182141Y915755D01*
X1182217Y915840D01*
X1182296Y915922D01*
X1182378Y916001D01*
X1182463Y916077D01*
X1182549Y916150D01*
X1182639Y916220D01*
X1182731Y916288D01*
X1182825Y916351D01*
X1182921Y916412D01*
X1183019Y916470D01*
X1183119Y916524D01*
X1183221Y916574D01*
X1183324Y916621D01*
X1183429Y916665D01*
X1183536Y916705D01*
X1183644Y916741D01*
X1183753Y916774D01*
X1183863Y916802D01*
X1183973Y916827D01*
X1184085Y916849D01*
X1184198Y916866D01*
X1184310Y916880D01*
X1184424Y916889D01*
X1184537Y916895D01*
X1184651Y916897D01*
X1184765Y916895D01*
X1184878Y916889D01*
X1184992Y916880D01*
X1185104Y916866D01*
X1185217Y916849D01*
X1185329Y916827D01*
X1185439Y916802D01*
X1185549Y916774D01*
X1185658Y916741D01*
X1185766Y916705D01*
X1185873Y916665D01*
X1185978Y916621D01*
X1186081Y916574D01*
X1186183Y916524D01*
X1186283Y916470D01*
X1186381Y916412D01*
X1186477Y916351D01*
X1186571Y916288D01*
X1186663Y916220D01*
X1186753Y916150D01*
X1186839Y916077D01*
X1186924Y916001D01*
X1187006Y915922D01*
X1187085Y915840D01*
X1187161Y915755D01*
X1187234Y915669D01*
X1187304Y915579D01*
X1187372Y915487D01*
X1187435Y915393D01*
X1187496Y915297D01*
X1187554Y915199D01*
X1187608Y915099D01*
X1187658Y914997D01*
X1187705Y914894D01*
X1187749Y914789D01*
X1187789Y914682D01*
X1187825Y914574D01*
X1187858Y914465D01*
X1187886Y914355D01*
X1187911Y914245D01*
X1187933Y914133D01*
X1187950Y914020D01*
X1187964Y913908D01*
X1187973Y913794D01*
X1187979Y913681D01*
X1187981Y913567D01*
X1187981Y911902D01*
X1181320Y911902D01*
D11*
X1308100Y891540D02*
X1308100Y-68580D01*
D12*
X1267719Y906907D02*
X1264389Y916898D01*
X1271050Y916898D02*
X1267719Y906907D01*
X1277834Y912735D02*
X1287825Y912735D01*
X1296379Y912735D02*
X1300542Y911070D01*
X1296379Y912734D02*
X1296294Y912770D01*
X1296211Y912810D01*
X1296130Y912853D01*
X1296050Y912900D01*
X1295973Y912950D01*
X1295897Y913003D01*
X1295824Y913059D01*
X1295754Y913119D01*
X1295686Y913181D01*
X1295621Y913246D01*
X1295559Y913314D01*
X1295499Y913385D01*
X1295443Y913458D01*
X1295390Y913533D01*
X1295340Y913611D01*
X1295294Y913690D01*
X1295251Y913772D01*
X1295211Y913855D01*
X1295175Y913940D01*
X1295143Y914026D01*
X1295114Y914114D01*
X1295090Y914203D01*
X1295069Y914293D01*
X1295052Y914383D01*
X1295038Y914474D01*
X1295029Y914566D01*
X1295024Y914658D01*
X1295022Y914750D01*
X1295024Y914842D01*
X1295031Y914934D01*
X1295041Y915026D01*
X1295055Y915117D01*
X1295073Y915208D01*
X1295095Y915297D01*
X1295121Y915386D01*
X1295151Y915473D01*
X1295184Y915559D01*
X1295221Y915643D01*
X1295261Y915726D01*
X1295305Y915807D01*
X1295352Y915886D01*
X1295403Y915963D01*
X1295457Y916038D01*
X1295514Y916111D01*
X1295574Y916181D01*
X1295637Y916248D01*
X1295703Y916312D01*
X1295771Y916374D01*
X1295842Y916433D01*
X1295916Y916488D01*
X1295992Y916541D01*
X1296070Y916590D01*
X1296150Y916636D01*
X1296231Y916678D01*
X1296315Y916717D01*
X1296400Y916752D01*
X1296487Y916783D01*
X1296575Y916811D01*
X1296664Y916835D01*
X1296754Y916855D01*
X1296844Y916872D01*
X1296936Y916884D01*
X1297028Y916893D01*
X1297120Y916897D01*
X1297212Y916898D01*
X1297439Y916892D01*
X1297666Y916881D01*
X1297893Y916864D01*
X1298119Y916841D01*
X1298345Y916814D01*
X1298570Y916780D01*
X1298794Y916742D01*
X1299017Y916698D01*
X1299239Y916649D01*
X1299460Y916594D01*
X1299679Y916534D01*
X1299897Y916469D01*
X1300113Y916398D01*
X1300327Y916323D01*
X1300540Y916242D01*
X1300750Y916156D01*
X1300959Y916065D01*
X1300542Y911070D02*
X1300627Y911034D01*
X1300710Y910994D01*
X1300791Y910951D01*
X1300871Y910904D01*
X1300948Y910854D01*
X1301024Y910801D01*
X1301097Y910745D01*
X1301167Y910685D01*
X1301235Y910623D01*
X1301300Y910558D01*
X1301362Y910490D01*
X1301422Y910419D01*
X1301478Y910346D01*
X1301531Y910271D01*
X1301581Y910193D01*
X1301627Y910114D01*
X1301670Y910032D01*
X1301710Y909949D01*
X1301746Y909864D01*
X1301778Y909778D01*
X1301807Y909690D01*
X1301831Y909601D01*
X1301852Y909511D01*
X1301869Y909421D01*
X1301883Y909330D01*
X1301892Y909238D01*
X1301897Y909146D01*
X1301899Y909054D01*
X1301897Y908962D01*
X1301890Y908870D01*
X1301880Y908778D01*
X1301866Y908687D01*
X1301848Y908596D01*
X1301826Y908507D01*
X1301800Y908418D01*
X1301770Y908331D01*
X1301737Y908245D01*
X1301700Y908161D01*
X1301660Y908078D01*
X1301616Y907997D01*
X1301569Y907918D01*
X1301518Y907841D01*
X1301464Y907766D01*
X1301407Y907693D01*
X1301347Y907623D01*
X1301284Y907556D01*
X1301218Y907492D01*
X1301150Y907430D01*
X1301079Y907371D01*
X1301005Y907316D01*
X1300929Y907263D01*
X1300851Y907214D01*
X1300771Y907168D01*
X1300690Y907126D01*
X1300606Y907087D01*
X1300521Y907052D01*
X1300434Y907021D01*
X1300346Y906993D01*
X1300257Y906969D01*
X1300167Y906949D01*
X1300077Y906932D01*
X1299985Y906920D01*
X1299893Y906911D01*
X1299801Y906907D01*
X1299709Y906906D01*
X1299709Y906907D02*
X1299375Y906916D01*
X1299042Y906933D01*
X1298709Y906957D01*
X1298376Y906990D01*
X1298045Y907030D01*
X1297714Y907078D01*
X1297385Y907134D01*
X1297057Y907197D01*
X1296731Y907269D01*
X1296407Y907348D01*
X1296084Y907434D01*
X1295764Y907529D01*
X1295446Y907631D01*
X1295130Y907740D01*
X1311202Y906907D02*
X1314532Y906907D01*
X1311202Y906907D02*
X1311104Y906909D01*
X1311006Y906915D01*
X1310908Y906924D01*
X1310811Y906938D01*
X1310715Y906955D01*
X1310619Y906976D01*
X1310524Y907001D01*
X1310430Y907029D01*
X1310337Y907061D01*
X1310246Y907097D01*
X1310156Y907136D01*
X1310068Y907179D01*
X1309981Y907226D01*
X1309897Y907275D01*
X1309814Y907328D01*
X1309734Y907384D01*
X1309656Y907443D01*
X1309580Y907506D01*
X1309506Y907571D01*
X1309436Y907639D01*
X1309368Y907709D01*
X1309303Y907783D01*
X1309240Y907859D01*
X1309181Y907937D01*
X1309125Y908017D01*
X1309072Y908100D01*
X1309023Y908184D01*
X1308976Y908271D01*
X1308933Y908359D01*
X1308894Y908449D01*
X1308858Y908540D01*
X1308826Y908633D01*
X1308798Y908727D01*
X1308773Y908822D01*
X1308752Y908918D01*
X1308735Y909014D01*
X1308721Y909111D01*
X1308712Y909209D01*
X1308706Y909307D01*
X1308704Y909405D01*
X1308704Y914400D01*
X1308706Y914498D01*
X1308712Y914596D01*
X1308721Y914694D01*
X1308735Y914791D01*
X1308752Y914887D01*
X1308773Y914983D01*
X1308798Y915078D01*
X1308826Y915172D01*
X1308858Y915265D01*
X1308894Y915356D01*
X1308933Y915446D01*
X1308976Y915534D01*
X1309023Y915621D01*
X1309072Y915705D01*
X1309125Y915788D01*
X1309181Y915868D01*
X1309240Y915947D01*
X1309303Y916022D01*
X1309368Y916096D01*
X1309436Y916166D01*
X1309506Y916234D01*
X1309580Y916300D01*
X1309656Y916362D01*
X1309734Y916421D01*
X1309814Y916477D01*
X1309897Y916530D01*
X1309981Y916580D01*
X1310068Y916626D01*
X1310156Y916669D01*
X1310246Y916708D01*
X1310337Y916744D01*
X1310430Y916776D01*
X1310524Y916804D01*
X1310619Y916829D01*
X1310715Y916850D01*
X1310811Y916867D01*
X1310908Y916881D01*
X1311006Y916890D01*
X1311104Y916896D01*
X1311202Y916898D01*
X1314532Y916898D01*
X1320662Y913567D02*
X1320662Y910237D01*
X1320662Y913567D02*
X1320664Y913681D01*
X1320670Y913794D01*
X1320679Y913908D01*
X1320693Y914020D01*
X1320710Y914133D01*
X1320732Y914245D01*
X1320757Y914355D01*
X1320785Y914465D01*
X1320818Y914574D01*
X1320854Y914682D01*
X1320894Y914789D01*
X1320938Y914894D01*
X1320985Y914997D01*
X1321035Y915099D01*
X1321089Y915199D01*
X1321147Y915297D01*
X1321208Y915393D01*
X1321271Y915487D01*
X1321339Y915579D01*
X1321409Y915669D01*
X1321482Y915755D01*
X1321558Y915840D01*
X1321637Y915922D01*
X1321719Y916001D01*
X1321804Y916077D01*
X1321890Y916150D01*
X1321980Y916220D01*
X1322072Y916288D01*
X1322166Y916351D01*
X1322262Y916412D01*
X1322360Y916470D01*
X1322460Y916524D01*
X1322562Y916574D01*
X1322665Y916621D01*
X1322770Y916665D01*
X1322877Y916705D01*
X1322985Y916741D01*
X1323094Y916774D01*
X1323204Y916802D01*
X1323314Y916827D01*
X1323426Y916849D01*
X1323539Y916866D01*
X1323651Y916880D01*
X1323765Y916889D01*
X1323878Y916895D01*
X1323992Y916897D01*
X1324106Y916895D01*
X1324219Y916889D01*
X1324333Y916880D01*
X1324445Y916866D01*
X1324558Y916849D01*
X1324670Y916827D01*
X1324780Y916802D01*
X1324890Y916774D01*
X1324999Y916741D01*
X1325107Y916705D01*
X1325214Y916665D01*
X1325319Y916621D01*
X1325422Y916574D01*
X1325524Y916524D01*
X1325624Y916470D01*
X1325722Y916412D01*
X1325818Y916351D01*
X1325912Y916288D01*
X1326004Y916220D01*
X1326094Y916150D01*
X1326180Y916077D01*
X1326265Y916001D01*
X1326347Y915922D01*
X1326426Y915840D01*
X1326502Y915755D01*
X1326575Y915669D01*
X1326645Y915579D01*
X1326713Y915487D01*
X1326776Y915393D01*
X1326837Y915297D01*
X1326895Y915199D01*
X1326949Y915099D01*
X1326999Y914997D01*
X1327046Y914894D01*
X1327090Y914789D01*
X1327130Y914682D01*
X1327166Y914574D01*
X1327199Y914465D01*
X1327227Y914355D01*
X1327252Y914245D01*
X1327274Y914133D01*
X1327291Y914020D01*
X1327305Y913908D01*
X1327314Y913794D01*
X1327320Y913681D01*
X1327322Y913567D01*
X1327322Y910237D01*
X1327320Y910123D01*
X1327314Y910010D01*
X1327305Y909896D01*
X1327291Y909784D01*
X1327274Y909671D01*
X1327252Y909559D01*
X1327227Y909449D01*
X1327199Y909339D01*
X1327166Y909230D01*
X1327130Y909122D01*
X1327090Y909015D01*
X1327046Y908910D01*
X1326999Y908807D01*
X1326949Y908705D01*
X1326895Y908605D01*
X1326837Y908507D01*
X1326776Y908411D01*
X1326713Y908317D01*
X1326645Y908225D01*
X1326575Y908135D01*
X1326502Y908049D01*
X1326426Y907964D01*
X1326347Y907882D01*
X1326265Y907803D01*
X1326180Y907727D01*
X1326094Y907654D01*
X1326004Y907584D01*
X1325912Y907516D01*
X1325818Y907453D01*
X1325722Y907392D01*
X1325624Y907334D01*
X1325524Y907280D01*
X1325422Y907230D01*
X1325319Y907183D01*
X1325214Y907139D01*
X1325107Y907099D01*
X1324999Y907063D01*
X1324890Y907030D01*
X1324780Y907002D01*
X1324670Y906977D01*
X1324558Y906955D01*
X1324445Y906938D01*
X1324333Y906924D01*
X1324219Y906915D01*
X1324106Y906909D01*
X1323992Y906907D01*
X1323878Y906909D01*
X1323765Y906915D01*
X1323651Y906924D01*
X1323539Y906938D01*
X1323426Y906955D01*
X1323314Y906977D01*
X1323204Y907002D01*
X1323094Y907030D01*
X1322985Y907063D01*
X1322877Y907099D01*
X1322770Y907139D01*
X1322665Y907183D01*
X1322562Y907230D01*
X1322460Y907280D01*
X1322360Y907334D01*
X1322262Y907392D01*
X1322166Y907453D01*
X1322072Y907516D01*
X1321980Y907584D01*
X1321890Y907654D01*
X1321804Y907727D01*
X1321719Y907803D01*
X1321637Y907882D01*
X1321558Y907964D01*
X1321482Y908049D01*
X1321409Y908135D01*
X1321339Y908225D01*
X1321271Y908317D01*
X1321208Y908411D01*
X1321147Y908507D01*
X1321089Y908605D01*
X1321035Y908705D01*
X1320985Y908807D01*
X1320938Y908910D01*
X1320894Y909015D01*
X1320854Y909122D01*
X1320818Y909230D01*
X1320785Y909339D01*
X1320757Y909449D01*
X1320732Y909559D01*
X1320710Y909671D01*
X1320693Y909784D01*
X1320679Y909896D01*
X1320670Y910010D01*
X1320664Y910123D01*
X1320662Y910237D01*
X1334858Y906907D02*
X1334858Y916898D01*
X1339853Y916898D01*
X1339853Y915233D01*
X1347648Y906907D02*
X1351811Y906907D01*
X1347648Y906907D02*
X1347550Y906909D01*
X1347452Y906915D01*
X1347354Y906924D01*
X1347257Y906938D01*
X1347161Y906955D01*
X1347065Y906976D01*
X1346970Y907001D01*
X1346876Y907029D01*
X1346783Y907061D01*
X1346692Y907097D01*
X1346602Y907136D01*
X1346514Y907179D01*
X1346427Y907226D01*
X1346343Y907275D01*
X1346260Y907328D01*
X1346180Y907384D01*
X1346102Y907443D01*
X1346026Y907506D01*
X1345952Y907571D01*
X1345882Y907639D01*
X1345814Y907709D01*
X1345749Y907783D01*
X1345686Y907859D01*
X1345627Y907937D01*
X1345571Y908017D01*
X1345518Y908100D01*
X1345469Y908184D01*
X1345422Y908271D01*
X1345379Y908359D01*
X1345340Y908449D01*
X1345304Y908540D01*
X1345272Y908633D01*
X1345244Y908727D01*
X1345219Y908822D01*
X1345198Y908918D01*
X1345181Y909014D01*
X1345167Y909111D01*
X1345158Y909209D01*
X1345152Y909307D01*
X1345150Y909405D01*
X1345150Y913567D01*
X1345151Y913567D02*
X1345153Y913681D01*
X1345159Y913794D01*
X1345168Y913908D01*
X1345182Y914020D01*
X1345199Y914133D01*
X1345221Y914245D01*
X1345246Y914355D01*
X1345274Y914465D01*
X1345307Y914574D01*
X1345343Y914682D01*
X1345383Y914789D01*
X1345427Y914894D01*
X1345474Y914997D01*
X1345524Y915099D01*
X1345578Y915199D01*
X1345636Y915297D01*
X1345697Y915393D01*
X1345760Y915487D01*
X1345828Y915579D01*
X1345898Y915669D01*
X1345971Y915755D01*
X1346047Y915840D01*
X1346126Y915922D01*
X1346208Y916001D01*
X1346293Y916077D01*
X1346379Y916150D01*
X1346469Y916220D01*
X1346561Y916288D01*
X1346655Y916351D01*
X1346751Y916412D01*
X1346849Y916470D01*
X1346949Y916524D01*
X1347051Y916574D01*
X1347154Y916621D01*
X1347259Y916665D01*
X1347366Y916705D01*
X1347474Y916741D01*
X1347583Y916774D01*
X1347693Y916802D01*
X1347803Y916827D01*
X1347915Y916849D01*
X1348028Y916866D01*
X1348140Y916880D01*
X1348254Y916889D01*
X1348367Y916895D01*
X1348481Y916897D01*
X1348595Y916895D01*
X1348708Y916889D01*
X1348822Y916880D01*
X1348934Y916866D01*
X1349047Y916849D01*
X1349159Y916827D01*
X1349269Y916802D01*
X1349379Y916774D01*
X1349488Y916741D01*
X1349596Y916705D01*
X1349703Y916665D01*
X1349808Y916621D01*
X1349911Y916574D01*
X1350013Y916524D01*
X1350113Y916470D01*
X1350211Y916412D01*
X1350307Y916351D01*
X1350401Y916288D01*
X1350493Y916220D01*
X1350583Y916150D01*
X1350669Y916077D01*
X1350754Y916001D01*
X1350836Y915922D01*
X1350915Y915840D01*
X1350991Y915755D01*
X1351064Y915669D01*
X1351134Y915579D01*
X1351202Y915487D01*
X1351265Y915393D01*
X1351326Y915297D01*
X1351384Y915199D01*
X1351438Y915099D01*
X1351488Y914997D01*
X1351535Y914894D01*
X1351579Y914789D01*
X1351619Y914682D01*
X1351655Y914574D01*
X1351688Y914465D01*
X1351716Y914355D01*
X1351741Y914245D01*
X1351763Y914133D01*
X1351780Y914020D01*
X1351794Y913908D01*
X1351803Y913794D01*
X1351809Y913681D01*
X1351811Y913567D01*
X1351811Y911902D01*
X1345150Y911902D01*
D11*
X1437640Y-2540D02*
X-68580Y-2540D01*
D12*
X1470129Y-42D02*
X1473459Y-10033D01*
X1476790Y-42D01*
X1483574Y-4205D02*
X1493565Y-4205D01*
X1502119Y-4205D02*
X1506282Y-5870D01*
X1502119Y-4206D02*
X1502034Y-4170D01*
X1501951Y-4130D01*
X1501870Y-4087D01*
X1501790Y-4040D01*
X1501713Y-3990D01*
X1501637Y-3937D01*
X1501564Y-3881D01*
X1501494Y-3821D01*
X1501426Y-3759D01*
X1501361Y-3694D01*
X1501299Y-3626D01*
X1501239Y-3555D01*
X1501183Y-3482D01*
X1501130Y-3407D01*
X1501080Y-3329D01*
X1501034Y-3250D01*
X1500991Y-3168D01*
X1500951Y-3085D01*
X1500915Y-3000D01*
X1500883Y-2914D01*
X1500854Y-2826D01*
X1500830Y-2737D01*
X1500809Y-2647D01*
X1500792Y-2557D01*
X1500778Y-2466D01*
X1500769Y-2374D01*
X1500764Y-2282D01*
X1500762Y-2190D01*
X1500764Y-2098D01*
X1500771Y-2006D01*
X1500781Y-1914D01*
X1500795Y-1823D01*
X1500813Y-1732D01*
X1500835Y-1643D01*
X1500861Y-1554D01*
X1500891Y-1467D01*
X1500924Y-1381D01*
X1500961Y-1297D01*
X1501001Y-1214D01*
X1501045Y-1133D01*
X1501092Y-1054D01*
X1501143Y-977D01*
X1501197Y-902D01*
X1501254Y-829D01*
X1501314Y-759D01*
X1501377Y-692D01*
X1501443Y-628D01*
X1501511Y-566D01*
X1501582Y-507D01*
X1501656Y-452D01*
X1501732Y-399D01*
X1501810Y-350D01*
X1501890Y-304D01*
X1501971Y-262D01*
X1502055Y-223D01*
X1502140Y-188D01*
X1502227Y-157D01*
X1502315Y-129D01*
X1502404Y-105D01*
X1502494Y-85D01*
X1502584Y-68D01*
X1502676Y-56D01*
X1502768Y-47D01*
X1502860Y-43D01*
X1502952Y-42D01*
X1503179Y-48D01*
X1503406Y-59D01*
X1503633Y-76D01*
X1503859Y-99D01*
X1504085Y-126D01*
X1504310Y-160D01*
X1504534Y-198D01*
X1504757Y-242D01*
X1504979Y-291D01*
X1505200Y-346D01*
X1505419Y-406D01*
X1505637Y-471D01*
X1505853Y-542D01*
X1506067Y-617D01*
X1506280Y-698D01*
X1506490Y-784D01*
X1506699Y-875D01*
X1506282Y-5870D02*
X1506367Y-5906D01*
X1506450Y-5946D01*
X1506531Y-5989D01*
X1506611Y-6036D01*
X1506688Y-6086D01*
X1506764Y-6139D01*
X1506837Y-6195D01*
X1506907Y-6255D01*
X1506975Y-6317D01*
X1507040Y-6382D01*
X1507102Y-6450D01*
X1507162Y-6521D01*
X1507218Y-6594D01*
X1507271Y-6669D01*
X1507321Y-6747D01*
X1507367Y-6826D01*
X1507410Y-6908D01*
X1507450Y-6991D01*
X1507486Y-7076D01*
X1507518Y-7162D01*
X1507547Y-7250D01*
X1507571Y-7339D01*
X1507592Y-7429D01*
X1507609Y-7519D01*
X1507623Y-7610D01*
X1507632Y-7702D01*
X1507637Y-7794D01*
X1507639Y-7886D01*
X1507637Y-7978D01*
X1507630Y-8070D01*
X1507620Y-8162D01*
X1507606Y-8253D01*
X1507588Y-8344D01*
X1507566Y-8433D01*
X1507540Y-8522D01*
X1507510Y-8609D01*
X1507477Y-8695D01*
X1507440Y-8779D01*
X1507400Y-8862D01*
X1507356Y-8943D01*
X1507309Y-9022D01*
X1507258Y-9099D01*
X1507204Y-9174D01*
X1507147Y-9247D01*
X1507087Y-9317D01*
X1507024Y-9384D01*
X1506958Y-9448D01*
X1506890Y-9510D01*
X1506819Y-9569D01*
X1506745Y-9624D01*
X1506669Y-9677D01*
X1506591Y-9726D01*
X1506511Y-9772D01*
X1506430Y-9814D01*
X1506346Y-9853D01*
X1506261Y-9888D01*
X1506174Y-9919D01*
X1506086Y-9947D01*
X1505997Y-9971D01*
X1505907Y-9991D01*
X1505817Y-10008D01*
X1505725Y-10020D01*
X1505633Y-10029D01*
X1505541Y-10033D01*
X1505449Y-10034D01*
X1505449Y-10033D02*
X1505115Y-10024D01*
X1504782Y-10007D01*
X1504449Y-9983D01*
X1504116Y-9950D01*
X1503785Y-9910D01*
X1503454Y-9862D01*
X1503125Y-9806D01*
X1502797Y-9743D01*
X1502471Y-9671D01*
X1502147Y-9592D01*
X1501824Y-9506D01*
X1501504Y-9411D01*
X1501186Y-9309D01*
X1500870Y-9200D01*
X1516942Y-10033D02*
X1520272Y-10033D01*
X1516942Y-10033D02*
X1516844Y-10031D01*
X1516746Y-10025D01*
X1516648Y-10016D01*
X1516551Y-10002D01*
X1516455Y-9985D01*
X1516359Y-9964D01*
X1516264Y-9939D01*
X1516170Y-9911D01*
X1516077Y-9879D01*
X1515986Y-9843D01*
X1515896Y-9804D01*
X1515808Y-9761D01*
X1515721Y-9714D01*
X1515637Y-9665D01*
X1515554Y-9612D01*
X1515474Y-9556D01*
X1515396Y-9497D01*
X1515320Y-9435D01*
X1515246Y-9369D01*
X1515176Y-9301D01*
X1515108Y-9231D01*
X1515043Y-9157D01*
X1514980Y-9082D01*
X1514921Y-9003D01*
X1514865Y-8923D01*
X1514812Y-8840D01*
X1514763Y-8756D01*
X1514716Y-8669D01*
X1514673Y-8581D01*
X1514634Y-8491D01*
X1514598Y-8400D01*
X1514566Y-8307D01*
X1514538Y-8213D01*
X1514513Y-8118D01*
X1514492Y-8022D01*
X1514475Y-7926D01*
X1514461Y-7829D01*
X1514452Y-7731D01*
X1514446Y-7633D01*
X1514444Y-7535D01*
X1514444Y-2540D01*
X1514446Y-2442D01*
X1514452Y-2344D01*
X1514461Y-2246D01*
X1514475Y-2149D01*
X1514492Y-2053D01*
X1514513Y-1957D01*
X1514538Y-1862D01*
X1514566Y-1768D01*
X1514598Y-1675D01*
X1514634Y-1584D01*
X1514673Y-1494D01*
X1514716Y-1406D01*
X1514763Y-1319D01*
X1514812Y-1235D01*
X1514865Y-1152D01*
X1514921Y-1072D01*
X1514980Y-994D01*
X1515043Y-918D01*
X1515108Y-844D01*
X1515176Y-774D01*
X1515246Y-706D01*
X1515320Y-641D01*
X1515396Y-578D01*
X1515474Y-519D01*
X1515554Y-463D01*
X1515637Y-410D01*
X1515721Y-361D01*
X1515808Y-314D01*
X1515896Y-271D01*
X1515986Y-232D01*
X1516077Y-196D01*
X1516170Y-164D01*
X1516264Y-136D01*
X1516359Y-111D01*
X1516455Y-90D01*
X1516551Y-73D01*
X1516648Y-59D01*
X1516746Y-50D01*
X1516844Y-44D01*
X1516942Y-42D01*
X1520272Y-42D01*
X1526402Y-3373D02*
X1526402Y-6703D01*
X1526402Y-3373D02*
X1526404Y-3259D01*
X1526410Y-3146D01*
X1526419Y-3032D01*
X1526433Y-2920D01*
X1526450Y-2807D01*
X1526472Y-2695D01*
X1526497Y-2585D01*
X1526525Y-2475D01*
X1526558Y-2366D01*
X1526594Y-2258D01*
X1526634Y-2151D01*
X1526678Y-2046D01*
X1526725Y-1943D01*
X1526775Y-1841D01*
X1526829Y-1741D01*
X1526887Y-1643D01*
X1526948Y-1547D01*
X1527011Y-1453D01*
X1527079Y-1361D01*
X1527149Y-1271D01*
X1527222Y-1185D01*
X1527298Y-1100D01*
X1527377Y-1018D01*
X1527459Y-939D01*
X1527544Y-863D01*
X1527630Y-790D01*
X1527720Y-720D01*
X1527812Y-652D01*
X1527906Y-589D01*
X1528002Y-528D01*
X1528100Y-470D01*
X1528200Y-416D01*
X1528302Y-366D01*
X1528405Y-319D01*
X1528510Y-275D01*
X1528617Y-235D01*
X1528725Y-199D01*
X1528834Y-166D01*
X1528944Y-138D01*
X1529054Y-113D01*
X1529166Y-91D01*
X1529279Y-74D01*
X1529391Y-60D01*
X1529505Y-51D01*
X1529618Y-45D01*
X1529732Y-43D01*
X1529846Y-45D01*
X1529959Y-51D01*
X1530073Y-60D01*
X1530185Y-74D01*
X1530298Y-91D01*
X1530410Y-113D01*
X1530520Y-138D01*
X1530630Y-166D01*
X1530739Y-199D01*
X1530847Y-235D01*
X1530954Y-275D01*
X1531059Y-319D01*
X1531162Y-366D01*
X1531264Y-416D01*
X1531364Y-470D01*
X1531462Y-528D01*
X1531558Y-589D01*
X1531652Y-652D01*
X1531744Y-720D01*
X1531834Y-790D01*
X1531920Y-863D01*
X1532005Y-939D01*
X1532087Y-1018D01*
X1532166Y-1100D01*
X1532242Y-1185D01*
X1532315Y-1271D01*
X1532385Y-1361D01*
X1532453Y-1453D01*
X1532516Y-1547D01*
X1532577Y-1643D01*
X1532635Y-1741D01*
X1532689Y-1841D01*
X1532739Y-1943D01*
X1532786Y-2046D01*
X1532830Y-2151D01*
X1532870Y-2258D01*
X1532906Y-2366D01*
X1532939Y-2475D01*
X1532967Y-2585D01*
X1532992Y-2695D01*
X1533014Y-2807D01*
X1533031Y-2920D01*
X1533045Y-3032D01*
X1533054Y-3146D01*
X1533060Y-3259D01*
X1533062Y-3373D01*
X1533062Y-6703D01*
X1533060Y-6817D01*
X1533054Y-6930D01*
X1533045Y-7044D01*
X1533031Y-7156D01*
X1533014Y-7269D01*
X1532992Y-7381D01*
X1532967Y-7491D01*
X1532939Y-7601D01*
X1532906Y-7710D01*
X1532870Y-7818D01*
X1532830Y-7925D01*
X1532786Y-8030D01*
X1532739Y-8133D01*
X1532689Y-8235D01*
X1532635Y-8335D01*
X1532577Y-8433D01*
X1532516Y-8529D01*
X1532453Y-8623D01*
X1532385Y-8715D01*
X1532315Y-8805D01*
X1532242Y-8891D01*
X1532166Y-8976D01*
X1532087Y-9058D01*
X1532005Y-9137D01*
X1531920Y-9213D01*
X1531834Y-9286D01*
X1531744Y-9356D01*
X1531652Y-9424D01*
X1531558Y-9487D01*
X1531462Y-9548D01*
X1531364Y-9606D01*
X1531264Y-9660D01*
X1531162Y-9710D01*
X1531059Y-9757D01*
X1530954Y-9801D01*
X1530847Y-9841D01*
X1530739Y-9877D01*
X1530630Y-9910D01*
X1530520Y-9938D01*
X1530410Y-9963D01*
X1530298Y-9985D01*
X1530185Y-10002D01*
X1530073Y-10016D01*
X1529959Y-10025D01*
X1529846Y-10031D01*
X1529732Y-10033D01*
X1529618Y-10031D01*
X1529505Y-10025D01*
X1529391Y-10016D01*
X1529279Y-10002D01*
X1529166Y-9985D01*
X1529054Y-9963D01*
X1528944Y-9938D01*
X1528834Y-9910D01*
X1528725Y-9877D01*
X1528617Y-9841D01*
X1528510Y-9801D01*
X1528405Y-9757D01*
X1528302Y-9710D01*
X1528200Y-9660D01*
X1528100Y-9606D01*
X1528002Y-9548D01*
X1527906Y-9487D01*
X1527812Y-9424D01*
X1527720Y-9356D01*
X1527630Y-9286D01*
X1527544Y-9213D01*
X1527459Y-9137D01*
X1527377Y-9058D01*
X1527298Y-8976D01*
X1527222Y-8891D01*
X1527149Y-8805D01*
X1527079Y-8715D01*
X1527011Y-8623D01*
X1526948Y-8529D01*
X1526887Y-8433D01*
X1526829Y-8335D01*
X1526775Y-8235D01*
X1526725Y-8133D01*
X1526678Y-8030D01*
X1526634Y-7925D01*
X1526594Y-7818D01*
X1526558Y-7710D01*
X1526525Y-7601D01*
X1526497Y-7491D01*
X1526472Y-7381D01*
X1526450Y-7269D01*
X1526433Y-7156D01*
X1526419Y-7044D01*
X1526410Y-6930D01*
X1526404Y-6817D01*
X1526402Y-6703D01*
X1540598Y-10033D02*
X1540598Y-42D01*
X1545593Y-42D01*
X1545593Y-1707D01*
X1553388Y-10033D02*
X1557551Y-10033D01*
X1553388Y-10033D02*
X1553290Y-10031D01*
X1553192Y-10025D01*
X1553094Y-10016D01*
X1552997Y-10002D01*
X1552901Y-9985D01*
X1552805Y-9964D01*
X1552710Y-9939D01*
X1552616Y-9911D01*
X1552523Y-9879D01*
X1552432Y-9843D01*
X1552342Y-9804D01*
X1552254Y-9761D01*
X1552167Y-9714D01*
X1552083Y-9665D01*
X1552000Y-9612D01*
X1551920Y-9556D01*
X1551842Y-9497D01*
X1551766Y-9435D01*
X1551692Y-9369D01*
X1551622Y-9301D01*
X1551554Y-9231D01*
X1551489Y-9157D01*
X1551426Y-9082D01*
X1551367Y-9003D01*
X1551311Y-8923D01*
X1551258Y-8840D01*
X1551209Y-8756D01*
X1551162Y-8669D01*
X1551119Y-8581D01*
X1551080Y-8491D01*
X1551044Y-8400D01*
X1551012Y-8307D01*
X1550984Y-8213D01*
X1550959Y-8118D01*
X1550938Y-8022D01*
X1550921Y-7926D01*
X1550907Y-7829D01*
X1550898Y-7731D01*
X1550892Y-7633D01*
X1550890Y-7535D01*
X1550890Y-3373D01*
X1550891Y-3373D02*
X1550893Y-3259D01*
X1550899Y-3146D01*
X1550908Y-3032D01*
X1550922Y-2920D01*
X1550939Y-2807D01*
X1550961Y-2695D01*
X1550986Y-2585D01*
X1551014Y-2475D01*
X1551047Y-2366D01*
X1551083Y-2258D01*
X1551123Y-2151D01*
X1551167Y-2046D01*
X1551214Y-1943D01*
X1551264Y-1841D01*
X1551318Y-1741D01*
X1551376Y-1643D01*
X1551437Y-1547D01*
X1551500Y-1453D01*
X1551568Y-1361D01*
X1551638Y-1271D01*
X1551711Y-1185D01*
X1551787Y-1100D01*
X1551866Y-1018D01*
X1551948Y-939D01*
X1552033Y-863D01*
X1552119Y-790D01*
X1552209Y-720D01*
X1552301Y-652D01*
X1552395Y-589D01*
X1552491Y-528D01*
X1552589Y-470D01*
X1552689Y-416D01*
X1552791Y-366D01*
X1552894Y-319D01*
X1552999Y-275D01*
X1553106Y-235D01*
X1553214Y-199D01*
X1553323Y-166D01*
X1553433Y-138D01*
X1553543Y-113D01*
X1553655Y-91D01*
X1553768Y-74D01*
X1553880Y-60D01*
X1553994Y-51D01*
X1554107Y-45D01*
X1554221Y-43D01*
X1554335Y-45D01*
X1554448Y-51D01*
X1554562Y-60D01*
X1554674Y-74D01*
X1554787Y-91D01*
X1554899Y-113D01*
X1555009Y-138D01*
X1555119Y-166D01*
X1555228Y-199D01*
X1555336Y-235D01*
X1555443Y-275D01*
X1555548Y-319D01*
X1555651Y-366D01*
X1555753Y-416D01*
X1555853Y-470D01*
X1555951Y-528D01*
X1556047Y-589D01*
X1556141Y-652D01*
X1556233Y-720D01*
X1556323Y-790D01*
X1556409Y-863D01*
X1556494Y-939D01*
X1556576Y-1018D01*
X1556655Y-1100D01*
X1556731Y-1185D01*
X1556804Y-1271D01*
X1556874Y-1361D01*
X1556942Y-1453D01*
X1557005Y-1547D01*
X1557066Y-1643D01*
X1557124Y-1741D01*
X1557178Y-1841D01*
X1557228Y-1943D01*
X1557275Y-2046D01*
X1557319Y-2151D01*
X1557359Y-2258D01*
X1557395Y-2366D01*
X1557428Y-2475D01*
X1557456Y-2585D01*
X1557481Y-2695D01*
X1557503Y-2807D01*
X1557520Y-2920D01*
X1557534Y-3032D01*
X1557543Y-3146D01*
X1557549Y-3259D01*
X1557551Y-3373D01*
X1557551Y-5038D01*
X1550890Y-5038D01*
D11*
X1437640Y134620D02*
X-68580Y134620D01*
D12*
X1470129Y137118D02*
X1473459Y127127D01*
X1476790Y137118D01*
X1483574Y132955D02*
X1493565Y132955D01*
X1502119Y132955D02*
X1506282Y131290D01*
X1502119Y132954D02*
X1502034Y132990D01*
X1501951Y133030D01*
X1501870Y133073D01*
X1501790Y133120D01*
X1501713Y133170D01*
X1501637Y133223D01*
X1501564Y133279D01*
X1501494Y133339D01*
X1501426Y133401D01*
X1501361Y133466D01*
X1501299Y133534D01*
X1501239Y133605D01*
X1501183Y133678D01*
X1501130Y133753D01*
X1501080Y133831D01*
X1501034Y133910D01*
X1500991Y133992D01*
X1500951Y134075D01*
X1500915Y134160D01*
X1500883Y134246D01*
X1500854Y134334D01*
X1500830Y134423D01*
X1500809Y134513D01*
X1500792Y134603D01*
X1500778Y134694D01*
X1500769Y134786D01*
X1500764Y134878D01*
X1500762Y134970D01*
X1500764Y135062D01*
X1500771Y135154D01*
X1500781Y135246D01*
X1500795Y135337D01*
X1500813Y135428D01*
X1500835Y135517D01*
X1500861Y135606D01*
X1500891Y135693D01*
X1500924Y135779D01*
X1500961Y135863D01*
X1501001Y135946D01*
X1501045Y136027D01*
X1501092Y136106D01*
X1501143Y136183D01*
X1501197Y136258D01*
X1501254Y136331D01*
X1501314Y136401D01*
X1501377Y136468D01*
X1501443Y136532D01*
X1501511Y136594D01*
X1501582Y136653D01*
X1501656Y136708D01*
X1501732Y136761D01*
X1501810Y136810D01*
X1501890Y136856D01*
X1501971Y136898D01*
X1502055Y136937D01*
X1502140Y136972D01*
X1502227Y137003D01*
X1502315Y137031D01*
X1502404Y137055D01*
X1502494Y137075D01*
X1502584Y137092D01*
X1502676Y137104D01*
X1502768Y137113D01*
X1502860Y137117D01*
X1502952Y137118D01*
X1503179Y137112D01*
X1503406Y137101D01*
X1503633Y137084D01*
X1503859Y137061D01*
X1504085Y137034D01*
X1504310Y137000D01*
X1504534Y136962D01*
X1504757Y136918D01*
X1504979Y136869D01*
X1505200Y136814D01*
X1505419Y136754D01*
X1505637Y136689D01*
X1505853Y136618D01*
X1506067Y136543D01*
X1506280Y136462D01*
X1506490Y136376D01*
X1506699Y136285D01*
X1506282Y131290D02*
X1506367Y131254D01*
X1506450Y131214D01*
X1506531Y131171D01*
X1506611Y131124D01*
X1506688Y131074D01*
X1506764Y131021D01*
X1506837Y130965D01*
X1506907Y130905D01*
X1506975Y130843D01*
X1507040Y130778D01*
X1507102Y130710D01*
X1507162Y130639D01*
X1507218Y130566D01*
X1507271Y130491D01*
X1507321Y130413D01*
X1507367Y130334D01*
X1507410Y130252D01*
X1507450Y130169D01*
X1507486Y130084D01*
X1507518Y129998D01*
X1507547Y129910D01*
X1507571Y129821D01*
X1507592Y129731D01*
X1507609Y129641D01*
X1507623Y129550D01*
X1507632Y129458D01*
X1507637Y129366D01*
X1507639Y129274D01*
X1507637Y129182D01*
X1507630Y129090D01*
X1507620Y128998D01*
X1507606Y128907D01*
X1507588Y128816D01*
X1507566Y128727D01*
X1507540Y128638D01*
X1507510Y128551D01*
X1507477Y128465D01*
X1507440Y128381D01*
X1507400Y128298D01*
X1507356Y128217D01*
X1507309Y128138D01*
X1507258Y128061D01*
X1507204Y127986D01*
X1507147Y127913D01*
X1507087Y127843D01*
X1507024Y127776D01*
X1506958Y127712D01*
X1506890Y127650D01*
X1506819Y127591D01*
X1506745Y127536D01*
X1506669Y127483D01*
X1506591Y127434D01*
X1506511Y127388D01*
X1506430Y127346D01*
X1506346Y127307D01*
X1506261Y127272D01*
X1506174Y127241D01*
X1506086Y127213D01*
X1505997Y127189D01*
X1505907Y127169D01*
X1505817Y127152D01*
X1505725Y127140D01*
X1505633Y127131D01*
X1505541Y127127D01*
X1505449Y127126D01*
X1505449Y127127D02*
X1505115Y127136D01*
X1504782Y127153D01*
X1504449Y127177D01*
X1504116Y127210D01*
X1503785Y127250D01*
X1503454Y127298D01*
X1503125Y127354D01*
X1502797Y127417D01*
X1502471Y127489D01*
X1502147Y127568D01*
X1501824Y127654D01*
X1501504Y127749D01*
X1501186Y127851D01*
X1500870Y127960D01*
X1516942Y127127D02*
X1520272Y127127D01*
X1516942Y127127D02*
X1516844Y127129D01*
X1516746Y127135D01*
X1516648Y127144D01*
X1516551Y127158D01*
X1516455Y127175D01*
X1516359Y127196D01*
X1516264Y127221D01*
X1516170Y127249D01*
X1516077Y127281D01*
X1515986Y127317D01*
X1515896Y127356D01*
X1515808Y127399D01*
X1515721Y127446D01*
X1515637Y127495D01*
X1515554Y127548D01*
X1515474Y127604D01*
X1515396Y127663D01*
X1515320Y127726D01*
X1515246Y127791D01*
X1515176Y127859D01*
X1515108Y127929D01*
X1515043Y128003D01*
X1514980Y128079D01*
X1514921Y128157D01*
X1514865Y128237D01*
X1514812Y128320D01*
X1514763Y128404D01*
X1514716Y128491D01*
X1514673Y128579D01*
X1514634Y128669D01*
X1514598Y128760D01*
X1514566Y128853D01*
X1514538Y128947D01*
X1514513Y129042D01*
X1514492Y129138D01*
X1514475Y129234D01*
X1514461Y129331D01*
X1514452Y129429D01*
X1514446Y129527D01*
X1514444Y129625D01*
X1514444Y134620D01*
X1514446Y134718D01*
X1514452Y134816D01*
X1514461Y134914D01*
X1514475Y135011D01*
X1514492Y135107D01*
X1514513Y135203D01*
X1514538Y135298D01*
X1514566Y135392D01*
X1514598Y135485D01*
X1514634Y135576D01*
X1514673Y135666D01*
X1514716Y135754D01*
X1514763Y135841D01*
X1514812Y135925D01*
X1514865Y136008D01*
X1514921Y136088D01*
X1514980Y136167D01*
X1515043Y136242D01*
X1515108Y136316D01*
X1515176Y136386D01*
X1515246Y136454D01*
X1515320Y136520D01*
X1515396Y136582D01*
X1515474Y136641D01*
X1515554Y136697D01*
X1515637Y136750D01*
X1515721Y136800D01*
X1515808Y136846D01*
X1515896Y136889D01*
X1515986Y136928D01*
X1516077Y136964D01*
X1516170Y136996D01*
X1516264Y137024D01*
X1516359Y137049D01*
X1516455Y137070D01*
X1516551Y137087D01*
X1516648Y137101D01*
X1516746Y137110D01*
X1516844Y137116D01*
X1516942Y137118D01*
X1520272Y137118D01*
X1526402Y133787D02*
X1526402Y130457D01*
X1526402Y133787D02*
X1526404Y133901D01*
X1526410Y134014D01*
X1526419Y134128D01*
X1526433Y134240D01*
X1526450Y134353D01*
X1526472Y134465D01*
X1526497Y134575D01*
X1526525Y134685D01*
X1526558Y134794D01*
X1526594Y134902D01*
X1526634Y135009D01*
X1526678Y135114D01*
X1526725Y135217D01*
X1526775Y135319D01*
X1526829Y135419D01*
X1526887Y135517D01*
X1526948Y135613D01*
X1527011Y135707D01*
X1527079Y135799D01*
X1527149Y135889D01*
X1527222Y135975D01*
X1527298Y136060D01*
X1527377Y136142D01*
X1527459Y136221D01*
X1527544Y136297D01*
X1527630Y136370D01*
X1527720Y136440D01*
X1527812Y136508D01*
X1527906Y136571D01*
X1528002Y136632D01*
X1528100Y136690D01*
X1528200Y136744D01*
X1528302Y136794D01*
X1528405Y136841D01*
X1528510Y136885D01*
X1528617Y136925D01*
X1528725Y136961D01*
X1528834Y136994D01*
X1528944Y137022D01*
X1529054Y137047D01*
X1529166Y137069D01*
X1529279Y137086D01*
X1529391Y137100D01*
X1529505Y137109D01*
X1529618Y137115D01*
X1529732Y137117D01*
X1529846Y137115D01*
X1529959Y137109D01*
X1530073Y137100D01*
X1530185Y137086D01*
X1530298Y137069D01*
X1530410Y137047D01*
X1530520Y137022D01*
X1530630Y136994D01*
X1530739Y136961D01*
X1530847Y136925D01*
X1530954Y136885D01*
X1531059Y136841D01*
X1531162Y136794D01*
X1531264Y136744D01*
X1531364Y136690D01*
X1531462Y136632D01*
X1531558Y136571D01*
X1531652Y136508D01*
X1531744Y136440D01*
X1531834Y136370D01*
X1531920Y136297D01*
X1532005Y136221D01*
X1532087Y136142D01*
X1532166Y136060D01*
X1532242Y135975D01*
X1532315Y135889D01*
X1532385Y135799D01*
X1532453Y135707D01*
X1532516Y135613D01*
X1532577Y135517D01*
X1532635Y135419D01*
X1532689Y135319D01*
X1532739Y135217D01*
X1532786Y135114D01*
X1532830Y135009D01*
X1532870Y134902D01*
X1532906Y134794D01*
X1532939Y134685D01*
X1532967Y134575D01*
X1532992Y134465D01*
X1533014Y134353D01*
X1533031Y134240D01*
X1533045Y134128D01*
X1533054Y134014D01*
X1533060Y133901D01*
X1533062Y133787D01*
X1533062Y130457D01*
X1533060Y130343D01*
X1533054Y130230D01*
X1533045Y130116D01*
X1533031Y130004D01*
X1533014Y129891D01*
X1532992Y129779D01*
X1532967Y129669D01*
X1532939Y129559D01*
X1532906Y129450D01*
X1532870Y129342D01*
X1532830Y129235D01*
X1532786Y129130D01*
X1532739Y129027D01*
X1532689Y128925D01*
X1532635Y128825D01*
X1532577Y128727D01*
X1532516Y128631D01*
X1532453Y128537D01*
X1532385Y128445D01*
X1532315Y128355D01*
X1532242Y128269D01*
X1532166Y128184D01*
X1532087Y128102D01*
X1532005Y128023D01*
X1531920Y127947D01*
X1531834Y127874D01*
X1531744Y127804D01*
X1531652Y127736D01*
X1531558Y127673D01*
X1531462Y127612D01*
X1531364Y127554D01*
X1531264Y127500D01*
X1531162Y127450D01*
X1531059Y127403D01*
X1530954Y127359D01*
X1530847Y127319D01*
X1530739Y127283D01*
X1530630Y127250D01*
X1530520Y127222D01*
X1530410Y127197D01*
X1530298Y127175D01*
X1530185Y127158D01*
X1530073Y127144D01*
X1529959Y127135D01*
X1529846Y127129D01*
X1529732Y127127D01*
X1529618Y127129D01*
X1529505Y127135D01*
X1529391Y127144D01*
X1529279Y127158D01*
X1529166Y127175D01*
X1529054Y127197D01*
X1528944Y127222D01*
X1528834Y127250D01*
X1528725Y127283D01*
X1528617Y127319D01*
X1528510Y127359D01*
X1528405Y127403D01*
X1528302Y127450D01*
X1528200Y127500D01*
X1528100Y127554D01*
X1528002Y127612D01*
X1527906Y127673D01*
X1527812Y127736D01*
X1527720Y127804D01*
X1527630Y127874D01*
X1527544Y127947D01*
X1527459Y128023D01*
X1527377Y128102D01*
X1527298Y128184D01*
X1527222Y128269D01*
X1527149Y128355D01*
X1527079Y128445D01*
X1527011Y128537D01*
X1526948Y128631D01*
X1526887Y128727D01*
X1526829Y128825D01*
X1526775Y128925D01*
X1526725Y129027D01*
X1526678Y129130D01*
X1526634Y129235D01*
X1526594Y129342D01*
X1526558Y129450D01*
X1526525Y129559D01*
X1526497Y129669D01*
X1526472Y129779D01*
X1526450Y129891D01*
X1526433Y130004D01*
X1526419Y130116D01*
X1526410Y130230D01*
X1526404Y130343D01*
X1526402Y130457D01*
X1540598Y127127D02*
X1540598Y137118D01*
X1545593Y137118D01*
X1545593Y135453D01*
X1553388Y127127D02*
X1557551Y127127D01*
X1553388Y127127D02*
X1553290Y127129D01*
X1553192Y127135D01*
X1553094Y127144D01*
X1552997Y127158D01*
X1552901Y127175D01*
X1552805Y127196D01*
X1552710Y127221D01*
X1552616Y127249D01*
X1552523Y127281D01*
X1552432Y127317D01*
X1552342Y127356D01*
X1552254Y127399D01*
X1552167Y127446D01*
X1552083Y127495D01*
X1552000Y127548D01*
X1551920Y127604D01*
X1551842Y127663D01*
X1551766Y127726D01*
X1551692Y127791D01*
X1551622Y127859D01*
X1551554Y127929D01*
X1551489Y128003D01*
X1551426Y128079D01*
X1551367Y128157D01*
X1551311Y128237D01*
X1551258Y128320D01*
X1551209Y128404D01*
X1551162Y128491D01*
X1551119Y128579D01*
X1551080Y128669D01*
X1551044Y128760D01*
X1551012Y128853D01*
X1550984Y128947D01*
X1550959Y129042D01*
X1550938Y129138D01*
X1550921Y129234D01*
X1550907Y129331D01*
X1550898Y129429D01*
X1550892Y129527D01*
X1550890Y129625D01*
X1550890Y133787D01*
X1550891Y133787D02*
X1550893Y133901D01*
X1550899Y134014D01*
X1550908Y134128D01*
X1550922Y134240D01*
X1550939Y134353D01*
X1550961Y134465D01*
X1550986Y134575D01*
X1551014Y134685D01*
X1551047Y134794D01*
X1551083Y134902D01*
X1551123Y135009D01*
X1551167Y135114D01*
X1551214Y135217D01*
X1551264Y135319D01*
X1551318Y135419D01*
X1551376Y135517D01*
X1551437Y135613D01*
X1551500Y135707D01*
X1551568Y135799D01*
X1551638Y135889D01*
X1551711Y135975D01*
X1551787Y136060D01*
X1551866Y136142D01*
X1551948Y136221D01*
X1552033Y136297D01*
X1552119Y136370D01*
X1552209Y136440D01*
X1552301Y136508D01*
X1552395Y136571D01*
X1552491Y136632D01*
X1552589Y136690D01*
X1552689Y136744D01*
X1552791Y136794D01*
X1552894Y136841D01*
X1552999Y136885D01*
X1553106Y136925D01*
X1553214Y136961D01*
X1553323Y136994D01*
X1553433Y137022D01*
X1553543Y137047D01*
X1553655Y137069D01*
X1553768Y137086D01*
X1553880Y137100D01*
X1553994Y137109D01*
X1554107Y137115D01*
X1554221Y137117D01*
X1554335Y137115D01*
X1554448Y137109D01*
X1554562Y137100D01*
X1554674Y137086D01*
X1554787Y137069D01*
X1554899Y137047D01*
X1555009Y137022D01*
X1555119Y136994D01*
X1555228Y136961D01*
X1555336Y136925D01*
X1555443Y136885D01*
X1555548Y136841D01*
X1555651Y136794D01*
X1555753Y136744D01*
X1555853Y136690D01*
X1555951Y136632D01*
X1556047Y136571D01*
X1556141Y136508D01*
X1556233Y136440D01*
X1556323Y136370D01*
X1556409Y136297D01*
X1556494Y136221D01*
X1556576Y136142D01*
X1556655Y136060D01*
X1556731Y135975D01*
X1556804Y135889D01*
X1556874Y135799D01*
X1556942Y135707D01*
X1557005Y135613D01*
X1557066Y135517D01*
X1557124Y135419D01*
X1557178Y135319D01*
X1557228Y135217D01*
X1557275Y135114D01*
X1557319Y135009D01*
X1557359Y134902D01*
X1557395Y134794D01*
X1557428Y134685D01*
X1557456Y134575D01*
X1557481Y134465D01*
X1557503Y134353D01*
X1557520Y134240D01*
X1557534Y134128D01*
X1557543Y134014D01*
X1557549Y133901D01*
X1557551Y133787D01*
X1557551Y132122D01*
X1550890Y132122D01*
D11*
X1437640Y271780D02*
X-68580Y271780D01*
D12*
X1470129Y274278D02*
X1473459Y264287D01*
X1476790Y274278D01*
X1483574Y270115D02*
X1493565Y270115D01*
X1502119Y270115D02*
X1506282Y268450D01*
X1502119Y270114D02*
X1502034Y270150D01*
X1501951Y270190D01*
X1501870Y270233D01*
X1501790Y270280D01*
X1501713Y270330D01*
X1501637Y270383D01*
X1501564Y270439D01*
X1501494Y270499D01*
X1501426Y270561D01*
X1501361Y270626D01*
X1501299Y270694D01*
X1501239Y270765D01*
X1501183Y270838D01*
X1501130Y270913D01*
X1501080Y270991D01*
X1501034Y271070D01*
X1500991Y271152D01*
X1500951Y271235D01*
X1500915Y271320D01*
X1500883Y271406D01*
X1500854Y271494D01*
X1500830Y271583D01*
X1500809Y271673D01*
X1500792Y271763D01*
X1500778Y271854D01*
X1500769Y271946D01*
X1500764Y272038D01*
X1500762Y272130D01*
X1500764Y272222D01*
X1500771Y272314D01*
X1500781Y272406D01*
X1500795Y272497D01*
X1500813Y272588D01*
X1500835Y272677D01*
X1500861Y272766D01*
X1500891Y272853D01*
X1500924Y272939D01*
X1500961Y273023D01*
X1501001Y273106D01*
X1501045Y273187D01*
X1501092Y273266D01*
X1501143Y273343D01*
X1501197Y273418D01*
X1501254Y273491D01*
X1501314Y273561D01*
X1501377Y273628D01*
X1501443Y273692D01*
X1501511Y273754D01*
X1501582Y273813D01*
X1501656Y273868D01*
X1501732Y273921D01*
X1501810Y273970D01*
X1501890Y274016D01*
X1501971Y274058D01*
X1502055Y274097D01*
X1502140Y274132D01*
X1502227Y274163D01*
X1502315Y274191D01*
X1502404Y274215D01*
X1502494Y274235D01*
X1502584Y274252D01*
X1502676Y274264D01*
X1502768Y274273D01*
X1502860Y274277D01*
X1502952Y274278D01*
X1503179Y274272D01*
X1503406Y274261D01*
X1503633Y274244D01*
X1503859Y274221D01*
X1504085Y274194D01*
X1504310Y274160D01*
X1504534Y274122D01*
X1504757Y274078D01*
X1504979Y274029D01*
X1505200Y273974D01*
X1505419Y273914D01*
X1505637Y273849D01*
X1505853Y273778D01*
X1506067Y273703D01*
X1506280Y273622D01*
X1506490Y273536D01*
X1506699Y273445D01*
X1506282Y268450D02*
X1506367Y268414D01*
X1506450Y268374D01*
X1506531Y268331D01*
X1506611Y268284D01*
X1506688Y268234D01*
X1506764Y268181D01*
X1506837Y268125D01*
X1506907Y268065D01*
X1506975Y268003D01*
X1507040Y267938D01*
X1507102Y267870D01*
X1507162Y267799D01*
X1507218Y267726D01*
X1507271Y267651D01*
X1507321Y267573D01*
X1507367Y267494D01*
X1507410Y267412D01*
X1507450Y267329D01*
X1507486Y267244D01*
X1507518Y267158D01*
X1507547Y267070D01*
X1507571Y266981D01*
X1507592Y266891D01*
X1507609Y266801D01*
X1507623Y266710D01*
X1507632Y266618D01*
X1507637Y266526D01*
X1507639Y266434D01*
X1507637Y266342D01*
X1507630Y266250D01*
X1507620Y266158D01*
X1507606Y266067D01*
X1507588Y265976D01*
X1507566Y265887D01*
X1507540Y265798D01*
X1507510Y265711D01*
X1507477Y265625D01*
X1507440Y265541D01*
X1507400Y265458D01*
X1507356Y265377D01*
X1507309Y265298D01*
X1507258Y265221D01*
X1507204Y265146D01*
X1507147Y265073D01*
X1507087Y265003D01*
X1507024Y264936D01*
X1506958Y264872D01*
X1506890Y264810D01*
X1506819Y264751D01*
X1506745Y264696D01*
X1506669Y264643D01*
X1506591Y264594D01*
X1506511Y264548D01*
X1506430Y264506D01*
X1506346Y264467D01*
X1506261Y264432D01*
X1506174Y264401D01*
X1506086Y264373D01*
X1505997Y264349D01*
X1505907Y264329D01*
X1505817Y264312D01*
X1505725Y264300D01*
X1505633Y264291D01*
X1505541Y264287D01*
X1505449Y264286D01*
X1505449Y264287D02*
X1505115Y264296D01*
X1504782Y264313D01*
X1504449Y264337D01*
X1504116Y264370D01*
X1503785Y264410D01*
X1503454Y264458D01*
X1503125Y264514D01*
X1502797Y264577D01*
X1502471Y264649D01*
X1502147Y264728D01*
X1501824Y264814D01*
X1501504Y264909D01*
X1501186Y265011D01*
X1500870Y265120D01*
X1516942Y264287D02*
X1520272Y264287D01*
X1516942Y264287D02*
X1516844Y264289D01*
X1516746Y264295D01*
X1516648Y264304D01*
X1516551Y264318D01*
X1516455Y264335D01*
X1516359Y264356D01*
X1516264Y264381D01*
X1516170Y264409D01*
X1516077Y264441D01*
X1515986Y264477D01*
X1515896Y264516D01*
X1515808Y264559D01*
X1515721Y264606D01*
X1515637Y264655D01*
X1515554Y264708D01*
X1515474Y264764D01*
X1515396Y264823D01*
X1515320Y264886D01*
X1515246Y264951D01*
X1515176Y265019D01*
X1515108Y265089D01*
X1515043Y265163D01*
X1514980Y265239D01*
X1514921Y265317D01*
X1514865Y265397D01*
X1514812Y265480D01*
X1514763Y265564D01*
X1514716Y265651D01*
X1514673Y265739D01*
X1514634Y265829D01*
X1514598Y265920D01*
X1514566Y266013D01*
X1514538Y266107D01*
X1514513Y266202D01*
X1514492Y266298D01*
X1514475Y266394D01*
X1514461Y266491D01*
X1514452Y266589D01*
X1514446Y266687D01*
X1514444Y266785D01*
X1514444Y271780D01*
X1514446Y271878D01*
X1514452Y271976D01*
X1514461Y272074D01*
X1514475Y272171D01*
X1514492Y272267D01*
X1514513Y272363D01*
X1514538Y272458D01*
X1514566Y272552D01*
X1514598Y272645D01*
X1514634Y272736D01*
X1514673Y272826D01*
X1514716Y272914D01*
X1514763Y273001D01*
X1514812Y273085D01*
X1514865Y273168D01*
X1514921Y273248D01*
X1514980Y273327D01*
X1515043Y273402D01*
X1515108Y273476D01*
X1515176Y273546D01*
X1515246Y273614D01*
X1515320Y273680D01*
X1515396Y273742D01*
X1515474Y273801D01*
X1515554Y273857D01*
X1515637Y273910D01*
X1515721Y273960D01*
X1515808Y274006D01*
X1515896Y274049D01*
X1515986Y274088D01*
X1516077Y274124D01*
X1516170Y274156D01*
X1516264Y274184D01*
X1516359Y274209D01*
X1516455Y274230D01*
X1516551Y274247D01*
X1516648Y274261D01*
X1516746Y274270D01*
X1516844Y274276D01*
X1516942Y274278D01*
X1520272Y274278D01*
X1526402Y270947D02*
X1526402Y267617D01*
X1526402Y270947D02*
X1526404Y271061D01*
X1526410Y271174D01*
X1526419Y271288D01*
X1526433Y271400D01*
X1526450Y271513D01*
X1526472Y271625D01*
X1526497Y271735D01*
X1526525Y271845D01*
X1526558Y271954D01*
X1526594Y272062D01*
X1526634Y272169D01*
X1526678Y272274D01*
X1526725Y272377D01*
X1526775Y272479D01*
X1526829Y272579D01*
X1526887Y272677D01*
X1526948Y272773D01*
X1527011Y272867D01*
X1527079Y272959D01*
X1527149Y273049D01*
X1527222Y273135D01*
X1527298Y273220D01*
X1527377Y273302D01*
X1527459Y273381D01*
X1527544Y273457D01*
X1527630Y273530D01*
X1527720Y273600D01*
X1527812Y273668D01*
X1527906Y273731D01*
X1528002Y273792D01*
X1528100Y273850D01*
X1528200Y273904D01*
X1528302Y273954D01*
X1528405Y274001D01*
X1528510Y274045D01*
X1528617Y274085D01*
X1528725Y274121D01*
X1528834Y274154D01*
X1528944Y274182D01*
X1529054Y274207D01*
X1529166Y274229D01*
X1529279Y274246D01*
X1529391Y274260D01*
X1529505Y274269D01*
X1529618Y274275D01*
X1529732Y274277D01*
X1529846Y274275D01*
X1529959Y274269D01*
X1530073Y274260D01*
X1530185Y274246D01*
X1530298Y274229D01*
X1530410Y274207D01*
X1530520Y274182D01*
X1530630Y274154D01*
X1530739Y274121D01*
X1530847Y274085D01*
X1530954Y274045D01*
X1531059Y274001D01*
X1531162Y273954D01*
X1531264Y273904D01*
X1531364Y273850D01*
X1531462Y273792D01*
X1531558Y273731D01*
X1531652Y273668D01*
X1531744Y273600D01*
X1531834Y273530D01*
X1531920Y273457D01*
X1532005Y273381D01*
X1532087Y273302D01*
X1532166Y273220D01*
X1532242Y273135D01*
X1532315Y273049D01*
X1532385Y272959D01*
X1532453Y272867D01*
X1532516Y272773D01*
X1532577Y272677D01*
X1532635Y272579D01*
X1532689Y272479D01*
X1532739Y272377D01*
X1532786Y272274D01*
X1532830Y272169D01*
X1532870Y272062D01*
X1532906Y271954D01*
X1532939Y271845D01*
X1532967Y271735D01*
X1532992Y271625D01*
X1533014Y271513D01*
X1533031Y271400D01*
X1533045Y271288D01*
X1533054Y271174D01*
X1533060Y271061D01*
X1533062Y270947D01*
X1533062Y267617D01*
X1533060Y267503D01*
X1533054Y267390D01*
X1533045Y267276D01*
X1533031Y267164D01*
X1533014Y267051D01*
X1532992Y266939D01*
X1532967Y266829D01*
X1532939Y266719D01*
X1532906Y266610D01*
X1532870Y266502D01*
X1532830Y266395D01*
X1532786Y266290D01*
X1532739Y266187D01*
X1532689Y266085D01*
X1532635Y265985D01*
X1532577Y265887D01*
X1532516Y265791D01*
X1532453Y265697D01*
X1532385Y265605D01*
X1532315Y265515D01*
X1532242Y265429D01*
X1532166Y265344D01*
X1532087Y265262D01*
X1532005Y265183D01*
X1531920Y265107D01*
X1531834Y265034D01*
X1531744Y264964D01*
X1531652Y264896D01*
X1531558Y264833D01*
X1531462Y264772D01*
X1531364Y264714D01*
X1531264Y264660D01*
X1531162Y264610D01*
X1531059Y264563D01*
X1530954Y264519D01*
X1530847Y264479D01*
X1530739Y264443D01*
X1530630Y264410D01*
X1530520Y264382D01*
X1530410Y264357D01*
X1530298Y264335D01*
X1530185Y264318D01*
X1530073Y264304D01*
X1529959Y264295D01*
X1529846Y264289D01*
X1529732Y264287D01*
X1529618Y264289D01*
X1529505Y264295D01*
X1529391Y264304D01*
X1529279Y264318D01*
X1529166Y264335D01*
X1529054Y264357D01*
X1528944Y264382D01*
X1528834Y264410D01*
X1528725Y264443D01*
X1528617Y264479D01*
X1528510Y264519D01*
X1528405Y264563D01*
X1528302Y264610D01*
X1528200Y264660D01*
X1528100Y264714D01*
X1528002Y264772D01*
X1527906Y264833D01*
X1527812Y264896D01*
X1527720Y264964D01*
X1527630Y265034D01*
X1527544Y265107D01*
X1527459Y265183D01*
X1527377Y265262D01*
X1527298Y265344D01*
X1527222Y265429D01*
X1527149Y265515D01*
X1527079Y265605D01*
X1527011Y265697D01*
X1526948Y265791D01*
X1526887Y265887D01*
X1526829Y265985D01*
X1526775Y266085D01*
X1526725Y266187D01*
X1526678Y266290D01*
X1526634Y266395D01*
X1526594Y266502D01*
X1526558Y266610D01*
X1526525Y266719D01*
X1526497Y266829D01*
X1526472Y266939D01*
X1526450Y267051D01*
X1526433Y267164D01*
X1526419Y267276D01*
X1526410Y267390D01*
X1526404Y267503D01*
X1526402Y267617D01*
X1540598Y264287D02*
X1540598Y274278D01*
X1545593Y274278D01*
X1545593Y272613D01*
X1553388Y264287D02*
X1557551Y264287D01*
X1553388Y264287D02*
X1553290Y264289D01*
X1553192Y264295D01*
X1553094Y264304D01*
X1552997Y264318D01*
X1552901Y264335D01*
X1552805Y264356D01*
X1552710Y264381D01*
X1552616Y264409D01*
X1552523Y264441D01*
X1552432Y264477D01*
X1552342Y264516D01*
X1552254Y264559D01*
X1552167Y264606D01*
X1552083Y264655D01*
X1552000Y264708D01*
X1551920Y264764D01*
X1551842Y264823D01*
X1551766Y264886D01*
X1551692Y264951D01*
X1551622Y265019D01*
X1551554Y265089D01*
X1551489Y265163D01*
X1551426Y265239D01*
X1551367Y265317D01*
X1551311Y265397D01*
X1551258Y265480D01*
X1551209Y265564D01*
X1551162Y265651D01*
X1551119Y265739D01*
X1551080Y265829D01*
X1551044Y265920D01*
X1551012Y266013D01*
X1550984Y266107D01*
X1550959Y266202D01*
X1550938Y266298D01*
X1550921Y266394D01*
X1550907Y266491D01*
X1550898Y266589D01*
X1550892Y266687D01*
X1550890Y266785D01*
X1550890Y270947D01*
X1550891Y270947D02*
X1550893Y271061D01*
X1550899Y271174D01*
X1550908Y271288D01*
X1550922Y271400D01*
X1550939Y271513D01*
X1550961Y271625D01*
X1550986Y271735D01*
X1551014Y271845D01*
X1551047Y271954D01*
X1551083Y272062D01*
X1551123Y272169D01*
X1551167Y272274D01*
X1551214Y272377D01*
X1551264Y272479D01*
X1551318Y272579D01*
X1551376Y272677D01*
X1551437Y272773D01*
X1551500Y272867D01*
X1551568Y272959D01*
X1551638Y273049D01*
X1551711Y273135D01*
X1551787Y273220D01*
X1551866Y273302D01*
X1551948Y273381D01*
X1552033Y273457D01*
X1552119Y273530D01*
X1552209Y273600D01*
X1552301Y273668D01*
X1552395Y273731D01*
X1552491Y273792D01*
X1552589Y273850D01*
X1552689Y273904D01*
X1552791Y273954D01*
X1552894Y274001D01*
X1552999Y274045D01*
X1553106Y274085D01*
X1553214Y274121D01*
X1553323Y274154D01*
X1553433Y274182D01*
X1553543Y274207D01*
X1553655Y274229D01*
X1553768Y274246D01*
X1553880Y274260D01*
X1553994Y274269D01*
X1554107Y274275D01*
X1554221Y274277D01*
X1554335Y274275D01*
X1554448Y274269D01*
X1554562Y274260D01*
X1554674Y274246D01*
X1554787Y274229D01*
X1554899Y274207D01*
X1555009Y274182D01*
X1555119Y274154D01*
X1555228Y274121D01*
X1555336Y274085D01*
X1555443Y274045D01*
X1555548Y274001D01*
X1555651Y273954D01*
X1555753Y273904D01*
X1555853Y273850D01*
X1555951Y273792D01*
X1556047Y273731D01*
X1556141Y273668D01*
X1556233Y273600D01*
X1556323Y273530D01*
X1556409Y273457D01*
X1556494Y273381D01*
X1556576Y273302D01*
X1556655Y273220D01*
X1556731Y273135D01*
X1556804Y273049D01*
X1556874Y272959D01*
X1556942Y272867D01*
X1557005Y272773D01*
X1557066Y272677D01*
X1557124Y272579D01*
X1557178Y272479D01*
X1557228Y272377D01*
X1557275Y272274D01*
X1557319Y272169D01*
X1557359Y272062D01*
X1557395Y271954D01*
X1557428Y271845D01*
X1557456Y271735D01*
X1557481Y271625D01*
X1557503Y271513D01*
X1557520Y271400D01*
X1557534Y271288D01*
X1557543Y271174D01*
X1557549Y271061D01*
X1557551Y270947D01*
X1557551Y269282D01*
X1550890Y269282D01*
D11*
X1437640Y408940D02*
X-68580Y408940D01*
D12*
X1470129Y411438D02*
X1473459Y401447D01*
X1476790Y411438D01*
X1483574Y407275D02*
X1493565Y407275D01*
X1502119Y407275D02*
X1506282Y405610D01*
X1502119Y407274D02*
X1502034Y407310D01*
X1501951Y407350D01*
X1501870Y407393D01*
X1501790Y407440D01*
X1501713Y407490D01*
X1501637Y407543D01*
X1501564Y407599D01*
X1501494Y407659D01*
X1501426Y407721D01*
X1501361Y407786D01*
X1501299Y407854D01*
X1501239Y407925D01*
X1501183Y407998D01*
X1501130Y408073D01*
X1501080Y408151D01*
X1501034Y408230D01*
X1500991Y408312D01*
X1500951Y408395D01*
X1500915Y408480D01*
X1500883Y408566D01*
X1500854Y408654D01*
X1500830Y408743D01*
X1500809Y408833D01*
X1500792Y408923D01*
X1500778Y409014D01*
X1500769Y409106D01*
X1500764Y409198D01*
X1500762Y409290D01*
X1500764Y409382D01*
X1500771Y409474D01*
X1500781Y409566D01*
X1500795Y409657D01*
X1500813Y409748D01*
X1500835Y409837D01*
X1500861Y409926D01*
X1500891Y410013D01*
X1500924Y410099D01*
X1500961Y410183D01*
X1501001Y410266D01*
X1501045Y410347D01*
X1501092Y410426D01*
X1501143Y410503D01*
X1501197Y410578D01*
X1501254Y410651D01*
X1501314Y410721D01*
X1501377Y410788D01*
X1501443Y410852D01*
X1501511Y410914D01*
X1501582Y410973D01*
X1501656Y411028D01*
X1501732Y411081D01*
X1501810Y411130D01*
X1501890Y411176D01*
X1501971Y411218D01*
X1502055Y411257D01*
X1502140Y411292D01*
X1502227Y411323D01*
X1502315Y411351D01*
X1502404Y411375D01*
X1502494Y411395D01*
X1502584Y411412D01*
X1502676Y411424D01*
X1502768Y411433D01*
X1502860Y411437D01*
X1502952Y411438D01*
X1503179Y411432D01*
X1503406Y411421D01*
X1503633Y411404D01*
X1503859Y411381D01*
X1504085Y411354D01*
X1504310Y411320D01*
X1504534Y411282D01*
X1504757Y411238D01*
X1504979Y411189D01*
X1505200Y411134D01*
X1505419Y411074D01*
X1505637Y411009D01*
X1505853Y410938D01*
X1506067Y410863D01*
X1506280Y410782D01*
X1506490Y410696D01*
X1506699Y410605D01*
X1506282Y405610D02*
X1506367Y405574D01*
X1506450Y405534D01*
X1506531Y405491D01*
X1506611Y405444D01*
X1506688Y405394D01*
X1506764Y405341D01*
X1506837Y405285D01*
X1506907Y405225D01*
X1506975Y405163D01*
X1507040Y405098D01*
X1507102Y405030D01*
X1507162Y404959D01*
X1507218Y404886D01*
X1507271Y404811D01*
X1507321Y404733D01*
X1507367Y404654D01*
X1507410Y404572D01*
X1507450Y404489D01*
X1507486Y404404D01*
X1507518Y404318D01*
X1507547Y404230D01*
X1507571Y404141D01*
X1507592Y404051D01*
X1507609Y403961D01*
X1507623Y403870D01*
X1507632Y403778D01*
X1507637Y403686D01*
X1507639Y403594D01*
X1507637Y403502D01*
X1507630Y403410D01*
X1507620Y403318D01*
X1507606Y403227D01*
X1507588Y403136D01*
X1507566Y403047D01*
X1507540Y402958D01*
X1507510Y402871D01*
X1507477Y402785D01*
X1507440Y402701D01*
X1507400Y402618D01*
X1507356Y402537D01*
X1507309Y402458D01*
X1507258Y402381D01*
X1507204Y402306D01*
X1507147Y402233D01*
X1507087Y402163D01*
X1507024Y402096D01*
X1506958Y402032D01*
X1506890Y401970D01*
X1506819Y401911D01*
X1506745Y401856D01*
X1506669Y401803D01*
X1506591Y401754D01*
X1506511Y401708D01*
X1506430Y401666D01*
X1506346Y401627D01*
X1506261Y401592D01*
X1506174Y401561D01*
X1506086Y401533D01*
X1505997Y401509D01*
X1505907Y401489D01*
X1505817Y401472D01*
X1505725Y401460D01*
X1505633Y401451D01*
X1505541Y401447D01*
X1505449Y401446D01*
X1505449Y401447D02*
X1505115Y401456D01*
X1504782Y401473D01*
X1504449Y401497D01*
X1504116Y401530D01*
X1503785Y401570D01*
X1503454Y401618D01*
X1503125Y401674D01*
X1502797Y401737D01*
X1502471Y401809D01*
X1502147Y401888D01*
X1501824Y401974D01*
X1501504Y402069D01*
X1501186Y402171D01*
X1500870Y402280D01*
X1516942Y401447D02*
X1520272Y401447D01*
X1516942Y401447D02*
X1516844Y401449D01*
X1516746Y401455D01*
X1516648Y401464D01*
X1516551Y401478D01*
X1516455Y401495D01*
X1516359Y401516D01*
X1516264Y401541D01*
X1516170Y401569D01*
X1516077Y401601D01*
X1515986Y401637D01*
X1515896Y401676D01*
X1515808Y401719D01*
X1515721Y401766D01*
X1515637Y401815D01*
X1515554Y401868D01*
X1515474Y401924D01*
X1515396Y401983D01*
X1515320Y402046D01*
X1515246Y402111D01*
X1515176Y402179D01*
X1515108Y402249D01*
X1515043Y402323D01*
X1514980Y402399D01*
X1514921Y402477D01*
X1514865Y402557D01*
X1514812Y402640D01*
X1514763Y402724D01*
X1514716Y402811D01*
X1514673Y402899D01*
X1514634Y402989D01*
X1514598Y403080D01*
X1514566Y403173D01*
X1514538Y403267D01*
X1514513Y403362D01*
X1514492Y403458D01*
X1514475Y403554D01*
X1514461Y403651D01*
X1514452Y403749D01*
X1514446Y403847D01*
X1514444Y403945D01*
X1514444Y408940D01*
X1514446Y409038D01*
X1514452Y409136D01*
X1514461Y409234D01*
X1514475Y409331D01*
X1514492Y409427D01*
X1514513Y409523D01*
X1514538Y409618D01*
X1514566Y409712D01*
X1514598Y409805D01*
X1514634Y409896D01*
X1514673Y409986D01*
X1514716Y410074D01*
X1514763Y410161D01*
X1514812Y410245D01*
X1514865Y410328D01*
X1514921Y410408D01*
X1514980Y410487D01*
X1515043Y410562D01*
X1515108Y410636D01*
X1515176Y410706D01*
X1515246Y410774D01*
X1515320Y410840D01*
X1515396Y410902D01*
X1515474Y410961D01*
X1515554Y411017D01*
X1515637Y411070D01*
X1515721Y411120D01*
X1515808Y411166D01*
X1515896Y411209D01*
X1515986Y411248D01*
X1516077Y411284D01*
X1516170Y411316D01*
X1516264Y411344D01*
X1516359Y411369D01*
X1516455Y411390D01*
X1516551Y411407D01*
X1516648Y411421D01*
X1516746Y411430D01*
X1516844Y411436D01*
X1516942Y411438D01*
X1520272Y411438D01*
X1526402Y408107D02*
X1526402Y404777D01*
X1526402Y408107D02*
X1526404Y408221D01*
X1526410Y408334D01*
X1526419Y408448D01*
X1526433Y408560D01*
X1526450Y408673D01*
X1526472Y408785D01*
X1526497Y408895D01*
X1526525Y409005D01*
X1526558Y409114D01*
X1526594Y409222D01*
X1526634Y409329D01*
X1526678Y409434D01*
X1526725Y409537D01*
X1526775Y409639D01*
X1526829Y409739D01*
X1526887Y409837D01*
X1526948Y409933D01*
X1527011Y410027D01*
X1527079Y410119D01*
X1527149Y410209D01*
X1527222Y410295D01*
X1527298Y410380D01*
X1527377Y410462D01*
X1527459Y410541D01*
X1527544Y410617D01*
X1527630Y410690D01*
X1527720Y410760D01*
X1527812Y410828D01*
X1527906Y410891D01*
X1528002Y410952D01*
X1528100Y411010D01*
X1528200Y411064D01*
X1528302Y411114D01*
X1528405Y411161D01*
X1528510Y411205D01*
X1528617Y411245D01*
X1528725Y411281D01*
X1528834Y411314D01*
X1528944Y411342D01*
X1529054Y411367D01*
X1529166Y411389D01*
X1529279Y411406D01*
X1529391Y411420D01*
X1529505Y411429D01*
X1529618Y411435D01*
X1529732Y411437D01*
X1529846Y411435D01*
X1529959Y411429D01*
X1530073Y411420D01*
X1530185Y411406D01*
X1530298Y411389D01*
X1530410Y411367D01*
X1530520Y411342D01*
X1530630Y411314D01*
X1530739Y411281D01*
X1530847Y411245D01*
X1530954Y411205D01*
X1531059Y411161D01*
X1531162Y411114D01*
X1531264Y411064D01*
X1531364Y411010D01*
X1531462Y410952D01*
X1531558Y410891D01*
X1531652Y410828D01*
X1531744Y410760D01*
X1531834Y410690D01*
X1531920Y410617D01*
X1532005Y410541D01*
X1532087Y410462D01*
X1532166Y410380D01*
X1532242Y410295D01*
X1532315Y410209D01*
X1532385Y410119D01*
X1532453Y410027D01*
X1532516Y409933D01*
X1532577Y409837D01*
X1532635Y409739D01*
X1532689Y409639D01*
X1532739Y409537D01*
X1532786Y409434D01*
X1532830Y409329D01*
X1532870Y409222D01*
X1532906Y409114D01*
X1532939Y409005D01*
X1532967Y408895D01*
X1532992Y408785D01*
X1533014Y408673D01*
X1533031Y408560D01*
X1533045Y408448D01*
X1533054Y408334D01*
X1533060Y408221D01*
X1533062Y408107D01*
X1533062Y404777D01*
X1533060Y404663D01*
X1533054Y404550D01*
X1533045Y404436D01*
X1533031Y404324D01*
X1533014Y404211D01*
X1532992Y404099D01*
X1532967Y403989D01*
X1532939Y403879D01*
X1532906Y403770D01*
X1532870Y403662D01*
X1532830Y403555D01*
X1532786Y403450D01*
X1532739Y403347D01*
X1532689Y403245D01*
X1532635Y403145D01*
X1532577Y403047D01*
X1532516Y402951D01*
X1532453Y402857D01*
X1532385Y402765D01*
X1532315Y402675D01*
X1532242Y402589D01*
X1532166Y402504D01*
X1532087Y402422D01*
X1532005Y402343D01*
X1531920Y402267D01*
X1531834Y402194D01*
X1531744Y402124D01*
X1531652Y402056D01*
X1531558Y401993D01*
X1531462Y401932D01*
X1531364Y401874D01*
X1531264Y401820D01*
X1531162Y401770D01*
X1531059Y401723D01*
X1530954Y401679D01*
X1530847Y401639D01*
X1530739Y401603D01*
X1530630Y401570D01*
X1530520Y401542D01*
X1530410Y401517D01*
X1530298Y401495D01*
X1530185Y401478D01*
X1530073Y401464D01*
X1529959Y401455D01*
X1529846Y401449D01*
X1529732Y401447D01*
X1529618Y401449D01*
X1529505Y401455D01*
X1529391Y401464D01*
X1529279Y401478D01*
X1529166Y401495D01*
X1529054Y401517D01*
X1528944Y401542D01*
X1528834Y401570D01*
X1528725Y401603D01*
X1528617Y401639D01*
X1528510Y401679D01*
X1528405Y401723D01*
X1528302Y401770D01*
X1528200Y401820D01*
X1528100Y401874D01*
X1528002Y401932D01*
X1527906Y401993D01*
X1527812Y402056D01*
X1527720Y402124D01*
X1527630Y402194D01*
X1527544Y402267D01*
X1527459Y402343D01*
X1527377Y402422D01*
X1527298Y402504D01*
X1527222Y402589D01*
X1527149Y402675D01*
X1527079Y402765D01*
X1527011Y402857D01*
X1526948Y402951D01*
X1526887Y403047D01*
X1526829Y403145D01*
X1526775Y403245D01*
X1526725Y403347D01*
X1526678Y403450D01*
X1526634Y403555D01*
X1526594Y403662D01*
X1526558Y403770D01*
X1526525Y403879D01*
X1526497Y403989D01*
X1526472Y404099D01*
X1526450Y404211D01*
X1526433Y404324D01*
X1526419Y404436D01*
X1526410Y404550D01*
X1526404Y404663D01*
X1526402Y404777D01*
X1540598Y401447D02*
X1540598Y411438D01*
X1545593Y411438D01*
X1545593Y409773D01*
X1553388Y401447D02*
X1557551Y401447D01*
X1553388Y401447D02*
X1553290Y401449D01*
X1553192Y401455D01*
X1553094Y401464D01*
X1552997Y401478D01*
X1552901Y401495D01*
X1552805Y401516D01*
X1552710Y401541D01*
X1552616Y401569D01*
X1552523Y401601D01*
X1552432Y401637D01*
X1552342Y401676D01*
X1552254Y401719D01*
X1552167Y401766D01*
X1552083Y401815D01*
X1552000Y401868D01*
X1551920Y401924D01*
X1551842Y401983D01*
X1551766Y402046D01*
X1551692Y402111D01*
X1551622Y402179D01*
X1551554Y402249D01*
X1551489Y402323D01*
X1551426Y402399D01*
X1551367Y402477D01*
X1551311Y402557D01*
X1551258Y402640D01*
X1551209Y402724D01*
X1551162Y402811D01*
X1551119Y402899D01*
X1551080Y402989D01*
X1551044Y403080D01*
X1551012Y403173D01*
X1550984Y403267D01*
X1550959Y403362D01*
X1550938Y403458D01*
X1550921Y403554D01*
X1550907Y403651D01*
X1550898Y403749D01*
X1550892Y403847D01*
X1550890Y403945D01*
X1550890Y408107D01*
X1550891Y408107D02*
X1550893Y408221D01*
X1550899Y408334D01*
X1550908Y408448D01*
X1550922Y408560D01*
X1550939Y408673D01*
X1550961Y408785D01*
X1550986Y408895D01*
X1551014Y409005D01*
X1551047Y409114D01*
X1551083Y409222D01*
X1551123Y409329D01*
X1551167Y409434D01*
X1551214Y409537D01*
X1551264Y409639D01*
X1551318Y409739D01*
X1551376Y409837D01*
X1551437Y409933D01*
X1551500Y410027D01*
X1551568Y410119D01*
X1551638Y410209D01*
X1551711Y410295D01*
X1551787Y410380D01*
X1551866Y410462D01*
X1551948Y410541D01*
X1552033Y410617D01*
X1552119Y410690D01*
X1552209Y410760D01*
X1552301Y410828D01*
X1552395Y410891D01*
X1552491Y410952D01*
X1552589Y411010D01*
X1552689Y411064D01*
X1552791Y411114D01*
X1552894Y411161D01*
X1552999Y411205D01*
X1553106Y411245D01*
X1553214Y411281D01*
X1553323Y411314D01*
X1553433Y411342D01*
X1553543Y411367D01*
X1553655Y411389D01*
X1553768Y411406D01*
X1553880Y411420D01*
X1553994Y411429D01*
X1554107Y411435D01*
X1554221Y411437D01*
X1554335Y411435D01*
X1554448Y411429D01*
X1554562Y411420D01*
X1554674Y411406D01*
X1554787Y411389D01*
X1554899Y411367D01*
X1555009Y411342D01*
X1555119Y411314D01*
X1555228Y411281D01*
X1555336Y411245D01*
X1555443Y411205D01*
X1555548Y411161D01*
X1555651Y411114D01*
X1555753Y411064D01*
X1555853Y411010D01*
X1555951Y410952D01*
X1556047Y410891D01*
X1556141Y410828D01*
X1556233Y410760D01*
X1556323Y410690D01*
X1556409Y410617D01*
X1556494Y410541D01*
X1556576Y410462D01*
X1556655Y410380D01*
X1556731Y410295D01*
X1556804Y410209D01*
X1556874Y410119D01*
X1556942Y410027D01*
X1557005Y409933D01*
X1557066Y409837D01*
X1557124Y409739D01*
X1557178Y409639D01*
X1557228Y409537D01*
X1557275Y409434D01*
X1557319Y409329D01*
X1557359Y409222D01*
X1557395Y409114D01*
X1557428Y409005D01*
X1557456Y408895D01*
X1557481Y408785D01*
X1557503Y408673D01*
X1557520Y408560D01*
X1557534Y408448D01*
X1557543Y408334D01*
X1557549Y408221D01*
X1557551Y408107D01*
X1557551Y406442D01*
X1550890Y406442D01*
D11*
X1437640Y546100D02*
X-68580Y546100D01*
D12*
X1470129Y548598D02*
X1473459Y538607D01*
X1476790Y548598D01*
X1483574Y544435D02*
X1493565Y544435D01*
X1502119Y544435D02*
X1506282Y542770D01*
X1502119Y544434D02*
X1502034Y544470D01*
X1501951Y544510D01*
X1501870Y544553D01*
X1501790Y544600D01*
X1501713Y544650D01*
X1501637Y544703D01*
X1501564Y544759D01*
X1501494Y544819D01*
X1501426Y544881D01*
X1501361Y544946D01*
X1501299Y545014D01*
X1501239Y545085D01*
X1501183Y545158D01*
X1501130Y545233D01*
X1501080Y545311D01*
X1501034Y545390D01*
X1500991Y545472D01*
X1500951Y545555D01*
X1500915Y545640D01*
X1500883Y545726D01*
X1500854Y545814D01*
X1500830Y545903D01*
X1500809Y545993D01*
X1500792Y546083D01*
X1500778Y546174D01*
X1500769Y546266D01*
X1500764Y546358D01*
X1500762Y546450D01*
X1500764Y546542D01*
X1500771Y546634D01*
X1500781Y546726D01*
X1500795Y546817D01*
X1500813Y546908D01*
X1500835Y546997D01*
X1500861Y547086D01*
X1500891Y547173D01*
X1500924Y547259D01*
X1500961Y547343D01*
X1501001Y547426D01*
X1501045Y547507D01*
X1501092Y547586D01*
X1501143Y547663D01*
X1501197Y547738D01*
X1501254Y547811D01*
X1501314Y547881D01*
X1501377Y547948D01*
X1501443Y548012D01*
X1501511Y548074D01*
X1501582Y548133D01*
X1501656Y548188D01*
X1501732Y548241D01*
X1501810Y548290D01*
X1501890Y548336D01*
X1501971Y548378D01*
X1502055Y548417D01*
X1502140Y548452D01*
X1502227Y548483D01*
X1502315Y548511D01*
X1502404Y548535D01*
X1502494Y548555D01*
X1502584Y548572D01*
X1502676Y548584D01*
X1502768Y548593D01*
X1502860Y548597D01*
X1502952Y548598D01*
X1503179Y548592D01*
X1503406Y548581D01*
X1503633Y548564D01*
X1503859Y548541D01*
X1504085Y548514D01*
X1504310Y548480D01*
X1504534Y548442D01*
X1504757Y548398D01*
X1504979Y548349D01*
X1505200Y548294D01*
X1505419Y548234D01*
X1505637Y548169D01*
X1505853Y548098D01*
X1506067Y548023D01*
X1506280Y547942D01*
X1506490Y547856D01*
X1506699Y547765D01*
X1506282Y542770D02*
X1506367Y542734D01*
X1506450Y542694D01*
X1506531Y542651D01*
X1506611Y542604D01*
X1506688Y542554D01*
X1506764Y542501D01*
X1506837Y542445D01*
X1506907Y542385D01*
X1506975Y542323D01*
X1507040Y542258D01*
X1507102Y542190D01*
X1507162Y542119D01*
X1507218Y542046D01*
X1507271Y541971D01*
X1507321Y541893D01*
X1507367Y541814D01*
X1507410Y541732D01*
X1507450Y541649D01*
X1507486Y541564D01*
X1507518Y541478D01*
X1507547Y541390D01*
X1507571Y541301D01*
X1507592Y541211D01*
X1507609Y541121D01*
X1507623Y541030D01*
X1507632Y540938D01*
X1507637Y540846D01*
X1507639Y540754D01*
X1507637Y540662D01*
X1507630Y540570D01*
X1507620Y540478D01*
X1507606Y540387D01*
X1507588Y540296D01*
X1507566Y540207D01*
X1507540Y540118D01*
X1507510Y540031D01*
X1507477Y539945D01*
X1507440Y539861D01*
X1507400Y539778D01*
X1507356Y539697D01*
X1507309Y539618D01*
X1507258Y539541D01*
X1507204Y539466D01*
X1507147Y539393D01*
X1507087Y539323D01*
X1507024Y539256D01*
X1506958Y539192D01*
X1506890Y539130D01*
X1506819Y539071D01*
X1506745Y539016D01*
X1506669Y538963D01*
X1506591Y538914D01*
X1506511Y538868D01*
X1506430Y538826D01*
X1506346Y538787D01*
X1506261Y538752D01*
X1506174Y538721D01*
X1506086Y538693D01*
X1505997Y538669D01*
X1505907Y538649D01*
X1505817Y538632D01*
X1505725Y538620D01*
X1505633Y538611D01*
X1505541Y538607D01*
X1505449Y538606D01*
X1505449Y538607D02*
X1505115Y538616D01*
X1504782Y538633D01*
X1504449Y538657D01*
X1504116Y538690D01*
X1503785Y538730D01*
X1503454Y538778D01*
X1503125Y538834D01*
X1502797Y538897D01*
X1502471Y538969D01*
X1502147Y539048D01*
X1501824Y539134D01*
X1501504Y539229D01*
X1501186Y539331D01*
X1500870Y539440D01*
X1516942Y538607D02*
X1520272Y538607D01*
X1516942Y538607D02*
X1516844Y538609D01*
X1516746Y538615D01*
X1516648Y538624D01*
X1516551Y538638D01*
X1516455Y538655D01*
X1516359Y538676D01*
X1516264Y538701D01*
X1516170Y538729D01*
X1516077Y538761D01*
X1515986Y538797D01*
X1515896Y538836D01*
X1515808Y538879D01*
X1515721Y538926D01*
X1515637Y538975D01*
X1515554Y539028D01*
X1515474Y539084D01*
X1515396Y539143D01*
X1515320Y539206D01*
X1515246Y539271D01*
X1515176Y539339D01*
X1515108Y539409D01*
X1515043Y539483D01*
X1514980Y539559D01*
X1514921Y539637D01*
X1514865Y539717D01*
X1514812Y539800D01*
X1514763Y539884D01*
X1514716Y539971D01*
X1514673Y540059D01*
X1514634Y540149D01*
X1514598Y540240D01*
X1514566Y540333D01*
X1514538Y540427D01*
X1514513Y540522D01*
X1514492Y540618D01*
X1514475Y540714D01*
X1514461Y540811D01*
X1514452Y540909D01*
X1514446Y541007D01*
X1514444Y541105D01*
X1514444Y546100D01*
X1514446Y546198D01*
X1514452Y546296D01*
X1514461Y546394D01*
X1514475Y546491D01*
X1514492Y546587D01*
X1514513Y546683D01*
X1514538Y546778D01*
X1514566Y546872D01*
X1514598Y546965D01*
X1514634Y547056D01*
X1514673Y547146D01*
X1514716Y547234D01*
X1514763Y547321D01*
X1514812Y547405D01*
X1514865Y547488D01*
X1514921Y547568D01*
X1514980Y547647D01*
X1515043Y547722D01*
X1515108Y547796D01*
X1515176Y547866D01*
X1515246Y547934D01*
X1515320Y548000D01*
X1515396Y548062D01*
X1515474Y548121D01*
X1515554Y548177D01*
X1515637Y548230D01*
X1515721Y548280D01*
X1515808Y548326D01*
X1515896Y548369D01*
X1515986Y548408D01*
X1516077Y548444D01*
X1516170Y548476D01*
X1516264Y548504D01*
X1516359Y548529D01*
X1516455Y548550D01*
X1516551Y548567D01*
X1516648Y548581D01*
X1516746Y548590D01*
X1516844Y548596D01*
X1516942Y548598D01*
X1520272Y548598D01*
X1526402Y545267D02*
X1526402Y541937D01*
X1526402Y545267D02*
X1526404Y545381D01*
X1526410Y545494D01*
X1526419Y545608D01*
X1526433Y545720D01*
X1526450Y545833D01*
X1526472Y545945D01*
X1526497Y546055D01*
X1526525Y546165D01*
X1526558Y546274D01*
X1526594Y546382D01*
X1526634Y546489D01*
X1526678Y546594D01*
X1526725Y546697D01*
X1526775Y546799D01*
X1526829Y546899D01*
X1526887Y546997D01*
X1526948Y547093D01*
X1527011Y547187D01*
X1527079Y547279D01*
X1527149Y547369D01*
X1527222Y547455D01*
X1527298Y547540D01*
X1527377Y547622D01*
X1527459Y547701D01*
X1527544Y547777D01*
X1527630Y547850D01*
X1527720Y547920D01*
X1527812Y547988D01*
X1527906Y548051D01*
X1528002Y548112D01*
X1528100Y548170D01*
X1528200Y548224D01*
X1528302Y548274D01*
X1528405Y548321D01*
X1528510Y548365D01*
X1528617Y548405D01*
X1528725Y548441D01*
X1528834Y548474D01*
X1528944Y548502D01*
X1529054Y548527D01*
X1529166Y548549D01*
X1529279Y548566D01*
X1529391Y548580D01*
X1529505Y548589D01*
X1529618Y548595D01*
X1529732Y548597D01*
X1529846Y548595D01*
X1529959Y548589D01*
X1530073Y548580D01*
X1530185Y548566D01*
X1530298Y548549D01*
X1530410Y548527D01*
X1530520Y548502D01*
X1530630Y548474D01*
X1530739Y548441D01*
X1530847Y548405D01*
X1530954Y548365D01*
X1531059Y548321D01*
X1531162Y548274D01*
X1531264Y548224D01*
X1531364Y548170D01*
X1531462Y548112D01*
X1531558Y548051D01*
X1531652Y547988D01*
X1531744Y547920D01*
X1531834Y547850D01*
X1531920Y547777D01*
X1532005Y547701D01*
X1532087Y547622D01*
X1532166Y547540D01*
X1532242Y547455D01*
X1532315Y547369D01*
X1532385Y547279D01*
X1532453Y547187D01*
X1532516Y547093D01*
X1532577Y546997D01*
X1532635Y546899D01*
X1532689Y546799D01*
X1532739Y546697D01*
X1532786Y546594D01*
X1532830Y546489D01*
X1532870Y546382D01*
X1532906Y546274D01*
X1532939Y546165D01*
X1532967Y546055D01*
X1532992Y545945D01*
X1533014Y545833D01*
X1533031Y545720D01*
X1533045Y545608D01*
X1533054Y545494D01*
X1533060Y545381D01*
X1533062Y545267D01*
X1533062Y541937D01*
X1533060Y541823D01*
X1533054Y541710D01*
X1533045Y541596D01*
X1533031Y541484D01*
X1533014Y541371D01*
X1532992Y541259D01*
X1532967Y541149D01*
X1532939Y541039D01*
X1532906Y540930D01*
X1532870Y540822D01*
X1532830Y540715D01*
X1532786Y540610D01*
X1532739Y540507D01*
X1532689Y540405D01*
X1532635Y540305D01*
X1532577Y540207D01*
X1532516Y540111D01*
X1532453Y540017D01*
X1532385Y539925D01*
X1532315Y539835D01*
X1532242Y539749D01*
X1532166Y539664D01*
X1532087Y539582D01*
X1532005Y539503D01*
X1531920Y539427D01*
X1531834Y539354D01*
X1531744Y539284D01*
X1531652Y539216D01*
X1531558Y539153D01*
X1531462Y539092D01*
X1531364Y539034D01*
X1531264Y538980D01*
X1531162Y538930D01*
X1531059Y538883D01*
X1530954Y538839D01*
X1530847Y538799D01*
X1530739Y538763D01*
X1530630Y538730D01*
X1530520Y538702D01*
X1530410Y538677D01*
X1530298Y538655D01*
X1530185Y538638D01*
X1530073Y538624D01*
X1529959Y538615D01*
X1529846Y538609D01*
X1529732Y538607D01*
X1529618Y538609D01*
X1529505Y538615D01*
X1529391Y538624D01*
X1529279Y538638D01*
X1529166Y538655D01*
X1529054Y538677D01*
X1528944Y538702D01*
X1528834Y538730D01*
X1528725Y538763D01*
X1528617Y538799D01*
X1528510Y538839D01*
X1528405Y538883D01*
X1528302Y538930D01*
X1528200Y538980D01*
X1528100Y539034D01*
X1528002Y539092D01*
X1527906Y539153D01*
X1527812Y539216D01*
X1527720Y539284D01*
X1527630Y539354D01*
X1527544Y539427D01*
X1527459Y539503D01*
X1527377Y539582D01*
X1527298Y539664D01*
X1527222Y539749D01*
X1527149Y539835D01*
X1527079Y539925D01*
X1527011Y540017D01*
X1526948Y540111D01*
X1526887Y540207D01*
X1526829Y540305D01*
X1526775Y540405D01*
X1526725Y540507D01*
X1526678Y540610D01*
X1526634Y540715D01*
X1526594Y540822D01*
X1526558Y540930D01*
X1526525Y541039D01*
X1526497Y541149D01*
X1526472Y541259D01*
X1526450Y541371D01*
X1526433Y541484D01*
X1526419Y541596D01*
X1526410Y541710D01*
X1526404Y541823D01*
X1526402Y541937D01*
X1540598Y538607D02*
X1540598Y548598D01*
X1545593Y548598D01*
X1545593Y546933D01*
X1553388Y538607D02*
X1557551Y538607D01*
X1553388Y538607D02*
X1553290Y538609D01*
X1553192Y538615D01*
X1553094Y538624D01*
X1552997Y538638D01*
X1552901Y538655D01*
X1552805Y538676D01*
X1552710Y538701D01*
X1552616Y538729D01*
X1552523Y538761D01*
X1552432Y538797D01*
X1552342Y538836D01*
X1552254Y538879D01*
X1552167Y538926D01*
X1552083Y538975D01*
X1552000Y539028D01*
X1551920Y539084D01*
X1551842Y539143D01*
X1551766Y539206D01*
X1551692Y539271D01*
X1551622Y539339D01*
X1551554Y539409D01*
X1551489Y539483D01*
X1551426Y539559D01*
X1551367Y539637D01*
X1551311Y539717D01*
X1551258Y539800D01*
X1551209Y539884D01*
X1551162Y539971D01*
X1551119Y540059D01*
X1551080Y540149D01*
X1551044Y540240D01*
X1551012Y540333D01*
X1550984Y540427D01*
X1550959Y540522D01*
X1550938Y540618D01*
X1550921Y540714D01*
X1550907Y540811D01*
X1550898Y540909D01*
X1550892Y541007D01*
X1550890Y541105D01*
X1550890Y545267D01*
X1550891Y545267D02*
X1550893Y545381D01*
X1550899Y545494D01*
X1550908Y545608D01*
X1550922Y545720D01*
X1550939Y545833D01*
X1550961Y545945D01*
X1550986Y546055D01*
X1551014Y546165D01*
X1551047Y546274D01*
X1551083Y546382D01*
X1551123Y546489D01*
X1551167Y546594D01*
X1551214Y546697D01*
X1551264Y546799D01*
X1551318Y546899D01*
X1551376Y546997D01*
X1551437Y547093D01*
X1551500Y547187D01*
X1551568Y547279D01*
X1551638Y547369D01*
X1551711Y547455D01*
X1551787Y547540D01*
X1551866Y547622D01*
X1551948Y547701D01*
X1552033Y547777D01*
X1552119Y547850D01*
X1552209Y547920D01*
X1552301Y547988D01*
X1552395Y548051D01*
X1552491Y548112D01*
X1552589Y548170D01*
X1552689Y548224D01*
X1552791Y548274D01*
X1552894Y548321D01*
X1552999Y548365D01*
X1553106Y548405D01*
X1553214Y548441D01*
X1553323Y548474D01*
X1553433Y548502D01*
X1553543Y548527D01*
X1553655Y548549D01*
X1553768Y548566D01*
X1553880Y548580D01*
X1553994Y548589D01*
X1554107Y548595D01*
X1554221Y548597D01*
X1554335Y548595D01*
X1554448Y548589D01*
X1554562Y548580D01*
X1554674Y548566D01*
X1554787Y548549D01*
X1554899Y548527D01*
X1555009Y548502D01*
X1555119Y548474D01*
X1555228Y548441D01*
X1555336Y548405D01*
X1555443Y548365D01*
X1555548Y548321D01*
X1555651Y548274D01*
X1555753Y548224D01*
X1555853Y548170D01*
X1555951Y548112D01*
X1556047Y548051D01*
X1556141Y547988D01*
X1556233Y547920D01*
X1556323Y547850D01*
X1556409Y547777D01*
X1556494Y547701D01*
X1556576Y547622D01*
X1556655Y547540D01*
X1556731Y547455D01*
X1556804Y547369D01*
X1556874Y547279D01*
X1556942Y547187D01*
X1557005Y547093D01*
X1557066Y546997D01*
X1557124Y546899D01*
X1557178Y546799D01*
X1557228Y546697D01*
X1557275Y546594D01*
X1557319Y546489D01*
X1557359Y546382D01*
X1557395Y546274D01*
X1557428Y546165D01*
X1557456Y546055D01*
X1557481Y545945D01*
X1557503Y545833D01*
X1557520Y545720D01*
X1557534Y545608D01*
X1557543Y545494D01*
X1557549Y545381D01*
X1557551Y545267D01*
X1557551Y543602D01*
X1550890Y543602D01*
D11*
X1437640Y683260D02*
X-68580Y683260D01*
D12*
X1470129Y685758D02*
X1473459Y675767D01*
X1476790Y685758D01*
X1483574Y681595D02*
X1493565Y681595D01*
X1502119Y681595D02*
X1506282Y679930D01*
X1502119Y681594D02*
X1502034Y681630D01*
X1501951Y681670D01*
X1501870Y681713D01*
X1501790Y681760D01*
X1501713Y681810D01*
X1501637Y681863D01*
X1501564Y681919D01*
X1501494Y681979D01*
X1501426Y682041D01*
X1501361Y682106D01*
X1501299Y682174D01*
X1501239Y682245D01*
X1501183Y682318D01*
X1501130Y682393D01*
X1501080Y682471D01*
X1501034Y682550D01*
X1500991Y682632D01*
X1500951Y682715D01*
X1500915Y682800D01*
X1500883Y682886D01*
X1500854Y682974D01*
X1500830Y683063D01*
X1500809Y683153D01*
X1500792Y683243D01*
X1500778Y683334D01*
X1500769Y683426D01*
X1500764Y683518D01*
X1500762Y683610D01*
X1500764Y683702D01*
X1500771Y683794D01*
X1500781Y683886D01*
X1500795Y683977D01*
X1500813Y684068D01*
X1500835Y684157D01*
X1500861Y684246D01*
X1500891Y684333D01*
X1500924Y684419D01*
X1500961Y684503D01*
X1501001Y684586D01*
X1501045Y684667D01*
X1501092Y684746D01*
X1501143Y684823D01*
X1501197Y684898D01*
X1501254Y684971D01*
X1501314Y685041D01*
X1501377Y685108D01*
X1501443Y685172D01*
X1501511Y685234D01*
X1501582Y685293D01*
X1501656Y685348D01*
X1501732Y685401D01*
X1501810Y685450D01*
X1501890Y685496D01*
X1501971Y685538D01*
X1502055Y685577D01*
X1502140Y685612D01*
X1502227Y685643D01*
X1502315Y685671D01*
X1502404Y685695D01*
X1502494Y685715D01*
X1502584Y685732D01*
X1502676Y685744D01*
X1502768Y685753D01*
X1502860Y685757D01*
X1502952Y685758D01*
X1503179Y685752D01*
X1503406Y685741D01*
X1503633Y685724D01*
X1503859Y685701D01*
X1504085Y685674D01*
X1504310Y685640D01*
X1504534Y685602D01*
X1504757Y685558D01*
X1504979Y685509D01*
X1505200Y685454D01*
X1505419Y685394D01*
X1505637Y685329D01*
X1505853Y685258D01*
X1506067Y685183D01*
X1506280Y685102D01*
X1506490Y685016D01*
X1506699Y684925D01*
X1506282Y679930D02*
X1506367Y679894D01*
X1506450Y679854D01*
X1506531Y679811D01*
X1506611Y679764D01*
X1506688Y679714D01*
X1506764Y679661D01*
X1506837Y679605D01*
X1506907Y679545D01*
X1506975Y679483D01*
X1507040Y679418D01*
X1507102Y679350D01*
X1507162Y679279D01*
X1507218Y679206D01*
X1507271Y679131D01*
X1507321Y679053D01*
X1507367Y678974D01*
X1507410Y678892D01*
X1507450Y678809D01*
X1507486Y678724D01*
X1507518Y678638D01*
X1507547Y678550D01*
X1507571Y678461D01*
X1507592Y678371D01*
X1507609Y678281D01*
X1507623Y678190D01*
X1507632Y678098D01*
X1507637Y678006D01*
X1507639Y677914D01*
X1507637Y677822D01*
X1507630Y677730D01*
X1507620Y677638D01*
X1507606Y677547D01*
X1507588Y677456D01*
X1507566Y677367D01*
X1507540Y677278D01*
X1507510Y677191D01*
X1507477Y677105D01*
X1507440Y677021D01*
X1507400Y676938D01*
X1507356Y676857D01*
X1507309Y676778D01*
X1507258Y676701D01*
X1507204Y676626D01*
X1507147Y676553D01*
X1507087Y676483D01*
X1507024Y676416D01*
X1506958Y676352D01*
X1506890Y676290D01*
X1506819Y676231D01*
X1506745Y676176D01*
X1506669Y676123D01*
X1506591Y676074D01*
X1506511Y676028D01*
X1506430Y675986D01*
X1506346Y675947D01*
X1506261Y675912D01*
X1506174Y675881D01*
X1506086Y675853D01*
X1505997Y675829D01*
X1505907Y675809D01*
X1505817Y675792D01*
X1505725Y675780D01*
X1505633Y675771D01*
X1505541Y675767D01*
X1505449Y675766D01*
X1505449Y675767D02*
X1505115Y675776D01*
X1504782Y675793D01*
X1504449Y675817D01*
X1504116Y675850D01*
X1503785Y675890D01*
X1503454Y675938D01*
X1503125Y675994D01*
X1502797Y676057D01*
X1502471Y676129D01*
X1502147Y676208D01*
X1501824Y676294D01*
X1501504Y676389D01*
X1501186Y676491D01*
X1500870Y676600D01*
X1516942Y675767D02*
X1520272Y675767D01*
X1516942Y675767D02*
X1516844Y675769D01*
X1516746Y675775D01*
X1516648Y675784D01*
X1516551Y675798D01*
X1516455Y675815D01*
X1516359Y675836D01*
X1516264Y675861D01*
X1516170Y675889D01*
X1516077Y675921D01*
X1515986Y675957D01*
X1515896Y675996D01*
X1515808Y676039D01*
X1515721Y676086D01*
X1515637Y676135D01*
X1515554Y676188D01*
X1515474Y676244D01*
X1515396Y676303D01*
X1515320Y676366D01*
X1515246Y676431D01*
X1515176Y676499D01*
X1515108Y676569D01*
X1515043Y676643D01*
X1514980Y676719D01*
X1514921Y676797D01*
X1514865Y676877D01*
X1514812Y676960D01*
X1514763Y677044D01*
X1514716Y677131D01*
X1514673Y677219D01*
X1514634Y677309D01*
X1514598Y677400D01*
X1514566Y677493D01*
X1514538Y677587D01*
X1514513Y677682D01*
X1514492Y677778D01*
X1514475Y677874D01*
X1514461Y677971D01*
X1514452Y678069D01*
X1514446Y678167D01*
X1514444Y678265D01*
X1514444Y683260D01*
X1514446Y683358D01*
X1514452Y683456D01*
X1514461Y683554D01*
X1514475Y683651D01*
X1514492Y683747D01*
X1514513Y683843D01*
X1514538Y683938D01*
X1514566Y684032D01*
X1514598Y684125D01*
X1514634Y684216D01*
X1514673Y684306D01*
X1514716Y684394D01*
X1514763Y684481D01*
X1514812Y684565D01*
X1514865Y684648D01*
X1514921Y684728D01*
X1514980Y684807D01*
X1515043Y684882D01*
X1515108Y684956D01*
X1515176Y685026D01*
X1515246Y685094D01*
X1515320Y685160D01*
X1515396Y685222D01*
X1515474Y685281D01*
X1515554Y685337D01*
X1515637Y685390D01*
X1515721Y685440D01*
X1515808Y685486D01*
X1515896Y685529D01*
X1515986Y685568D01*
X1516077Y685604D01*
X1516170Y685636D01*
X1516264Y685664D01*
X1516359Y685689D01*
X1516455Y685710D01*
X1516551Y685727D01*
X1516648Y685741D01*
X1516746Y685750D01*
X1516844Y685756D01*
X1516942Y685758D01*
X1520272Y685758D01*
X1526402Y682427D02*
X1526402Y679097D01*
X1526402Y682427D02*
X1526404Y682541D01*
X1526410Y682654D01*
X1526419Y682768D01*
X1526433Y682880D01*
X1526450Y682993D01*
X1526472Y683105D01*
X1526497Y683215D01*
X1526525Y683325D01*
X1526558Y683434D01*
X1526594Y683542D01*
X1526634Y683649D01*
X1526678Y683754D01*
X1526725Y683857D01*
X1526775Y683959D01*
X1526829Y684059D01*
X1526887Y684157D01*
X1526948Y684253D01*
X1527011Y684347D01*
X1527079Y684439D01*
X1527149Y684529D01*
X1527222Y684615D01*
X1527298Y684700D01*
X1527377Y684782D01*
X1527459Y684861D01*
X1527544Y684937D01*
X1527630Y685010D01*
X1527720Y685080D01*
X1527812Y685148D01*
X1527906Y685211D01*
X1528002Y685272D01*
X1528100Y685330D01*
X1528200Y685384D01*
X1528302Y685434D01*
X1528405Y685481D01*
X1528510Y685525D01*
X1528617Y685565D01*
X1528725Y685601D01*
X1528834Y685634D01*
X1528944Y685662D01*
X1529054Y685687D01*
X1529166Y685709D01*
X1529279Y685726D01*
X1529391Y685740D01*
X1529505Y685749D01*
X1529618Y685755D01*
X1529732Y685757D01*
X1529846Y685755D01*
X1529959Y685749D01*
X1530073Y685740D01*
X1530185Y685726D01*
X1530298Y685709D01*
X1530410Y685687D01*
X1530520Y685662D01*
X1530630Y685634D01*
X1530739Y685601D01*
X1530847Y685565D01*
X1530954Y685525D01*
X1531059Y685481D01*
X1531162Y685434D01*
X1531264Y685384D01*
X1531364Y685330D01*
X1531462Y685272D01*
X1531558Y685211D01*
X1531652Y685148D01*
X1531744Y685080D01*
X1531834Y685010D01*
X1531920Y684937D01*
X1532005Y684861D01*
X1532087Y684782D01*
X1532166Y684700D01*
X1532242Y684615D01*
X1532315Y684529D01*
X1532385Y684439D01*
X1532453Y684347D01*
X1532516Y684253D01*
X1532577Y684157D01*
X1532635Y684059D01*
X1532689Y683959D01*
X1532739Y683857D01*
X1532786Y683754D01*
X1532830Y683649D01*
X1532870Y683542D01*
X1532906Y683434D01*
X1532939Y683325D01*
X1532967Y683215D01*
X1532992Y683105D01*
X1533014Y682993D01*
X1533031Y682880D01*
X1533045Y682768D01*
X1533054Y682654D01*
X1533060Y682541D01*
X1533062Y682427D01*
X1533062Y679097D01*
X1533060Y678983D01*
X1533054Y678870D01*
X1533045Y678756D01*
X1533031Y678644D01*
X1533014Y678531D01*
X1532992Y678419D01*
X1532967Y678309D01*
X1532939Y678199D01*
X1532906Y678090D01*
X1532870Y677982D01*
X1532830Y677875D01*
X1532786Y677770D01*
X1532739Y677667D01*
X1532689Y677565D01*
X1532635Y677465D01*
X1532577Y677367D01*
X1532516Y677271D01*
X1532453Y677177D01*
X1532385Y677085D01*
X1532315Y676995D01*
X1532242Y676909D01*
X1532166Y676824D01*
X1532087Y676742D01*
X1532005Y676663D01*
X1531920Y676587D01*
X1531834Y676514D01*
X1531744Y676444D01*
X1531652Y676376D01*
X1531558Y676313D01*
X1531462Y676252D01*
X1531364Y676194D01*
X1531264Y676140D01*
X1531162Y676090D01*
X1531059Y676043D01*
X1530954Y675999D01*
X1530847Y675959D01*
X1530739Y675923D01*
X1530630Y675890D01*
X1530520Y675862D01*
X1530410Y675837D01*
X1530298Y675815D01*
X1530185Y675798D01*
X1530073Y675784D01*
X1529959Y675775D01*
X1529846Y675769D01*
X1529732Y675767D01*
X1529618Y675769D01*
X1529505Y675775D01*
X1529391Y675784D01*
X1529279Y675798D01*
X1529166Y675815D01*
X1529054Y675837D01*
X1528944Y675862D01*
X1528834Y675890D01*
X1528725Y675923D01*
X1528617Y675959D01*
X1528510Y675999D01*
X1528405Y676043D01*
X1528302Y676090D01*
X1528200Y676140D01*
X1528100Y676194D01*
X1528002Y676252D01*
X1527906Y676313D01*
X1527812Y676376D01*
X1527720Y676444D01*
X1527630Y676514D01*
X1527544Y676587D01*
X1527459Y676663D01*
X1527377Y676742D01*
X1527298Y676824D01*
X1527222Y676909D01*
X1527149Y676995D01*
X1527079Y677085D01*
X1527011Y677177D01*
X1526948Y677271D01*
X1526887Y677367D01*
X1526829Y677465D01*
X1526775Y677565D01*
X1526725Y677667D01*
X1526678Y677770D01*
X1526634Y677875D01*
X1526594Y677982D01*
X1526558Y678090D01*
X1526525Y678199D01*
X1526497Y678309D01*
X1526472Y678419D01*
X1526450Y678531D01*
X1526433Y678644D01*
X1526419Y678756D01*
X1526410Y678870D01*
X1526404Y678983D01*
X1526402Y679097D01*
X1540598Y675767D02*
X1540598Y685758D01*
X1545593Y685758D01*
X1545593Y684093D01*
X1553388Y675767D02*
X1557551Y675767D01*
X1553388Y675767D02*
X1553290Y675769D01*
X1553192Y675775D01*
X1553094Y675784D01*
X1552997Y675798D01*
X1552901Y675815D01*
X1552805Y675836D01*
X1552710Y675861D01*
X1552616Y675889D01*
X1552523Y675921D01*
X1552432Y675957D01*
X1552342Y675996D01*
X1552254Y676039D01*
X1552167Y676086D01*
X1552083Y676135D01*
X1552000Y676188D01*
X1551920Y676244D01*
X1551842Y676303D01*
X1551766Y676366D01*
X1551692Y676431D01*
X1551622Y676499D01*
X1551554Y676569D01*
X1551489Y676643D01*
X1551426Y676719D01*
X1551367Y676797D01*
X1551311Y676877D01*
X1551258Y676960D01*
X1551209Y677044D01*
X1551162Y677131D01*
X1551119Y677219D01*
X1551080Y677309D01*
X1551044Y677400D01*
X1551012Y677493D01*
X1550984Y677587D01*
X1550959Y677682D01*
X1550938Y677778D01*
X1550921Y677874D01*
X1550907Y677971D01*
X1550898Y678069D01*
X1550892Y678167D01*
X1550890Y678265D01*
X1550890Y682427D01*
X1550891Y682427D02*
X1550893Y682541D01*
X1550899Y682654D01*
X1550908Y682768D01*
X1550922Y682880D01*
X1550939Y682993D01*
X1550961Y683105D01*
X1550986Y683215D01*
X1551014Y683325D01*
X1551047Y683434D01*
X1551083Y683542D01*
X1551123Y683649D01*
X1551167Y683754D01*
X1551214Y683857D01*
X1551264Y683959D01*
X1551318Y684059D01*
X1551376Y684157D01*
X1551437Y684253D01*
X1551500Y684347D01*
X1551568Y684439D01*
X1551638Y684529D01*
X1551711Y684615D01*
X1551787Y684700D01*
X1551866Y684782D01*
X1551948Y684861D01*
X1552033Y684937D01*
X1552119Y685010D01*
X1552209Y685080D01*
X1552301Y685148D01*
X1552395Y685211D01*
X1552491Y685272D01*
X1552589Y685330D01*
X1552689Y685384D01*
X1552791Y685434D01*
X1552894Y685481D01*
X1552999Y685525D01*
X1553106Y685565D01*
X1553214Y685601D01*
X1553323Y685634D01*
X1553433Y685662D01*
X1553543Y685687D01*
X1553655Y685709D01*
X1553768Y685726D01*
X1553880Y685740D01*
X1553994Y685749D01*
X1554107Y685755D01*
X1554221Y685757D01*
X1554335Y685755D01*
X1554448Y685749D01*
X1554562Y685740D01*
X1554674Y685726D01*
X1554787Y685709D01*
X1554899Y685687D01*
X1555009Y685662D01*
X1555119Y685634D01*
X1555228Y685601D01*
X1555336Y685565D01*
X1555443Y685525D01*
X1555548Y685481D01*
X1555651Y685434D01*
X1555753Y685384D01*
X1555853Y685330D01*
X1555951Y685272D01*
X1556047Y685211D01*
X1556141Y685148D01*
X1556233Y685080D01*
X1556323Y685010D01*
X1556409Y684937D01*
X1556494Y684861D01*
X1556576Y684782D01*
X1556655Y684700D01*
X1556731Y684615D01*
X1556804Y684529D01*
X1556874Y684439D01*
X1556942Y684347D01*
X1557005Y684253D01*
X1557066Y684157D01*
X1557124Y684059D01*
X1557178Y683959D01*
X1557228Y683857D01*
X1557275Y683754D01*
X1557319Y683649D01*
X1557359Y683542D01*
X1557395Y683434D01*
X1557428Y683325D01*
X1557456Y683215D01*
X1557481Y683105D01*
X1557503Y682993D01*
X1557520Y682880D01*
X1557534Y682768D01*
X1557543Y682654D01*
X1557549Y682541D01*
X1557551Y682427D01*
X1557551Y680762D01*
X1550890Y680762D01*
D11*
X1437640Y820420D02*
X-68580Y820420D01*
D12*
X1470129Y822918D02*
X1473459Y812927D01*
X1476790Y822918D01*
X1483574Y818755D02*
X1493565Y818755D01*
X1502119Y818755D02*
X1506282Y817090D01*
X1502119Y818754D02*
X1502034Y818790D01*
X1501951Y818830D01*
X1501870Y818873D01*
X1501790Y818920D01*
X1501713Y818970D01*
X1501637Y819023D01*
X1501564Y819079D01*
X1501494Y819139D01*
X1501426Y819201D01*
X1501361Y819266D01*
X1501299Y819334D01*
X1501239Y819405D01*
X1501183Y819478D01*
X1501130Y819553D01*
X1501080Y819631D01*
X1501034Y819710D01*
X1500991Y819792D01*
X1500951Y819875D01*
X1500915Y819960D01*
X1500883Y820046D01*
X1500854Y820134D01*
X1500830Y820223D01*
X1500809Y820313D01*
X1500792Y820403D01*
X1500778Y820494D01*
X1500769Y820586D01*
X1500764Y820678D01*
X1500762Y820770D01*
X1500764Y820862D01*
X1500771Y820954D01*
X1500781Y821046D01*
X1500795Y821137D01*
X1500813Y821228D01*
X1500835Y821317D01*
X1500861Y821406D01*
X1500891Y821493D01*
X1500924Y821579D01*
X1500961Y821663D01*
X1501001Y821746D01*
X1501045Y821827D01*
X1501092Y821906D01*
X1501143Y821983D01*
X1501197Y822058D01*
X1501254Y822131D01*
X1501314Y822201D01*
X1501377Y822268D01*
X1501443Y822332D01*
X1501511Y822394D01*
X1501582Y822453D01*
X1501656Y822508D01*
X1501732Y822561D01*
X1501810Y822610D01*
X1501890Y822656D01*
X1501971Y822698D01*
X1502055Y822737D01*
X1502140Y822772D01*
X1502227Y822803D01*
X1502315Y822831D01*
X1502404Y822855D01*
X1502494Y822875D01*
X1502584Y822892D01*
X1502676Y822904D01*
X1502768Y822913D01*
X1502860Y822917D01*
X1502952Y822918D01*
X1503179Y822912D01*
X1503406Y822901D01*
X1503633Y822884D01*
X1503859Y822861D01*
X1504085Y822834D01*
X1504310Y822800D01*
X1504534Y822762D01*
X1504757Y822718D01*
X1504979Y822669D01*
X1505200Y822614D01*
X1505419Y822554D01*
X1505637Y822489D01*
X1505853Y822418D01*
X1506067Y822343D01*
X1506280Y822262D01*
X1506490Y822176D01*
X1506699Y822085D01*
X1506282Y817090D02*
X1506367Y817054D01*
X1506450Y817014D01*
X1506531Y816971D01*
X1506611Y816924D01*
X1506688Y816874D01*
X1506764Y816821D01*
X1506837Y816765D01*
X1506907Y816705D01*
X1506975Y816643D01*
X1507040Y816578D01*
X1507102Y816510D01*
X1507162Y816439D01*
X1507218Y816366D01*
X1507271Y816291D01*
X1507321Y816213D01*
X1507367Y816134D01*
X1507410Y816052D01*
X1507450Y815969D01*
X1507486Y815884D01*
X1507518Y815798D01*
X1507547Y815710D01*
X1507571Y815621D01*
X1507592Y815531D01*
X1507609Y815441D01*
X1507623Y815350D01*
X1507632Y815258D01*
X1507637Y815166D01*
X1507639Y815074D01*
X1507637Y814982D01*
X1507630Y814890D01*
X1507620Y814798D01*
X1507606Y814707D01*
X1507588Y814616D01*
X1507566Y814527D01*
X1507540Y814438D01*
X1507510Y814351D01*
X1507477Y814265D01*
X1507440Y814181D01*
X1507400Y814098D01*
X1507356Y814017D01*
X1507309Y813938D01*
X1507258Y813861D01*
X1507204Y813786D01*
X1507147Y813713D01*
X1507087Y813643D01*
X1507024Y813576D01*
X1506958Y813512D01*
X1506890Y813450D01*
X1506819Y813391D01*
X1506745Y813336D01*
X1506669Y813283D01*
X1506591Y813234D01*
X1506511Y813188D01*
X1506430Y813146D01*
X1506346Y813107D01*
X1506261Y813072D01*
X1506174Y813041D01*
X1506086Y813013D01*
X1505997Y812989D01*
X1505907Y812969D01*
X1505817Y812952D01*
X1505725Y812940D01*
X1505633Y812931D01*
X1505541Y812927D01*
X1505449Y812926D01*
X1505449Y812927D02*
X1505115Y812936D01*
X1504782Y812953D01*
X1504449Y812977D01*
X1504116Y813010D01*
X1503785Y813050D01*
X1503454Y813098D01*
X1503125Y813154D01*
X1502797Y813217D01*
X1502471Y813289D01*
X1502147Y813368D01*
X1501824Y813454D01*
X1501504Y813549D01*
X1501186Y813651D01*
X1500870Y813760D01*
X1516942Y812927D02*
X1520272Y812927D01*
X1516942Y812927D02*
X1516844Y812929D01*
X1516746Y812935D01*
X1516648Y812944D01*
X1516551Y812958D01*
X1516455Y812975D01*
X1516359Y812996D01*
X1516264Y813021D01*
X1516170Y813049D01*
X1516077Y813081D01*
X1515986Y813117D01*
X1515896Y813156D01*
X1515808Y813199D01*
X1515721Y813246D01*
X1515637Y813295D01*
X1515554Y813348D01*
X1515474Y813404D01*
X1515396Y813463D01*
X1515320Y813526D01*
X1515246Y813591D01*
X1515176Y813659D01*
X1515108Y813729D01*
X1515043Y813803D01*
X1514980Y813879D01*
X1514921Y813957D01*
X1514865Y814037D01*
X1514812Y814120D01*
X1514763Y814204D01*
X1514716Y814291D01*
X1514673Y814379D01*
X1514634Y814469D01*
X1514598Y814560D01*
X1514566Y814653D01*
X1514538Y814747D01*
X1514513Y814842D01*
X1514492Y814938D01*
X1514475Y815034D01*
X1514461Y815131D01*
X1514452Y815229D01*
X1514446Y815327D01*
X1514444Y815425D01*
X1514444Y820420D01*
X1514446Y820518D01*
X1514452Y820616D01*
X1514461Y820714D01*
X1514475Y820811D01*
X1514492Y820907D01*
X1514513Y821003D01*
X1514538Y821098D01*
X1514566Y821192D01*
X1514598Y821285D01*
X1514634Y821376D01*
X1514673Y821466D01*
X1514716Y821554D01*
X1514763Y821641D01*
X1514812Y821725D01*
X1514865Y821808D01*
X1514921Y821888D01*
X1514980Y821967D01*
X1515043Y822042D01*
X1515108Y822116D01*
X1515176Y822186D01*
X1515246Y822254D01*
X1515320Y822320D01*
X1515396Y822382D01*
X1515474Y822441D01*
X1515554Y822497D01*
X1515637Y822550D01*
X1515721Y822600D01*
X1515808Y822646D01*
X1515896Y822689D01*
X1515986Y822728D01*
X1516077Y822764D01*
X1516170Y822796D01*
X1516264Y822824D01*
X1516359Y822849D01*
X1516455Y822870D01*
X1516551Y822887D01*
X1516648Y822901D01*
X1516746Y822910D01*
X1516844Y822916D01*
X1516942Y822918D01*
X1520272Y822918D01*
X1526402Y819587D02*
X1526402Y816257D01*
X1526402Y819587D02*
X1526404Y819701D01*
X1526410Y819814D01*
X1526419Y819928D01*
X1526433Y820040D01*
X1526450Y820153D01*
X1526472Y820265D01*
X1526497Y820375D01*
X1526525Y820485D01*
X1526558Y820594D01*
X1526594Y820702D01*
X1526634Y820809D01*
X1526678Y820914D01*
X1526725Y821017D01*
X1526775Y821119D01*
X1526829Y821219D01*
X1526887Y821317D01*
X1526948Y821413D01*
X1527011Y821507D01*
X1527079Y821599D01*
X1527149Y821689D01*
X1527222Y821775D01*
X1527298Y821860D01*
X1527377Y821942D01*
X1527459Y822021D01*
X1527544Y822097D01*
X1527630Y822170D01*
X1527720Y822240D01*
X1527812Y822308D01*
X1527906Y822371D01*
X1528002Y822432D01*
X1528100Y822490D01*
X1528200Y822544D01*
X1528302Y822594D01*
X1528405Y822641D01*
X1528510Y822685D01*
X1528617Y822725D01*
X1528725Y822761D01*
X1528834Y822794D01*
X1528944Y822822D01*
X1529054Y822847D01*
X1529166Y822869D01*
X1529279Y822886D01*
X1529391Y822900D01*
X1529505Y822909D01*
X1529618Y822915D01*
X1529732Y822917D01*
X1529846Y822915D01*
X1529959Y822909D01*
X1530073Y822900D01*
X1530185Y822886D01*
X1530298Y822869D01*
X1530410Y822847D01*
X1530520Y822822D01*
X1530630Y822794D01*
X1530739Y822761D01*
X1530847Y822725D01*
X1530954Y822685D01*
X1531059Y822641D01*
X1531162Y822594D01*
X1531264Y822544D01*
X1531364Y822490D01*
X1531462Y822432D01*
X1531558Y822371D01*
X1531652Y822308D01*
X1531744Y822240D01*
X1531834Y822170D01*
X1531920Y822097D01*
X1532005Y822021D01*
X1532087Y821942D01*
X1532166Y821860D01*
X1532242Y821775D01*
X1532315Y821689D01*
X1532385Y821599D01*
X1532453Y821507D01*
X1532516Y821413D01*
X1532577Y821317D01*
X1532635Y821219D01*
X1532689Y821119D01*
X1532739Y821017D01*
X1532786Y820914D01*
X1532830Y820809D01*
X1532870Y820702D01*
X1532906Y820594D01*
X1532939Y820485D01*
X1532967Y820375D01*
X1532992Y820265D01*
X1533014Y820153D01*
X1533031Y820040D01*
X1533045Y819928D01*
X1533054Y819814D01*
X1533060Y819701D01*
X1533062Y819587D01*
X1533062Y816257D01*
X1533060Y816143D01*
X1533054Y816030D01*
X1533045Y815916D01*
X1533031Y815804D01*
X1533014Y815691D01*
X1532992Y815579D01*
X1532967Y815469D01*
X1532939Y815359D01*
X1532906Y815250D01*
X1532870Y815142D01*
X1532830Y815035D01*
X1532786Y814930D01*
X1532739Y814827D01*
X1532689Y814725D01*
X1532635Y814625D01*
X1532577Y814527D01*
X1532516Y814431D01*
X1532453Y814337D01*
X1532385Y814245D01*
X1532315Y814155D01*
X1532242Y814069D01*
X1532166Y813984D01*
X1532087Y813902D01*
X1532005Y813823D01*
X1531920Y813747D01*
X1531834Y813674D01*
X1531744Y813604D01*
X1531652Y813536D01*
X1531558Y813473D01*
X1531462Y813412D01*
X1531364Y813354D01*
X1531264Y813300D01*
X1531162Y813250D01*
X1531059Y813203D01*
X1530954Y813159D01*
X1530847Y813119D01*
X1530739Y813083D01*
X1530630Y813050D01*
X1530520Y813022D01*
X1530410Y812997D01*
X1530298Y812975D01*
X1530185Y812958D01*
X1530073Y812944D01*
X1529959Y812935D01*
X1529846Y812929D01*
X1529732Y812927D01*
X1529618Y812929D01*
X1529505Y812935D01*
X1529391Y812944D01*
X1529279Y812958D01*
X1529166Y812975D01*
X1529054Y812997D01*
X1528944Y813022D01*
X1528834Y813050D01*
X1528725Y813083D01*
X1528617Y813119D01*
X1528510Y813159D01*
X1528405Y813203D01*
X1528302Y813250D01*
X1528200Y813300D01*
X1528100Y813354D01*
X1528002Y813412D01*
X1527906Y813473D01*
X1527812Y813536D01*
X1527720Y813604D01*
X1527630Y813674D01*
X1527544Y813747D01*
X1527459Y813823D01*
X1527377Y813902D01*
X1527298Y813984D01*
X1527222Y814069D01*
X1527149Y814155D01*
X1527079Y814245D01*
X1527011Y814337D01*
X1526948Y814431D01*
X1526887Y814527D01*
X1526829Y814625D01*
X1526775Y814725D01*
X1526725Y814827D01*
X1526678Y814930D01*
X1526634Y815035D01*
X1526594Y815142D01*
X1526558Y815250D01*
X1526525Y815359D01*
X1526497Y815469D01*
X1526472Y815579D01*
X1526450Y815691D01*
X1526433Y815804D01*
X1526419Y815916D01*
X1526410Y816030D01*
X1526404Y816143D01*
X1526402Y816257D01*
X1540598Y812927D02*
X1540598Y822918D01*
X1545593Y822918D01*
X1545593Y821253D01*
X1553388Y812927D02*
X1557551Y812927D01*
X1553388Y812927D02*
X1553290Y812929D01*
X1553192Y812935D01*
X1553094Y812944D01*
X1552997Y812958D01*
X1552901Y812975D01*
X1552805Y812996D01*
X1552710Y813021D01*
X1552616Y813049D01*
X1552523Y813081D01*
X1552432Y813117D01*
X1552342Y813156D01*
X1552254Y813199D01*
X1552167Y813246D01*
X1552083Y813295D01*
X1552000Y813348D01*
X1551920Y813404D01*
X1551842Y813463D01*
X1551766Y813526D01*
X1551692Y813591D01*
X1551622Y813659D01*
X1551554Y813729D01*
X1551489Y813803D01*
X1551426Y813879D01*
X1551367Y813957D01*
X1551311Y814037D01*
X1551258Y814120D01*
X1551209Y814204D01*
X1551162Y814291D01*
X1551119Y814379D01*
X1551080Y814469D01*
X1551044Y814560D01*
X1551012Y814653D01*
X1550984Y814747D01*
X1550959Y814842D01*
X1550938Y814938D01*
X1550921Y815034D01*
X1550907Y815131D01*
X1550898Y815229D01*
X1550892Y815327D01*
X1550890Y815425D01*
X1550890Y819587D01*
X1550891Y819587D02*
X1550893Y819701D01*
X1550899Y819814D01*
X1550908Y819928D01*
X1550922Y820040D01*
X1550939Y820153D01*
X1550961Y820265D01*
X1550986Y820375D01*
X1551014Y820485D01*
X1551047Y820594D01*
X1551083Y820702D01*
X1551123Y820809D01*
X1551167Y820914D01*
X1551214Y821017D01*
X1551264Y821119D01*
X1551318Y821219D01*
X1551376Y821317D01*
X1551437Y821413D01*
X1551500Y821507D01*
X1551568Y821599D01*
X1551638Y821689D01*
X1551711Y821775D01*
X1551787Y821860D01*
X1551866Y821942D01*
X1551948Y822021D01*
X1552033Y822097D01*
X1552119Y822170D01*
X1552209Y822240D01*
X1552301Y822308D01*
X1552395Y822371D01*
X1552491Y822432D01*
X1552589Y822490D01*
X1552689Y822544D01*
X1552791Y822594D01*
X1552894Y822641D01*
X1552999Y822685D01*
X1553106Y822725D01*
X1553214Y822761D01*
X1553323Y822794D01*
X1553433Y822822D01*
X1553543Y822847D01*
X1553655Y822869D01*
X1553768Y822886D01*
X1553880Y822900D01*
X1553994Y822909D01*
X1554107Y822915D01*
X1554221Y822917D01*
X1554335Y822915D01*
X1554448Y822909D01*
X1554562Y822900D01*
X1554674Y822886D01*
X1554787Y822869D01*
X1554899Y822847D01*
X1555009Y822822D01*
X1555119Y822794D01*
X1555228Y822761D01*
X1555336Y822725D01*
X1555443Y822685D01*
X1555548Y822641D01*
X1555651Y822594D01*
X1555753Y822544D01*
X1555853Y822490D01*
X1555951Y822432D01*
X1556047Y822371D01*
X1556141Y822308D01*
X1556233Y822240D01*
X1556323Y822170D01*
X1556409Y822097D01*
X1556494Y822021D01*
X1556576Y821942D01*
X1556655Y821860D01*
X1556731Y821775D01*
X1556804Y821689D01*
X1556874Y821599D01*
X1556942Y821507D01*
X1557005Y821413D01*
X1557066Y821317D01*
X1557124Y821219D01*
X1557178Y821119D01*
X1557228Y821017D01*
X1557275Y820914D01*
X1557319Y820809D01*
X1557359Y820702D01*
X1557395Y820594D01*
X1557428Y820485D01*
X1557456Y820375D01*
X1557481Y820265D01*
X1557503Y820153D01*
X1557520Y820040D01*
X1557534Y819928D01*
X1557543Y819814D01*
X1557549Y819701D01*
X1557551Y819587D01*
X1557551Y817922D01*
X1550890Y817922D01*
D13*
X1374140Y-5080D02*
X-68580Y-5080D01*
X1374140Y-5080D02*
X1374140Y-68580D01*
X-68580Y-68580D01*
X-68580Y-5080D01*
X1310640Y817880D02*
X1374140Y817880D01*
X1374140Y0D01*
X1310640Y0D01*
X1310640Y817880D01*
X1374140Y886460D02*
X-68580Y886460D01*
X1374140Y886460D02*
X1374140Y822960D01*
X-68580Y822960D01*
X-68580Y886460D01*
X-68580Y817880D02*
X-5080Y817880D01*
X-5080Y0D01*
X-68580Y0D01*
X-68580Y817880D01*
M02*
