M48
;GenerationSoftware,Autodesk,EAGLE,9.6.2*%
;CreationDate,2022-12-19T20:05:23Z*%
FMAT,2
ICI,OFF
METRIC,TZ,000.000
T2C0.381
T1C1.016
%
G90
M71
T1
X129159Y72390
X14478Y11430
X14478Y8890
X14478Y6350
X14478Y3810
X30861Y11430
X30861Y8890
X30861Y6350
X30861Y3810
X47244Y11430
X47244Y8890
X47244Y6350
X47244Y3810
X63627Y11430
X63627Y8890
X63627Y6350
X63627Y3810
X80010Y11430
X80010Y8890
X80010Y6350
X80010Y3810
X96393Y11430
X96393Y8890
X96393Y6350
X96393Y3810
X112776Y11430
X112776Y8890
X112776Y6350
X112776Y3810
X129159Y11430
X129159Y8890
X129159Y6350
X129159Y3810
X14478Y25146
X14478Y22606
X14478Y20066
X14478Y17526
X30861Y25146
X30861Y22606
X30861Y20066
X30861Y17526
X47244Y25146
X47244Y22606
X47244Y20066
X47244Y17526
X63627Y25146
X63627Y22606
X63627Y20066
X63627Y17526
X80010Y25146
X80010Y22606
X80010Y20066
X80010Y17526
X96393Y25146
X96393Y22606
X96393Y20066
X96393Y17526
X112776Y25146
X112776Y22606
X112776Y20066
X112776Y17526
X129159Y25146
X129159Y22606
X129159Y20066
X129159Y17526
X14478Y38862
X14478Y36322
X14478Y33782
X14478Y31242
X30861Y38862
X30861Y36322
X30861Y33782
X30861Y31242
X47244Y38862
X47244Y36322
X47244Y33782
X47244Y31242
X63627Y38862
X63627Y36322
X63627Y33782
X63627Y31242
X80010Y38862
X80010Y36322
X80010Y33782
X80010Y31242
X96393Y38862
X96393Y36322
X96393Y33782
X96393Y31242
X112776Y38862
X112776Y36322
X112776Y33782
X112776Y31242
X129159Y38862
X129159Y36322
X129159Y33782
X129159Y31242
X14478Y52578
X14478Y50038
X14478Y47498
X14478Y44958
X30861Y52578
X30861Y50038
X30861Y47498
X30861Y44958
X47244Y52578
X47244Y50038
X47244Y47498
X47244Y44958
X63627Y52578
X63627Y50038
X63627Y47498
X63627Y44958
X80010Y52578
X80010Y50038
X80010Y47498
X80010Y44958
X96393Y52578
X96393Y50038
X96393Y47498
X96393Y44958
X112776Y52578
X112776Y50038
X112776Y47498
X112776Y44958
X129159Y52578
X129159Y50038
X129159Y47498
X129159Y44958
X14478Y66294
X14478Y63754
X14478Y61214
X14478Y58674
X30861Y66294
X30861Y63754
X30861Y61214
X30861Y58674
X47244Y66294
X47244Y63754
X47244Y61214
X47244Y58674
X63627Y66294
X63627Y63754
X63627Y61214
X63627Y58674
X80010Y66294
X80010Y63754
X80010Y61214
X80010Y58674
X96393Y66294
X96393Y63754
X96393Y61214
X96393Y58674
X112776Y66294
X112776Y63754
X112776Y61214
X112776Y58674
X129159Y66294
X129159Y63754
X129159Y61214
X129159Y58674
X14478Y80010
X14478Y77470
X14478Y74930
X14478Y72390
X30861Y80010
X30861Y77470
X30861Y74930
X30861Y72390
X47244Y80010
X47244Y77470
X47244Y74930
X47244Y72390
X63627Y80010
X63627Y77470
X63627Y74930
X63627Y72390
X80010Y80010
X80010Y77470
X80010Y74930
X80010Y72390
X96393Y80010
X96393Y77470
X96393Y74930
X96393Y72390
X112776Y80010
X112776Y77470
X112776Y74930
X112776Y72390
X129159Y80010
X129159Y77470
X129159Y74930
T2
X70231Y8382
X71120Y8382
X70612Y7620
X71498Y7620
X71120Y6985
X71628Y6350
X72009Y7112
X72898Y7112
X73787Y7112
X72517Y6350
X73406Y6350
X74295Y6350
X74676Y7112
X75184Y6350
X76073Y6350
X75565Y7112
X75438Y7874
X76327Y7239
X77219Y7358
X78486Y7059
X67056Y3302
X67056Y2159
X71374Y1651
X72263Y1651
X71374Y2540
X71374Y3429
X71374Y4318
X71374Y5207
X72263Y5207
X73152Y5207
X72263Y4318
X73152Y4318
X72263Y3429
X72263Y2540
X73152Y2540
X73152Y3429
X74295Y1016
X75184Y1016
X76073Y1016
X78359Y1016
X79883Y1727
X80772Y1473
X78994Y1727
X85471Y12573
X84582Y12573
X84414Y10803
X82804Y9906
X86614Y8382
X87503Y8382
X86995Y7620
X87881Y7620
X87503Y6985
X88011Y6350
X88392Y7112
X89281Y7112
X90170Y7112
X88900Y6350
X89789Y6350
X90678Y6350
X91059Y7112
X91567Y6350
X92456Y6350
X91948Y7112
X91821Y7874
X92710Y7239
X93602Y7358
X94869Y7059
X83439Y3302
X83439Y2159
X87757Y1651
X88646Y1651
X87757Y2540
X87757Y3429
X87757Y4318
X87757Y5207
X88646Y5207
X89535Y5207
X88646Y4318
X89535Y4318
X88646Y3429
X88646Y2540
X89535Y2540
X89535Y3429
X90678Y1016
X91567Y1016
X92456Y1016
X94742Y1016
X96266Y1727
X97155Y1473
X95377Y1727
X101854Y12573
X100965Y12573
X100797Y10803
X99187Y9906
X102997Y8382
X103886Y8382
X103378Y7620
X104264Y7620
X103886Y6985
X104394Y6350
X104775Y7112
X105664Y7112
X106553Y7112
X105283Y6350
X106172Y6350
X107061Y6350
X107442Y7112
X107950Y6350
X108839Y6350
X108331Y7112
X108204Y7874
X109093Y7239
X109985Y7358
X111252Y7059
X99822Y3302
X99822Y2159
X104140Y1651
X105029Y1651
X104140Y2540
X104140Y3429
X104140Y4318
X104140Y5207
X105029Y5207
X105918Y5207
X105029Y4318
X105918Y4318
X105029Y3429
X105029Y2540
X105918Y2540
X105918Y3429
X107061Y1016
X107950Y1016
X108839Y1016
X111125Y1016
X112649Y1727
X113538Y1473
X111760Y1727
X118237Y12573
X117348Y12573
X117180Y10803
X115570Y9906
X119380Y8382
X120269Y8382
X119761Y7620
X120647Y7620
X120269Y6985
X120777Y6350
X121158Y7112
X122047Y7112
X122936Y7112
X121666Y6350
X122555Y6350
X123444Y6350
X123825Y7112
X124333Y6350
X125222Y6350
X124714Y7112
X124587Y7874
X125476Y7239
X126368Y7358
X127635Y7059
X116205Y3302
X116205Y2159
X120523Y1651
X121412Y1651
X120523Y2540
X120523Y3429
X120523Y4318
X120523Y5207
X121412Y5207
X122301Y5207
X121412Y4318
X122301Y4318
X121412Y3429
X121412Y2540
X122301Y2540
X122301Y3429
X123444Y1016
X124333Y1016
X125222Y1016
X127508Y1016
X129032Y1727
X129921Y1473
X128143Y1727
X3556Y26289
X2667Y26289
X2499Y24519
X889Y23622
X4699Y22098
X5588Y22098
X5080Y21336
X5966Y21336
X5588Y20701
X6096Y20066
X6477Y20828
X7366Y20828
X8255Y20828
X6985Y20066
X7874Y20066
X8763Y20066
X9144Y20828
X9652Y20066
X10541Y20066
X10033Y20828
X9906Y21590
X10795Y20955
X11687Y21074
X12954Y20775
X1524Y17018
X1524Y15875
X5842Y15367
X6731Y15367
X5842Y16256
X5842Y17145
X5842Y18034
X5842Y18923
X6731Y18923
X7620Y18923
X6731Y18034
X7620Y18034
X6731Y17145
X6731Y16256
X7620Y16256
X7620Y17145
X8763Y14732
X9652Y14732
X10541Y14732
X12827Y14732
X14351Y15443
X15240Y15189
X13462Y15443
X19939Y26289
X19050Y26289
X18882Y24519
X17272Y23622
X21082Y22098
X21971Y22098
X21463Y21336
X22349Y21336
X21971Y20701
X22479Y20066
X22860Y20828
X23749Y20828
X24638Y20828
X23368Y20066
X24257Y20066
X25146Y20066
X25527Y20828
X26035Y20066
X26924Y20066
X26416Y20828
X26289Y21590
X27178Y20955
X28070Y21074
X29337Y20775
X17907Y17018
X17907Y15875
X22225Y15367
X23114Y15367
X22225Y16256
X22225Y17145
X22225Y18034
X22225Y18923
X23114Y18923
X24003Y18923
X23114Y18034
X24003Y18034
X23114Y17145
X23114Y16256
X24003Y16256
X24003Y17145
X25146Y14732
X26035Y14732
X26924Y14732
X29210Y14732
X30734Y15443
X31623Y15189
X29845Y15443
X36322Y26289
X35433Y26289
X35265Y24519
X33655Y23622
X37465Y22098
X38354Y22098
X37846Y21336
X38732Y21336
X38354Y20701
X38862Y20066
X39243Y20828
X40132Y20828
X41021Y20828
X39751Y20066
X40640Y20066
X41529Y20066
X41910Y20828
X42418Y20066
X43307Y20066
X42799Y20828
X42672Y21590
X43561Y20955
X44453Y21074
X45720Y20775
X34290Y17018
X34290Y15875
X38608Y15367
X39497Y15367
X38608Y16256
X38608Y17145
X38608Y18034
X38608Y18923
X39497Y18923
X40386Y18923
X39497Y18034
X40386Y18034
X39497Y17145
X39497Y16256
X40386Y16256
X40386Y17145
X41529Y14732
X42418Y14732
X43307Y14732
X45593Y14732
X47117Y15443
X48006Y15189
X46228Y15443
X52705Y26289
X51816Y26289
X51648Y24519
X50038Y23622
X53848Y22098
X54737Y22098
X54229Y21336
X55115Y21336
X54737Y20701
X55245Y20066
X55626Y20828
X56515Y20828
X57404Y20828
X56134Y20066
X57023Y20066
X57912Y20066
X58293Y20828
X58801Y20066
X59690Y20066
X59182Y20828
X59055Y21590
X59944Y20955
X60836Y21074
X62103Y20775
X50673Y17018
X50673Y15875
X54991Y15367
X55880Y15367
X54991Y16256
X54991Y17145
X54991Y18034
X54991Y18923
X55880Y18923
X56769Y18923
X55880Y18034
X56769Y18034
X55880Y17145
X55880Y16256
X56769Y16256
X56769Y17145
X57912Y14732
X58801Y14732
X59690Y14732
X61976Y14732
X63500Y15443
X64389Y15189
X62611Y15443
X69088Y26289
X68199Y26289
X68031Y24519
X66421Y23622
X70231Y22098
X71120Y22098
X70612Y21336
X71498Y21336
X71120Y20701
X71628Y20066
X72009Y20828
X72898Y20828
X73787Y20828
X72517Y20066
X73406Y20066
X74295Y20066
X74676Y20828
X75184Y20066
X76073Y20066
X75565Y20828
X75438Y21590
X76327Y20955
X77219Y21074
X78486Y20775
X67056Y17018
X67056Y15875
X71374Y15367
X72263Y15367
X71374Y16256
X71374Y17145
X71374Y18034
X71374Y18923
X72263Y18923
X73152Y18923
X72263Y18034
X73152Y18034
X72263Y17145
X72263Y16256
X73152Y16256
X73152Y17145
X74295Y14732
X75184Y14732
X76073Y14732
X78359Y14732
X79883Y15443
X80772Y15189
X78994Y15443
X85471Y26289
X84582Y26289
X84414Y24519
X82804Y23622
X86614Y22098
X87503Y22098
X86995Y21336
X87881Y21336
X87503Y20701
X88011Y20066
X88392Y20828
X89281Y20828
X90170Y20828
X88900Y20066
X89789Y20066
X90678Y20066
X91059Y20828
X91567Y20066
X92456Y20066
X91948Y20828
X91821Y21590
X92710Y20955
X93602Y21074
X94869Y20775
X83439Y17018
X83439Y15875
X87757Y15367
X88646Y15367
X87757Y16256
X87757Y17145
X87757Y18034
X87757Y18923
X88646Y18923
X89535Y18923
X88646Y18034
X89535Y18034
X88646Y17145
X88646Y16256
X89535Y16256
X89535Y17145
X90678Y14732
X91567Y14732
X92456Y14732
X94742Y14732
X96266Y15443
X97155Y15189
X95377Y15443
X101854Y26289
X100965Y26289
X100797Y24519
X99187Y23622
X102997Y22098
X103886Y22098
X103378Y21336
X104264Y21336
X103886Y20701
X104394Y20066
X104775Y20828
X105664Y20828
X106553Y20828
X105283Y20066
X106172Y20066
X107061Y20066
X107442Y20828
X107950Y20066
X108839Y20066
X108331Y20828
X108204Y21590
X109093Y20955
X109985Y21074
X111252Y20775
X99822Y17018
X99822Y15875
X104140Y15367
X105029Y15367
X104140Y16256
X104140Y17145
X104140Y18034
X104140Y18923
X105029Y18923
X105918Y18923
X105029Y18034
X105918Y18034
X105029Y17145
X105029Y16256
X105918Y16256
X105918Y17145
X107061Y14732
X107950Y14732
X108839Y14732
X111125Y14732
X112649Y15443
X113538Y15189
X111760Y15443
X118237Y26289
X117348Y26289
X117180Y24519
X115570Y23622
X119380Y22098
X120269Y22098
X119761Y21336
X120647Y21336
X120269Y20701
X120777Y20066
X121158Y20828
X122047Y20828
X122936Y20828
X121666Y20066
X122555Y20066
X123444Y20066
X123825Y20828
X124333Y20066
X125222Y20066
X124714Y20828
X124587Y21590
X125476Y20955
X126368Y21074
X127635Y20775
X116205Y17018
X116205Y15875
X120523Y15367
X121412Y15367
X120523Y16256
X120523Y17145
X120523Y18034
X120523Y18923
X121412Y18923
X122301Y18923
X121412Y18034
X122301Y18034
X121412Y17145
X121412Y16256
X122301Y16256
X122301Y17145
X123444Y14732
X124333Y14732
X125222Y14732
X127508Y14732
X129032Y15443
X129921Y15189
X128143Y15443
X3556Y40005
X2667Y40005
X2499Y38235
X889Y37338
X4699Y35814
X5588Y35814
X5080Y35052
X5966Y35052
X5588Y34417
X6096Y33782
X6477Y34544
X7366Y34544
X8255Y34544
X6985Y33782
X7874Y33782
X8763Y33782
X9144Y34544
X9652Y33782
X10541Y33782
X10033Y34544
X9906Y35306
X10795Y34671
X11687Y34790
X12954Y34491
X1524Y30734
X1524Y29591
X5842Y29083
X6731Y29083
X5842Y29972
X5842Y30861
X5842Y31750
X5842Y32639
X6731Y32639
X7620Y32639
X6731Y31750
X7620Y31750
X6731Y30861
X6731Y29972
X7620Y29972
X7620Y30861
X8763Y28448
X9652Y28448
X10541Y28448
X12827Y28448
X14351Y29159
X15240Y28905
X13462Y29159
X19939Y40005
X19050Y40005
X18882Y38235
X17272Y37338
X21082Y35814
X21971Y35814
X21463Y35052
X22349Y35052
X21971Y34417
X22479Y33782
X22860Y34544
X23749Y34544
X24638Y34544
X23368Y33782
X24257Y33782
X25146Y33782
X25527Y34544
X26035Y33782
X26924Y33782
X26416Y34544
X26289Y35306
X27178Y34671
X28070Y34790
X29337Y34491
X17907Y30734
X17907Y29591
X22225Y29083
X23114Y29083
X22225Y29972
X22225Y30861
X22225Y31750
X22225Y32639
X23114Y32639
X24003Y32639
X23114Y31750
X24003Y31750
X23114Y30861
X23114Y29972
X24003Y29972
X24003Y30861
X25146Y28448
X26035Y28448
X26924Y28448
X29210Y28448
X30734Y29159
X31623Y28905
X29845Y29159
X36322Y40005
X35433Y40005
X35265Y38235
X33655Y37338
X37465Y35814
X38354Y35814
X37846Y35052
X38732Y35052
X38354Y34417
X38862Y33782
X39243Y34544
X40132Y34544
X41021Y34544
X39751Y33782
X40640Y33782
X41529Y33782
X41910Y34544
X42418Y33782
X43307Y33782
X42799Y34544
X42672Y35306
X43561Y34671
X44453Y34790
X45720Y34491
X34290Y30734
X34290Y29591
X38608Y29083
X39497Y29083
X38608Y29972
X38608Y30861
X38608Y31750
X38608Y32639
X39497Y32639
X40386Y32639
X39497Y31750
X40386Y31750
X39497Y30861
X39497Y29972
X40386Y29972
X40386Y30861
X41529Y28448
X42418Y28448
X43307Y28448
X45593Y28448
X47117Y29159
X48006Y28905
X46228Y29159
X52705Y40005
X51816Y40005
X51648Y38235
X50038Y37338
X53848Y35814
X54737Y35814
X54229Y35052
X55115Y35052
X54737Y34417
X55245Y33782
X55626Y34544
X56515Y34544
X57404Y34544
X56134Y33782
X57023Y33782
X57912Y33782
X58293Y34544
X58801Y33782
X59690Y33782
X59182Y34544
X59055Y35306
X59944Y34671
X60836Y34790
X62103Y34491
X50673Y30734
X50673Y29591
X54991Y29083
X55880Y29083
X54991Y29972
X54991Y30861
X54991Y31750
X54991Y32639
X55880Y32639
X56769Y32639
X55880Y31750
X56769Y31750
X55880Y30861
X55880Y29972
X56769Y29972
X56769Y30861
X57912Y28448
X58801Y28448
X59690Y28448
X61976Y28448
X63500Y29159
X64389Y28905
X62611Y29159
X69088Y40005
X68199Y40005
X68031Y38235
X66421Y37338
X70231Y35814
X71120Y35814
X70612Y35052
X71498Y35052
X71120Y34417
X71628Y33782
X72009Y34544
X72898Y34544
X73787Y34544
X72517Y33782
X73406Y33782
X74295Y33782
X74676Y34544
X75184Y33782
X76073Y33782
X75565Y34544
X75438Y35306
X76327Y34671
X77219Y34790
X78486Y34491
X67056Y30734
X67056Y29591
X71374Y29083
X72263Y29083
X71374Y29972
X71374Y30861
X71374Y31750
X71374Y32639
X72263Y32639
X73152Y32639
X72263Y31750
X73152Y31750
X72263Y30861
X72263Y29972
X73152Y29972
X73152Y30861
X74295Y28448
X75184Y28448
X76073Y28448
X78359Y28448
X79883Y29159
X80772Y28905
X78994Y29159
X85471Y40005
X84582Y40005
X84414Y38235
X82804Y37338
X86614Y35814
X87503Y35814
X86995Y35052
X87881Y35052
X87503Y34417
X88011Y33782
X88392Y34544
X89281Y34544
X90170Y34544
X88900Y33782
X89789Y33782
X90678Y33782
X91059Y34544
X91567Y33782
X92456Y33782
X91948Y34544
X91821Y35306
X92710Y34671
X93602Y34790
X94869Y34491
X83439Y30734
X83439Y29591
X87757Y29083
X88646Y29083
X87757Y29972
X87757Y30861
X87757Y31750
X87757Y32639
X88646Y32639
X89535Y32639
X88646Y31750
X89535Y31750
X88646Y30861
X88646Y29972
X89535Y29972
X89535Y30861
X90678Y28448
X91567Y28448
X92456Y28448
X94742Y28448
X96266Y29159
X97155Y28905
X95377Y29159
X101854Y40005
X100965Y40005
X100797Y38235
X99187Y37338
X102997Y35814
X103886Y35814
X103378Y35052
X104264Y35052
X103886Y34417
X104394Y33782
X104775Y34544
X105664Y34544
X106553Y34544
X105283Y33782
X106172Y33782
X107061Y33782
X107442Y34544
X107950Y33782
X108839Y33782
X108331Y34544
X108204Y35306
X109093Y34671
X109985Y34790
X111252Y34491
X99822Y30734
X99822Y29591
X104140Y29083
X105029Y29083
X104140Y29972
X104140Y30861
X104140Y31750
X104140Y32639
X105029Y32639
X105918Y32639
X105029Y31750
X105918Y31750
X105029Y30861
X105029Y29972
X105918Y29972
X105918Y30861
X107061Y28448
X107950Y28448
X108839Y28448
X111125Y28448
X112649Y29159
X113538Y28905
X111760Y29159
X118237Y40005
X117348Y40005
X117180Y38235
X115570Y37338
X119380Y35814
X120269Y35814
X119761Y35052
X120647Y35052
X120269Y34417
X120777Y33782
X121158Y34544
X122047Y34544
X122936Y34544
X121666Y33782
X122555Y33782
X123444Y33782
X123825Y34544
X124333Y33782
X125222Y33782
X124714Y34544
X124587Y35306
X125476Y34671
X126368Y34790
X127635Y34491
X116205Y30734
X116205Y29591
X120523Y29083
X121412Y29083
X120523Y29972
X120523Y30861
X120523Y31750
X120523Y32639
X121412Y32639
X122301Y32639
X121412Y31750
X122301Y31750
X121412Y30861
X121412Y29972
X122301Y29972
X122301Y30861
X123444Y28448
X124333Y28448
X125222Y28448
X127508Y28448
X129032Y29159
X129921Y28905
X128143Y29159
X3556Y53721
X2667Y53721
X2499Y51951
X889Y51054
X4699Y49530
X5588Y49530
X5080Y48768
X5966Y48768
X5588Y48133
X6096Y47498
X6477Y48260
X7366Y48260
X8255Y48260
X6985Y47498
X7874Y47498
X8763Y47498
X9144Y48260
X9652Y47498
X10541Y47498
X10033Y48260
X9906Y49022
X10795Y48387
X11687Y48506
X12954Y48207
X1524Y44450
X1524Y43307
X5842Y42799
X6731Y42799
X5842Y43688
X5842Y44577
X5842Y45466
X5842Y46355
X6731Y46355
X7620Y46355
X6731Y45466
X7620Y45466
X6731Y44577
X6731Y43688
X7620Y43688
X7620Y44577
X8763Y42164
X9652Y42164
X10541Y42164
X12827Y42164
X14351Y42875
X15240Y42621
X13462Y42875
X19939Y53721
X19050Y53721
X18882Y51951
X17272Y51054
X21082Y49530
X21971Y49530
X21463Y48768
X22349Y48768
X21971Y48133
X22479Y47498
X22860Y48260
X23749Y48260
X24638Y48260
X23368Y47498
X24257Y47498
X25146Y47498
X25527Y48260
X26035Y47498
X26924Y47498
X26416Y48260
X26289Y49022
X27178Y48387
X28070Y48506
X29337Y48207
X17907Y44450
X17907Y43307
X22225Y42799
X23114Y42799
X22225Y43688
X22225Y44577
X22225Y45466
X22225Y46355
X23114Y46355
X24003Y46355
X23114Y45466
X24003Y45466
X23114Y44577
X23114Y43688
X24003Y43688
X24003Y44577
X25146Y42164
X26035Y42164
X26924Y42164
X29210Y42164
X30734Y42875
X31623Y42621
X29845Y42875
X36322Y53721
X35433Y53721
X35265Y51951
X33655Y51054
X37465Y49530
X38354Y49530
X37846Y48768
X38732Y48768
X38354Y48133
X38862Y47498
X39243Y48260
X40132Y48260
X41021Y48260
X39751Y47498
X40640Y47498
X41529Y47498
X41910Y48260
X42418Y47498
X43307Y47498
X42799Y48260
X42672Y49022
X43561Y48387
X44453Y48506
X45720Y48207
X34290Y44450
X34290Y43307
X38608Y42799
X39497Y42799
X38608Y43688
X38608Y44577
X38608Y45466
X38608Y46355
X39497Y46355
X40386Y46355
X39497Y45466
X40386Y45466
X39497Y44577
X39497Y43688
X40386Y43688
X40386Y44577
X41529Y42164
X42418Y42164
X43307Y42164
X45593Y42164
X47117Y42875
X48006Y42621
X46228Y42875
X52705Y53721
X51816Y53721
X51648Y51951
X50038Y51054
X53848Y49530
X54737Y49530
X54229Y48768
X55115Y48768
X54737Y48133
X55245Y47498
X55626Y48260
X56515Y48260
X57404Y48260
X56134Y47498
X57023Y47498
X57912Y47498
X58293Y48260
X58801Y47498
X59690Y47498
X59182Y48260
X59055Y49022
X59944Y48387
X60836Y48506
X62103Y48207
X50673Y44450
X50673Y43307
X54991Y42799
X55880Y42799
X54991Y43688
X54991Y44577
X54991Y45466
X54991Y46355
X55880Y46355
X56769Y46355
X55880Y45466
X56769Y45466
X55880Y44577
X55880Y43688
X56769Y43688
X56769Y44577
X57912Y42164
X58801Y42164
X59690Y42164
X61976Y42164
X63500Y42875
X64389Y42621
X62611Y42875
X69088Y53721
X68199Y53721
X68031Y51951
X66421Y51054
X70231Y49530
X71120Y49530
X70612Y48768
X71498Y48768
X71120Y48133
X71628Y47498
X72009Y48260
X72898Y48260
X73787Y48260
X72517Y47498
X73406Y47498
X74295Y47498
X74676Y48260
X75184Y47498
X76073Y47498
X75565Y48260
X75438Y49022
X76327Y48387
X77219Y48506
X78486Y48207
X67056Y44450
X67056Y43307
X71374Y42799
X72263Y42799
X71374Y43688
X71374Y44577
X71374Y45466
X71374Y46355
X72263Y46355
X73152Y46355
X72263Y45466
X73152Y45466
X72263Y44577
X72263Y43688
X73152Y43688
X73152Y44577
X74295Y42164
X75184Y42164
X76073Y42164
X78359Y42164
X79883Y42875
X80772Y42621
X78994Y42875
X85471Y53721
X84582Y53721
X84414Y51951
X82804Y51054
X86614Y49530
X87503Y49530
X86995Y48768
X87881Y48768
X87503Y48133
X88011Y47498
X88392Y48260
X89281Y48260
X90170Y48260
X88900Y47498
X89789Y47498
X90678Y47498
X91059Y48260
X91567Y47498
X92456Y47498
X91948Y48260
X91821Y49022
X92710Y48387
X93602Y48506
X94869Y48207
X83439Y44450
X83439Y43307
X87757Y42799
X88646Y42799
X87757Y43688
X87757Y44577
X87757Y45466
X87757Y46355
X88646Y46355
X89535Y46355
X88646Y45466
X89535Y45466
X88646Y44577
X88646Y43688
X89535Y43688
X89535Y44577
X90678Y42164
X91567Y42164
X92456Y42164
X94742Y42164
X96266Y42875
X97155Y42621
X95377Y42875
X101854Y53721
X100965Y53721
X100797Y51951
X99187Y51054
X102997Y49530
X103886Y49530
X103378Y48768
X104264Y48768
X103886Y48133
X104394Y47498
X104775Y48260
X105664Y48260
X106553Y48260
X105283Y47498
X106172Y47498
X107061Y47498
X107442Y48260
X107950Y47498
X108839Y47498
X108331Y48260
X108204Y49022
X109093Y48387
X109985Y48506
X111252Y48207
X99822Y44450
X99822Y43307
X104140Y42799
X105029Y42799
X104140Y43688
X104140Y44577
X104140Y45466
X104140Y46355
X105029Y46355
X105918Y46355
X105029Y45466
X105918Y45466
X105029Y44577
X105029Y43688
X105918Y43688
X105918Y44577
X107061Y42164
X107950Y42164
X108839Y42164
X111125Y42164
X112649Y42875
X113538Y42621
X111760Y42875
X118237Y53721
X117348Y53721
X117180Y51951
X115570Y51054
X119380Y49530
X120269Y49530
X119761Y48768
X120647Y48768
X120269Y48133
X120777Y47498
X121158Y48260
X122047Y48260
X122936Y48260
X121666Y47498
X122555Y47498
X123444Y47498
X123825Y48260
X124333Y47498
X125222Y47498
X124714Y48260
X124587Y49022
X125476Y48387
X126368Y48506
X127635Y48207
X116205Y44450
X116205Y43307
X120523Y42799
X121412Y42799
X120523Y43688
X120523Y44577
X120523Y45466
X120523Y46355
X121412Y46355
X122301Y46355
X121412Y45466
X122301Y45466
X121412Y44577
X121412Y43688
X122301Y43688
X122301Y44577
X123444Y42164
X124333Y42164
X125222Y42164
X127508Y42164
X129032Y42875
X129921Y42621
X128143Y42875
X3556Y67437
X2667Y67437
X2499Y65667
X889Y64770
X4699Y63246
X5588Y63246
X5080Y62484
X5966Y62484
X5588Y61849
X6096Y61214
X6477Y61976
X7366Y61976
X8255Y61976
X6985Y61214
X7874Y61214
X8763Y61214
X9144Y61976
X9652Y61214
X10541Y61214
X10033Y61976
X9906Y62738
X10795Y62103
X11687Y62222
X12954Y61923
X1524Y58166
X1524Y57023
X5842Y56515
X6731Y56515
X5842Y57404
X5842Y58293
X5842Y59182
X5842Y60071
X6731Y60071
X7620Y60071
X6731Y59182
X7620Y59182
X6731Y58293
X6731Y57404
X7620Y57404
X7620Y58293
X8763Y55880
X9652Y55880
X10541Y55880
X12827Y55880
X14351Y56591
X15240Y56337
X13462Y56591
X19939Y67437
X19050Y67437
X18882Y65667
X17272Y64770
X21082Y63246
X21971Y63246
X21463Y62484
X22349Y62484
X21971Y61849
X22479Y61214
X22860Y61976
X23749Y61976
X24638Y61976
X23368Y61214
X24257Y61214
X25146Y61214
X25527Y61976
X26035Y61214
X26924Y61214
X26416Y61976
X26289Y62738
X27178Y62103
X28070Y62222
X29337Y61923
X17907Y58166
X17907Y57023
X22225Y56515
X23114Y56515
X22225Y57404
X22225Y58293
X22225Y59182
X22225Y60071
X23114Y60071
X24003Y60071
X23114Y59182
X24003Y59182
X23114Y58293
X23114Y57404
X24003Y57404
X24003Y58293
X25146Y55880
X26035Y55880
X26924Y55880
X29210Y55880
X30734Y56591
X31623Y56337
X29845Y56591
X36322Y67437
X35433Y67437
X35265Y65667
X33655Y64770
X37465Y63246
X38354Y63246
X37846Y62484
X38732Y62484
X38354Y61849
X38862Y61214
X39243Y61976
X40132Y61976
X41021Y61976
X39751Y61214
X40640Y61214
X41529Y61214
X41910Y61976
X42418Y61214
X43307Y61214
X42799Y61976
X42672Y62738
X43561Y62103
X44453Y62222
X45720Y61923
X34290Y58166
X34290Y57023
X38608Y56515
X39497Y56515
X38608Y57404
X38608Y58293
X38608Y59182
X38608Y60071
X39497Y60071
X40386Y60071
X39497Y59182
X40386Y59182
X39497Y58293
X39497Y57404
X40386Y57404
X40386Y58293
X41529Y55880
X42418Y55880
X43307Y55880
X45593Y55880
X47117Y56591
X48006Y56337
X46228Y56591
X52705Y67437
X51816Y67437
X51648Y65667
X50038Y64770
X53848Y63246
X54737Y63246
X54229Y62484
X55115Y62484
X54737Y61849
X55245Y61214
X55626Y61976
X56515Y61976
X57404Y61976
X56134Y61214
X57023Y61214
X57912Y61214
X58293Y61976
X58801Y61214
X59690Y61214
X59182Y61976
X59055Y62738
X59944Y62103
X60836Y62222
X62103Y61923
X50673Y58166
X50673Y57023
X54991Y56515
X55880Y56515
X54991Y57404
X54991Y58293
X54991Y59182
X54991Y60071
X55880Y60071
X56769Y60071
X55880Y59182
X56769Y59182
X55880Y58293
X55880Y57404
X56769Y57404
X56769Y58293
X57912Y55880
X58801Y55880
X59690Y55880
X61976Y55880
X63500Y56591
X64389Y56337
X62611Y56591
X69088Y67437
X68199Y67437
X68031Y65667
X66421Y64770
X70231Y63246
X71120Y63246
X70612Y62484
X71498Y62484
X71120Y61849
X71628Y61214
X72009Y61976
X72898Y61976
X73787Y61976
X72517Y61214
X73406Y61214
X74295Y61214
X74676Y61976
X75184Y61214
X76073Y61214
X75565Y61976
X75438Y62738
X76327Y62103
X77219Y62222
X78486Y61923
X67056Y58166
X67056Y57023
X71374Y56515
X72263Y56515
X71374Y57404
X71374Y58293
X71374Y59182
X71374Y60071
X72263Y60071
X73152Y60071
X72263Y59182
X73152Y59182
X72263Y58293
X72263Y57404
X73152Y57404
X73152Y58293
X74295Y55880
X75184Y55880
X76073Y55880
X78359Y55880
X79883Y56591
X80772Y56337
X78994Y56591
X85471Y67437
X84582Y67437
X84414Y65667
X82804Y64770
X86614Y63246
X87503Y63246
X86995Y62484
X87881Y62484
X87503Y61849
X88011Y61214
X88392Y61976
X89281Y61976
X90170Y61976
X88900Y61214
X89789Y61214
X90678Y61214
X91059Y61976
X91567Y61214
X92456Y61214
X91948Y61976
X91821Y62738
X92710Y62103
X93602Y62222
X94869Y61923
X83439Y58166
X83439Y57023
X87757Y56515
X88646Y56515
X87757Y57404
X87757Y58293
X87757Y59182
X87757Y60071
X88646Y60071
X89535Y60071
X88646Y59182
X89535Y59182
X88646Y58293
X88646Y57404
X89535Y57404
X89535Y58293
X90678Y55880
X91567Y55880
X92456Y55880
X94742Y55880
X96266Y56591
X97155Y56337
X95377Y56591
X101854Y67437
X100965Y67437
X100797Y65667
X99187Y64770
X102997Y63246
X103886Y63246
X103378Y62484
X104264Y62484
X103886Y61849
X104394Y61214
X104775Y61976
X105664Y61976
X106553Y61976
X105283Y61214
X106172Y61214
X107061Y61214
X107442Y61976
X107950Y61214
X108839Y61214
X108331Y61976
X108204Y62738
X109093Y62103
X109985Y62222
X111252Y61923
X99822Y58166
X99822Y57023
X104140Y56515
X105029Y56515
X104140Y57404
X104140Y58293
X104140Y59182
X104140Y60071
X105029Y60071
X105918Y60071
X105029Y59182
X105918Y59182
X105029Y58293
X105029Y57404
X105918Y57404
X105918Y58293
X107061Y55880
X107950Y55880
X108839Y55880
X111125Y55880
X112649Y56591
X113538Y56337
X111760Y56591
X118237Y67437
X117348Y67437
X3556Y12573
X115570Y64770
X119380Y63246
X120269Y63246
X119761Y62484
X120647Y62484
X120269Y61849
X120777Y61214
X121158Y61976
X122047Y61976
X122936Y61976
X121666Y61214
X122555Y61214
X123444Y61214
X123825Y61976
X124333Y61214
X125222Y61214
X124714Y61976
X124587Y62738
X125476Y62103
X126368Y62222
X127635Y61923
X116205Y58166
X116205Y57023
X120523Y56515
X121412Y56515
X120523Y57404
X120523Y58293
X120523Y59182
X120523Y60071
X121412Y60071
X122301Y60071
X121412Y59182
X122301Y59182
X121412Y58293
X121412Y57404
X122301Y57404
X122301Y58293
X123444Y55880
X124333Y55880
X125222Y55880
X127508Y55880
X129032Y56591
X129921Y56337
X128143Y56591
X3556Y81153
X2667Y81153
X2499Y79383
X889Y78486
X4699Y76962
X5588Y76962
X5080Y76200
X5966Y76200
X5588Y75565
X6096Y74930
X6477Y75692
X7366Y75692
X8255Y75692
X6985Y74930
X7874Y74930
X8763Y74930
X9144Y75692
X9652Y74930
X10541Y74930
X10033Y75692
X9906Y76454
X10795Y75819
X11687Y75938
X12954Y75639
X1524Y71882
X1524Y70739
X5842Y70231
X6731Y70231
X5842Y71120
X5842Y72009
X5842Y72898
X5842Y73787
X6731Y73787
X7620Y73787
X6731Y72898
X7620Y72898
X6731Y72009
X6731Y71120
X7620Y71120
X7620Y72009
X8763Y69596
X9652Y69596
X10541Y69596
X12827Y69596
X14351Y70307
X15240Y70053
X13462Y70307
X19939Y81153
X19050Y81153
X18882Y79383
X17272Y78486
X21082Y76962
X21971Y76962
X21463Y76200
X22349Y76200
X21971Y75565
X22479Y74930
X22860Y75692
X23749Y75692
X24638Y75692
X23368Y74930
X24257Y74930
X25146Y74930
X25527Y75692
X26035Y74930
X26924Y74930
X26416Y75692
X26289Y76454
X27178Y75819
X28070Y75938
X29337Y75639
X17907Y71882
X17907Y70739
X22225Y70231
X23114Y70231
X22225Y71120
X22225Y72009
X22225Y72898
X22225Y73787
X23114Y73787
X24003Y73787
X23114Y72898
X24003Y72898
X23114Y72009
X23114Y71120
X24003Y71120
X24003Y72009
X25146Y69596
X26035Y69596
X26924Y69596
X29210Y69596
X30734Y70307
X31623Y70053
X29845Y70307
X36322Y81153
X35433Y81153
X35265Y79383
X33655Y78486
X37465Y76962
X38354Y76962
X37846Y76200
X38732Y76200
X38354Y75565
X38862Y74930
X39243Y75692
X40132Y75692
X41021Y75692
X39751Y74930
X40640Y74930
X41529Y74930
X41910Y75692
X42418Y74930
X43307Y74930
X42799Y75692
X42672Y76454
X43561Y75819
X44453Y75938
X45720Y75639
X34290Y71882
X34290Y70739
X38608Y70231
X39497Y70231
X38608Y71120
X38608Y72009
X38608Y72898
X38608Y73787
X39497Y73787
X40386Y73787
X39497Y72898
X40386Y72898
X39497Y72009
X39497Y71120
X40386Y71120
X40386Y72009
X41529Y69596
X42418Y69596
X43307Y69596
X45593Y69596
X47117Y70307
X48006Y70053
X46228Y70307
X52705Y81153
X51816Y81153
X51648Y79383
X50038Y78486
X53848Y76962
X54737Y76962
X54229Y76200
X55115Y76200
X54737Y75565
X55245Y74930
X55626Y75692
X56515Y75692
X57404Y75692
X56134Y74930
X57023Y74930
X57912Y74930
X58293Y75692
X58801Y74930
X59690Y74930
X59182Y75692
X59055Y76454
X59944Y75819
X60836Y75938
X62103Y75639
X50673Y71882
X50673Y70739
X54991Y70231
X55880Y70231
X54991Y71120
X54991Y72009
X54991Y72898
X54991Y73787
X55880Y73787
X56769Y73787
X55880Y72898
X56769Y72898
X55880Y72009
X55880Y71120
X56769Y71120
X56769Y72009
X57912Y69596
X58801Y69596
X59690Y69596
X61976Y69596
X63500Y70307
X64389Y70053
X62611Y70307
X69088Y81153
X68199Y81153
X68031Y79383
X66421Y78486
X70231Y76962
X71120Y76962
X70612Y76200
X71498Y76200
X71120Y75565
X71628Y74930
X72009Y75692
X72898Y75692
X73787Y75692
X72517Y74930
X73406Y74930
X74295Y74930
X74676Y75692
X75184Y74930
X76073Y74930
X75565Y75692
X75438Y76454
X76327Y75819
X77219Y75938
X78486Y75639
X67056Y71882
X67056Y70739
X71374Y70231
X72263Y70231
X71374Y71120
X71374Y72009
X71374Y72898
X71374Y73787
X72263Y73787
X73152Y73787
X72263Y72898
X73152Y72898
X72263Y72009
X72263Y71120
X73152Y71120
X73152Y72009
X74295Y69596
X75184Y69596
X76073Y69596
X78359Y69596
X79883Y70307
X80772Y70053
X78994Y70307
X85471Y81153
X84582Y81153
X84414Y79383
X82804Y78486
X86614Y76962
X87503Y76962
X86995Y76200
X87881Y76200
X87503Y75565
X88011Y74930
X88392Y75692
X89281Y75692
X90170Y75692
X88900Y74930
X89789Y74930
X90678Y74930
X91059Y75692
X91567Y74930
X92456Y74930
X91948Y75692
X91821Y76454
X92710Y75819
X93602Y75938
X94869Y75639
X83439Y71882
X83439Y70739
X117180Y65667
X88646Y70231
X87757Y71120
X87757Y72009
X87757Y72898
X87757Y73787
X88646Y73787
X89535Y73787
X88646Y72898
X89535Y72898
X88646Y72009
X88646Y71120
X89535Y71120
X89535Y72009
X90678Y69596
X91567Y69596
X92456Y69596
X94742Y69596
X96266Y70307
X97155Y70053
X95377Y70307
X101854Y81153
X100965Y81153
X100797Y79383
X99187Y78486
X102997Y76962
X103886Y76962
X103378Y76200
X104264Y76200
X103886Y75565
X104394Y74930
X104775Y75692
X105664Y75692
X106553Y75692
X105283Y74930
X106172Y74930
X107061Y74930
X107442Y75692
X107950Y74930
X108839Y74930
X108331Y75692
X108204Y76454
X109093Y75819
X109985Y75938
X111252Y75639
X99822Y71882
X99822Y70739
X104140Y70231
X105029Y70231
X104140Y71120
X104140Y72009
X104140Y72898
X104140Y73787
X105029Y73787
X105918Y73787
X105029Y72898
X105918Y72898
X105029Y72009
X105029Y71120
X105918Y71120
X105918Y72009
X107061Y69596
X107950Y69596
X108839Y69596
X111125Y69596
X112649Y70307
X113538Y70053
X111760Y70307
X118237Y81153
X117348Y81153
X117180Y79383
X115570Y78486
X119380Y76962
X120269Y76962
X119761Y76200
X120647Y76200
X120269Y75565
X120777Y74930
X121158Y75692
X122047Y75692
X122936Y75692
X121666Y74930
X122555Y74930
X123444Y74930
X123825Y75692
X124333Y74930
X125222Y74930
X124714Y75692
X124587Y76454
X125476Y75819
X126368Y75938
X127635Y75639
X116205Y71882
X116205Y70739
X120523Y70231
X121412Y70231
X120523Y71120
X120523Y72009
X120523Y72898
X120523Y73787
X121412Y73787
X122301Y73787
X121412Y72898
X122301Y72898
X121412Y72009
X121412Y71120
X122301Y71120
X122301Y72009
X123444Y69596
X124333Y69596
X125222Y69596
X127508Y69596
X129032Y70307
X129921Y70053
X128143Y70307
X2667Y12573
X2499Y10803
X889Y9906
X4699Y8382
X5588Y8382
X5080Y7620
X5966Y7620
X5588Y6985
X6096Y6350
X6477Y7112
X7366Y7112
X8255Y7112
X6985Y6350
X7874Y6350
X8763Y6350
X9144Y7112
X9652Y6350
X10541Y6350
X10033Y7112
X9906Y7874
X10795Y7239
X11687Y7358
X12954Y7059
X1524Y3302
X1524Y2159
X5842Y1651
X6731Y1651
X5842Y2540
X5842Y3429
X5842Y4318
X5842Y5207
X6731Y5207
X7620Y5207
X6731Y4318
X7620Y4318
X6731Y3429
X6731Y2540
X7620Y2540
X7620Y3429
X8763Y1016
X9652Y1016
X10541Y1016
X12827Y1016
X14351Y1727
X15240Y1473
X13462Y1727
X19939Y12573
X19050Y12573
X18882Y10803
X17272Y9906
X21082Y8382
X21971Y8382
X21463Y7620
X22349Y7620
X21971Y6985
X22479Y6350
X22860Y7112
X23749Y7112
X24638Y7112
X23368Y6350
X24257Y6350
X25146Y6350
X25527Y7112
X26035Y6350
X26924Y6350
X26416Y7112
X26289Y7874
X27178Y7239
X28070Y7358
X29337Y7059
X17907Y3302
X17907Y2159
X22225Y1651
X23114Y1651
X22225Y2540
X22225Y3429
X22225Y4318
X22225Y5207
X23114Y5207
X24003Y5207
X23114Y4318
X24003Y4318
X23114Y3429
X23114Y2540
X24003Y2540
X24003Y3429
X25146Y1016
X26035Y1016
X26924Y1016
X29210Y1016
X30734Y1727
X31623Y1473
X29845Y1727
X36322Y12573
X35433Y12573
X35265Y10803
X33655Y9906
X37465Y8382
X38354Y8382
X37846Y7620
X38732Y7620
X38354Y6985
X38862Y6350
X39243Y7112
X40132Y7112
X41021Y7112
X39751Y6350
X40640Y6350
X41529Y6350
X41910Y7112
X42418Y6350
X43307Y6350
X42799Y7112
X42672Y7874
X43561Y7239
X44453Y7358
X45720Y7059
X34290Y3302
X34290Y2159
X38608Y1651
X39497Y1651
X38608Y2540
X38608Y3429
X38608Y4318
X38608Y5207
X39497Y5207
X40386Y5207
X39497Y4318
X40386Y4318
X39497Y3429
X39497Y2540
X40386Y2540
X40386Y3429
X41529Y1016
X42418Y1016
X43307Y1016
X45593Y1016
X47117Y1727
X48006Y1473
X46228Y1727
X52705Y12573
X51816Y12573
X51648Y10803
X50038Y9906
X53848Y8382
X54737Y8382
X54229Y7620
X55115Y7620
X54737Y6985
X55245Y6350
X55626Y7112
X56515Y7112
X57404Y7112
X56134Y6350
X57023Y6350
X57912Y6350
X58293Y7112
X58801Y6350
X59690Y6350
X59182Y7112
X59055Y7874
X59944Y7239
X60836Y7358
X62103Y7059
X50673Y3302
X50673Y2159
X54991Y1651
X55880Y1651
X54991Y2540
X54991Y3429
X54991Y4318
X54991Y5207
X55880Y5207
X56769Y5207
X55880Y4318
X56769Y4318
X55880Y3429
X55880Y2540
X56769Y2540
X56769Y3429
X57912Y1016
X58801Y1016
X59690Y1016
X61976Y1016
X63500Y1727
X64389Y1473
X62611Y1727
X69088Y12573
X68199Y12573
X68031Y10803
X66421Y9906
X87757Y70231
M30