G04 EAGLE Gerber RS-274X export*
G75*
%MOMM*%
%FSLAX34Y34*%
%LPD*%
%INSolderpaste Top*%
%IPPOS*%
%AMOC8*
5,1,8,0,0,1.08239X$1,22.5*%
G01*
%ADD10C,0.102000*%
%ADD11C,0.104000*%
%ADD12C,0.100000*%
%ADD13C,0.092500*%
%ADD14C,0.300000*%


D10*
X93823Y143460D02*
X98803Y143460D01*
X98803Y138480D01*
X93823Y138480D01*
X93823Y143460D01*
X93823Y139449D02*
X98803Y139449D01*
X98803Y140418D02*
X93823Y140418D01*
X93823Y141387D02*
X98803Y141387D01*
X98803Y142356D02*
X93823Y142356D01*
X93823Y143325D02*
X98803Y143325D01*
X88803Y143460D02*
X83823Y143460D01*
X88803Y143460D02*
X88803Y138480D01*
X83823Y138480D01*
X83823Y143460D01*
X83823Y139449D02*
X88803Y139449D01*
X88803Y140418D02*
X83823Y140418D01*
X83823Y141387D02*
X88803Y141387D01*
X88803Y142356D02*
X83823Y142356D01*
X83823Y143325D02*
X88803Y143325D01*
D11*
X122960Y143060D02*
X136920Y143060D01*
X136920Y136100D01*
X122960Y136100D01*
X122960Y143060D01*
X122960Y137088D02*
X136920Y137088D01*
X136920Y138076D02*
X122960Y138076D01*
X122960Y139064D02*
X136920Y139064D01*
X136920Y140052D02*
X122960Y140052D01*
X122960Y141040D02*
X136920Y141040D01*
X136920Y142028D02*
X122960Y142028D01*
X122960Y143016D02*
X136920Y143016D01*
X136920Y128060D02*
X122960Y128060D01*
X136920Y128060D02*
X136920Y121100D01*
X122960Y121100D01*
X122960Y128060D01*
X122960Y122088D02*
X136920Y122088D01*
X136920Y123076D02*
X122960Y123076D01*
X122960Y124064D02*
X136920Y124064D01*
X136920Y125052D02*
X122960Y125052D01*
X122960Y126040D02*
X136920Y126040D01*
X136920Y127028D02*
X122960Y127028D01*
X122960Y128016D02*
X136920Y128016D01*
D12*
X139240Y133580D02*
X122940Y133580D01*
X139240Y133580D02*
X139240Y130580D01*
X122940Y130580D01*
X122940Y133580D01*
X122940Y131530D02*
X139240Y131530D01*
X139240Y132480D02*
X122940Y132480D01*
X122940Y133430D02*
X139240Y133430D01*
D10*
X120430Y143070D02*
X118450Y143070D01*
X120430Y143070D02*
X120430Y138090D01*
X118450Y138090D01*
X118450Y143070D01*
X118450Y139059D02*
X120430Y139059D01*
X120430Y140028D02*
X118450Y140028D01*
X118450Y140997D02*
X120430Y140997D01*
X120430Y141966D02*
X118450Y141966D01*
X118450Y142935D02*
X120430Y142935D01*
X115930Y143070D02*
X113950Y143070D01*
X115930Y143070D02*
X115930Y138090D01*
X113950Y138090D01*
X113950Y143070D01*
X113950Y139059D02*
X115930Y139059D01*
X115930Y140028D02*
X113950Y140028D01*
X113950Y140997D02*
X115930Y140997D01*
X115930Y141966D02*
X113950Y141966D01*
X113950Y142935D02*
X115930Y142935D01*
X111430Y143070D02*
X109450Y143070D01*
X111430Y143070D02*
X111430Y138090D01*
X109450Y138090D01*
X109450Y143070D01*
X109450Y139059D02*
X111430Y139059D01*
X111430Y140028D02*
X109450Y140028D01*
X109450Y140997D02*
X111430Y140997D01*
X111430Y141966D02*
X109450Y141966D01*
X109450Y142935D02*
X111430Y142935D01*
X111430Y121090D02*
X109450Y121090D01*
X109450Y126070D01*
X111430Y126070D01*
X111430Y121090D01*
X111430Y122059D02*
X109450Y122059D01*
X109450Y123028D02*
X111430Y123028D01*
X111430Y123997D02*
X109450Y123997D01*
X109450Y124966D02*
X111430Y124966D01*
X111430Y125935D02*
X109450Y125935D01*
X113950Y121090D02*
X115930Y121090D01*
X113950Y121090D02*
X113950Y126070D01*
X115930Y126070D01*
X115930Y121090D01*
X115930Y122059D02*
X113950Y122059D01*
X113950Y123028D02*
X115930Y123028D01*
X115930Y123997D02*
X113950Y123997D01*
X113950Y124966D02*
X115930Y124966D01*
X115930Y125935D02*
X113950Y125935D01*
X118450Y121090D02*
X120430Y121090D01*
X118450Y121090D02*
X118450Y126070D01*
X120430Y126070D01*
X120430Y121090D01*
X120430Y122059D02*
X118450Y122059D01*
X118450Y123028D02*
X120430Y123028D01*
X120430Y123997D02*
X118450Y123997D01*
X118450Y124966D02*
X120430Y124966D01*
X120430Y125935D02*
X118450Y125935D01*
X95300Y127732D02*
X95300Y132712D01*
X100280Y132712D01*
X100280Y127732D01*
X95300Y127732D01*
X95300Y128701D02*
X100280Y128701D01*
X100280Y129670D02*
X95300Y129670D01*
X95300Y130639D02*
X100280Y130639D01*
X100280Y131608D02*
X95300Y131608D01*
X95300Y132577D02*
X100280Y132577D01*
X95300Y122712D02*
X95300Y117732D01*
X95300Y122712D02*
X100280Y122712D01*
X100280Y117732D01*
X95300Y117732D01*
X95300Y118701D02*
X100280Y118701D01*
X100280Y119670D02*
X95300Y119670D01*
X95300Y120639D02*
X100280Y120639D01*
X100280Y121608D02*
X95300Y121608D01*
X95300Y122577D02*
X100280Y122577D01*
X86310Y122712D02*
X86310Y117732D01*
X81330Y117732D01*
X81330Y122712D01*
X86310Y122712D01*
X86310Y118701D02*
X81330Y118701D01*
X81330Y119670D02*
X86310Y119670D01*
X86310Y120639D02*
X81330Y120639D01*
X81330Y121608D02*
X86310Y121608D01*
X86310Y122577D02*
X81330Y122577D01*
X86310Y127732D02*
X86310Y132712D01*
X86310Y127732D02*
X81330Y127732D01*
X81330Y132712D01*
X86310Y132712D01*
X86310Y128701D02*
X81330Y128701D01*
X81330Y129670D02*
X86310Y129670D01*
X86310Y130639D02*
X81330Y130639D01*
X81330Y131608D02*
X86310Y131608D01*
X86310Y132577D02*
X81330Y132577D01*
D13*
X102342Y101308D02*
X102342Y83732D01*
X102342Y101308D02*
X136418Y101308D01*
X136418Y83732D01*
X102342Y83732D01*
X102342Y84611D02*
X136418Y84611D01*
X136418Y85490D02*
X102342Y85490D01*
X102342Y86369D02*
X136418Y86369D01*
X136418Y87248D02*
X102342Y87248D01*
X102342Y88127D02*
X136418Y88127D01*
X136418Y89006D02*
X102342Y89006D01*
X102342Y89885D02*
X136418Y89885D01*
X136418Y90764D02*
X102342Y90764D01*
X102342Y91643D02*
X136418Y91643D01*
X136418Y92522D02*
X102342Y92522D01*
X102342Y93401D02*
X136418Y93401D01*
X136418Y94280D02*
X102342Y94280D01*
X102342Y95159D02*
X136418Y95159D01*
X136418Y96038D02*
X102342Y96038D01*
X102342Y96917D02*
X136418Y96917D01*
X136418Y97796D02*
X102342Y97796D01*
X102342Y98675D02*
X136418Y98675D01*
X136418Y99554D02*
X102342Y99554D01*
X102342Y100433D02*
X136418Y100433D01*
X102342Y45808D02*
X102342Y28232D01*
X102342Y45808D02*
X136418Y45808D01*
X136418Y28232D01*
X102342Y28232D01*
X102342Y29111D02*
X136418Y29111D01*
X136418Y29990D02*
X102342Y29990D01*
X102342Y30869D02*
X136418Y30869D01*
X136418Y31748D02*
X102342Y31748D01*
X102342Y32627D02*
X136418Y32627D01*
X136418Y33506D02*
X102342Y33506D01*
X102342Y34385D02*
X136418Y34385D01*
X136418Y35264D02*
X102342Y35264D01*
X102342Y36143D02*
X136418Y36143D01*
X136418Y37022D02*
X102342Y37022D01*
X102342Y37901D02*
X136418Y37901D01*
X136418Y38780D02*
X102342Y38780D01*
X102342Y39659D02*
X136418Y39659D01*
X136418Y40538D02*
X102342Y40538D01*
X102342Y41417D02*
X136418Y41417D01*
X136418Y42296D02*
X102342Y42296D01*
X102342Y43175D02*
X136418Y43175D01*
X136418Y44054D02*
X102342Y44054D01*
X102342Y44933D02*
X136418Y44933D01*
D10*
X111790Y109270D02*
X106810Y109270D01*
X106810Y114250D01*
X111790Y114250D01*
X111790Y109270D01*
X111790Y110239D02*
X106810Y110239D01*
X106810Y111208D02*
X111790Y111208D01*
X111790Y112177D02*
X106810Y112177D01*
X106810Y113146D02*
X111790Y113146D01*
X111790Y114115D02*
X106810Y114115D01*
X116810Y109270D02*
X121790Y109270D01*
X116810Y109270D02*
X116810Y114250D01*
X121790Y114250D01*
X121790Y109270D01*
X121790Y110239D02*
X116810Y110239D01*
X116810Y111208D02*
X121790Y111208D01*
X121790Y112177D02*
X116810Y112177D01*
X116810Y113146D02*
X121790Y113146D01*
X121790Y114115D02*
X116810Y114115D01*
X118140Y152450D02*
X113160Y152450D01*
X113160Y157430D01*
X118140Y157430D01*
X118140Y152450D01*
X118140Y153419D02*
X113160Y153419D01*
X113160Y154388D02*
X118140Y154388D01*
X118140Y155357D02*
X113160Y155357D01*
X113160Y156326D02*
X118140Y156326D01*
X118140Y157295D02*
X113160Y157295D01*
X123160Y152450D02*
X128140Y152450D01*
X123160Y152450D02*
X123160Y157430D01*
X128140Y157430D01*
X128140Y152450D01*
X128140Y153419D02*
X123160Y153419D01*
X123160Y154388D02*
X128140Y154388D01*
X128140Y155357D02*
X123160Y155357D01*
X123160Y156326D02*
X128140Y156326D01*
X128140Y157295D02*
X123160Y157295D01*
X96550Y152450D02*
X91570Y152450D01*
X91570Y157430D01*
X96550Y157430D01*
X96550Y152450D01*
X96550Y153419D02*
X91570Y153419D01*
X91570Y154388D02*
X96550Y154388D01*
X96550Y155357D02*
X91570Y155357D01*
X91570Y156326D02*
X96550Y156326D01*
X96550Y157295D02*
X91570Y157295D01*
X101570Y152450D02*
X106550Y152450D01*
X101570Y152450D02*
X101570Y157430D01*
X106550Y157430D01*
X106550Y152450D01*
X106550Y153419D02*
X101570Y153419D01*
X101570Y154388D02*
X106550Y154388D01*
X106550Y155357D02*
X101570Y155357D01*
X101570Y156326D02*
X106550Y156326D01*
X106550Y157295D02*
X101570Y157295D01*
D11*
X189630Y85920D02*
X189630Y78960D01*
X178670Y78960D01*
X178670Y85920D01*
X189630Y85920D01*
X189630Y79948D02*
X178670Y79948D01*
X178670Y80936D02*
X189630Y80936D01*
X189630Y81924D02*
X178670Y81924D01*
X178670Y82912D02*
X189630Y82912D01*
X189630Y83900D02*
X178670Y83900D01*
X178670Y84888D02*
X189630Y84888D01*
X189630Y85876D02*
X178670Y85876D01*
X189630Y96960D02*
X189630Y103920D01*
X189630Y96960D02*
X178670Y96960D01*
X178670Y103920D01*
X189630Y103920D01*
X189630Y97948D02*
X178670Y97948D01*
X178670Y98936D02*
X189630Y98936D01*
X189630Y99924D02*
X178670Y99924D01*
X178670Y100912D02*
X189630Y100912D01*
X189630Y101900D02*
X178670Y101900D01*
X178670Y102888D02*
X189630Y102888D01*
X189630Y103876D02*
X178670Y103876D01*
X170580Y85920D02*
X170580Y78960D01*
X159620Y78960D01*
X159620Y85920D01*
X170580Y85920D01*
X170580Y79948D02*
X159620Y79948D01*
X159620Y80936D02*
X170580Y80936D01*
X170580Y81924D02*
X159620Y81924D01*
X159620Y82912D02*
X170580Y82912D01*
X170580Y83900D02*
X159620Y83900D01*
X159620Y84888D02*
X170580Y84888D01*
X170580Y85876D02*
X159620Y85876D01*
X170580Y96960D02*
X170580Y103920D01*
X170580Y96960D02*
X159620Y96960D01*
X159620Y103920D01*
X170580Y103920D01*
X170580Y97948D02*
X159620Y97948D01*
X159620Y98936D02*
X170580Y98936D01*
X170580Y99924D02*
X159620Y99924D01*
X159620Y100912D02*
X170580Y100912D01*
X170580Y101900D02*
X159620Y101900D01*
X159620Y102888D02*
X170580Y102888D01*
X170580Y103876D02*
X159620Y103876D01*
X145650Y137600D02*
X145650Y144560D01*
X156610Y144560D01*
X156610Y137600D01*
X145650Y137600D01*
X145650Y138588D02*
X156610Y138588D01*
X156610Y139576D02*
X145650Y139576D01*
X145650Y140564D02*
X156610Y140564D01*
X156610Y141552D02*
X145650Y141552D01*
X145650Y142540D02*
X156610Y142540D01*
X156610Y143528D02*
X145650Y143528D01*
X145650Y144516D02*
X156610Y144516D01*
X145650Y126560D02*
X145650Y119600D01*
X145650Y126560D02*
X156610Y126560D01*
X156610Y119600D01*
X145650Y119600D01*
X145650Y120588D02*
X156610Y120588D01*
X156610Y121576D02*
X145650Y121576D01*
X145650Y122564D02*
X156610Y122564D01*
X156610Y123552D02*
X145650Y123552D01*
X145650Y124540D02*
X156610Y124540D01*
X156610Y125528D02*
X145650Y125528D01*
X145650Y126516D02*
X156610Y126516D01*
D14*
X186880Y23820D02*
X186880Y16820D01*
X186880Y23820D02*
X193880Y23820D01*
X193880Y16820D01*
X186880Y16820D01*
X186880Y19670D02*
X193880Y19670D01*
X193880Y22520D02*
X186880Y22520D01*
X169340Y23820D02*
X169340Y16820D01*
X169340Y23820D02*
X176340Y23820D01*
X176340Y16820D01*
X169340Y16820D01*
X169340Y19670D02*
X176340Y19670D01*
X176340Y22520D02*
X169340Y22520D01*
D10*
X158800Y22730D02*
X158800Y17750D01*
X158800Y22730D02*
X163780Y22730D01*
X163780Y17750D01*
X158800Y17750D01*
X158800Y18719D02*
X163780Y18719D01*
X163780Y19688D02*
X158800Y19688D01*
X158800Y20657D02*
X163780Y20657D01*
X163780Y21626D02*
X158800Y21626D01*
X158800Y22595D02*
X163780Y22595D01*
X158800Y12730D02*
X158800Y7750D01*
X158800Y12730D02*
X163780Y12730D01*
X163780Y7750D01*
X158800Y7750D01*
X158800Y8719D02*
X163780Y8719D01*
X163780Y9688D02*
X158800Y9688D01*
X158800Y10657D02*
X163780Y10657D01*
X163780Y11626D02*
X158800Y11626D01*
X158800Y12595D02*
X163780Y12595D01*
D11*
X164700Y137600D02*
X164700Y144560D01*
X175660Y144560D01*
X175660Y137600D01*
X164700Y137600D01*
X164700Y138588D02*
X175660Y138588D01*
X175660Y139576D02*
X164700Y139576D01*
X164700Y140564D02*
X175660Y140564D01*
X175660Y141552D02*
X164700Y141552D01*
X164700Y142540D02*
X175660Y142540D01*
X175660Y143528D02*
X164700Y143528D01*
X164700Y144516D02*
X175660Y144516D01*
X164700Y126560D02*
X164700Y119600D01*
X164700Y126560D02*
X175660Y126560D01*
X175660Y119600D01*
X164700Y119600D01*
X164700Y120588D02*
X175660Y120588D01*
X175660Y121576D02*
X164700Y121576D01*
X164700Y122564D02*
X175660Y122564D01*
X175660Y123552D02*
X164700Y123552D01*
X164700Y124540D02*
X175660Y124540D01*
X175660Y125528D02*
X164700Y125528D01*
X164700Y126516D02*
X175660Y126516D01*
M02*
