G04 EAGLE Gerber RS-274X export*
G75*
%MOMM*%
%FSLAX34Y34*%
%LPD*%
%INInner Layer 2*%
%IPPOS*%
%AMOC8*
5,1,8,0,0,1.08239X$1,22.5*%
G01*
%ADD10C,0.127000*%
%ADD11C,1.800000*%
%ADD12C,1.500000*%
%ADD13C,1.524000*%
%ADD14C,0.635000*%
%ADD15C,0.604000*%

G36*
X194590Y6097D02*
X194590Y6097D01*
X194591Y6097D01*
X194731Y6117D01*
X194870Y6137D01*
X194871Y6137D01*
X194873Y6137D01*
X194998Y6194D01*
X195129Y6253D01*
X195130Y6254D01*
X195132Y6255D01*
X195239Y6346D01*
X195346Y6436D01*
X195347Y6438D01*
X195348Y6439D01*
X195356Y6452D01*
X195504Y6673D01*
X195513Y6702D01*
X195526Y6723D01*
X195910Y7651D01*
X195922Y7695D01*
X195938Y7728D01*
X196172Y8454D01*
X196187Y8539D01*
X196211Y8623D01*
X196211Y8678D01*
X196221Y8734D01*
X196211Y8820D01*
X196211Y8907D01*
X196197Y8953D01*
X196190Y9016D01*
X196134Y9152D01*
X196110Y9227D01*
X195688Y10054D01*
X195507Y12321D01*
X195857Y13403D01*
X196392Y15055D01*
X197772Y16589D01*
X198714Y17637D01*
X201887Y19051D01*
X205665Y19051D01*
X205960Y18881D01*
X206049Y18845D01*
X206134Y18801D01*
X206180Y18792D01*
X206224Y18774D01*
X206319Y18764D01*
X206413Y18746D01*
X206460Y18750D01*
X206507Y18745D01*
X206601Y18762D01*
X206696Y18770D01*
X206740Y18787D01*
X206786Y18796D01*
X206872Y18838D01*
X206961Y18872D01*
X206999Y18901D01*
X207041Y18922D01*
X207112Y18986D01*
X207188Y19044D01*
X207216Y19082D01*
X207251Y19114D01*
X207301Y19195D01*
X207358Y19272D01*
X207375Y19316D01*
X207399Y19356D01*
X207425Y19449D01*
X207458Y19538D01*
X207462Y19585D01*
X207475Y19630D01*
X207474Y19726D01*
X207481Y19821D01*
X207472Y19862D01*
X207471Y19915D01*
X207423Y20075D01*
X207406Y20148D01*
X207009Y21105D01*
X207009Y29695D01*
X210296Y37630D01*
X216370Y43704D01*
X224305Y46991D01*
X232895Y46991D01*
X240830Y43704D01*
X246170Y38364D01*
X246194Y38346D01*
X246213Y38324D01*
X246307Y38261D01*
X246397Y38193D01*
X246425Y38182D01*
X246449Y38166D01*
X246557Y38132D01*
X246663Y38092D01*
X246692Y38089D01*
X246720Y38080D01*
X246834Y38077D01*
X246946Y38068D01*
X246975Y38074D01*
X247004Y38073D01*
X247114Y38102D01*
X247225Y38124D01*
X247251Y38137D01*
X247279Y38145D01*
X247377Y38203D01*
X247477Y38255D01*
X247499Y38275D01*
X247524Y38290D01*
X247601Y38373D01*
X247683Y38451D01*
X247698Y38476D01*
X247718Y38497D01*
X247770Y38598D01*
X247827Y38696D01*
X247834Y38724D01*
X247848Y38751D01*
X247861Y38828D01*
X247897Y38972D01*
X247895Y39034D01*
X247903Y39082D01*
X247903Y63669D01*
X247887Y63782D01*
X247877Y63897D01*
X247867Y63923D01*
X247863Y63950D01*
X247816Y64055D01*
X247775Y64162D01*
X247759Y64184D01*
X247747Y64209D01*
X247673Y64297D01*
X247604Y64389D01*
X247581Y64405D01*
X247564Y64426D01*
X247468Y64490D01*
X247376Y64559D01*
X247350Y64569D01*
X247327Y64584D01*
X247217Y64619D01*
X247110Y64659D01*
X247082Y64661D01*
X247056Y64670D01*
X246941Y64673D01*
X246827Y64682D01*
X246802Y64676D01*
X246772Y64677D01*
X246515Y64610D01*
X246499Y64607D01*
X243826Y63499D01*
X238774Y63499D01*
X234106Y65433D01*
X230533Y69006D01*
X228599Y73674D01*
X228599Y78726D01*
X230533Y83394D01*
X234106Y86967D01*
X238774Y88901D01*
X243826Y88901D01*
X246499Y87793D01*
X246611Y87765D01*
X246720Y87730D01*
X246748Y87729D01*
X246775Y87723D01*
X246889Y87726D01*
X247004Y87723D01*
X247031Y87730D01*
X247059Y87731D01*
X247168Y87766D01*
X247279Y87795D01*
X247303Y87809D01*
X247330Y87817D01*
X247425Y87881D01*
X247524Y87940D01*
X247543Y87960D01*
X247566Y87976D01*
X247640Y88063D01*
X247718Y88147D01*
X247731Y88172D01*
X247749Y88193D01*
X247795Y88298D01*
X247848Y88400D01*
X247852Y88425D01*
X247864Y88453D01*
X247901Y88717D01*
X247903Y88731D01*
X247903Y91904D01*
X247902Y91917D01*
X247903Y91929D01*
X247882Y92057D01*
X247863Y92186D01*
X247858Y92197D01*
X247856Y92209D01*
X247800Y92327D01*
X247747Y92445D01*
X247739Y92455D01*
X247734Y92466D01*
X247648Y92563D01*
X247564Y92662D01*
X247553Y92669D01*
X247545Y92678D01*
X247435Y92748D01*
X247327Y92820D01*
X247315Y92823D01*
X247305Y92830D01*
X247180Y92866D01*
X247056Y92905D01*
X247043Y92906D01*
X247032Y92909D01*
X246902Y92909D01*
X246772Y92913D01*
X246760Y92910D01*
X246747Y92910D01*
X246687Y92891D01*
X246497Y92841D01*
X246460Y92819D01*
X246427Y92809D01*
X245200Y92184D01*
X243679Y91689D01*
X243331Y91634D01*
X243331Y100584D01*
X243325Y100631D01*
X243324Y100632D01*
X243323Y100642D01*
X243325Y100700D01*
X243303Y100782D01*
X243291Y100865D01*
X243267Y100919D01*
X243253Y100975D01*
X243210Y101048D01*
X243175Y101125D01*
X243137Y101169D01*
X243107Y101220D01*
X243046Y101277D01*
X242991Y101342D01*
X242943Y101374D01*
X242900Y101414D01*
X242825Y101453D01*
X242755Y101499D01*
X242699Y101517D01*
X242647Y101544D01*
X242579Y101555D01*
X242484Y101585D01*
X242384Y101588D01*
X242316Y101599D01*
X241299Y101599D01*
X241299Y101601D01*
X242316Y101601D01*
X242374Y101609D01*
X242432Y101608D01*
X242514Y101629D01*
X242597Y101641D01*
X242651Y101665D01*
X242707Y101679D01*
X242780Y101722D01*
X242857Y101757D01*
X242902Y101795D01*
X242952Y101825D01*
X243010Y101886D01*
X243074Y101941D01*
X243106Y101989D01*
X243146Y102032D01*
X243185Y102107D01*
X243231Y102177D01*
X243249Y102233D01*
X243276Y102285D01*
X243287Y102353D01*
X243317Y102448D01*
X243320Y102548D01*
X243331Y102616D01*
X243331Y111566D01*
X243679Y111511D01*
X245200Y111016D01*
X246427Y110391D01*
X246439Y110387D01*
X246449Y110380D01*
X246574Y110341D01*
X246696Y110299D01*
X246708Y110298D01*
X246720Y110295D01*
X246850Y110291D01*
X246980Y110285D01*
X246992Y110288D01*
X247004Y110287D01*
X247130Y110320D01*
X247257Y110350D01*
X247267Y110356D01*
X247279Y110359D01*
X247391Y110425D01*
X247504Y110489D01*
X247513Y110498D01*
X247524Y110504D01*
X247613Y110599D01*
X247704Y110692D01*
X247710Y110703D01*
X247718Y110712D01*
X247777Y110827D01*
X247839Y110942D01*
X247842Y110954D01*
X247848Y110965D01*
X247858Y111027D01*
X247900Y111219D01*
X247898Y111262D01*
X247903Y111296D01*
X247903Y117304D01*
X247902Y117317D01*
X247903Y117329D01*
X247882Y117457D01*
X247863Y117586D01*
X247858Y117597D01*
X247856Y117609D01*
X247800Y117727D01*
X247747Y117845D01*
X247739Y117855D01*
X247734Y117866D01*
X247648Y117963D01*
X247564Y118062D01*
X247553Y118069D01*
X247545Y118078D01*
X247435Y118148D01*
X247327Y118220D01*
X247315Y118223D01*
X247305Y118230D01*
X247180Y118266D01*
X247056Y118305D01*
X247043Y118306D01*
X247032Y118309D01*
X246902Y118309D01*
X246772Y118313D01*
X246760Y118310D01*
X246747Y118310D01*
X246687Y118291D01*
X246497Y118241D01*
X246460Y118219D01*
X246427Y118209D01*
X245200Y117584D01*
X243679Y117089D01*
X243331Y117034D01*
X243331Y125984D01*
X243323Y126042D01*
X243325Y126100D01*
X243303Y126182D01*
X243291Y126265D01*
X243267Y126319D01*
X243253Y126375D01*
X243210Y126448D01*
X243175Y126525D01*
X243137Y126569D01*
X243107Y126620D01*
X243046Y126677D01*
X242991Y126742D01*
X242943Y126774D01*
X242900Y126814D01*
X242825Y126853D01*
X242755Y126899D01*
X242699Y126917D01*
X242647Y126944D01*
X242579Y126955D01*
X242484Y126985D01*
X242384Y126988D01*
X242316Y126999D01*
X241299Y126999D01*
X241299Y127001D01*
X242316Y127001D01*
X242374Y127009D01*
X242432Y127008D01*
X242514Y127029D01*
X242597Y127041D01*
X242651Y127065D01*
X242707Y127079D01*
X242780Y127122D01*
X242857Y127157D01*
X242902Y127195D01*
X242952Y127225D01*
X243010Y127286D01*
X243074Y127341D01*
X243106Y127389D01*
X243146Y127432D01*
X243185Y127507D01*
X243231Y127577D01*
X243249Y127633D01*
X243276Y127685D01*
X243287Y127753D01*
X243317Y127848D01*
X243320Y127948D01*
X243331Y128016D01*
X243331Y136966D01*
X243679Y136911D01*
X245200Y136416D01*
X246427Y135791D01*
X246439Y135787D01*
X246449Y135780D01*
X246574Y135741D01*
X246696Y135699D01*
X246708Y135698D01*
X246720Y135695D01*
X246850Y135691D01*
X246980Y135685D01*
X246992Y135688D01*
X247004Y135687D01*
X247130Y135720D01*
X247257Y135750D01*
X247267Y135756D01*
X247279Y135759D01*
X247391Y135825D01*
X247504Y135889D01*
X247513Y135898D01*
X247524Y135904D01*
X247613Y135999D01*
X247704Y136092D01*
X247710Y136103D01*
X247718Y136112D01*
X247777Y136227D01*
X247839Y136342D01*
X247842Y136354D01*
X247848Y136365D01*
X247858Y136427D01*
X247900Y136619D01*
X247898Y136662D01*
X247903Y136696D01*
X247903Y139869D01*
X247887Y139982D01*
X247877Y140097D01*
X247867Y140123D01*
X247863Y140150D01*
X247816Y140255D01*
X247775Y140362D01*
X247759Y140384D01*
X247747Y140409D01*
X247673Y140497D01*
X247604Y140589D01*
X247581Y140605D01*
X247564Y140626D01*
X247468Y140690D01*
X247376Y140759D01*
X247350Y140769D01*
X247327Y140784D01*
X247217Y140819D01*
X247110Y140859D01*
X247082Y140861D01*
X247056Y140870D01*
X246941Y140873D01*
X246827Y140882D01*
X246802Y140876D01*
X246772Y140877D01*
X246515Y140810D01*
X246499Y140807D01*
X243826Y139699D01*
X238774Y139699D01*
X234106Y141633D01*
X230533Y145206D01*
X228599Y149874D01*
X228599Y154926D01*
X230533Y159594D01*
X234106Y163167D01*
X236507Y164162D01*
X236533Y164177D01*
X236561Y164186D01*
X236655Y164249D01*
X236752Y164307D01*
X236772Y164328D01*
X236797Y164344D01*
X236870Y164431D01*
X236947Y164513D01*
X236961Y164539D01*
X236980Y164562D01*
X237026Y164665D01*
X237078Y164766D01*
X237083Y164795D01*
X237095Y164822D01*
X237111Y164934D01*
X237133Y165045D01*
X237130Y165074D01*
X237134Y165103D01*
X237118Y165215D01*
X237108Y165328D01*
X237098Y165355D01*
X237094Y165385D01*
X237047Y165488D01*
X237006Y165593D01*
X236988Y165617D01*
X236976Y165644D01*
X236903Y165730D01*
X236835Y165820D01*
X236811Y165838D01*
X236792Y165860D01*
X236726Y165902D01*
X236607Y165990D01*
X236548Y166012D01*
X236507Y166038D01*
X234106Y167033D01*
X230533Y170606D01*
X228599Y175274D01*
X228599Y180326D01*
X230533Y184994D01*
X234106Y188567D01*
X238774Y190501D01*
X243826Y190501D01*
X246499Y189393D01*
X246611Y189365D01*
X246720Y189330D01*
X246748Y189329D01*
X246775Y189323D01*
X246889Y189326D01*
X247004Y189323D01*
X247031Y189330D01*
X247059Y189331D01*
X247168Y189366D01*
X247279Y189395D01*
X247303Y189409D01*
X247330Y189417D01*
X247425Y189481D01*
X247524Y189540D01*
X247543Y189560D01*
X247566Y189576D01*
X247640Y189663D01*
X247718Y189747D01*
X247731Y189772D01*
X247749Y189793D01*
X247795Y189898D01*
X247848Y190000D01*
X247852Y190025D01*
X247864Y190053D01*
X247901Y190317D01*
X247903Y190331D01*
X247903Y214918D01*
X247899Y214947D01*
X247902Y214977D01*
X247879Y215088D01*
X247863Y215200D01*
X247851Y215227D01*
X247846Y215255D01*
X247794Y215356D01*
X247747Y215459D01*
X247728Y215482D01*
X247715Y215508D01*
X247637Y215590D01*
X247564Y215676D01*
X247539Y215693D01*
X247519Y215714D01*
X247421Y215771D01*
X247327Y215834D01*
X247299Y215843D01*
X247274Y215858D01*
X247164Y215885D01*
X247056Y215920D01*
X247026Y215920D01*
X246998Y215928D01*
X246885Y215924D01*
X246772Y215927D01*
X246743Y215920D01*
X246714Y215919D01*
X246606Y215884D01*
X246497Y215855D01*
X246471Y215840D01*
X246443Y215831D01*
X246380Y215786D01*
X246252Y215710D01*
X246209Y215664D01*
X246170Y215636D01*
X240830Y210296D01*
X232895Y207009D01*
X224305Y207009D01*
X216370Y210296D01*
X210296Y216370D01*
X207009Y224305D01*
X207009Y232895D01*
X210296Y240830D01*
X215636Y246170D01*
X215654Y246194D01*
X215676Y246213D01*
X215739Y246307D01*
X215807Y246397D01*
X215818Y246425D01*
X215834Y246449D01*
X215868Y246557D01*
X215908Y246663D01*
X215911Y246692D01*
X215920Y246720D01*
X215923Y246834D01*
X215932Y246946D01*
X215926Y246975D01*
X215927Y247004D01*
X215898Y247114D01*
X215876Y247225D01*
X215863Y247251D01*
X215855Y247279D01*
X215797Y247377D01*
X215745Y247477D01*
X215725Y247499D01*
X215710Y247524D01*
X215627Y247601D01*
X215549Y247683D01*
X215524Y247698D01*
X215503Y247718D01*
X215402Y247770D01*
X215304Y247827D01*
X215276Y247834D01*
X215249Y247848D01*
X215172Y247861D01*
X215028Y247897D01*
X214966Y247895D01*
X214918Y247903D01*
X144667Y247903D01*
X144638Y247899D01*
X144609Y247902D01*
X144498Y247879D01*
X144386Y247863D01*
X144359Y247851D01*
X144330Y247846D01*
X144230Y247793D01*
X144127Y247747D01*
X144104Y247728D01*
X144078Y247715D01*
X143996Y247637D01*
X143910Y247564D01*
X143893Y247539D01*
X143872Y247519D01*
X143815Y247421D01*
X143752Y247327D01*
X143743Y247299D01*
X143728Y247274D01*
X143700Y247164D01*
X143666Y247056D01*
X143665Y247026D01*
X143658Y246998D01*
X143662Y246885D01*
X143659Y246772D01*
X143666Y246743D01*
X143667Y246714D01*
X143702Y246606D01*
X143731Y246497D01*
X143746Y246471D01*
X143755Y246443D01*
X143800Y246379D01*
X143876Y246252D01*
X143922Y246209D01*
X143950Y246170D01*
X144819Y245301D01*
X145748Y244023D01*
X146465Y242614D01*
X146953Y241111D01*
X147004Y240791D01*
X138176Y240791D01*
X138118Y240783D01*
X138060Y240785D01*
X137978Y240763D01*
X137895Y240751D01*
X137841Y240727D01*
X137785Y240713D01*
X137712Y240670D01*
X137635Y240635D01*
X137591Y240597D01*
X137540Y240567D01*
X137483Y240506D01*
X137418Y240451D01*
X137386Y240403D01*
X137346Y240360D01*
X137307Y240285D01*
X137261Y240215D01*
X137243Y240159D01*
X137216Y240107D01*
X137205Y240039D01*
X137175Y239944D01*
X137172Y239844D01*
X137161Y239776D01*
X137161Y238759D01*
X137159Y238759D01*
X137159Y239776D01*
X137151Y239834D01*
X137152Y239892D01*
X137131Y239974D01*
X137119Y240057D01*
X137095Y240111D01*
X137081Y240167D01*
X137038Y240240D01*
X137003Y240317D01*
X136965Y240362D01*
X136935Y240412D01*
X136874Y240470D01*
X136819Y240534D01*
X136771Y240566D01*
X136728Y240606D01*
X136653Y240645D01*
X136583Y240691D01*
X136527Y240709D01*
X136475Y240736D01*
X136407Y240747D01*
X136312Y240777D01*
X136212Y240780D01*
X136144Y240791D01*
X127316Y240791D01*
X127367Y241111D01*
X127855Y242614D01*
X128572Y244023D01*
X129501Y245301D01*
X130370Y246170D01*
X130388Y246194D01*
X130410Y246213D01*
X130473Y246307D01*
X130541Y246397D01*
X130552Y246425D01*
X130568Y246449D01*
X130602Y246557D01*
X130643Y246663D01*
X130645Y246692D01*
X130654Y246720D01*
X130657Y246834D01*
X130666Y246946D01*
X130660Y246975D01*
X130661Y247004D01*
X130632Y247114D01*
X130610Y247225D01*
X130597Y247251D01*
X130589Y247279D01*
X130532Y247377D01*
X130479Y247477D01*
X130459Y247499D01*
X130444Y247524D01*
X130361Y247601D01*
X130283Y247683D01*
X130258Y247698D01*
X130237Y247718D01*
X130136Y247770D01*
X130038Y247827D01*
X130010Y247834D01*
X129984Y247848D01*
X129906Y247861D01*
X129763Y247897D01*
X129700Y247895D01*
X129653Y247903D01*
X39082Y247903D01*
X39053Y247899D01*
X39023Y247902D01*
X38912Y247879D01*
X38800Y247863D01*
X38773Y247851D01*
X38745Y247846D01*
X38644Y247794D01*
X38541Y247747D01*
X38518Y247728D01*
X38492Y247715D01*
X38410Y247637D01*
X38324Y247564D01*
X38307Y247539D01*
X38286Y247519D01*
X38229Y247421D01*
X38166Y247327D01*
X38157Y247299D01*
X38142Y247274D01*
X38115Y247164D01*
X38080Y247056D01*
X38080Y247026D01*
X38072Y246998D01*
X38076Y246885D01*
X38073Y246772D01*
X38080Y246743D01*
X38081Y246714D01*
X38116Y246606D01*
X38145Y246497D01*
X38160Y246471D01*
X38169Y246443D01*
X38214Y246380D01*
X38290Y246252D01*
X38336Y246209D01*
X38364Y246170D01*
X43704Y240830D01*
X46991Y232895D01*
X46991Y224305D01*
X43704Y216370D01*
X37630Y210296D01*
X29695Y207009D01*
X21105Y207009D01*
X13170Y210296D01*
X7830Y215636D01*
X7806Y215654D01*
X7787Y215676D01*
X7693Y215739D01*
X7603Y215807D01*
X7575Y215818D01*
X7551Y215834D01*
X7443Y215868D01*
X7337Y215908D01*
X7308Y215911D01*
X7280Y215920D01*
X7166Y215923D01*
X7054Y215932D01*
X7025Y215926D01*
X6996Y215927D01*
X6886Y215898D01*
X6775Y215876D01*
X6749Y215863D01*
X6721Y215855D01*
X6623Y215797D01*
X6523Y215745D01*
X6501Y215725D01*
X6476Y215710D01*
X6399Y215627D01*
X6317Y215549D01*
X6302Y215524D01*
X6282Y215503D01*
X6230Y215402D01*
X6173Y215304D01*
X6166Y215276D01*
X6152Y215249D01*
X6139Y215172D01*
X6103Y215028D01*
X6105Y214966D01*
X6097Y214918D01*
X6097Y39082D01*
X6101Y39053D01*
X6098Y39023D01*
X6121Y38912D01*
X6137Y38800D01*
X6149Y38773D01*
X6154Y38745D01*
X6206Y38644D01*
X6253Y38541D01*
X6272Y38518D01*
X6285Y38492D01*
X6363Y38410D01*
X6436Y38324D01*
X6461Y38307D01*
X6481Y38286D01*
X6579Y38229D01*
X6673Y38166D01*
X6701Y38157D01*
X6726Y38142D01*
X6836Y38115D01*
X6944Y38080D01*
X6974Y38080D01*
X7002Y38072D01*
X7115Y38076D01*
X7228Y38073D01*
X7257Y38080D01*
X7286Y38081D01*
X7394Y38116D01*
X7503Y38145D01*
X7529Y38160D01*
X7557Y38169D01*
X7620Y38214D01*
X7748Y38290D01*
X7791Y38336D01*
X7830Y38364D01*
X13170Y43704D01*
X21105Y46991D01*
X29695Y46991D01*
X37630Y43704D01*
X43704Y37630D01*
X46991Y29695D01*
X46991Y21105D01*
X45153Y16670D01*
X45139Y16613D01*
X45115Y16560D01*
X45103Y16476D01*
X45082Y16394D01*
X45084Y16336D01*
X45076Y16278D01*
X45088Y16194D01*
X45091Y16110D01*
X45108Y16054D01*
X45117Y15997D01*
X45152Y15920D01*
X45177Y15839D01*
X45210Y15791D01*
X45234Y15738D01*
X45289Y15673D01*
X45336Y15603D01*
X45380Y15566D01*
X45418Y15521D01*
X45477Y15485D01*
X45553Y15420D01*
X45644Y15380D01*
X45703Y15343D01*
X47769Y14487D01*
X50047Y12209D01*
X51281Y9231D01*
X51281Y7112D01*
X51289Y7054D01*
X51287Y6996D01*
X51309Y6914D01*
X51321Y6830D01*
X51344Y6777D01*
X51359Y6721D01*
X51402Y6648D01*
X51437Y6571D01*
X51475Y6526D01*
X51504Y6476D01*
X51566Y6418D01*
X51620Y6354D01*
X51669Y6322D01*
X51712Y6282D01*
X51787Y6243D01*
X51857Y6196D01*
X51913Y6179D01*
X51965Y6152D01*
X52033Y6141D01*
X52128Y6111D01*
X52228Y6108D01*
X52296Y6097D01*
X194588Y6097D01*
X194590Y6097D01*
G37*
%LPC*%
G36*
X34029Y163719D02*
X34029Y163719D01*
X28854Y165863D01*
X24893Y169824D01*
X22749Y174999D01*
X22749Y180601D01*
X24893Y185776D01*
X28854Y189737D01*
X34029Y191881D01*
X39631Y191881D01*
X44806Y189737D01*
X48767Y185776D01*
X50911Y180601D01*
X50911Y174999D01*
X48767Y169824D01*
X44806Y165863D01*
X39631Y163719D01*
X34029Y163719D01*
G37*
%LPD*%
%LPC*%
G36*
X34029Y58719D02*
X34029Y58719D01*
X28854Y60863D01*
X24893Y64824D01*
X22749Y69999D01*
X22749Y75601D01*
X24893Y80776D01*
X28854Y84737D01*
X34029Y86881D01*
X39631Y86881D01*
X44806Y84737D01*
X48767Y80776D01*
X50911Y75601D01*
X50911Y69999D01*
X48767Y64824D01*
X44806Y60863D01*
X39631Y58719D01*
X34029Y58719D01*
G37*
%LPD*%
%LPC*%
G36*
X87668Y195699D02*
X87668Y195699D01*
X83044Y197615D01*
X79505Y201154D01*
X77589Y205778D01*
X77589Y210782D01*
X79505Y215406D01*
X83044Y218945D01*
X87668Y220861D01*
X92672Y220861D01*
X97296Y218945D01*
X100835Y215406D01*
X102751Y210782D01*
X102751Y205778D01*
X100835Y201154D01*
X97296Y197615D01*
X92672Y195699D01*
X87668Y195699D01*
G37*
%LPD*%
%LPC*%
G36*
X134658Y166489D02*
X134658Y166489D01*
X130034Y168405D01*
X126495Y171944D01*
X124579Y176568D01*
X124579Y181572D01*
X126495Y186196D01*
X130034Y189735D01*
X134658Y191651D01*
X139662Y191651D01*
X144286Y189735D01*
X147825Y186196D01*
X149741Y181572D01*
X149741Y176568D01*
X147825Y171944D01*
X144286Y168405D01*
X139662Y166489D01*
X134658Y166489D01*
G37*
%LPD*%
%LPC*%
G36*
X38861Y144831D02*
X38861Y144831D01*
X38861Y154163D01*
X39532Y154057D01*
X41260Y153495D01*
X42879Y152670D01*
X44348Y151603D01*
X45633Y150318D01*
X46700Y148849D01*
X47525Y147230D01*
X48087Y145502D01*
X48193Y144831D01*
X38861Y144831D01*
G37*
%LPD*%
%LPC*%
G36*
X38861Y109831D02*
X38861Y109831D01*
X38861Y119163D01*
X39532Y119057D01*
X41260Y118495D01*
X42879Y117670D01*
X44348Y116603D01*
X45633Y115318D01*
X46700Y113849D01*
X47525Y112230D01*
X48087Y110502D01*
X48193Y109831D01*
X38861Y109831D01*
G37*
%LPD*%
%LPC*%
G36*
X25467Y144831D02*
X25467Y144831D01*
X25573Y145502D01*
X26135Y147230D01*
X26960Y148849D01*
X28027Y150318D01*
X29312Y151603D01*
X30781Y152670D01*
X32400Y153495D01*
X34128Y154057D01*
X34799Y154163D01*
X34799Y144831D01*
X25467Y144831D01*
G37*
%LPD*%
%LPC*%
G36*
X38861Y140769D02*
X38861Y140769D01*
X48193Y140769D01*
X48087Y140098D01*
X47525Y138370D01*
X46700Y136751D01*
X45633Y135282D01*
X44348Y133997D01*
X42879Y132930D01*
X41260Y132105D01*
X39532Y131543D01*
X38861Y131437D01*
X38861Y140769D01*
G37*
%LPD*%
%LPC*%
G36*
X25467Y109831D02*
X25467Y109831D01*
X25573Y110502D01*
X26135Y112230D01*
X26960Y113849D01*
X28027Y115318D01*
X29312Y116603D01*
X30781Y117670D01*
X32400Y118495D01*
X34128Y119057D01*
X34799Y119163D01*
X34799Y109831D01*
X25467Y109831D01*
G37*
%LPD*%
%LPC*%
G36*
X38861Y105769D02*
X38861Y105769D01*
X48193Y105769D01*
X48087Y105098D01*
X47525Y103370D01*
X46700Y101751D01*
X45633Y100282D01*
X44348Y98997D01*
X42879Y97930D01*
X41260Y97105D01*
X39532Y96543D01*
X38861Y96437D01*
X38861Y105769D01*
G37*
%LPD*%
%LPC*%
G36*
X34128Y131543D02*
X34128Y131543D01*
X32400Y132105D01*
X30781Y132930D01*
X29312Y133997D01*
X28027Y135282D01*
X26960Y136751D01*
X26135Y138370D01*
X25573Y140098D01*
X25467Y140769D01*
X34799Y140769D01*
X34799Y131437D01*
X34128Y131543D01*
G37*
%LPD*%
%LPC*%
G36*
X34128Y96543D02*
X34128Y96543D01*
X32400Y97105D01*
X30781Y97930D01*
X29312Y98997D01*
X28027Y100282D01*
X26960Y101751D01*
X26135Y103370D01*
X25573Y105098D01*
X25467Y105769D01*
X34799Y105769D01*
X34799Y96437D01*
X34128Y96543D01*
G37*
%LPD*%
%LPC*%
G36*
X231334Y129031D02*
X231334Y129031D01*
X231389Y129379D01*
X231884Y130900D01*
X232610Y132325D01*
X233550Y133619D01*
X234681Y134750D01*
X235975Y135690D01*
X237400Y136416D01*
X238921Y136911D01*
X239269Y136966D01*
X239269Y129031D01*
X231334Y129031D01*
G37*
%LPD*%
%LPC*%
G36*
X231334Y103631D02*
X231334Y103631D01*
X231389Y103979D01*
X231884Y105500D01*
X232610Y106925D01*
X233550Y108219D01*
X234681Y109350D01*
X235975Y110290D01*
X237400Y111016D01*
X238921Y111511D01*
X239269Y111566D01*
X239269Y103631D01*
X231334Y103631D01*
G37*
%LPD*%
%LPC*%
G36*
X238921Y117089D02*
X238921Y117089D01*
X237400Y117584D01*
X235975Y118310D01*
X234681Y119250D01*
X233550Y120381D01*
X232610Y121675D01*
X231884Y123100D01*
X231389Y124621D01*
X231334Y124969D01*
X239269Y124969D01*
X239269Y117034D01*
X238921Y117089D01*
G37*
%LPD*%
%LPC*%
G36*
X238921Y91689D02*
X238921Y91689D01*
X237400Y92184D01*
X235975Y92910D01*
X234681Y93850D01*
X233550Y94981D01*
X232610Y96275D01*
X231884Y97700D01*
X231389Y99221D01*
X231334Y99569D01*
X239269Y99569D01*
X239269Y91634D01*
X238921Y91689D01*
G37*
%LPD*%
%LPC*%
G36*
X139191Y236729D02*
X139191Y236729D01*
X147004Y236729D01*
X146953Y236409D01*
X146465Y234906D01*
X145748Y233497D01*
X144819Y232219D01*
X143701Y231101D01*
X142423Y230172D01*
X141014Y229455D01*
X139511Y228967D01*
X139191Y228916D01*
X139191Y236729D01*
G37*
%LPD*%
%LPC*%
G36*
X134809Y228967D02*
X134809Y228967D01*
X133306Y229455D01*
X131897Y230172D01*
X130619Y231101D01*
X129501Y232219D01*
X128572Y233497D01*
X127855Y234906D01*
X127367Y236409D01*
X127316Y236729D01*
X135129Y236729D01*
X135129Y228916D01*
X134809Y228967D01*
G37*
%LPD*%
%LPC*%
G36*
X36829Y142799D02*
X36829Y142799D01*
X36829Y142801D01*
X36831Y142801D01*
X36831Y142799D01*
X36829Y142799D01*
G37*
%LPD*%
%LPC*%
G36*
X36829Y107799D02*
X36829Y107799D01*
X36829Y107801D01*
X36831Y107801D01*
X36831Y107799D01*
X36829Y107799D01*
G37*
%LPD*%
D10*
X205528Y11430D02*
X205526Y11515D01*
X205520Y11601D01*
X205511Y11686D01*
X205497Y11770D01*
X205480Y11854D01*
X205459Y11937D01*
X205435Y12019D01*
X205407Y12099D01*
X205375Y12179D01*
X205339Y12257D01*
X205301Y12333D01*
X205258Y12407D01*
X205213Y12479D01*
X205164Y12550D01*
X205112Y12618D01*
X205058Y12683D01*
X205000Y12746D01*
X204939Y12807D01*
X204876Y12865D01*
X204811Y12919D01*
X204743Y12971D01*
X204672Y13020D01*
X204600Y13065D01*
X204526Y13108D01*
X204450Y13146D01*
X204372Y13182D01*
X204292Y13214D01*
X204212Y13242D01*
X204130Y13266D01*
X204047Y13287D01*
X203963Y13304D01*
X203879Y13318D01*
X203794Y13327D01*
X203708Y13333D01*
X203623Y13335D01*
X203527Y13333D01*
X203431Y13327D01*
X203335Y13318D01*
X203240Y13305D01*
X203145Y13288D01*
X203051Y13267D01*
X202958Y13243D01*
X202866Y13215D01*
X202775Y13184D01*
X202686Y13148D01*
X202598Y13110D01*
X202511Y13068D01*
X202427Y13023D01*
X202344Y12974D01*
X202263Y12922D01*
X202184Y12867D01*
X202107Y12809D01*
X202033Y12748D01*
X201961Y12684D01*
X201892Y12617D01*
X201825Y12548D01*
X201761Y12476D01*
X201700Y12402D01*
X201642Y12325D01*
X201587Y12246D01*
X201536Y12165D01*
X201487Y12082D01*
X201442Y11997D01*
X201400Y11911D01*
X201361Y11822D01*
X201326Y11733D01*
X201295Y11642D01*
X204893Y9948D02*
X204955Y10010D01*
X205014Y10074D01*
X205070Y10140D01*
X205124Y10209D01*
X205174Y10280D01*
X205222Y10354D01*
X205266Y10429D01*
X205307Y10506D01*
X205345Y10584D01*
X205379Y10664D01*
X205410Y10746D01*
X205438Y10829D01*
X205461Y10912D01*
X205482Y10997D01*
X205498Y11083D01*
X205511Y11169D01*
X205521Y11256D01*
X205526Y11343D01*
X205528Y11430D01*
X204893Y9948D02*
X201295Y5715D01*
X205528Y5715D01*
D11*
X36830Y177800D03*
X36830Y142800D03*
X36830Y107800D03*
X36830Y72800D03*
D12*
X137160Y238760D03*
X90170Y208280D03*
X137160Y179070D03*
D13*
X241300Y177800D03*
X241300Y152400D03*
X241300Y127000D03*
X241300Y101600D03*
X241300Y76200D03*
D14*
X198120Y33020D03*
X127000Y124460D03*
X135890Y124460D03*
X137160Y115570D03*
X146050Y113030D03*
X154940Y113030D03*
X163830Y113030D03*
X172720Y113030D03*
X181610Y113030D03*
X181610Y123190D03*
X190500Y123190D03*
X190500Y113030D03*
X199390Y113030D03*
X199390Y123190D03*
X247650Y114300D03*
X104140Y146050D03*
X26670Y125730D03*
X35560Y125730D03*
X44450Y125730D03*
X53340Y107950D03*
X53340Y116840D03*
X62230Y116840D03*
X71120Y125730D03*
X62230Y125730D03*
X53340Y125730D03*
X53340Y134620D03*
X53340Y143510D03*
X53340Y152400D03*
X62230Y152400D03*
X62230Y143510D03*
X62230Y134620D03*
X71120Y134620D03*
X71120Y143510D03*
X71120Y152400D03*
X80010Y152400D03*
X162560Y243840D03*
X162560Y231140D03*
X180340Y222250D03*
X153670Y222250D03*
X162560Y222250D03*
X171450Y222250D03*
X127000Y222250D03*
X135890Y222250D03*
X144780Y222250D03*
X194310Y222250D03*
X92710Y243840D03*
X101600Y243840D03*
X110490Y243840D03*
X110490Y234950D03*
X66040Y243840D03*
X74930Y243840D03*
X83820Y243840D03*
X226060Y204470D03*
X234950Y204470D03*
X243840Y204470D03*
X243840Y195580D03*
X234950Y195580D03*
X220980Y189230D03*
X212090Y189230D03*
X203200Y189230D03*
X194310Y189230D03*
X110490Y215900D03*
X71120Y218440D03*
X71120Y209550D03*
X62230Y209550D03*
X57150Y226060D03*
X57150Y234950D03*
X57150Y243840D03*
X66040Y234950D03*
X8890Y50800D03*
X17780Y50800D03*
X26670Y50800D03*
X165100Y33020D03*
X245110Y44450D03*
X234950Y114300D03*
X208280Y104140D03*
X208280Y113030D03*
X208280Y123190D03*
X217170Y104140D03*
X217170Y113030D03*
X217170Y123190D03*
X217170Y95250D03*
X14478Y147320D03*
X11430Y100330D03*
X11430Y90170D03*
X208280Y95250D03*
X9398Y156210D03*
X19558Y156210D03*
X20320Y95250D03*
X142748Y19050D03*
X151638Y19050D03*
D15*
X43180Y7620D03*
M02*
