M48
;GenerationSoftware,Autodesk,EAGLE,9.6.2*%
;CreationDate,2022-12-19T20:13:03Z*%
FMAT,2
ICI,OFF
METRIC,TZ,000.000
T6C0.350
T5C0.381
T4C1.000
T3C1.016
T2C1.200
T1C3.302
%
G90
M71
T1
X2540Y22860
X80264Y2540
X2540Y2540
X22860Y2540
X48768Y22860
X48768Y2540
X54356Y74676
X74676Y2540
X28448Y2540
X54356Y22860
X74676Y22860
X132080Y100584
X54356Y2540
X22860Y22860
X28448Y22860
X100584Y2540
X100584Y22860
X80264Y22860
X106172Y2540
X126492Y2540
X126492Y22860
X106172Y22860
X132080Y2540
X152400Y2540
X152400Y22860
X132080Y22860
X2540Y28448
X22860Y28448
X22860Y48768
X2540Y48768
X28448Y28448
X48768Y28448
X48768Y48768
X28448Y48768
X54356Y28448
X74676Y28448
X74676Y48768
X54356Y48768
X80264Y28448
X100584Y28448
X100584Y48768
X80264Y48768
X106172Y28448
X126492Y28448
X126492Y48768
X106172Y48768
X132080Y28448
X152400Y28448
X152400Y48768
X132080Y48768
X2540Y54356
X22860Y54356
X22860Y74676
X2540Y74676
X28448Y54356
X48768Y54356
X48768Y74676
X28448Y74676
X54356Y54356
X74676Y54356
X74676Y74676
X80264Y54356
X100584Y54356
X100584Y74676
X80264Y74676
X106172Y54356
X126492Y54356
X126492Y74676
X106172Y74676
X132080Y54356
X152400Y54356
X152400Y74676
X132080Y74676
X2540Y80264
X22860Y80264
X22860Y100584
X2540Y100584
X28448Y80264
X48768Y80264
X48768Y100584
X28448Y100584
X54356Y80264
X74676Y80264
X74676Y100584
X54356Y100584
X80264Y80264
X100584Y80264
X100584Y100584
X80264Y100584
X106172Y80264
X126492Y80264
X126492Y100584
X106172Y100584
X132080Y80264
X152400Y80264
X152400Y100584
T2
X81407Y40188
X3683Y17780
X3683Y14280
X3683Y10780
X3683Y7280
X29591Y59096
X29591Y62596
X29591Y66096
X81407Y43688
X55499Y33188
X29591Y36688
X29591Y33188
X133223Y17780
X29591Y17780
X29591Y14280
X29591Y10780
X29591Y7280
X29591Y69596
X3683Y59096
X3683Y62596
X133223Y14280
X133223Y10780
X133223Y7280
X107315Y43688
X81407Y33188
X55499Y17780
X55499Y14280
X55499Y10780
X55499Y7280
X3683Y66096
X3683Y69596
X133223Y33188
X81407Y36688
X55499Y36688
X55499Y40188
X55499Y43688
X29591Y43688
X81407Y17780
X81407Y14280
X81407Y10780
X81407Y7280
X133223Y36688
X133223Y40188
X133223Y43688
X29591Y40188
X3683Y43688
X3683Y40188
X3683Y36688
X3683Y33188
X107315Y17780
X107315Y14280
X107315Y10780
X107315Y7280
X107315Y33188
X107315Y36688
X107315Y40188
X55499Y69596
X55499Y66096
X55499Y62596
X55499Y59096
X81407Y69596
X81407Y66096
X81407Y62596
X81407Y59096
X107315Y69596
X107315Y66096
X107315Y62596
X107315Y59096
X133223Y69596
X133223Y66096
X133223Y62596
X133223Y59096
X3683Y95504
X3683Y92004
X3683Y88504
X3683Y85004
X29591Y95504
X29591Y92004
X29591Y88504
X29591Y85004
X55499Y95504
X55499Y92004
X55499Y88504
X55499Y85004
X81407Y95504
X81407Y92004
X81407Y88504
X81407Y85004
X107315Y95504
X107315Y92004
X107315Y88504
X107315Y85004
X133223Y95504
X133223Y92004
X133223Y88504
X133223Y85004
T3
X50038Y33528
X75946Y43688
X75946Y41148
X75946Y38608
X75946Y36068
X75946Y33528
X101854Y43688
X101854Y41148
X101854Y38608
X101854Y36068
X101854Y33528
X127762Y43688
X127762Y41148
X127762Y38608
X127762Y36068
X127762Y33528
X153670Y43688
X153670Y41148
X153670Y38608
X153670Y36068
X153670Y33528
X24130Y69596
X24130Y67056
X24130Y64516
X24130Y61976
X24130Y59436
X50038Y69596
X50038Y67056
X50038Y64516
X50038Y61976
X50038Y59436
X153670Y85344
X24130Y17780
X24130Y15240
X24130Y12700
X75946Y69596
X75946Y67056
X75946Y64516
X75946Y61976
X75946Y59436
X24130Y10160
X24130Y7620
X50038Y17780
X50038Y15240
X101854Y69596
X101854Y67056
X101854Y64516
X101854Y61976
X101854Y59436
X50038Y12700
X50038Y10160
X50038Y7620
X75946Y17780
X127762Y69596
X127762Y67056
X127762Y64516
X127762Y61976
X127762Y59436
X75946Y15240
X75946Y12700
X75946Y10160
X75946Y7620
X153670Y69596
X153670Y67056
X153670Y64516
X153670Y61976
X153670Y59436
X101854Y17780
X101854Y15240
X101854Y12700
X101854Y10160
X24130Y95504
X24130Y92964
X24130Y90424
X24130Y87884
X24130Y85344
X101854Y7620
X127762Y17780
X127762Y15240
X127762Y12700
X50038Y95504
X50038Y92964
X50038Y90424
X50038Y87884
X50038Y85344
X127762Y10160
X127762Y7620
X153670Y17780
X153670Y15240
X75946Y95504
X75946Y92964
X75946Y90424
X75946Y87884
X75946Y85344
X153670Y12700
X153670Y10160
X153670Y7620
X24130Y43688
X101854Y95504
X101854Y92964
X101854Y90424
X101854Y87884
X101854Y85344
X24130Y41148
X24130Y38608
X24130Y36068
X24130Y33528
X127762Y95504
X127762Y92964
X127762Y90424
X127762Y87884
X127762Y85344
X50038Y43688
X50038Y41148
X50038Y38608
X50038Y36068
X153670Y95504
X153670Y92964
X153670Y90424
X153670Y87884
T4
X34925Y72644
X39624Y69723
X117348Y17907
X112649Y20828
X117348Y23876
X13716Y101600
X9017Y98552
X13716Y95631
X117348Y49784
X112649Y46736
X117348Y43815
X13716Y43815
X65532Y49784
X9017Y46736
X65532Y75692
X60833Y72644
X65532Y69723
X39624Y101600
X34925Y98552
X39624Y95631
X13716Y49784
X143256Y17907
X91440Y17907
X86741Y20828
X91440Y23876
X65532Y17907
X143256Y49784
X138557Y46736
X143256Y43815
X65532Y101600
X60833Y98552
X65532Y95631
X91440Y75692
X86741Y72644
X91440Y69723
X138557Y20828
X91440Y49784
X86741Y46736
X91440Y43815
X60833Y46736
X60833Y20828
X91440Y101600
X86741Y98552
X91440Y95631
X65532Y23876
X39624Y17907
X34925Y20828
X117348Y75692
X112649Y72644
X117348Y69723
X13716Y75692
X9017Y72644
X13716Y69723
X117348Y101600
X112649Y98552
X117348Y95631
X65532Y43815
X39624Y43815
X34925Y46736
X39624Y49784
X143256Y23876
X39624Y23876
X143256Y75692
X138557Y72644
X143256Y69723
X143256Y101600
X138557Y98552
X143256Y95631
X13716Y17907
X9017Y20828
X13716Y23876
X39624Y75692
T5
X120015Y11303
X120904Y11303
X121793Y11303
X121793Y12319
X122682Y12319
X122682Y11303
X123571Y11303
X123571Y12319
X128397Y11430
X114046Y14605
X106299Y12573
X107188Y12573
X108077Y12573
X108966Y10795
X108966Y11684
X109855Y11684
X110744Y12573
X109855Y12573
X108966Y12573
X108966Y13462
X108966Y14351
X108966Y15240
X109855Y15240
X109855Y14351
X109855Y13462
X110744Y13462
X110744Y14351
X110744Y15240
X111633Y15240
X119888Y24384
X119888Y23114
X121666Y22225
X118999Y22225
X119888Y22225
X120777Y22225
X116332Y22225
X117221Y22225
X118110Y22225
X123063Y22225
X112903Y24384
X113792Y24384
X114681Y24384
X114681Y23495
X110236Y24384
X111125Y24384
X112014Y24384
X126238Y20447
X127127Y20447
X128016Y20447
X128016Y19558
X127127Y19558
X125730Y18923
X124841Y18923
X123952Y18923
X123063Y18923
X114681Y21590
X110744Y21844
X110744Y20955
X109855Y20955
X109347Y22606
X109347Y23495
X109347Y24384
X110236Y23495
X104521Y5080
X105410Y5080
X106299Y5080
X120142Y3302
X128143Y4445
X127127Y11430
X124460Y10414
X124460Y11303
X124460Y12319
X125349Y10414
X125349Y11303
X125349Y12319
X125349Y9525
X105080Y14732
X104775Y10033
X104775Y9017
X124460Y9525
X104572Y15621
X105588Y15621
X105664Y9525
X117907Y1905
X118796Y1905
X149352Y3302
X142240Y12446
X143129Y12446
X143256Y11557
X144145Y11303
X145034Y11303
X145923Y11303
X146812Y11303
X147701Y11303
X147701Y12319
X148590Y12319
X148590Y11303
X149479Y11303
X149479Y12319
X154305Y11430
X139954Y14605
X132207Y12573
X133096Y12573
X133985Y12573
X134874Y10795
X134874Y11684
X135763Y11684
X136652Y12573
X135763Y12573
X134874Y12573
X134874Y13462
X134874Y14351
X134874Y15240
X135763Y15240
X135763Y14351
X135763Y13462
X136652Y13462
X136652Y14351
X136652Y15240
X137541Y15240
X145796Y24384
X145796Y23114
X147574Y22225
X144907Y22225
X145796Y22225
X146685Y22225
X142240Y22225
X143129Y22225
X144018Y22225
X148971Y22225
X138811Y24384
X139700Y24384
X140589Y24384
X140589Y23495
X136144Y24384
X137033Y24384
X137922Y24384
X152146Y20447
X153035Y20447
X153924Y20447
X153924Y19558
X153035Y19558
X151638Y18923
X150749Y18923
X149860Y18923
X148971Y18923
X140589Y21590
X136652Y21844
X136652Y20955
X135763Y20955
X135255Y22606
X135255Y23495
X135255Y24384
X136144Y23495
X130429Y5080
X131318Y5080
X132207Y5080
X146050Y3302
X154051Y4445
X153035Y11430
X150368Y10414
X150368Y11303
X150368Y12319
X151257Y10414
X151257Y11303
X151257Y12319
X151257Y9525
X130988Y14732
X130683Y10033
X130683Y9017
X150368Y9525
X130480Y15621
X131496Y15621
X131572Y9525
X143815Y1905
X144704Y1905
X19812Y29210
X12700Y38354
X13589Y38354
X13716Y37465
X14605Y37211
X15494Y37211
X16383Y37211
X17272Y37211
X18161Y37211
X18161Y38227
X19050Y38227
X19050Y37211
X19939Y37211
X19939Y38227
X24765Y37338
X10414Y40513
X2667Y38481
X3556Y38481
X4445Y38481
X5334Y36703
X5334Y37592
X6223Y37592
X7112Y38481
X6223Y38481
X5334Y38481
X5334Y39370
X5334Y40259
X5334Y41148
X6223Y41148
X6223Y40259
X6223Y39370
X7112Y39370
X7112Y40259
X7112Y41148
X8001Y41148
X16256Y50292
X16256Y49022
X18034Y48133
X15367Y48133
X16256Y48133
X17145Y48133
X12700Y48133
X13589Y48133
X14478Y48133
X19431Y48133
X9271Y50292
X10160Y50292
X11049Y50292
X11049Y49403
X6604Y50292
X7493Y50292
X8382Y50292
X22606Y46355
X23495Y46355
X24384Y46355
X24384Y45466
X23495Y45466
X22098Y44831
X21209Y44831
X20320Y44831
X19431Y44831
X11049Y47498
X7112Y47752
X7112Y46863
X6223Y46863
X5715Y48514
X5715Y49403
X5715Y50292
X6604Y49403
X889Y30988
X1778Y30988
X2667Y30988
X16510Y29210
X24511Y30353
X23495Y37338
X20828Y36322
X20828Y37211
X20828Y38227
X21717Y36322
X21717Y37211
X21717Y38227
X21717Y35433
X1448Y40640
X1143Y35941
X1143Y34925
X20828Y35433
X940Y41529
X1956Y41529
X2032Y35433
X14275Y27813
X15164Y27813
X45720Y29210
X38608Y38354
X39497Y38354
X39624Y37465
X40513Y37211
X41402Y37211
X42291Y37211
X43180Y37211
X44069Y37211
X44069Y38227
X44958Y38227
X44958Y37211
X45847Y37211
X45847Y38227
X50673Y37338
X36322Y40513
X28575Y38481
X29464Y38481
X30353Y38481
X31242Y36703
X31242Y37592
X32131Y37592
X33020Y38481
X32131Y38481
X31242Y38481
X31242Y39370
X31242Y40259
X31242Y41148
X32131Y41148
X32131Y40259
X32131Y39370
X33020Y39370
X33020Y40259
X33020Y41148
X33909Y41148
X42164Y50292
X42164Y49022
X43942Y48133
X41275Y48133
X42164Y48133
X43053Y48133
X38608Y48133
X39497Y48133
X40386Y48133
X45339Y48133
X35179Y50292
X36068Y50292
X36957Y50292
X36957Y49403
X32512Y50292
X33401Y50292
X34290Y50292
X48514Y46355
X49403Y46355
X50292Y46355
X50292Y45466
X49403Y45466
X48006Y44831
X47117Y44831
X46228Y44831
X45339Y44831
X36957Y47498
X33020Y47752
X33020Y46863
X32131Y46863
X31623Y48514
X31623Y49403
X31623Y50292
X32512Y49403
X26797Y30988
X27686Y30988
X28575Y30988
X42418Y29210
X50419Y30353
X49403Y37338
X46736Y36322
X46736Y37211
X46736Y38227
X47625Y36322
X47625Y37211
X47625Y38227
X47625Y35433
X27356Y40640
X27051Y35941
X27051Y34925
X46736Y35433
X26848Y41529
X27864Y41529
X27940Y35433
X40183Y27813
X41072Y27813
X71628Y29210
X64516Y38354
X65405Y38354
X65532Y37465
X66421Y37211
X67310Y37211
X68199Y37211
X69088Y37211
X69977Y37211
X69977Y38227
X70866Y38227
X70866Y37211
X71755Y37211
X71755Y38227
X76581Y37338
X62230Y40513
X54483Y38481
X55372Y38481
X56261Y38481
X57150Y36703
X57150Y37592
X58039Y37592
X58928Y38481
X58039Y38481
X57150Y38481
X57150Y39370
X57150Y40259
X57150Y41148
X58039Y41148
X58039Y40259
X58039Y39370
X58928Y39370
X58928Y40259
X58928Y41148
X59817Y41148
X68072Y50292
X68072Y49022
X69850Y48133
X67183Y48133
X68072Y48133
X68961Y48133
X64516Y48133
X65405Y48133
X66294Y48133
X71247Y48133
X61087Y50292
X61976Y50292
X62865Y50292
X62865Y49403
X58420Y50292
X59309Y50292
X60198Y50292
X74422Y46355
X75311Y46355
X76200Y46355
X76200Y45466
X75311Y45466
X73914Y44831
X73025Y44831
X72136Y44831
X71247Y44831
X62865Y47498
X58928Y47752
X58928Y46863
X58039Y46863
X57531Y48514
X57531Y49403
X57531Y50292
X58420Y49403
X52705Y30988
X53594Y30988
X54483Y30988
X68326Y29210
X76327Y30353
X75311Y37338
X72644Y36322
X72644Y37211
X72644Y38227
X73533Y36322
X73533Y37211
X73533Y38227
X73533Y35433
X53264Y40640
X52959Y35941
X52959Y34925
X72644Y35433
X52756Y41529
X53772Y41529
X53848Y35433
X66091Y27813
X66980Y27813
X97536Y29210
X90424Y38354
X91313Y38354
X91440Y37465
X92329Y37211
X93218Y37211
X94107Y37211
X94996Y37211
X95885Y37211
X95885Y38227
X96774Y38227
X96774Y37211
X97663Y37211
X97663Y38227
X102489Y37338
X88138Y40513
X80391Y38481
X81280Y38481
X82169Y38481
X83058Y36703
X83058Y37592
X83947Y37592
X84836Y38481
X83947Y38481
X83058Y38481
X83058Y39370
X83058Y40259
X83058Y41148
X83947Y41148
X83947Y40259
X83947Y39370
X84836Y39370
X84836Y40259
X84836Y41148
X85725Y41148
X93980Y50292
X93980Y49022
X95758Y48133
X93091Y48133
X93980Y48133
X94869Y48133
X90424Y48133
X91313Y48133
X92202Y48133
X97155Y48133
X86995Y50292
X87884Y50292
X88773Y50292
X88773Y49403
X84328Y50292
X85217Y50292
X86106Y50292
X100330Y46355
X101219Y46355
X102108Y46355
X102108Y45466
X101219Y45466
X99822Y44831
X98933Y44831
X98044Y44831
X97155Y44831
X88773Y47498
X84836Y47752
X84836Y46863
X83947Y46863
X83439Y48514
X83439Y49403
X83439Y50292
X84328Y49403
X78613Y30988
X79502Y30988
X80391Y30988
X94234Y29210
X102235Y30353
X101219Y37338
X98552Y36322
X98552Y37211
X98552Y38227
X99441Y36322
X99441Y37211
X99441Y38227
X99441Y35433
X79172Y40640
X78867Y35941
X78867Y34925
X98552Y35433
X78664Y41529
X79680Y41529
X79756Y35433
X91999Y27813
X92888Y27813
X123444Y29210
X116332Y38354
X117221Y38354
X117348Y37465
X118237Y37211
X119126Y37211
X120015Y37211
X120904Y37211
X121793Y37211
X121793Y38227
X122682Y38227
X122682Y37211
X123571Y37211
X123571Y38227
X128397Y37338
X114046Y40513
X106299Y38481
X107188Y38481
X108077Y38481
X108966Y36703
X108966Y37592
X109855Y37592
X110744Y38481
X109855Y38481
X108966Y38481
X108966Y39370
X108966Y40259
X108966Y41148
X109855Y41148
X109855Y40259
X109855Y39370
X110744Y39370
X110744Y40259
X110744Y41148
X111633Y41148
X119888Y50292
X119888Y49022
X121666Y48133
X118999Y48133
X119888Y48133
X120777Y48133
X116332Y48133
X117221Y48133
X118110Y48133
X123063Y48133
X112903Y50292
X113792Y50292
X114681Y50292
X114681Y49403
X110236Y50292
X111125Y50292
X112014Y50292
X126238Y46355
X127127Y46355
X128016Y46355
X128016Y45466
X127127Y45466
X125730Y44831
X124841Y44831
X123952Y44831
X123063Y44831
X114681Y47498
X110744Y47752
X110744Y46863
X109855Y46863
X109347Y48514
X109347Y49403
X109347Y50292
X110236Y49403
X104521Y30988
X105410Y30988
X106299Y30988
X120142Y29210
X128143Y30353
X127127Y37338
X124460Y36322
X124460Y37211
X124460Y38227
X125349Y36322
X125349Y37211
X125349Y38227
X125349Y35433
X105080Y40640
X104775Y35941
X104775Y34925
X124460Y35433
X104572Y41529
X105588Y41529
X105664Y35433
X117907Y27813
X118796Y27813
X149352Y29210
X142240Y38354
X143129Y38354
X143256Y37465
X144145Y37211
X145034Y37211
X145923Y37211
X146812Y37211
X147701Y37211
X147701Y38227
X148590Y38227
X148590Y37211
X149479Y37211
X149479Y38227
X154305Y37338
X139954Y40513
X132207Y38481
X133096Y38481
X133985Y38481
X134874Y36703
X134874Y37592
X135763Y37592
X136652Y38481
X135763Y38481
X134874Y38481
X134874Y39370
X134874Y40259
X134874Y41148
X135763Y41148
X135763Y40259
X135763Y39370
X136652Y39370
X136652Y40259
X136652Y41148
X137541Y41148
X145796Y50292
X145796Y49022
X147574Y48133
X144907Y48133
X145796Y48133
X146685Y48133
X142240Y48133
X143129Y48133
X144018Y48133
X148971Y48133
X138811Y50292
X139700Y50292
X140589Y50292
X140589Y49403
X136144Y50292
X137033Y50292
X137922Y50292
X152146Y46355
X153035Y46355
X153924Y46355
X153924Y45466
X153035Y45466
X151638Y44831
X150749Y44831
X149860Y44831
X148971Y44831
X140589Y47498
X136652Y47752
X136652Y46863
X135763Y46863
X135255Y48514
X135255Y49403
X135255Y50292
X136144Y49403
X130429Y30988
X131318Y30988
X132207Y30988
X146050Y29210
X154051Y30353
X153035Y37338
X150368Y36322
X150368Y37211
X150368Y38227
X151257Y36322
X151257Y37211
X151257Y38227
X151257Y35433
X130988Y40640
X130683Y35941
X130683Y34925
X150368Y35433
X130480Y41529
X131496Y41529
X131572Y35433
X143815Y27813
X144704Y27813
X19812Y55118
X12700Y64262
X13589Y64262
X13716Y63373
X14605Y63119
X15494Y63119
X16383Y63119
X17272Y63119
X18161Y63119
X18161Y64135
X19050Y64135
X19050Y63119
X19939Y63119
X19939Y64135
X24765Y63246
X10414Y66421
X2667Y64389
X3556Y64389
X4445Y64389
X5334Y62611
X5334Y63500
X6223Y63500
X7112Y64389
X6223Y64389
X5334Y64389
X5334Y65278
X5334Y66167
X5334Y67056
X6223Y67056
X6223Y66167
X6223Y65278
X7112Y65278
X7112Y66167
X7112Y67056
X8001Y67056
X16256Y76200
X16256Y74930
X18034Y74041
X15367Y74041
X16256Y74041
X17145Y74041
X12700Y74041
X13589Y74041
X14478Y74041
X19431Y74041
X9271Y76200
X10160Y76200
X11049Y76200
X11049Y75311
X6604Y76200
X7493Y76200
X8382Y76200
X22606Y72263
X23495Y72263
X24384Y72263
X24384Y71374
X23495Y71374
X22098Y70739
X21209Y70739
X20320Y70739
X19431Y70739
X11049Y73406
X7112Y73660
X7112Y72771
X6223Y72771
X5715Y74422
X5715Y75311
X5715Y76200
X6604Y75311
X889Y56896
X1778Y56896
X2667Y56896
X16510Y55118
X24511Y56261
X23495Y63246
X20828Y62230
X20828Y63119
X20828Y64135
X21717Y62230
X21717Y63119
X21717Y64135
X21717Y61341
X1448Y66548
X1143Y61849
X1143Y60833
X20828Y61341
X940Y67437
X1956Y67437
X2032Y61341
X14275Y53721
X15164Y53721
X45720Y55118
X38608Y64262
X39497Y64262
X39624Y63373
X40513Y63119
X41402Y63119
X42291Y63119
X43180Y63119
X44069Y63119
X44069Y64135
X44958Y64135
X44958Y63119
X45847Y63119
X45847Y64135
X50673Y63246
X36322Y66421
X28575Y64389
X29464Y64389
X30353Y64389
X31242Y62611
X31242Y63500
X32131Y63500
X33020Y64389
X32131Y64389
X31242Y64389
X31242Y65278
X31242Y66167
X31242Y67056
X32131Y67056
X32131Y66167
X32131Y65278
X33020Y65278
X33020Y66167
X33020Y67056
X33909Y67056
X42164Y76200
X42164Y74930
X43942Y74041
X41275Y74041
X42164Y74041
X43053Y74041
X38608Y74041
X39497Y74041
X40386Y74041
X45339Y74041
X35179Y76200
X36068Y76200
X36957Y76200
X36957Y75311
X32512Y76200
X33401Y76200
X34290Y76200
X48514Y72263
X49403Y72263
X50292Y72263
X50292Y71374
X49403Y71374
X48006Y70739
X47117Y70739
X46228Y70739
X45339Y70739
X36957Y73406
X33020Y73660
X33020Y72771
X32131Y72771
X31623Y74422
X31623Y75311
X31623Y76200
X32512Y75311
X26797Y56896
X27686Y56896
X28575Y56896
X42418Y55118
X50419Y56261
X49403Y63246
X46736Y62230
X46736Y63119
X46736Y64135
X47625Y62230
X47625Y63119
X47625Y64135
X47625Y61341
X27356Y66548
X27051Y61849
X27051Y60833
X46736Y61341
X26848Y67437
X27864Y67437
X27940Y61341
X40183Y53721
X41072Y53721
X71628Y55118
X64516Y64262
X65405Y64262
X65532Y63373
X66421Y63119
X67310Y63119
X68199Y63119
X69088Y63119
X88773Y23495
X69977Y64135
X70866Y64135
X70866Y63119
X71755Y63119
X71755Y64135
X76581Y63246
X62230Y66421
X54483Y64389
X55372Y64389
X56261Y64389
X57150Y62611
X57150Y63500
X58039Y63500
X58928Y64389
X58039Y64389
X57150Y64389
X57150Y65278
X57150Y66167
X57150Y67056
X58039Y67056
X58039Y66167
X58039Y65278
X58928Y65278
X58928Y66167
X58928Y67056
X59817Y67056
X68072Y76200
X68072Y74930
X69850Y74041
X67183Y74041
X68072Y74041
X68961Y74041
X64516Y74041
X65405Y74041
X66294Y74041
X71247Y74041
X61087Y76200
X61976Y76200
X62865Y76200
X62865Y75311
X58420Y76200
X59309Y76200
X60198Y76200
X74422Y72263
X75311Y72263
X76200Y72263
X76200Y71374
X75311Y71374
X73914Y70739
X73025Y70739
X72136Y70739
X71247Y70739
X62865Y73406
X58928Y73660
X58928Y72771
X58039Y72771
X57531Y74422
X57531Y75311
X57531Y76200
X58420Y75311
X52705Y56896
X53594Y56896
X54483Y56896
X68326Y55118
X76327Y56261
X75311Y63246
X72644Y62230
X72644Y63119
X72644Y64135
X73533Y62230
X73533Y63119
X73533Y64135
X73533Y61341
X53264Y66548
X52959Y61849
X52959Y60833
X72644Y61341
X52756Y67437
X53772Y67437
X53848Y61341
X66091Y53721
X66980Y53721
X97536Y55118
X90424Y64262
X91313Y64262
X91440Y63373
X92329Y63119
X93218Y63119
X94107Y63119
X94996Y63119
X95885Y63119
X95885Y64135
X96774Y64135
X96774Y63119
X97663Y63119
X97663Y64135
X102489Y63246
X88138Y66421
X80391Y64389
X81280Y64389
X82169Y64389
X83058Y62611
X83058Y63500
X83947Y63500
X84836Y64389
X83947Y64389
X83058Y64389
X83058Y65278
X83058Y66167
X83058Y67056
X83947Y67056
X83947Y66167
X83947Y65278
X84836Y65278
X84836Y66167
X84836Y67056
X85725Y67056
X93980Y76200
X93980Y74930
X95758Y74041
X93091Y74041
X93980Y74041
X94869Y74041
X90424Y74041
X91313Y74041
X92202Y74041
X97155Y74041
X86995Y76200
X87884Y76200
X88773Y76200
X88773Y75311
X84328Y76200
X85217Y76200
X86106Y76200
X100330Y72263
X101219Y72263
X102108Y72263
X102108Y71374
X101219Y71374
X99822Y70739
X98933Y70739
X98044Y70739
X97155Y70739
X88773Y73406
X84836Y73660
X84836Y72771
X83947Y72771
X83439Y74422
X83439Y75311
X83439Y76200
X84328Y75311
X78613Y56896
X79502Y56896
X80391Y56896
X94234Y55118
X102235Y56261
X101219Y63246
X98552Y62230
X98552Y63119
X98552Y64135
X99441Y62230
X99441Y63119
X99441Y64135
X99441Y61341
X79172Y66548
X78867Y61849
X78867Y60833
X98552Y61341
X78664Y67437
X79680Y67437
X79756Y61341
X91999Y53721
X92888Y53721
X123444Y55118
X116332Y64262
X117221Y64262
X117348Y63373
X118237Y63119
X119126Y63119
X120015Y63119
X120904Y63119
X121793Y63119
X121793Y64135
X122682Y64135
X122682Y63119
X123571Y63119
X123571Y64135
X128397Y63246
X114046Y66421
X106299Y64389
X107188Y64389
X108077Y64389
X108966Y62611
X108966Y63500
X109855Y63500
X110744Y64389
X109855Y64389
X108966Y64389
X108966Y65278
X108966Y66167
X108966Y67056
X109855Y67056
X109855Y66167
X109855Y65278
X110744Y65278
X110744Y66167
X110744Y67056
X111633Y67056
X119888Y76200
X119888Y74930
X121666Y74041
X118999Y74041
X119888Y74041
X120777Y74041
X116332Y74041
X117221Y74041
X118110Y74041
X123063Y74041
X112903Y76200
X113792Y76200
X114681Y76200
X114681Y75311
X110236Y76200
X111125Y76200
X112014Y76200
X126238Y72263
X127127Y72263
X128016Y72263
X128016Y71374
X127127Y71374
X125730Y70739
X124841Y70739
X123952Y70739
X123063Y70739
X114681Y73406
X110744Y73660
X110744Y72771
X109855Y72771
X109347Y74422
X109347Y75311
X109347Y76200
X110236Y75311
X104521Y56896
X105410Y56896
X106299Y56896
X120142Y55118
X128143Y56261
X127127Y63246
X124460Y62230
X124460Y63119
X124460Y64135
X125349Y62230
X125349Y63119
X125349Y64135
X125349Y61341
X105080Y66548
X104775Y61849
X104775Y60833
X124460Y61341
X104572Y67437
X105588Y67437
X105664Y61341
X117907Y53721
X118796Y53721
X149352Y55118
X142240Y64262
X143129Y64262
X143256Y63373
X144145Y63119
X145034Y63119
X145923Y63119
X146812Y63119
X147701Y63119
X147701Y64135
X148590Y64135
X148590Y63119
X149479Y63119
X149479Y64135
X154305Y63246
X139954Y66421
X132207Y64389
X133096Y64389
X133985Y64389
X134874Y62611
X134874Y63500
X135763Y63500
X136652Y64389
X135763Y64389
X134874Y64389
X134874Y65278
X134874Y66167
X134874Y67056
X135763Y67056
X135763Y66167
X135763Y65278
X136652Y65278
X136652Y66167
X136652Y67056
X137541Y67056
X145796Y76200
X145796Y74930
X147574Y74041
X144907Y74041
X145796Y74041
X146685Y74041
X142240Y74041
X143129Y74041
X144018Y74041
X148971Y74041
X138811Y76200
X139700Y76200
X140589Y76200
X140589Y75311
X136144Y76200
X137033Y76200
X137922Y76200
X152146Y72263
X153035Y72263
X153924Y72263
X153924Y71374
X153035Y71374
X151638Y70739
X150749Y70739
X149860Y70739
X148971Y70739
X140589Y73406
X136652Y73660
X136652Y72771
X135763Y72771
X135255Y74422
X135255Y75311
X135255Y76200
X136144Y75311
X130429Y56896
X131318Y56896
X132207Y56896
X146050Y55118
X154051Y56261
X153035Y63246
X150368Y62230
X150368Y63119
X150368Y64135
X151257Y62230
X151257Y63119
X151257Y64135
X151257Y61341
X130988Y66548
X130683Y61849
X130683Y60833
X150368Y61341
X130480Y67437
X131496Y67437
X131572Y61341
X143815Y53721
X144704Y53721
X19812Y81026
X12700Y90170
X13589Y90170
X13716Y89281
X14605Y89027
X15494Y89027
X16383Y89027
X17272Y89027
X18161Y89027
X18161Y90043
X19050Y90043
X19050Y89027
X19939Y89027
X19939Y90043
X24765Y89154
X10414Y92329
X2667Y90297
X3556Y90297
X4445Y90297
X5334Y88519
X5334Y89408
X6223Y89408
X7112Y90297
X6223Y90297
X5334Y90297
X5334Y91186
X5334Y92075
X5334Y92964
X6223Y92964
X6223Y92075
X6223Y91186
X7112Y91186
X7112Y92075
X7112Y92964
X8001Y92964
X16256Y102108
X16256Y100838
X18034Y99949
X15367Y99949
X16256Y99949
X17145Y99949
X12700Y99949
X13589Y99949
X14478Y99949
X19431Y99949
X9271Y102108
X10160Y102108
X11049Y102108
X11049Y101219
X6604Y102108
X7493Y102108
X8382Y102108
X22606Y98171
X23495Y98171
X24384Y98171
X24384Y97282
X23495Y97282
X22098Y96647
X21209Y96647
X20320Y96647
X19431Y96647
X11049Y99314
X7112Y99568
X7112Y98679
X6223Y98679
X5715Y100330
X5715Y101219
X5715Y102108
X6604Y101219
X889Y82804
X1778Y82804
X2667Y82804
X16510Y81026
X24511Y82169
X23495Y89154
X20828Y88138
X20828Y89027
X20828Y90043
X21717Y88138
X21717Y89027
X21717Y90043
X21717Y87249
X1448Y92456
X1143Y87757
X1143Y86741
X20828Y87249
X940Y93345
X1956Y93345
X2032Y87249
X14275Y79629
X15164Y79629
X45720Y81026
X38608Y90170
X39497Y90170
X39624Y89281
X40513Y89027
X41402Y89027
X42291Y89027
X43180Y89027
X44069Y89027
X44069Y90043
X44958Y90043
X44958Y89027
X45847Y89027
X45847Y90043
X50673Y89154
X36322Y92329
X28575Y90297
X29464Y90297
X30353Y90297
X31242Y88519
X31242Y89408
X32131Y89408
X33020Y90297
X32131Y90297
X31242Y90297
X31242Y91186
X31242Y92075
X31242Y92964
X32131Y92964
X32131Y92075
X32131Y91186
X33020Y91186
X33020Y92075
X33020Y92964
X33909Y92964
X42164Y102108
X42164Y100838
X43942Y99949
X41275Y99949
X42164Y99949
X43053Y99949
X38608Y99949
X39497Y99949
X40386Y99949
X45339Y99949
X35179Y102108
X36068Y102108
X36957Y102108
X36957Y101219
X32512Y102108
X33401Y102108
X34290Y102108
X48514Y98171
X49403Y98171
X50292Y98171
X50292Y97282
X49403Y97282
X48006Y96647
X47117Y96647
X46228Y96647
X45339Y96647
X36957Y99314
X33020Y99568
X33020Y98679
X32131Y98679
X31623Y100330
X31623Y101219
X31623Y102108
X32512Y101219
X26797Y82804
X27686Y82804
X28575Y82804
X42418Y81026
X50419Y82169
X49403Y89154
X46736Y88138
X46736Y89027
X46736Y90043
X47625Y88138
X47625Y89027
X47625Y90043
X47625Y87249
X27356Y92456
X27051Y87757
X27051Y86741
X46736Y87249
X26848Y93345
X27864Y93345
X27940Y87249
X40183Y79629
X41072Y79629
X71628Y81026
X64516Y90170
X65405Y90170
X65532Y89281
X66421Y89027
X67310Y89027
X68199Y89027
X69088Y89027
X69977Y89027
X69977Y90043
X70866Y90043
X70866Y89027
X71755Y89027
X71755Y90043
X76581Y89154
X62230Y92329
X54483Y90297
X55372Y90297
X56261Y90297
X57150Y88519
X57150Y89408
X58039Y89408
X58928Y90297
X58039Y90297
X57150Y90297
X57150Y91186
X57150Y92075
X57150Y92964
X58039Y92964
X58039Y92075
X58039Y91186
X58928Y91186
X58928Y92075
X58928Y92964
X59817Y92964
X68072Y102108
X68072Y100838
X69850Y99949
X67183Y99949
X68072Y99949
X68961Y99949
X64516Y99949
X65405Y99949
X66294Y99949
X71247Y99949
X61087Y102108
X61976Y102108
X62865Y102108
X62865Y101219
X58420Y102108
X59309Y102108
X60198Y102108
X74422Y98171
X75311Y98171
X76200Y98171
X76200Y97282
X75311Y97282
X73914Y96647
X73025Y96647
X72136Y96647
X71247Y96647
X62865Y99314
X58928Y99568
X58928Y98679
X58039Y98679
X57531Y100330
X57531Y101219
X57531Y102108
X58420Y101219
X52705Y82804
X53594Y82804
X54483Y82804
X68326Y81026
X76327Y82169
X75311Y89154
X72644Y88138
X72644Y89027
X72644Y90043
X73533Y88138
X73533Y89027
X73533Y90043
X73533Y87249
X53264Y92456
X52959Y87757
X52959Y86741
X72644Y87249
X52756Y93345
X53772Y93345
X53848Y87249
X66091Y79629
X66980Y79629
X97536Y81026
X90424Y90170
X91313Y90170
X91440Y89281
X92329Y89027
X93218Y89027
X94107Y89027
X94996Y89027
X95885Y89027
X95885Y90043
X96774Y90043
X97663Y89027
X97663Y90043
X102489Y89154
X88138Y92329
X80391Y90297
X81280Y90297
X82169Y90297
X83058Y88519
X83058Y89408
X83947Y89408
X84836Y90297
X83947Y90297
X83058Y90297
X83058Y91186
X83058Y92075
X83058Y92964
X83947Y92964
X83947Y92075
X83947Y91186
X84836Y91186
X84836Y92075
X84836Y92964
X85725Y92964
X93980Y102108
X93980Y100838
X95758Y99949
X93091Y99949
X93980Y99949
X94869Y99949
X90424Y99949
X91313Y99949
X92202Y99949
X97155Y99949
X86995Y102108
X87884Y102108
X88773Y102108
X88773Y101219
X84328Y102108
X85217Y102108
X86106Y102108
X100330Y98171
X101219Y98171
X102108Y98171
X102108Y97282
X101219Y97282
X99822Y96647
X98933Y96647
X98044Y96647
X97155Y96647
X88773Y99314
X84836Y99568
X84836Y98679
X83947Y98679
X83439Y100330
X83439Y101219
X83439Y102108
X84328Y101219
X78613Y82804
X79502Y82804
X80391Y82804
X94234Y81026
X102235Y82169
X101219Y89154
X98552Y88138
X98552Y89027
X98552Y90043
X99441Y88138
X99441Y89027
X99441Y90043
X99441Y87249
X79172Y92456
X78867Y87757
X78867Y86741
X98552Y87249
X78664Y93345
X79680Y93345
X79756Y87249
X91999Y79629
X92888Y79629
X123444Y81026
X116332Y90170
X117221Y90170
X117348Y89281
X118237Y89027
X119126Y89027
X120015Y89027
X120904Y89027
X121793Y89027
X121793Y90043
X122682Y90043
X122682Y89027
X123571Y89027
X123571Y90043
X128397Y89154
X114046Y92329
X106299Y90297
X107188Y90297
X108077Y90297
X108966Y88519
X108966Y89408
X109855Y89408
X110744Y90297
X109855Y90297
X108966Y90297
X108966Y91186
X108966Y92075
X108966Y92964
X109855Y92964
X109855Y92075
X109855Y91186
X110744Y91186
X110744Y92075
X110744Y92964
X111633Y92964
X119888Y102108
X119888Y100838
X121666Y99949
X118999Y99949
X119888Y99949
X120777Y99949
X116332Y99949
X117221Y99949
X118110Y99949
X123063Y99949
X112903Y102108
X113792Y102108
X114681Y102108
X114681Y101219
X110236Y102108
X111125Y102108
X112014Y102108
X126238Y98171
X127127Y98171
X128016Y98171
X128016Y97282
X127127Y97282
X125730Y96647
X124841Y96647
X123952Y96647
X123063Y96647
X114681Y99314
X110744Y99568
X110744Y98679
X109855Y98679
X109347Y100330
X109347Y101219
X109347Y102108
X110236Y101219
X104521Y82804
X105410Y82804
X106299Y82804
X120142Y81026
X128143Y82169
X127127Y89154
X124460Y88138
X124460Y89027
X124460Y90043
X125349Y88138
X125349Y89027
X125349Y90043
X125349Y87249
X105080Y92456
X104775Y87757
X104775Y86741
X124460Y87249
X104572Y93345
X105588Y93345
X105664Y87249
X117907Y79629
X118796Y79629
X149352Y81026
X142240Y90170
X143129Y90170
X143256Y89281
X144145Y89027
X145034Y89027
X145923Y89027
X146812Y89027
X147701Y89027
X147701Y90043
X148590Y90043
X148590Y89027
X149479Y89027
X149479Y90043
X154305Y89154
X139954Y92329
X132207Y90297
X133096Y90297
X133985Y90297
X134874Y88519
X134874Y89408
X135763Y89408
X136652Y90297
X135763Y90297
X134874Y90297
X134874Y91186
X134874Y92075
X134874Y92964
X135763Y92964
X135763Y92075
X135763Y91186
X136652Y91186
X136652Y92075
X136652Y92964
X137541Y92964
X145796Y102108
X145796Y100838
X147574Y99949
X144907Y99949
X145796Y99949
X146685Y99949
X142240Y99949
X143129Y99949
X144018Y99949
X148971Y99949
X138811Y102108
X139700Y102108
X140589Y102108
X140589Y101219
X136144Y102108
X137033Y102108
X137922Y102108
X152146Y98171
X153035Y98171
X153924Y98171
X153924Y97282
X153035Y97282
X151638Y96647
X150749Y96647
X149860Y96647
X148971Y96647
X140589Y99314
X136652Y99568
X136652Y98679
X135763Y98679
X135255Y100330
X135255Y101219
X135255Y102108
X136144Y101219
X130429Y82804
X131318Y82804
X132207Y82804
X146050Y81026
X154051Y82169
X153035Y89154
X150368Y88138
X150368Y89027
X150368Y90043
X151257Y88138
X151257Y89027
X151257Y90043
X151257Y87249
X130988Y92456
X130683Y87757
X130683Y86741
X150368Y87249
X130480Y93345
X131496Y93345
X131572Y87249
X143815Y79629
X144704Y79629
X19812Y3302
X12700Y12446
X13589Y12446
X13716Y11557
X14605Y11303
X15494Y11303
X16383Y11303
X17272Y11303
X18161Y11303
X18161Y12319
X19050Y12319
X19050Y11303
X19939Y11303
X19939Y12319
X24765Y11430
X10414Y14605
X2667Y12573
X3556Y12573
X4445Y12573
X5334Y10795
X5334Y11684
X6223Y11684
X7112Y12573
X6223Y12573
X5334Y12573
X5334Y13462
X5334Y14351
X5334Y15240
X6223Y15240
X6223Y14351
X6223Y13462
X7112Y13462
X7112Y14351
X7112Y15240
X8001Y15240
X16256Y24384
X16256Y23114
X18034Y22225
X15367Y22225
X16256Y22225
X17145Y22225
X12700Y22225
X13589Y22225
X14478Y22225
X19431Y22225
X9271Y24384
X69977Y63119
X10160Y24384
X11049Y24384
X11049Y23495
X6604Y24384
X7493Y24384
X8382Y24384
X22606Y20447
X23495Y20447
X24384Y20447
X24384Y19558
X23495Y19558
X22098Y18923
X21209Y18923
X20320Y18923
X19431Y18923
X11049Y21590
X7112Y21844
X7112Y20955
X6223Y20955
X5715Y22606
X5715Y23495
X5715Y24384
X6604Y23495
X889Y5080
X1778Y5080
X2667Y5080
X16510Y3302
X24511Y4445
X23495Y11430
X20828Y10414
X20828Y11303
X20828Y12319
X21717Y10414
X21717Y11303
X21717Y12319
X21717Y9525
X1448Y14732
X1143Y10033
X1143Y9017
X20828Y9525
X940Y15621
X1956Y15621
X2032Y9525
X14275Y1905
X15164Y1905
X45720Y3302
X38608Y12446
X39497Y12446
X39624Y11557
X40513Y11303
X41402Y11303
X42291Y11303
X43180Y11303
X44069Y11303
X44069Y12319
X44958Y12319
X44958Y11303
X45847Y11303
X45847Y12319
X50673Y11430
X36322Y14605
X28575Y12573
X29464Y12573
X30353Y12573
X31242Y10795
X31242Y11684
X32131Y11684
X33020Y12573
X32131Y12573
X31242Y12573
X31242Y13462
X31242Y14351
X31242Y15240
X32131Y15240
X32131Y14351
X32131Y13462
X33020Y13462
X33020Y14351
X33020Y15240
X33909Y15240
X42164Y24384
X42164Y23114
X43942Y22225
X41275Y22225
X42164Y22225
X43053Y22225
X38608Y22225
X39497Y22225
X40386Y22225
X45339Y22225
X35179Y24384
X36068Y24384
X36957Y24384
X36957Y23495
X32512Y24384
X33401Y24384
X34290Y24384
X48514Y20447
X49403Y20447
X50292Y20447
X50292Y19558
X49403Y19558
X48006Y18923
X47117Y18923
X46228Y18923
X45339Y18923
X36957Y21590
X33020Y21844
X33020Y20955
X32131Y20955
X31623Y22606
X31623Y23495
X31623Y24384
X32512Y23495
X26797Y5080
X27686Y5080
X28575Y5080
X42418Y3302
X50419Y4445
X49403Y11430
X46736Y10414
X46736Y11303
X46736Y12319
X47625Y10414
X47625Y11303
X47625Y12319
X47625Y9525
X27356Y14732
X27051Y10033
X27051Y9017
X46736Y9525
X26848Y15621
X27864Y15621
X27940Y9525
X40183Y1905
X41072Y1905
X71628Y3302
X64516Y12446
X65405Y12446
X65532Y11557
X66421Y11303
X67310Y11303
X68199Y11303
X69088Y11303
X69977Y11303
X69977Y12319
X70866Y12319
X70866Y11303
X71755Y11303
X71755Y12319
X76581Y11430
X62230Y14605
X54483Y12573
X55372Y12573
X56261Y12573
X57150Y10795
X57150Y11684
X58039Y11684
X58928Y12573
X58039Y12573
X57150Y12573
X57150Y13462
X57150Y14351
X57150Y15240
X58039Y15240
X58039Y14351
X58039Y13462
X58928Y13462
X58928Y14351
X58928Y15240
X59817Y15240
X68072Y24384
X68072Y23114
X69850Y22225
X67183Y22225
X68072Y22225
X68961Y22225
X64516Y22225
X65405Y22225
X66294Y22225
X71247Y22225
X61087Y24384
X61976Y24384
X62865Y24384
X62865Y23495
X58420Y24384
X59309Y24384
X60198Y24384
X74422Y20447
X75311Y20447
X76200Y20447
X76200Y19558
X75311Y19558
X73914Y18923
X73025Y18923
X72136Y18923
X71247Y18923
X62865Y21590
X58928Y21844
X58928Y20955
X58039Y20955
X57531Y22606
X57531Y23495
X57531Y24384
X58420Y23495
X52705Y5080
X53594Y5080
X54483Y5080
X68326Y3302
X76327Y4445
X75311Y11430
X72644Y10414
X72644Y11303
X72644Y12319
X73533Y10414
X73533Y11303
X73533Y12319
X73533Y9525
X53264Y14732
X52959Y10033
X52959Y9017
X72644Y9525
X52756Y15621
X53772Y15621
X53848Y9525
X66091Y1905
X66980Y1905
X97536Y3302
X90424Y12446
X91313Y12446
X91440Y11557
X92329Y11303
X93218Y11303
X94107Y11303
X94996Y11303
X95885Y11303
X95885Y12319
X96774Y12319
X96774Y11303
X97663Y11303
X97663Y12319
X102489Y11430
X88138Y14605
X80391Y12573
X81280Y12573
X82169Y12573
X83058Y10795
X83058Y11684
X83947Y11684
X84836Y12573
X83947Y12573
X83058Y12573
X83058Y13462
X83058Y14351
X83058Y15240
X83947Y15240
X83947Y14351
X83947Y13462
X84836Y13462
X84836Y14351
X84836Y15240
X85725Y15240
X93980Y24384
X93980Y23114
X95758Y22225
X93091Y22225
X93980Y22225
X94869Y22225
X90424Y22225
X91313Y22225
X92202Y22225
X97155Y22225
X86995Y24384
X87884Y24384
X88773Y24384
X84328Y24384
X85217Y24384
X86106Y24384
X100330Y20447
X101219Y20447
X102108Y20447
X102108Y19558
X101219Y19558
X99822Y18923
X98933Y18923
X98044Y18923
X97155Y18923
X88773Y21590
X84836Y21844
X84836Y20955
X83947Y20955
X83439Y22606
X83439Y23495
X83439Y24384
X84328Y23495
X78613Y5080
X79502Y5080
X80391Y5080
X94234Y3302
X102235Y4445
X101219Y11430
X98552Y10414
X98552Y11303
X98552Y12319
X99441Y10414
X99441Y11303
X99441Y12319
X99441Y9525
X79172Y14732
X78867Y10033
X78867Y9017
X98552Y9525
X78664Y15621
X79680Y15621
X79756Y9525
X91999Y1905
X92888Y1905
X123444Y3302
X116332Y12446
X117221Y12446
X117348Y11557
X118237Y11303
X119126Y11303
X96774Y89027
T6
X4318Y52578
X133858Y26670
X107950Y26670
X82042Y26670
X56134Y26670
X30226Y26670
X4318Y26670
X133858Y762
X107950Y762
X82042Y762
X56134Y762
X30226Y762
X4318Y762
X56134Y52578
X56134Y78486
X107950Y52578
X82042Y52578
X4318Y78486
X133858Y52578
X82042Y78486
X30226Y52578
X107950Y78486
X30226Y78486
X133858Y78486
M30