G04 EAGLE Gerber RS-274X export*
G75*
%MOMM*%
%FSLAX34Y34*%
%LPD*%
%INSoldermask Bottom*%
%IPPOS*%
%AMOC8*
5,1,8,0,0,1.08239X$1,22.5*%
G01*
%ADD10R,12.700000X15.240000*%
%ADD11C,0.762000*%
%ADD12R,2.159000X2.159000*%
%ADD13C,2.159000*%
%ADD14C,2.127000*%
%ADD15C,2.427000*%
%ADD16C,2.006600*%
%ADD17C,0.228344*%
%ADD18C,3.429000*%
%ADD19C,1.127000*%
%ADD20C,1.270000*%
%ADD21C,1.627000*%

G36*
X840170Y791857D02*
X840170Y791857D01*
X840236Y791859D01*
X840279Y791877D01*
X840326Y791885D01*
X840383Y791919D01*
X840443Y791944D01*
X840478Y791975D01*
X840519Y792000D01*
X840561Y792051D01*
X840609Y792095D01*
X840631Y792137D01*
X840660Y792174D01*
X840681Y792236D01*
X840712Y792295D01*
X840720Y792349D01*
X840732Y792386D01*
X840731Y792426D01*
X840739Y792480D01*
X840739Y795020D01*
X840728Y795085D01*
X840726Y795151D01*
X840708Y795194D01*
X840700Y795241D01*
X840666Y795298D01*
X840641Y795358D01*
X840610Y795393D01*
X840585Y795434D01*
X840534Y795476D01*
X840490Y795524D01*
X840448Y795546D01*
X840411Y795575D01*
X840349Y795596D01*
X840290Y795627D01*
X840236Y795635D01*
X840199Y795647D01*
X840159Y795646D01*
X840105Y795654D01*
X836295Y795654D01*
X836230Y795643D01*
X836164Y795641D01*
X836121Y795623D01*
X836074Y795615D01*
X836017Y795581D01*
X835957Y795556D01*
X835922Y795525D01*
X835881Y795500D01*
X835840Y795449D01*
X835791Y795405D01*
X835769Y795363D01*
X835740Y795326D01*
X835719Y795264D01*
X835688Y795205D01*
X835680Y795151D01*
X835668Y795114D01*
X835668Y795111D01*
X835669Y795074D01*
X835661Y795020D01*
X835661Y792480D01*
X835672Y792415D01*
X835674Y792349D01*
X835692Y792306D01*
X835700Y792259D01*
X835734Y792202D01*
X835759Y792142D01*
X835790Y792107D01*
X835815Y792066D01*
X835866Y792025D01*
X835910Y791976D01*
X835952Y791954D01*
X835989Y791925D01*
X836051Y791904D01*
X836110Y791873D01*
X836164Y791865D01*
X836201Y791853D01*
X836241Y791854D01*
X836295Y791846D01*
X840105Y791846D01*
X840170Y791857D01*
G37*
G36*
X1099250Y791857D02*
X1099250Y791857D01*
X1099316Y791859D01*
X1099359Y791877D01*
X1099406Y791885D01*
X1099463Y791919D01*
X1099523Y791944D01*
X1099558Y791975D01*
X1099599Y792000D01*
X1099641Y792051D01*
X1099689Y792095D01*
X1099711Y792137D01*
X1099740Y792174D01*
X1099761Y792236D01*
X1099792Y792295D01*
X1099800Y792349D01*
X1099812Y792386D01*
X1099811Y792426D01*
X1099819Y792480D01*
X1099819Y795020D01*
X1099808Y795085D01*
X1099806Y795151D01*
X1099788Y795194D01*
X1099780Y795241D01*
X1099746Y795298D01*
X1099721Y795358D01*
X1099690Y795393D01*
X1099665Y795434D01*
X1099614Y795476D01*
X1099570Y795524D01*
X1099528Y795546D01*
X1099491Y795575D01*
X1099429Y795596D01*
X1099370Y795627D01*
X1099316Y795635D01*
X1099279Y795647D01*
X1099239Y795646D01*
X1099185Y795654D01*
X1095375Y795654D01*
X1095310Y795643D01*
X1095244Y795641D01*
X1095201Y795623D01*
X1095154Y795615D01*
X1095097Y795581D01*
X1095037Y795556D01*
X1095002Y795525D01*
X1094961Y795500D01*
X1094920Y795449D01*
X1094871Y795405D01*
X1094849Y795363D01*
X1094820Y795326D01*
X1094799Y795264D01*
X1094768Y795205D01*
X1094760Y795151D01*
X1094748Y795114D01*
X1094748Y795111D01*
X1094749Y795074D01*
X1094741Y795020D01*
X1094741Y792480D01*
X1094752Y792415D01*
X1094754Y792349D01*
X1094772Y792306D01*
X1094780Y792259D01*
X1094814Y792202D01*
X1094839Y792142D01*
X1094870Y792107D01*
X1094895Y792066D01*
X1094946Y792025D01*
X1094990Y791976D01*
X1095032Y791954D01*
X1095069Y791925D01*
X1095131Y791904D01*
X1095190Y791873D01*
X1095244Y791865D01*
X1095281Y791853D01*
X1095321Y791854D01*
X1095375Y791846D01*
X1099185Y791846D01*
X1099250Y791857D01*
G37*
G36*
X581090Y791857D02*
X581090Y791857D01*
X581156Y791859D01*
X581199Y791877D01*
X581246Y791885D01*
X581303Y791919D01*
X581363Y791944D01*
X581398Y791975D01*
X581439Y792000D01*
X581481Y792051D01*
X581529Y792095D01*
X581551Y792137D01*
X581580Y792174D01*
X581601Y792236D01*
X581632Y792295D01*
X581640Y792349D01*
X581652Y792386D01*
X581651Y792426D01*
X581659Y792480D01*
X581659Y795020D01*
X581648Y795085D01*
X581646Y795151D01*
X581628Y795194D01*
X581620Y795241D01*
X581586Y795298D01*
X581561Y795358D01*
X581530Y795393D01*
X581505Y795434D01*
X581454Y795476D01*
X581410Y795524D01*
X581368Y795546D01*
X581331Y795575D01*
X581269Y795596D01*
X581210Y795627D01*
X581156Y795635D01*
X581119Y795647D01*
X581079Y795646D01*
X581025Y795654D01*
X577215Y795654D01*
X577150Y795643D01*
X577084Y795641D01*
X577041Y795623D01*
X576994Y795615D01*
X576937Y795581D01*
X576877Y795556D01*
X576842Y795525D01*
X576801Y795500D01*
X576760Y795449D01*
X576711Y795405D01*
X576689Y795363D01*
X576660Y795326D01*
X576639Y795264D01*
X576608Y795205D01*
X576600Y795151D01*
X576588Y795114D01*
X576588Y795111D01*
X576589Y795074D01*
X576581Y795020D01*
X576581Y792480D01*
X576592Y792415D01*
X576594Y792349D01*
X576612Y792306D01*
X576620Y792259D01*
X576654Y792202D01*
X576679Y792142D01*
X576710Y792107D01*
X576735Y792066D01*
X576786Y792025D01*
X576830Y791976D01*
X576872Y791954D01*
X576909Y791925D01*
X576971Y791904D01*
X577030Y791873D01*
X577084Y791865D01*
X577121Y791853D01*
X577161Y791854D01*
X577215Y791846D01*
X581025Y791846D01*
X581090Y791857D01*
G37*
G36*
X322010Y791857D02*
X322010Y791857D01*
X322076Y791859D01*
X322119Y791877D01*
X322166Y791885D01*
X322223Y791919D01*
X322283Y791944D01*
X322318Y791975D01*
X322359Y792000D01*
X322401Y792051D01*
X322449Y792095D01*
X322471Y792137D01*
X322500Y792174D01*
X322521Y792236D01*
X322552Y792295D01*
X322560Y792349D01*
X322572Y792386D01*
X322571Y792426D01*
X322579Y792480D01*
X322579Y795020D01*
X322568Y795085D01*
X322566Y795151D01*
X322548Y795194D01*
X322540Y795241D01*
X322506Y795298D01*
X322481Y795358D01*
X322450Y795393D01*
X322425Y795434D01*
X322374Y795476D01*
X322330Y795524D01*
X322288Y795546D01*
X322251Y795575D01*
X322189Y795596D01*
X322130Y795627D01*
X322076Y795635D01*
X322039Y795647D01*
X321999Y795646D01*
X321945Y795654D01*
X318135Y795654D01*
X318070Y795643D01*
X318004Y795641D01*
X317961Y795623D01*
X317914Y795615D01*
X317857Y795581D01*
X317797Y795556D01*
X317762Y795525D01*
X317721Y795500D01*
X317680Y795449D01*
X317631Y795405D01*
X317609Y795363D01*
X317580Y795326D01*
X317559Y795264D01*
X317528Y795205D01*
X317520Y795151D01*
X317508Y795114D01*
X317508Y795111D01*
X317509Y795074D01*
X317501Y795020D01*
X317501Y792480D01*
X317512Y792415D01*
X317514Y792349D01*
X317532Y792306D01*
X317540Y792259D01*
X317574Y792202D01*
X317599Y792142D01*
X317630Y792107D01*
X317655Y792066D01*
X317706Y792025D01*
X317750Y791976D01*
X317792Y791954D01*
X317829Y791925D01*
X317891Y791904D01*
X317950Y791873D01*
X318004Y791865D01*
X318041Y791853D01*
X318081Y791854D01*
X318135Y791846D01*
X321945Y791846D01*
X322010Y791857D01*
G37*
G36*
X62930Y791857D02*
X62930Y791857D01*
X62996Y791859D01*
X63039Y791877D01*
X63086Y791885D01*
X63143Y791919D01*
X63203Y791944D01*
X63238Y791975D01*
X63279Y792000D01*
X63321Y792051D01*
X63369Y792095D01*
X63391Y792137D01*
X63420Y792174D01*
X63441Y792236D01*
X63472Y792295D01*
X63480Y792349D01*
X63492Y792386D01*
X63491Y792426D01*
X63499Y792480D01*
X63499Y795020D01*
X63488Y795085D01*
X63486Y795151D01*
X63468Y795194D01*
X63460Y795241D01*
X63426Y795298D01*
X63401Y795358D01*
X63370Y795393D01*
X63345Y795434D01*
X63294Y795476D01*
X63250Y795524D01*
X63208Y795546D01*
X63171Y795575D01*
X63109Y795596D01*
X63050Y795627D01*
X62996Y795635D01*
X62959Y795647D01*
X62919Y795646D01*
X62865Y795654D01*
X59055Y795654D01*
X58990Y795643D01*
X58924Y795641D01*
X58881Y795623D01*
X58834Y795615D01*
X58777Y795581D01*
X58717Y795556D01*
X58682Y795525D01*
X58641Y795500D01*
X58600Y795449D01*
X58551Y795405D01*
X58529Y795363D01*
X58500Y795326D01*
X58479Y795264D01*
X58448Y795205D01*
X58440Y795151D01*
X58428Y795114D01*
X58428Y795111D01*
X58429Y795074D01*
X58421Y795020D01*
X58421Y792480D01*
X58432Y792415D01*
X58434Y792349D01*
X58452Y792306D01*
X58460Y792259D01*
X58494Y792202D01*
X58519Y792142D01*
X58550Y792107D01*
X58575Y792066D01*
X58626Y792025D01*
X58670Y791976D01*
X58712Y791954D01*
X58749Y791925D01*
X58811Y791904D01*
X58870Y791873D01*
X58924Y791865D01*
X58961Y791853D01*
X59001Y791854D01*
X59055Y791846D01*
X62865Y791846D01*
X62930Y791857D01*
G37*
G36*
X1358330Y791857D02*
X1358330Y791857D01*
X1358396Y791859D01*
X1358439Y791877D01*
X1358486Y791885D01*
X1358543Y791919D01*
X1358603Y791944D01*
X1358638Y791975D01*
X1358679Y792000D01*
X1358721Y792051D01*
X1358769Y792095D01*
X1358791Y792137D01*
X1358820Y792174D01*
X1358841Y792236D01*
X1358872Y792295D01*
X1358880Y792349D01*
X1358892Y792386D01*
X1358891Y792426D01*
X1358899Y792480D01*
X1358899Y795020D01*
X1358888Y795085D01*
X1358886Y795151D01*
X1358868Y795194D01*
X1358860Y795241D01*
X1358826Y795298D01*
X1358801Y795358D01*
X1358770Y795393D01*
X1358745Y795434D01*
X1358694Y795476D01*
X1358650Y795524D01*
X1358608Y795546D01*
X1358571Y795575D01*
X1358509Y795596D01*
X1358450Y795627D01*
X1358396Y795635D01*
X1358359Y795647D01*
X1358319Y795646D01*
X1358265Y795654D01*
X1354455Y795654D01*
X1354390Y795643D01*
X1354324Y795641D01*
X1354281Y795623D01*
X1354234Y795615D01*
X1354177Y795581D01*
X1354117Y795556D01*
X1354082Y795525D01*
X1354041Y795500D01*
X1354000Y795449D01*
X1353951Y795405D01*
X1353929Y795363D01*
X1353900Y795326D01*
X1353879Y795264D01*
X1353848Y795205D01*
X1353840Y795151D01*
X1353828Y795114D01*
X1353828Y795111D01*
X1353829Y795074D01*
X1353821Y795020D01*
X1353821Y792480D01*
X1353832Y792415D01*
X1353834Y792349D01*
X1353852Y792306D01*
X1353860Y792259D01*
X1353894Y792202D01*
X1353919Y792142D01*
X1353950Y792107D01*
X1353975Y792066D01*
X1354026Y792025D01*
X1354070Y791976D01*
X1354112Y791954D01*
X1354149Y791925D01*
X1354211Y791904D01*
X1354270Y791873D01*
X1354324Y791865D01*
X1354361Y791853D01*
X1354401Y791854D01*
X1354455Y791846D01*
X1358265Y791846D01*
X1358330Y791857D01*
G37*
G36*
X1099250Y532777D02*
X1099250Y532777D01*
X1099316Y532779D01*
X1099359Y532797D01*
X1099406Y532805D01*
X1099463Y532839D01*
X1099523Y532864D01*
X1099558Y532895D01*
X1099599Y532920D01*
X1099641Y532971D01*
X1099689Y533015D01*
X1099711Y533057D01*
X1099740Y533094D01*
X1099761Y533156D01*
X1099792Y533215D01*
X1099800Y533269D01*
X1099812Y533306D01*
X1099811Y533346D01*
X1099819Y533400D01*
X1099819Y535940D01*
X1099808Y536005D01*
X1099806Y536071D01*
X1099788Y536114D01*
X1099780Y536161D01*
X1099746Y536218D01*
X1099721Y536278D01*
X1099690Y536313D01*
X1099665Y536354D01*
X1099614Y536396D01*
X1099570Y536444D01*
X1099528Y536466D01*
X1099491Y536495D01*
X1099429Y536516D01*
X1099370Y536547D01*
X1099316Y536555D01*
X1099279Y536567D01*
X1099239Y536566D01*
X1099185Y536574D01*
X1095375Y536574D01*
X1095310Y536563D01*
X1095244Y536561D01*
X1095201Y536543D01*
X1095154Y536535D01*
X1095097Y536501D01*
X1095037Y536476D01*
X1095002Y536445D01*
X1094961Y536420D01*
X1094920Y536369D01*
X1094871Y536325D01*
X1094849Y536283D01*
X1094820Y536246D01*
X1094799Y536184D01*
X1094768Y536125D01*
X1094760Y536071D01*
X1094748Y536034D01*
X1094748Y536031D01*
X1094749Y535994D01*
X1094741Y535940D01*
X1094741Y533400D01*
X1094752Y533335D01*
X1094754Y533269D01*
X1094772Y533226D01*
X1094780Y533179D01*
X1094814Y533122D01*
X1094839Y533062D01*
X1094870Y533027D01*
X1094895Y532986D01*
X1094946Y532945D01*
X1094990Y532896D01*
X1095032Y532874D01*
X1095069Y532845D01*
X1095131Y532824D01*
X1095190Y532793D01*
X1095244Y532785D01*
X1095281Y532773D01*
X1095321Y532774D01*
X1095375Y532766D01*
X1099185Y532766D01*
X1099250Y532777D01*
G37*
G36*
X322010Y532777D02*
X322010Y532777D01*
X322076Y532779D01*
X322119Y532797D01*
X322166Y532805D01*
X322223Y532839D01*
X322283Y532864D01*
X322318Y532895D01*
X322359Y532920D01*
X322401Y532971D01*
X322449Y533015D01*
X322471Y533057D01*
X322500Y533094D01*
X322521Y533156D01*
X322552Y533215D01*
X322560Y533269D01*
X322572Y533306D01*
X322571Y533346D01*
X322579Y533400D01*
X322579Y535940D01*
X322568Y536005D01*
X322566Y536071D01*
X322548Y536114D01*
X322540Y536161D01*
X322506Y536218D01*
X322481Y536278D01*
X322450Y536313D01*
X322425Y536354D01*
X322374Y536396D01*
X322330Y536444D01*
X322288Y536466D01*
X322251Y536495D01*
X322189Y536516D01*
X322130Y536547D01*
X322076Y536555D01*
X322039Y536567D01*
X321999Y536566D01*
X321945Y536574D01*
X318135Y536574D01*
X318070Y536563D01*
X318004Y536561D01*
X317961Y536543D01*
X317914Y536535D01*
X317857Y536501D01*
X317797Y536476D01*
X317762Y536445D01*
X317721Y536420D01*
X317680Y536369D01*
X317631Y536325D01*
X317609Y536283D01*
X317580Y536246D01*
X317559Y536184D01*
X317528Y536125D01*
X317520Y536071D01*
X317508Y536034D01*
X317508Y536031D01*
X317509Y535994D01*
X317501Y535940D01*
X317501Y533400D01*
X317512Y533335D01*
X317514Y533269D01*
X317532Y533226D01*
X317540Y533179D01*
X317574Y533122D01*
X317599Y533062D01*
X317630Y533027D01*
X317655Y532986D01*
X317706Y532945D01*
X317750Y532896D01*
X317792Y532874D01*
X317829Y532845D01*
X317891Y532824D01*
X317950Y532793D01*
X318004Y532785D01*
X318041Y532773D01*
X318081Y532774D01*
X318135Y532766D01*
X321945Y532766D01*
X322010Y532777D01*
G37*
G36*
X1358330Y532777D02*
X1358330Y532777D01*
X1358396Y532779D01*
X1358439Y532797D01*
X1358486Y532805D01*
X1358543Y532839D01*
X1358603Y532864D01*
X1358638Y532895D01*
X1358679Y532920D01*
X1358721Y532971D01*
X1358769Y533015D01*
X1358791Y533057D01*
X1358820Y533094D01*
X1358841Y533156D01*
X1358872Y533215D01*
X1358880Y533269D01*
X1358892Y533306D01*
X1358891Y533346D01*
X1358899Y533400D01*
X1358899Y535940D01*
X1358888Y536005D01*
X1358886Y536071D01*
X1358868Y536114D01*
X1358860Y536161D01*
X1358826Y536218D01*
X1358801Y536278D01*
X1358770Y536313D01*
X1358745Y536354D01*
X1358694Y536396D01*
X1358650Y536444D01*
X1358608Y536466D01*
X1358571Y536495D01*
X1358509Y536516D01*
X1358450Y536547D01*
X1358396Y536555D01*
X1358359Y536567D01*
X1358319Y536566D01*
X1358265Y536574D01*
X1354455Y536574D01*
X1354390Y536563D01*
X1354324Y536561D01*
X1354281Y536543D01*
X1354234Y536535D01*
X1354177Y536501D01*
X1354117Y536476D01*
X1354082Y536445D01*
X1354041Y536420D01*
X1354000Y536369D01*
X1353951Y536325D01*
X1353929Y536283D01*
X1353900Y536246D01*
X1353879Y536184D01*
X1353848Y536125D01*
X1353840Y536071D01*
X1353828Y536034D01*
X1353828Y536031D01*
X1353829Y535994D01*
X1353821Y535940D01*
X1353821Y533400D01*
X1353832Y533335D01*
X1353834Y533269D01*
X1353852Y533226D01*
X1353860Y533179D01*
X1353894Y533122D01*
X1353919Y533062D01*
X1353950Y533027D01*
X1353975Y532986D01*
X1354026Y532945D01*
X1354070Y532896D01*
X1354112Y532874D01*
X1354149Y532845D01*
X1354211Y532824D01*
X1354270Y532793D01*
X1354324Y532785D01*
X1354361Y532773D01*
X1354401Y532774D01*
X1354455Y532766D01*
X1358265Y532766D01*
X1358330Y532777D01*
G37*
G36*
X62930Y532777D02*
X62930Y532777D01*
X62996Y532779D01*
X63039Y532797D01*
X63086Y532805D01*
X63143Y532839D01*
X63203Y532864D01*
X63238Y532895D01*
X63279Y532920D01*
X63321Y532971D01*
X63369Y533015D01*
X63391Y533057D01*
X63420Y533094D01*
X63441Y533156D01*
X63472Y533215D01*
X63480Y533269D01*
X63492Y533306D01*
X63491Y533346D01*
X63499Y533400D01*
X63499Y535940D01*
X63488Y536005D01*
X63486Y536071D01*
X63468Y536114D01*
X63460Y536161D01*
X63426Y536218D01*
X63401Y536278D01*
X63370Y536313D01*
X63345Y536354D01*
X63294Y536396D01*
X63250Y536444D01*
X63208Y536466D01*
X63171Y536495D01*
X63109Y536516D01*
X63050Y536547D01*
X62996Y536555D01*
X62959Y536567D01*
X62919Y536566D01*
X62865Y536574D01*
X59055Y536574D01*
X58990Y536563D01*
X58924Y536561D01*
X58881Y536543D01*
X58834Y536535D01*
X58777Y536501D01*
X58717Y536476D01*
X58682Y536445D01*
X58641Y536420D01*
X58600Y536369D01*
X58551Y536325D01*
X58529Y536283D01*
X58500Y536246D01*
X58479Y536184D01*
X58448Y536125D01*
X58440Y536071D01*
X58428Y536034D01*
X58428Y536031D01*
X58429Y535994D01*
X58421Y535940D01*
X58421Y533400D01*
X58432Y533335D01*
X58434Y533269D01*
X58452Y533226D01*
X58460Y533179D01*
X58494Y533122D01*
X58519Y533062D01*
X58550Y533027D01*
X58575Y532986D01*
X58626Y532945D01*
X58670Y532896D01*
X58712Y532874D01*
X58749Y532845D01*
X58811Y532824D01*
X58870Y532793D01*
X58924Y532785D01*
X58961Y532773D01*
X59001Y532774D01*
X59055Y532766D01*
X62865Y532766D01*
X62930Y532777D01*
G37*
G36*
X840170Y532777D02*
X840170Y532777D01*
X840236Y532779D01*
X840279Y532797D01*
X840326Y532805D01*
X840383Y532839D01*
X840443Y532864D01*
X840478Y532895D01*
X840519Y532920D01*
X840561Y532971D01*
X840609Y533015D01*
X840631Y533057D01*
X840660Y533094D01*
X840681Y533156D01*
X840712Y533215D01*
X840720Y533269D01*
X840732Y533306D01*
X840731Y533346D01*
X840739Y533400D01*
X840739Y535940D01*
X840728Y536005D01*
X840726Y536071D01*
X840708Y536114D01*
X840700Y536161D01*
X840666Y536218D01*
X840641Y536278D01*
X840610Y536313D01*
X840585Y536354D01*
X840534Y536396D01*
X840490Y536444D01*
X840448Y536466D01*
X840411Y536495D01*
X840349Y536516D01*
X840290Y536547D01*
X840236Y536555D01*
X840199Y536567D01*
X840159Y536566D01*
X840105Y536574D01*
X836295Y536574D01*
X836230Y536563D01*
X836164Y536561D01*
X836121Y536543D01*
X836074Y536535D01*
X836017Y536501D01*
X835957Y536476D01*
X835922Y536445D01*
X835881Y536420D01*
X835840Y536369D01*
X835791Y536325D01*
X835769Y536283D01*
X835740Y536246D01*
X835719Y536184D01*
X835688Y536125D01*
X835680Y536071D01*
X835668Y536034D01*
X835668Y536031D01*
X835669Y535994D01*
X835661Y535940D01*
X835661Y533400D01*
X835672Y533335D01*
X835674Y533269D01*
X835692Y533226D01*
X835700Y533179D01*
X835734Y533122D01*
X835759Y533062D01*
X835790Y533027D01*
X835815Y532986D01*
X835866Y532945D01*
X835910Y532896D01*
X835952Y532874D01*
X835989Y532845D01*
X836051Y532824D01*
X836110Y532793D01*
X836164Y532785D01*
X836201Y532773D01*
X836241Y532774D01*
X836295Y532766D01*
X840105Y532766D01*
X840170Y532777D01*
G37*
G36*
X581090Y532777D02*
X581090Y532777D01*
X581156Y532779D01*
X581199Y532797D01*
X581246Y532805D01*
X581303Y532839D01*
X581363Y532864D01*
X581398Y532895D01*
X581439Y532920D01*
X581481Y532971D01*
X581529Y533015D01*
X581551Y533057D01*
X581580Y533094D01*
X581601Y533156D01*
X581632Y533215D01*
X581640Y533269D01*
X581652Y533306D01*
X581651Y533346D01*
X581659Y533400D01*
X581659Y535940D01*
X581648Y536005D01*
X581646Y536071D01*
X581628Y536114D01*
X581620Y536161D01*
X581586Y536218D01*
X581561Y536278D01*
X581530Y536313D01*
X581505Y536354D01*
X581454Y536396D01*
X581410Y536444D01*
X581368Y536466D01*
X581331Y536495D01*
X581269Y536516D01*
X581210Y536547D01*
X581156Y536555D01*
X581119Y536567D01*
X581079Y536566D01*
X581025Y536574D01*
X577215Y536574D01*
X577150Y536563D01*
X577084Y536561D01*
X577041Y536543D01*
X576994Y536535D01*
X576937Y536501D01*
X576877Y536476D01*
X576842Y536445D01*
X576801Y536420D01*
X576760Y536369D01*
X576711Y536325D01*
X576689Y536283D01*
X576660Y536246D01*
X576639Y536184D01*
X576608Y536125D01*
X576600Y536071D01*
X576588Y536034D01*
X576588Y536031D01*
X576589Y535994D01*
X576581Y535940D01*
X576581Y533400D01*
X576592Y533335D01*
X576594Y533269D01*
X576612Y533226D01*
X576620Y533179D01*
X576654Y533122D01*
X576679Y533062D01*
X576710Y533027D01*
X576735Y532986D01*
X576786Y532945D01*
X576830Y532896D01*
X576872Y532874D01*
X576909Y532845D01*
X576971Y532824D01*
X577030Y532793D01*
X577084Y532785D01*
X577121Y532773D01*
X577161Y532774D01*
X577215Y532766D01*
X581025Y532766D01*
X581090Y532777D01*
G37*
G36*
X1099250Y273697D02*
X1099250Y273697D01*
X1099316Y273699D01*
X1099359Y273717D01*
X1099406Y273725D01*
X1099463Y273759D01*
X1099523Y273784D01*
X1099558Y273815D01*
X1099599Y273840D01*
X1099641Y273891D01*
X1099689Y273935D01*
X1099711Y273977D01*
X1099740Y274014D01*
X1099761Y274076D01*
X1099792Y274135D01*
X1099800Y274189D01*
X1099812Y274226D01*
X1099811Y274266D01*
X1099819Y274320D01*
X1099819Y276860D01*
X1099808Y276925D01*
X1099806Y276991D01*
X1099788Y277034D01*
X1099780Y277081D01*
X1099746Y277138D01*
X1099721Y277198D01*
X1099690Y277233D01*
X1099665Y277274D01*
X1099614Y277316D01*
X1099570Y277364D01*
X1099528Y277386D01*
X1099491Y277415D01*
X1099429Y277436D01*
X1099370Y277467D01*
X1099316Y277475D01*
X1099279Y277487D01*
X1099239Y277486D01*
X1099185Y277494D01*
X1095375Y277494D01*
X1095310Y277483D01*
X1095244Y277481D01*
X1095201Y277463D01*
X1095154Y277455D01*
X1095097Y277421D01*
X1095037Y277396D01*
X1095002Y277365D01*
X1094961Y277340D01*
X1094920Y277289D01*
X1094871Y277245D01*
X1094849Y277203D01*
X1094820Y277166D01*
X1094799Y277104D01*
X1094768Y277045D01*
X1094760Y276991D01*
X1094748Y276954D01*
X1094748Y276951D01*
X1094749Y276914D01*
X1094741Y276860D01*
X1094741Y274320D01*
X1094752Y274255D01*
X1094754Y274189D01*
X1094772Y274146D01*
X1094780Y274099D01*
X1094814Y274042D01*
X1094839Y273982D01*
X1094870Y273947D01*
X1094895Y273906D01*
X1094946Y273865D01*
X1094990Y273816D01*
X1095032Y273794D01*
X1095069Y273765D01*
X1095131Y273744D01*
X1095190Y273713D01*
X1095244Y273705D01*
X1095281Y273693D01*
X1095321Y273694D01*
X1095375Y273686D01*
X1099185Y273686D01*
X1099250Y273697D01*
G37*
G36*
X840170Y273697D02*
X840170Y273697D01*
X840236Y273699D01*
X840279Y273717D01*
X840326Y273725D01*
X840383Y273759D01*
X840443Y273784D01*
X840478Y273815D01*
X840519Y273840D01*
X840561Y273891D01*
X840609Y273935D01*
X840631Y273977D01*
X840660Y274014D01*
X840681Y274076D01*
X840712Y274135D01*
X840720Y274189D01*
X840732Y274226D01*
X840731Y274266D01*
X840739Y274320D01*
X840739Y276860D01*
X840728Y276925D01*
X840726Y276991D01*
X840708Y277034D01*
X840700Y277081D01*
X840666Y277138D01*
X840641Y277198D01*
X840610Y277233D01*
X840585Y277274D01*
X840534Y277316D01*
X840490Y277364D01*
X840448Y277386D01*
X840411Y277415D01*
X840349Y277436D01*
X840290Y277467D01*
X840236Y277475D01*
X840199Y277487D01*
X840159Y277486D01*
X840105Y277494D01*
X836295Y277494D01*
X836230Y277483D01*
X836164Y277481D01*
X836121Y277463D01*
X836074Y277455D01*
X836017Y277421D01*
X835957Y277396D01*
X835922Y277365D01*
X835881Y277340D01*
X835840Y277289D01*
X835791Y277245D01*
X835769Y277203D01*
X835740Y277166D01*
X835719Y277104D01*
X835688Y277045D01*
X835680Y276991D01*
X835668Y276954D01*
X835668Y276951D01*
X835669Y276914D01*
X835661Y276860D01*
X835661Y274320D01*
X835672Y274255D01*
X835674Y274189D01*
X835692Y274146D01*
X835700Y274099D01*
X835734Y274042D01*
X835759Y273982D01*
X835790Y273947D01*
X835815Y273906D01*
X835866Y273865D01*
X835910Y273816D01*
X835952Y273794D01*
X835989Y273765D01*
X836051Y273744D01*
X836110Y273713D01*
X836164Y273705D01*
X836201Y273693D01*
X836241Y273694D01*
X836295Y273686D01*
X840105Y273686D01*
X840170Y273697D01*
G37*
G36*
X1358330Y273697D02*
X1358330Y273697D01*
X1358396Y273699D01*
X1358439Y273717D01*
X1358486Y273725D01*
X1358543Y273759D01*
X1358603Y273784D01*
X1358638Y273815D01*
X1358679Y273840D01*
X1358721Y273891D01*
X1358769Y273935D01*
X1358791Y273977D01*
X1358820Y274014D01*
X1358841Y274076D01*
X1358872Y274135D01*
X1358880Y274189D01*
X1358892Y274226D01*
X1358891Y274266D01*
X1358899Y274320D01*
X1358899Y276860D01*
X1358888Y276925D01*
X1358886Y276991D01*
X1358868Y277034D01*
X1358860Y277081D01*
X1358826Y277138D01*
X1358801Y277198D01*
X1358770Y277233D01*
X1358745Y277274D01*
X1358694Y277316D01*
X1358650Y277364D01*
X1358608Y277386D01*
X1358571Y277415D01*
X1358509Y277436D01*
X1358450Y277467D01*
X1358396Y277475D01*
X1358359Y277487D01*
X1358319Y277486D01*
X1358265Y277494D01*
X1354455Y277494D01*
X1354390Y277483D01*
X1354324Y277481D01*
X1354281Y277463D01*
X1354234Y277455D01*
X1354177Y277421D01*
X1354117Y277396D01*
X1354082Y277365D01*
X1354041Y277340D01*
X1354000Y277289D01*
X1353951Y277245D01*
X1353929Y277203D01*
X1353900Y277166D01*
X1353879Y277104D01*
X1353848Y277045D01*
X1353840Y276991D01*
X1353828Y276954D01*
X1353828Y276951D01*
X1353829Y276914D01*
X1353821Y276860D01*
X1353821Y274320D01*
X1353832Y274255D01*
X1353834Y274189D01*
X1353852Y274146D01*
X1353860Y274099D01*
X1353894Y274042D01*
X1353919Y273982D01*
X1353950Y273947D01*
X1353975Y273906D01*
X1354026Y273865D01*
X1354070Y273816D01*
X1354112Y273794D01*
X1354149Y273765D01*
X1354211Y273744D01*
X1354270Y273713D01*
X1354324Y273705D01*
X1354361Y273693D01*
X1354401Y273694D01*
X1354455Y273686D01*
X1358265Y273686D01*
X1358330Y273697D01*
G37*
G36*
X322010Y273697D02*
X322010Y273697D01*
X322076Y273699D01*
X322119Y273717D01*
X322166Y273725D01*
X322223Y273759D01*
X322283Y273784D01*
X322318Y273815D01*
X322359Y273840D01*
X322401Y273891D01*
X322449Y273935D01*
X322471Y273977D01*
X322500Y274014D01*
X322521Y274076D01*
X322552Y274135D01*
X322560Y274189D01*
X322572Y274226D01*
X322571Y274266D01*
X322579Y274320D01*
X322579Y276860D01*
X322568Y276925D01*
X322566Y276991D01*
X322548Y277034D01*
X322540Y277081D01*
X322506Y277138D01*
X322481Y277198D01*
X322450Y277233D01*
X322425Y277274D01*
X322374Y277316D01*
X322330Y277364D01*
X322288Y277386D01*
X322251Y277415D01*
X322189Y277436D01*
X322130Y277467D01*
X322076Y277475D01*
X322039Y277487D01*
X321999Y277486D01*
X321945Y277494D01*
X318135Y277494D01*
X318070Y277483D01*
X318004Y277481D01*
X317961Y277463D01*
X317914Y277455D01*
X317857Y277421D01*
X317797Y277396D01*
X317762Y277365D01*
X317721Y277340D01*
X317680Y277289D01*
X317631Y277245D01*
X317609Y277203D01*
X317580Y277166D01*
X317559Y277104D01*
X317528Y277045D01*
X317520Y276991D01*
X317508Y276954D01*
X317508Y276951D01*
X317509Y276914D01*
X317501Y276860D01*
X317501Y274320D01*
X317512Y274255D01*
X317514Y274189D01*
X317532Y274146D01*
X317540Y274099D01*
X317574Y274042D01*
X317599Y273982D01*
X317630Y273947D01*
X317655Y273906D01*
X317706Y273865D01*
X317750Y273816D01*
X317792Y273794D01*
X317829Y273765D01*
X317891Y273744D01*
X317950Y273713D01*
X318004Y273705D01*
X318041Y273693D01*
X318081Y273694D01*
X318135Y273686D01*
X321945Y273686D01*
X322010Y273697D01*
G37*
G36*
X62930Y273697D02*
X62930Y273697D01*
X62996Y273699D01*
X63039Y273717D01*
X63086Y273725D01*
X63143Y273759D01*
X63203Y273784D01*
X63238Y273815D01*
X63279Y273840D01*
X63321Y273891D01*
X63369Y273935D01*
X63391Y273977D01*
X63420Y274014D01*
X63441Y274076D01*
X63472Y274135D01*
X63480Y274189D01*
X63492Y274226D01*
X63491Y274266D01*
X63499Y274320D01*
X63499Y276860D01*
X63488Y276925D01*
X63486Y276991D01*
X63468Y277034D01*
X63460Y277081D01*
X63426Y277138D01*
X63401Y277198D01*
X63370Y277233D01*
X63345Y277274D01*
X63294Y277316D01*
X63250Y277364D01*
X63208Y277386D01*
X63171Y277415D01*
X63109Y277436D01*
X63050Y277467D01*
X62996Y277475D01*
X62959Y277487D01*
X62919Y277486D01*
X62865Y277494D01*
X59055Y277494D01*
X58990Y277483D01*
X58924Y277481D01*
X58881Y277463D01*
X58834Y277455D01*
X58777Y277421D01*
X58717Y277396D01*
X58682Y277365D01*
X58641Y277340D01*
X58600Y277289D01*
X58551Y277245D01*
X58529Y277203D01*
X58500Y277166D01*
X58479Y277104D01*
X58448Y277045D01*
X58440Y276991D01*
X58428Y276954D01*
X58428Y276951D01*
X58429Y276914D01*
X58421Y276860D01*
X58421Y274320D01*
X58432Y274255D01*
X58434Y274189D01*
X58452Y274146D01*
X58460Y274099D01*
X58494Y274042D01*
X58519Y273982D01*
X58550Y273947D01*
X58575Y273906D01*
X58626Y273865D01*
X58670Y273816D01*
X58712Y273794D01*
X58749Y273765D01*
X58811Y273744D01*
X58870Y273713D01*
X58924Y273705D01*
X58961Y273693D01*
X59001Y273694D01*
X59055Y273686D01*
X62865Y273686D01*
X62930Y273697D01*
G37*
G36*
X581090Y273697D02*
X581090Y273697D01*
X581156Y273699D01*
X581199Y273717D01*
X581246Y273725D01*
X581303Y273759D01*
X581363Y273784D01*
X581398Y273815D01*
X581439Y273840D01*
X581481Y273891D01*
X581529Y273935D01*
X581551Y273977D01*
X581580Y274014D01*
X581601Y274076D01*
X581632Y274135D01*
X581640Y274189D01*
X581652Y274226D01*
X581651Y274266D01*
X581659Y274320D01*
X581659Y276860D01*
X581648Y276925D01*
X581646Y276991D01*
X581628Y277034D01*
X581620Y277081D01*
X581586Y277138D01*
X581561Y277198D01*
X581530Y277233D01*
X581505Y277274D01*
X581454Y277316D01*
X581410Y277364D01*
X581368Y277386D01*
X581331Y277415D01*
X581269Y277436D01*
X581210Y277467D01*
X581156Y277475D01*
X581119Y277487D01*
X581079Y277486D01*
X581025Y277494D01*
X577215Y277494D01*
X577150Y277483D01*
X577084Y277481D01*
X577041Y277463D01*
X576994Y277455D01*
X576937Y277421D01*
X576877Y277396D01*
X576842Y277365D01*
X576801Y277340D01*
X576760Y277289D01*
X576711Y277245D01*
X576689Y277203D01*
X576660Y277166D01*
X576639Y277104D01*
X576608Y277045D01*
X576600Y276991D01*
X576588Y276954D01*
X576588Y276951D01*
X576589Y276914D01*
X576581Y276860D01*
X576581Y274320D01*
X576592Y274255D01*
X576594Y274189D01*
X576612Y274146D01*
X576620Y274099D01*
X576654Y274042D01*
X576679Y273982D01*
X576710Y273947D01*
X576735Y273906D01*
X576786Y273865D01*
X576830Y273816D01*
X576872Y273794D01*
X576909Y273765D01*
X576971Y273744D01*
X577030Y273713D01*
X577084Y273705D01*
X577121Y273693D01*
X577161Y273694D01*
X577215Y273686D01*
X581025Y273686D01*
X581090Y273697D01*
G37*
G36*
X1358330Y14617D02*
X1358330Y14617D01*
X1358396Y14619D01*
X1358439Y14637D01*
X1358486Y14645D01*
X1358543Y14679D01*
X1358603Y14704D01*
X1358638Y14735D01*
X1358679Y14760D01*
X1358721Y14811D01*
X1358769Y14855D01*
X1358791Y14897D01*
X1358820Y14934D01*
X1358841Y14996D01*
X1358872Y15055D01*
X1358880Y15109D01*
X1358892Y15146D01*
X1358891Y15186D01*
X1358899Y15240D01*
X1358899Y17780D01*
X1358888Y17845D01*
X1358886Y17911D01*
X1358868Y17954D01*
X1358860Y18001D01*
X1358826Y18058D01*
X1358801Y18118D01*
X1358770Y18153D01*
X1358745Y18194D01*
X1358694Y18236D01*
X1358650Y18284D01*
X1358608Y18306D01*
X1358571Y18335D01*
X1358509Y18356D01*
X1358450Y18387D01*
X1358396Y18395D01*
X1358359Y18407D01*
X1358319Y18406D01*
X1358265Y18414D01*
X1354455Y18414D01*
X1354390Y18403D01*
X1354324Y18401D01*
X1354281Y18383D01*
X1354234Y18375D01*
X1354177Y18341D01*
X1354117Y18316D01*
X1354082Y18285D01*
X1354041Y18260D01*
X1354000Y18209D01*
X1353951Y18165D01*
X1353929Y18123D01*
X1353900Y18086D01*
X1353879Y18024D01*
X1353848Y17965D01*
X1353840Y17911D01*
X1353828Y17874D01*
X1353828Y17871D01*
X1353829Y17834D01*
X1353821Y17780D01*
X1353821Y15240D01*
X1353832Y15175D01*
X1353834Y15109D01*
X1353852Y15066D01*
X1353860Y15019D01*
X1353894Y14962D01*
X1353919Y14902D01*
X1353950Y14867D01*
X1353975Y14826D01*
X1354026Y14785D01*
X1354070Y14736D01*
X1354112Y14714D01*
X1354149Y14685D01*
X1354211Y14664D01*
X1354270Y14633D01*
X1354324Y14625D01*
X1354361Y14613D01*
X1354401Y14614D01*
X1354455Y14606D01*
X1358265Y14606D01*
X1358330Y14617D01*
G37*
G36*
X1099250Y14617D02*
X1099250Y14617D01*
X1099316Y14619D01*
X1099359Y14637D01*
X1099406Y14645D01*
X1099463Y14679D01*
X1099523Y14704D01*
X1099558Y14735D01*
X1099599Y14760D01*
X1099641Y14811D01*
X1099689Y14855D01*
X1099711Y14897D01*
X1099740Y14934D01*
X1099761Y14996D01*
X1099792Y15055D01*
X1099800Y15109D01*
X1099812Y15146D01*
X1099811Y15186D01*
X1099819Y15240D01*
X1099819Y17780D01*
X1099808Y17845D01*
X1099806Y17911D01*
X1099788Y17954D01*
X1099780Y18001D01*
X1099746Y18058D01*
X1099721Y18118D01*
X1099690Y18153D01*
X1099665Y18194D01*
X1099614Y18236D01*
X1099570Y18284D01*
X1099528Y18306D01*
X1099491Y18335D01*
X1099429Y18356D01*
X1099370Y18387D01*
X1099316Y18395D01*
X1099279Y18407D01*
X1099239Y18406D01*
X1099185Y18414D01*
X1095375Y18414D01*
X1095310Y18403D01*
X1095244Y18401D01*
X1095201Y18383D01*
X1095154Y18375D01*
X1095097Y18341D01*
X1095037Y18316D01*
X1095002Y18285D01*
X1094961Y18260D01*
X1094920Y18209D01*
X1094871Y18165D01*
X1094849Y18123D01*
X1094820Y18086D01*
X1094799Y18024D01*
X1094768Y17965D01*
X1094760Y17911D01*
X1094748Y17874D01*
X1094748Y17871D01*
X1094749Y17834D01*
X1094741Y17780D01*
X1094741Y15240D01*
X1094752Y15175D01*
X1094754Y15109D01*
X1094772Y15066D01*
X1094780Y15019D01*
X1094814Y14962D01*
X1094839Y14902D01*
X1094870Y14867D01*
X1094895Y14826D01*
X1094946Y14785D01*
X1094990Y14736D01*
X1095032Y14714D01*
X1095069Y14685D01*
X1095131Y14664D01*
X1095190Y14633D01*
X1095244Y14625D01*
X1095281Y14613D01*
X1095321Y14614D01*
X1095375Y14606D01*
X1099185Y14606D01*
X1099250Y14617D01*
G37*
G36*
X840170Y14617D02*
X840170Y14617D01*
X840236Y14619D01*
X840279Y14637D01*
X840326Y14645D01*
X840383Y14679D01*
X840443Y14704D01*
X840478Y14735D01*
X840519Y14760D01*
X840561Y14811D01*
X840609Y14855D01*
X840631Y14897D01*
X840660Y14934D01*
X840681Y14996D01*
X840712Y15055D01*
X840720Y15109D01*
X840732Y15146D01*
X840731Y15186D01*
X840739Y15240D01*
X840739Y17780D01*
X840728Y17845D01*
X840726Y17911D01*
X840708Y17954D01*
X840700Y18001D01*
X840666Y18058D01*
X840641Y18118D01*
X840610Y18153D01*
X840585Y18194D01*
X840534Y18236D01*
X840490Y18284D01*
X840448Y18306D01*
X840411Y18335D01*
X840349Y18356D01*
X840290Y18387D01*
X840236Y18395D01*
X840199Y18407D01*
X840159Y18406D01*
X840105Y18414D01*
X836295Y18414D01*
X836230Y18403D01*
X836164Y18401D01*
X836121Y18383D01*
X836074Y18375D01*
X836017Y18341D01*
X835957Y18316D01*
X835922Y18285D01*
X835881Y18260D01*
X835840Y18209D01*
X835791Y18165D01*
X835769Y18123D01*
X835740Y18086D01*
X835719Y18024D01*
X835688Y17965D01*
X835680Y17911D01*
X835668Y17874D01*
X835668Y17871D01*
X835669Y17834D01*
X835661Y17780D01*
X835661Y15240D01*
X835672Y15175D01*
X835674Y15109D01*
X835692Y15066D01*
X835700Y15019D01*
X835734Y14962D01*
X835759Y14902D01*
X835790Y14867D01*
X835815Y14826D01*
X835866Y14785D01*
X835910Y14736D01*
X835952Y14714D01*
X835989Y14685D01*
X836051Y14664D01*
X836110Y14633D01*
X836164Y14625D01*
X836201Y14613D01*
X836241Y14614D01*
X836295Y14606D01*
X840105Y14606D01*
X840170Y14617D01*
G37*
G36*
X581090Y14617D02*
X581090Y14617D01*
X581156Y14619D01*
X581199Y14637D01*
X581246Y14645D01*
X581303Y14679D01*
X581363Y14704D01*
X581398Y14735D01*
X581439Y14760D01*
X581481Y14811D01*
X581529Y14855D01*
X581551Y14897D01*
X581580Y14934D01*
X581601Y14996D01*
X581632Y15055D01*
X581640Y15109D01*
X581652Y15146D01*
X581651Y15186D01*
X581659Y15240D01*
X581659Y17780D01*
X581648Y17845D01*
X581646Y17911D01*
X581628Y17954D01*
X581620Y18001D01*
X581586Y18058D01*
X581561Y18118D01*
X581530Y18153D01*
X581505Y18194D01*
X581454Y18236D01*
X581410Y18284D01*
X581368Y18306D01*
X581331Y18335D01*
X581269Y18356D01*
X581210Y18387D01*
X581156Y18395D01*
X581119Y18407D01*
X581079Y18406D01*
X581025Y18414D01*
X577215Y18414D01*
X577150Y18403D01*
X577084Y18401D01*
X577041Y18383D01*
X576994Y18375D01*
X576937Y18341D01*
X576877Y18316D01*
X576842Y18285D01*
X576801Y18260D01*
X576760Y18209D01*
X576711Y18165D01*
X576689Y18123D01*
X576660Y18086D01*
X576639Y18024D01*
X576608Y17965D01*
X576600Y17911D01*
X576588Y17874D01*
X576588Y17871D01*
X576589Y17834D01*
X576581Y17780D01*
X576581Y15240D01*
X576592Y15175D01*
X576594Y15109D01*
X576612Y15066D01*
X576620Y15019D01*
X576654Y14962D01*
X576679Y14902D01*
X576710Y14867D01*
X576735Y14826D01*
X576786Y14785D01*
X576830Y14736D01*
X576872Y14714D01*
X576909Y14685D01*
X576971Y14664D01*
X577030Y14633D01*
X577084Y14625D01*
X577121Y14613D01*
X577161Y14614D01*
X577215Y14606D01*
X581025Y14606D01*
X581090Y14617D01*
G37*
G36*
X322010Y14617D02*
X322010Y14617D01*
X322076Y14619D01*
X322119Y14637D01*
X322166Y14645D01*
X322223Y14679D01*
X322283Y14704D01*
X322318Y14735D01*
X322359Y14760D01*
X322401Y14811D01*
X322449Y14855D01*
X322471Y14897D01*
X322500Y14934D01*
X322521Y14996D01*
X322552Y15055D01*
X322560Y15109D01*
X322572Y15146D01*
X322571Y15186D01*
X322579Y15240D01*
X322579Y17780D01*
X322568Y17845D01*
X322566Y17911D01*
X322548Y17954D01*
X322540Y18001D01*
X322506Y18058D01*
X322481Y18118D01*
X322450Y18153D01*
X322425Y18194D01*
X322374Y18236D01*
X322330Y18284D01*
X322288Y18306D01*
X322251Y18335D01*
X322189Y18356D01*
X322130Y18387D01*
X322076Y18395D01*
X322039Y18407D01*
X321999Y18406D01*
X321945Y18414D01*
X318135Y18414D01*
X318070Y18403D01*
X318004Y18401D01*
X317961Y18383D01*
X317914Y18375D01*
X317857Y18341D01*
X317797Y18316D01*
X317762Y18285D01*
X317721Y18260D01*
X317680Y18209D01*
X317631Y18165D01*
X317609Y18123D01*
X317580Y18086D01*
X317559Y18024D01*
X317528Y17965D01*
X317520Y17911D01*
X317508Y17874D01*
X317508Y17871D01*
X317509Y17834D01*
X317501Y17780D01*
X317501Y15240D01*
X317512Y15175D01*
X317514Y15109D01*
X317532Y15066D01*
X317540Y15019D01*
X317574Y14962D01*
X317599Y14902D01*
X317630Y14867D01*
X317655Y14826D01*
X317706Y14785D01*
X317750Y14736D01*
X317792Y14714D01*
X317829Y14685D01*
X317891Y14664D01*
X317950Y14633D01*
X318004Y14625D01*
X318041Y14613D01*
X318081Y14614D01*
X318135Y14606D01*
X321945Y14606D01*
X322010Y14617D01*
G37*
G36*
X62930Y14617D02*
X62930Y14617D01*
X62996Y14619D01*
X63039Y14637D01*
X63086Y14645D01*
X63143Y14679D01*
X63203Y14704D01*
X63238Y14735D01*
X63279Y14760D01*
X63321Y14811D01*
X63369Y14855D01*
X63391Y14897D01*
X63420Y14934D01*
X63441Y14996D01*
X63472Y15055D01*
X63480Y15109D01*
X63492Y15146D01*
X63491Y15186D01*
X63499Y15240D01*
X63499Y17780D01*
X63488Y17845D01*
X63486Y17911D01*
X63468Y17954D01*
X63460Y18001D01*
X63426Y18058D01*
X63401Y18118D01*
X63370Y18153D01*
X63345Y18194D01*
X63294Y18236D01*
X63250Y18284D01*
X63208Y18306D01*
X63171Y18335D01*
X63109Y18356D01*
X63050Y18387D01*
X62996Y18395D01*
X62959Y18407D01*
X62919Y18406D01*
X62865Y18414D01*
X59055Y18414D01*
X58990Y18403D01*
X58924Y18401D01*
X58881Y18383D01*
X58834Y18375D01*
X58777Y18341D01*
X58717Y18316D01*
X58682Y18285D01*
X58641Y18260D01*
X58600Y18209D01*
X58551Y18165D01*
X58529Y18123D01*
X58500Y18086D01*
X58479Y18024D01*
X58448Y17965D01*
X58440Y17911D01*
X58428Y17874D01*
X58428Y17871D01*
X58429Y17834D01*
X58421Y17780D01*
X58421Y15240D01*
X58432Y15175D01*
X58434Y15109D01*
X58452Y15066D01*
X58460Y15019D01*
X58494Y14962D01*
X58519Y14902D01*
X58550Y14867D01*
X58575Y14826D01*
X58626Y14785D01*
X58670Y14736D01*
X58712Y14714D01*
X58749Y14685D01*
X58811Y14664D01*
X58870Y14633D01*
X58924Y14625D01*
X58961Y14613D01*
X59001Y14614D01*
X59055Y14606D01*
X62865Y14606D01*
X62930Y14617D01*
G37*
D10*
X139700Y85090D03*
X398780Y85090D03*
X657860Y85090D03*
X916940Y85090D03*
X1176020Y85090D03*
X1435100Y85090D03*
X139700Y344170D03*
X398780Y344170D03*
X657860Y344170D03*
X916940Y344170D03*
X1176020Y344170D03*
X1435100Y344170D03*
X139700Y603250D03*
X398780Y603250D03*
X657860Y603250D03*
X916940Y603250D03*
X1176020Y603250D03*
X1435100Y603250D03*
X139700Y862330D03*
X398780Y862330D03*
X657860Y862330D03*
X916940Y862330D03*
X1176020Y862330D03*
X1435100Y862330D03*
D11*
X247650Y6350D03*
X6350Y247650D03*
D12*
X36830Y177800D03*
D13*
X36830Y142800D03*
X36830Y107800D03*
X36830Y72800D03*
D14*
X127160Y238760D02*
X147160Y238760D01*
X90170Y218280D02*
X90170Y198280D01*
D15*
X125660Y179070D02*
X148660Y179070D01*
D16*
X241300Y177800D03*
X241300Y152400D03*
X241300Y127000D03*
X241300Y101600D03*
X241300Y76200D03*
D17*
X68963Y22354D02*
X63371Y22354D01*
X68963Y22354D02*
X68963Y10666D01*
X63371Y10666D01*
X63371Y22354D01*
X63371Y12835D02*
X68963Y12835D01*
X68963Y15004D02*
X63371Y15004D01*
X63371Y17173D02*
X68963Y17173D01*
X68963Y19342D02*
X63371Y19342D01*
X63371Y21511D02*
X68963Y21511D01*
X58549Y22354D02*
X52957Y22354D01*
X58549Y22354D02*
X58549Y10666D01*
X52957Y10666D01*
X52957Y22354D01*
X52957Y12835D02*
X58549Y12835D01*
X58549Y15004D02*
X52957Y15004D01*
X52957Y17173D02*
X58549Y17173D01*
X58549Y19342D02*
X52957Y19342D01*
X52957Y21511D02*
X58549Y21511D01*
D18*
X25400Y25400D03*
X228600Y25400D03*
X228600Y228600D03*
X25400Y228600D03*
D11*
X506730Y6350D03*
X265430Y247650D03*
D12*
X295910Y177800D03*
D13*
X295910Y142800D03*
X295910Y107800D03*
X295910Y72800D03*
D14*
X386240Y238760D02*
X406240Y238760D01*
X349250Y218280D02*
X349250Y198280D01*
D15*
X384740Y179070D02*
X407740Y179070D01*
D16*
X500380Y177800D03*
X500380Y152400D03*
X500380Y127000D03*
X500380Y101600D03*
X500380Y76200D03*
D17*
X328043Y22354D02*
X322451Y22354D01*
X328043Y22354D02*
X328043Y10666D01*
X322451Y10666D01*
X322451Y22354D01*
X322451Y12835D02*
X328043Y12835D01*
X328043Y15004D02*
X322451Y15004D01*
X322451Y17173D02*
X328043Y17173D01*
X328043Y19342D02*
X322451Y19342D01*
X322451Y21511D02*
X328043Y21511D01*
X317629Y22354D02*
X312037Y22354D01*
X317629Y22354D02*
X317629Y10666D01*
X312037Y10666D01*
X312037Y22354D01*
X312037Y12835D02*
X317629Y12835D01*
X317629Y15004D02*
X312037Y15004D01*
X312037Y17173D02*
X317629Y17173D01*
X317629Y19342D02*
X312037Y19342D01*
X312037Y21511D02*
X317629Y21511D01*
D18*
X284480Y25400D03*
X487680Y25400D03*
X487680Y228600D03*
X284480Y228600D03*
D11*
X765810Y6350D03*
X524510Y247650D03*
D12*
X554990Y177800D03*
D13*
X554990Y142800D03*
X554990Y107800D03*
X554990Y72800D03*
D14*
X645320Y238760D02*
X665320Y238760D01*
X608330Y218280D02*
X608330Y198280D01*
D15*
X643820Y179070D02*
X666820Y179070D01*
D16*
X759460Y177800D03*
X759460Y152400D03*
X759460Y127000D03*
X759460Y101600D03*
X759460Y76200D03*
D17*
X587123Y22354D02*
X581531Y22354D01*
X587123Y22354D02*
X587123Y10666D01*
X581531Y10666D01*
X581531Y22354D01*
X581531Y12835D02*
X587123Y12835D01*
X587123Y15004D02*
X581531Y15004D01*
X581531Y17173D02*
X587123Y17173D01*
X587123Y19342D02*
X581531Y19342D01*
X581531Y21511D02*
X587123Y21511D01*
X576709Y22354D02*
X571117Y22354D01*
X576709Y22354D02*
X576709Y10666D01*
X571117Y10666D01*
X571117Y22354D01*
X571117Y12835D02*
X576709Y12835D01*
X576709Y15004D02*
X571117Y15004D01*
X571117Y17173D02*
X576709Y17173D01*
X576709Y19342D02*
X571117Y19342D01*
X571117Y21511D02*
X576709Y21511D01*
D18*
X543560Y25400D03*
X746760Y25400D03*
X746760Y228600D03*
X543560Y228600D03*
D11*
X1024890Y6350D03*
X783590Y247650D03*
D12*
X814070Y177800D03*
D13*
X814070Y142800D03*
X814070Y107800D03*
X814070Y72800D03*
D14*
X904400Y238760D02*
X924400Y238760D01*
X867410Y218280D02*
X867410Y198280D01*
D15*
X902900Y179070D02*
X925900Y179070D01*
D16*
X1018540Y177800D03*
X1018540Y152400D03*
X1018540Y127000D03*
X1018540Y101600D03*
X1018540Y76200D03*
D17*
X846203Y22354D02*
X840611Y22354D01*
X846203Y22354D02*
X846203Y10666D01*
X840611Y10666D01*
X840611Y22354D01*
X840611Y12835D02*
X846203Y12835D01*
X846203Y15004D02*
X840611Y15004D01*
X840611Y17173D02*
X846203Y17173D01*
X846203Y19342D02*
X840611Y19342D01*
X840611Y21511D02*
X846203Y21511D01*
X835789Y22354D02*
X830197Y22354D01*
X835789Y22354D02*
X835789Y10666D01*
X830197Y10666D01*
X830197Y22354D01*
X830197Y12835D02*
X835789Y12835D01*
X835789Y15004D02*
X830197Y15004D01*
X830197Y17173D02*
X835789Y17173D01*
X835789Y19342D02*
X830197Y19342D01*
X830197Y21511D02*
X835789Y21511D01*
D18*
X802640Y25400D03*
X1005840Y25400D03*
X1005840Y228600D03*
X802640Y228600D03*
D11*
X1283970Y6350D03*
X1042670Y247650D03*
D12*
X1073150Y177800D03*
D13*
X1073150Y142800D03*
X1073150Y107800D03*
X1073150Y72800D03*
D14*
X1163480Y238760D02*
X1183480Y238760D01*
X1126490Y218280D02*
X1126490Y198280D01*
D15*
X1161980Y179070D02*
X1184980Y179070D01*
D16*
X1277620Y177800D03*
X1277620Y152400D03*
X1277620Y127000D03*
X1277620Y101600D03*
X1277620Y76200D03*
D17*
X1105283Y22354D02*
X1099691Y22354D01*
X1105283Y22354D02*
X1105283Y10666D01*
X1099691Y10666D01*
X1099691Y22354D01*
X1099691Y12835D02*
X1105283Y12835D01*
X1105283Y15004D02*
X1099691Y15004D01*
X1099691Y17173D02*
X1105283Y17173D01*
X1105283Y19342D02*
X1099691Y19342D01*
X1099691Y21511D02*
X1105283Y21511D01*
X1094869Y22354D02*
X1089277Y22354D01*
X1094869Y22354D02*
X1094869Y10666D01*
X1089277Y10666D01*
X1089277Y22354D01*
X1089277Y12835D02*
X1094869Y12835D01*
X1094869Y15004D02*
X1089277Y15004D01*
X1089277Y17173D02*
X1094869Y17173D01*
X1094869Y19342D02*
X1089277Y19342D01*
X1089277Y21511D02*
X1094869Y21511D01*
D18*
X1061720Y25400D03*
X1264920Y25400D03*
X1264920Y228600D03*
X1061720Y228600D03*
D11*
X1543050Y6350D03*
X1301750Y247650D03*
D12*
X1332230Y177800D03*
D13*
X1332230Y142800D03*
X1332230Y107800D03*
X1332230Y72800D03*
D14*
X1422560Y238760D02*
X1442560Y238760D01*
X1385570Y218280D02*
X1385570Y198280D01*
D15*
X1421060Y179070D02*
X1444060Y179070D01*
D16*
X1536700Y177800D03*
X1536700Y152400D03*
X1536700Y127000D03*
X1536700Y101600D03*
X1536700Y76200D03*
D17*
X1364363Y22354D02*
X1358771Y22354D01*
X1364363Y22354D02*
X1364363Y10666D01*
X1358771Y10666D01*
X1358771Y22354D01*
X1358771Y12835D02*
X1364363Y12835D01*
X1364363Y15004D02*
X1358771Y15004D01*
X1358771Y17173D02*
X1364363Y17173D01*
X1364363Y19342D02*
X1358771Y19342D01*
X1358771Y21511D02*
X1364363Y21511D01*
X1353949Y22354D02*
X1348357Y22354D01*
X1353949Y22354D02*
X1353949Y10666D01*
X1348357Y10666D01*
X1348357Y22354D01*
X1348357Y12835D02*
X1353949Y12835D01*
X1353949Y15004D02*
X1348357Y15004D01*
X1348357Y17173D02*
X1353949Y17173D01*
X1353949Y19342D02*
X1348357Y19342D01*
X1348357Y21511D02*
X1353949Y21511D01*
D18*
X1320800Y25400D03*
X1524000Y25400D03*
X1524000Y228600D03*
X1320800Y228600D03*
D11*
X247650Y265430D03*
X6350Y506730D03*
D12*
X36830Y436880D03*
D13*
X36830Y401880D03*
X36830Y366880D03*
X36830Y331880D03*
D14*
X127160Y497840D02*
X147160Y497840D01*
X90170Y477360D02*
X90170Y457360D01*
D15*
X125660Y438150D02*
X148660Y438150D01*
D16*
X241300Y436880D03*
X241300Y411480D03*
X241300Y386080D03*
X241300Y360680D03*
X241300Y335280D03*
D17*
X68963Y281434D02*
X63371Y281434D01*
X68963Y281434D02*
X68963Y269746D01*
X63371Y269746D01*
X63371Y281434D01*
X63371Y271915D02*
X68963Y271915D01*
X68963Y274084D02*
X63371Y274084D01*
X63371Y276253D02*
X68963Y276253D01*
X68963Y278422D02*
X63371Y278422D01*
X63371Y280591D02*
X68963Y280591D01*
X58549Y281434D02*
X52957Y281434D01*
X58549Y281434D02*
X58549Y269746D01*
X52957Y269746D01*
X52957Y281434D01*
X52957Y271915D02*
X58549Y271915D01*
X58549Y274084D02*
X52957Y274084D01*
X52957Y276253D02*
X58549Y276253D01*
X58549Y278422D02*
X52957Y278422D01*
X52957Y280591D02*
X58549Y280591D01*
D18*
X25400Y284480D03*
X228600Y284480D03*
X228600Y487680D03*
X25400Y487680D03*
D11*
X506730Y265430D03*
X265430Y506730D03*
D12*
X295910Y436880D03*
D13*
X295910Y401880D03*
X295910Y366880D03*
X295910Y331880D03*
D14*
X386240Y497840D02*
X406240Y497840D01*
X349250Y477360D02*
X349250Y457360D01*
D15*
X384740Y438150D02*
X407740Y438150D01*
D16*
X500380Y436880D03*
X500380Y411480D03*
X500380Y386080D03*
X500380Y360680D03*
X500380Y335280D03*
D17*
X328043Y281434D02*
X322451Y281434D01*
X328043Y281434D02*
X328043Y269746D01*
X322451Y269746D01*
X322451Y281434D01*
X322451Y271915D02*
X328043Y271915D01*
X328043Y274084D02*
X322451Y274084D01*
X322451Y276253D02*
X328043Y276253D01*
X328043Y278422D02*
X322451Y278422D01*
X322451Y280591D02*
X328043Y280591D01*
X317629Y281434D02*
X312037Y281434D01*
X317629Y281434D02*
X317629Y269746D01*
X312037Y269746D01*
X312037Y281434D01*
X312037Y271915D02*
X317629Y271915D01*
X317629Y274084D02*
X312037Y274084D01*
X312037Y276253D02*
X317629Y276253D01*
X317629Y278422D02*
X312037Y278422D01*
X312037Y280591D02*
X317629Y280591D01*
D18*
X284480Y284480D03*
X487680Y284480D03*
X487680Y487680D03*
X284480Y487680D03*
D11*
X765810Y265430D03*
X524510Y506730D03*
D12*
X554990Y436880D03*
D13*
X554990Y401880D03*
X554990Y366880D03*
X554990Y331880D03*
D14*
X645320Y497840D02*
X665320Y497840D01*
X608330Y477360D02*
X608330Y457360D01*
D15*
X643820Y438150D02*
X666820Y438150D01*
D16*
X759460Y436880D03*
X759460Y411480D03*
X759460Y386080D03*
X759460Y360680D03*
X759460Y335280D03*
D17*
X587123Y281434D02*
X581531Y281434D01*
X587123Y281434D02*
X587123Y269746D01*
X581531Y269746D01*
X581531Y281434D01*
X581531Y271915D02*
X587123Y271915D01*
X587123Y274084D02*
X581531Y274084D01*
X581531Y276253D02*
X587123Y276253D01*
X587123Y278422D02*
X581531Y278422D01*
X581531Y280591D02*
X587123Y280591D01*
X576709Y281434D02*
X571117Y281434D01*
X576709Y281434D02*
X576709Y269746D01*
X571117Y269746D01*
X571117Y281434D01*
X571117Y271915D02*
X576709Y271915D01*
X576709Y274084D02*
X571117Y274084D01*
X571117Y276253D02*
X576709Y276253D01*
X576709Y278422D02*
X571117Y278422D01*
X571117Y280591D02*
X576709Y280591D01*
D18*
X543560Y284480D03*
X746760Y284480D03*
X746760Y487680D03*
X543560Y487680D03*
D11*
X1024890Y265430D03*
X783590Y506730D03*
D12*
X814070Y436880D03*
D13*
X814070Y401880D03*
X814070Y366880D03*
X814070Y331880D03*
D14*
X904400Y497840D02*
X924400Y497840D01*
X867410Y477360D02*
X867410Y457360D01*
D15*
X902900Y438150D02*
X925900Y438150D01*
D16*
X1018540Y436880D03*
X1018540Y411480D03*
X1018540Y386080D03*
X1018540Y360680D03*
X1018540Y335280D03*
D17*
X846203Y281434D02*
X840611Y281434D01*
X846203Y281434D02*
X846203Y269746D01*
X840611Y269746D01*
X840611Y281434D01*
X840611Y271915D02*
X846203Y271915D01*
X846203Y274084D02*
X840611Y274084D01*
X840611Y276253D02*
X846203Y276253D01*
X846203Y278422D02*
X840611Y278422D01*
X840611Y280591D02*
X846203Y280591D01*
X835789Y281434D02*
X830197Y281434D01*
X835789Y281434D02*
X835789Y269746D01*
X830197Y269746D01*
X830197Y281434D01*
X830197Y271915D02*
X835789Y271915D01*
X835789Y274084D02*
X830197Y274084D01*
X830197Y276253D02*
X835789Y276253D01*
X835789Y278422D02*
X830197Y278422D01*
X830197Y280591D02*
X835789Y280591D01*
D18*
X802640Y284480D03*
X1005840Y284480D03*
X1005840Y487680D03*
X802640Y487680D03*
D11*
X1283970Y265430D03*
X1042670Y506730D03*
D12*
X1073150Y436880D03*
D13*
X1073150Y401880D03*
X1073150Y366880D03*
X1073150Y331880D03*
D14*
X1163480Y497840D02*
X1183480Y497840D01*
X1126490Y477360D02*
X1126490Y457360D01*
D15*
X1161980Y438150D02*
X1184980Y438150D01*
D16*
X1277620Y436880D03*
X1277620Y411480D03*
X1277620Y386080D03*
X1277620Y360680D03*
X1277620Y335280D03*
D17*
X1105283Y281434D02*
X1099691Y281434D01*
X1105283Y281434D02*
X1105283Y269746D01*
X1099691Y269746D01*
X1099691Y281434D01*
X1099691Y271915D02*
X1105283Y271915D01*
X1105283Y274084D02*
X1099691Y274084D01*
X1099691Y276253D02*
X1105283Y276253D01*
X1105283Y278422D02*
X1099691Y278422D01*
X1099691Y280591D02*
X1105283Y280591D01*
X1094869Y281434D02*
X1089277Y281434D01*
X1094869Y281434D02*
X1094869Y269746D01*
X1089277Y269746D01*
X1089277Y281434D01*
X1089277Y271915D02*
X1094869Y271915D01*
X1094869Y274084D02*
X1089277Y274084D01*
X1089277Y276253D02*
X1094869Y276253D01*
X1094869Y278422D02*
X1089277Y278422D01*
X1089277Y280591D02*
X1094869Y280591D01*
D18*
X1061720Y284480D03*
X1264920Y284480D03*
X1264920Y487680D03*
X1061720Y487680D03*
D11*
X1543050Y265430D03*
X1301750Y506730D03*
D12*
X1332230Y436880D03*
D13*
X1332230Y401880D03*
X1332230Y366880D03*
X1332230Y331880D03*
D14*
X1422560Y497840D02*
X1442560Y497840D01*
X1385570Y477360D02*
X1385570Y457360D01*
D15*
X1421060Y438150D02*
X1444060Y438150D01*
D16*
X1536700Y436880D03*
X1536700Y411480D03*
X1536700Y386080D03*
X1536700Y360680D03*
X1536700Y335280D03*
D17*
X1364363Y281434D02*
X1358771Y281434D01*
X1364363Y281434D02*
X1364363Y269746D01*
X1358771Y269746D01*
X1358771Y281434D01*
X1358771Y271915D02*
X1364363Y271915D01*
X1364363Y274084D02*
X1358771Y274084D01*
X1358771Y276253D02*
X1364363Y276253D01*
X1364363Y278422D02*
X1358771Y278422D01*
X1358771Y280591D02*
X1364363Y280591D01*
X1353949Y281434D02*
X1348357Y281434D01*
X1353949Y281434D02*
X1353949Y269746D01*
X1348357Y269746D01*
X1348357Y281434D01*
X1348357Y271915D02*
X1353949Y271915D01*
X1353949Y274084D02*
X1348357Y274084D01*
X1348357Y276253D02*
X1353949Y276253D01*
X1353949Y278422D02*
X1348357Y278422D01*
X1348357Y280591D02*
X1353949Y280591D01*
D18*
X1320800Y284480D03*
X1524000Y284480D03*
X1524000Y487680D03*
X1320800Y487680D03*
D11*
X247650Y524510D03*
X6350Y765810D03*
D12*
X36830Y695960D03*
D13*
X36830Y660960D03*
X36830Y625960D03*
X36830Y590960D03*
D14*
X127160Y756920D02*
X147160Y756920D01*
X90170Y736440D02*
X90170Y716440D01*
D15*
X125660Y697230D02*
X148660Y697230D01*
D16*
X241300Y695960D03*
X241300Y670560D03*
X241300Y645160D03*
X241300Y619760D03*
X241300Y594360D03*
D17*
X68963Y540514D02*
X63371Y540514D01*
X68963Y540514D02*
X68963Y528826D01*
X63371Y528826D01*
X63371Y540514D01*
X63371Y530995D02*
X68963Y530995D01*
X68963Y533164D02*
X63371Y533164D01*
X63371Y535333D02*
X68963Y535333D01*
X68963Y537502D02*
X63371Y537502D01*
X63371Y539671D02*
X68963Y539671D01*
X58549Y540514D02*
X52957Y540514D01*
X58549Y540514D02*
X58549Y528826D01*
X52957Y528826D01*
X52957Y540514D01*
X52957Y530995D02*
X58549Y530995D01*
X58549Y533164D02*
X52957Y533164D01*
X52957Y535333D02*
X58549Y535333D01*
X58549Y537502D02*
X52957Y537502D01*
X52957Y539671D02*
X58549Y539671D01*
D18*
X25400Y543560D03*
X228600Y543560D03*
X228600Y746760D03*
X25400Y746760D03*
D11*
X506730Y524510D03*
X265430Y765810D03*
D12*
X295910Y695960D03*
D13*
X295910Y660960D03*
X295910Y625960D03*
X295910Y590960D03*
D14*
X386240Y756920D02*
X406240Y756920D01*
X349250Y736440D02*
X349250Y716440D01*
D15*
X384740Y697230D02*
X407740Y697230D01*
D16*
X500380Y695960D03*
X500380Y670560D03*
X500380Y645160D03*
X500380Y619760D03*
X500380Y594360D03*
D17*
X328043Y540514D02*
X322451Y540514D01*
X328043Y540514D02*
X328043Y528826D01*
X322451Y528826D01*
X322451Y540514D01*
X322451Y530995D02*
X328043Y530995D01*
X328043Y533164D02*
X322451Y533164D01*
X322451Y535333D02*
X328043Y535333D01*
X328043Y537502D02*
X322451Y537502D01*
X322451Y539671D02*
X328043Y539671D01*
X317629Y540514D02*
X312037Y540514D01*
X317629Y540514D02*
X317629Y528826D01*
X312037Y528826D01*
X312037Y540514D01*
X312037Y530995D02*
X317629Y530995D01*
X317629Y533164D02*
X312037Y533164D01*
X312037Y535333D02*
X317629Y535333D01*
X317629Y537502D02*
X312037Y537502D01*
X312037Y539671D02*
X317629Y539671D01*
D18*
X284480Y543560D03*
X487680Y543560D03*
X487680Y746760D03*
X284480Y746760D03*
D11*
X765810Y524510D03*
X524510Y765810D03*
D12*
X554990Y695960D03*
D13*
X554990Y660960D03*
X554990Y625960D03*
X554990Y590960D03*
D14*
X645320Y756920D02*
X665320Y756920D01*
X608330Y736440D02*
X608330Y716440D01*
D15*
X643820Y697230D02*
X666820Y697230D01*
D16*
X759460Y695960D03*
X759460Y670560D03*
X759460Y645160D03*
X759460Y619760D03*
X759460Y594360D03*
D17*
X587123Y540514D02*
X581531Y540514D01*
X587123Y540514D02*
X587123Y528826D01*
X581531Y528826D01*
X581531Y540514D01*
X581531Y530995D02*
X587123Y530995D01*
X587123Y533164D02*
X581531Y533164D01*
X581531Y535333D02*
X587123Y535333D01*
X587123Y537502D02*
X581531Y537502D01*
X581531Y539671D02*
X587123Y539671D01*
X576709Y540514D02*
X571117Y540514D01*
X576709Y540514D02*
X576709Y528826D01*
X571117Y528826D01*
X571117Y540514D01*
X571117Y530995D02*
X576709Y530995D01*
X576709Y533164D02*
X571117Y533164D01*
X571117Y535333D02*
X576709Y535333D01*
X576709Y537502D02*
X571117Y537502D01*
X571117Y539671D02*
X576709Y539671D01*
D18*
X543560Y543560D03*
X746760Y543560D03*
X746760Y746760D03*
X543560Y746760D03*
D11*
X1024890Y524510D03*
X783590Y765810D03*
D12*
X814070Y695960D03*
D13*
X814070Y660960D03*
X814070Y625960D03*
X814070Y590960D03*
D14*
X904400Y756920D02*
X924400Y756920D01*
X867410Y736440D02*
X867410Y716440D01*
D15*
X902900Y697230D02*
X925900Y697230D01*
D16*
X1018540Y695960D03*
X1018540Y670560D03*
X1018540Y645160D03*
X1018540Y619760D03*
X1018540Y594360D03*
D17*
X846203Y540514D02*
X840611Y540514D01*
X846203Y540514D02*
X846203Y528826D01*
X840611Y528826D01*
X840611Y540514D01*
X840611Y530995D02*
X846203Y530995D01*
X846203Y533164D02*
X840611Y533164D01*
X840611Y535333D02*
X846203Y535333D01*
X846203Y537502D02*
X840611Y537502D01*
X840611Y539671D02*
X846203Y539671D01*
X835789Y540514D02*
X830197Y540514D01*
X835789Y540514D02*
X835789Y528826D01*
X830197Y528826D01*
X830197Y540514D01*
X830197Y530995D02*
X835789Y530995D01*
X835789Y533164D02*
X830197Y533164D01*
X830197Y535333D02*
X835789Y535333D01*
X835789Y537502D02*
X830197Y537502D01*
X830197Y539671D02*
X835789Y539671D01*
D18*
X802640Y543560D03*
X1005840Y543560D03*
X1005840Y746760D03*
X802640Y746760D03*
D11*
X1283970Y524510D03*
X1042670Y765810D03*
D12*
X1073150Y695960D03*
D13*
X1073150Y660960D03*
X1073150Y625960D03*
X1073150Y590960D03*
D14*
X1163480Y756920D02*
X1183480Y756920D01*
X1126490Y736440D02*
X1126490Y716440D01*
D15*
X1161980Y697230D02*
X1184980Y697230D01*
D16*
X1277620Y695960D03*
X1277620Y670560D03*
X1277620Y645160D03*
X1277620Y619760D03*
X1277620Y594360D03*
D17*
X1105283Y540514D02*
X1099691Y540514D01*
X1105283Y540514D02*
X1105283Y528826D01*
X1099691Y528826D01*
X1099691Y540514D01*
X1099691Y530995D02*
X1105283Y530995D01*
X1105283Y533164D02*
X1099691Y533164D01*
X1099691Y535333D02*
X1105283Y535333D01*
X1105283Y537502D02*
X1099691Y537502D01*
X1099691Y539671D02*
X1105283Y539671D01*
X1094869Y540514D02*
X1089277Y540514D01*
X1094869Y540514D02*
X1094869Y528826D01*
X1089277Y528826D01*
X1089277Y540514D01*
X1089277Y530995D02*
X1094869Y530995D01*
X1094869Y533164D02*
X1089277Y533164D01*
X1089277Y535333D02*
X1094869Y535333D01*
X1094869Y537502D02*
X1089277Y537502D01*
X1089277Y539671D02*
X1094869Y539671D01*
D18*
X1061720Y543560D03*
X1264920Y543560D03*
X1264920Y746760D03*
X1061720Y746760D03*
D11*
X1543050Y524510D03*
X1301750Y765810D03*
D12*
X1332230Y695960D03*
D13*
X1332230Y660960D03*
X1332230Y625960D03*
X1332230Y590960D03*
D14*
X1422560Y756920D02*
X1442560Y756920D01*
X1385570Y736440D02*
X1385570Y716440D01*
D15*
X1421060Y697230D02*
X1444060Y697230D01*
D16*
X1536700Y695960D03*
X1536700Y670560D03*
X1536700Y645160D03*
X1536700Y619760D03*
X1536700Y594360D03*
D17*
X1364363Y540514D02*
X1358771Y540514D01*
X1364363Y540514D02*
X1364363Y528826D01*
X1358771Y528826D01*
X1358771Y540514D01*
X1358771Y530995D02*
X1364363Y530995D01*
X1364363Y533164D02*
X1358771Y533164D01*
X1358771Y535333D02*
X1364363Y535333D01*
X1364363Y537502D02*
X1358771Y537502D01*
X1358771Y539671D02*
X1364363Y539671D01*
X1353949Y540514D02*
X1348357Y540514D01*
X1353949Y540514D02*
X1353949Y528826D01*
X1348357Y528826D01*
X1348357Y540514D01*
X1348357Y530995D02*
X1353949Y530995D01*
X1353949Y533164D02*
X1348357Y533164D01*
X1348357Y535333D02*
X1353949Y535333D01*
X1353949Y537502D02*
X1348357Y537502D01*
X1348357Y539671D02*
X1353949Y539671D01*
D18*
X1320800Y543560D03*
X1524000Y543560D03*
X1524000Y746760D03*
X1320800Y746760D03*
D11*
X247650Y783590D03*
X6350Y1024890D03*
D12*
X36830Y955040D03*
D13*
X36830Y920040D03*
X36830Y885040D03*
X36830Y850040D03*
D14*
X127160Y1016000D02*
X147160Y1016000D01*
X90170Y995520D02*
X90170Y975520D01*
D15*
X125660Y956310D02*
X148660Y956310D01*
D16*
X241300Y955040D03*
X241300Y929640D03*
X241300Y904240D03*
X241300Y878840D03*
X241300Y853440D03*
D17*
X68963Y799594D02*
X63371Y799594D01*
X68963Y799594D02*
X68963Y787906D01*
X63371Y787906D01*
X63371Y799594D01*
X63371Y790075D02*
X68963Y790075D01*
X68963Y792244D02*
X63371Y792244D01*
X63371Y794413D02*
X68963Y794413D01*
X68963Y796582D02*
X63371Y796582D01*
X63371Y798751D02*
X68963Y798751D01*
X58549Y799594D02*
X52957Y799594D01*
X58549Y799594D02*
X58549Y787906D01*
X52957Y787906D01*
X52957Y799594D01*
X52957Y790075D02*
X58549Y790075D01*
X58549Y792244D02*
X52957Y792244D01*
X52957Y794413D02*
X58549Y794413D01*
X58549Y796582D02*
X52957Y796582D01*
X52957Y798751D02*
X58549Y798751D01*
D18*
X25400Y802640D03*
X228600Y802640D03*
X228600Y1005840D03*
X25400Y1005840D03*
D11*
X506730Y783590D03*
X265430Y1024890D03*
D12*
X295910Y955040D03*
D13*
X295910Y920040D03*
X295910Y885040D03*
X295910Y850040D03*
D14*
X386240Y1016000D02*
X406240Y1016000D01*
X349250Y995520D02*
X349250Y975520D01*
D15*
X384740Y956310D02*
X407740Y956310D01*
D16*
X500380Y955040D03*
X500380Y929640D03*
X500380Y904240D03*
X500380Y878840D03*
X500380Y853440D03*
D17*
X328043Y799594D02*
X322451Y799594D01*
X328043Y799594D02*
X328043Y787906D01*
X322451Y787906D01*
X322451Y799594D01*
X322451Y790075D02*
X328043Y790075D01*
X328043Y792244D02*
X322451Y792244D01*
X322451Y794413D02*
X328043Y794413D01*
X328043Y796582D02*
X322451Y796582D01*
X322451Y798751D02*
X328043Y798751D01*
X317629Y799594D02*
X312037Y799594D01*
X317629Y799594D02*
X317629Y787906D01*
X312037Y787906D01*
X312037Y799594D01*
X312037Y790075D02*
X317629Y790075D01*
X317629Y792244D02*
X312037Y792244D01*
X312037Y794413D02*
X317629Y794413D01*
X317629Y796582D02*
X312037Y796582D01*
X312037Y798751D02*
X317629Y798751D01*
D18*
X284480Y802640D03*
X487680Y802640D03*
X487680Y1005840D03*
X284480Y1005840D03*
D11*
X765810Y783590D03*
X524510Y1024890D03*
D12*
X554990Y955040D03*
D13*
X554990Y920040D03*
X554990Y885040D03*
X554990Y850040D03*
D14*
X645320Y1016000D02*
X665320Y1016000D01*
X608330Y995520D02*
X608330Y975520D01*
D15*
X643820Y956310D02*
X666820Y956310D01*
D16*
X759460Y955040D03*
X759460Y929640D03*
X759460Y904240D03*
X759460Y878840D03*
X759460Y853440D03*
D17*
X587123Y799594D02*
X581531Y799594D01*
X587123Y799594D02*
X587123Y787906D01*
X581531Y787906D01*
X581531Y799594D01*
X581531Y790075D02*
X587123Y790075D01*
X587123Y792244D02*
X581531Y792244D01*
X581531Y794413D02*
X587123Y794413D01*
X587123Y796582D02*
X581531Y796582D01*
X581531Y798751D02*
X587123Y798751D01*
X576709Y799594D02*
X571117Y799594D01*
X576709Y799594D02*
X576709Y787906D01*
X571117Y787906D01*
X571117Y799594D01*
X571117Y790075D02*
X576709Y790075D01*
X576709Y792244D02*
X571117Y792244D01*
X571117Y794413D02*
X576709Y794413D01*
X576709Y796582D02*
X571117Y796582D01*
X571117Y798751D02*
X576709Y798751D01*
D18*
X543560Y802640D03*
X746760Y802640D03*
X746760Y1005840D03*
X543560Y1005840D03*
D11*
X1024890Y783590D03*
X783590Y1024890D03*
D12*
X814070Y955040D03*
D13*
X814070Y920040D03*
X814070Y885040D03*
X814070Y850040D03*
D14*
X904400Y1016000D02*
X924400Y1016000D01*
X867410Y995520D02*
X867410Y975520D01*
D15*
X902900Y956310D02*
X925900Y956310D01*
D16*
X1018540Y955040D03*
X1018540Y929640D03*
X1018540Y904240D03*
X1018540Y878840D03*
X1018540Y853440D03*
D17*
X846203Y799594D02*
X840611Y799594D01*
X846203Y799594D02*
X846203Y787906D01*
X840611Y787906D01*
X840611Y799594D01*
X840611Y790075D02*
X846203Y790075D01*
X846203Y792244D02*
X840611Y792244D01*
X840611Y794413D02*
X846203Y794413D01*
X846203Y796582D02*
X840611Y796582D01*
X840611Y798751D02*
X846203Y798751D01*
X835789Y799594D02*
X830197Y799594D01*
X835789Y799594D02*
X835789Y787906D01*
X830197Y787906D01*
X830197Y799594D01*
X830197Y790075D02*
X835789Y790075D01*
X835789Y792244D02*
X830197Y792244D01*
X830197Y794413D02*
X835789Y794413D01*
X835789Y796582D02*
X830197Y796582D01*
X830197Y798751D02*
X835789Y798751D01*
D18*
X802640Y802640D03*
X1005840Y802640D03*
X1005840Y1005840D03*
X802640Y1005840D03*
D11*
X1283970Y783590D03*
X1042670Y1024890D03*
D12*
X1073150Y955040D03*
D13*
X1073150Y920040D03*
X1073150Y885040D03*
X1073150Y850040D03*
D14*
X1163480Y1016000D02*
X1183480Y1016000D01*
X1126490Y995520D02*
X1126490Y975520D01*
D15*
X1161980Y956310D02*
X1184980Y956310D01*
D16*
X1277620Y955040D03*
X1277620Y929640D03*
X1277620Y904240D03*
X1277620Y878840D03*
X1277620Y853440D03*
D17*
X1105283Y799594D02*
X1099691Y799594D01*
X1105283Y799594D02*
X1105283Y787906D01*
X1099691Y787906D01*
X1099691Y799594D01*
X1099691Y790075D02*
X1105283Y790075D01*
X1105283Y792244D02*
X1099691Y792244D01*
X1099691Y794413D02*
X1105283Y794413D01*
X1105283Y796582D02*
X1099691Y796582D01*
X1099691Y798751D02*
X1105283Y798751D01*
X1094869Y799594D02*
X1089277Y799594D01*
X1094869Y799594D02*
X1094869Y787906D01*
X1089277Y787906D01*
X1089277Y799594D01*
X1089277Y790075D02*
X1094869Y790075D01*
X1094869Y792244D02*
X1089277Y792244D01*
X1089277Y794413D02*
X1094869Y794413D01*
X1094869Y796582D02*
X1089277Y796582D01*
X1089277Y798751D02*
X1094869Y798751D01*
D18*
X1061720Y802640D03*
X1264920Y802640D03*
X1264920Y1005840D03*
X1061720Y1005840D03*
D11*
X1543050Y783590D03*
X1301750Y1024890D03*
D12*
X1332230Y955040D03*
D13*
X1332230Y920040D03*
X1332230Y885040D03*
X1332230Y850040D03*
D14*
X1422560Y1016000D02*
X1442560Y1016000D01*
X1385570Y995520D02*
X1385570Y975520D01*
D15*
X1421060Y956310D02*
X1444060Y956310D01*
D16*
X1536700Y955040D03*
X1536700Y929640D03*
X1536700Y904240D03*
X1536700Y878840D03*
X1536700Y853440D03*
D17*
X1364363Y799594D02*
X1358771Y799594D01*
X1364363Y799594D02*
X1364363Y787906D01*
X1358771Y787906D01*
X1358771Y799594D01*
X1358771Y790075D02*
X1364363Y790075D01*
X1364363Y792244D02*
X1358771Y792244D01*
X1358771Y794413D02*
X1364363Y794413D01*
X1364363Y796582D02*
X1358771Y796582D01*
X1358771Y798751D02*
X1364363Y798751D01*
X1353949Y799594D02*
X1348357Y799594D01*
X1353949Y799594D02*
X1353949Y787906D01*
X1348357Y787906D01*
X1348357Y799594D01*
X1348357Y790075D02*
X1353949Y790075D01*
X1353949Y792244D02*
X1348357Y792244D01*
X1348357Y794413D02*
X1353949Y794413D01*
X1353949Y796582D02*
X1348357Y796582D01*
X1348357Y798751D02*
X1353949Y798751D01*
D18*
X1320800Y802640D03*
X1524000Y802640D03*
X1524000Y1005840D03*
X1320800Y1005840D03*
D19*
X-26238Y1004570D03*
X1575638Y1004570D03*
D20*
X-35293Y63500D02*
X-35290Y63722D01*
X-35282Y63944D01*
X-35268Y64166D01*
X-35249Y64388D01*
X-35225Y64608D01*
X-35195Y64829D01*
X-35160Y65048D01*
X-35119Y65267D01*
X-35073Y65484D01*
X-35022Y65700D01*
X-34965Y65915D01*
X-34903Y66129D01*
X-34836Y66340D01*
X-34764Y66551D01*
X-34686Y66759D01*
X-34604Y66965D01*
X-34516Y67169D01*
X-34424Y67372D01*
X-34326Y67571D01*
X-34224Y67768D01*
X-34117Y67963D01*
X-34005Y68155D01*
X-33888Y68344D01*
X-33767Y68531D01*
X-33641Y68714D01*
X-33511Y68894D01*
X-33376Y69071D01*
X-33238Y69244D01*
X-33095Y69414D01*
X-32947Y69581D01*
X-32796Y69744D01*
X-32641Y69903D01*
X-32482Y70058D01*
X-32319Y70209D01*
X-32152Y70357D01*
X-31982Y70500D01*
X-31809Y70638D01*
X-31632Y70773D01*
X-31452Y70903D01*
X-31269Y71029D01*
X-31082Y71150D01*
X-30893Y71267D01*
X-30701Y71379D01*
X-30506Y71486D01*
X-30309Y71588D01*
X-30110Y71686D01*
X-29907Y71778D01*
X-29703Y71866D01*
X-29497Y71948D01*
X-29289Y72026D01*
X-29078Y72098D01*
X-28867Y72165D01*
X-28653Y72227D01*
X-28438Y72284D01*
X-28222Y72335D01*
X-28005Y72381D01*
X-27786Y72422D01*
X-27567Y72457D01*
X-27346Y72487D01*
X-27126Y72511D01*
X-26904Y72530D01*
X-26682Y72544D01*
X-26460Y72552D01*
X-26238Y72555D01*
X-26016Y72552D01*
X-25794Y72544D01*
X-25572Y72530D01*
X-25350Y72511D01*
X-25130Y72487D01*
X-24909Y72457D01*
X-24690Y72422D01*
X-24471Y72381D01*
X-24254Y72335D01*
X-24038Y72284D01*
X-23823Y72227D01*
X-23609Y72165D01*
X-23398Y72098D01*
X-23187Y72026D01*
X-22979Y71948D01*
X-22773Y71866D01*
X-22569Y71778D01*
X-22366Y71686D01*
X-22167Y71588D01*
X-21970Y71486D01*
X-21775Y71379D01*
X-21583Y71267D01*
X-21394Y71150D01*
X-21207Y71029D01*
X-21024Y70903D01*
X-20844Y70773D01*
X-20667Y70638D01*
X-20494Y70500D01*
X-20324Y70357D01*
X-20157Y70209D01*
X-19994Y70058D01*
X-19835Y69903D01*
X-19680Y69744D01*
X-19529Y69581D01*
X-19381Y69414D01*
X-19238Y69244D01*
X-19100Y69071D01*
X-18965Y68894D01*
X-18835Y68714D01*
X-18709Y68531D01*
X-18588Y68344D01*
X-18471Y68155D01*
X-18359Y67963D01*
X-18252Y67768D01*
X-18150Y67571D01*
X-18052Y67372D01*
X-17960Y67169D01*
X-17872Y66965D01*
X-17790Y66759D01*
X-17712Y66551D01*
X-17640Y66340D01*
X-17573Y66129D01*
X-17511Y65915D01*
X-17454Y65700D01*
X-17403Y65484D01*
X-17357Y65267D01*
X-17316Y65048D01*
X-17281Y64829D01*
X-17251Y64608D01*
X-17227Y64388D01*
X-17208Y64166D01*
X-17194Y63944D01*
X-17186Y63722D01*
X-17183Y63500D01*
X-17186Y63278D01*
X-17194Y63056D01*
X-17208Y62834D01*
X-17227Y62612D01*
X-17251Y62392D01*
X-17281Y62171D01*
X-17316Y61952D01*
X-17357Y61733D01*
X-17403Y61516D01*
X-17454Y61300D01*
X-17511Y61085D01*
X-17573Y60871D01*
X-17640Y60660D01*
X-17712Y60449D01*
X-17790Y60241D01*
X-17872Y60035D01*
X-17960Y59831D01*
X-18052Y59628D01*
X-18150Y59429D01*
X-18252Y59232D01*
X-18359Y59037D01*
X-18471Y58845D01*
X-18588Y58656D01*
X-18709Y58469D01*
X-18835Y58286D01*
X-18965Y58106D01*
X-19100Y57929D01*
X-19238Y57756D01*
X-19381Y57586D01*
X-19529Y57419D01*
X-19680Y57256D01*
X-19835Y57097D01*
X-19994Y56942D01*
X-20157Y56791D01*
X-20324Y56643D01*
X-20494Y56500D01*
X-20667Y56362D01*
X-20844Y56227D01*
X-21024Y56097D01*
X-21207Y55971D01*
X-21394Y55850D01*
X-21583Y55733D01*
X-21775Y55621D01*
X-21970Y55514D01*
X-22167Y55412D01*
X-22366Y55314D01*
X-22569Y55222D01*
X-22773Y55134D01*
X-22979Y55052D01*
X-23187Y54974D01*
X-23398Y54902D01*
X-23609Y54835D01*
X-23823Y54773D01*
X-24038Y54716D01*
X-24254Y54665D01*
X-24471Y54619D01*
X-24690Y54578D01*
X-24909Y54543D01*
X-25130Y54513D01*
X-25350Y54489D01*
X-25572Y54470D01*
X-25794Y54456D01*
X-26016Y54448D01*
X-26238Y54445D01*
X-26460Y54448D01*
X-26682Y54456D01*
X-26904Y54470D01*
X-27126Y54489D01*
X-27346Y54513D01*
X-27567Y54543D01*
X-27786Y54578D01*
X-28005Y54619D01*
X-28222Y54665D01*
X-28438Y54716D01*
X-28653Y54773D01*
X-28867Y54835D01*
X-29078Y54902D01*
X-29289Y54974D01*
X-29497Y55052D01*
X-29703Y55134D01*
X-29907Y55222D01*
X-30110Y55314D01*
X-30309Y55412D01*
X-30506Y55514D01*
X-30701Y55621D01*
X-30893Y55733D01*
X-31082Y55850D01*
X-31269Y55971D01*
X-31452Y56097D01*
X-31632Y56227D01*
X-31809Y56362D01*
X-31982Y56500D01*
X-32152Y56643D01*
X-32319Y56791D01*
X-32482Y56942D01*
X-32641Y57097D01*
X-32796Y57256D01*
X-32947Y57419D01*
X-33095Y57586D01*
X-33238Y57756D01*
X-33376Y57929D01*
X-33511Y58106D01*
X-33641Y58286D01*
X-33767Y58469D01*
X-33888Y58656D01*
X-34005Y58845D01*
X-34117Y59037D01*
X-34224Y59232D01*
X-34326Y59429D01*
X-34424Y59628D01*
X-34516Y59831D01*
X-34604Y60035D01*
X-34686Y60241D01*
X-34764Y60449D01*
X-34836Y60660D01*
X-34903Y60871D01*
X-34965Y61085D01*
X-35022Y61300D01*
X-35073Y61516D01*
X-35119Y61733D01*
X-35160Y61952D01*
X-35195Y62171D01*
X-35225Y62392D01*
X-35249Y62612D01*
X-35268Y62834D01*
X-35282Y63056D01*
X-35290Y63278D01*
X-35293Y63500D01*
D21*
X-26238Y63500D03*
M02*
