G04 EAGLE Gerber RS-274X export*
G75*
%MOMM*%
%FSLAX34Y34*%
%LPD*%
%INSolderpaste Top*%
%IPPOS*%
%AMOC8*
5,1,8,0,0,1.08239X$1,22.5*%
G01*
%ADD10C,0.102000*%
%ADD11C,0.104000*%
%ADD12C,0.092500*%
%ADD13C,0.100000*%


D10*
X21540Y73690D02*
X21540Y68710D01*
X16560Y68710D01*
X16560Y73690D01*
X21540Y73690D01*
X21540Y69679D02*
X16560Y69679D01*
X16560Y70648D02*
X21540Y70648D01*
X21540Y71617D02*
X16560Y71617D01*
X16560Y72586D02*
X21540Y72586D01*
X21540Y73555D02*
X16560Y73555D01*
X21540Y78710D02*
X21540Y83690D01*
X21540Y78710D02*
X16560Y78710D01*
X16560Y83690D01*
X21540Y83690D01*
X21540Y79679D02*
X16560Y79679D01*
X16560Y80648D02*
X21540Y80648D01*
X21540Y81617D02*
X16560Y81617D01*
X16560Y82586D02*
X21540Y82586D01*
X21540Y83555D02*
X16560Y83555D01*
X16560Y63370D02*
X16560Y58390D01*
X16560Y63370D02*
X21540Y63370D01*
X21540Y58390D01*
X16560Y58390D01*
X16560Y59359D02*
X21540Y59359D01*
X21540Y60328D02*
X16560Y60328D01*
X16560Y61297D02*
X21540Y61297D01*
X21540Y62266D02*
X16560Y62266D01*
X16560Y63235D02*
X21540Y63235D01*
X16560Y53370D02*
X16560Y48390D01*
X16560Y53370D02*
X21540Y53370D01*
X21540Y48390D01*
X16560Y48390D01*
X16560Y49359D02*
X21540Y49359D01*
X21540Y50328D02*
X16560Y50328D01*
X16560Y51297D02*
X21540Y51297D01*
X21540Y52266D02*
X16560Y52266D01*
X16560Y53235D02*
X21540Y53235D01*
D11*
X122320Y50360D02*
X122320Y43400D01*
X111360Y43400D01*
X111360Y50360D01*
X122320Y50360D01*
X122320Y44388D02*
X111360Y44388D01*
X111360Y45376D02*
X122320Y45376D01*
X122320Y46364D02*
X111360Y46364D01*
X111360Y47352D02*
X122320Y47352D01*
X122320Y48340D02*
X111360Y48340D01*
X111360Y49328D02*
X122320Y49328D01*
X122320Y50316D02*
X111360Y50316D01*
X122320Y61400D02*
X122320Y68360D01*
X122320Y61400D02*
X111360Y61400D01*
X111360Y68360D01*
X122320Y68360D01*
X122320Y62388D02*
X111360Y62388D01*
X111360Y63376D02*
X122320Y63376D01*
X122320Y64364D02*
X111360Y64364D01*
X111360Y65352D02*
X122320Y65352D01*
X122320Y66340D02*
X111360Y66340D01*
X111360Y67328D02*
X122320Y67328D01*
X122320Y68316D02*
X111360Y68316D01*
X111360Y31530D02*
X111360Y24570D01*
X111360Y31530D02*
X122320Y31530D01*
X122320Y24570D01*
X111360Y24570D01*
X111360Y25558D02*
X122320Y25558D01*
X122320Y26546D02*
X111360Y26546D01*
X111360Y27534D02*
X122320Y27534D01*
X122320Y28522D02*
X111360Y28522D01*
X111360Y29510D02*
X122320Y29510D01*
X122320Y30498D02*
X111360Y30498D01*
X111360Y31486D02*
X122320Y31486D01*
X111360Y13530D02*
X111360Y6570D01*
X111360Y13530D02*
X122320Y13530D01*
X122320Y6570D01*
X111360Y6570D01*
X111360Y7558D02*
X122320Y7558D01*
X122320Y8546D02*
X111360Y8546D01*
X111360Y9534D02*
X122320Y9534D01*
X122320Y10522D02*
X111360Y10522D01*
X111360Y11510D02*
X122320Y11510D01*
X122320Y12498D02*
X111360Y12498D01*
X111360Y13486D02*
X122320Y13486D01*
X82150Y95690D02*
X82150Y102650D01*
X93110Y102650D01*
X93110Y95690D01*
X82150Y95690D01*
X82150Y96678D02*
X93110Y96678D01*
X93110Y97666D02*
X82150Y97666D01*
X82150Y98654D02*
X93110Y98654D01*
X93110Y99642D02*
X82150Y99642D01*
X82150Y100630D02*
X93110Y100630D01*
X93110Y101618D02*
X82150Y101618D01*
X82150Y102606D02*
X93110Y102606D01*
X82150Y84650D02*
X82150Y77690D01*
X82150Y84650D02*
X93110Y84650D01*
X93110Y77690D01*
X82150Y77690D01*
X82150Y78678D02*
X93110Y78678D01*
X93110Y79666D02*
X82150Y79666D01*
X82150Y80654D02*
X93110Y80654D01*
X93110Y81642D02*
X82150Y81642D01*
X82150Y82630D02*
X93110Y82630D01*
X93110Y83618D02*
X82150Y83618D01*
X82150Y84606D02*
X93110Y84606D01*
X64370Y95690D02*
X64370Y102650D01*
X75330Y102650D01*
X75330Y95690D01*
X64370Y95690D01*
X64370Y96678D02*
X75330Y96678D01*
X75330Y97666D02*
X64370Y97666D01*
X64370Y98654D02*
X75330Y98654D01*
X75330Y99642D02*
X64370Y99642D01*
X64370Y100630D02*
X75330Y100630D01*
X75330Y101618D02*
X64370Y101618D01*
X64370Y102606D02*
X75330Y102606D01*
X64370Y84650D02*
X64370Y77690D01*
X64370Y84650D02*
X75330Y84650D01*
X75330Y77690D01*
X64370Y77690D01*
X64370Y78678D02*
X75330Y78678D01*
X75330Y79666D02*
X64370Y79666D01*
X64370Y80654D02*
X75330Y80654D01*
X75330Y81642D02*
X64370Y81642D01*
X64370Y82630D02*
X75330Y82630D01*
X75330Y83618D02*
X64370Y83618D01*
X64370Y84606D02*
X75330Y84606D01*
D12*
X48348Y21062D02*
X30772Y21062D01*
X30772Y55138D01*
X48348Y55138D01*
X48348Y21062D01*
X48348Y21941D02*
X30772Y21941D01*
X30772Y22820D02*
X48348Y22820D01*
X48348Y23699D02*
X30772Y23699D01*
X30772Y24578D02*
X48348Y24578D01*
X48348Y25457D02*
X30772Y25457D01*
X30772Y26336D02*
X48348Y26336D01*
X48348Y27215D02*
X30772Y27215D01*
X30772Y28094D02*
X48348Y28094D01*
X48348Y28973D02*
X30772Y28973D01*
X30772Y29852D02*
X48348Y29852D01*
X48348Y30731D02*
X30772Y30731D01*
X30772Y31610D02*
X48348Y31610D01*
X48348Y32489D02*
X30772Y32489D01*
X30772Y33368D02*
X48348Y33368D01*
X48348Y34247D02*
X30772Y34247D01*
X30772Y35126D02*
X48348Y35126D01*
X48348Y36005D02*
X30772Y36005D01*
X30772Y36884D02*
X48348Y36884D01*
X48348Y37763D02*
X30772Y37763D01*
X30772Y38642D02*
X48348Y38642D01*
X48348Y39521D02*
X30772Y39521D01*
X30772Y40400D02*
X48348Y40400D01*
X48348Y41279D02*
X30772Y41279D01*
X30772Y42158D02*
X48348Y42158D01*
X48348Y43037D02*
X30772Y43037D01*
X30772Y43916D02*
X48348Y43916D01*
X48348Y44795D02*
X30772Y44795D01*
X30772Y45674D02*
X48348Y45674D01*
X48348Y46553D02*
X30772Y46553D01*
X30772Y47432D02*
X48348Y47432D01*
X48348Y48311D02*
X30772Y48311D01*
X30772Y49190D02*
X48348Y49190D01*
X48348Y50069D02*
X30772Y50069D01*
X30772Y50948D02*
X48348Y50948D01*
X48348Y51827D02*
X30772Y51827D01*
X30772Y52706D02*
X48348Y52706D01*
X48348Y53585D02*
X30772Y53585D01*
X30772Y54464D02*
X48348Y54464D01*
X86272Y21062D02*
X103848Y21062D01*
X86272Y21062D02*
X86272Y55138D01*
X103848Y55138D01*
X103848Y21062D01*
X103848Y21941D02*
X86272Y21941D01*
X86272Y22820D02*
X103848Y22820D01*
X103848Y23699D02*
X86272Y23699D01*
X86272Y24578D02*
X103848Y24578D01*
X103848Y25457D02*
X86272Y25457D01*
X86272Y26336D02*
X103848Y26336D01*
X103848Y27215D02*
X86272Y27215D01*
X86272Y28094D02*
X103848Y28094D01*
X103848Y28973D02*
X86272Y28973D01*
X86272Y29852D02*
X103848Y29852D01*
X103848Y30731D02*
X86272Y30731D01*
X86272Y31610D02*
X103848Y31610D01*
X103848Y32489D02*
X86272Y32489D01*
X86272Y33368D02*
X103848Y33368D01*
X103848Y34247D02*
X86272Y34247D01*
X86272Y35126D02*
X103848Y35126D01*
X103848Y36005D02*
X86272Y36005D01*
X86272Y36884D02*
X103848Y36884D01*
X103848Y37763D02*
X86272Y37763D01*
X86272Y38642D02*
X103848Y38642D01*
X103848Y39521D02*
X86272Y39521D01*
X86272Y40400D02*
X103848Y40400D01*
X103848Y41279D02*
X86272Y41279D01*
X86272Y42158D02*
X103848Y42158D01*
X103848Y43037D02*
X86272Y43037D01*
X86272Y43916D02*
X103848Y43916D01*
X103848Y44795D02*
X86272Y44795D01*
X86272Y45674D02*
X103848Y45674D01*
X103848Y46553D02*
X86272Y46553D01*
X86272Y47432D02*
X103848Y47432D01*
X103848Y48311D02*
X86272Y48311D01*
X86272Y49190D02*
X103848Y49190D01*
X103848Y50069D02*
X86272Y50069D01*
X86272Y50948D02*
X103848Y50948D01*
X103848Y51827D02*
X86272Y51827D01*
X86272Y52706D02*
X103848Y52706D01*
X103848Y53585D02*
X86272Y53585D01*
X86272Y54464D02*
X103848Y54464D01*
D10*
X6400Y78710D02*
X6400Y83690D01*
X11380Y83690D01*
X11380Y78710D01*
X6400Y78710D01*
X6400Y79679D02*
X11380Y79679D01*
X11380Y80648D02*
X6400Y80648D01*
X6400Y81617D02*
X11380Y81617D01*
X11380Y82586D02*
X6400Y82586D01*
X6400Y83555D02*
X11380Y83555D01*
X6400Y73690D02*
X6400Y68710D01*
X6400Y73690D02*
X11380Y73690D01*
X11380Y68710D01*
X6400Y68710D01*
X6400Y69679D02*
X11380Y69679D01*
X11380Y70648D02*
X6400Y70648D01*
X6400Y71617D02*
X11380Y71617D01*
X11380Y72586D02*
X6400Y72586D01*
X6400Y73555D02*
X11380Y73555D01*
X16560Y99030D02*
X16560Y104010D01*
X21540Y104010D01*
X21540Y99030D01*
X16560Y99030D01*
X16560Y99999D02*
X21540Y99999D01*
X21540Y100968D02*
X16560Y100968D01*
X16560Y101937D02*
X21540Y101937D01*
X21540Y102906D02*
X16560Y102906D01*
X16560Y103875D02*
X21540Y103875D01*
X16560Y94010D02*
X16560Y89030D01*
X16560Y94010D02*
X21540Y94010D01*
X21540Y89030D01*
X16560Y89030D01*
X16560Y89999D02*
X21540Y89999D01*
X21540Y90968D02*
X16560Y90968D01*
X16560Y91937D02*
X21540Y91937D01*
X21540Y92906D02*
X16560Y92906D01*
X16560Y93875D02*
X21540Y93875D01*
X47120Y111810D02*
X52100Y111810D01*
X47120Y111810D02*
X47120Y116790D01*
X52100Y116790D01*
X52100Y111810D01*
X52100Y112779D02*
X47120Y112779D01*
X47120Y113748D02*
X52100Y113748D01*
X52100Y114717D02*
X47120Y114717D01*
X47120Y115686D02*
X52100Y115686D01*
X52100Y116655D02*
X47120Y116655D01*
X57120Y111810D02*
X62100Y111810D01*
X57120Y111810D02*
X57120Y116790D01*
X62100Y116790D01*
X62100Y111810D01*
X62100Y112779D02*
X57120Y112779D01*
X57120Y113748D02*
X62100Y113748D01*
X62100Y114717D02*
X57120Y114717D01*
X57120Y115686D02*
X62100Y115686D01*
X62100Y116655D02*
X57120Y116655D01*
X31780Y111810D02*
X26800Y111810D01*
X26800Y116790D01*
X31780Y116790D01*
X31780Y111810D01*
X31780Y112779D02*
X26800Y112779D01*
X26800Y113748D02*
X31780Y113748D01*
X31780Y114717D02*
X26800Y114717D01*
X26800Y115686D02*
X31780Y115686D01*
X31780Y116655D02*
X26800Y116655D01*
X36800Y111810D02*
X41780Y111810D01*
X36800Y111810D02*
X36800Y116790D01*
X41780Y116790D01*
X41780Y111810D01*
X41780Y112779D02*
X36800Y112779D01*
X36800Y113748D02*
X41780Y113748D01*
X41780Y114717D02*
X36800Y114717D01*
X36800Y115686D02*
X41780Y115686D01*
X41780Y116655D02*
X36800Y116655D01*
D11*
X42950Y102420D02*
X56910Y102420D01*
X56910Y95460D01*
X42950Y95460D01*
X42950Y102420D01*
X42950Y96448D02*
X56910Y96448D01*
X56910Y97436D02*
X42950Y97436D01*
X42950Y98424D02*
X56910Y98424D01*
X56910Y99412D02*
X42950Y99412D01*
X42950Y100400D02*
X56910Y100400D01*
X56910Y101388D02*
X42950Y101388D01*
X42950Y102376D02*
X56910Y102376D01*
X56910Y87420D02*
X42950Y87420D01*
X56910Y87420D02*
X56910Y80460D01*
X42950Y80460D01*
X42950Y87420D01*
X42950Y81448D02*
X56910Y81448D01*
X56910Y82436D02*
X42950Y82436D01*
X42950Y83424D02*
X56910Y83424D01*
X56910Y84412D02*
X42950Y84412D01*
X42950Y85400D02*
X56910Y85400D01*
X56910Y86388D02*
X42950Y86388D01*
X42950Y87376D02*
X56910Y87376D01*
D13*
X59230Y92940D02*
X42930Y92940D01*
X59230Y92940D02*
X59230Y89940D01*
X42930Y89940D01*
X42930Y92940D01*
X42930Y90890D02*
X59230Y90890D01*
X59230Y91840D02*
X42930Y91840D01*
X42930Y92790D02*
X59230Y92790D01*
D10*
X40420Y102430D02*
X38440Y102430D01*
X40420Y102430D02*
X40420Y97450D01*
X38440Y97450D01*
X38440Y102430D01*
X38440Y98419D02*
X40420Y98419D01*
X40420Y99388D02*
X38440Y99388D01*
X38440Y100357D02*
X40420Y100357D01*
X40420Y101326D02*
X38440Y101326D01*
X38440Y102295D02*
X40420Y102295D01*
X35920Y102430D02*
X33940Y102430D01*
X35920Y102430D02*
X35920Y97450D01*
X33940Y97450D01*
X33940Y102430D01*
X33940Y98419D02*
X35920Y98419D01*
X35920Y99388D02*
X33940Y99388D01*
X33940Y100357D02*
X35920Y100357D01*
X35920Y101326D02*
X33940Y101326D01*
X33940Y102295D02*
X35920Y102295D01*
X31420Y102430D02*
X29440Y102430D01*
X31420Y102430D02*
X31420Y97450D01*
X29440Y97450D01*
X29440Y102430D01*
X29440Y98419D02*
X31420Y98419D01*
X31420Y99388D02*
X29440Y99388D01*
X29440Y100357D02*
X31420Y100357D01*
X31420Y101326D02*
X29440Y101326D01*
X29440Y102295D02*
X31420Y102295D01*
X31420Y80450D02*
X29440Y80450D01*
X29440Y85430D01*
X31420Y85430D01*
X31420Y80450D01*
X31420Y81419D02*
X29440Y81419D01*
X29440Y82388D02*
X31420Y82388D01*
X31420Y83357D02*
X29440Y83357D01*
X29440Y84326D02*
X31420Y84326D01*
X31420Y85295D02*
X29440Y85295D01*
X33940Y80450D02*
X35920Y80450D01*
X33940Y80450D02*
X33940Y85430D01*
X35920Y85430D01*
X35920Y80450D01*
X35920Y81419D02*
X33940Y81419D01*
X33940Y82388D02*
X35920Y82388D01*
X35920Y83357D02*
X33940Y83357D01*
X33940Y84326D02*
X35920Y84326D01*
X35920Y85295D02*
X33940Y85295D01*
X38440Y80450D02*
X40420Y80450D01*
X38440Y80450D02*
X38440Y85430D01*
X40420Y85430D01*
X40420Y80450D01*
X40420Y81419D02*
X38440Y81419D01*
X38440Y82388D02*
X40420Y82388D01*
X40420Y83357D02*
X38440Y83357D01*
X38440Y84326D02*
X40420Y84326D01*
X40420Y85295D02*
X38440Y85295D01*
M02*
