G04 EAGLE Gerber RS-274X export*
G75*
%MOMM*%
%FSLAX34Y34*%
%LPD*%
%INBottom Copper*%
%IPPOS*%
%AMOC8*
5,1,8,0,0,1.08239X$1,22.5*%
G01*
%ADD10C,0.152400*%
%ADD11C,0.635000*%
%ADD12C,1.879600*%

G36*
X130766Y2803D02*
X130766Y2803D01*
X130825Y2801D01*
X130906Y2823D01*
X130990Y2835D01*
X131043Y2858D01*
X131100Y2873D01*
X131172Y2916D01*
X131249Y2951D01*
X131294Y2989D01*
X131344Y3018D01*
X131402Y3080D01*
X131466Y3134D01*
X131499Y3183D01*
X131539Y3226D01*
X131577Y3301D01*
X131624Y3371D01*
X131642Y3427D01*
X131668Y3479D01*
X131680Y3547D01*
X131710Y3642D01*
X131712Y3742D01*
X131724Y3810D01*
X131724Y4144D01*
X132914Y5335D01*
X133107Y5335D01*
X133165Y5343D01*
X133224Y5341D01*
X133305Y5363D01*
X133389Y5375D01*
X133442Y5398D01*
X133499Y5413D01*
X133571Y5456D01*
X133648Y5491D01*
X133693Y5529D01*
X133743Y5558D01*
X133801Y5620D01*
X133865Y5674D01*
X133898Y5723D01*
X133938Y5766D01*
X133976Y5841D01*
X134023Y5911D01*
X134040Y5967D01*
X134067Y6019D01*
X134078Y6087D01*
X134109Y6182D01*
X134111Y6282D01*
X134123Y6350D01*
X134123Y11769D01*
X134114Y11832D01*
X134116Y11881D01*
X134036Y12603D01*
X134045Y12618D01*
X134053Y12648D01*
X134067Y12676D01*
X134077Y12734D01*
X134599Y13256D01*
X134613Y13275D01*
X134627Y13287D01*
X134646Y13315D01*
X134673Y13340D01*
X135127Y13907D01*
X135144Y13911D01*
X135171Y13927D01*
X135201Y13937D01*
X135249Y13971D01*
X135987Y13971D01*
X136050Y13980D01*
X136099Y13977D01*
X136820Y14057D01*
X136835Y14048D01*
X136865Y14041D01*
X136893Y14026D01*
X136952Y14016D01*
X137473Y13495D01*
X137524Y13456D01*
X137557Y13420D01*
X140223Y11287D01*
X140301Y11240D01*
X140374Y11187D01*
X140423Y11169D01*
X140468Y11142D01*
X140556Y11119D01*
X140641Y11088D01*
X140693Y11084D01*
X140743Y11071D01*
X140834Y11073D01*
X140924Y11066D01*
X140975Y11077D01*
X141027Y11078D01*
X141114Y11106D01*
X141202Y11124D01*
X141249Y11149D01*
X141298Y11165D01*
X141374Y11215D01*
X141454Y11258D01*
X141491Y11294D01*
X141535Y11323D01*
X141593Y11392D01*
X141658Y11455D01*
X141680Y11495D01*
X141718Y11540D01*
X141781Y11682D01*
X141818Y11750D01*
X142093Y12552D01*
X144079Y13971D01*
X146520Y13971D01*
X148506Y12552D01*
X148840Y11576D01*
X148851Y11555D01*
X148855Y11541D01*
X148874Y11508D01*
X148888Y11460D01*
X148987Y11257D01*
X149062Y11146D01*
X149135Y11035D01*
X149141Y11029D01*
X149146Y11022D01*
X149249Y10936D01*
X149350Y10849D01*
X149358Y10845D01*
X149364Y10839D01*
X149487Y10786D01*
X149608Y10730D01*
X149617Y10728D01*
X149624Y10725D01*
X149757Y10707D01*
X149889Y10687D01*
X149897Y10688D01*
X149906Y10687D01*
X150187Y10729D01*
X150205Y10736D01*
X150221Y10739D01*
X151766Y11254D01*
X153075Y10599D01*
X153091Y10594D01*
X153105Y10585D01*
X153226Y10549D01*
X153344Y10509D01*
X153361Y10508D01*
X153378Y10504D01*
X153504Y10502D01*
X153628Y10497D01*
X153645Y10501D01*
X153662Y10501D01*
X153730Y10522D01*
X153905Y10564D01*
X153946Y10588D01*
X153983Y10599D01*
X155394Y11305D01*
X155483Y11367D01*
X155576Y11422D01*
X155600Y11447D01*
X155628Y11467D01*
X155696Y11550D01*
X155770Y11629D01*
X155786Y11660D01*
X155808Y11687D01*
X155851Y11786D01*
X155900Y11882D01*
X155905Y11913D01*
X155920Y11948D01*
X155947Y12161D01*
X155955Y12213D01*
X155955Y32097D01*
X155943Y32182D01*
X155941Y32268D01*
X155923Y32322D01*
X155915Y32378D01*
X155880Y32457D01*
X155854Y32539D01*
X155822Y32586D01*
X155799Y32638D01*
X155744Y32703D01*
X155696Y32775D01*
X155652Y32811D01*
X155616Y32855D01*
X155544Y32902D01*
X155478Y32958D01*
X155426Y32981D01*
X155379Y33012D01*
X155297Y33038D01*
X155218Y33073D01*
X155162Y33081D01*
X155108Y33098D01*
X155022Y33100D01*
X154937Y33112D01*
X154881Y33104D01*
X154824Y33105D01*
X154741Y33084D01*
X154655Y33071D01*
X154604Y33048D01*
X154549Y33034D01*
X154475Y32990D01*
X154396Y32954D01*
X154353Y32917D01*
X154304Y32888D01*
X154245Y32826D01*
X154180Y32770D01*
X154154Y32728D01*
X154110Y32681D01*
X154044Y32552D01*
X154002Y32485D01*
X153824Y32057D01*
X150823Y29056D01*
X146902Y27431D01*
X142658Y27431D01*
X138737Y29056D01*
X135736Y32057D01*
X134111Y35978D01*
X134111Y40222D01*
X135736Y44143D01*
X138737Y47144D01*
X142658Y48769D01*
X146902Y48769D01*
X150823Y47144D01*
X153824Y44143D01*
X154002Y43715D01*
X154046Y43641D01*
X154081Y43562D01*
X154118Y43519D01*
X154147Y43470D01*
X154209Y43411D01*
X154265Y43345D01*
X154312Y43314D01*
X154353Y43275D01*
X154430Y43235D01*
X154501Y43188D01*
X154555Y43171D01*
X154606Y43144D01*
X154690Y43128D01*
X154772Y43102D01*
X154829Y43100D01*
X154885Y43089D01*
X154970Y43097D01*
X155056Y43095D01*
X155111Y43109D01*
X155168Y43114D01*
X155248Y43145D01*
X155331Y43166D01*
X155380Y43195D01*
X155433Y43216D01*
X155502Y43268D01*
X155576Y43312D01*
X155615Y43353D01*
X155660Y43388D01*
X155711Y43456D01*
X155770Y43519D01*
X155796Y43570D01*
X155830Y43615D01*
X155861Y43696D01*
X155900Y43772D01*
X155908Y43821D01*
X155931Y43881D01*
X155942Y44026D01*
X155955Y44103D01*
X155955Y82897D01*
X155943Y82982D01*
X155941Y83068D01*
X155923Y83122D01*
X155915Y83178D01*
X155880Y83257D01*
X155854Y83339D01*
X155822Y83386D01*
X155799Y83438D01*
X155744Y83503D01*
X155696Y83575D01*
X155652Y83611D01*
X155616Y83655D01*
X155544Y83702D01*
X155478Y83758D01*
X155426Y83781D01*
X155379Y83812D01*
X155297Y83838D01*
X155218Y83873D01*
X155162Y83881D01*
X155108Y83898D01*
X155022Y83900D01*
X154937Y83912D01*
X154881Y83904D01*
X154824Y83905D01*
X154741Y83884D01*
X154655Y83871D01*
X154604Y83848D01*
X154549Y83834D01*
X154475Y83790D01*
X154396Y83754D01*
X154353Y83717D01*
X154304Y83688D01*
X154245Y83626D01*
X154180Y83570D01*
X154154Y83528D01*
X154110Y83481D01*
X154044Y83352D01*
X154002Y83285D01*
X153824Y82857D01*
X150823Y79856D01*
X146902Y78231D01*
X142658Y78231D01*
X138737Y79856D01*
X135736Y82857D01*
X134111Y86778D01*
X134111Y91022D01*
X135736Y94943D01*
X138737Y97944D01*
X142658Y99569D01*
X146902Y99569D01*
X150823Y97944D01*
X153824Y94943D01*
X154002Y94515D01*
X154046Y94441D01*
X154081Y94362D01*
X154118Y94319D01*
X154147Y94270D01*
X154209Y94211D01*
X154265Y94145D01*
X154312Y94114D01*
X154353Y94075D01*
X154430Y94035D01*
X154501Y93988D01*
X154555Y93971D01*
X154606Y93944D01*
X154690Y93928D01*
X154772Y93902D01*
X154829Y93900D01*
X154885Y93889D01*
X154970Y93897D01*
X155056Y93895D01*
X155111Y93909D01*
X155168Y93914D01*
X155248Y93945D01*
X155331Y93966D01*
X155380Y93995D01*
X155433Y94016D01*
X155502Y94068D01*
X155576Y94112D01*
X155615Y94153D01*
X155660Y94188D01*
X155711Y94256D01*
X155770Y94319D01*
X155796Y94370D01*
X155830Y94415D01*
X155861Y94496D01*
X155900Y94572D01*
X155908Y94621D01*
X155931Y94681D01*
X155942Y94826D01*
X155955Y94903D01*
X155955Y108297D01*
X155943Y108382D01*
X155941Y108468D01*
X155923Y108522D01*
X155915Y108578D01*
X155880Y108657D01*
X155854Y108739D01*
X155822Y108786D01*
X155799Y108838D01*
X155744Y108903D01*
X155696Y108975D01*
X155652Y109011D01*
X155616Y109055D01*
X155544Y109102D01*
X155478Y109158D01*
X155426Y109181D01*
X155379Y109212D01*
X155297Y109238D01*
X155218Y109273D01*
X155162Y109281D01*
X155108Y109298D01*
X155022Y109300D01*
X154937Y109312D01*
X154881Y109304D01*
X154824Y109305D01*
X154741Y109284D01*
X154655Y109271D01*
X154604Y109248D01*
X154549Y109234D01*
X154475Y109190D01*
X154396Y109154D01*
X154353Y109117D01*
X154304Y109088D01*
X154245Y109026D01*
X154180Y108970D01*
X154154Y108928D01*
X154110Y108881D01*
X154044Y108752D01*
X154002Y108685D01*
X153824Y108257D01*
X150823Y105256D01*
X146902Y103631D01*
X142658Y103631D01*
X138737Y105256D01*
X135736Y108257D01*
X134111Y112178D01*
X134111Y116422D01*
X135736Y120343D01*
X138737Y123344D01*
X142658Y124969D01*
X146953Y124969D01*
X147025Y124946D01*
X147053Y124945D01*
X147080Y124938D01*
X147195Y124942D01*
X147309Y124939D01*
X147336Y124946D01*
X147364Y124946D01*
X147473Y124981D01*
X147584Y125010D01*
X147608Y125025D01*
X147635Y125033D01*
X147730Y125097D01*
X147829Y125156D01*
X147848Y125176D01*
X147871Y125191D01*
X147945Y125279D01*
X148023Y125363D01*
X148036Y125388D01*
X148054Y125409D01*
X148101Y125514D01*
X148153Y125616D01*
X148157Y125641D01*
X148169Y125669D01*
X148206Y125933D01*
X148208Y125947D01*
X148208Y128061D01*
X148209Y128074D01*
X148218Y128102D01*
X148221Y128215D01*
X148231Y128328D01*
X148225Y128357D01*
X148226Y128386D01*
X148197Y128495D01*
X148175Y128606D01*
X148161Y128633D01*
X148154Y128661D01*
X148096Y128758D01*
X148044Y128859D01*
X148024Y128880D01*
X148009Y128906D01*
X147926Y128983D01*
X147848Y129065D01*
X147823Y129080D01*
X147801Y129100D01*
X147701Y129152D01*
X147603Y129209D01*
X147575Y129216D01*
X147548Y129230D01*
X147471Y129243D01*
X147328Y129279D01*
X147265Y129277D01*
X147217Y129285D01*
X3810Y129285D01*
X3752Y129277D01*
X3694Y129279D01*
X3612Y129257D01*
X3528Y129245D01*
X3475Y129222D01*
X3419Y129207D01*
X3346Y129164D01*
X3269Y129129D01*
X3224Y129091D01*
X3174Y129062D01*
X3116Y129000D01*
X3052Y128946D01*
X3020Y128897D01*
X2980Y128854D01*
X2941Y128779D01*
X2894Y128709D01*
X2877Y128653D01*
X2850Y128601D01*
X2839Y128533D01*
X2809Y128438D01*
X2806Y128338D01*
X2795Y128270D01*
X2795Y11558D01*
X2799Y11529D01*
X2796Y11500D01*
X2819Y11389D01*
X2835Y11277D01*
X2847Y11250D01*
X2852Y11221D01*
X2905Y11121D01*
X2951Y11017D01*
X2970Y10995D01*
X2983Y10969D01*
X3061Y10887D01*
X3134Y10800D01*
X3159Y10784D01*
X3179Y10763D01*
X3277Y10706D01*
X3371Y10643D01*
X3399Y10634D01*
X3424Y10619D01*
X3534Y10591D01*
X3642Y10557D01*
X3671Y10556D01*
X3700Y10549D01*
X3813Y10553D01*
X3926Y10550D01*
X3955Y10557D01*
X3984Y10558D01*
X4092Y10593D01*
X4201Y10622D01*
X4227Y10637D01*
X4255Y10646D01*
X4319Y10691D01*
X4366Y10720D01*
X8090Y10720D01*
X10694Y8115D01*
X10694Y4402D01*
X10687Y4391D01*
X10619Y4301D01*
X10608Y4273D01*
X10592Y4249D01*
X10558Y4141D01*
X10518Y4035D01*
X10515Y4006D01*
X10506Y3978D01*
X10503Y3865D01*
X10494Y3752D01*
X10500Y3723D01*
X10499Y3694D01*
X10528Y3584D01*
X10550Y3473D01*
X10563Y3447D01*
X10571Y3419D01*
X10629Y3321D01*
X10681Y3221D01*
X10701Y3199D01*
X10716Y3174D01*
X10799Y3097D01*
X10877Y3015D01*
X10902Y3000D01*
X10923Y2980D01*
X11024Y2928D01*
X11122Y2871D01*
X11150Y2864D01*
X11176Y2850D01*
X11254Y2837D01*
X11397Y2801D01*
X11460Y2803D01*
X11508Y2795D01*
X130708Y2795D01*
X130766Y2803D01*
G37*
D10*
X155448Y9059D02*
X153529Y3302D01*
X151610Y9059D01*
X147699Y7620D02*
X147697Y7790D01*
X147691Y7960D01*
X147681Y8129D01*
X147667Y8299D01*
X147648Y8468D01*
X147626Y8636D01*
X147600Y8804D01*
X147570Y8971D01*
X147535Y9137D01*
X147497Y9303D01*
X147455Y9468D01*
X147409Y9631D01*
X147359Y9794D01*
X147305Y9955D01*
X147248Y10115D01*
X147186Y10273D01*
X147121Y10430D01*
X147052Y10585D01*
X146979Y10739D01*
X146978Y10739D02*
X146950Y10815D01*
X146918Y10890D01*
X146883Y10964D01*
X146845Y11036D01*
X146803Y11106D01*
X146758Y11174D01*
X146710Y11240D01*
X146659Y11304D01*
X146605Y11365D01*
X146549Y11424D01*
X146489Y11480D01*
X146428Y11533D01*
X146364Y11583D01*
X146297Y11631D01*
X146229Y11675D01*
X146158Y11716D01*
X146086Y11754D01*
X146012Y11788D01*
X145937Y11819D01*
X145860Y11847D01*
X145782Y11871D01*
X145703Y11891D01*
X145623Y11908D01*
X145543Y11921D01*
X145462Y11931D01*
X145381Y11936D01*
X145299Y11938D01*
X145217Y11936D01*
X145136Y11931D01*
X145055Y11921D01*
X144975Y11908D01*
X144895Y11891D01*
X144816Y11871D01*
X144738Y11847D01*
X144661Y11819D01*
X144586Y11788D01*
X144512Y11754D01*
X144440Y11716D01*
X144369Y11675D01*
X144301Y11631D01*
X144234Y11583D01*
X144170Y11533D01*
X144109Y11480D01*
X144049Y11424D01*
X143993Y11365D01*
X143939Y11304D01*
X143888Y11240D01*
X143840Y11174D01*
X143795Y11106D01*
X143753Y11036D01*
X143715Y10964D01*
X143680Y10890D01*
X143648Y10815D01*
X143620Y10739D01*
X143547Y10585D01*
X143478Y10430D01*
X143413Y10273D01*
X143351Y10115D01*
X143294Y9955D01*
X143240Y9794D01*
X143190Y9631D01*
X143144Y9468D01*
X143102Y9303D01*
X143064Y9137D01*
X143029Y8971D01*
X142999Y8804D01*
X142973Y8636D01*
X142951Y8468D01*
X142932Y8299D01*
X142918Y8129D01*
X142908Y7960D01*
X142902Y7790D01*
X142900Y7620D01*
X147698Y7620D02*
X147696Y7450D01*
X147690Y7280D01*
X147680Y7111D01*
X147666Y6941D01*
X147647Y6772D01*
X147625Y6604D01*
X147599Y6436D01*
X147569Y6269D01*
X147534Y6103D01*
X147496Y5937D01*
X147454Y5772D01*
X147408Y5609D01*
X147358Y5447D01*
X147304Y5285D01*
X147247Y5126D01*
X147185Y4967D01*
X147120Y4810D01*
X147051Y4655D01*
X146978Y4501D01*
X146950Y4425D01*
X146918Y4350D01*
X146883Y4276D01*
X146845Y4204D01*
X146803Y4134D01*
X146758Y4066D01*
X146710Y4000D01*
X146659Y3936D01*
X146605Y3875D01*
X146549Y3816D01*
X146489Y3760D01*
X146428Y3707D01*
X146364Y3657D01*
X146297Y3609D01*
X146229Y3565D01*
X146158Y3524D01*
X146086Y3486D01*
X146012Y3452D01*
X145937Y3421D01*
X145860Y3393D01*
X145782Y3369D01*
X145703Y3349D01*
X145623Y3332D01*
X145543Y3319D01*
X145462Y3309D01*
X145381Y3304D01*
X145299Y3302D01*
X143620Y4501D02*
X143547Y4655D01*
X143478Y4810D01*
X143413Y4967D01*
X143351Y5126D01*
X143294Y5285D01*
X143240Y5447D01*
X143190Y5609D01*
X143144Y5772D01*
X143102Y5937D01*
X143064Y6103D01*
X143029Y6269D01*
X142999Y6436D01*
X142973Y6604D01*
X142951Y6772D01*
X142932Y6941D01*
X142918Y7111D01*
X142908Y7280D01*
X142902Y7450D01*
X142900Y7620D01*
X143620Y4501D02*
X143648Y4425D01*
X143680Y4350D01*
X143715Y4276D01*
X143753Y4204D01*
X143795Y4134D01*
X143840Y4066D01*
X143888Y4000D01*
X143939Y3936D01*
X143993Y3875D01*
X144049Y3816D01*
X144109Y3760D01*
X144170Y3707D01*
X144234Y3657D01*
X144301Y3609D01*
X144369Y3565D01*
X144440Y3524D01*
X144512Y3486D01*
X144586Y3452D01*
X144661Y3421D01*
X144738Y3393D01*
X144816Y3369D01*
X144895Y3349D01*
X144975Y3332D01*
X145055Y3319D01*
X145136Y3309D01*
X145217Y3304D01*
X145299Y3302D01*
X147218Y5221D02*
X143380Y10019D01*
X138554Y10019D02*
X136155Y11938D01*
X136155Y3302D01*
X138554Y3302D02*
X133756Y3302D01*
D11*
X152654Y125984D03*
X6248Y6274D03*
D12*
X144780Y114300D03*
X144780Y88900D03*
X144780Y63500D03*
X144780Y38100D03*
D11*
X35560Y124460D03*
X26670Y124460D03*
X22454Y109296D03*
X8890Y99060D03*
X46990Y83820D03*
X55880Y83820D03*
X50800Y76200D03*
X59665Y76200D03*
X55880Y69850D03*
X60960Y63500D03*
X64770Y71120D03*
X73660Y71120D03*
X82550Y71120D03*
X69850Y63500D03*
X78740Y63500D03*
X87630Y63500D03*
X91440Y71120D03*
X96520Y63500D03*
X105410Y63500D03*
X100330Y71120D03*
X99060Y78740D03*
X107950Y72390D03*
X116865Y73584D03*
X129540Y70587D03*
X15240Y31750D03*
X15240Y20320D03*
X58420Y16510D03*
X67310Y16510D03*
X58420Y25400D03*
X58420Y34290D03*
X58420Y43180D03*
X58420Y52070D03*
X67310Y52070D03*
X76200Y52070D03*
X67310Y43180D03*
X76200Y43180D03*
X67310Y34290D03*
X67310Y25400D03*
X76200Y25400D03*
X76200Y34290D03*
X87630Y10160D03*
X96520Y10160D03*
X105410Y10160D03*
X129540Y10160D03*
X143510Y17272D03*
X152400Y14732D03*
X134620Y17272D03*
M02*
