G04 EAGLE Gerber RS-274X export*
G75*
%MOMM*%
%FSLAX34Y34*%
%LPD*%
%INTop Copper*%
%IPPOS*%
%AMOC8*
5,1,8,0,0,1.08239X$1,22.5*%
G01*
%ADD10C,0.102000*%
%ADD11C,0.104000*%
%ADD12C,0.635000*%
%ADD13C,1.879600*%
%ADD14C,0.092500*%
%ADD15C,0.100000*%
%ADD16C,0.203200*%
%ADD17C,0.304800*%

G36*
X149947Y79007D02*
X149947Y79007D01*
X150034Y79010D01*
X150087Y79027D01*
X150142Y79035D01*
X150221Y79070D01*
X150305Y79097D01*
X150344Y79125D01*
X150401Y79151D01*
X150514Y79247D01*
X150578Y79292D01*
X155404Y84118D01*
X155456Y84188D01*
X155516Y84252D01*
X155542Y84301D01*
X155575Y84345D01*
X155606Y84427D01*
X155646Y84505D01*
X155654Y84553D01*
X155676Y84611D01*
X155688Y84759D01*
X155701Y84836D01*
X155701Y96774D01*
X155689Y96861D01*
X155686Y96948D01*
X155669Y97001D01*
X155661Y97055D01*
X155626Y97135D01*
X155599Y97219D01*
X155571Y97258D01*
X155545Y97315D01*
X155449Y97428D01*
X155404Y97492D01*
X149635Y103260D01*
X149634Y103261D01*
X149633Y103263D01*
X149515Y103351D01*
X149408Y103431D01*
X149407Y103432D01*
X149406Y103433D01*
X149272Y103483D01*
X149143Y103532D01*
X149141Y103533D01*
X149140Y103533D01*
X148995Y103545D01*
X148859Y103556D01*
X148858Y103556D01*
X148856Y103556D01*
X148841Y103552D01*
X148581Y103500D01*
X148553Y103486D01*
X148529Y103480D01*
X147054Y102869D01*
X142506Y102869D01*
X138305Y104610D01*
X135090Y107825D01*
X133349Y112026D01*
X133349Y116574D01*
X133960Y118049D01*
X133961Y118051D01*
X133962Y118052D01*
X133996Y118186D01*
X134031Y118324D01*
X134031Y118326D01*
X134032Y118327D01*
X134027Y118468D01*
X134023Y118609D01*
X134023Y118610D01*
X134023Y118612D01*
X133979Y118746D01*
X133937Y118879D01*
X133936Y118881D01*
X133935Y118882D01*
X133926Y118895D01*
X133778Y119115D01*
X133755Y119135D01*
X133740Y119155D01*
X131528Y121368D01*
X131458Y121420D01*
X131394Y121480D01*
X131345Y121506D01*
X131301Y121539D01*
X131219Y121570D01*
X131141Y121610D01*
X131094Y121618D01*
X131035Y121640D01*
X130887Y121652D01*
X130810Y121665D01*
X58420Y121665D01*
X58333Y121653D01*
X58246Y121650D01*
X58193Y121633D01*
X58139Y121625D01*
X58059Y121590D01*
X57975Y121563D01*
X57936Y121535D01*
X57879Y121509D01*
X57766Y121413D01*
X57702Y121368D01*
X55162Y118828D01*
X55110Y118758D01*
X55050Y118694D01*
X55024Y118645D01*
X54991Y118601D01*
X54960Y118519D01*
X54920Y118441D01*
X54912Y118394D01*
X54890Y118335D01*
X54878Y118187D01*
X54865Y118110D01*
X54865Y110911D01*
X52920Y108965D01*
X48260Y108965D01*
X48173Y108953D01*
X48086Y108950D01*
X48033Y108933D01*
X47979Y108925D01*
X47899Y108890D01*
X47815Y108863D01*
X47776Y108835D01*
X47719Y108809D01*
X47606Y108713D01*
X47542Y108668D01*
X43260Y104386D01*
X43208Y104316D01*
X43148Y104252D01*
X43122Y104203D01*
X43089Y104159D01*
X43058Y104077D01*
X43018Y103999D01*
X43010Y103951D01*
X42988Y103893D01*
X42976Y103745D01*
X42963Y103668D01*
X42963Y96488D01*
X42971Y96430D01*
X42969Y96372D01*
X42991Y96290D01*
X43003Y96206D01*
X43026Y96153D01*
X43041Y96097D01*
X43084Y96024D01*
X43119Y95947D01*
X43157Y95902D01*
X43186Y95852D01*
X43248Y95794D01*
X43302Y95730D01*
X43351Y95698D01*
X43394Y95658D01*
X43469Y95619D01*
X43539Y95572D01*
X43595Y95555D01*
X43647Y95528D01*
X43715Y95517D01*
X43810Y95487D01*
X43910Y95484D01*
X43978Y95473D01*
X60279Y95473D01*
X61777Y93975D01*
X61778Y93951D01*
X61795Y93898D01*
X61799Y93869D01*
X61799Y93396D01*
X61811Y93309D01*
X61814Y93222D01*
X61831Y93169D01*
X61839Y93114D01*
X61874Y93035D01*
X61901Y92951D01*
X61929Y92912D01*
X61955Y92855D01*
X62051Y92742D01*
X62096Y92678D01*
X62782Y91992D01*
X62852Y91940D01*
X62916Y91880D01*
X62965Y91854D01*
X63009Y91821D01*
X63091Y91790D01*
X63169Y91750D01*
X63216Y91742D01*
X63275Y91720D01*
X63423Y91708D01*
X63500Y91695D01*
X97370Y91695D01*
X109772Y79292D01*
X109842Y79240D01*
X109906Y79180D01*
X109955Y79154D01*
X109999Y79121D01*
X110081Y79090D01*
X110159Y79050D01*
X110207Y79042D01*
X110265Y79020D01*
X110413Y79008D01*
X110490Y78995D01*
X149860Y78995D01*
X149947Y79007D01*
G37*
G36*
X149820Y51575D02*
X149820Y51575D01*
X149907Y51578D01*
X149960Y51595D01*
X150014Y51603D01*
X150094Y51638D01*
X150178Y51665D01*
X150217Y51693D01*
X150274Y51719D01*
X150387Y51815D01*
X150451Y51860D01*
X155658Y57067D01*
X155710Y57137D01*
X155770Y57201D01*
X155796Y57250D01*
X155829Y57294D01*
X155860Y57376D01*
X155900Y57454D01*
X155908Y57502D01*
X155930Y57560D01*
X155942Y57708D01*
X155955Y57785D01*
X155955Y70739D01*
X155943Y70826D01*
X155940Y70913D01*
X155923Y70966D01*
X155915Y71021D01*
X155880Y71100D01*
X155853Y71184D01*
X155825Y71223D01*
X155799Y71280D01*
X155703Y71393D01*
X155658Y71457D01*
X150552Y76562D01*
X150483Y76615D01*
X150419Y76675D01*
X150369Y76700D01*
X150325Y76733D01*
X150244Y76764D01*
X150166Y76804D01*
X150118Y76812D01*
X150060Y76834D01*
X149912Y76847D01*
X149835Y76860D01*
X106770Y76860D01*
X95282Y88348D01*
X95212Y88400D01*
X95148Y88460D01*
X95099Y88486D01*
X95055Y88519D01*
X94973Y88550D01*
X94895Y88590D01*
X94848Y88598D01*
X94789Y88620D01*
X94642Y88632D01*
X94564Y88645D01*
X61443Y88645D01*
X61356Y88633D01*
X61269Y88630D01*
X61216Y88613D01*
X61161Y88605D01*
X61081Y88570D01*
X60998Y88543D01*
X60959Y88515D01*
X60902Y88489D01*
X60788Y88393D01*
X60725Y88348D01*
X60311Y87934D01*
X43608Y87934D01*
X43521Y87922D01*
X43434Y87919D01*
X43381Y87902D01*
X43326Y87894D01*
X43247Y87858D01*
X43163Y87831D01*
X43124Y87803D01*
X43067Y87778D01*
X42954Y87682D01*
X42890Y87637D01*
X42792Y87539D01*
X42740Y87469D01*
X42680Y87405D01*
X42655Y87356D01*
X42621Y87312D01*
X42590Y87230D01*
X42550Y87152D01*
X42543Y87105D01*
X42520Y87046D01*
X42508Y86898D01*
X42495Y86821D01*
X42495Y75971D01*
X42507Y75885D01*
X42510Y75797D01*
X42527Y75745D01*
X42535Y75690D01*
X42571Y75610D01*
X42597Y75527D01*
X42625Y75488D01*
X42651Y75430D01*
X42747Y75317D01*
X42761Y75293D01*
X42770Y75285D01*
X42792Y75254D01*
X58540Y59506D01*
X58610Y59453D01*
X58674Y59393D01*
X58723Y59368D01*
X58768Y59335D01*
X58849Y59304D01*
X58927Y59264D01*
X58975Y59256D01*
X59033Y59233D01*
X59181Y59221D01*
X59258Y59208D01*
X122236Y59208D01*
X129584Y51860D01*
X129654Y51808D01*
X129718Y51748D01*
X129767Y51722D01*
X129811Y51689D01*
X129893Y51658D01*
X129971Y51618D01*
X130019Y51610D01*
X130077Y51588D01*
X130225Y51576D01*
X130302Y51563D01*
X149733Y51563D01*
X149820Y51575D01*
G37*
G36*
X125828Y19063D02*
X125828Y19063D01*
X125927Y19066D01*
X125985Y19083D01*
X126046Y19091D01*
X126138Y19127D01*
X126233Y19155D01*
X126285Y19185D01*
X126341Y19208D01*
X126421Y19266D01*
X126507Y19316D01*
X126582Y19382D01*
X126599Y19394D01*
X126606Y19404D01*
X126628Y19423D01*
X133876Y26671D01*
X149860Y26671D01*
X149958Y26683D01*
X150057Y26686D01*
X150115Y26703D01*
X150176Y26711D01*
X150268Y26747D01*
X150363Y26775D01*
X150415Y26805D01*
X150471Y26828D01*
X150551Y26886D01*
X150637Y26936D01*
X150712Y27002D01*
X150729Y27014D01*
X150736Y27024D01*
X150758Y27043D01*
X155330Y31615D01*
X155390Y31693D01*
X155458Y31765D01*
X155487Y31818D01*
X155524Y31866D01*
X155564Y31957D01*
X155612Y32043D01*
X155627Y32102D01*
X155651Y32158D01*
X155666Y32256D01*
X155691Y32351D01*
X155697Y32451D01*
X155701Y32472D01*
X155699Y32484D01*
X155701Y32512D01*
X155701Y43688D01*
X155689Y43786D01*
X155686Y43885D01*
X155669Y43943D01*
X155661Y44004D01*
X155625Y44096D01*
X155597Y44191D01*
X155567Y44243D01*
X155544Y44299D01*
X155486Y44379D01*
X155436Y44465D01*
X155370Y44540D01*
X155358Y44557D01*
X155348Y44564D01*
X155330Y44585D01*
X150758Y49158D01*
X150679Y49218D01*
X150607Y49286D01*
X150554Y49315D01*
X150506Y49352D01*
X150415Y49392D01*
X150329Y49440D01*
X150270Y49455D01*
X150214Y49479D01*
X150116Y49494D01*
X150021Y49519D01*
X149921Y49525D01*
X149900Y49529D01*
X149888Y49527D01*
X149860Y49529D01*
X128796Y49529D01*
X121548Y56778D01*
X121469Y56838D01*
X121397Y56906D01*
X121344Y56935D01*
X121296Y56972D01*
X121205Y57012D01*
X121119Y57060D01*
X121060Y57075D01*
X121004Y57099D01*
X120906Y57114D01*
X120811Y57139D01*
X120711Y57145D01*
X120690Y57149D01*
X120678Y57147D01*
X120650Y57149D01*
X86360Y57149D01*
X86262Y57137D01*
X86163Y57134D01*
X86105Y57117D01*
X86044Y57109D01*
X85952Y57073D01*
X85857Y57045D01*
X85805Y57015D01*
X85749Y56992D01*
X85669Y56934D01*
X85583Y56884D01*
X85508Y56818D01*
X85491Y56806D01*
X85484Y56796D01*
X85471Y56785D01*
X85470Y56785D01*
X85470Y56784D01*
X85463Y56778D01*
X82923Y54238D01*
X82862Y54159D01*
X82794Y54087D01*
X82765Y54034D01*
X82728Y53986D01*
X82688Y53895D01*
X82640Y53809D01*
X82625Y53750D01*
X82601Y53694D01*
X82586Y53596D01*
X82561Y53501D01*
X82555Y53411D01*
X82553Y53401D01*
X82554Y53395D01*
X82551Y53380D01*
X82553Y53368D01*
X82551Y53340D01*
X82551Y20320D01*
X82566Y20202D01*
X82573Y20083D01*
X82586Y20045D01*
X82591Y20004D01*
X82634Y19894D01*
X82671Y19781D01*
X82693Y19746D01*
X82708Y19709D01*
X82778Y19613D01*
X82841Y19512D01*
X82871Y19484D01*
X82894Y19451D01*
X82986Y19376D01*
X83073Y19294D01*
X83108Y19274D01*
X83139Y19249D01*
X83247Y19198D01*
X83351Y19140D01*
X83391Y19130D01*
X83427Y19113D01*
X83544Y19091D01*
X83659Y19061D01*
X83720Y19057D01*
X83740Y19053D01*
X83760Y19055D01*
X83820Y19051D01*
X125730Y19051D01*
X125828Y19063D01*
G37*
G36*
X48347Y14237D02*
X48347Y14237D01*
X48434Y14240D01*
X48487Y14257D01*
X48542Y14265D01*
X48621Y14300D01*
X48705Y14327D01*
X48744Y14355D01*
X48801Y14381D01*
X48914Y14477D01*
X48978Y14522D01*
X52788Y18332D01*
X52840Y18402D01*
X52900Y18466D01*
X52926Y18515D01*
X52959Y18559D01*
X52990Y18641D01*
X53030Y18719D01*
X53038Y18767D01*
X53060Y18825D01*
X53072Y18973D01*
X53085Y19050D01*
X53085Y60960D01*
X53078Y61013D01*
X53079Y61043D01*
X53072Y61066D01*
X53070Y61134D01*
X53053Y61187D01*
X53045Y61242D01*
X53010Y61321D01*
X52983Y61405D01*
X52955Y61444D01*
X52929Y61501D01*
X52833Y61614D01*
X52788Y61678D01*
X40893Y73573D01*
X40893Y87448D01*
X40914Y87477D01*
X40974Y87540D01*
X41000Y87590D01*
X41033Y87634D01*
X41064Y87716D01*
X41104Y87794D01*
X41112Y87841D01*
X41134Y87900D01*
X41146Y88047D01*
X41159Y88125D01*
X41159Y88162D01*
X42208Y89211D01*
X42245Y89211D01*
X42332Y89223D01*
X42419Y89226D01*
X42472Y89243D01*
X42527Y89251D01*
X42607Y89286D01*
X42690Y89313D01*
X42729Y89341D01*
X42786Y89367D01*
X42896Y89460D01*
X58750Y89460D01*
X58808Y89468D01*
X58867Y89466D01*
X58948Y89488D01*
X59032Y89499D01*
X59085Y89523D01*
X59142Y89538D01*
X59214Y89581D01*
X59291Y89616D01*
X59336Y89653D01*
X59386Y89683D01*
X59444Y89745D01*
X59508Y89799D01*
X59541Y89848D01*
X59581Y89891D01*
X59619Y89966D01*
X59666Y90036D01*
X59683Y90092D01*
X59710Y90144D01*
X59721Y90212D01*
X59751Y90307D01*
X59754Y90407D01*
X59765Y90475D01*
X59765Y92405D01*
X59757Y92462D01*
X59759Y92515D01*
X59759Y92516D01*
X59759Y92522D01*
X59737Y92603D01*
X59726Y92687D01*
X59702Y92740D01*
X59687Y92797D01*
X59644Y92869D01*
X59609Y92946D01*
X59572Y92991D01*
X59542Y93041D01*
X59480Y93099D01*
X59426Y93163D01*
X59377Y93196D01*
X59334Y93236D01*
X59259Y93274D01*
X59189Y93321D01*
X59133Y93338D01*
X59081Y93365D01*
X59013Y93376D01*
X58918Y93406D01*
X58818Y93409D01*
X58750Y93420D01*
X41148Y93420D01*
X41061Y93408D01*
X40974Y93405D01*
X40921Y93388D01*
X40867Y93381D01*
X40787Y93345D01*
X40704Y93318D01*
X40664Y93290D01*
X40607Y93264D01*
X40494Y93168D01*
X40430Y93123D01*
X38246Y90939D01*
X38193Y90869D01*
X38133Y90805D01*
X38108Y90756D01*
X38075Y90711D01*
X38044Y90630D01*
X38004Y90552D01*
X37996Y90504D01*
X37974Y90446D01*
X37961Y90298D01*
X37948Y90221D01*
X37948Y66054D01*
X25818Y53923D01*
X16739Y53923D01*
X16652Y53911D01*
X16565Y53908D01*
X16512Y53891D01*
X16457Y53884D01*
X16377Y53848D01*
X16294Y53821D01*
X16255Y53793D01*
X16198Y53767D01*
X16084Y53671D01*
X16021Y53626D01*
X13252Y50858D01*
X13200Y50788D01*
X13140Y50724D01*
X13114Y50674D01*
X13081Y50630D01*
X13050Y50549D01*
X13010Y50471D01*
X13002Y50423D01*
X12980Y50365D01*
X12968Y50217D01*
X12955Y50140D01*
X12955Y41910D01*
X12967Y41823D01*
X12970Y41736D01*
X12987Y41683D01*
X12995Y41629D01*
X13030Y41549D01*
X13057Y41465D01*
X13085Y41426D01*
X13111Y41369D01*
X13207Y41256D01*
X13252Y41192D01*
X20575Y33870D01*
X20575Y19050D01*
X20587Y18963D01*
X20590Y18876D01*
X20607Y18823D01*
X20615Y18769D01*
X20650Y18689D01*
X20677Y18605D01*
X20705Y18566D01*
X20731Y18509D01*
X20827Y18396D01*
X20872Y18332D01*
X24682Y14522D01*
X24752Y14470D01*
X24816Y14410D01*
X24865Y14384D01*
X24909Y14351D01*
X24991Y14320D01*
X25069Y14280D01*
X25117Y14272D01*
X25175Y14250D01*
X25323Y14238D01*
X25400Y14225D01*
X48260Y14225D01*
X48347Y14237D01*
G37*
G36*
X148677Y2807D02*
X148677Y2807D01*
X148764Y2810D01*
X148817Y2827D01*
X148872Y2835D01*
X148951Y2870D01*
X149035Y2897D01*
X149074Y2925D01*
X149131Y2951D01*
X149244Y3047D01*
X149308Y3092D01*
X155658Y9442D01*
X155710Y9512D01*
X155770Y9576D01*
X155796Y9625D01*
X155829Y9669D01*
X155860Y9751D01*
X155900Y9829D01*
X155908Y9877D01*
X155930Y9935D01*
X155942Y10083D01*
X155955Y10160D01*
X155955Y17780D01*
X155943Y17867D01*
X155940Y17954D01*
X155923Y18007D01*
X155915Y18062D01*
X155880Y18141D01*
X155853Y18225D01*
X155825Y18264D01*
X155799Y18321D01*
X155703Y18434D01*
X155658Y18498D01*
X150578Y23578D01*
X150508Y23630D01*
X150444Y23690D01*
X150395Y23716D01*
X150351Y23749D01*
X150269Y23780D01*
X150191Y23820D01*
X150144Y23828D01*
X150085Y23850D01*
X149937Y23862D01*
X149860Y23875D01*
X135890Y23875D01*
X135803Y23863D01*
X135716Y23860D01*
X135663Y23843D01*
X135609Y23835D01*
X135529Y23800D01*
X135445Y23773D01*
X135406Y23745D01*
X135349Y23719D01*
X135236Y23623D01*
X135172Y23578D01*
X127850Y16255D01*
X86360Y16255D01*
X86273Y16243D01*
X86186Y16240D01*
X86133Y16223D01*
X86079Y16215D01*
X85999Y16180D01*
X85915Y16153D01*
X85876Y16125D01*
X85819Y16099D01*
X85706Y16003D01*
X85642Y15958D01*
X83102Y13418D01*
X83050Y13348D01*
X82990Y13284D01*
X82964Y13235D01*
X82931Y13191D01*
X82900Y13109D01*
X82860Y13031D01*
X82852Y12984D01*
X82830Y12925D01*
X82818Y12777D01*
X82805Y12700D01*
X82805Y6350D01*
X82817Y6263D01*
X82820Y6176D01*
X82837Y6123D01*
X82845Y6069D01*
X82880Y5989D01*
X82907Y5905D01*
X82935Y5866D01*
X82961Y5809D01*
X83057Y5696D01*
X83102Y5632D01*
X85642Y3092D01*
X85712Y3040D01*
X85776Y2980D01*
X85825Y2954D01*
X85869Y2921D01*
X85951Y2890D01*
X86029Y2850D01*
X86077Y2842D01*
X86135Y2820D01*
X86283Y2808D01*
X86360Y2795D01*
X148590Y2795D01*
X148677Y2807D01*
G37*
G36*
X20915Y75705D02*
X20915Y75705D01*
X21002Y75708D01*
X21055Y75725D01*
X21110Y75733D01*
X21189Y75768D01*
X21273Y75795D01*
X21312Y75823D01*
X21369Y75849D01*
X21482Y75945D01*
X21546Y75990D01*
X27362Y81806D01*
X27414Y81876D01*
X27474Y81940D01*
X27500Y81989D01*
X27533Y82033D01*
X27564Y82115D01*
X27604Y82193D01*
X27612Y82241D01*
X27634Y82299D01*
X27646Y82447D01*
X27659Y82524D01*
X27659Y86168D01*
X28702Y87211D01*
X32346Y87211D01*
X32433Y87223D01*
X32520Y87226D01*
X32573Y87243D01*
X32627Y87251D01*
X32707Y87286D01*
X32791Y87313D01*
X32830Y87341D01*
X32887Y87367D01*
X33000Y87463D01*
X33064Y87508D01*
X36100Y90544D01*
X36153Y90614D01*
X36213Y90678D01*
X36238Y90727D01*
X36271Y90772D01*
X36302Y90853D01*
X36342Y90931D01*
X36350Y90979D01*
X36372Y91037D01*
X36384Y91185D01*
X36397Y91262D01*
X36397Y101930D01*
X36389Y101988D01*
X36391Y102047D01*
X36369Y102128D01*
X36358Y102212D01*
X36334Y102265D01*
X36319Y102322D01*
X36276Y102394D01*
X36241Y102471D01*
X36204Y102516D01*
X36174Y102566D01*
X36112Y102624D01*
X36058Y102688D01*
X36009Y102721D01*
X35966Y102761D01*
X35891Y102799D01*
X35821Y102846D01*
X35765Y102863D01*
X35713Y102890D01*
X35645Y102901D01*
X35550Y102931D01*
X35450Y102934D01*
X35382Y102945D01*
X34519Y102945D01*
X34461Y102937D01*
X34402Y102939D01*
X34321Y102917D01*
X34237Y102906D01*
X34184Y102882D01*
X34127Y102867D01*
X34055Y102824D01*
X33978Y102789D01*
X33933Y102752D01*
X33883Y102722D01*
X33825Y102660D01*
X33761Y102606D01*
X33728Y102557D01*
X33688Y102514D01*
X33650Y102439D01*
X33603Y102369D01*
X33585Y102313D01*
X33559Y102261D01*
X33547Y102193D01*
X33517Y102098D01*
X33515Y101998D01*
X33503Y101930D01*
X33503Y96915D01*
X32761Y96173D01*
X32730Y96163D01*
X32690Y96135D01*
X32633Y96109D01*
X32520Y96013D01*
X32456Y95968D01*
X32158Y95669D01*
X28702Y95669D01*
X28404Y95968D01*
X28334Y96020D01*
X28270Y96080D01*
X28221Y96106D01*
X28177Y96139D01*
X28095Y96170D01*
X28017Y96210D01*
X27969Y96218D01*
X27911Y96240D01*
X27763Y96252D01*
X27686Y96265D01*
X13970Y96265D01*
X13883Y96253D01*
X13796Y96250D01*
X13743Y96233D01*
X13689Y96225D01*
X13609Y96190D01*
X13525Y96163D01*
X13486Y96135D01*
X13429Y96109D01*
X13316Y96013D01*
X13252Y95968D01*
X4362Y87078D01*
X4310Y87008D01*
X4250Y86944D01*
X4224Y86895D01*
X4191Y86851D01*
X4160Y86769D01*
X4120Y86691D01*
X4112Y86644D01*
X4090Y86585D01*
X4078Y86437D01*
X4065Y86360D01*
X4065Y78588D01*
X4077Y78501D01*
X4080Y78414D01*
X4097Y78361D01*
X4105Y78306D01*
X4140Y78226D01*
X4167Y78143D01*
X4195Y78104D01*
X4221Y78047D01*
X4317Y77933D01*
X4362Y77870D01*
X6242Y75990D01*
X6311Y75938D01*
X6375Y75878D01*
X6425Y75852D01*
X6469Y75819D01*
X6551Y75788D01*
X6629Y75748D01*
X6676Y75740D01*
X6735Y75718D01*
X6882Y75706D01*
X6960Y75693D01*
X20828Y75693D01*
X20915Y75705D01*
G37*
G36*
X30995Y97545D02*
X30995Y97545D01*
X31054Y97543D01*
X31135Y97565D01*
X31219Y97577D01*
X31272Y97600D01*
X31329Y97615D01*
X31401Y97658D01*
X31478Y97693D01*
X31523Y97731D01*
X31573Y97760D01*
X31631Y97822D01*
X31695Y97876D01*
X31728Y97925D01*
X31768Y97968D01*
X31806Y98043D01*
X31853Y98113D01*
X31870Y98169D01*
X31897Y98221D01*
X31908Y98289D01*
X31938Y98384D01*
X31941Y98484D01*
X31952Y98552D01*
X31952Y103313D01*
X33433Y104794D01*
X33486Y104863D01*
X33546Y104927D01*
X33571Y104977D01*
X33604Y105021D01*
X33635Y105103D01*
X33675Y105181D01*
X33683Y105228D01*
X33705Y105287D01*
X33717Y105434D01*
X33730Y105512D01*
X33730Y115875D01*
X33724Y115923D01*
X33724Y115928D01*
X33722Y115934D01*
X33718Y115961D01*
X33715Y116049D01*
X33698Y116102D01*
X33691Y116156D01*
X33655Y116236D01*
X33628Y116319D01*
X33600Y116359D01*
X33574Y116416D01*
X33478Y116529D01*
X33433Y116593D01*
X31833Y118193D01*
X31763Y118245D01*
X31699Y118305D01*
X31650Y118331D01*
X31606Y118364D01*
X31524Y118395D01*
X31446Y118435D01*
X31399Y118443D01*
X31340Y118465D01*
X31192Y118477D01*
X31115Y118490D01*
X27076Y118490D01*
X26990Y118478D01*
X26902Y118475D01*
X26850Y118458D01*
X26795Y118450D01*
X26715Y118415D01*
X26632Y118388D01*
X26593Y118360D01*
X26536Y118334D01*
X26422Y118238D01*
X26359Y118193D01*
X22406Y114240D01*
X22300Y114100D01*
X22282Y114079D01*
X22266Y114061D01*
X22264Y114058D01*
X22253Y114044D01*
X22227Y114002D01*
X22146Y113809D01*
X22122Y113758D01*
X22026Y113423D01*
X21978Y113382D01*
X21888Y113314D01*
X21870Y113290D01*
X21847Y113270D01*
X21785Y113176D01*
X21718Y113086D01*
X21707Y113058D01*
X21690Y113033D01*
X21669Y112957D01*
X21617Y112820D01*
X21612Y112757D01*
X21599Y112710D01*
X21596Y112688D01*
X21436Y112560D01*
X21428Y112551D01*
X21418Y112545D01*
X21377Y112497D01*
X21340Y112457D01*
X21302Y112426D01*
X21284Y112398D01*
X21241Y112353D01*
X21222Y112315D01*
X21200Y112289D01*
X21094Y112114D01*
X21042Y112100D01*
X21029Y112095D01*
X21016Y112093D01*
X20898Y112042D01*
X20779Y111994D01*
X20768Y111985D01*
X20755Y111980D01*
X20656Y111897D01*
X20555Y111818D01*
X20547Y111807D01*
X20536Y111798D01*
X20501Y111742D01*
X20389Y111587D01*
X20384Y111573D01*
X20160Y111483D01*
X19914Y111342D01*
X19909Y111336D01*
X19903Y111333D01*
X19751Y111212D01*
X19706Y111186D01*
X19681Y111160D01*
X19644Y111135D01*
X19597Y111118D01*
X19547Y111083D01*
X19538Y111083D01*
X19522Y111078D01*
X19505Y111078D01*
X19386Y111039D01*
X19265Y111005D01*
X19251Y110995D01*
X19234Y110990D01*
X19177Y110949D01*
X19024Y110853D01*
X18992Y110818D01*
X18961Y110795D01*
X17879Y109713D01*
X17827Y109644D01*
X17767Y109580D01*
X17741Y109530D01*
X17708Y109486D01*
X17677Y109405D01*
X17637Y109327D01*
X17629Y109279D01*
X17607Y109221D01*
X17595Y109073D01*
X17582Y108996D01*
X17582Y108743D01*
X17598Y108628D01*
X17597Y108588D01*
X17604Y108562D01*
X17606Y108523D01*
X17748Y107882D01*
X17634Y107538D01*
X17583Y107259D01*
X17585Y107236D01*
X17582Y107217D01*
X17582Y106917D01*
X17560Y106888D01*
X17538Y106831D01*
X17508Y106779D01*
X17488Y106699D01*
X17459Y106622D01*
X17454Y106562D01*
X17449Y106544D01*
X17199Y106144D01*
X17180Y106102D01*
X17177Y106098D01*
X17175Y106091D01*
X17132Y105994D01*
X17097Y105927D01*
X16954Y105500D01*
X16921Y105472D01*
X16866Y105392D01*
X16805Y105316D01*
X16787Y105275D01*
X16761Y105237D01*
X16740Y105165D01*
X16704Y105082D01*
X16518Y104937D01*
X16511Y104930D01*
X16502Y104925D01*
X16465Y104882D01*
X16320Y104732D01*
X16301Y104697D01*
X16280Y104673D01*
X16159Y104479D01*
X16117Y104469D01*
X16066Y104439D01*
X16010Y104417D01*
X15944Y104367D01*
X15872Y104325D01*
X15831Y104281D01*
X15784Y104246D01*
X15747Y104196D01*
X15567Y104098D01*
X15494Y104044D01*
X15417Y103998D01*
X15381Y103959D01*
X15339Y103928D01*
X15284Y103856D01*
X15222Y103791D01*
X15198Y103744D01*
X15167Y103702D01*
X15134Y103618D01*
X15093Y103537D01*
X15085Y103492D01*
X15064Y103436D01*
X15050Y103283D01*
X15038Y103206D01*
X15038Y98831D01*
X15050Y98745D01*
X15053Y98657D01*
X15070Y98605D01*
X15077Y98550D01*
X15113Y98470D01*
X15140Y98387D01*
X15168Y98348D01*
X15194Y98290D01*
X15289Y98177D01*
X15335Y98114D01*
X15614Y97834D01*
X15684Y97782D01*
X15748Y97722D01*
X15797Y97696D01*
X15841Y97663D01*
X15923Y97632D01*
X16001Y97592D01*
X16049Y97584D01*
X16107Y97562D01*
X16255Y97550D01*
X16332Y97537D01*
X30937Y97537D01*
X30995Y97545D01*
G37*
G36*
X24217Y56147D02*
X24217Y56147D01*
X24304Y56150D01*
X24357Y56167D01*
X24412Y56175D01*
X24491Y56210D01*
X24575Y56237D01*
X24614Y56265D01*
X24671Y56291D01*
X24784Y56387D01*
X24848Y56432D01*
X36278Y67862D01*
X36330Y67932D01*
X36390Y67996D01*
X36416Y68045D01*
X36449Y68089D01*
X36480Y68171D01*
X36520Y68249D01*
X36528Y68297D01*
X36550Y68355D01*
X36562Y68503D01*
X36575Y68580D01*
X36575Y85090D01*
X36567Y85148D01*
X36569Y85206D01*
X36547Y85288D01*
X36535Y85372D01*
X36512Y85425D01*
X36497Y85481D01*
X36454Y85554D01*
X36419Y85631D01*
X36381Y85676D01*
X36352Y85726D01*
X36290Y85784D01*
X36236Y85848D01*
X36187Y85880D01*
X36144Y85920D01*
X36069Y85959D01*
X35999Y86006D01*
X35943Y86023D01*
X35891Y86050D01*
X35823Y86061D01*
X35728Y86091D01*
X35628Y86094D01*
X35560Y86105D01*
X34290Y86105D01*
X34232Y86097D01*
X34174Y86099D01*
X34092Y86077D01*
X34009Y86065D01*
X33955Y86042D01*
X33899Y86027D01*
X33826Y85984D01*
X33749Y85949D01*
X33704Y85911D01*
X33654Y85882D01*
X33596Y85820D01*
X33532Y85766D01*
X33500Y85717D01*
X33460Y85674D01*
X33421Y85599D01*
X33375Y85529D01*
X33357Y85473D01*
X33330Y85421D01*
X33319Y85353D01*
X33289Y85258D01*
X33286Y85158D01*
X33275Y85090D01*
X33275Y75351D01*
X23710Y65785D01*
X16510Y65785D01*
X16423Y65773D01*
X16336Y65770D01*
X16283Y65753D01*
X16229Y65745D01*
X16149Y65710D01*
X16065Y65683D01*
X16026Y65655D01*
X15969Y65629D01*
X15856Y65533D01*
X15792Y65488D01*
X13252Y62948D01*
X13227Y62914D01*
X13212Y62902D01*
X13188Y62866D01*
X13140Y62814D01*
X13114Y62765D01*
X13081Y62721D01*
X13067Y62685D01*
X13055Y62665D01*
X13040Y62619D01*
X13010Y62561D01*
X13002Y62514D01*
X12980Y62455D01*
X12977Y62421D01*
X12969Y62394D01*
X12966Y62299D01*
X12955Y62230D01*
X12955Y59690D01*
X12967Y59603D01*
X12970Y59516D01*
X12987Y59463D01*
X12995Y59409D01*
X13030Y59329D01*
X13057Y59245D01*
X13085Y59206D01*
X13111Y59149D01*
X13207Y59036D01*
X13252Y58972D01*
X15792Y56432D01*
X15862Y56380D01*
X15926Y56320D01*
X15975Y56294D01*
X16019Y56261D01*
X16101Y56230D01*
X16179Y56190D01*
X16227Y56182D01*
X16285Y56160D01*
X16433Y56148D01*
X16510Y56135D01*
X24130Y56135D01*
X24217Y56147D01*
G37*
G36*
X12058Y104076D02*
X12058Y104076D01*
X12098Y104076D01*
X13198Y104276D01*
X13233Y104291D01*
X13312Y104316D01*
X14412Y104916D01*
X14432Y104934D01*
X14463Y104950D01*
X15363Y105650D01*
X15383Y105674D01*
X15443Y105738D01*
X15446Y105740D01*
X15446Y105742D01*
X15452Y105748D01*
X15952Y106548D01*
X15964Y106582D01*
X15991Y106630D01*
X16291Y107530D01*
X16294Y107567D01*
X16310Y107650D01*
X16310Y108450D01*
X16303Y108483D01*
X16301Y108533D01*
X16101Y109433D01*
X16084Y109468D01*
X16062Y109535D01*
X15562Y110435D01*
X15540Y110459D01*
X15516Y110500D01*
X14816Y111300D01*
X14815Y111301D01*
X14814Y111303D01*
X14597Y111547D01*
X14259Y111928D01*
X14014Y112203D01*
X14006Y112208D01*
X13999Y112219D01*
X13357Y112861D01*
X13110Y113519D01*
X13110Y114088D01*
X13269Y114565D01*
X13590Y114966D01*
X14086Y115297D01*
X14777Y115470D01*
X15492Y115470D01*
X15921Y115384D01*
X16316Y115226D01*
X16835Y114708D01*
X16985Y114482D01*
X17050Y114288D01*
X17050Y114012D01*
X16998Y113855D01*
X16525Y113382D01*
X16310Y113311D01*
X16290Y113298D01*
X16260Y113290D01*
X15992Y113156D01*
X15860Y113090D01*
X15831Y113066D01*
X15761Y113019D01*
X15661Y112919D01*
X15648Y112898D01*
X15629Y112882D01*
X15603Y112825D01*
X15570Y112772D01*
X15567Y112747D01*
X15557Y112724D01*
X15559Y112661D01*
X15553Y112599D01*
X15562Y112576D01*
X15563Y112551D01*
X15593Y112496D01*
X15615Y112437D01*
X15633Y112420D01*
X15645Y112398D01*
X15715Y112344D01*
X15742Y112320D01*
X15751Y112317D01*
X15760Y112310D01*
X16160Y112110D01*
X16175Y112106D01*
X16188Y112097D01*
X16322Y112071D01*
X16329Y112070D01*
X16330Y112070D01*
X17530Y112070D01*
X17556Y112076D01*
X17593Y112075D01*
X18193Y112175D01*
X18198Y112177D01*
X18205Y112177D01*
X18705Y112277D01*
X18731Y112289D01*
X18771Y112297D01*
X19271Y112497D01*
X19302Y112519D01*
X19358Y112546D01*
X19758Y112846D01*
X19762Y112850D01*
X19768Y112853D01*
X20268Y113253D01*
X20285Y113276D01*
X20356Y113354D01*
X20956Y114354D01*
X20968Y114390D01*
X20996Y114446D01*
X21196Y115146D01*
X21197Y115171D01*
X21207Y115203D01*
X21307Y116003D01*
X21305Y116024D01*
X21310Y116050D01*
X21310Y129750D01*
X21304Y129775D01*
X21307Y129801D01*
X21285Y129859D01*
X21271Y129919D01*
X21254Y129939D01*
X21245Y129963D01*
X21200Y130005D01*
X21161Y130052D01*
X21137Y130063D01*
X21118Y130080D01*
X21059Y130098D01*
X21002Y130123D01*
X20977Y130122D01*
X20952Y130130D01*
X20891Y130119D01*
X20829Y130117D01*
X20807Y130104D01*
X20781Y130100D01*
X20710Y130052D01*
X20677Y130034D01*
X20671Y130026D01*
X20661Y130019D01*
X20161Y129519D01*
X20142Y129488D01*
X20104Y129446D01*
X19828Y128986D01*
X19361Y128519D01*
X19353Y128506D01*
X19338Y128493D01*
X18849Y127907D01*
X17661Y126719D01*
X17654Y126708D01*
X17641Y126697D01*
X16451Y125308D01*
X15494Y124352D01*
X14596Y123813D01*
X14099Y123730D01*
X12230Y123730D01*
X12204Y123724D01*
X12168Y123725D01*
X10968Y123525D01*
X10952Y123518D01*
X10930Y123517D01*
X9830Y123217D01*
X9813Y123208D01*
X9789Y123203D01*
X8789Y122803D01*
X8767Y122788D01*
X8734Y122776D01*
X7734Y122176D01*
X7714Y122156D01*
X7680Y122136D01*
X6880Y121436D01*
X6873Y121427D01*
X6861Y121419D01*
X6061Y120619D01*
X6050Y120601D01*
X6030Y120583D01*
X5330Y119683D01*
X5319Y119660D01*
X5298Y119635D01*
X4298Y117835D01*
X4287Y117799D01*
X4262Y117747D01*
X3762Y115847D01*
X3761Y115815D01*
X3750Y115772D01*
X3650Y114072D01*
X3657Y114036D01*
X3656Y113980D01*
X3956Y112380D01*
X3965Y112359D01*
X3968Y112339D01*
X3968Y112335D01*
X3969Y112334D01*
X3969Y112330D01*
X4469Y110830D01*
X4488Y110799D01*
X4509Y110746D01*
X5209Y109646D01*
X5228Y109627D01*
X5246Y109597D01*
X6046Y108697D01*
X6078Y108675D01*
X6128Y108628D01*
X6928Y108128D01*
X6994Y108105D01*
X7058Y108077D01*
X7075Y108077D01*
X7092Y108072D01*
X7161Y108081D01*
X7231Y108083D01*
X7246Y108092D01*
X7264Y108094D01*
X7322Y108133D01*
X7383Y108166D01*
X7393Y108181D01*
X7408Y108191D01*
X7443Y108251D01*
X7483Y108308D01*
X7486Y108327D01*
X7494Y108341D01*
X7497Y108380D01*
X7510Y108450D01*
X7510Y109288D01*
X7582Y109504D01*
X7643Y109625D01*
X7835Y109818D01*
X7992Y109870D01*
X8183Y109870D01*
X8897Y109691D01*
X9239Y109521D01*
X9510Y109339D01*
X9880Y109062D01*
X10435Y108508D01*
X10777Y107994D01*
X10850Y107703D01*
X10850Y107212D01*
X10778Y106996D01*
X10701Y106841D01*
X10550Y106615D01*
X10229Y106375D01*
X10103Y106312D01*
X9906Y106213D01*
X9455Y106123D01*
X9448Y106119D01*
X9438Y106119D01*
X9083Y106030D01*
X8620Y106030D01*
X8500Y106090D01*
X8485Y106094D01*
X8472Y106103D01*
X8338Y106129D01*
X8332Y106130D01*
X8331Y106130D01*
X8330Y106130D01*
X8230Y106130D01*
X8205Y106124D01*
X8179Y106127D01*
X8122Y106105D01*
X8061Y106091D01*
X8041Y106074D01*
X8017Y106065D01*
X7975Y106020D01*
X7928Y105981D01*
X7917Y105957D01*
X7900Y105938D01*
X7882Y105879D01*
X7857Y105822D01*
X7858Y105797D01*
X7850Y105772D01*
X7861Y105711D01*
X7863Y105649D01*
X7876Y105627D01*
X7880Y105601D01*
X7928Y105530D01*
X7946Y105497D01*
X7954Y105491D01*
X7961Y105481D01*
X8061Y105381D01*
X8081Y105369D01*
X8102Y105346D01*
X8502Y105046D01*
X8528Y105034D01*
X8560Y105010D01*
X9960Y104310D01*
X9996Y104301D01*
X10048Y104279D01*
X10948Y104079D01*
X10981Y104079D01*
X11030Y104070D01*
X12030Y104070D01*
X12058Y104076D01*
G37*
D10*
X21540Y73690D02*
X21540Y68710D01*
X16560Y68710D01*
X16560Y73690D01*
X21540Y73690D01*
X21540Y69679D02*
X16560Y69679D01*
X16560Y70648D02*
X21540Y70648D01*
X21540Y71617D02*
X16560Y71617D01*
X16560Y72586D02*
X21540Y72586D01*
X21540Y73555D02*
X16560Y73555D01*
X21540Y78710D02*
X21540Y83690D01*
X21540Y78710D02*
X16560Y78710D01*
X16560Y83690D01*
X21540Y83690D01*
X21540Y79679D02*
X16560Y79679D01*
X16560Y80648D02*
X21540Y80648D01*
X21540Y81617D02*
X16560Y81617D01*
X16560Y82586D02*
X21540Y82586D01*
X21540Y83555D02*
X16560Y83555D01*
X16560Y63370D02*
X16560Y58390D01*
X16560Y63370D02*
X21540Y63370D01*
X21540Y58390D01*
X16560Y58390D01*
X16560Y59359D02*
X21540Y59359D01*
X21540Y60328D02*
X16560Y60328D01*
X16560Y61297D02*
X21540Y61297D01*
X21540Y62266D02*
X16560Y62266D01*
X16560Y63235D02*
X21540Y63235D01*
X16560Y53370D02*
X16560Y48390D01*
X16560Y53370D02*
X21540Y53370D01*
X21540Y48390D01*
X16560Y48390D01*
X16560Y49359D02*
X21540Y49359D01*
X21540Y50328D02*
X16560Y50328D01*
X16560Y51297D02*
X21540Y51297D01*
X21540Y52266D02*
X16560Y52266D01*
X16560Y53235D02*
X21540Y53235D01*
D11*
X122320Y50360D02*
X122320Y43400D01*
X111360Y43400D01*
X111360Y50360D01*
X122320Y50360D01*
X122320Y44388D02*
X111360Y44388D01*
X111360Y45376D02*
X122320Y45376D01*
X122320Y46364D02*
X111360Y46364D01*
X111360Y47352D02*
X122320Y47352D01*
X122320Y48340D02*
X111360Y48340D01*
X111360Y49328D02*
X122320Y49328D01*
X122320Y50316D02*
X111360Y50316D01*
X122320Y61400D02*
X122320Y68360D01*
X122320Y61400D02*
X111360Y61400D01*
X111360Y68360D01*
X122320Y68360D01*
X122320Y62388D02*
X111360Y62388D01*
X111360Y63376D02*
X122320Y63376D01*
X122320Y64364D02*
X111360Y64364D01*
X111360Y65352D02*
X122320Y65352D01*
X122320Y66340D02*
X111360Y66340D01*
X111360Y67328D02*
X122320Y67328D01*
X122320Y68316D02*
X111360Y68316D01*
X111360Y31530D02*
X111360Y24570D01*
X111360Y31530D02*
X122320Y31530D01*
X122320Y24570D01*
X111360Y24570D01*
X111360Y25558D02*
X122320Y25558D01*
X122320Y26546D02*
X111360Y26546D01*
X111360Y27534D02*
X122320Y27534D01*
X122320Y28522D02*
X111360Y28522D01*
X111360Y29510D02*
X122320Y29510D01*
X122320Y30498D02*
X111360Y30498D01*
X111360Y31486D02*
X122320Y31486D01*
X111360Y13530D02*
X111360Y6570D01*
X111360Y13530D02*
X122320Y13530D01*
X122320Y6570D01*
X111360Y6570D01*
X111360Y7558D02*
X122320Y7558D01*
X122320Y8546D02*
X111360Y8546D01*
X111360Y9534D02*
X122320Y9534D01*
X122320Y10522D02*
X111360Y10522D01*
X111360Y11510D02*
X122320Y11510D01*
X122320Y12498D02*
X111360Y12498D01*
X111360Y13486D02*
X122320Y13486D01*
X82150Y95690D02*
X82150Y102650D01*
X93110Y102650D01*
X93110Y95690D01*
X82150Y95690D01*
X82150Y96678D02*
X93110Y96678D01*
X93110Y97666D02*
X82150Y97666D01*
X82150Y98654D02*
X93110Y98654D01*
X93110Y99642D02*
X82150Y99642D01*
X82150Y100630D02*
X93110Y100630D01*
X93110Y101618D02*
X82150Y101618D01*
X82150Y102606D02*
X93110Y102606D01*
X82150Y84650D02*
X82150Y77690D01*
X82150Y84650D02*
X93110Y84650D01*
X93110Y77690D01*
X82150Y77690D01*
X82150Y78678D02*
X93110Y78678D01*
X93110Y79666D02*
X82150Y79666D01*
X82150Y80654D02*
X93110Y80654D01*
X93110Y81642D02*
X82150Y81642D01*
X82150Y82630D02*
X93110Y82630D01*
X93110Y83618D02*
X82150Y83618D01*
X82150Y84606D02*
X93110Y84606D01*
X64370Y95690D02*
X64370Y102650D01*
X75330Y102650D01*
X75330Y95690D01*
X64370Y95690D01*
X64370Y96678D02*
X75330Y96678D01*
X75330Y97666D02*
X64370Y97666D01*
X64370Y98654D02*
X75330Y98654D01*
X75330Y99642D02*
X64370Y99642D01*
X64370Y100630D02*
X75330Y100630D01*
X75330Y101618D02*
X64370Y101618D01*
X64370Y102606D02*
X75330Y102606D01*
X64370Y84650D02*
X64370Y77690D01*
X64370Y84650D02*
X75330Y84650D01*
X75330Y77690D01*
X64370Y77690D01*
X64370Y78678D02*
X75330Y78678D01*
X75330Y79666D02*
X64370Y79666D01*
X64370Y80654D02*
X75330Y80654D01*
X75330Y81642D02*
X64370Y81642D01*
X64370Y82630D02*
X75330Y82630D01*
X75330Y83618D02*
X64370Y83618D01*
X64370Y84606D02*
X75330Y84606D01*
D12*
X152654Y125984D03*
X6248Y6274D03*
D13*
X144780Y114300D03*
X144780Y88900D03*
X144780Y63500D03*
X144780Y38100D03*
D14*
X48348Y21062D02*
X30772Y21062D01*
X30772Y55138D01*
X48348Y55138D01*
X48348Y21062D01*
X48348Y21941D02*
X30772Y21941D01*
X30772Y22820D02*
X48348Y22820D01*
X48348Y23699D02*
X30772Y23699D01*
X30772Y24578D02*
X48348Y24578D01*
X48348Y25457D02*
X30772Y25457D01*
X30772Y26336D02*
X48348Y26336D01*
X48348Y27215D02*
X30772Y27215D01*
X30772Y28094D02*
X48348Y28094D01*
X48348Y28973D02*
X30772Y28973D01*
X30772Y29852D02*
X48348Y29852D01*
X48348Y30731D02*
X30772Y30731D01*
X30772Y31610D02*
X48348Y31610D01*
X48348Y32489D02*
X30772Y32489D01*
X30772Y33368D02*
X48348Y33368D01*
X48348Y34247D02*
X30772Y34247D01*
X30772Y35126D02*
X48348Y35126D01*
X48348Y36005D02*
X30772Y36005D01*
X30772Y36884D02*
X48348Y36884D01*
X48348Y37763D02*
X30772Y37763D01*
X30772Y38642D02*
X48348Y38642D01*
X48348Y39521D02*
X30772Y39521D01*
X30772Y40400D02*
X48348Y40400D01*
X48348Y41279D02*
X30772Y41279D01*
X30772Y42158D02*
X48348Y42158D01*
X48348Y43037D02*
X30772Y43037D01*
X30772Y43916D02*
X48348Y43916D01*
X48348Y44795D02*
X30772Y44795D01*
X30772Y45674D02*
X48348Y45674D01*
X48348Y46553D02*
X30772Y46553D01*
X30772Y47432D02*
X48348Y47432D01*
X48348Y48311D02*
X30772Y48311D01*
X30772Y49190D02*
X48348Y49190D01*
X48348Y50069D02*
X30772Y50069D01*
X30772Y50948D02*
X48348Y50948D01*
X48348Y51827D02*
X30772Y51827D01*
X30772Y52706D02*
X48348Y52706D01*
X48348Y53585D02*
X30772Y53585D01*
X30772Y54464D02*
X48348Y54464D01*
X86272Y21062D02*
X103848Y21062D01*
X86272Y21062D02*
X86272Y55138D01*
X103848Y55138D01*
X103848Y21062D01*
X103848Y21941D02*
X86272Y21941D01*
X86272Y22820D02*
X103848Y22820D01*
X103848Y23699D02*
X86272Y23699D01*
X86272Y24578D02*
X103848Y24578D01*
X103848Y25457D02*
X86272Y25457D01*
X86272Y26336D02*
X103848Y26336D01*
X103848Y27215D02*
X86272Y27215D01*
X86272Y28094D02*
X103848Y28094D01*
X103848Y28973D02*
X86272Y28973D01*
X86272Y29852D02*
X103848Y29852D01*
X103848Y30731D02*
X86272Y30731D01*
X86272Y31610D02*
X103848Y31610D01*
X103848Y32489D02*
X86272Y32489D01*
X86272Y33368D02*
X103848Y33368D01*
X103848Y34247D02*
X86272Y34247D01*
X86272Y35126D02*
X103848Y35126D01*
X103848Y36005D02*
X86272Y36005D01*
X86272Y36884D02*
X103848Y36884D01*
X103848Y37763D02*
X86272Y37763D01*
X86272Y38642D02*
X103848Y38642D01*
X103848Y39521D02*
X86272Y39521D01*
X86272Y40400D02*
X103848Y40400D01*
X103848Y41279D02*
X86272Y41279D01*
X86272Y42158D02*
X103848Y42158D01*
X103848Y43037D02*
X86272Y43037D01*
X86272Y43916D02*
X103848Y43916D01*
X103848Y44795D02*
X86272Y44795D01*
X86272Y45674D02*
X103848Y45674D01*
X103848Y46553D02*
X86272Y46553D01*
X86272Y47432D02*
X103848Y47432D01*
X103848Y48311D02*
X86272Y48311D01*
X86272Y49190D02*
X103848Y49190D01*
X103848Y50069D02*
X86272Y50069D01*
X86272Y50948D02*
X103848Y50948D01*
X103848Y51827D02*
X86272Y51827D01*
X86272Y52706D02*
X103848Y52706D01*
X103848Y53585D02*
X86272Y53585D01*
X86272Y54464D02*
X103848Y54464D01*
D10*
X6400Y78710D02*
X6400Y83690D01*
X11380Y83690D01*
X11380Y78710D01*
X6400Y78710D01*
X6400Y79679D02*
X11380Y79679D01*
X11380Y80648D02*
X6400Y80648D01*
X6400Y81617D02*
X11380Y81617D01*
X11380Y82586D02*
X6400Y82586D01*
X6400Y83555D02*
X11380Y83555D01*
X6400Y73690D02*
X6400Y68710D01*
X6400Y73690D02*
X11380Y73690D01*
X11380Y68710D01*
X6400Y68710D01*
X6400Y69679D02*
X11380Y69679D01*
X11380Y70648D02*
X6400Y70648D01*
X6400Y71617D02*
X11380Y71617D01*
X11380Y72586D02*
X6400Y72586D01*
X6400Y73555D02*
X11380Y73555D01*
X16560Y99030D02*
X16560Y104010D01*
X21540Y104010D01*
X21540Y99030D01*
X16560Y99030D01*
X16560Y99999D02*
X21540Y99999D01*
X21540Y100968D02*
X16560Y100968D01*
X16560Y101937D02*
X21540Y101937D01*
X21540Y102906D02*
X16560Y102906D01*
X16560Y103875D02*
X21540Y103875D01*
X16560Y94010D02*
X16560Y89030D01*
X16560Y94010D02*
X21540Y94010D01*
X21540Y89030D01*
X16560Y89030D01*
X16560Y89999D02*
X21540Y89999D01*
X21540Y90968D02*
X16560Y90968D01*
X16560Y91937D02*
X21540Y91937D01*
X21540Y92906D02*
X16560Y92906D01*
X16560Y93875D02*
X21540Y93875D01*
X47120Y111810D02*
X52100Y111810D01*
X47120Y111810D02*
X47120Y116790D01*
X52100Y116790D01*
X52100Y111810D01*
X52100Y112779D02*
X47120Y112779D01*
X47120Y113748D02*
X52100Y113748D01*
X52100Y114717D02*
X47120Y114717D01*
X47120Y115686D02*
X52100Y115686D01*
X52100Y116655D02*
X47120Y116655D01*
X57120Y111810D02*
X62100Y111810D01*
X57120Y111810D02*
X57120Y116790D01*
X62100Y116790D01*
X62100Y111810D01*
X62100Y112779D02*
X57120Y112779D01*
X57120Y113748D02*
X62100Y113748D01*
X62100Y114717D02*
X57120Y114717D01*
X57120Y115686D02*
X62100Y115686D01*
X62100Y116655D02*
X57120Y116655D01*
X31780Y111810D02*
X26800Y111810D01*
X26800Y116790D01*
X31780Y116790D01*
X31780Y111810D01*
X31780Y112779D02*
X26800Y112779D01*
X26800Y113748D02*
X31780Y113748D01*
X31780Y114717D02*
X26800Y114717D01*
X26800Y115686D02*
X31780Y115686D01*
X31780Y116655D02*
X26800Y116655D01*
X36800Y111810D02*
X41780Y111810D01*
X36800Y111810D02*
X36800Y116790D01*
X41780Y116790D01*
X41780Y111810D01*
X41780Y112779D02*
X36800Y112779D01*
X36800Y113748D02*
X41780Y113748D01*
X41780Y114717D02*
X36800Y114717D01*
X36800Y115686D02*
X41780Y115686D01*
X41780Y116655D02*
X36800Y116655D01*
D11*
X42950Y102420D02*
X56910Y102420D01*
X56910Y95460D01*
X42950Y95460D01*
X42950Y102420D01*
X42950Y96448D02*
X56910Y96448D01*
X56910Y97436D02*
X42950Y97436D01*
X42950Y98424D02*
X56910Y98424D01*
X56910Y99412D02*
X42950Y99412D01*
X42950Y100400D02*
X56910Y100400D01*
X56910Y101388D02*
X42950Y101388D01*
X42950Y102376D02*
X56910Y102376D01*
X56910Y87420D02*
X42950Y87420D01*
X56910Y87420D02*
X56910Y80460D01*
X42950Y80460D01*
X42950Y87420D01*
X42950Y81448D02*
X56910Y81448D01*
X56910Y82436D02*
X42950Y82436D01*
X42950Y83424D02*
X56910Y83424D01*
X56910Y84412D02*
X42950Y84412D01*
X42950Y85400D02*
X56910Y85400D01*
X56910Y86388D02*
X42950Y86388D01*
X42950Y87376D02*
X56910Y87376D01*
D15*
X59230Y92940D02*
X42930Y92940D01*
X59230Y92940D02*
X59230Y89940D01*
X42930Y89940D01*
X42930Y92940D01*
X42930Y90890D02*
X59230Y90890D01*
X59230Y91840D02*
X42930Y91840D01*
X42930Y92790D02*
X59230Y92790D01*
D10*
X40420Y102430D02*
X38440Y102430D01*
X40420Y102430D02*
X40420Y97450D01*
X38440Y97450D01*
X38440Y102430D01*
X38440Y98419D02*
X40420Y98419D01*
X40420Y99388D02*
X38440Y99388D01*
X38440Y100357D02*
X40420Y100357D01*
X40420Y101326D02*
X38440Y101326D01*
X38440Y102295D02*
X40420Y102295D01*
X35920Y102430D02*
X33940Y102430D01*
X35920Y102430D02*
X35920Y97450D01*
X33940Y97450D01*
X33940Y102430D01*
X33940Y98419D02*
X35920Y98419D01*
X35920Y99388D02*
X33940Y99388D01*
X33940Y100357D02*
X35920Y100357D01*
X35920Y101326D02*
X33940Y101326D01*
X33940Y102295D02*
X35920Y102295D01*
X31420Y102430D02*
X29440Y102430D01*
X31420Y102430D02*
X31420Y97450D01*
X29440Y97450D01*
X29440Y102430D01*
X29440Y98419D02*
X31420Y98419D01*
X31420Y99388D02*
X29440Y99388D01*
X29440Y100357D02*
X31420Y100357D01*
X31420Y101326D02*
X29440Y101326D01*
X29440Y102295D02*
X31420Y102295D01*
X31420Y80450D02*
X29440Y80450D01*
X29440Y85430D01*
X31420Y85430D01*
X31420Y80450D01*
X31420Y81419D02*
X29440Y81419D01*
X29440Y82388D02*
X31420Y82388D01*
X31420Y83357D02*
X29440Y83357D01*
X29440Y84326D02*
X31420Y84326D01*
X31420Y85295D02*
X29440Y85295D01*
X33940Y80450D02*
X35920Y80450D01*
X33940Y80450D02*
X33940Y85430D01*
X35920Y85430D01*
X35920Y80450D01*
X35920Y81419D02*
X33940Y81419D01*
X33940Y82388D02*
X35920Y82388D01*
X35920Y83357D02*
X33940Y83357D01*
X33940Y84326D02*
X35920Y84326D01*
X35920Y85295D02*
X33940Y85295D01*
X38440Y80450D02*
X40420Y80450D01*
X38440Y80450D02*
X38440Y85430D01*
X40420Y85430D01*
X40420Y80450D01*
X40420Y81419D02*
X38440Y81419D01*
X38440Y82388D02*
X40420Y82388D01*
X40420Y83357D02*
X38440Y83357D01*
X38440Y84326D02*
X40420Y84326D01*
X40420Y85295D02*
X38440Y85295D01*
D12*
X35560Y124460D03*
X26670Y124460D03*
X22454Y109296D03*
X8890Y99060D03*
X46990Y83820D03*
X55880Y83820D03*
X50800Y76200D03*
X59665Y76200D03*
X55880Y69850D03*
X60960Y63500D03*
X64770Y71120D03*
X73660Y71120D03*
X82550Y71120D03*
X69850Y63500D03*
X78740Y63500D03*
X87630Y63500D03*
X91440Y71120D03*
X96520Y63500D03*
X105410Y63500D03*
X100330Y71120D03*
X99060Y78740D03*
X107950Y72390D03*
X116865Y73584D03*
X129540Y70587D03*
X15240Y31750D03*
X15240Y20320D03*
X58420Y16510D03*
X67310Y16510D03*
X58420Y25400D03*
X58420Y34290D03*
X58420Y43180D03*
X58420Y52070D03*
X67310Y52070D03*
X76200Y52070D03*
X67310Y43180D03*
X76200Y43180D03*
X67310Y34290D03*
X67310Y25400D03*
X76200Y25400D03*
X76200Y34290D03*
X87630Y10160D03*
X96520Y10160D03*
X105410Y10160D03*
X129540Y10160D03*
X143510Y17272D03*
X152400Y14732D03*
X134620Y17272D03*
D16*
X39430Y114160D02*
X39290Y114300D01*
X39430Y114160D02*
X39430Y99940D01*
X39290Y114300D02*
X49610Y114300D01*
X49610Y119460D02*
X55880Y125730D01*
X49610Y119460D02*
X49610Y114300D01*
X55880Y125730D02*
X133350Y125730D01*
X144780Y114300D01*
D17*
X95060Y38100D02*
X95060Y31560D01*
X73660Y10160D01*
X16510Y10160D01*
X8890Y17780D01*
X8890Y71200D01*
X19050Y71200D01*
M02*
