M48
;GenerationSoftware,Autodesk,EAGLE,9.6.2*%
;CreationDate,2022-10-12T21:20:02Z*%
FMAT,2
ICI,OFF
METRIC,TZ,000.000
T2C0.381
T1C1.016
%
G90
M71
T1
X14478Y3810
X14478Y11430
X14478Y8890
X14478Y6350
T2
X4699Y8382
X5588Y8382
X5080Y7620
X5966Y7620
X5588Y6985
X6096Y6350
X6477Y7112
X7366Y7112
X8255Y7112
X6985Y6350
X7874Y6350
X8763Y6350
X9144Y7112
X9652Y6350
X10541Y6350
X10033Y7112
X9906Y7874
X10795Y7239
X11687Y7358
X12954Y7059
X1524Y3175
X1524Y2032
X5842Y1651
X6731Y1651
X5842Y2540
X5842Y3429
X5842Y4318
X5842Y5207
X6731Y5207
X7620Y5207
X6731Y4318
X7620Y4318
X6731Y3429
X6731Y2540
X3556Y12446
X7620Y3429
X8763Y1016
X9652Y1016
X10541Y1016
X12954Y1016
X7620Y2540
X15240Y1473
X13462Y1727
X2667Y12446
X2245Y10930
X889Y9906
X14351Y1727
M30