G04 EAGLE Gerber RS-274X export*
G75*
%MOMM*%
%FSLAX34Y34*%
%LPD*%
%INSilkscreen Bottom*%
%IPPOS*%
%AMOC8*
5,1,8,0,0,1.08239X$1,22.5*%
G01*

G36*
X134641Y49251D02*
X134641Y49251D01*
X146787Y49251D01*
X146873Y49264D01*
X146961Y49266D01*
X147013Y49283D01*
X147068Y49291D01*
X147148Y49327D01*
X147231Y49354D01*
X147270Y49382D01*
X147328Y49407D01*
X147441Y49503D01*
X147504Y49549D01*
X155658Y57702D01*
X155665Y57712D01*
X155667Y57713D01*
X155669Y57717D01*
X155710Y57772D01*
X155770Y57836D01*
X155796Y57885D01*
X155829Y57929D01*
X155860Y58011D01*
X155900Y58089D01*
X155908Y58137D01*
X155930Y58195D01*
X155942Y58343D01*
X155955Y58420D01*
X155955Y68580D01*
X155948Y68632D01*
X155949Y68657D01*
X155943Y68680D01*
X155940Y68754D01*
X155923Y68807D01*
X155915Y68862D01*
X155880Y68941D01*
X155853Y69025D01*
X155825Y69064D01*
X155799Y69121D01*
X155703Y69234D01*
X155658Y69298D01*
X147504Y77451D01*
X147435Y77504D01*
X147371Y77564D01*
X147321Y77589D01*
X147277Y77622D01*
X147196Y77653D01*
X147118Y77693D01*
X147070Y77701D01*
X147012Y77723D01*
X146864Y77736D01*
X146787Y77749D01*
X134640Y77749D01*
X124440Y77749D01*
X124393Y77713D01*
X124398Y77706D01*
X124391Y77700D01*
X124391Y49800D01*
X124395Y49794D01*
X124392Y49790D01*
X124492Y49290D01*
X124536Y49251D01*
X124538Y49253D01*
X124540Y49251D01*
X134640Y49251D01*
X134641Y49251D01*
G37*
G36*
X139477Y83787D02*
X139477Y83787D01*
X139472Y83794D01*
X139479Y83800D01*
X139479Y94000D01*
X139443Y94047D01*
X139436Y94042D01*
X139430Y94049D01*
X112030Y94049D01*
X111983Y94013D01*
X111985Y94010D01*
X111983Y94008D01*
X111986Y94004D01*
X111981Y94000D01*
X111981Y83800D01*
X112017Y83753D01*
X112024Y83758D01*
X112030Y83751D01*
X139430Y83751D01*
X139477Y83787D01*
G37*
G36*
X137937Y32956D02*
X137937Y32956D01*
X137942Y32952D01*
X138342Y33052D01*
X138364Y33079D01*
X138371Y33085D01*
X138370Y33087D01*
X138379Y33099D01*
X138378Y33099D01*
X138379Y33100D01*
X138379Y43200D01*
X138343Y43247D01*
X138336Y43242D01*
X138330Y43249D01*
X113430Y43249D01*
X113423Y43244D01*
X113418Y43244D01*
X113414Y43247D01*
X113114Y43147D01*
X113096Y43120D01*
X113083Y43110D01*
X113086Y43105D01*
X113084Y43103D01*
X113081Y43100D01*
X113081Y33400D01*
X113086Y33393D01*
X113082Y33388D01*
X113182Y32988D01*
X113229Y32951D01*
X113229Y32952D01*
X113230Y32951D01*
X137930Y32951D01*
X137937Y32956D01*
G37*
G36*
X138133Y109176D02*
X138133Y109176D01*
X138144Y109178D01*
X138344Y109578D01*
X138344Y109580D01*
X138344Y109581D01*
X138343Y109582D01*
X138341Y109594D01*
X138349Y109600D01*
X138349Y119200D01*
X138324Y119233D01*
X138322Y119244D01*
X137922Y119444D01*
X137912Y119442D01*
X137911Y119444D01*
X137904Y119444D01*
X137900Y119449D01*
X116100Y119449D01*
X116093Y119444D01*
X116090Y119444D01*
X116085Y119441D01*
X116078Y119444D01*
X115678Y119244D01*
X115668Y119225D01*
X115656Y119222D01*
X113356Y114722D01*
X113156Y114322D01*
X113162Y114290D01*
X113156Y114278D01*
X115656Y109278D01*
X115684Y109264D01*
X115690Y109252D01*
X116190Y109152D01*
X116197Y109155D01*
X116200Y109151D01*
X138100Y109151D01*
X138133Y109176D01*
G37*
%LPC*%
G36*
X126845Y67849D02*
X126845Y67849D01*
X126364Y67945D01*
X126086Y68224D01*
X125989Y68803D01*
X126089Y70798D01*
X126088Y70799D01*
X126089Y70800D01*
X126089Y71291D01*
X126285Y71780D01*
X126482Y72174D01*
X126779Y72570D01*
X127077Y72968D01*
X127468Y73358D01*
X127958Y73554D01*
X127960Y73557D01*
X127962Y73556D01*
X128360Y73755D01*
X128849Y73951D01*
X130331Y73951D01*
X130822Y73754D01*
X131316Y73557D01*
X131710Y73261D01*
X132105Y72965D01*
X132401Y72570D01*
X132697Y72176D01*
X132893Y71686D01*
X132992Y71190D01*
X133091Y70695D01*
X133091Y68312D01*
X132907Y67944D01*
X132435Y67849D01*
X126845Y67849D01*
G37*
%LPD*%
%LPC*%
G36*
X126409Y110749D02*
X126409Y110749D01*
X125943Y110936D01*
X125849Y111405D01*
X125849Y117480D01*
X126123Y117754D01*
X126794Y117849D01*
X127264Y117661D01*
X127451Y117288D01*
X127451Y113800D01*
X127461Y113787D01*
X127461Y113771D01*
X127473Y113770D01*
X127487Y113753D01*
X127510Y113770D01*
X127539Y113770D01*
X130238Y117269D01*
X130627Y117755D01*
X131101Y117850D01*
X131676Y117754D01*
X131955Y117476D01*
X132051Y116995D01*
X132051Y111905D01*
X131952Y111410D01*
X131856Y110933D01*
X131488Y110749D01*
X130906Y110749D01*
X130538Y110841D01*
X130448Y111112D01*
X130349Y111704D01*
X130349Y114800D01*
X130341Y114811D01*
X130343Y114824D01*
X130330Y114826D01*
X130313Y114847D01*
X130292Y114831D01*
X130265Y114835D01*
X130165Y114735D01*
X130164Y114729D01*
X130160Y114729D01*
X127662Y111332D01*
X127271Y110941D01*
X126888Y110749D01*
X126409Y110749D01*
G37*
%LPD*%
%LPC*%
G36*
X127639Y85349D02*
X127639Y85349D01*
X127172Y85536D01*
X127079Y85906D01*
X127079Y91500D01*
X127043Y91547D01*
X127037Y91543D01*
X127033Y91549D01*
X127009Y91551D01*
X127030Y91551D01*
X127077Y91587D01*
X127072Y91594D01*
X127079Y91600D01*
X127079Y91984D01*
X127358Y92355D01*
X127925Y92449D01*
X128402Y92258D01*
X128681Y91980D01*
X128681Y88400D01*
X128693Y88384D01*
X128697Y88364D01*
X128707Y88365D01*
X128717Y88353D01*
X128742Y88372D01*
X128774Y88378D01*
X128873Y88575D01*
X129070Y88871D01*
X131367Y91868D01*
X131855Y92356D01*
X132233Y92450D01*
X132907Y92354D01*
X133181Y92080D01*
X133181Y86005D01*
X133086Y85533D01*
X132718Y85349D01*
X132136Y85349D01*
X131768Y85441D01*
X131678Y85713D01*
X131579Y86205D01*
X131579Y89300D01*
X131543Y89347D01*
X131536Y89342D01*
X131530Y89349D01*
X131430Y89349D01*
X131404Y89329D01*
X131390Y89329D01*
X128992Y86032D01*
X128501Y85541D01*
X128118Y85349D01*
X127639Y85349D01*
G37*
%LPD*%
%LPC*%
G36*
X126360Y60149D02*
X126360Y60149D01*
X126089Y60420D01*
X126089Y61095D01*
X126182Y61560D01*
X126546Y61651D01*
X129540Y61651D01*
X129546Y61655D01*
X129550Y61652D01*
X130050Y61752D01*
X130058Y61761D01*
X130070Y61761D01*
X130070Y61775D01*
X130089Y61796D01*
X130070Y61813D01*
X130070Y61839D01*
X126472Y64537D01*
X126085Y64924D01*
X125990Y65401D01*
X126085Y65972D01*
X126456Y66251D01*
X126840Y66251D01*
X126887Y66287D01*
X126882Y66294D01*
X126889Y66300D01*
X126889Y66321D01*
X126891Y66297D01*
X126930Y66252D01*
X126936Y66257D01*
X126940Y66251D01*
X132528Y66251D01*
X132903Y66063D01*
X133091Y65688D01*
X133091Y65218D01*
X132617Y64649D01*
X129040Y64649D01*
X129036Y64646D01*
X129031Y64648D01*
X129026Y64639D01*
X128993Y64613D01*
X129005Y64597D01*
X128996Y64578D01*
X129096Y64378D01*
X129112Y64370D01*
X129113Y64359D01*
X129711Y63960D01*
X132899Y61569D01*
X133091Y61091D01*
X133091Y60616D01*
X132811Y60244D01*
X132434Y60149D01*
X126360Y60149D01*
G37*
%LPD*%
%LPC*%
G36*
X119312Y110749D02*
X119312Y110749D01*
X118937Y110937D01*
X118749Y111312D01*
X118749Y117480D01*
X119024Y117754D01*
X119603Y117851D01*
X123693Y117751D01*
X124066Y117658D01*
X124251Y117288D01*
X124251Y116615D01*
X124068Y116340D01*
X123591Y116149D01*
X120500Y116149D01*
X120453Y116113D01*
X120453Y116112D01*
X120452Y116112D01*
X120352Y115712D01*
X120356Y115704D01*
X120351Y115700D01*
X120351Y115200D01*
X120387Y115153D01*
X120394Y115158D01*
X120400Y115151D01*
X122488Y115151D01*
X122871Y114959D01*
X123151Y114680D01*
X123151Y114012D01*
X122963Y113637D01*
X122588Y113449D01*
X120600Y113449D01*
X120572Y113428D01*
X120559Y113427D01*
X120359Y113127D01*
X120360Y113110D01*
X120353Y113104D01*
X120354Y113102D01*
X120351Y113100D01*
X120351Y112600D01*
X120376Y112567D01*
X120378Y112556D01*
X120778Y112356D01*
X120792Y112359D01*
X120798Y112352D01*
X120799Y112352D01*
X120800Y112351D01*
X123885Y112351D01*
X124155Y112171D01*
X124250Y111600D01*
X124154Y111024D01*
X123880Y110749D01*
X119312Y110749D01*
G37*
%LPD*%
%LPC*%
G36*
X129245Y52149D02*
X129245Y52149D01*
X128754Y52247D01*
X128260Y52445D01*
X127866Y52642D01*
X127470Y52939D01*
X127072Y53237D01*
X126681Y53629D01*
X126485Y54020D01*
X126286Y54518D01*
X126283Y54520D01*
X126284Y54522D01*
X126089Y54912D01*
X126089Y56595D01*
X126187Y57084D01*
X126382Y57474D01*
X126677Y57868D01*
X126968Y58158D01*
X127449Y58351D01*
X129435Y58351D01*
X129924Y58253D01*
X130296Y58067D01*
X130391Y57496D01*
X130391Y55912D01*
X130203Y55537D01*
X129828Y55349D01*
X129360Y55349D01*
X129087Y55622D01*
X128989Y56704D01*
X128949Y56748D01*
X128944Y56744D01*
X128940Y56749D01*
X127940Y56749D01*
X127902Y56720D01*
X127894Y56718D01*
X127694Y56218D01*
X127696Y56211D01*
X127693Y56208D01*
X127696Y56204D01*
X127691Y56200D01*
X127691Y55200D01*
X127700Y55187D01*
X127696Y55178D01*
X127896Y54778D01*
X127906Y54773D01*
X127905Y54765D01*
X128305Y54365D01*
X128310Y54364D01*
X128310Y54361D01*
X128710Y54061D01*
X128720Y54061D01*
X128722Y54054D01*
X129222Y53854D01*
X129228Y53856D01*
X129230Y53852D01*
X129730Y53752D01*
X129743Y53758D01*
X129750Y53752D01*
X130250Y53852D01*
X130254Y53857D01*
X130258Y53854D01*
X130758Y54054D01*
X130766Y54066D01*
X130775Y54065D01*
X131075Y54365D01*
X131076Y54370D01*
X131079Y54370D01*
X131379Y54770D01*
X131379Y54777D01*
X131384Y54778D01*
X131584Y55178D01*
X131582Y55187D01*
X131588Y55190D01*
X131688Y55690D01*
X131683Y55702D01*
X131689Y55708D01*
X131589Y56308D01*
X131582Y56314D01*
X131585Y56320D01*
X131192Y57205D01*
X131284Y57575D01*
X131668Y57958D01*
X132138Y58146D01*
X132508Y57961D01*
X132797Y57576D01*
X132994Y57082D01*
X133193Y56585D01*
X133291Y56194D01*
X133291Y55205D01*
X133193Y54714D01*
X132997Y54224D01*
X132701Y53830D01*
X132401Y53430D01*
X132401Y53370D01*
X132412Y53370D01*
X132412Y53359D01*
X132442Y53339D01*
X132408Y53338D01*
X132408Y53334D01*
X132405Y53335D01*
X132108Y53037D01*
X131712Y52741D01*
X131217Y52443D01*
X130824Y52247D01*
X130335Y52149D01*
X129245Y52149D01*
G37*
%LPD*%
%LPC*%
G36*
X119546Y34349D02*
X119546Y34349D01*
X119165Y34635D01*
X118877Y35019D01*
X118480Y38095D01*
X118571Y38367D01*
X119052Y38656D01*
X119534Y38848D01*
X119908Y38755D01*
X120300Y38461D01*
X120328Y38461D01*
X120338Y38451D01*
X120938Y38551D01*
X120948Y38562D01*
X120957Y38559D01*
X121257Y38759D01*
X121267Y38786D01*
X121279Y38792D01*
X121379Y39392D01*
X121369Y39411D01*
X121374Y39422D01*
X121174Y39822D01*
X121146Y39836D01*
X121140Y39848D01*
X120640Y39948D01*
X120633Y39945D01*
X120630Y39949D01*
X120130Y39949D01*
X120109Y39933D01*
X120095Y39935D01*
X119706Y39545D01*
X119231Y39450D01*
X118858Y39544D01*
X118475Y40022D01*
X118382Y40394D01*
X118571Y40771D01*
X118958Y41158D01*
X119448Y41354D01*
X119450Y41357D01*
X119452Y41356D01*
X119842Y41551D01*
X120925Y41551D01*
X121414Y41453D01*
X121804Y41258D01*
X122198Y40963D01*
X122589Y40571D01*
X122785Y40180D01*
X122983Y39686D01*
X123080Y39200D01*
X122982Y38710D01*
X122884Y38221D01*
X122591Y37830D01*
X122295Y37435D01*
X121906Y37143D01*
X121416Y36947D01*
X120925Y36849D01*
X120430Y36849D01*
X120383Y36813D01*
X120386Y36808D01*
X120383Y36806D01*
X120385Y36803D01*
X120381Y36800D01*
X120381Y36300D01*
X120397Y36279D01*
X120395Y36265D01*
X120595Y36065D01*
X120621Y36062D01*
X120627Y36054D01*
X120628Y36054D01*
X120630Y36051D01*
X122125Y36051D01*
X122602Y35955D01*
X122881Y35584D01*
X122881Y35005D01*
X122788Y34540D01*
X122420Y34448D01*
X121826Y34349D01*
X119546Y34349D01*
G37*
%LPD*%
%LPC*%
G36*
X115357Y85345D02*
X115357Y85345D01*
X115374Y85378D01*
X115363Y85436D01*
X115356Y85435D01*
X115355Y85442D01*
X114873Y85732D01*
X114780Y86101D01*
X114877Y86584D01*
X117571Y91971D01*
X117954Y92355D01*
X118425Y92449D01*
X118899Y92259D01*
X119188Y91874D01*
X121685Y86880D01*
X121883Y86385D01*
X121967Y86047D01*
X121933Y86049D01*
X121895Y86024D01*
X121886Y86022D01*
X121693Y85637D01*
X120930Y85255D01*
X120567Y85437D01*
X118374Y90021D01*
X118365Y90026D01*
X118363Y90036D01*
X118350Y90034D01*
X118322Y90049D01*
X118310Y90027D01*
X118286Y90022D01*
X118186Y89822D01*
X118186Y89820D01*
X118185Y89820D01*
X116387Y85824D01*
X116194Y85534D01*
X115818Y85253D01*
X115357Y85345D01*
G37*
%LPD*%
%LPC*%
G36*
X125542Y34549D02*
X125542Y34549D01*
X124959Y34841D01*
X124685Y35115D01*
X124777Y35483D01*
X127473Y40977D01*
X127765Y41462D01*
X128137Y41648D01*
X128609Y41554D01*
X128993Y41266D01*
X129287Y40777D01*
X131685Y35780D01*
X131878Y35298D01*
X131788Y35029D01*
X131306Y34644D01*
X131022Y34549D01*
X130555Y34549D01*
X130273Y34924D01*
X130076Y35418D01*
X130074Y35419D01*
X130075Y35421D01*
X128375Y39121D01*
X128364Y39127D01*
X128365Y39135D01*
X128265Y39235D01*
X128262Y39235D01*
X128262Y39238D01*
X128255Y39236D01*
X128206Y39243D01*
X128203Y39224D01*
X128185Y39220D01*
X126387Y35224D01*
X126190Y34929D01*
X125905Y34549D01*
X125542Y34549D01*
G37*
%LPD*%
%LPC*%
G36*
X124342Y85349D02*
X124342Y85349D01*
X123967Y85537D01*
X123779Y85912D01*
X123779Y91495D01*
X123876Y91981D01*
X124063Y92260D01*
X124535Y92449D01*
X125106Y92354D01*
X125385Y92076D01*
X125481Y91595D01*
X125481Y86009D01*
X125291Y85536D01*
X124918Y85349D01*
X124342Y85349D01*
G37*
%LPD*%
G36*
X131268Y69572D02*
X131268Y69572D01*
X131281Y69573D01*
X131481Y69873D01*
X131481Y69879D01*
X131484Y69882D01*
X131480Y69888D01*
X131480Y69893D01*
X131489Y69900D01*
X131489Y70400D01*
X131485Y70406D01*
X131488Y70410D01*
X131288Y71410D01*
X131277Y71420D01*
X131279Y71430D01*
X130979Y71830D01*
X130970Y71832D01*
X130970Y71839D01*
X130570Y72139D01*
X130560Y72139D01*
X130558Y72146D01*
X130058Y72346D01*
X130045Y72342D01*
X130040Y72349D01*
X129540Y72349D01*
X129534Y72345D01*
X129530Y72348D01*
X129030Y72248D01*
X129026Y72243D01*
X129022Y72246D01*
X128522Y72046D01*
X128514Y72034D01*
X128505Y72035D01*
X127805Y71335D01*
X127804Y71323D01*
X127796Y71322D01*
X127696Y71122D01*
X127699Y71106D01*
X127691Y71100D01*
X127691Y69600D01*
X127727Y69553D01*
X127734Y69558D01*
X127740Y69551D01*
X131240Y69551D01*
X131268Y69572D01*
G37*
M02*
