G04 EAGLE Gerber RS-274X export*
G75*
%MOMM*%
%FSLAX34Y34*%
%LPD*%
%INSoldermask Bottom*%
%IPPOS*%
%AMOC8*
5,1,8,0,0,1.08239X$1,22.5*%
G01*
%ADD10R,11.049000X12.700000*%
%ADD11C,0.762000*%
%ADD12C,2.006600*%
%ADD13C,1.127000*%
%ADD14C,1.270000*%
%ADD15C,1.627000*%


D10*
X57785Y66040D03*
X221615Y66040D03*
X385445Y66040D03*
X549275Y66040D03*
X713105Y66040D03*
X876935Y66040D03*
X1040765Y66040D03*
X1204595Y66040D03*
X57785Y203200D03*
X221615Y203200D03*
X385445Y203200D03*
X549275Y203200D03*
X713105Y203200D03*
X876935Y203200D03*
X1040765Y203200D03*
X1204595Y203200D03*
X57785Y340360D03*
X221615Y340360D03*
X385445Y340360D03*
X549275Y340360D03*
X713105Y340360D03*
X876935Y340360D03*
X1040765Y340360D03*
X1204595Y340360D03*
X57785Y477520D03*
X221615Y477520D03*
X385445Y477520D03*
X549275Y477520D03*
X713105Y477520D03*
X876935Y477520D03*
X1040765Y477520D03*
X1204595Y477520D03*
X57785Y614680D03*
X221615Y614680D03*
X385445Y614680D03*
X549275Y614680D03*
X713105Y614680D03*
X876935Y614680D03*
X1040765Y614680D03*
X1204595Y614680D03*
X57785Y751840D03*
X221615Y751840D03*
X385445Y751840D03*
X549275Y751840D03*
X713105Y751840D03*
X876935Y751840D03*
X1040765Y751840D03*
X1204595Y751840D03*
D11*
X152654Y125984D03*
X118008Y7544D03*
D12*
X144780Y114300D03*
X144780Y88900D03*
X144780Y63500D03*
X144780Y38100D03*
D11*
X316484Y125984D03*
X281838Y7544D03*
D12*
X308610Y114300D03*
X308610Y88900D03*
X308610Y63500D03*
X308610Y38100D03*
D11*
X480314Y125984D03*
X445668Y7544D03*
D12*
X472440Y114300D03*
X472440Y88900D03*
X472440Y63500D03*
X472440Y38100D03*
D11*
X644144Y125984D03*
X609498Y7544D03*
D12*
X636270Y114300D03*
X636270Y88900D03*
X636270Y63500D03*
X636270Y38100D03*
D11*
X807974Y125984D03*
X773328Y7544D03*
D12*
X800100Y114300D03*
X800100Y88900D03*
X800100Y63500D03*
X800100Y38100D03*
D11*
X971804Y125984D03*
X937158Y7544D03*
D12*
X963930Y114300D03*
X963930Y88900D03*
X963930Y63500D03*
X963930Y38100D03*
D11*
X1135634Y125984D03*
X1100988Y7544D03*
D12*
X1127760Y114300D03*
X1127760Y88900D03*
X1127760Y63500D03*
X1127760Y38100D03*
D11*
X1299464Y125984D03*
X1264818Y7544D03*
D12*
X1291590Y114300D03*
X1291590Y88900D03*
X1291590Y63500D03*
X1291590Y38100D03*
D11*
X152654Y263144D03*
X118008Y144704D03*
D12*
X144780Y251460D03*
X144780Y226060D03*
X144780Y200660D03*
X144780Y175260D03*
D11*
X316484Y263144D03*
X281838Y144704D03*
D12*
X308610Y251460D03*
X308610Y226060D03*
X308610Y200660D03*
X308610Y175260D03*
D11*
X480314Y263144D03*
X445668Y144704D03*
D12*
X472440Y251460D03*
X472440Y226060D03*
X472440Y200660D03*
X472440Y175260D03*
D11*
X644144Y263144D03*
X609498Y144704D03*
D12*
X636270Y251460D03*
X636270Y226060D03*
X636270Y200660D03*
X636270Y175260D03*
D11*
X807974Y263144D03*
X773328Y144704D03*
D12*
X800100Y251460D03*
X800100Y226060D03*
X800100Y200660D03*
X800100Y175260D03*
D11*
X971804Y263144D03*
X937158Y144704D03*
D12*
X963930Y251460D03*
X963930Y226060D03*
X963930Y200660D03*
X963930Y175260D03*
D11*
X1135634Y263144D03*
X1100988Y144704D03*
D12*
X1127760Y251460D03*
X1127760Y226060D03*
X1127760Y200660D03*
X1127760Y175260D03*
D11*
X1299464Y263144D03*
X1264818Y144704D03*
D12*
X1291590Y251460D03*
X1291590Y226060D03*
X1291590Y200660D03*
X1291590Y175260D03*
D11*
X152654Y400304D03*
X118008Y281864D03*
D12*
X144780Y388620D03*
X144780Y363220D03*
X144780Y337820D03*
X144780Y312420D03*
D11*
X316484Y400304D03*
X281838Y281864D03*
D12*
X308610Y388620D03*
X308610Y363220D03*
X308610Y337820D03*
X308610Y312420D03*
D11*
X480314Y400304D03*
X445668Y281864D03*
D12*
X472440Y388620D03*
X472440Y363220D03*
X472440Y337820D03*
X472440Y312420D03*
D11*
X644144Y400304D03*
X609498Y281864D03*
D12*
X636270Y388620D03*
X636270Y363220D03*
X636270Y337820D03*
X636270Y312420D03*
D11*
X807974Y400304D03*
X773328Y281864D03*
D12*
X800100Y388620D03*
X800100Y363220D03*
X800100Y337820D03*
X800100Y312420D03*
D11*
X971804Y400304D03*
X937158Y281864D03*
D12*
X963930Y388620D03*
X963930Y363220D03*
X963930Y337820D03*
X963930Y312420D03*
D11*
X1135634Y400304D03*
X1100988Y281864D03*
D12*
X1127760Y388620D03*
X1127760Y363220D03*
X1127760Y337820D03*
X1127760Y312420D03*
D11*
X1299464Y400304D03*
X1264818Y281864D03*
D12*
X1291590Y388620D03*
X1291590Y363220D03*
X1291590Y337820D03*
X1291590Y312420D03*
D11*
X152654Y537464D03*
X118008Y419024D03*
D12*
X144780Y525780D03*
X144780Y500380D03*
X144780Y474980D03*
X144780Y449580D03*
D11*
X316484Y537464D03*
X281838Y419024D03*
D12*
X308610Y525780D03*
X308610Y500380D03*
X308610Y474980D03*
X308610Y449580D03*
D11*
X480314Y537464D03*
X445668Y419024D03*
D12*
X472440Y525780D03*
X472440Y500380D03*
X472440Y474980D03*
X472440Y449580D03*
D11*
X644144Y537464D03*
X609498Y419024D03*
D12*
X636270Y525780D03*
X636270Y500380D03*
X636270Y474980D03*
X636270Y449580D03*
D11*
X807974Y537464D03*
X773328Y419024D03*
D12*
X800100Y525780D03*
X800100Y500380D03*
X800100Y474980D03*
X800100Y449580D03*
D11*
X971804Y537464D03*
X937158Y419024D03*
D12*
X963930Y525780D03*
X963930Y500380D03*
X963930Y474980D03*
X963930Y449580D03*
D11*
X1135634Y537464D03*
X1100988Y419024D03*
D12*
X1127760Y525780D03*
X1127760Y500380D03*
X1127760Y474980D03*
X1127760Y449580D03*
D11*
X1299464Y537464D03*
X1264818Y419024D03*
D12*
X1291590Y525780D03*
X1291590Y500380D03*
X1291590Y474980D03*
X1291590Y449580D03*
D11*
X152654Y674624D03*
X118008Y556184D03*
D12*
X144780Y662940D03*
X144780Y637540D03*
X144780Y612140D03*
X144780Y586740D03*
D11*
X316484Y674624D03*
X281838Y556184D03*
D12*
X308610Y662940D03*
X308610Y637540D03*
X308610Y612140D03*
X308610Y586740D03*
D11*
X480314Y674624D03*
X445668Y556184D03*
D12*
X472440Y662940D03*
X472440Y637540D03*
X472440Y612140D03*
X472440Y586740D03*
D11*
X644144Y674624D03*
X609498Y556184D03*
D12*
X636270Y662940D03*
X636270Y637540D03*
X636270Y612140D03*
X636270Y586740D03*
D11*
X807974Y674624D03*
X773328Y556184D03*
D12*
X800100Y662940D03*
X800100Y637540D03*
X800100Y612140D03*
X800100Y586740D03*
D11*
X971804Y674624D03*
X937158Y556184D03*
D12*
X963930Y662940D03*
X963930Y637540D03*
X963930Y612140D03*
X963930Y586740D03*
D11*
X1135634Y674624D03*
X1100988Y556184D03*
D12*
X1127760Y662940D03*
X1127760Y637540D03*
X1127760Y612140D03*
X1127760Y586740D03*
D11*
X1299464Y674624D03*
X1264818Y556184D03*
D12*
X1291590Y662940D03*
X1291590Y637540D03*
X1291590Y612140D03*
X1291590Y586740D03*
D11*
X152654Y811784D03*
X118008Y693344D03*
D12*
X144780Y800100D03*
X144780Y774700D03*
X144780Y749300D03*
X144780Y723900D03*
D11*
X316484Y811784D03*
X281838Y693344D03*
D12*
X308610Y800100D03*
X308610Y774700D03*
X308610Y749300D03*
X308610Y723900D03*
D11*
X480314Y811784D03*
X445668Y693344D03*
D12*
X472440Y800100D03*
X472440Y774700D03*
X472440Y749300D03*
X472440Y723900D03*
D11*
X644144Y811784D03*
X609498Y693344D03*
D12*
X636270Y800100D03*
X636270Y774700D03*
X636270Y749300D03*
X636270Y723900D03*
D11*
X807974Y811784D03*
X773328Y693344D03*
D12*
X800100Y800100D03*
X800100Y774700D03*
X800100Y749300D03*
X800100Y723900D03*
D11*
X971804Y811784D03*
X937158Y693344D03*
D12*
X963930Y800100D03*
X963930Y774700D03*
X963930Y749300D03*
X963930Y723900D03*
D11*
X1135634Y811784D03*
X1100988Y693344D03*
D12*
X1127760Y800100D03*
X1127760Y774700D03*
X1127760Y749300D03*
X1127760Y723900D03*
D11*
X1299464Y811784D03*
X1264818Y693344D03*
D12*
X1291590Y800100D03*
X1291590Y774700D03*
X1291590Y749300D03*
X1291590Y723900D03*
D13*
X-26238Y791210D03*
X1331798Y791210D03*
D14*
X-35293Y63500D02*
X-35290Y63722D01*
X-35282Y63944D01*
X-35268Y64166D01*
X-35249Y64388D01*
X-35225Y64608D01*
X-35195Y64829D01*
X-35160Y65048D01*
X-35119Y65267D01*
X-35073Y65484D01*
X-35022Y65700D01*
X-34965Y65915D01*
X-34903Y66129D01*
X-34836Y66340D01*
X-34764Y66551D01*
X-34686Y66759D01*
X-34604Y66965D01*
X-34516Y67169D01*
X-34424Y67372D01*
X-34326Y67571D01*
X-34224Y67768D01*
X-34117Y67963D01*
X-34005Y68155D01*
X-33888Y68344D01*
X-33767Y68531D01*
X-33641Y68714D01*
X-33511Y68894D01*
X-33376Y69071D01*
X-33238Y69244D01*
X-33095Y69414D01*
X-32947Y69581D01*
X-32796Y69744D01*
X-32641Y69903D01*
X-32482Y70058D01*
X-32319Y70209D01*
X-32152Y70357D01*
X-31982Y70500D01*
X-31809Y70638D01*
X-31632Y70773D01*
X-31452Y70903D01*
X-31269Y71029D01*
X-31082Y71150D01*
X-30893Y71267D01*
X-30701Y71379D01*
X-30506Y71486D01*
X-30309Y71588D01*
X-30110Y71686D01*
X-29907Y71778D01*
X-29703Y71866D01*
X-29497Y71948D01*
X-29289Y72026D01*
X-29078Y72098D01*
X-28867Y72165D01*
X-28653Y72227D01*
X-28438Y72284D01*
X-28222Y72335D01*
X-28005Y72381D01*
X-27786Y72422D01*
X-27567Y72457D01*
X-27346Y72487D01*
X-27126Y72511D01*
X-26904Y72530D01*
X-26682Y72544D01*
X-26460Y72552D01*
X-26238Y72555D01*
X-26016Y72552D01*
X-25794Y72544D01*
X-25572Y72530D01*
X-25350Y72511D01*
X-25130Y72487D01*
X-24909Y72457D01*
X-24690Y72422D01*
X-24471Y72381D01*
X-24254Y72335D01*
X-24038Y72284D01*
X-23823Y72227D01*
X-23609Y72165D01*
X-23398Y72098D01*
X-23187Y72026D01*
X-22979Y71948D01*
X-22773Y71866D01*
X-22569Y71778D01*
X-22366Y71686D01*
X-22167Y71588D01*
X-21970Y71486D01*
X-21775Y71379D01*
X-21583Y71267D01*
X-21394Y71150D01*
X-21207Y71029D01*
X-21024Y70903D01*
X-20844Y70773D01*
X-20667Y70638D01*
X-20494Y70500D01*
X-20324Y70357D01*
X-20157Y70209D01*
X-19994Y70058D01*
X-19835Y69903D01*
X-19680Y69744D01*
X-19529Y69581D01*
X-19381Y69414D01*
X-19238Y69244D01*
X-19100Y69071D01*
X-18965Y68894D01*
X-18835Y68714D01*
X-18709Y68531D01*
X-18588Y68344D01*
X-18471Y68155D01*
X-18359Y67963D01*
X-18252Y67768D01*
X-18150Y67571D01*
X-18052Y67372D01*
X-17960Y67169D01*
X-17872Y66965D01*
X-17790Y66759D01*
X-17712Y66551D01*
X-17640Y66340D01*
X-17573Y66129D01*
X-17511Y65915D01*
X-17454Y65700D01*
X-17403Y65484D01*
X-17357Y65267D01*
X-17316Y65048D01*
X-17281Y64829D01*
X-17251Y64608D01*
X-17227Y64388D01*
X-17208Y64166D01*
X-17194Y63944D01*
X-17186Y63722D01*
X-17183Y63500D01*
X-17186Y63278D01*
X-17194Y63056D01*
X-17208Y62834D01*
X-17227Y62612D01*
X-17251Y62392D01*
X-17281Y62171D01*
X-17316Y61952D01*
X-17357Y61733D01*
X-17403Y61516D01*
X-17454Y61300D01*
X-17511Y61085D01*
X-17573Y60871D01*
X-17640Y60660D01*
X-17712Y60449D01*
X-17790Y60241D01*
X-17872Y60035D01*
X-17960Y59831D01*
X-18052Y59628D01*
X-18150Y59429D01*
X-18252Y59232D01*
X-18359Y59037D01*
X-18471Y58845D01*
X-18588Y58656D01*
X-18709Y58469D01*
X-18835Y58286D01*
X-18965Y58106D01*
X-19100Y57929D01*
X-19238Y57756D01*
X-19381Y57586D01*
X-19529Y57419D01*
X-19680Y57256D01*
X-19835Y57097D01*
X-19994Y56942D01*
X-20157Y56791D01*
X-20324Y56643D01*
X-20494Y56500D01*
X-20667Y56362D01*
X-20844Y56227D01*
X-21024Y56097D01*
X-21207Y55971D01*
X-21394Y55850D01*
X-21583Y55733D01*
X-21775Y55621D01*
X-21970Y55514D01*
X-22167Y55412D01*
X-22366Y55314D01*
X-22569Y55222D01*
X-22773Y55134D01*
X-22979Y55052D01*
X-23187Y54974D01*
X-23398Y54902D01*
X-23609Y54835D01*
X-23823Y54773D01*
X-24038Y54716D01*
X-24254Y54665D01*
X-24471Y54619D01*
X-24690Y54578D01*
X-24909Y54543D01*
X-25130Y54513D01*
X-25350Y54489D01*
X-25572Y54470D01*
X-25794Y54456D01*
X-26016Y54448D01*
X-26238Y54445D01*
X-26460Y54448D01*
X-26682Y54456D01*
X-26904Y54470D01*
X-27126Y54489D01*
X-27346Y54513D01*
X-27567Y54543D01*
X-27786Y54578D01*
X-28005Y54619D01*
X-28222Y54665D01*
X-28438Y54716D01*
X-28653Y54773D01*
X-28867Y54835D01*
X-29078Y54902D01*
X-29289Y54974D01*
X-29497Y55052D01*
X-29703Y55134D01*
X-29907Y55222D01*
X-30110Y55314D01*
X-30309Y55412D01*
X-30506Y55514D01*
X-30701Y55621D01*
X-30893Y55733D01*
X-31082Y55850D01*
X-31269Y55971D01*
X-31452Y56097D01*
X-31632Y56227D01*
X-31809Y56362D01*
X-31982Y56500D01*
X-32152Y56643D01*
X-32319Y56791D01*
X-32482Y56942D01*
X-32641Y57097D01*
X-32796Y57256D01*
X-32947Y57419D01*
X-33095Y57586D01*
X-33238Y57756D01*
X-33376Y57929D01*
X-33511Y58106D01*
X-33641Y58286D01*
X-33767Y58469D01*
X-33888Y58656D01*
X-34005Y58845D01*
X-34117Y59037D01*
X-34224Y59232D01*
X-34326Y59429D01*
X-34424Y59628D01*
X-34516Y59831D01*
X-34604Y60035D01*
X-34686Y60241D01*
X-34764Y60449D01*
X-34836Y60660D01*
X-34903Y60871D01*
X-34965Y61085D01*
X-35022Y61300D01*
X-35073Y61516D01*
X-35119Y61733D01*
X-35160Y61952D01*
X-35195Y62171D01*
X-35225Y62392D01*
X-35249Y62612D01*
X-35268Y62834D01*
X-35282Y63056D01*
X-35290Y63278D01*
X-35293Y63500D01*
D15*
X-26238Y63500D03*
M02*
