G04 EAGLE Gerber RS-274X export*
G75*
%MOMM*%
%FSLAX34Y34*%
%LPD*%
%INSilkscreen Top*%
%IPPOS*%
%AMOC8*
5,1,8,0,0,1.08239X$1,22.5*%
G01*
%ADD10C,0.203200*%
%ADD11C,0.200000*%
%ADD12C,0.508000*%
%ADD13C,0.250000*%
%ADD14C,0.400000*%

G36*
X16893Y7771D02*
X16893Y7771D01*
X16912Y7769D01*
X16976Y7791D01*
X17042Y7807D01*
X17057Y7819D01*
X17076Y7825D01*
X17124Y7873D01*
X17176Y7917D01*
X17184Y7934D01*
X17197Y7948D01*
X17237Y8054D01*
X17246Y8075D01*
X17246Y8078D01*
X17248Y8082D01*
X17806Y11338D01*
X17864Y11367D01*
X17974Y11367D01*
X18048Y11385D01*
X18124Y11398D01*
X18133Y11404D01*
X18142Y11407D01*
X18170Y11429D01*
X18226Y11467D01*
X18274Y11467D01*
X18290Y11471D01*
X18306Y11468D01*
X18437Y11505D01*
X18442Y11507D01*
X18443Y11507D01*
X18444Y11507D01*
X18564Y11567D01*
X18574Y11567D01*
X18590Y11571D01*
X18606Y11568D01*
X18737Y11605D01*
X18742Y11607D01*
X18743Y11607D01*
X18744Y11607D01*
X18944Y11707D01*
X18971Y11730D01*
X19026Y11767D01*
X19074Y11767D01*
X19148Y11785D01*
X19224Y11798D01*
X19233Y11804D01*
X19242Y11807D01*
X19270Y11829D01*
X19342Y11878D01*
X19399Y11935D01*
X19544Y12007D01*
X19571Y12030D01*
X19626Y12067D01*
X19674Y12067D01*
X19748Y12085D01*
X19824Y12098D01*
X19833Y12104D01*
X19842Y12107D01*
X19870Y12129D01*
X19942Y12178D01*
X19960Y12196D01*
X22659Y10334D01*
X22675Y10328D01*
X22687Y10316D01*
X22755Y10297D01*
X22820Y10271D01*
X22837Y10272D01*
X22853Y10268D01*
X22922Y10280D01*
X22992Y10286D01*
X23007Y10295D01*
X23024Y10298D01*
X23130Y10370D01*
X23140Y10376D01*
X23141Y10377D01*
X23142Y10378D01*
X25342Y12578D01*
X25351Y12593D01*
X25365Y12603D01*
X25397Y12666D01*
X25433Y12725D01*
X25435Y12742D01*
X25443Y12758D01*
X25443Y12828D01*
X25450Y12897D01*
X25444Y12913D01*
X25444Y12931D01*
X25392Y13048D01*
X25388Y13059D01*
X25387Y13060D01*
X25386Y13062D01*
X23535Y15745D01*
X23537Y15760D01*
X23553Y15846D01*
X23553Y15896D01*
X23561Y15909D01*
X23613Y15977D01*
X23686Y16122D01*
X23742Y16178D01*
X23782Y16243D01*
X23826Y16306D01*
X23828Y16317D01*
X23833Y16325D01*
X23837Y16360D01*
X23853Y16446D01*
X23853Y16496D01*
X23861Y16509D01*
X23913Y16577D01*
X24013Y16777D01*
X24017Y16792D01*
X24026Y16806D01*
X24052Y16940D01*
X24053Y16945D01*
X24053Y16946D01*
X24053Y16957D01*
X24213Y17277D01*
X24217Y17292D01*
X24226Y17306D01*
X24252Y17440D01*
X24253Y17445D01*
X24253Y17446D01*
X24253Y17457D01*
X24313Y17577D01*
X24317Y17592D01*
X24326Y17606D01*
X24352Y17740D01*
X24353Y17745D01*
X24353Y17746D01*
X24353Y17757D01*
X24413Y17877D01*
X24417Y17892D01*
X24426Y17906D01*
X24429Y17922D01*
X27638Y18473D01*
X27656Y18480D01*
X27675Y18481D01*
X27735Y18513D01*
X27797Y18540D01*
X27810Y18555D01*
X27827Y18564D01*
X27866Y18619D01*
X27910Y18671D01*
X27915Y18690D01*
X27926Y18706D01*
X27948Y18817D01*
X27953Y18839D01*
X27952Y18842D01*
X27953Y18846D01*
X27953Y22046D01*
X27949Y22065D01*
X27951Y22084D01*
X27929Y22149D01*
X27914Y22215D01*
X27901Y22230D01*
X27895Y22248D01*
X27847Y22296D01*
X27804Y22348D01*
X27786Y22356D01*
X27772Y22370D01*
X27666Y22410D01*
X27646Y22419D01*
X27642Y22419D01*
X27638Y22420D01*
X24382Y22978D01*
X24353Y23036D01*
X24353Y23146D01*
X24336Y23221D01*
X24322Y23296D01*
X24316Y23306D01*
X24314Y23315D01*
X24291Y23342D01*
X24253Y23398D01*
X24253Y23446D01*
X24236Y23521D01*
X24222Y23596D01*
X24216Y23606D01*
X24214Y23615D01*
X24191Y23642D01*
X24142Y23714D01*
X24086Y23771D01*
X24053Y23836D01*
X24053Y23946D01*
X24036Y24021D01*
X24022Y24096D01*
X24016Y24106D01*
X24014Y24115D01*
X23991Y24142D01*
X23953Y24198D01*
X23953Y24246D01*
X23936Y24321D01*
X23922Y24396D01*
X23916Y24406D01*
X23914Y24415D01*
X23891Y24442D01*
X23842Y24514D01*
X23786Y24571D01*
X23713Y24716D01*
X23690Y24744D01*
X23642Y24814D01*
X23586Y24871D01*
X23553Y24936D01*
X23553Y24946D01*
X23550Y24962D01*
X23552Y24978D01*
X23515Y25109D01*
X23515Y25111D01*
X25383Y27726D01*
X25389Y27741D01*
X25400Y27752D01*
X25421Y27820D01*
X25448Y27886D01*
X25447Y27902D01*
X25452Y27917D01*
X25441Y27987D01*
X25436Y28059D01*
X25428Y28072D01*
X25426Y28088D01*
X25351Y28204D01*
X25349Y28208D01*
X25348Y28208D01*
X23148Y30508D01*
X23130Y30520D01*
X23117Y30537D01*
X23058Y30567D01*
X23003Y30603D01*
X22982Y30605D01*
X22963Y30615D01*
X22897Y30615D01*
X22831Y30623D01*
X22811Y30616D01*
X22790Y30616D01*
X22695Y30574D01*
X22668Y30565D01*
X22665Y30561D01*
X22659Y30559D01*
X19938Y28682D01*
X19915Y28699D01*
X19903Y28701D01*
X19895Y28706D01*
X19860Y28709D01*
X19845Y28712D01*
X19842Y28714D01*
X19777Y28755D01*
X19715Y28799D01*
X19703Y28801D01*
X19695Y28806D01*
X19660Y28809D01*
X19645Y28812D01*
X19642Y28814D01*
X19577Y28855D01*
X19515Y28899D01*
X19503Y28901D01*
X19495Y28906D01*
X19460Y28909D01*
X19445Y28912D01*
X19442Y28914D01*
X19377Y28955D01*
X19315Y28999D01*
X19303Y29001D01*
X19295Y29006D01*
X19260Y29009D01*
X19245Y29012D01*
X19242Y29014D01*
X19177Y29055D01*
X19115Y29099D01*
X19103Y29101D01*
X19095Y29106D01*
X19060Y29109D01*
X19045Y29112D01*
X19042Y29114D01*
X18977Y29155D01*
X18915Y29199D01*
X18903Y29201D01*
X18895Y29206D01*
X18860Y29209D01*
X18774Y29226D01*
X18724Y29226D01*
X18703Y29239D01*
X18670Y29271D01*
X18631Y29284D01*
X18595Y29306D01*
X18550Y29310D01*
X18506Y29324D01*
X18465Y29318D01*
X18423Y29322D01*
X18380Y29306D01*
X18335Y29299D01*
X18300Y29275D01*
X18261Y29260D01*
X18230Y29227D01*
X18193Y29201D01*
X18167Y29158D01*
X18144Y29133D01*
X18137Y29108D01*
X18118Y29078D01*
X16118Y23678D01*
X16111Y23621D01*
X16095Y23566D01*
X16101Y23536D01*
X16097Y23506D01*
X16116Y23452D01*
X16126Y23396D01*
X16144Y23371D01*
X16154Y23343D01*
X16195Y23303D01*
X16229Y23257D01*
X16259Y23240D01*
X16278Y23222D01*
X16310Y23212D01*
X16354Y23187D01*
X16628Y23095D01*
X16949Y22935D01*
X17106Y22778D01*
X17136Y22759D01*
X17204Y22707D01*
X17349Y22635D01*
X17462Y22522D01*
X17535Y22377D01*
X17558Y22349D01*
X17577Y22320D01*
X17586Y22305D01*
X17590Y22302D01*
X17606Y22278D01*
X17762Y22122D01*
X17923Y21801D01*
X18014Y21526D01*
X18026Y21507D01*
X18035Y21477D01*
X18195Y21157D01*
X18195Y20946D01*
X18203Y20911D01*
X18214Y20826D01*
X18295Y20585D01*
X18295Y20108D01*
X17930Y19014D01*
X17579Y18488D01*
X17433Y18341D01*
X17164Y18162D01*
X17143Y18139D01*
X17106Y18114D01*
X16933Y17941D01*
X16706Y17790D01*
X16454Y17706D01*
X16422Y17687D01*
X16364Y17662D01*
X16159Y17526D01*
X15974Y17526D01*
X15939Y17517D01*
X15882Y17514D01*
X15527Y17426D01*
X14936Y17426D01*
X14694Y17506D01*
X14658Y17509D01*
X14574Y17526D01*
X14389Y17526D01*
X14184Y17662D01*
X14149Y17675D01*
X14094Y17706D01*
X13842Y17790D01*
X13316Y18141D01*
X12969Y18488D01*
X12618Y19014D01*
X12534Y19266D01*
X12514Y19298D01*
X12490Y19357D01*
X12353Y19561D01*
X12353Y19746D01*
X12345Y19781D01*
X12334Y19866D01*
X12253Y20108D01*
X12253Y20885D01*
X12334Y21126D01*
X12337Y21162D01*
X12353Y21246D01*
X12353Y21357D01*
X12413Y21477D01*
X12419Y21499D01*
X12434Y21526D01*
X12525Y21801D01*
X12586Y21922D01*
X12742Y22078D01*
X12761Y22109D01*
X12813Y22177D01*
X12886Y22322D01*
X13199Y22635D01*
X13344Y22707D01*
X13371Y22730D01*
X13442Y22778D01*
X13599Y22935D01*
X14144Y23207D01*
X14167Y23227D01*
X14196Y23239D01*
X14233Y23282D01*
X14277Y23318D01*
X14289Y23346D01*
X14309Y23369D01*
X14324Y23424D01*
X14347Y23476D01*
X14345Y23507D01*
X14353Y23537D01*
X14341Y23611D01*
X14339Y23649D01*
X14333Y23661D01*
X14330Y23678D01*
X12330Y29078D01*
X12318Y29095D01*
X12314Y29115D01*
X12271Y29166D01*
X12234Y29222D01*
X12217Y29233D01*
X12204Y29248D01*
X12142Y29276D01*
X12084Y29309D01*
X12064Y29310D01*
X12046Y29319D01*
X11979Y29316D01*
X11912Y29320D01*
X11893Y29313D01*
X11873Y29312D01*
X11814Y29280D01*
X11752Y29254D01*
X11739Y29239D01*
X11721Y29229D01*
X11708Y29210D01*
X11700Y29208D01*
X11624Y29195D01*
X11615Y29188D01*
X11606Y29186D01*
X11578Y29163D01*
X11506Y29114D01*
X11499Y29108D01*
X11424Y29095D01*
X11415Y29088D01*
X11406Y29086D01*
X11378Y29063D01*
X11306Y29014D01*
X11299Y29008D01*
X11224Y28995D01*
X11215Y28988D01*
X11206Y28986D01*
X11178Y28963D01*
X11122Y28926D01*
X11074Y28926D01*
X11000Y28908D01*
X10924Y28895D01*
X10915Y28888D01*
X10906Y28886D01*
X10878Y28863D01*
X10806Y28814D01*
X10799Y28808D01*
X10724Y28795D01*
X10715Y28788D01*
X10706Y28786D01*
X10678Y28763D01*
X10606Y28714D01*
X10588Y28697D01*
X7889Y30559D01*
X7873Y30565D01*
X7861Y30576D01*
X7794Y30596D01*
X7728Y30622D01*
X7711Y30620D01*
X7695Y30625D01*
X7626Y30613D01*
X7556Y30607D01*
X7541Y30598D01*
X7524Y30595D01*
X7418Y30523D01*
X7408Y30517D01*
X7407Y30515D01*
X7406Y30514D01*
X5106Y28214D01*
X5093Y28194D01*
X5074Y28178D01*
X5048Y28121D01*
X5015Y28067D01*
X5012Y28043D01*
X5002Y28020D01*
X5004Y27958D01*
X4998Y27895D01*
X5007Y27872D01*
X5008Y27847D01*
X5048Y27765D01*
X5060Y27734D01*
X5066Y27728D01*
X5071Y27719D01*
X7016Y25125D01*
X7006Y25114D01*
X6987Y25084D01*
X6980Y25074D01*
X6966Y25063D01*
X6958Y25047D01*
X6935Y25016D01*
X6835Y24816D01*
X6831Y24800D01*
X6822Y24787D01*
X6796Y24653D01*
X6795Y24648D01*
X6795Y24647D01*
X6795Y24646D01*
X6795Y24636D01*
X6762Y24571D01*
X6706Y24514D01*
X6687Y24484D01*
X6635Y24416D01*
X6535Y24216D01*
X6531Y24200D01*
X6522Y24187D01*
X6496Y24053D01*
X6495Y24048D01*
X6495Y24047D01*
X6495Y24046D01*
X6495Y24036D01*
X6335Y23716D01*
X6331Y23700D01*
X6322Y23687D01*
X6296Y23553D01*
X6295Y23548D01*
X6295Y23547D01*
X6295Y23546D01*
X6295Y23536D01*
X6235Y23416D01*
X6231Y23400D01*
X6222Y23387D01*
X6196Y23253D01*
X6195Y23248D01*
X6195Y23247D01*
X6195Y23246D01*
X6195Y23236D01*
X6135Y23116D01*
X6131Y23100D01*
X6122Y23087D01*
X6111Y23029D01*
X6102Y23009D01*
X6102Y22986D01*
X6102Y22985D01*
X2810Y22420D01*
X2792Y22413D01*
X2773Y22412D01*
X2713Y22379D01*
X2651Y22353D01*
X2638Y22338D01*
X2621Y22329D01*
X2582Y22273D01*
X2538Y22222D01*
X2533Y22203D01*
X2522Y22187D01*
X2500Y22076D01*
X2495Y22054D01*
X2496Y22050D01*
X2495Y22046D01*
X2495Y18846D01*
X2499Y18827D01*
X2497Y18806D01*
X2519Y18743D01*
X2534Y18678D01*
X2547Y18662D01*
X2554Y18643D01*
X2602Y18596D01*
X2644Y18544D01*
X2663Y18536D01*
X2677Y18522D01*
X2779Y18484D01*
X2802Y18474D01*
X2807Y18474D01*
X2812Y18472D01*
X6095Y17925D01*
X6095Y17846D01*
X6112Y17772D01*
X6126Y17697D01*
X6132Y17687D01*
X6134Y17678D01*
X6157Y17650D01*
X6195Y17595D01*
X6195Y17546D01*
X6212Y17472D01*
X6226Y17397D01*
X6232Y17387D01*
X6234Y17378D01*
X6257Y17350D01*
X6306Y17278D01*
X6362Y17222D01*
X6395Y17157D01*
X6395Y17046D01*
X6412Y16972D01*
X6426Y16897D01*
X6432Y16887D01*
X6434Y16878D01*
X6457Y16850D01*
X6495Y16795D01*
X6495Y16746D01*
X6512Y16672D01*
X6526Y16597D01*
X6532Y16587D01*
X6534Y16578D01*
X6557Y16550D01*
X6606Y16478D01*
X6662Y16422D01*
X6735Y16277D01*
X6758Y16249D01*
X6795Y16195D01*
X6795Y16146D01*
X6812Y16072D01*
X6826Y15997D01*
X6832Y15987D01*
X6834Y15978D01*
X6857Y15950D01*
X6906Y15878D01*
X6962Y15822D01*
X7002Y15742D01*
X5067Y13069D01*
X5057Y13045D01*
X5040Y13026D01*
X5024Y12966D01*
X5000Y12909D01*
X5002Y12884D01*
X4995Y12859D01*
X5007Y12798D01*
X5011Y12736D01*
X5024Y12714D01*
X5029Y12689D01*
X5080Y12617D01*
X5098Y12587D01*
X5105Y12582D01*
X5112Y12572D01*
X7412Y10372D01*
X7423Y10366D01*
X7431Y10355D01*
X7497Y10322D01*
X7561Y10284D01*
X7574Y10283D01*
X7585Y10278D01*
X7659Y10277D01*
X7733Y10272D01*
X7745Y10277D01*
X7758Y10277D01*
X7889Y10334D01*
X10563Y12178D01*
X10704Y12107D01*
X10720Y12103D01*
X10733Y12094D01*
X10867Y12068D01*
X10873Y12067D01*
X10874Y12067D01*
X10884Y12067D01*
X10949Y12035D01*
X11006Y11978D01*
X11036Y11959D01*
X11104Y11907D01*
X11304Y11807D01*
X11320Y11803D01*
X11333Y11794D01*
X11467Y11768D01*
X11473Y11767D01*
X11474Y11767D01*
X11484Y11767D01*
X11549Y11735D01*
X11606Y11678D01*
X11671Y11638D01*
X11733Y11594D01*
X11745Y11592D01*
X11753Y11587D01*
X11788Y11584D01*
X11874Y11567D01*
X11984Y11567D01*
X12104Y11507D01*
X12120Y11503D01*
X12133Y11494D01*
X12267Y11468D01*
X12273Y11467D01*
X12274Y11467D01*
X12284Y11467D01*
X12404Y11407D01*
X12420Y11403D01*
X12433Y11394D01*
X12567Y11368D01*
X12573Y11367D01*
X12574Y11367D01*
X12584Y11367D01*
X12704Y11307D01*
X12720Y11303D01*
X12733Y11294D01*
X12750Y11291D01*
X13300Y8082D01*
X13308Y8064D01*
X13309Y8045D01*
X13341Y7986D01*
X13368Y7923D01*
X13382Y7910D01*
X13392Y7893D01*
X13447Y7854D01*
X13499Y7810D01*
X13518Y7805D01*
X13533Y7794D01*
X13644Y7773D01*
X13666Y7767D01*
X13670Y7768D01*
X13674Y7767D01*
X16874Y7767D01*
X16893Y7771D01*
G37*
G36*
X129916Y91297D02*
X129916Y91297D01*
X129920Y91293D01*
X130415Y91362D01*
X130419Y91365D01*
X130422Y91363D01*
X130965Y91519D01*
X130969Y91523D01*
X130972Y91522D01*
X131428Y91726D01*
X131431Y91732D01*
X131436Y91730D01*
X131805Y91983D01*
X131806Y91986D01*
X131808Y91986D01*
X132225Y92326D01*
X132227Y92332D01*
X132232Y92332D01*
X132562Y92721D01*
X132892Y93110D01*
X132893Y93128D01*
X132902Y93133D01*
X132959Y93436D01*
X133198Y93866D01*
X133196Y93879D01*
X133203Y93884D01*
X133271Y94418D01*
X133269Y94421D01*
X133271Y94422D01*
X133290Y94869D01*
X133288Y94871D01*
X133290Y94873D01*
X133270Y95455D01*
X133265Y95462D01*
X133268Y95467D01*
X133151Y95875D01*
X133147Y95878D01*
X133149Y95882D01*
X132945Y96338D01*
X132941Y96340D01*
X132942Y96343D01*
X132650Y96847D01*
X132648Y96848D01*
X132648Y96851D01*
X132395Y97219D01*
X132386Y97222D01*
X132387Y97229D01*
X131609Y97889D01*
X131602Y97889D01*
X131601Y97894D01*
X131076Y98185D01*
X131069Y98184D01*
X131067Y98189D01*
X130582Y98344D01*
X130580Y98343D01*
X130579Y98345D01*
X130181Y98451D01*
X130176Y98449D01*
X130174Y98452D01*
X129640Y98520D01*
X129632Y98515D01*
X129627Y98520D01*
X129132Y98451D01*
X128637Y98383D01*
X128633Y98379D01*
X128630Y98381D01*
X128086Y98226D01*
X128083Y98221D01*
X128080Y98223D01*
X127623Y98019D01*
X127620Y98013D01*
X127616Y98014D01*
X127247Y97762D01*
X127246Y97758D01*
X127243Y97759D01*
X126826Y97419D01*
X126823Y97406D01*
X126814Y97404D01*
X126574Y96971D01*
X126247Y96586D01*
X126247Y96578D01*
X126244Y96576D01*
X126247Y96573D01*
X126247Y96572D01*
X126238Y96569D01*
X126083Y96084D01*
X125928Y95598D01*
X125930Y95593D01*
X125927Y95591D01*
X125928Y95590D01*
X125926Y95589D01*
X125859Y95055D01*
X125863Y95046D01*
X125859Y95042D01*
X125927Y94547D01*
X125996Y94051D01*
X126003Y94044D01*
X126000Y94038D01*
X126204Y93582D01*
X126207Y93580D01*
X126206Y93577D01*
X126498Y93072D01*
X126501Y93071D01*
X126500Y93069D01*
X126753Y92700D01*
X126756Y92699D01*
X126755Y92697D01*
X127096Y92280D01*
X127109Y92276D01*
X127110Y92268D01*
X127543Y92028D01*
X127928Y91701D01*
X127942Y91700D01*
X127945Y91692D01*
X128431Y91537D01*
X128917Y91382D01*
X128923Y91384D01*
X128926Y91380D01*
X129460Y91312D01*
X129463Y91314D01*
X129464Y91312D01*
X129911Y91293D01*
X129916Y91297D01*
G37*
G36*
X89113Y106850D02*
X89113Y106850D01*
X89122Y106846D01*
X89522Y107046D01*
X89532Y107067D01*
X89541Y107074D01*
X89540Y107075D01*
X89548Y107078D01*
X89648Y107478D01*
X89644Y107486D01*
X89649Y107490D01*
X89649Y113690D01*
X89633Y113711D01*
X89635Y113725D01*
X89335Y114025D01*
X89314Y114028D01*
X89308Y114039D01*
X88708Y114139D01*
X88703Y114136D01*
X88700Y114139D01*
X86100Y114139D01*
X86094Y114135D01*
X86090Y114138D01*
X85590Y114038D01*
X85586Y114033D01*
X85582Y114036D01*
X85082Y113836D01*
X85077Y113828D01*
X85070Y113829D01*
X84670Y113529D01*
X84668Y113520D01*
X84661Y113520D01*
X84061Y112720D01*
X84061Y112704D01*
X84052Y112700D01*
X83952Y112200D01*
X83955Y112193D01*
X83951Y112190D01*
X83951Y111590D01*
X83955Y111584D01*
X83952Y111580D01*
X84052Y111080D01*
X84053Y111079D01*
X84052Y111078D01*
X84152Y110678D01*
X84163Y110669D01*
X84161Y110660D01*
X84461Y110260D01*
X84494Y110251D01*
X84467Y110226D01*
X84466Y110225D01*
X84465Y110225D01*
X84365Y110125D01*
X84363Y110112D01*
X84361Y110110D01*
X84354Y110108D01*
X84154Y109608D01*
X84158Y109595D01*
X84151Y109590D01*
X84151Y108590D01*
X84159Y108579D01*
X84154Y108572D01*
X84354Y108072D01*
X84362Y108067D01*
X84361Y108060D01*
X84961Y107260D01*
X84979Y107255D01*
X84982Y107244D01*
X85480Y107045D01*
X85878Y106846D01*
X85894Y106849D01*
X85900Y106841D01*
X89100Y106841D01*
X89113Y106850D01*
G37*
G36*
X81963Y120820D02*
X81963Y120820D01*
X81972Y120816D01*
X82372Y121016D01*
X82382Y121037D01*
X82391Y121044D01*
X82390Y121045D01*
X82398Y121048D01*
X82498Y121448D01*
X82494Y121456D01*
X82499Y121460D01*
X82499Y127660D01*
X82483Y127681D01*
X82485Y127695D01*
X82185Y127995D01*
X82164Y127998D01*
X82158Y128009D01*
X81558Y128109D01*
X81553Y128106D01*
X81550Y128109D01*
X78950Y128109D01*
X78944Y128105D01*
X78940Y128108D01*
X78440Y128008D01*
X78434Y128001D01*
X78428Y128004D01*
X78028Y127804D01*
X78027Y127801D01*
X78025Y127802D01*
X77525Y127502D01*
X77520Y127490D01*
X77511Y127490D01*
X76911Y126690D01*
X76911Y126674D01*
X76902Y126670D01*
X76802Y126170D01*
X76805Y126163D01*
X76801Y126160D01*
X76801Y125560D01*
X76805Y125554D01*
X76802Y125550D01*
X76902Y125050D01*
X76909Y125044D01*
X76906Y125038D01*
X77306Y124238D01*
X77344Y124219D01*
X77318Y124198D01*
X77318Y124195D01*
X77315Y124195D01*
X77215Y124095D01*
X77213Y124082D01*
X77204Y124075D01*
X77206Y124072D01*
X77202Y124070D01*
X77002Y123070D01*
X77005Y123063D01*
X77001Y123060D01*
X77001Y122560D01*
X77009Y122549D01*
X77004Y122542D01*
X77204Y122042D01*
X77212Y122037D01*
X77211Y122030D01*
X77811Y121230D01*
X77829Y121225D01*
X77832Y121214D01*
X78832Y120814D01*
X78845Y120818D01*
X78850Y120811D01*
X81950Y120811D01*
X81963Y120820D01*
G37*
G36*
X134943Y97672D02*
X134943Y97672D01*
X134956Y97668D01*
X135325Y97921D01*
X135330Y97936D01*
X135340Y97938D01*
X135631Y98463D01*
X135630Y98471D01*
X135636Y98474D01*
X135742Y98872D01*
X135729Y98903D01*
X135733Y98916D01*
X135392Y99333D01*
X135379Y99336D01*
X135378Y99345D01*
X133564Y100350D01*
X133538Y100669D01*
X134491Y102387D01*
X134859Y102493D01*
X136591Y101533D01*
X136607Y101535D01*
X136613Y101527D01*
X137059Y101508D01*
X137077Y101520D01*
X137089Y101516D01*
X137458Y101769D01*
X137463Y101785D01*
X137473Y101786D01*
X137813Y102398D01*
X137809Y102421D01*
X137813Y102423D01*
X137810Y102427D01*
X137817Y102436D01*
X137700Y102844D01*
X137685Y102855D01*
X137686Y102866D01*
X137385Y103147D01*
X137376Y103148D01*
X137375Y103154D01*
X132390Y105918D01*
X132381Y105917D01*
X132379Y105922D01*
X131980Y106029D01*
X131963Y106022D01*
X131954Y106029D01*
X131546Y105912D01*
X131530Y105890D01*
X131517Y105888D01*
X131226Y105363D01*
X131227Y105358D01*
X131223Y105356D01*
X131224Y105355D01*
X131222Y105355D01*
X131067Y104869D01*
X131078Y104839D01*
X131073Y104826D01*
X131326Y104457D01*
X131342Y104452D01*
X131343Y104442D01*
X131780Y104199D01*
X133157Y103437D01*
X133183Y103118D01*
X132228Y101395D01*
X131944Y101249D01*
X130568Y102012D01*
X130130Y102254D01*
X130114Y102252D01*
X130108Y102260D01*
X129662Y102279D01*
X129641Y102265D01*
X129628Y102268D01*
X129211Y101928D01*
X129208Y101913D01*
X129202Y101908D01*
X129196Y101906D01*
X128992Y101333D01*
X128997Y101319D01*
X128995Y101317D01*
X128999Y101312D01*
X128991Y101303D01*
X129108Y100895D01*
X129125Y100883D01*
X129124Y100871D01*
X129513Y100541D01*
X129520Y100541D01*
X129521Y100536D01*
X134419Y97821D01*
X134426Y97822D01*
X134428Y97817D01*
X134913Y97662D01*
X134943Y97672D01*
G37*
G36*
X75213Y106550D02*
X75213Y106550D01*
X75222Y106546D01*
X75622Y106746D01*
X75632Y106767D01*
X75641Y106774D01*
X75640Y106775D01*
X75648Y106778D01*
X75748Y107178D01*
X75744Y107186D01*
X75749Y107190D01*
X75749Y113390D01*
X75744Y113397D01*
X75748Y113402D01*
X75648Y113802D01*
X75625Y113821D01*
X75622Y113834D01*
X75222Y114034D01*
X75206Y114031D01*
X75200Y114039D01*
X74600Y114039D01*
X74587Y114030D01*
X74578Y114034D01*
X73978Y113734D01*
X73965Y113708D01*
X73953Y113704D01*
X73946Y113680D01*
X73926Y113732D01*
X73923Y113731D01*
X73922Y113734D01*
X73522Y113934D01*
X73519Y113933D01*
X73518Y113936D01*
X73018Y114136D01*
X72999Y114130D01*
X72990Y114138D01*
X72490Y114038D01*
X72484Y114031D01*
X72478Y114034D01*
X72078Y113834D01*
X72077Y113831D01*
X72075Y113832D01*
X71575Y113532D01*
X71571Y113524D01*
X71565Y113525D01*
X71165Y113125D01*
X71164Y113120D01*
X71161Y113120D01*
X70861Y112720D01*
X70861Y112713D01*
X70856Y112712D01*
X70656Y112312D01*
X70658Y112303D01*
X70652Y112300D01*
X70552Y111800D01*
X70555Y111793D01*
X70551Y111790D01*
X70551Y111190D01*
X70556Y111183D01*
X70552Y111178D01*
X70652Y110778D01*
X70656Y110775D01*
X70654Y110772D01*
X70854Y110272D01*
X70862Y110267D01*
X70861Y110260D01*
X71161Y109860D01*
X71166Y109859D01*
X71165Y109855D01*
X71565Y109455D01*
X71570Y109454D01*
X71570Y109451D01*
X71970Y109151D01*
X71980Y109151D01*
X71982Y109144D01*
X72482Y108944D01*
X72487Y108946D01*
X72488Y108942D01*
X72888Y108842D01*
X72904Y108849D01*
X72912Y108842D01*
X73311Y108942D01*
X73810Y109042D01*
X73819Y109052D01*
X73827Y109049D01*
X74051Y109198D01*
X74051Y107190D01*
X74056Y107183D01*
X74052Y107178D01*
X74152Y106778D01*
X74175Y106759D01*
X74178Y106746D01*
X74578Y106546D01*
X74594Y106549D01*
X74600Y106541D01*
X75200Y106541D01*
X75213Y106550D01*
G37*
G36*
X129253Y55770D02*
X129253Y55770D01*
X129262Y55766D01*
X129660Y55965D01*
X130158Y56164D01*
X130166Y56176D01*
X130175Y56175D01*
X130575Y56575D01*
X130576Y56580D01*
X130579Y56580D01*
X130879Y56980D01*
X130879Y56990D01*
X130886Y56992D01*
X131086Y57492D01*
X131084Y57497D01*
X131088Y57498D01*
X131188Y57898D01*
X131184Y57906D01*
X131189Y57910D01*
X131189Y58510D01*
X131180Y58523D01*
X131184Y58532D01*
X130984Y58932D01*
X130980Y58934D01*
X130981Y58937D01*
X130812Y59191D01*
X131162Y59366D01*
X131173Y59388D01*
X131178Y59392D01*
X131176Y59394D01*
X131181Y59403D01*
X131189Y59410D01*
X131189Y60010D01*
X131186Y60015D01*
X131189Y60018D01*
X131089Y60618D01*
X131068Y60637D01*
X131067Y60651D01*
X130767Y60851D01*
X130747Y60850D01*
X130740Y60859D01*
X124340Y60859D01*
X124327Y60850D01*
X124318Y60854D01*
X123918Y60654D01*
X123905Y60627D01*
X123892Y60622D01*
X123792Y60222D01*
X123796Y60214D01*
X123791Y60210D01*
X123791Y59610D01*
X123804Y59592D01*
X123801Y59580D01*
X124101Y59180D01*
X124123Y59174D01*
X124128Y59162D01*
X124528Y59062D01*
X124536Y59066D01*
X124540Y59061D01*
X126448Y59061D01*
X126299Y58837D01*
X126299Y58831D01*
X126295Y58828D01*
X126299Y58823D01*
X126292Y58820D01*
X126192Y58320D01*
X126195Y58313D01*
X126191Y58310D01*
X126191Y57810D01*
X126196Y57803D01*
X126192Y57798D01*
X126292Y57398D01*
X126296Y57395D01*
X126294Y57392D01*
X126494Y56892D01*
X126506Y56884D01*
X126505Y56875D01*
X126905Y56475D01*
X126910Y56474D01*
X126910Y56471D01*
X127710Y55871D01*
X127726Y55871D01*
X127730Y55862D01*
X128230Y55762D01*
X128237Y55765D01*
X128240Y55761D01*
X129240Y55761D01*
X129253Y55770D01*
G37*
G36*
X51731Y120619D02*
X51731Y120619D01*
X51738Y120614D01*
X52238Y120814D01*
X52248Y120830D01*
X52259Y120830D01*
X52559Y121230D01*
X52559Y121237D01*
X52561Y121238D01*
X52559Y121239D01*
X52559Y121242D01*
X52567Y121244D01*
X52667Y121544D01*
X52665Y121551D01*
X52669Y121553D01*
X53069Y124453D01*
X53061Y124467D01*
X53067Y124476D01*
X52967Y124776D01*
X52950Y124787D01*
X52950Y124799D01*
X52550Y125099D01*
X52540Y125099D01*
X52538Y125106D01*
X52038Y125306D01*
X52019Y125300D01*
X52010Y125308D01*
X51510Y125208D01*
X51504Y125201D01*
X51498Y125204D01*
X51104Y125007D01*
X50632Y124913D01*
X50265Y125188D01*
X50172Y125653D01*
X50357Y126023D01*
X50732Y126211D01*
X51300Y126211D01*
X51685Y125825D01*
X51705Y125822D01*
X51710Y125812D01*
X52210Y125712D01*
X52224Y125718D01*
X52232Y125712D01*
X52632Y125812D01*
X52646Y125830D01*
X52658Y125829D01*
X53058Y126329D01*
X53059Y126344D01*
X53068Y126348D01*
X53168Y126748D01*
X53158Y126770D01*
X53164Y126782D01*
X52964Y127182D01*
X52954Y127187D01*
X52955Y127195D01*
X52555Y127595D01*
X52541Y127597D01*
X52538Y127606D01*
X51538Y128006D01*
X51525Y128002D01*
X51520Y128009D01*
X50520Y128009D01*
X50514Y128005D01*
X50510Y128008D01*
X50010Y127908D01*
X50004Y127901D01*
X49998Y127904D01*
X49598Y127704D01*
X49597Y127701D01*
X49595Y127702D01*
X49095Y127402D01*
X49090Y127390D01*
X49081Y127390D01*
X48481Y126590D01*
X48481Y126584D01*
X48480Y126583D01*
X48481Y126583D01*
X48481Y126574D01*
X48472Y126570D01*
X48272Y125570D01*
X48278Y125557D01*
X48272Y125550D01*
X48472Y124550D01*
X48483Y124540D01*
X48481Y124530D01*
X48781Y124130D01*
X48786Y124129D01*
X48785Y124125D01*
X49185Y123725D01*
X49190Y123724D01*
X49190Y123721D01*
X49590Y123421D01*
X49600Y123421D01*
X49602Y123414D01*
X50102Y123214D01*
X50108Y123216D01*
X50110Y123212D01*
X50610Y123112D01*
X50617Y123115D01*
X50620Y123111D01*
X51062Y123111D01*
X50976Y122597D01*
X50712Y122509D01*
X49120Y122509D01*
X49107Y122500D01*
X49098Y122504D01*
X48698Y122304D01*
X48688Y122284D01*
X48676Y122282D01*
X48476Y121882D01*
X48479Y121866D01*
X48471Y121860D01*
X48471Y121260D01*
X48480Y121247D01*
X48476Y121238D01*
X48676Y120838D01*
X48696Y120828D01*
X48698Y120816D01*
X49098Y120616D01*
X49114Y120619D01*
X49120Y120611D01*
X51720Y120611D01*
X51731Y120619D01*
G37*
G36*
X128851Y62469D02*
X128851Y62469D01*
X128858Y62464D01*
X129358Y62664D01*
X129363Y62672D01*
X129370Y62671D01*
X129770Y62971D01*
X129771Y62976D01*
X129775Y62975D01*
X130075Y63275D01*
X130077Y63289D01*
X130086Y63292D01*
X130286Y63792D01*
X130284Y63798D01*
X130288Y63800D01*
X130388Y64298D01*
X130686Y65292D01*
X130873Y65666D01*
X131324Y65757D01*
X131595Y65486D01*
X131690Y65010D01*
X131594Y64531D01*
X131301Y64140D01*
X131301Y64126D01*
X131292Y64122D01*
X131192Y63722D01*
X131204Y63694D01*
X131201Y63680D01*
X131501Y63280D01*
X131509Y63278D01*
X131509Y63272D01*
X132009Y62872D01*
X132032Y62871D01*
X132040Y62861D01*
X132340Y62861D01*
X132361Y62877D01*
X132375Y62875D01*
X132775Y63275D01*
X132776Y63280D01*
X132779Y63280D01*
X133079Y63680D01*
X133079Y63690D01*
X133086Y63692D01*
X133286Y64192D01*
X133284Y64198D01*
X133288Y64200D01*
X133388Y64700D01*
X133385Y64707D01*
X133389Y64710D01*
X133389Y65810D01*
X133380Y65823D01*
X133384Y65832D01*
X133185Y66230D01*
X132986Y66728D01*
X132974Y66736D01*
X132975Y66745D01*
X132675Y67045D01*
X132670Y67046D01*
X132670Y67049D01*
X132270Y67349D01*
X132260Y67349D01*
X132258Y67356D01*
X131758Y67556D01*
X131752Y67554D01*
X131750Y67558D01*
X131250Y67658D01*
X131237Y67652D01*
X131230Y67658D01*
X130230Y67458D01*
X130220Y67447D01*
X130210Y67449D01*
X129810Y67149D01*
X129808Y67140D01*
X129801Y67140D01*
X129501Y66740D01*
X129501Y66736D01*
X129498Y66735D01*
X129198Y66235D01*
X129199Y66225D01*
X129192Y66222D01*
X129093Y65825D01*
X128894Y65328D01*
X128896Y65322D01*
X128892Y65320D01*
X128793Y64824D01*
X128604Y64353D01*
X128150Y64262D01*
X127880Y64443D01*
X127689Y64919D01*
X127689Y65396D01*
X127979Y65880D01*
X128375Y66275D01*
X128376Y66286D01*
X128377Y66287D01*
X128384Y66288D01*
X128584Y66688D01*
X128579Y66717D01*
X128586Y66728D01*
X128386Y67228D01*
X128374Y67236D01*
X128375Y67245D01*
X127975Y67645D01*
X127948Y67649D01*
X127940Y67659D01*
X127540Y67659D01*
X127527Y67650D01*
X127518Y67654D01*
X127118Y67454D01*
X127115Y67448D01*
X127110Y67449D01*
X126710Y67149D01*
X126708Y67140D01*
X126701Y67140D01*
X126401Y66740D01*
X126401Y66736D01*
X126398Y66735D01*
X126098Y66235D01*
X126099Y66223D01*
X126092Y66220D01*
X125892Y65220D01*
X125898Y65207D01*
X125892Y65200D01*
X126092Y64200D01*
X126093Y64199D01*
X126092Y64198D01*
X126192Y63798D01*
X126201Y63791D01*
X126198Y63785D01*
X126498Y63285D01*
X126506Y63281D01*
X126505Y63275D01*
X126805Y62975D01*
X126814Y62974D01*
X126815Y62968D01*
X127315Y62668D01*
X127318Y62668D01*
X127318Y62666D01*
X127718Y62466D01*
X127734Y62469D01*
X127740Y62461D01*
X128840Y62461D01*
X128851Y62469D01*
G37*
G36*
X132748Y30361D02*
X132748Y30361D01*
X132763Y30377D01*
X132775Y30375D01*
X133075Y30675D01*
X133076Y30687D01*
X133081Y30691D01*
X133078Y30695D01*
X133088Y30700D01*
X133188Y31200D01*
X133185Y31207D01*
X133189Y31210D01*
X133189Y35310D01*
X133180Y35323D01*
X133184Y35332D01*
X132984Y35732D01*
X132964Y35742D01*
X132962Y35754D01*
X132562Y35954D01*
X132546Y35951D01*
X132540Y35959D01*
X126340Y35959D01*
X126319Y35943D01*
X126305Y35945D01*
X126005Y35645D01*
X126002Y35624D01*
X125991Y35618D01*
X125891Y35018D01*
X125899Y35003D01*
X125893Y34994D01*
X126093Y34394D01*
X126112Y34382D01*
X126113Y34369D01*
X126413Y34169D01*
X126433Y34170D01*
X126440Y34161D01*
X128414Y34161D01*
X128591Y33895D01*
X128591Y32310D01*
X128595Y32304D01*
X128592Y32300D01*
X128692Y31800D01*
X128707Y31787D01*
X128705Y31775D01*
X129005Y31475D01*
X129026Y31472D01*
X129032Y31461D01*
X129632Y31361D01*
X129643Y31367D01*
X129650Y31362D01*
X130150Y31462D01*
X130166Y31480D01*
X130179Y31480D01*
X130479Y31880D01*
X130479Y31902D01*
X130489Y31910D01*
X130489Y33895D01*
X130666Y34161D01*
X131120Y34161D01*
X131391Y33890D01*
X131391Y30910D01*
X131399Y30899D01*
X131394Y30892D01*
X131594Y30392D01*
X131625Y30373D01*
X131630Y30362D01*
X132130Y30262D01*
X132142Y30267D01*
X132148Y30261D01*
X132748Y30361D01*
G37*
G36*
X80613Y108850D02*
X80613Y108850D01*
X80622Y108846D01*
X81020Y109045D01*
X81518Y109244D01*
X81526Y109256D01*
X81535Y109255D01*
X81935Y109655D01*
X81936Y109660D01*
X81939Y109660D01*
X82239Y110060D01*
X82239Y110070D01*
X82246Y110072D01*
X82445Y110570D01*
X82644Y110968D01*
X82641Y110984D01*
X82649Y110990D01*
X82649Y111490D01*
X82645Y111496D01*
X82648Y111500D01*
X82448Y112500D01*
X82439Y112508D01*
X82442Y112515D01*
X82142Y113015D01*
X82139Y113017D01*
X82139Y113020D01*
X81839Y113420D01*
X81830Y113422D01*
X81830Y113429D01*
X81430Y113729D01*
X81426Y113729D01*
X81425Y113732D01*
X80925Y114032D01*
X80915Y114031D01*
X80912Y114038D01*
X80512Y114138D01*
X80499Y114132D01*
X80492Y114139D01*
X79892Y114039D01*
X79885Y114031D01*
X79878Y114034D01*
X79478Y113834D01*
X79475Y113828D01*
X79470Y113829D01*
X79118Y113565D01*
X78944Y113912D01*
X78917Y113925D01*
X78912Y113938D01*
X78512Y114038D01*
X78504Y114034D01*
X78500Y114039D01*
X77900Y114039D01*
X77887Y114030D01*
X77878Y114034D01*
X77478Y113834D01*
X77464Y113806D01*
X77452Y113800D01*
X77352Y113300D01*
X77355Y113293D01*
X77351Y113290D01*
X77351Y109690D01*
X77355Y109684D01*
X77352Y109680D01*
X77452Y109180D01*
X77475Y109159D01*
X77478Y109146D01*
X77878Y108946D01*
X77889Y108948D01*
X77892Y108941D01*
X78492Y108841D01*
X78511Y108851D01*
X78522Y108846D01*
X78922Y109046D01*
X78932Y109066D01*
X78944Y109068D01*
X79151Y109481D01*
X79151Y109390D01*
X79170Y109364D01*
X79170Y109351D01*
X79570Y109051D01*
X79580Y109051D01*
X79582Y109044D01*
X80082Y108844D01*
X80095Y108848D01*
X80100Y108841D01*
X80600Y108841D01*
X80613Y108850D01*
G37*
G36*
X130346Y49165D02*
X130346Y49165D01*
X130350Y49162D01*
X130850Y49262D01*
X130871Y49285D01*
X130884Y49288D01*
X131084Y49688D01*
X131082Y49697D01*
X131088Y49700D01*
X131188Y50200D01*
X131180Y50218D01*
X131186Y50228D01*
X130986Y50728D01*
X130964Y50741D01*
X130962Y50754D01*
X130623Y50924D01*
X130675Y50975D01*
X130676Y50980D01*
X130679Y50980D01*
X130979Y51380D01*
X130979Y51390D01*
X130986Y51392D01*
X131186Y51892D01*
X131183Y51902D01*
X131187Y51905D01*
X131186Y51907D01*
X131189Y51910D01*
X131189Y52410D01*
X131180Y52423D01*
X131184Y52432D01*
X130985Y52830D01*
X130786Y53328D01*
X130774Y53336D01*
X130775Y53345D01*
X130375Y53745D01*
X130370Y53746D01*
X130370Y53749D01*
X129970Y54049D01*
X129960Y54049D01*
X129958Y54056D01*
X129460Y54255D01*
X129062Y54454D01*
X129046Y54451D01*
X129040Y54459D01*
X128540Y54459D01*
X128534Y54455D01*
X128530Y54458D01*
X127530Y54258D01*
X127522Y54249D01*
X127515Y54252D01*
X127015Y53952D01*
X127013Y53949D01*
X127010Y53949D01*
X126610Y53649D01*
X126608Y53640D01*
X126601Y53640D01*
X126301Y53240D01*
X126301Y53236D01*
X126298Y53235D01*
X125998Y52735D01*
X125999Y52725D01*
X125997Y52724D01*
X125992Y52722D01*
X125892Y52322D01*
X125898Y52309D01*
X125891Y52302D01*
X125991Y51702D01*
X125999Y51695D01*
X125996Y51688D01*
X126196Y51288D01*
X126202Y51285D01*
X126201Y51280D01*
X126465Y50928D01*
X126118Y50754D01*
X126105Y50727D01*
X126092Y50722D01*
X125992Y50322D01*
X125996Y50314D01*
X125991Y50310D01*
X125991Y49710D01*
X126000Y49697D01*
X125996Y49688D01*
X126196Y49288D01*
X126224Y49274D01*
X126230Y49262D01*
X126730Y49162D01*
X126737Y49165D01*
X126740Y49161D01*
X130340Y49161D01*
X130346Y49165D01*
G37*
G36*
X41038Y120914D02*
X41038Y120914D01*
X41052Y120937D01*
X41065Y120940D01*
X43144Y125493D01*
X43282Y125424D01*
X45074Y121442D01*
X45173Y121144D01*
X45190Y121133D01*
X45190Y121121D01*
X45590Y120821D01*
X45612Y120821D01*
X45620Y120811D01*
X46020Y120811D01*
X46033Y120820D01*
X46042Y120816D01*
X46642Y121116D01*
X46652Y121136D01*
X46664Y121138D01*
X46864Y121538D01*
X46860Y121562D01*
X46868Y121572D01*
X46768Y121972D01*
X46762Y121977D01*
X46764Y121982D01*
X44064Y127482D01*
X44058Y127485D01*
X44059Y127490D01*
X43759Y127890D01*
X43741Y127895D01*
X43738Y127906D01*
X43238Y128106D01*
X43219Y128100D01*
X43210Y128108D01*
X42710Y128008D01*
X42697Y127993D01*
X42685Y127995D01*
X42385Y127695D01*
X42384Y127686D01*
X42378Y127685D01*
X42078Y127185D01*
X42078Y127182D01*
X42076Y127181D01*
X39676Y122181D01*
X39676Y122179D01*
X39674Y122178D01*
X39474Y121678D01*
X39479Y121662D01*
X39476Y121660D01*
X39479Y121656D01*
X39472Y121648D01*
X39572Y121248D01*
X39593Y121231D01*
X39595Y121218D01*
X40095Y120918D01*
X40098Y120918D01*
X40098Y120916D01*
X40498Y120716D01*
X40527Y120721D01*
X40538Y120714D01*
X41038Y120914D01*
G37*
G36*
X61959Y120320D02*
X61959Y120320D01*
X61968Y120314D01*
X62468Y120514D01*
X62481Y120536D01*
X62494Y120538D01*
X62694Y120938D01*
X62691Y120954D01*
X62699Y120960D01*
X62699Y127560D01*
X62683Y127581D01*
X62685Y127595D01*
X62385Y127895D01*
X62364Y127898D01*
X62358Y127909D01*
X61758Y128009D01*
X61748Y128003D01*
X61742Y128009D01*
X61142Y127909D01*
X61123Y127888D01*
X61109Y127887D01*
X60909Y127587D01*
X60910Y127570D01*
X60903Y127564D01*
X60904Y127562D01*
X60901Y127560D01*
X60901Y126528D01*
X60677Y126603D01*
X59885Y127395D01*
X59585Y127695D01*
X59576Y127696D01*
X59575Y127702D01*
X59075Y128002D01*
X59057Y128000D01*
X59050Y128009D01*
X58650Y128009D01*
X58629Y127993D01*
X58615Y127995D01*
X58215Y127595D01*
X58214Y127586D01*
X58208Y127585D01*
X57908Y127085D01*
X57909Y127076D01*
X57903Y127071D01*
X57910Y127062D01*
X57911Y127059D01*
X57902Y127048D01*
X58002Y126648D01*
X58020Y126633D01*
X58020Y126621D01*
X58420Y126321D01*
X59571Y125362D01*
X58820Y124799D01*
X58819Y124794D01*
X58815Y124795D01*
X58415Y124395D01*
X58413Y124376D01*
X58402Y124372D01*
X58302Y123972D01*
X58311Y123952D01*
X58304Y123942D01*
X58504Y123442D01*
X58516Y123434D01*
X58515Y123425D01*
X58915Y123025D01*
X58939Y123022D01*
X58941Y123020D01*
X58943Y123020D01*
X58950Y123011D01*
X59350Y123011D01*
X59362Y123020D01*
X59365Y123020D01*
X59367Y123021D01*
X59375Y123018D01*
X59875Y123318D01*
X59879Y123326D01*
X59885Y123325D01*
X60183Y123623D01*
X60679Y124020D01*
X60901Y124168D01*
X60901Y120760D01*
X60917Y120739D01*
X60915Y120725D01*
X61215Y120425D01*
X61237Y120422D01*
X61243Y120411D01*
X61943Y120311D01*
X61959Y120320D01*
G37*
G36*
X127352Y37462D02*
X127352Y37462D01*
X127367Y37480D01*
X127379Y37480D01*
X127679Y37880D01*
X128638Y39031D01*
X129201Y38280D01*
X129206Y38279D01*
X129205Y38275D01*
X129605Y37875D01*
X129624Y37873D01*
X129628Y37862D01*
X130028Y37762D01*
X130048Y37771D01*
X130058Y37764D01*
X130558Y37964D01*
X130567Y37980D01*
X130578Y37979D01*
X130978Y38479D01*
X130979Y38502D01*
X130989Y38510D01*
X130989Y38910D01*
X130976Y38928D01*
X130979Y38940D01*
X130379Y39740D01*
X130374Y39741D01*
X130375Y39745D01*
X129978Y40141D01*
X129832Y40361D01*
X132740Y40361D01*
X132746Y40365D01*
X132750Y40362D01*
X133250Y40462D01*
X133263Y40477D01*
X133275Y40475D01*
X133575Y40775D01*
X133577Y40788D01*
X133586Y40795D01*
X133583Y40799D01*
X133589Y40802D01*
X133689Y41402D01*
X133680Y41419D01*
X133686Y41428D01*
X133486Y41928D01*
X133464Y41941D01*
X133462Y41954D01*
X133062Y42154D01*
X133046Y42151D01*
X133040Y42159D01*
X126440Y42159D01*
X126419Y42143D01*
X126405Y42145D01*
X126105Y41845D01*
X126102Y41824D01*
X126091Y41818D01*
X125991Y41218D01*
X125997Y41207D01*
X125992Y41200D01*
X126092Y40700D01*
X126107Y40687D01*
X126105Y40675D01*
X126405Y40375D01*
X126431Y40372D01*
X126436Y40365D01*
X126437Y40365D01*
X126440Y40361D01*
X127460Y40361D01*
X127399Y40238D01*
X126604Y39344D01*
X126305Y39045D01*
X126304Y39036D01*
X126298Y39035D01*
X125998Y38535D01*
X126000Y38517D01*
X125991Y38510D01*
X125991Y38110D01*
X126007Y38089D01*
X126005Y38075D01*
X126405Y37675D01*
X126414Y37674D01*
X126415Y37668D01*
X126915Y37368D01*
X126941Y37371D01*
X126952Y37362D01*
X127352Y37462D01*
G37*
G36*
X68710Y108742D02*
X68710Y108742D01*
X68721Y108754D01*
X68731Y108752D01*
X69231Y109152D01*
X69235Y109167D01*
X69238Y109169D01*
X69236Y109172D01*
X69236Y109173D01*
X69248Y109178D01*
X69348Y109578D01*
X69338Y109600D01*
X69344Y109612D01*
X69144Y110012D01*
X69142Y110013D01*
X69143Y110015D01*
X67352Y113099D01*
X67448Y113676D01*
X67945Y114869D01*
X68144Y115268D01*
X68244Y115468D01*
X68243Y115471D01*
X68246Y115473D01*
X68242Y115478D01*
X68239Y115494D01*
X68247Y115506D01*
X68147Y115806D01*
X68127Y115819D01*
X68125Y115832D01*
X67625Y116132D01*
X67613Y116131D01*
X67610Y116138D01*
X67110Y116238D01*
X67096Y116232D01*
X67088Y116238D01*
X66688Y116138D01*
X66671Y116117D01*
X66658Y116115D01*
X66358Y115615D01*
X66358Y115611D01*
X66355Y115610D01*
X63855Y110110D01*
X63857Y110102D01*
X63852Y110100D01*
X63752Y109600D01*
X63756Y109590D01*
X63757Y109588D01*
X63758Y109586D01*
X63752Y109578D01*
X63852Y109178D01*
X63870Y109163D01*
X63870Y109151D01*
X64270Y108851D01*
X64280Y108851D01*
X64282Y108844D01*
X64782Y108644D01*
X64810Y108652D01*
X64822Y108646D01*
X65222Y108846D01*
X65230Y108862D01*
X65241Y108863D01*
X65441Y109163D01*
X65441Y109167D01*
X65444Y109168D01*
X65644Y109568D01*
X65644Y109570D01*
X65645Y109571D01*
X66244Y110967D01*
X66408Y111213D01*
X66460Y111160D01*
X66957Y110266D01*
X66959Y110265D01*
X66958Y110264D01*
X67758Y108964D01*
X67770Y108959D01*
X67770Y108951D01*
X68170Y108651D01*
X68199Y108651D01*
X68210Y108642D01*
X68710Y108742D01*
G37*
G36*
X74957Y122911D02*
X74957Y122911D01*
X74968Y122922D01*
X74977Y122919D01*
X75277Y123119D01*
X75283Y123137D01*
X75291Y123142D01*
X75288Y123145D01*
X75298Y123150D01*
X75398Y123650D01*
X75394Y123658D01*
X75399Y123662D01*
X75299Y125761D01*
X75299Y126260D01*
X75290Y126273D01*
X75294Y126282D01*
X75094Y126682D01*
X75091Y126683D01*
X75092Y126685D01*
X74792Y127185D01*
X74789Y127187D01*
X74789Y127190D01*
X74489Y127590D01*
X74474Y127594D01*
X74472Y127604D01*
X74072Y127804D01*
X74069Y127803D01*
X74068Y127806D01*
X73568Y128006D01*
X73562Y128004D01*
X73560Y128008D01*
X73060Y128108D01*
X73042Y128100D01*
X73032Y128106D01*
X72532Y127906D01*
X72530Y127903D01*
X72528Y127904D01*
X72131Y127706D01*
X71870Y127619D01*
X71691Y127887D01*
X71671Y127894D01*
X71668Y127906D01*
X71168Y128106D01*
X71150Y128101D01*
X71142Y128109D01*
X70542Y128009D01*
X70527Y127993D01*
X70515Y127995D01*
X70215Y127695D01*
X70212Y127675D01*
X70202Y127670D01*
X70102Y127170D01*
X70105Y127163D01*
X70101Y127160D01*
X70101Y123560D01*
X70106Y123553D01*
X70102Y123548D01*
X70202Y123148D01*
X70225Y123129D01*
X70228Y123116D01*
X70628Y122916D01*
X70639Y122918D01*
X70643Y122911D01*
X71343Y122811D01*
X71361Y122821D01*
X71372Y122816D01*
X71772Y123016D01*
X71782Y123037D01*
X71785Y123039D01*
X71796Y123042D01*
X71996Y123542D01*
X71992Y123555D01*
X71999Y123560D01*
X71999Y125551D01*
X72189Y126024D01*
X72562Y126211D01*
X73034Y126211D01*
X73411Y125928D01*
X73601Y125548D01*
X73601Y123460D01*
X73606Y123453D01*
X73602Y123448D01*
X73702Y123048D01*
X73728Y123027D01*
X73732Y123014D01*
X74232Y122814D01*
X74249Y122819D01*
X74257Y122811D01*
X74957Y122911D01*
G37*
G36*
X126801Y82978D02*
X126801Y82978D01*
X126811Y82975D01*
X127180Y83227D01*
X127185Y83243D01*
X127195Y83244D01*
X129959Y88229D01*
X129958Y88237D01*
X129963Y88238D01*
X130118Y88724D01*
X130107Y88754D01*
X130111Y88767D01*
X129858Y89136D01*
X129843Y89141D01*
X129842Y89151D01*
X129317Y89442D01*
X129290Y89438D01*
X129279Y89446D01*
X128872Y89329D01*
X128855Y89308D01*
X128842Y89306D01*
X128551Y88781D01*
X127837Y87492D01*
X127519Y87466D01*
X123421Y89737D01*
X123071Y89931D01*
X123039Y89927D01*
X123027Y89933D01*
X122571Y89729D01*
X122563Y89714D01*
X122552Y89715D01*
X122174Y89238D01*
X122173Y89217D01*
X122163Y89210D01*
X122144Y88763D01*
X122157Y88745D01*
X122153Y88733D01*
X122406Y88364D01*
X122415Y88361D01*
X122415Y88354D01*
X122803Y88025D01*
X122811Y88024D01*
X122811Y88019D01*
X126801Y85808D01*
X126706Y85452D01*
X125933Y84058D01*
X125936Y84042D01*
X125927Y84036D01*
X125908Y83590D01*
X125926Y83563D01*
X125925Y83550D01*
X126314Y83220D01*
X126322Y83220D01*
X126322Y83214D01*
X126760Y82972D01*
X126801Y82978D01*
G37*
G36*
X130447Y23666D02*
X130447Y23666D01*
X130452Y23662D01*
X130852Y23762D01*
X130871Y23785D01*
X130884Y23788D01*
X131084Y24188D01*
X131082Y24199D01*
X131089Y24202D01*
X131189Y24802D01*
X131179Y24821D01*
X131184Y24832D01*
X130984Y25232D01*
X130962Y25243D01*
X130958Y25256D01*
X130458Y25456D01*
X130445Y25452D01*
X130440Y25459D01*
X128449Y25459D01*
X127976Y25649D01*
X127789Y26022D01*
X127789Y26594D01*
X128069Y26966D01*
X128446Y27061D01*
X130540Y27061D01*
X130553Y27070D01*
X130562Y27066D01*
X130962Y27266D01*
X130973Y27288D01*
X130986Y27292D01*
X131186Y27792D01*
X131181Y27810D01*
X131189Y27818D01*
X131089Y28418D01*
X131078Y28428D01*
X131081Y28437D01*
X130881Y28737D01*
X130856Y28746D01*
X130850Y28758D01*
X130350Y28858D01*
X130343Y28855D01*
X130340Y28859D01*
X128240Y28859D01*
X128234Y28855D01*
X128230Y28858D01*
X127730Y28758D01*
X127724Y28751D01*
X127718Y28754D01*
X127320Y28555D01*
X126822Y28356D01*
X126814Y28344D01*
X126805Y28345D01*
X126405Y27945D01*
X126404Y27933D01*
X126396Y27932D01*
X126196Y27532D01*
X126197Y27529D01*
X126194Y27528D01*
X125994Y27028D01*
X125995Y27025D01*
X125993Y27023D01*
X125994Y27021D01*
X125992Y27020D01*
X125892Y26520D01*
X125900Y26502D01*
X125894Y26492D01*
X126094Y25992D01*
X126097Y25990D01*
X126096Y25988D01*
X126377Y25427D01*
X126113Y25251D01*
X126105Y25230D01*
X126093Y25226D01*
X125893Y24626D01*
X125898Y24612D01*
X125895Y24610D01*
X125897Y24607D01*
X125891Y24602D01*
X125991Y24002D01*
X126007Y23987D01*
X126005Y23975D01*
X126305Y23675D01*
X126332Y23672D01*
X126340Y23661D01*
X130440Y23661D01*
X130447Y23666D01*
G37*
G36*
X128846Y16965D02*
X128846Y16965D01*
X128850Y16962D01*
X129350Y17062D01*
X129354Y17067D01*
X129358Y17064D01*
X129858Y17264D01*
X129860Y17267D01*
X129862Y17266D01*
X130262Y17466D01*
X130267Y17476D01*
X130275Y17475D01*
X130675Y17875D01*
X130676Y17887D01*
X130684Y17888D01*
X130884Y18288D01*
X130883Y18291D01*
X130886Y18292D01*
X131086Y18792D01*
X131084Y18798D01*
X131088Y18800D01*
X131188Y19300D01*
X131183Y19311D01*
X131184Y19311D01*
X131183Y19314D01*
X131188Y19320D01*
X131088Y19820D01*
X131077Y19830D01*
X131079Y19840D01*
X130784Y20233D01*
X130700Y20485D01*
X131062Y20666D01*
X131074Y20690D01*
X131075Y20690D01*
X131074Y20691D01*
X131077Y20696D01*
X131089Y20702D01*
X131189Y21302D01*
X131183Y21312D01*
X131189Y21318D01*
X131089Y21918D01*
X131068Y21937D01*
X131067Y21951D01*
X130767Y22151D01*
X130747Y22150D01*
X130740Y22159D01*
X126640Y22159D01*
X126634Y22155D01*
X126630Y22158D01*
X126130Y22058D01*
X126102Y22026D01*
X126092Y22022D01*
X125992Y21622D01*
X125996Y21614D01*
X125991Y21610D01*
X125991Y20910D01*
X126003Y20894D01*
X125999Y20883D01*
X126199Y20583D01*
X126223Y20574D01*
X126228Y20562D01*
X126628Y20462D01*
X126636Y20466D01*
X126640Y20461D01*
X128235Y20461D01*
X128724Y20363D01*
X129108Y20171D01*
X129388Y19797D01*
X129293Y19228D01*
X129108Y18950D01*
X128631Y18759D01*
X126540Y18759D01*
X126533Y18754D01*
X126528Y18758D01*
X126128Y18658D01*
X126101Y18624D01*
X126092Y18620D01*
X125992Y18120D01*
X125995Y18113D01*
X125991Y18110D01*
X125991Y17410D01*
X126003Y17394D01*
X125999Y17383D01*
X126199Y17083D01*
X126224Y17074D01*
X126230Y17062D01*
X126730Y16962D01*
X126737Y16965D01*
X126740Y16961D01*
X128840Y16961D01*
X128846Y16965D01*
G37*
G36*
X66561Y122719D02*
X66561Y122719D01*
X66568Y122714D01*
X67068Y122914D01*
X67070Y122917D01*
X67072Y122916D01*
X67472Y123116D01*
X67473Y123119D01*
X67475Y123118D01*
X67975Y123418D01*
X67979Y123426D01*
X67985Y123425D01*
X68285Y123725D01*
X68286Y123734D01*
X68292Y123735D01*
X68592Y124235D01*
X68592Y124238D01*
X68594Y124238D01*
X68794Y124638D01*
X68792Y124649D01*
X68799Y124652D01*
X68899Y125252D01*
X68893Y125263D01*
X68898Y125270D01*
X68698Y126270D01*
X68691Y126276D01*
X68694Y126282D01*
X68494Y126682D01*
X68491Y126683D01*
X68492Y126685D01*
X68192Y127185D01*
X68180Y127190D01*
X68180Y127199D01*
X67380Y127799D01*
X67370Y127799D01*
X67368Y127806D01*
X66868Y128006D01*
X66855Y128002D01*
X66850Y128009D01*
X65850Y128009D01*
X65844Y128005D01*
X65840Y128008D01*
X65340Y127908D01*
X65336Y127903D01*
X65332Y127906D01*
X64832Y127706D01*
X64827Y127698D01*
X64820Y127699D01*
X64420Y127399D01*
X64416Y127384D01*
X64406Y127382D01*
X64206Y126982D01*
X64210Y126961D01*
X64208Y126960D01*
X64211Y126956D01*
X64211Y126953D01*
X64204Y126942D01*
X64404Y126442D01*
X64413Y126436D01*
X64412Y126429D01*
X64812Y125929D01*
X64833Y125924D01*
X64838Y125912D01*
X65238Y125812D01*
X65241Y125813D01*
X65255Y125813D01*
X65265Y125822D01*
X65275Y125818D01*
X65769Y126114D01*
X66151Y126210D01*
X66629Y126114D01*
X67001Y125835D01*
X67001Y125266D01*
X66907Y124892D01*
X66436Y124609D01*
X65959Y124609D01*
X65470Y124805D01*
X65072Y125004D01*
X65031Y124996D01*
X65020Y124999D01*
X64620Y124699D01*
X64617Y124686D01*
X64608Y124685D01*
X64308Y124185D01*
X64309Y124173D01*
X64302Y124170D01*
X64202Y123670D01*
X64214Y123644D01*
X64211Y123630D01*
X64511Y123230D01*
X64529Y123225D01*
X64532Y123214D01*
X65532Y122814D01*
X65538Y122816D01*
X65540Y122812D01*
X66040Y122712D01*
X66047Y122715D01*
X66050Y122711D01*
X66550Y122711D01*
X66561Y122719D01*
G37*
G36*
X130656Y43574D02*
X130656Y43574D01*
X130670Y43571D01*
X131070Y43871D01*
X131074Y43887D01*
X131081Y43892D01*
X131079Y43896D01*
X131088Y43900D01*
X131188Y44400D01*
X131185Y44407D01*
X131189Y44410D01*
X131189Y44910D01*
X131181Y44921D01*
X131186Y44928D01*
X130986Y45428D01*
X130983Y45430D01*
X130984Y45432D01*
X130800Y45800D01*
X130875Y45875D01*
X130876Y45887D01*
X130884Y45888D01*
X131084Y46288D01*
X131082Y46299D01*
X131089Y46302D01*
X131189Y46902D01*
X131180Y46919D01*
X131186Y46928D01*
X130986Y47428D01*
X130957Y47445D01*
X130952Y47458D01*
X130552Y47558D01*
X130544Y47554D01*
X130540Y47559D01*
X126440Y47559D01*
X126428Y47550D01*
X126426Y47550D01*
X126418Y47554D01*
X126018Y47354D01*
X126005Y47327D01*
X126000Y47324D01*
X125992Y47320D01*
X125892Y46820D01*
X125897Y46808D01*
X125891Y46802D01*
X125991Y46202D01*
X126007Y46187D01*
X126005Y46175D01*
X126305Y45875D01*
X126332Y45872D01*
X126340Y45861D01*
X128831Y45861D01*
X129302Y45672D01*
X129489Y45205D01*
X129392Y44721D01*
X129292Y44322D01*
X129304Y44294D01*
X129301Y44280D01*
X129601Y43880D01*
X129619Y43875D01*
X129622Y43864D01*
X130122Y43664D01*
X130128Y43666D01*
X130130Y43662D01*
X130630Y43562D01*
X130656Y43574D01*
G37*
%LPC*%
G36*
X129415Y93158D02*
X129415Y93158D01*
X128940Y93310D01*
X128424Y93596D01*
X128047Y93915D01*
X127850Y94355D01*
X127783Y94839D01*
X127802Y95275D01*
X127953Y95750D01*
X128189Y96174D01*
X128591Y96502D01*
X129125Y96655D01*
X129533Y96772D01*
X129539Y96782D01*
X129547Y96779D01*
X129731Y96906D01*
X129738Y96927D01*
X129742Y96893D01*
X129765Y96868D01*
X129767Y96855D01*
X130637Y96372D01*
X131018Y96050D01*
X131262Y95693D01*
X131415Y95160D01*
X131481Y94679D01*
X131331Y94209D01*
X131094Y93781D01*
X130822Y93490D01*
X130332Y93206D01*
X129851Y93140D01*
X129415Y93158D01*
G37*
%LPD*%
G36*
X125008Y79964D02*
X125008Y79964D01*
X125019Y79958D01*
X125476Y80162D01*
X125483Y80176D01*
X125493Y80175D01*
X125823Y80564D01*
X125823Y80575D01*
X125831Y80580D01*
X125827Y80585D01*
X125834Y80590D01*
X125902Y81124D01*
X125892Y81140D01*
X125898Y81150D01*
X125693Y81606D01*
X125674Y81617D01*
X125672Y81629D01*
X122611Y83326D01*
X122598Y83324D01*
X122593Y83332D01*
X122059Y83399D01*
X122028Y83382D01*
X122015Y83382D01*
X121686Y82994D01*
X121685Y82986D01*
X121680Y82986D01*
X121438Y82548D01*
X121440Y82532D01*
X121435Y82528D01*
X121438Y82524D01*
X121432Y82518D01*
X121500Y82022D01*
X121512Y82011D01*
X121509Y82001D01*
X121761Y81632D01*
X121777Y81627D01*
X121778Y81617D01*
X124489Y80114D01*
X124497Y80115D01*
X124498Y80110D01*
X124984Y79956D01*
X125008Y79964D01*
G37*
%LPC*%
G36*
X86505Y108639D02*
X86505Y108639D01*
X86042Y108732D01*
X85952Y109183D01*
X86133Y109546D01*
X86708Y109641D01*
X86710Y109644D01*
X86712Y109642D01*
X87112Y109742D01*
X87138Y109775D01*
X87146Y109780D01*
X87149Y109782D01*
X87249Y110382D01*
X87239Y110401D01*
X87244Y110412D01*
X87044Y110812D01*
X87024Y110822D01*
X87022Y110834D01*
X86622Y111034D01*
X86612Y111032D01*
X86608Y111039D01*
X86018Y111137D01*
X85727Y111331D01*
X85707Y111330D01*
X85733Y111354D01*
X85738Y111382D01*
X85749Y111390D01*
X85749Y111685D01*
X85842Y112148D01*
X86305Y112241D01*
X87762Y112241D01*
X87851Y111884D01*
X87851Y108816D01*
X87585Y108639D01*
X86505Y108639D01*
G37*
%LPD*%
%LPC*%
G36*
X79356Y122609D02*
X79356Y122609D01*
X78986Y122702D01*
X78804Y123158D01*
X78983Y123516D01*
X79558Y123611D01*
X79560Y123614D01*
X79562Y123612D01*
X79962Y123712D01*
X79988Y123744D01*
X79996Y123750D01*
X79999Y123752D01*
X80099Y124352D01*
X80089Y124371D01*
X80094Y124382D01*
X79894Y124782D01*
X79874Y124792D01*
X79872Y124804D01*
X79472Y125004D01*
X79463Y125002D01*
X79460Y125008D01*
X78969Y125106D01*
X78677Y125301D01*
X78619Y125297D01*
X78618Y125298D01*
X77794Y124601D01*
X78583Y125324D01*
X78588Y125352D01*
X78599Y125360D01*
X78599Y125651D01*
X78786Y126118D01*
X79156Y126211D01*
X80612Y126211D01*
X80701Y125854D01*
X80701Y122786D01*
X80435Y122609D01*
X79356Y122609D01*
G37*
%LPD*%
G36*
X120423Y82619D02*
X120423Y82619D01*
X120432Y82614D01*
X120889Y82819D01*
X120899Y82838D01*
X120912Y82840D01*
X121202Y83365D01*
X121200Y83380D01*
X121207Y83385D01*
X121209Y83386D01*
X121228Y83833D01*
X121215Y83851D01*
X121219Y83863D01*
X120966Y84232D01*
X120951Y84237D01*
X120949Y84247D01*
X120337Y84587D01*
X120328Y84585D01*
X120326Y84591D01*
X119928Y84698D01*
X119890Y84683D01*
X119879Y84684D01*
X119598Y84382D01*
X119597Y84373D01*
X119590Y84373D01*
X119251Y83760D01*
X119252Y83757D01*
X119250Y83756D01*
X119252Y83754D01*
X119252Y83752D01*
X119247Y83749D01*
X119140Y83351D01*
X119153Y83320D01*
X119150Y83307D01*
X119490Y82890D01*
X119503Y82887D01*
X119504Y82878D01*
X119941Y82635D01*
X119957Y82638D01*
X119963Y82629D01*
X120410Y82610D01*
X120423Y82619D01*
G37*
%LPC*%
G36*
X128165Y51154D02*
X128165Y51154D01*
X127789Y51530D01*
X127789Y51998D01*
X127981Y52381D01*
X128260Y52661D01*
X128728Y52661D01*
X129105Y52472D01*
X129388Y52001D01*
X129294Y51531D01*
X129012Y51155D01*
X128541Y51060D01*
X128165Y51154D01*
G37*
%LPD*%
%LPC*%
G36*
X79721Y110736D02*
X79721Y110736D01*
X79345Y111018D01*
X79250Y111489D01*
X79344Y111865D01*
X79720Y112241D01*
X80188Y112241D01*
X80571Y112049D01*
X80851Y111770D01*
X80851Y111302D01*
X80662Y110925D01*
X80191Y110642D01*
X79721Y110736D01*
G37*
%LPD*%
%LPC*%
G36*
X72916Y110739D02*
X72916Y110739D01*
X72539Y111022D01*
X72354Y111392D01*
X72542Y111862D01*
X72920Y112241D01*
X73500Y112241D01*
X73547Y112276D01*
X73554Y112300D01*
X73564Y112273D01*
X73561Y112260D01*
X73854Y111869D01*
X73948Y111397D01*
X73761Y111022D01*
X73384Y110739D01*
X72916Y110739D01*
G37*
%LPD*%
%LPC*%
G36*
X128452Y57559D02*
X128452Y57559D01*
X128079Y57746D01*
X127889Y58219D01*
X127889Y58610D01*
X127860Y58649D01*
X127858Y58656D01*
X127591Y58758D01*
X127926Y58663D01*
X127936Y58666D01*
X127946Y58666D01*
X127956Y58674D01*
X127963Y58677D01*
X127975Y58675D01*
X128264Y58965D01*
X128745Y59061D01*
X128924Y59061D01*
X129295Y58782D01*
X129390Y58310D01*
X129295Y57838D01*
X128924Y57559D01*
X128452Y57559D01*
G37*
%LPD*%
D10*
X13970Y85090D02*
X13970Y67310D01*
X16510Y66040D02*
X21590Y66040D01*
X21590Y86360D02*
X16510Y86360D01*
X44450Y110490D02*
X44450Y118110D01*
X78740Y104140D02*
X78740Y76200D01*
X110490Y37465D02*
X123190Y37465D01*
D11*
X106310Y73100D02*
X28310Y73100D01*
X106310Y73100D02*
X106310Y58100D01*
X28310Y58100D02*
X28310Y73100D01*
X28310Y3100D02*
X106310Y3100D01*
X28310Y3100D02*
X28310Y18100D01*
X106310Y18100D02*
X106310Y3100D01*
X60180Y78440D02*
X52180Y78440D01*
X60180Y78440D02*
X60180Y83440D01*
X26180Y99440D02*
X26180Y104440D01*
X34180Y104440D01*
D12*
X54610Y106680D03*
D13*
X101760Y120760D02*
X121760Y120760D01*
X117760Y116760D02*
X117668Y116675D01*
X117579Y116587D01*
X117493Y116496D01*
X117409Y116403D01*
X117329Y116307D01*
X117251Y116208D01*
X117177Y116107D01*
X117106Y116004D01*
X117038Y115899D01*
X116973Y115792D01*
X116911Y115683D01*
X116854Y115572D01*
X116799Y115459D01*
X116748Y115345D01*
X116701Y115229D01*
X116657Y115111D01*
X116617Y114993D01*
X116580Y114873D01*
X116548Y114752D01*
X116519Y114630D01*
X116494Y114507D01*
X116472Y114384D01*
X116455Y114260D01*
X116441Y114135D01*
X116432Y114010D01*
X116426Y113885D01*
X116424Y113760D01*
X116426Y113635D01*
X116432Y113510D01*
X116441Y113385D01*
X116455Y113260D01*
X116472Y113136D01*
X116494Y113013D01*
X116519Y112890D01*
X116548Y112768D01*
X116580Y112647D01*
X116617Y112527D01*
X116657Y112409D01*
X116701Y112291D01*
X116748Y112175D01*
X116799Y112061D01*
X116854Y111948D01*
X116911Y111837D01*
X116973Y111728D01*
X117038Y111621D01*
X117106Y111516D01*
X117177Y111413D01*
X117251Y111312D01*
X117329Y111213D01*
X117409Y111117D01*
X117493Y111024D01*
X117579Y110933D01*
X117668Y110845D01*
X117760Y110760D01*
X117854Y110681D01*
X117946Y110600D01*
X118035Y110515D01*
X118121Y110428D01*
X118205Y110338D01*
X118285Y110245D01*
X118363Y110150D01*
X118437Y110053D01*
X118509Y109953D01*
X118577Y109851D01*
X118642Y109746D01*
X118703Y109640D01*
X118761Y109532D01*
X118816Y109422D01*
X118867Y109311D01*
X118914Y109197D01*
X118958Y109083D01*
X118998Y108967D01*
X119035Y108850D01*
X119068Y108731D01*
X119097Y108612D01*
X119122Y108492D01*
X119143Y108371D01*
X119161Y108250D01*
X119174Y108128D01*
X119184Y108005D01*
X119190Y107883D01*
X119192Y107760D01*
X119190Y107637D01*
X119184Y107515D01*
X119174Y107392D01*
X119161Y107270D01*
X119143Y107149D01*
X119122Y107028D01*
X119097Y106908D01*
X119068Y106789D01*
X119035Y106670D01*
X118998Y106553D01*
X118958Y106437D01*
X118914Y106323D01*
X118867Y106209D01*
X118816Y106098D01*
X118761Y105988D01*
X118703Y105880D01*
X118642Y105774D01*
X118577Y105669D01*
X118509Y105567D01*
X118437Y105467D01*
X118363Y105370D01*
X118285Y105275D01*
X118205Y105182D01*
X118121Y105092D01*
X118035Y105005D01*
X117946Y104920D01*
X117854Y104839D01*
X117760Y104760D01*
D14*
X136760Y127760D02*
X86760Y127760D01*
D13*
X111760Y116760D02*
X111668Y116675D01*
X111579Y116587D01*
X111493Y116496D01*
X111409Y116403D01*
X111329Y116307D01*
X111251Y116208D01*
X111177Y116107D01*
X111106Y116004D01*
X111038Y115899D01*
X110973Y115792D01*
X110911Y115683D01*
X110854Y115572D01*
X110799Y115459D01*
X110748Y115345D01*
X110701Y115229D01*
X110657Y115111D01*
X110617Y114993D01*
X110580Y114873D01*
X110548Y114752D01*
X110519Y114630D01*
X110494Y114507D01*
X110472Y114384D01*
X110455Y114260D01*
X110441Y114135D01*
X110432Y114010D01*
X110426Y113885D01*
X110424Y113760D01*
X110426Y113635D01*
X110432Y113510D01*
X110441Y113385D01*
X110455Y113260D01*
X110472Y113136D01*
X110494Y113013D01*
X110519Y112890D01*
X110548Y112768D01*
X110580Y112647D01*
X110617Y112527D01*
X110657Y112409D01*
X110701Y112291D01*
X110748Y112175D01*
X110799Y112061D01*
X110854Y111948D01*
X110911Y111837D01*
X110973Y111728D01*
X111038Y111621D01*
X111106Y111516D01*
X111177Y111413D01*
X111251Y111312D01*
X111329Y111213D01*
X111409Y111117D01*
X111493Y111024D01*
X111579Y110933D01*
X111668Y110845D01*
X111760Y110760D01*
X111854Y110681D01*
X111946Y110600D01*
X112035Y110515D01*
X112121Y110428D01*
X112205Y110338D01*
X112285Y110245D01*
X112363Y110150D01*
X112437Y110053D01*
X112509Y109953D01*
X112577Y109851D01*
X112642Y109746D01*
X112703Y109640D01*
X112761Y109532D01*
X112816Y109422D01*
X112867Y109311D01*
X112914Y109197D01*
X112958Y109083D01*
X112998Y108967D01*
X113035Y108850D01*
X113068Y108731D01*
X113097Y108612D01*
X113122Y108492D01*
X113143Y108371D01*
X113161Y108250D01*
X113174Y108128D01*
X113184Y108005D01*
X113190Y107883D01*
X113192Y107760D01*
X113190Y107637D01*
X113184Y107515D01*
X113174Y107392D01*
X113161Y107270D01*
X113143Y107149D01*
X113122Y107028D01*
X113097Y106908D01*
X113068Y106789D01*
X113035Y106670D01*
X112998Y106553D01*
X112958Y106437D01*
X112914Y106323D01*
X112867Y106209D01*
X112816Y106098D01*
X112761Y105988D01*
X112703Y105880D01*
X112642Y105774D01*
X112577Y105669D01*
X112509Y105567D01*
X112437Y105467D01*
X112363Y105370D01*
X112285Y105275D01*
X112205Y105182D01*
X112121Y105092D01*
X112035Y105005D01*
X111946Y104920D01*
X111854Y104839D01*
X111760Y104760D01*
X105760Y110760D02*
X105668Y110845D01*
X105579Y110933D01*
X105493Y111024D01*
X105409Y111117D01*
X105329Y111213D01*
X105251Y111312D01*
X105177Y111413D01*
X105106Y111516D01*
X105038Y111621D01*
X104973Y111728D01*
X104911Y111837D01*
X104854Y111948D01*
X104799Y112061D01*
X104748Y112175D01*
X104701Y112291D01*
X104657Y112409D01*
X104617Y112527D01*
X104580Y112647D01*
X104548Y112768D01*
X104519Y112890D01*
X104494Y113013D01*
X104472Y113136D01*
X104455Y113260D01*
X104441Y113385D01*
X104432Y113510D01*
X104426Y113635D01*
X104424Y113760D01*
X104426Y113885D01*
X104432Y114010D01*
X104441Y114135D01*
X104455Y114260D01*
X104472Y114384D01*
X104494Y114507D01*
X104519Y114630D01*
X104548Y114752D01*
X104580Y114873D01*
X104617Y114993D01*
X104657Y115111D01*
X104701Y115229D01*
X104748Y115345D01*
X104799Y115459D01*
X104854Y115572D01*
X104911Y115683D01*
X104973Y115792D01*
X105038Y115899D01*
X105106Y116004D01*
X105177Y116107D01*
X105251Y116208D01*
X105329Y116307D01*
X105409Y116403D01*
X105493Y116496D01*
X105579Y116587D01*
X105668Y116675D01*
X105760Y116760D01*
X105760Y110760D02*
X105854Y110681D01*
X105946Y110600D01*
X106035Y110515D01*
X106121Y110428D01*
X106205Y110338D01*
X106285Y110245D01*
X106363Y110150D01*
X106437Y110053D01*
X106509Y109953D01*
X106577Y109851D01*
X106642Y109746D01*
X106703Y109640D01*
X106761Y109532D01*
X106816Y109422D01*
X106867Y109311D01*
X106914Y109197D01*
X106958Y109083D01*
X106998Y108967D01*
X107035Y108850D01*
X107068Y108731D01*
X107097Y108612D01*
X107122Y108492D01*
X107143Y108371D01*
X107161Y108250D01*
X107174Y108128D01*
X107184Y108005D01*
X107190Y107883D01*
X107192Y107760D01*
X107190Y107637D01*
X107184Y107515D01*
X107174Y107392D01*
X107161Y107270D01*
X107143Y107149D01*
X107122Y107028D01*
X107097Y106908D01*
X107068Y106789D01*
X107035Y106670D01*
X106998Y106553D01*
X106958Y106437D01*
X106914Y106323D01*
X106867Y106209D01*
X106816Y106098D01*
X106761Y105988D01*
X106703Y105880D01*
X106642Y105774D01*
X106577Y105669D01*
X106509Y105567D01*
X106437Y105467D01*
X106363Y105370D01*
X106285Y105275D01*
X106205Y105182D01*
X106121Y105092D01*
X106035Y105005D01*
X105946Y104920D01*
X105854Y104839D01*
X105760Y104760D01*
D14*
X111760Y82760D02*
X86760Y127760D01*
X136760Y127760D02*
X111760Y82760D01*
M02*
