<svg role="img" viewbox=" 0 0 24 24" xmlns="http://www.w3.org/2000/svg"><path d="m 17.054496,3.838246 c 0,0 0.340884,1.438024 -0.744925,1.6380194 C 15.55358,5.6098656 14.334439,4.8608948 13.720416,4.1135434 12.964425,3.1918369 13.05997,2.4668872 13.648083,1.8231772 c 0.883653,-0.97730573 2.396446,-0.5997165 2.396446,-0.5997165 0,0 -2.771608,-2.4315236 -5.657923,-0.4388564 -2.5710713,1.7694604 -1.8331636,4.1820911 0.4869,6.2870363 2.090919,1.9025208 0.420775,3.9885734 -1.6855277,3.7175944 C 7.7440111,10.605164 7.1531991,9.4464854 7.5000211,8.7353007 7.7988009,8.1269475 8.8352185,7.7528666 8.8352185,7.7528666 c 0,0 -1.1905308,-0.4839292 -2.5918537,0.043723 C 4.9845492,8.2710731 3.946782,9.3115352 4.0296415,11.917683 V 24 c 0,0 1.3011899,-1.604282 2.8307156,-3.235824 1.7127881,-1.840444 2.4944197,-3.08414 4.2533609,-2.938664 3.328142,0.205933 5.734844,-1.272576 7.37098,-3.644992 3.141101,-4.5626493 0.680689,-9.6605088 -1.430202,-10.3422747" style="fill:#ee2e22;fill-opacity:1;stroke-width:0.66479"/></svg>
